<svg xmlns="http://www.w3.org/2000/svg" xmlns:xlink="http://www.w3.org/1999/xlink" width="288" zoomAndPan="magnify" viewBox="0 0 216 72" height="96" preserveAspectRatio="xMidYMid meet" version="1.0"><defs><clipPath id="6d2adba21c"><path d="M 19.269531 9.304688 L 63 9.304688 L 63 53 L 19.269531 53 Z M 19.269531 9.304688 " clip-rule="nonzero"/></clipPath><clipPath id="452a953a66"><path d="M 128 24 L 156 24 L 156 64.804688 L 128 64.804688 Z M 128 24 " clip-rule="nonzero"/></clipPath><clipPath id="3d874d4e3e"><path d="M 159 9.304688 L 166 9.304688 L 166 53 L 159 53 Z M 159 9.304688 " clip-rule="nonzero"/></clipPath></defs><rect x="-21.6" width="259.2" fill="#ffffff" y="-7.2" height="86.4" fill-opacity="1"/><rect x="-21.6" width="259.2" fill="#ffffff" y="-7.2" height="86.4" fill-opacity="1"/><g clip-path="url(#6d2adba21c)"><path fill="#4285f4" d="M 41.890625 29.105469 L 41.890625 35.035156 L 56.164062 35.035156 C 55.785156 38.316406 54.648438 40.835938 52.882812 42.476562 C 50.859375 44.496094 47.574219 46.765625 41.890625 46.765625 C 33.175781 46.765625 26.355469 39.703125 26.355469 31 C 26.355469 22.296875 33.050781 15.230469 41.890625 15.230469 C 46.566406 15.230469 50.101562 17.125 52.628906 19.519531 L 56.796875 15.359375 C 53.261719 11.953125 48.460938 9.304688 41.890625 9.304688 C 29.890625 9.304688 19.785156 19.015625 19.785156 31 C 19.785156 42.980469 29.890625 52.695312 41.890625 52.695312 C 48.332031 52.695312 53.261719 50.550781 57.050781 46.640625 C 60.964844 42.730469 62.230469 37.179688 62.230469 32.765625 C 62.230469 31.378906 62.101562 30.117188 61.976562 29.105469 Z M 41.890625 29.105469 " fill-opacity="1" fill-rule="nonzero"/></g><path fill="#ea4335" d="M 79.914062 24.1875 C 72.207031 24.1875 65.765625 30.117188 65.765625 38.1875 C 65.765625 46.261719 72.082031 52.191406 79.914062 52.191406 C 87.746094 52.191406 94.0625 46.386719 94.0625 38.316406 C 94.0625 30.117188 87.746094 24.1875 79.914062 24.1875 Z M 79.914062 46.765625 C 75.617188 46.765625 71.957031 43.234375 71.957031 38.316406 C 71.957031 33.269531 75.617188 29.863281 79.914062 29.863281 C 84.207031 29.863281 87.871094 33.269531 87.871094 38.316406 C 87.871094 43.234375 84.207031 46.765625 79.914062 46.765625 Z M 79.914062 46.765625 " fill-opacity="1" fill-rule="nonzero"/><g clip-path="url(#452a953a66)"><path fill="#4285f4" d="M 149.007812 27.339844 L 148.757812 27.339844 C 147.367188 25.703125 144.714844 24.1875 141.304688 24.1875 C 134.230469 24.1875 128.167969 30.242188 128.167969 38.1875 C 128.167969 46.007812 134.230469 52.191406 141.304688 52.191406 C 144.714844 52.191406 147.367188 50.675781 148.757812 49.035156 L 149.007812 49.035156 L 149.007812 51.054688 C 149.007812 56.351562 146.105469 59.253906 141.554688 59.253906 C 137.765625 59.253906 135.492188 56.605469 134.484375 54.207031 L 129.175781 56.480469 C 130.691406 60.136719 134.863281 64.804688 141.683594 64.804688 C 148.882812 64.804688 155.074219 60.515625 155.074219 50.171875 L 155.074219 24.945312 L 149.261719 24.945312 L 149.261719 27.339844 Z M 141.933594 46.765625 C 137.640625 46.765625 134.484375 43.109375 134.484375 38.316406 C 134.484375 33.394531 137.765625 29.863281 141.933594 29.863281 C 146.105469 29.863281 149.386719 33.523438 149.386719 38.441406 C 149.515625 43.234375 146.230469 46.765625 141.933594 46.765625 Z M 141.933594 46.765625 " fill-opacity="1" fill-rule="nonzero"/></g><path fill="#fbbc05" d="M 111.367188 24.1875 C 103.660156 24.1875 97.21875 30.117188 97.21875 38.1875 C 97.21875 46.261719 103.535156 52.191406 111.367188 52.191406 C 119.199219 52.191406 125.515625 46.386719 125.515625 38.316406 C 125.515625 30.117188 119.199219 24.1875 111.367188 24.1875 Z M 111.367188 46.765625 C 107.070312 46.765625 103.410156 43.234375 103.410156 38.316406 C 103.410156 33.269531 107.070312 29.863281 111.367188 29.863281 C 115.660156 29.863281 119.324219 33.269531 119.324219 38.316406 C 119.324219 43.234375 115.660156 46.765625 111.367188 46.765625 Z M 111.367188 46.765625 " fill-opacity="1" fill-rule="nonzero"/><g clip-path="url(#3d874d4e3e)"><path fill="#34a853" d="M 159.746094 9.933594 L 165.808594 9.933594 L 165.808594 52.316406 L 159.746094 52.316406 Z M 159.746094 9.933594 " fill-opacity="1" fill-rule="nonzero"/></g><path fill="#ea4335" d="M 184.503906 46.765625 C 181.347656 46.765625 179.199219 45.378906 177.683594 42.476562 L 196.503906 34.78125 L 195.875 33.144531 C 194.734375 29.988281 191.074219 24.1875 183.871094 24.1875 C 176.671875 24.1875 170.609375 29.863281 170.609375 38.1875 C 170.609375 46.007812 176.546875 52.191406 184.503906 52.191406 C 190.945312 52.191406 194.609375 48.28125 196.253906 46.007812 L 191.453125 42.855469 C 189.808594 45.253906 187.664062 46.765625 184.503906 46.765625 Z M 184.125 29.484375 C 186.652344 29.484375 188.800781 30.746094 189.429688 32.511719 L 176.800781 37.808594 C 176.671875 32.007812 180.96875 29.484375 184.125 29.484375 Z M 184.125 29.484375 " fill-opacity="1" fill-rule="nonzero"/></svg>