<svg xmlns="http://www.w3.org/2000/svg" xmlns:xlink="http://www.w3.org/1999/xlink" width="933" zoomAndPan="magnify" viewBox="0 0 699.75 247.499998" height="330" preserveAspectRatio="xMidYMid meet" version="1.0"><defs><clipPath id="d949519741"><path d="M 321.070312 59.511719 L 400.199219 59.511719 L 400.199219 77.964844 L 321.070312 77.964844 Z M 321.070312 59.511719 " clip-rule="nonzero"/></clipPath><clipPath id="7f3b167d03"><path d="M 8.804688 125 L 56 125 L 56 208 L 8.804688 208 Z M 8.804688 125 " clip-rule="nonzero"/></clipPath><clipPath id="c6b0fcd034"><path d="M 124 237 L 142 237 L 142 246.898438 L 124 246.898438 Z M 124 237 " clip-rule="nonzero"/></clipPath><clipPath id="185feec271"><path d="M 124.332031 239.734375 L 141.574219 239.734375 L 141.574219 246.726562 L 124.332031 246.726562 Z M 124.332031 239.734375 " clip-rule="nonzero"/></clipPath><clipPath id="f68fcd22c1"><path d="M 124.332031 243.425781 L 141.574219 243.425781 L 141.574219 246.726562 L 124.332031 246.726562 Z M 124.332031 243.425781 " clip-rule="nonzero"/></clipPath></defs><path fill="#eff1f4" d="M 283.09375 139.050781 C 277.890625 131.785156 269.746094 126.769531 260.398438 125.738281 C 259.132812 125.382812 257.820312 125.195312 256.480469 125.195312 C 254.625 125.195312 252.832031 125.488281 251.15625 126.03125 C 250.121094 126.210938 249.097656 126.445312 248.101562 126.722656 C 245.378906 120.074219 238.496094 112.703125 226.921875 112.90625 C 219.246094 113.042969 211.472656 117.839844 206.636719 123.300781 L 205.230469 84.527344 L 189.402344 84.527344 L 189.15625 121.828125 C 188.78125 121.808594 183.453125 113.480469 174.425781 114.027344 C 167.414062 114.449219 161.675781 120.394531 159.550781 124.425781 C 155.386719 119.722656 147.617188 116.820312 138.1875 116.820312 C 123.878906 116.820312 111.742188 126.117188 107.5 138.992188 C 107.324219 138.988281 107.152344 138.984375 106.976562 138.984375 C 88.441406 138.984375 73.414062 153.996094 73.414062 172.507812 C 73.414062 191.023438 88.441406 206.03125 106.976562 206.03125 C 122.441406 206.03125 268.90625 206.03125 281.042969 206.03125 C 299.578125 206.03125 314.601562 191.023438 314.601562 172.507812 C 314.601562 154.683594 300.671875 140.109375 283.09375 139.050781 " fill-opacity="1" fill-rule="nonzero"/><path fill="#fbb03b" d="M 205.59375 92.101562 C 205.59375 100.117188 197.425781 113.167969 197.425781 113.167969 C 197.425781 113.167969 189.261719 98.8125 189.261719 92.101562 C 189.261719 86.984375 192.917969 84.386719 197.425781 84.386719 C 201.9375 84.386719 205.59375 86.902344 205.59375 92.101562 " fill-opacity="1" fill-rule="nonzero"/><path fill="#f7931e" d="M 203.054688 89.457031 C 203.054688 94.726562 197.550781 103.308594 197.550781 103.308594 C 197.550781 103.308594 192.042969 93.871094 192.042969 89.457031 C 192.042969 85.9375 194.511719 84.386719 197.550781 84.386719 C 200.59375 84.386719 203.054688 85.9375 203.054688 89.457031 " fill-opacity="1" fill-rule="nonzero"/><path fill="#eff1f4" d="M 186.726562 85.46875 L 208.945312 85.46875 C 209.304688 84.648438 209.671875 83.796875 210.039062 82.921875 C 214.71875 71.777344 219.71875 56.589844 219.699219 42.605469 C 219.675781 29.066406 214.855469 18.148438 209.699219 10.332031 C 206.832031 5.222656 197.5 -3.019531 197.5 -3.019531 C 197.5 -3.019531 188.777344 5.550781 185.324219 10.375 C 180.09375 18.308594 175.136719 29.253906 175.15625 42.269531 C 175.175781 54.367188 180.855469 71.007812 185.792969 83.195312 C 186.105469 83.972656 186.417969 84.730469 186.726562 85.46875 " fill-opacity="1" fill-rule="nonzero"/><path fill="#76a0ff" d="M 202.707031 35.042969 C 202.707031 38.046875 200.269531 40.480469 197.261719 40.480469 C 194.253906 40.480469 191.816406 38.046875 191.816406 35.042969 C 191.816406 32.039062 194.253906 29.605469 197.261719 29.605469 C 200.269531 29.605469 202.707031 32.039062 202.707031 35.042969 " fill-opacity="1" fill-rule="nonzero"/><path fill="#f2734c" d="M 197.425781 28.539062 C 193.875 28.539062 190.992188 31.414062 190.992188 34.964844 C 190.992188 38.515625 193.875 41.390625 197.425781 41.390625 C 200.980469 41.390625 203.859375 38.515625 203.859375 34.964844 C 203.859375 31.414062 200.980469 28.539062 197.425781 28.539062 M 197.425781 30.269531 C 200.019531 30.269531 202.128906 32.375 202.128906 34.964844 C 202.128906 37.554688 200.019531 39.660156 197.425781 39.660156 C 194.835938 39.660156 192.726562 37.554688 192.726562 34.964844 C 192.726562 32.375 194.835938 30.269531 197.425781 30.269531 " fill-opacity="1" fill-rule="nonzero"/><path fill="#f2734c" d="M 177.382812 58.15625 C 177.382812 58.15625 167.570312 60.371094 164.835938 66.765625 C 162.664062 71.835938 176.207031 85.917969 176.207031 85.917969 C 176.207031 85.917969 175.898438 73.976562 181.589844 72 L 177.382812 58.15625 " fill-opacity="1" fill-rule="nonzero"/><path fill="#f2734c" d="M 218.214844 57.785156 C 218.214844 57.785156 228.230469 60.371094 230.96875 66.765625 C 233.140625 71.835938 219.59375 85.917969 219.59375 85.917969 C 219.59375 85.917969 219.902344 73.976562 214.210938 72 L 218.214844 57.785156 " fill-opacity="1" fill-rule="nonzero"/><path fill="#f2734c" d="M 194.746094 57.5 L 200.109375 57.5 L 200.109375 69.300781 L 197.425781 79.824219 L 194.746094 69.585938 L 194.746094 57.5 " fill-opacity="1" fill-rule="nonzero"/><path fill="#f2734c" d="M 185.988281 8.855469 C 189.214844 10.519531 193.1875 11.503906 197.484375 11.503906 C 201.730469 11.503906 205.660156 10.542969 208.867188 8.914062 C 205.457031 3.40625 197.308594 -3.84375 197.308594 -3.84375 C 197.308594 -3.84375 189.835938 3.5 185.988281 8.855469 " fill-opacity="1" fill-rule="nonzero"/><path fill="#f2734c" d="M 206.832031 89.34375 L 188.683594 89.34375 L 187.199219 85.550781 L 208.316406 85.550781 L 206.832031 89.34375 " fill-opacity="1" fill-rule="nonzero"/><path fill="#eff1f4" d="M 72.019531 59.636719 C 66.652344 59.636719 62.164062 63.402344 61.050781 68.433594 C 59.828125 67.945312 58.496094 67.675781 57.097656 67.675781 C 48.480469 67.675781 45.5625 76.722656 41 76.722656 L 105.832031 76.722656 C 101.199219 76.722656 95.15625 67.007812 89.292969 67.007812 C 87.007812 67.007812 84.875 67.640625 83.054688 68.742188 C 82.0625 63.554688 77.5 59.636719 72.019531 59.636719 " fill-opacity="1" fill-rule="nonzero"/><path fill="#eff1f4" d="M 126.832031 13.851562 C 123.132812 13.851562 120.042969 16.445312 119.28125 19.90625 C 118.4375 19.574219 117.519531 19.386719 116.554688 19.386719 C 110.625 19.386719 108.617188 25.617188 105.472656 25.617188 L 150.109375 25.617188 C 146.917969 25.617188 142.757812 18.925781 138.722656 18.925781 C 137.148438 18.925781 135.679688 19.363281 134.425781 20.121094 C 133.746094 16.550781 130.605469 13.851562 126.832031 13.851562 " fill-opacity="1" fill-rule="nonzero"/><path fill="#eff1f4" d="M 266.472656 29.523438 C 263.050781 29.523438 260.191406 31.921875 259.484375 35.125 C 258.703125 34.816406 257.855469 34.644531 256.964844 34.644531 C 251.476562 34.644531 249.617188 40.40625 246.707031 40.40625 L 288.011719 40.40625 C 285.058594 40.40625 281.210938 34.21875 277.476562 34.21875 C 276.019531 34.21875 274.660156 34.621094 273.5 35.324219 C 272.867188 32.019531 269.964844 29.523438 266.472656 29.523438 " fill-opacity="1" fill-rule="nonzero"/><g clip-path="url(#d949519741)"><path fill="#eff1f4" d="M 400.199219 77.691406 C 394.515625 77.691406 390.359375 70.726562 386.511719 70.726562 C 385.230469 70.726562 384.042969 71.070312 383.007812 71.667969 C 381.539062 68.667969 378.457031 66.597656 374.882812 66.597656 C 373.789062 66.597656 372.746094 66.792969 371.773438 67.144531 C 369.84375 62.722656 365.429688 59.628906 360.289062 59.628906 C 355.316406 59.628906 351.015625 62.527344 348.992188 66.722656 C 347.585938 65.984375 345.976562 65.566406 344.273438 65.566406 C 340.332031 65.566406 336.910156 67.800781 335.214844 71.074219 C 334.527344 70.851562 333.796875 70.726562 333.039062 70.726562 C 327.09375 70.726562 326.320312 77.691406 321.15625 77.691406 " fill-opacity="1" fill-rule="nonzero"/></g><path fill="#e8ecf8" d="M 199.347656 218.53125 C 108.152344 218.53125 34.226562 213.640625 34.226562 207.609375 C 34.226562 204.441406 54.621094 201.589844 87.195312 199.59375 C 92.742188 203.640625 99.578125 206.03125 106.976562 206.03125 C 122.441406 206.03125 268.90625 206.03125 281.042969 206.03125 C 288.773438 206.03125 295.894531 203.421875 301.570312 199.03125 C 339.878906 201.03125 364.46875 204.132812 364.46875 207.609375 C 364.46875 213.640625 290.539062 218.53125 199.347656 218.53125 " fill-opacity="1" fill-rule="nonzero"/><path fill="#dce2f0" d="M 281.042969 206.03125 C 268.90625 206.03125 122.441406 206.03125 106.976562 206.03125 C 99.578125 206.03125 92.742188 203.640625 87.195312 199.59375 C 116.644531 197.789062 156.050781 196.6875 199.347656 196.6875 C 237.949219 196.6875 273.453125 197.566406 301.570312 199.03125 C 295.894531 203.421875 288.773438 206.03125 281.042969 206.03125 " fill-opacity="1" fill-rule="nonzero"/><g clip-path="url(#7f3b167d03)"><path fill="#76a0ff" d="M 11.769531 190.363281 C 16.054688 193.085938 22.484375 195.449219 29.238281 195.449219 C 37.703125 195.449219 42.417969 191.074219 42.417969 184.570312 C 42.417969 178.539062 38.773438 174.992188 29.558594 171.324219 C 17.664062 166.59375 10.054688 159.617188 10.054688 148.148438 C 10.054688 135.136719 19.914062 125.207031 35.558594 125.207031 C 43.382812 125.207031 49.167969 127.097656 52.917969 129.226562 L 49.703125 140.933594 C 47.132812 139.394531 42.09375 137.148438 35.34375 137.148438 C 26.984375 137.148438 23.34375 142.117188 23.34375 146.726562 C 23.34375 152.878906 27.523438 155.714844 37.167969 159.855469 C 49.703125 165.058594 55.8125 172.035156 55.8125 183.503906 C 55.8125 196.277344 47.023438 207.390625 28.378906 207.390625 C 20.773438 207.390625 12.839844 205.027344 8.875 202.425781 L 11.769531 190.363281 " fill-opacity="1" fill-rule="nonzero"/></g><path fill="#76a0ff" d="M 76.171875 138.6875 L 55.597656 138.6875 L 55.597656 126.503906 L 110.140625 126.503906 L 110.140625 138.6875 L 89.351562 138.6875 L 89.351562 206.210938 L 76.171875 206.210938 L 76.171875 138.6875 " fill-opacity="1" fill-rule="nonzero"/><path fill="#76a0ff" d="M 140.574219 172.625 L 134.894531 152.996094 C 133.5 148.148438 132.324219 142.707031 131.253906 138.09375 L 131.035156 138.09375 C 129.964844 142.707031 128.894531 148.265625 127.609375 152.996094 L 122.035156 172.625 Z M 119.894531 183.621094 L 113.675781 206.210938 L 100.066406 206.210938 L 123.214844 126.503906 L 140.039062 126.503906 L 163.503906 206.210938 L 149.363281 206.210938 L 142.824219 183.621094 L 119.894531 183.621094 " fill-opacity="1" fill-rule="nonzero"/><path fill="#76a0ff" d="M 181.292969 162.808594 L 189.113281 162.808594 C 198.011719 162.808594 203.582031 157.609375 203.582031 149.683594 C 203.582031 140.933594 198.011719 136.914062 189.4375 136.914062 C 185.257812 136.914062 182.578125 137.269531 181.292969 137.621094 Z M 168.21875 127.570312 C 173.148438 126.625 180.542969 125.914062 188.152344 125.914062 C 198.546875 125.914062 205.617188 127.804688 210.441406 132.300781 C 214.40625 135.96875 216.65625 141.523438 216.65625 148.265625 C 216.65625 158.550781 210.332031 165.53125 203.582031 168.25 L 203.582031 168.605469 C 208.726562 170.734375 211.832031 176.292969 213.65625 183.976562 C 215.90625 193.910156 217.832031 203.136719 219.335938 206.210938 L 205.726562 206.210938 C 204.65625 203.84375 202.941406 197.339844 200.902344 187.40625 C 198.867188 177 195.4375 173.6875 187.9375 173.453125 L 181.292969 173.453125 L 181.292969 206.210938 L 168.21875 206.210938 L 168.21875 127.570312 " fill-opacity="1" fill-rule="nonzero"/><path fill="#76a0ff" d="M 238.191406 138.6875 L 217.617188 138.6875 L 217.617188 126.503906 L 272.160156 126.503906 L 272.160156 138.6875 L 251.375 138.6875 L 251.375 206.210938 L 238.191406 206.210938 L 238.191406 138.6875 " fill-opacity="1" fill-rule="nonzero"/><path fill="#76a0ff" d="M 288.34375 126.503906 L 288.34375 172.980469 C 288.34375 188.589844 294.234375 195.804688 303.128906 195.804688 C 312.667969 195.804688 318.347656 188.589844 318.347656 172.980469 L 318.347656 126.503906 L 331.527344 126.503906 L 331.527344 172.035156 C 331.527344 196.632812 320.0625 207.511719 302.703125 207.511719 C 285.984375 207.511719 275.160156 197.222656 275.160156 172.152344 L 275.160156 126.503906 L 288.34375 126.503906 " fill-opacity="1" fill-rule="nonzero"/><path fill="#76a0ff" d="M 354.351562 164.703125 C 355.957031 165.175781 358.101562 165.292969 360.78125 165.292969 C 370.636719 165.292969 376.636719 159.972656 376.636719 150.628906 C 376.636719 141.761719 371.066406 137.03125 361.957031 137.03125 C 358.3125 137.03125 355.742188 137.386719 354.351562 137.742188 Z M 341.277344 127.570312 C 345.992188 126.625 352.527344 125.914062 361.421875 125.914062 C 371.066406 125.914062 378.136719 128.164062 382.746094 132.417969 C 387.035156 136.320312 389.820312 142.589844 389.820312 150.039062 C 389.820312 157.609375 387.675781 163.875 383.601562 168.132812 C 378.355469 173.925781 370.101562 176.648438 360.78125 176.648438 C 358.3125 176.648438 356.0625 176.527344 354.351562 176.175781 L 354.351562 206.210938 L 341.277344 206.210938 L 341.277344 127.570312 " fill-opacity="1" fill-rule="nonzero"/><path fill="#e89c82" d="M 21.058594 103.753906 C 20.835938 105.675781 19.75 112.402344 20.5625 114.460938 C 21.105469 115.835938 22.066406 117.078125 23.089844 118.140625 C 23.789062 117.847656 25.804688 112.996094 26.5 112.703125 C 26.242188 109.976562 25.988281 107.25 25.730469 104.523438 C 24.300781 104.265625 22.488281 104.011719 21.058594 103.753906 " fill-opacity="1" fill-rule="nonzero"/><path fill="#e89c82" d="M 46.203125 103.8125 C 46.453125 105.835938 47.363281 112.769531 46.34375 114.734375 C 45.664062 116.046875 43.898438 117.847656 42.769531 118.800781 C 42.105469 118.4375 40.722656 112.5625 40.0625 112.199219 C 40.597656 109.511719 41.128906 106.824219 41.664062 104.140625 C 43.113281 104.03125 44.753906 103.921875 46.203125 103.8125 " fill-opacity="1" fill-rule="nonzero"/><path fill="#99beff" d="M 40.847656 118.523438 L 25.839844 118.523438 C 25.839844 118.523438 23.945312 105.957031 26.664062 103.097656 C 29.597656 100.007812 38.515625 100.164062 40.625 102.765625 C 43.113281 105.832031 40.847656 118.523438 40.847656 118.523438 " fill-opacity="1" fill-rule="nonzero"/><path fill="#002560" d="M 19.382812 119.46875 C 22.375 120.070312 26.925781 120.753906 32.484375 120.675781 C 41.121094 120.550781 45.679688 118.671875 46.175781 120.175781 C 46.734375 121.875 41.847656 127.105469 36.148438 128.242188 C 33.714844 128.726562 30.574219 127.609375 24.289062 125.371094 C 22.472656 124.726562 20.246094 123.835938 19.554688 121.589844 C 19.304688 120.777344 19.320312 120.007812 19.382812 119.46875 " fill-opacity="1" fill-rule="nonzero"/><path fill="#99beff" d="M 20.945312 104.25 C 20.875 103.589844 21.308594 100.921875 22.382812 99.417969 C 23.652344 98.5 25.007812 97.917969 27.890625 97.125 C 30.921875 96.289062 33.921875 96.382812 35.179688 96.492188 C 39.804688 96.894531 43.070312 98.3125 44.6875 99.460938 C 45.695312 100.753906 46.226562 102.757812 46.34375 104.03125 C 46.519531 105.964844 21.082031 105.449219 20.945312 104.25 " fill-opacity="1" fill-rule="nonzero"/><path fill="#ffffff" d="M 21.898438 120.175781 C 21.929688 120.683594 22.375 121.097656 22.882812 121.09375 L 44.183594 121.039062 C 44.691406 121.035156 45.125 120.621094 45.152344 120.113281 L 45.769531 107.972656 C 45.78125 107.464844 45.375 107.050781 44.867188 107.050781 L 21.949219 107.109375 C 21.441406 107.109375 21.042969 107.527344 21.066406 108.035156 L 21.898438 120.175781 " fill-opacity="1" fill-rule="nonzero"/><path fill="#063e8e" d="M 39.09375 97.347656 L 27.605469 97.347656 L 27.605469 88.46875 L 39.09375 88.46875 L 39.09375 97.347656 " fill-opacity="1" fill-rule="nonzero"/><path fill="#e89c82" d="M 36.527344 93.839844 C 36.316406 95.34375 35.773438 97.085938 36.328125 98.667969 C 35.007812 98.773438 33.132812 98.445312 31.8125 98.546875 C 31.851562 97.085938 31.773438 95.304688 31.101562 93.5625 C 32.976562 93.71875 34.652344 93.679688 36.527344 93.839844 " fill-opacity="1" fill-rule="nonzero"/><path fill="#f4ae92" d="M 38.652344 89.675781 C 38.652344 93.089844 36.476562 95.859375 33.792969 95.859375 C 31.109375 95.859375 28.933594 93.089844 28.933594 89.675781 C 28.933594 86.261719 31.109375 83.496094 33.792969 83.496094 C 36.476562 83.496094 38.652344 86.261719 38.652344 89.675781 " fill-opacity="1" fill-rule="nonzero"/><path fill="#e89c82" d="M 35.179688 96.492188 C 34.027344 96.390625 31.40625 96.304688 28.644531 96.933594 C 28.667969 98.683594 30.917969 100.09375 33.695312 100.09375 C 36.382812 100.09375 38.578125 98.769531 38.734375 97.097656 C 37.648438 96.820312 36.460938 96.601562 35.179688 96.492188 " fill-opacity="1" fill-rule="nonzero"/><path fill="#0944ad" d="M 35.105469 83.832031 C 34.976562 84.582031 34.679688 85.304688 33.953125 86.042969 C 32.148438 87.878906 30.589844 88.1875 29.554688 89.488281 C 28.652344 90.617188 28.691406 93.980469 31 98.902344 C 28.929688 100.078125 27.050781 98.835938 26.585938 98.503906 C 24.746094 97.207031 25.242188 90.800781 26.582031 86.914062 C 27.382812 84.59375 28.3125 81.898438 30.980469 80.699219 C 31.257812 80.578125 33.785156 79.484375 36.171875 80.621094 C 38.539062 81.75 39.453125 84.375 40.453125 88.074219 C 41.0625 90.328125 41.699219 96.074219 40.992188 97.515625 C 40.175781 99.179688 38.253906 99.308594 36.882812 98.945312 C 39.007812 96.894531 38.839844 90.605469 38.585938 88.753906 C 38.414062 87.496094 37.734375 84.992188 35.105469 83.832031 " fill-opacity="1" fill-rule="nonzero"/><path fill="#b1bee8" d="M 34.953125 113.550781 C 34.953125 114.382812 34.277344 115.058594 33.445312 115.058594 C 32.613281 115.058594 31.9375 114.382812 31.9375 113.550781 C 31.9375 112.71875 32.613281 112.042969 33.445312 112.042969 C 34.277344 112.042969 34.953125 112.71875 34.953125 113.550781 " fill-opacity="1" fill-rule="nonzero"/><path fill="#e89c82" d="M 33.882812 131.878906 C 33.890625 132.050781 33.984375 132.484375 34.429688 133.023438 C 35.050781 133.777344 36.125 133.855469 36.382812 134.050781 C 37.226562 134.6875 39 135.878906 43.226562 137.429688 C 43.695312 137.601562 46.039062 138.304688 46.785156 136.550781 C 47.5 134.863281 45.757812 133.5625 43.753906 132.722656 C 41.828125 131.917969 40.832031 132.109375 39.578125 131.308594 C 39.011719 130.949219 38.617188 130.320312 38.265625 130.277344 C 37.941406 130.234375 37.578125 130.277344 37.351562 130.644531 " fill-opacity="1" fill-rule="nonzero"/><path fill="#03336d" d="M 28.019531 123.558594 C 26.492188 122.214844 24.226562 120.125 21.023438 118.835938 C 18.695312 117.898438 16.917969 117.628906 15.160156 117.738281 C 14.023438 118.214844 12.851562 119.589844 12.8125 121.070312 C 12.738281 123.851562 16.878906 127.855469 20.765625 129.453125 C 26.402344 131.769531 35.328125 134.464844 36.375 134.210938 C 37.730469 133.878906 38.648438 131.136719 38.648438 131.136719 C 33.882812 128.097656 30.382812 125.632812 28.019531 123.558594 " fill-opacity="1" fill-rule="nonzero"/><path fill="#e89c82" d="M 31.640625 132.804688 C 31.617188 132.972656 31.488281 133.398438 30.996094 133.898438 C 30.316406 134.597656 29.238281 134.585938 28.964844 134.757812 C 28.070312 135.320312 26.203125 136.359375 21.859375 137.550781 C 21.378906 137.683594 18.984375 138.183594 18.390625 136.375 C 17.816406 134.632812 19.664062 133.484375 21.730469 132.816406 C 23.71875 132.171875 24.695312 132.449219 26.011719 131.757812 C 26.605469 131.449219 27.050781 130.855469 27.40625 130.839844 C 27.734375 130.824219 28.09375 130.898438 28.285156 131.28125 " fill-opacity="1" fill-rule="nonzero"/><path fill="#03336d" d="M 51.65625 117.738281 C 49.898438 117.628906 48.121094 117.898438 45.792969 118.835938 C 42.585938 120.125 40.320312 122.214844 38.792969 123.558594 C 36.433594 125.632812 33.429688 128.355469 28.351562 131.316406 C 28.351562 131.316406 28.714844 134.757812 30.257812 134.503906 C 32.644531 134.105469 40.410156 131.769531 46.046875 129.453125 C 49.933594 127.855469 54.074219 123.851562 54 121.070312 C 53.960938 119.589844 52.792969 118.214844 51.65625 117.738281 " fill-opacity="1" fill-rule="nonzero"/><path fill="#002560" d="M 21.859375 137.550781 C 22.25 137.441406 22.617188 137.339844 22.964844 137.234375 C 22.0625 136.652344 21.460938 135.648438 21.460938 134.503906 C 21.460938 133.851562 21.65625 133.242188 21.992188 132.734375 C 21.90625 132.761719 21.820312 132.785156 21.730469 132.816406 C 19.664062 133.484375 17.816406 134.632812 18.390625 136.375 C 18.984375 138.183594 21.378906 137.683594 21.859375 137.550781 " fill-opacity="1" fill-rule="nonzero"/><path fill="#002560" d="M 45.039062 133.382812 C 44.683594 133.195312 44.34375 133.019531 44.019531 132.851562 C 44.273438 133.894531 44.019531 135.039062 43.230469 135.871094 C 42.78125 136.34375 42.222656 136.648438 41.628906 136.789062 C 41.707031 136.828125 41.785156 136.867188 41.871094 136.910156 C 43.832031 137.847656 45.964844 138.277344 46.75 136.621094 C 47.5625 134.898438 45.476562 133.617188 45.039062 133.382812 " fill-opacity="1" fill-rule="nonzero"/><path fill="#99beff" d="M 95.089844 239.660156 L 99.570312 218.175781 L 97.191406 217.683594 L 92.71875 239.414062 C 92.71875 239.414062 92.949219 239.90625 93.820312 240.019531 C 94.65625 240.128906 95.089844 239.660156 95.089844 239.660156 " fill-opacity="1" fill-rule="nonzero"/><path fill="#99beff" d="M 124.105469 239.5625 C 124.105469 239.5625 124.75 239.855469 125.242188 239.792969 C 125.851562 239.714844 126.195312 239.375 126.195312 239.375 L 123.097656 218.453125 L 120.703125 218.851562 L 124.105469 239.5625 " fill-opacity="1" fill-rule="nonzero"/><g clip-path="url(#c6b0fcd034)"><path fill="#f4ae92" d="M 125.765625 237.773438 C 125.945312 239.050781 125.445312 240.125 125.113281 242.007812 C 125.050781 242.359375 124.546875 244 125.554688 244.960938 C 127.414062 246.730469 128.78125 244.011719 136.335938 246.136719 C 139.03125 246.894531 141.113281 245.878906 141.125 245.824219 C 141.511719 243.757812 139.511719 243.1875 137.699219 242.796875 C 135.394531 242.296875 133.988281 241.976562 132.464844 240.9375 C 131.152344 240.042969 131.007812 238.402344 130.605469 237.539062 C 129.140625 237.800781 127.230469 237.511719 125.765625 237.773438 " fill-opacity="1" fill-rule="nonzero"/></g><g clip-path="url(#185feec271)"><path fill="#02294f" d="M 131.777344 239.929688 C 131.21875 240.285156 130.574219 240.628906 129.210938 240.804688 C 127.238281 241.066406 126 240.476562 125.382812 240.171875 C 125.019531 240.789062 124.160156 243.382812 124.472656 244.597656 C 124.699219 245.464844 126.390625 246.433594 131.308594 246.34375 C 134.632812 246.285156 137.0625 247.09375 141.136719 246.519531 C 141.585938 245.167969 140.9375 244.285156 140.464844 243.863281 C 138.988281 242.550781 136.992188 243.089844 134.152344 241.628906 C 133.269531 241.175781 132.175781 240.339844 131.777344 239.929688 " fill-opacity="1" fill-rule="nonzero"/></g><g clip-path="url(#f68fcd22c1)"><path fill="#0944ad" d="M 133.066406 245.339844 C 135.492188 245.523438 139.15625 246.230469 141.273438 245.425781 C 141.320312 245.722656 141.234375 246.230469 141.136719 246.519531 C 137.0625 247.09375 134.632812 246.285156 131.308594 246.34375 C 126.390625 246.433594 124.699219 245.464844 124.472656 244.597656 C 124.398438 244.308594 124.390625 243.9375 124.429688 243.535156 C 124.988281 244.3125 125.882812 244.855469 127.292969 245.097656 C 128.757812 245.347656 130.894531 245.175781 133.066406 245.339844 " fill-opacity="1" fill-rule="nonzero"/></g><path fill="#99beff" d="M 90.847656 181.683594 C 85.019531 180.917969 82.242188 182.390625 81.351562 183.640625 C 79.027344 186.90625 84.734375 192.058594 88.882812 205.128906 C 92.0625 215.128906 89.902344 216.746094 92.808594 218.769531 C 96.996094 221.683594 102.5 218.566406 116.90625 219.320312 C 119.285156 219.441406 123.28125 219.675781 124.597656 219.828125 C 125.28125 218.765625 127.003906 211.949219 126.269531 210.871094 C 119.886719 201.457031 93.3125 182.875 90.847656 181.683594 " fill-opacity="1" fill-rule="nonzero"/><path fill="#f4ae92" d="M 132.90625 231.683594 C 133.042969 232.820312 132.585938 233.765625 132.257812 235.433594 C 132.195312 235.746094 131.71875 237.191406 132.601562 238.0625 C 134.222656 239.664062 135.480469 237.273438 142.15625 239.285156 C 144.535156 240 146.402344 239.132812 146.410156 239.085938 C 146.789062 237.253906 145.023438 236.71875 143.421875 236.339844 C 141.382812 235.859375 140.140625 235.550781 138.800781 234.601562 C 137.652344 233.789062 137.550781 232.328125 137.207031 231.554688 C 135.902344 231.761719 134.210938 231.476562 132.90625 231.683594 " fill-opacity="1" fill-rule="nonzero"/><path fill="#f4ae92" d="M 103.421875 164.929688 C 104.503906 165.632812 105.886719 163.898438 105.597656 166.085938 C 105.371094 167.828125 105.605469 171.097656 105.289062 172.902344 C 104.855469 175.371094 104.269531 176.496094 103.660156 176.972656 C 102.054688 178.230469 97.9375 177.144531 96.441406 174.253906 C 95.113281 171.695312 96.710938 166.554688 96.886719 166.210938 " fill-opacity="1" fill-rule="nonzero"/><path fill="#f4ae92" d="M 102.824219 176.449219 C 101.753906 176.785156 101 177.710938 100.941406 178.75 C 100.871094 179.964844 101.777344 180.75 101.882812 180.839844 C 101.125 181.042969 99.46875 181.371094 97.488281 180.839844 C 95.84375 180.398438 94.71875 179.5625 94.136719 179.0625 C 94.589844 178.308594 95.136719 177.152344 95.183594 175.714844 C 95.273438 173.023438 93.53125 171.601562 94.136719 170.804688 C 94.816406 169.910156 97.785156 170.667969 99.789062 172.160156 C 101.6875 173.574219 102.492188 175.472656 102.824219 176.449219 " fill-opacity="1" fill-rule="nonzero"/><path fill="#e89c82" d="M 110.3125 191.328125 C 111.757812 192.167969 113.011719 195.617188 113.21875 195.71875 C 115.457031 196.816406 118.070312 198.855469 121.460938 201.050781 C 122.546875 201.753906 124.132812 200.558594 126.328125 201.128906 C 127.078125 201.324219 127.457031 201.605469 127.839844 201.785156 C 127.863281 201.867188 128.378906 203.058594 127.582031 203.871094 C 127.492188 203.964844 126.824219 204.648438 126.011719 204.421875 C 125.496094 204.277344 125.578125 203.589844 125.503906 203.457031 C 124.757812 203.703125 123.59375 204.152344 122.71875 204.265625 C 117.3125 204.941406 112.921875 201.992188 111.175781 200.65625 C 110.890625 197.546875 110.601562 194.4375 110.3125 191.328125 " fill-opacity="1" fill-rule="nonzero"/><path fill="#03336d" d="M 102.609375 166.160156 C 106.605469 167.949219 108.453125 164.71875 108.285156 164.742188 C 107.296875 164.894531 106.15625 162.324219 105.449219 161.453125 C 102.828125 158.226562 97.835938 158.542969 95.570312 159.632812 C 92.957031 160.882812 91.820312 162.886719 91.617188 165.097656 C 91.425781 167.144531 92.765625 170.949219 93.847656 171.304688 C 94.453125 171.5 97.976562 171.601562 97.976562 171.601562 C 97.976562 171.601562 97.558594 163.898438 102.609375 166.160156 " fill-opacity="1" fill-rule="nonzero"/><path fill="#002560" d="M 133.734375 205.933594 C 134.996094 206.078125 136.722656 206.496094 137.78125 207.847656 C 139.375 209.878906 139.003906 214.539062 138.722656 215.726562 C 137.878906 219.34375 137.871094 226.761719 137.871094 232.859375 C 136.335938 233.9375 133.769531 234.160156 132.167969 233.429688 C 131.644531 229.386719 130.746094 225.152344 130.578125 222.839844 C 130.09375 216.242188 132.097656 212.414062 128.363281 209.695312 C 126.480469 208.324219 125.3125 207.136719 125.570312 206.351562 C 125.957031 205.183594 129.996094 205.449219 133.734375 205.933594 " fill-opacity="1" fill-rule="nonzero"/><path fill="#ffffff" d="M 130.421875 208.128906 L 135.273438 205.910156 L 142.890625 192.894531 L 139.433594 192.660156 L 130.421875 208.128906 " fill-opacity="1" fill-rule="nonzero"/><path fill="#ffffff" d="M 130.410156 208.105469 L 113.691406 207.085938 L 113.296875 206.382812 L 121.066406 204.027344 L 132.292969 204.890625 L 130.410156 208.105469 " fill-opacity="1" fill-rule="nonzero"/><path fill="#f4ae92" d="M 96.785156 170.144531 C 96.535156 169.117188 95.496094 168.246094 94.765625 168.398438 C 93.992188 168.558594 93.660156 169.492188 93.613281 170.070312 C 93.558594 170.777344 93.726562 171.898438 94.523438 172.308594 C 95.496094 172.8125 96.8125 171.769531 96.859375 171.738281 " fill-opacity="1" fill-rule="nonzero"/><path fill="#03336d" d="M 96.421875 207.242188 C 96.226562 208.34375 96.050781 211.757812 97.558594 213.878906 C 98.890625 215.75 100.839844 215.808594 102.777344 215.949219 C 109.417969 216.421875 117.515625 215.128906 122.292969 216.699219 C 123.535156 216.640625 125.03125 218.285156 124.597656 221.269531 C 123.515625 228.757812 125.007812 234.730469 125.359375 238.492188 C 128.078125 239.679688 131.523438 238.667969 131.523438 238.667969 C 131.523438 238.667969 131.859375 232.765625 132.535156 225.144531 C 133.261719 216.945312 133.507812 212.96875 131.589844 210.113281 C 129.867188 207.542969 124.183594 207.410156 118.871094 206.773438 C 108.929688 205.582031 101.171875 206.082031 96.421875 207.242188 " fill-opacity="1" fill-rule="nonzero"/><path fill="#ffffff" d="M 93.515625 178.625 C 94.269531 179.191406 95.292969 179.9375 97.285156 180.347656 C 99.757812 180.863281 100.816406 180.515625 101.742188 180.214844 C 102.429688 180.761719 103.847656 181.492188 105.289062 182.386719 C 106.800781 183.324219 107.789062 184.304688 109.488281 188.125 C 112.875 195.71875 112.992188 204.949219 112.875 206.28125 C 110.117188 206.316406 107.152344 206.9375 103.976562 208.058594 C 98.148438 210.113281 95.777344 209.554688 95.777344 209.554688 C 95.777344 209.554688 95.101562 202.355469 96.40625 199.136719 C 97.246094 197.066406 97.074219 195.136719 98 194.207031 C 97.128906 193.945312 95.847656 193.628906 93.988281 193.835938 C 91.863281 194.070312 90.820312 194.726562 90.019531 195.234375 C 89.035156 192.652344 88.550781 190.859375 88.101562 187.71875 C 87.824219 185.789062 88.253906 183.761719 89.671875 181.605469 C 90.785156 179.910156 92.617188 179.117188 93.515625 178.625 " fill-opacity="1" fill-rule="nonzero"/><path fill="#f4ae92" d="M 97.988281 193.992188 C 98.757812 195.699219 98.398438 196.964844 98.5 197.011719 C 102.789062 198.925781 107.285156 201.589844 111.617188 202.480469 C 113.675781 202.90625 115.039062 201.074219 116.90625 200.890625 C 120.613281 200.535156 121.296875 202.371094 121.539062 204.183594 C 118.90625 202.832031 118.472656 204.882812 117.617188 205.128906 C 115.457031 205.757812 113.726562 205.746094 113.1875 205.652344 C 110.808594 205.246094 107.164062 206.714844 94.382812 202.726562 C 92.3125 200.144531 92.078125 198.890625 90.535156 194.777344 C 93.359375 193.246094 95.316406 193.515625 97.988281 193.992188 " fill-opacity="1" fill-rule="nonzero"/><path fill="#99beff" d="M 90.757812 202.292969 C 93.832031 202.867188 96.691406 203.316406 99.976562 204.011719 C 102.359375 204.519531 106.511719 204.875 109.144531 207.503906 C 112.878906 211.234375 112.589844 215.886719 112.589844 216.714844 C 111.765625 216.78125 111.34375 216.597656 110.511719 216.664062 C 110.605469 214.601562 109.976562 211.269531 107.523438 208.820312 C 105.933594 207.230469 103.789062 206.726562 99.570312 205.785156 C 96.191406 205.03125 93.355469 204.6875 91.414062 204.519531 C 91.195312 203.777344 90.976562 203.035156 90.757812 202.292969 " fill-opacity="1" fill-rule="nonzero"/><path fill="#99beff" d="M 101.292969 204.214844 C 103.925781 204.722656 111.628906 205.835938 111.679688 206.1875 C 111.726562 206.515625 111.457031 206.914062 111.273438 207.050781 C 110.253906 207.800781 108.367188 207.972656 106.765625 207 " fill-opacity="1" fill-rule="nonzero"/><path fill="#02294f" d="M 138.109375 233.730469 C 137.617188 234.054688 137.050781 234.367188 135.84375 234.542969 C 134.09375 234.796875 132.988281 234.292969 132.433594 234.03125 C 132.121094 234.582031 131.390625 236.898438 131.6875 237.972656 C 131.898438 238.738281 133.410156 239.578125 137.777344 239.433594 C 140.730469 239.335938 142.898438 240.023438 146.507812 239.460938 C 146.890625 238.253906 146.300781 237.476562 145.875 237.109375 C 144.546875 235.960938 142.78125 236.46875 140.242188 235.207031 C 139.449219 234.816406 138.46875 234.089844 138.109375 233.730469 " fill-opacity="1" fill-rule="nonzero"/><path fill="#0944ad" d="M 139.324219 238.519531 C 141.480469 238.648438 144.746094 239.226562 146.613281 238.484375 C 146.660156 238.746094 146.589844 239.199219 146.507812 239.460938 C 142.898438 240.023438 140.730469 239.335938 137.777344 239.433594 C 133.410156 239.578125 131.898438 238.738281 131.6875 237.972656 C 131.617188 237.714844 131.605469 237.386719 131.632812 237.027344 C 132.140625 237.710938 132.941406 238.179688 134.199219 238.378906 C 135.5 238.582031 137.394531 238.402344 139.324219 238.519531 " fill-opacity="1" fill-rule="nonzero"/><path fill="#99beff" d="M 107.40625 228.175781 C 107.40625 228.175781 107.042969 228.617188 106.425781 228.566406 C 105.597656 228.503906 105.472656 228.019531 105.472656 228.019531 L 106.25 218.332031 L 108.183594 218.484375 L 107.40625 228.175781 " fill-opacity="1" fill-rule="nonzero"/><path fill="#f4ae92" d="M 340.738281 107.429688 C 341.367188 108.144531 342.886719 109.207031 343.875 110.5625 C 345.332031 112.558594 345.53125 113.21875 345.710938 114.179688 C 346.082031 116.171875 345.117188 117.585938 346 118.371094 C 346.253906 118.597656 346.691406 118.796875 347.105469 118.707031 C 348.390625 118.441406 348.742188 115.648438 349.277344 111.046875 C 349.75 106.980469 349.5625 105.957031 348.941406 105.597656 C 348.265625 105.210938 347.570312 105.90625 346.046875 105.695312 C 344.929688 105.542969 344.066406 105 343.488281 104.539062 C 342.605469 105.390625 341.625 106.578125 340.738281 107.429688 " fill-opacity="1" fill-rule="nonzero"/><path fill="#03336d" d="M 362.980469 95.960938 C 363.457031 95.617188 364.140625 95.015625 364.476562 94.082031 C 365.015625 92.570312 364.15625 91.164062 364.71875 90.417969 C 364.882812 90.199219 366.261719 89.40625 369.203125 90.613281 C 371.953125 91.738281 373.394531 91.417969 374.707031 92.445312 C 375.199219 92.832031 376.808594 94.089844 376.730469 95.769531 C 376.703125 96.390625 376.292969 96.769531 375.984375 96.878906 C 375.363281 97.101562 374.785156 96.773438 373.644531 96.347656 C 372.714844 96 371.910156 96.167969 370.652344 96.441406 C 369.476562 96.699219 367.578125 97.269531 365.390625 98.660156 C 364.589844 97.761719 363.785156 96.859375 362.980469 95.960938 " fill-opacity="1" fill-rule="nonzero"/><path fill="#f4ae92" d="M 364.351562 94.375 C 364.890625 94.59375 365.40625 94.902344 365.863281 95.308594 C 366.578125 95.945312 367.074219 96.730469 367.351562 97.578125 C 366.734375 97.867188 366.078125 98.222656 365.390625 98.660156 C 364.589844 97.761719 363.785156 96.859375 362.980469 95.960938 C 363.402344 95.65625 363.992188 95.144531 364.351562 94.375 " fill-opacity="1" fill-rule="nonzero"/><path fill="#061230" d="M 376.730469 95.769531 C 376.808594 94.089844 375.199219 92.832031 374.707031 92.445312 C 373.394531 91.417969 371.953125 91.738281 369.203125 90.613281 C 366.261719 89.40625 364.882812 90.199219 364.71875 90.417969 C 364.667969 90.488281 364.628906 90.5625 364.601562 90.640625 C 364.558594 90.347656 364.542969 89.957031 364.574219 89.648438 C 364.625 89.132812 365.492188 88.714844 366.800781 88.9375 C 368.730469 89.265625 369.195312 89.996094 370.734375 90.320312 C 371.921875 90.570312 373.257812 90.324219 375.089844 91.480469 C 375.890625 91.984375 377.757812 93.546875 377.40625 95.140625 C 377.296875 95.648438 376.992188 96.375 376.265625 96.660156 C 376.554688 96.417969 376.722656 95.945312 376.730469 95.769531 " fill-opacity="1" fill-rule="nonzero"/><path fill="#03336d" d="M 352.097656 44.535156 C 352.097656 45.539062 352.917969 46.355469 353.929688 46.355469 C 354.941406 46.355469 355.757812 45.539062 355.757812 44.535156 C 355.757812 43.527344 354.941406 42.710938 353.929688 42.710938 C 352.917969 42.710938 352.097656 43.527344 352.097656 44.535156 " fill-opacity="1" fill-rule="nonzero"/><path fill="#f4ae92" d="M 360.679688 37.527344 C 361.4375 36.082031 362.164062 34.597656 362.847656 32.863281 C 363.125 32.160156 362.902344 31.59375 363.425781 30.804688 C 363.539062 30.632812 364.910156 29.429688 365.8125 29.429688 C 366.882812 29.429688 367.328125 29.828125 367.480469 30.007812 C 367.863281 30.824219 367.816406 32.480469 367.585938 32.683594 C 366.976562 33.226562 365.476562 33.699219 365.378906 33.695312 C 364.667969 35.226562 364.066406 36.753906 363.355469 38.285156 C 362.460938 38.03125 361.566406 37.777344 360.679688 37.527344 " fill-opacity="1" fill-rule="nonzero"/><path fill="#f4ae92" d="M 339.179688 39.695312 C 338.9375 38.8125 338.570312 36.007812 338.894531 34.238281 C 339.011719 33.589844 339.25 33.015625 339.691406 32.609375 C 340.449219 31.910156 341.363281 32.121094 341.789062 31.347656 C 341.988281 30.988281 341.867188 30.804688 342.148438 30.441406 C 342.265625 30.296875 342.636719 29.871094 343.238281 29.828125 C 343.761719 29.789062 344.285156 30.164062 344.328125 30.480469 C 344.375 30.828125 344.078125 31.011719 343.78125 31.78125 C 343.589844 32.273438 343.660156 32.542969 343.597656 32.863281 C 343.488281 33.414062 342.332031 34.128906 341.210938 34.816406 C 341.320312 36.1875 341.570312 38.140625 341.570312 38.140625 C 341.570312 38.140625 339.304688 39.683594 339.179688 39.695312 " fill-opacity="1" fill-rule="nonzero"/><path fill="#03336d" d="M 355.574219 79.816406 C 356.292969 81.097656 357.003906 82.667969 357.53125 84.515625 C 359.152344 90.257812 357.203125 94.925781 357.167969 97.816406 C 357.4375 97.523438 362.269531 95.25 363.175781 95.214844 C 363.648438 95.195312 364.414062 95.558594 365.109375 96.441406 C 365.875 97.414062 365.992188 98.519531 365.960938 98.828125 C 363.753906 100.636719 357.960938 105.839844 355.25 107.179688 C 354.054688 107.765625 352.238281 107.796875 350.691406 106.996094 C 348.300781 105.769531 348.195312 100.457031 347.722656 91.851562 C 345.589844 93.441406 342.476562 94.890625 340.125 95.9375 C 339.519531 96.207031 339.039062 96.574219 338.640625 97.023438 C 339.058594 97.539062 339.652344 98.34375 340.230469 99.40625 C 340.894531 100.625 340.988281 101.175781 341.5 102.011719 C 341.945312 102.738281 342.71875 103.695312 344.140625 104.574219 C 344.023438 105.066406 343.734375 105.980469 342.945312 106.78125 C 342.945312 106.78125 342.121094 107.605469 340.882812 107.960938 C 339.351562 106.09375 329.476562 100.28125 329.414062 97.417969 C 329.34375 93.949219 333.5 88.707031 341.753906 83.285156 C 342.945312 82.5 342.785156 80.71875 343.019531 79.996094 C 347.132812 79.878906 351.464844 79.9375 355.574219 79.816406 " fill-opacity="1" fill-rule="nonzero"/><path fill="#99beff" d="M 352.351562 53.394531 C 352.378906 54.140625 351.824219 56.476562 351.847656 57.226562 C 352.363281 57.339844 352.59375 57.316406 353.332031 56.972656 C 354.65625 56.355469 355.152344 54.695312 355.792969 51.261719 C 356.394531 48.035156 356.523438 46.457031 356.734375 45.1875 C 357.09375 43.035156 358.777344 39.984375 360.769531 36.007812 C 362.261719 35.765625 363.757812 36.539062 364.257812 37.164062 C 363.210938 40.707031 361.976562 43.636719 361.511719 45.765625 C 360.890625 48.570312 360.175781 51.816406 360.207031 56.105469 C 360.230469 59.03125 359.554688 60.769531 359.15625 61.816406 C 358.542969 63.441406 357.847656 64.730469 356.625 67.597656 C 355.394531 70.492188 355.027344 74.601562 355.214844 75.914062 C 355.460938 77.667969 356.0625 79.769531 356.476562 80.730469 C 355.390625 81.265625 353.289062 81.804688 351.46875 82.046875 C 347.445312 82.585938 344.503906 82.09375 342.550781 81.261719 C 343.851562 72.875 344.097656 69.617188 343.199219 67.890625 C 343 67.503906 342.316406 66.320312 342.332031 64.707031 C 342.347656 62.941406 343.261719 62.054688 343.632812 60.875 C 344.105469 59.394531 343.054688 57.640625 341.246094 51.476562 C 340.414062 48.648438 339.90625 46.089844 339.074219 41.9375 C 338.820312 40.671875 338.753906 39.574219 338.621094 38.851562 C 339.597656 38.09375 340.347656 37.960938 341.757812 37.597656 C 342.796875 40.351562 344.015625 43.355469 344.925781 46.71875 C 345.855469 50.171875 345.976562 51.8125 347.105469 55.527344 C 347.363281 56.367188 347.179688 57.128906 347.179688 57.625 C 347.734375 56.257812 347.675781 54.882812 347.675781 54.882812 C 347.675781 54.882812 352.203125 53.347656 352.351562 53.394531 " fill-opacity="1" fill-rule="nonzero"/><path fill="#f4ae92" d="M 346.476562 58.773438 C 346.417969 57.863281 346.828125 57.660156 347.179688 57.625 C 347.703125 56.335938 347.679688 55.046875 347.675781 54.898438 C 347.742188 54.867188 347.808594 54.839844 347.875 54.816406 C 347.976562 54.78125 348.121094 54.734375 348.289062 54.675781 C 348.746094 54.546875 349.238281 54.472656 349.753906 54.472656 C 350.648438 54.472656 351.472656 54.6875 352.148438 55.050781 C 352 55.902344 351.835938 56.808594 351.847656 57.226562 C 352.363281 57.339844 353.332031 56.972656 353.332031 56.972656 C 353.332031 56.972656 353.378906 57.789062 353.378906 58.0625 C 353.378906 59.761719 351.46875 60.566406 349.753906 60.617188 C 347.492188 60.683594 346.535156 59.710938 346.476562 58.773438 " fill-opacity="1" fill-rule="nonzero"/><path fill="#f4ae92" d="M 348.050781 46.832031 C 346.476562 46.601562 345.492188 47.738281 345.28125 49.824219 C 345.046875 52.15625 345.378906 53.992188 345.925781 54.972656 C 346.40625 55.824219 346.992188 56.511719 347.78125 56.828125 C 349.183594 57.394531 351.425781 56.691406 352.246094 55.382812 C 352.695312 54.664062 352.683594 53.710938 352.753906 52.707031 C 352.871094 51.03125 352.84375 49.785156 351.789062 48.730469 " fill-opacity="1" fill-rule="nonzero"/><path fill="#03336d" d="M 352.613281 52.160156 C 352.585938 51.351562 352.304688 49.695312 351.378906 48.828125 C 350.769531 48.253906 348.480469 47.632812 346.746094 48.015625 C 345.753906 48.234375 345.535156 48.828125 345.296875 49.574219 C 345.269531 49.152344 345.058594 46.820312 346.59375 45.226562 C 348.144531 43.613281 351.320312 43.105469 353.269531 44.546875 C 354.789062 45.671875 354.910156 47.5 354.589844 49.089844 C 354.226562 50.871094 352.980469 51.882812 352.613281 52.160156 " fill-opacity="1" fill-rule="nonzero"/><path fill="#03336d" d="M 352.65625 54.269531 C 353.328125 54.328125 354.546875 53.808594 355.230469 52.453125 C 356.835938 49.273438 354.785156 45.535156 353.292969 44.613281 C 353.050781 44.464844 352.476562 45.070312 352.148438 46.5 C 352.535156 47.175781 353.09375 48.367188 353.25 49.945312 C 353.457031 52.058594 352.632812 52.621094 352.65625 54.269531 " fill-opacity="1" fill-rule="nonzero"/><path fill="#f4ae92" d="M 352.382812 51.722656 C 352.628906 51.183594 353.128906 50.886719 353.550781 50.96875 C 354.132812 51.082031 354.316406 51.878906 354.285156 52.347656 C 354.246094 52.945312 353.824219 53.683594 353.125 53.757812 C 352.515625 53.824219 352.066406 53.347656 352.007812 53.285156 " fill-opacity="1" fill-rule="nonzero"/><path fill="#061230" d="M 347.105469 118.707031 C 348.390625 118.441406 348.867188 116.007812 349.402344 111.40625 C 349.878906 107.339844 349.5625 105.957031 348.941406 105.597656 C 348.789062 105.511719 348.632812 105.480469 348.46875 105.480469 C 349.128906 105.21875 350.140625 105.394531 350.554688 105.667969 C 350.699219 105.765625 350.984375 109.578125 350.5 109.914062 C 350.21875 110.113281 350.054688 111.660156 350.019531 112.808594 C 349.9375 115.449219 349.667969 116.035156 349.472656 116.683594 C 349.011719 118.207031 348.382812 119.09375 347.324219 119.078125 C 347.011719 119.074219 346.46875 118.929688 346.433594 118.632812 C 346.640625 118.714844 346.875 118.757812 347.105469 118.707031 " fill-opacity="1" fill-rule="nonzero"/><path fill="#03336d" d="M 343.875 110.5625 C 343.800781 110.457031 343.71875 110.355469 343.636719 110.257812 C 344.484375 109.425781 345.09375 108.277344 345.304688 106.957031 C 345.375 106.476562 345.394531 106.003906 345.359375 105.546875 C 345.578125 105.609375 345.804688 105.664062 346.046875 105.695312 C 347.570312 105.90625 348.265625 105.210938 348.941406 105.597656 C 349.5625 105.957031 349.921875 107.183594 349.449219 111.25 C 348.910156 115.851562 348.390625 118.441406 347.105469 118.707031 C 346.691406 118.796875 346.253906 118.597656 346 118.371094 C 345.117188 117.585938 346.082031 116.171875 345.710938 114.179688 C 345.53125 113.21875 345.332031 112.558594 343.875 110.5625 " fill-opacity="1" fill-rule="nonzero"/><path fill="#061230" d="M 366.953125 96.660156 C 368.046875 96.152344 370.734375 95.144531 371.960938 95.007812 C 372.648438 94.929688 373.386719 94.964844 373.953125 95.371094 C 374.386719 95.679688 374.671875 96.214844 374.664062 96.738281 C 374.375 96.632812 374.042969 96.496094 373.644531 96.347656 C 372.714844 96 371.910156 96.167969 370.652344 96.441406 C 369.769531 96.636719 368.917969 96.792969 367.394531 97.558594 C 367.375 97.429688 366.953125 96.660156 366.953125 96.660156 " fill-opacity="1" fill-rule="nonzero"/><path fill="#061230" d="M 343.875 110.5625 C 343.800781 110.457031 343.71875 110.355469 343.636719 110.257812 C 343.925781 109.972656 344.183594 109.648438 344.414062 109.296875 C 344.53125 109.34375 346.460938 111.273438 346.769531 113.597656 C 346.867188 114.355469 346.898438 115.96875 346.410156 116.566406 C 346.210938 116.8125 345.945312 116.988281 345.667969 117.128906 L 345.621094 117.148438 C 345.667969 116.378906 345.933594 115.382812 345.710938 114.179688 C 345.53125 113.21875 345.332031 112.558594 343.875 110.5625 " fill-opacity="1" fill-rule="nonzero"/><path fill="#001430" d="M 282.582031 223.46875 C 282.582031 223.46875 283.652344 222.828125 284.175781 222.859375 C 284.933594 222.902344 286.332031 223.925781 286.933594 224.21875 C 288.316406 224.898438 291.121094 225.53125 292.496094 226.226562 C 294.4375 227.210938 294.695312 229.632812 294.695312 229.632812 L 290.117188 227.347656 L 284.320312 224.625 L 282.582031 223.46875 " fill-opacity="1" fill-rule="nonzero"/><path fill="#002560" d="M 278.457031 226.417969 C 278.484375 226.625 278.644531 227.148438 279.242188 227.757812 C 280.078125 228.609375 281.390625 228.597656 281.726562 228.808594 C 282.820312 229.496094 285.207031 231.105469 290.511719 232.558594 C 291.101562 232.71875 293.917969 232.992188 294.644531 230.785156 C 295.34375 228.65625 293.089844 227.25 290.5625 226.433594 C 288.136719 225.652344 287.523438 225.699219 285.914062 224.855469 C 285.191406 224.480469 284.261719 223.429688 283.828125 223.410156 C 283.429688 223.390625 281.976562 223.289062 281.738281 223.757812 " fill-opacity="1" fill-rule="nonzero"/><path fill="#0944ad" d="M 280.898438 225.394531 C 284.007812 226.03125 287.054688 226.988281 289.96875 228.25 C 290.773438 228.597656 291.707031 229.203125 291.597656 230.070312 C 291.527344 230.648438 290.96875 231.074219 290.394531 231.175781 C 289.820312 231.28125 289.230469 231.136719 288.671875 230.976562 C 285.632812 230.117188 282.730469 228.835938 279.839844 227.5625 " fill-opacity="1" fill-rule="nonzero"/><path fill="#ffffff" d="M 283.417969 226.054688 L 282.472656 228.273438 L 283.566406 227.308594 Z M 283.8125 227.402344 L 284.023438 229.140625 L 284.964844 227.957031 L 284.683594 226.636719 Z M 285.214844 228.011719 L 285.546875 229.574219 L 286.269531 228.554688 L 285.933594 227.105469 Z M 286.519531 228.605469 L 286.898438 230.238281 L 287.660156 229.179688 L 287.21875 227.613281 Z M 287.914062 229.226562 L 288.292969 230.570312 L 289.289062 229.648438 L 288.804688 227.992188 Z M 289.550781 229.722656 L 289.898438 230.925781 L 290.578125 228.769531 Z M 289.894531 231.4375 C 289.84375 231.4375 289.796875 231.40625 289.78125 231.355469 L 289.359375 229.898438 L 288.3125 230.867188 C 288.28125 230.894531 288.238281 230.90625 288.199219 230.894531 C 288.160156 230.882812 288.132812 230.851562 288.121094 230.8125 L 287.742188 229.464844 L 286.933594 230.582031 C 286.910156 230.617188 286.863281 230.632812 286.820312 230.625 C 286.773438 230.617188 286.738281 230.582031 286.726562 230.539062 L 286.339844 228.855469 L 285.582031 229.921875 C 285.558594 229.960938 285.511719 229.976562 285.464844 229.96875 C 285.417969 229.960938 285.386719 229.925781 285.375 229.878906 L 285.027344 228.25 L 284.035156 229.503906 C 284.003906 229.539062 283.957031 229.554688 283.910156 229.542969 C 283.867188 229.53125 283.832031 229.492188 283.828125 229.445312 L 283.601562 227.585938 L 282.242188 228.785156 C 282.203125 228.820312 282.140625 228.824219 282.097656 228.792969 C 282.054688 228.761719 282.035156 228.703125 282.058594 228.652344 L 283.371094 225.566406 C 283.394531 225.515625 283.445312 225.488281 283.496094 225.496094 C 283.546875 225.503906 283.589844 225.542969 283.59375 225.597656 L 283.78125 227.121094 L 284.679688 226.332031 C 284.707031 226.304688 284.75 226.296875 284.789062 226.3125 C 284.828125 226.324219 284.859375 226.355469 284.867188 226.394531 L 285.152344 227.71875 L 285.898438 226.773438 C 285.925781 226.738281 285.972656 226.722656 286.015625 226.730469 C 286.058594 226.742188 286.09375 226.777344 286.105469 226.820312 L 286.449219 228.300781 L 287.171875 227.28125 C 287.199219 227.242188 287.242188 227.226562 287.285156 227.230469 C 287.328125 227.242188 287.367188 227.273438 287.378906 227.316406 L 287.835938 228.941406 L 288.757812 227.664062 C 288.78125 227.628906 288.828125 227.609375 288.871094 227.617188 C 288.914062 227.625 288.949219 227.65625 288.964844 227.699219 L 289.476562 229.472656 L 290.742188 228.304688 C 290.78125 228.269531 290.839844 228.261719 290.882812 228.292969 C 290.929688 228.320312 290.949219 228.375 290.933594 228.425781 L 290.003906 231.359375 C 289.988281 231.40625 289.945312 231.4375 289.894531 231.4375 " fill-opacity="1" fill-rule="nonzero"/><path fill="#e89c82" d="M 259.570312 191.789062 C 259.285156 194.21875 258.078125 202.449219 259.144531 205.050781 C 259.855469 206.785156 261.117188 208.355469 262.464844 209.695312 C 263.378906 209.324219 265.109375 203.339844 266.023438 202.96875 C 266.59375 199.75 266.265625 195.949219 265.929688 192.503906 C 264.054688 192.179688 261.449219 192.113281 259.570312 191.789062 " fill-opacity="1" fill-rule="nonzero"/><path fill="#e89c82" d="M 293.03125 191.546875 C 293.363281 194.097656 294.332031 202.914062 292.992188 205.398438 C 292.101562 207.050781 289.785156 209.324219 288.300781 210.527344 C 287.433594 210.066406 287.703125 202.820312 286.835938 202.363281 C 286.011719 198.960938 285.824219 195.132812 286.851562 192.019531 C 288.753906 191.882812 291.132812 191.683594 293.03125 191.546875 " fill-opacity="1" fill-rule="nonzero"/><path fill="#0944ad" d="M 285.777344 210.179688 L 266.074219 210.179688 L 266.023438 190.703125 L 286.898438 190.285156 L 285.777344 210.179688 " fill-opacity="1" fill-rule="nonzero"/><path fill="#002560" d="M 259.148438 210.28125 C 262.75 211 268.226562 211.828125 274.914062 211.730469 C 285.308594 211.585938 290.789062 209.324219 291.386719 211.132812 C 292.0625 213.175781 286.179688 219.46875 279.324219 220.835938 C 276.394531 221.421875 272.613281 220.074219 265.054688 217.386719 C 262.867188 216.605469 260.1875 215.535156 259.355469 212.832031 C 259.054688 211.855469 259.078125 210.933594 259.148438 210.28125 " fill-opacity="1" fill-rule="nonzero"/><path fill="#0944ad" d="M 259.144531 192.160156 C 259.050781 191.328125 259.742188 187.371094 261.152344 185.472656 C 262.816406 184.316406 265.65625 183.800781 268.765625 183.164062 C 272.804688 182.339844 276.683594 182.226562 278.335938 182.363281 C 284.410156 182.875 289.199219 184.667969 291.328125 186.113281 C 292.648438 187.746094 293.347656 190.273438 293.5 191.882812 C 293.730469 194.320312 259.320312 193.675781 259.144531 192.160156 " fill-opacity="1" fill-rule="nonzero"/><path fill="#ffffff" d="M 262.1875 211.320312 C 262.222656 211.828125 262.664062 212.242188 263.171875 212.238281 L 289.179688 212.167969 C 289.6875 212.167969 290.125 211.75 290.148438 211.246094 L 290.902344 196.261719 C 290.917969 195.75 290.511719 195.339844 290.003906 195.339844 L 262.050781 195.410156 C 261.542969 195.410156 261.144531 195.828125 261.167969 196.332031 L 262.1875 211.320312 " fill-opacity="1" fill-rule="nonzero"/><path fill="#e89c82" d="M 280.417969 179.015625 C 280.097656 180.917969 280.058594 182.785156 280.902344 184.785156 C 278.890625 184.917969 274.222656 185 272.214844 185.132812 C 272.273438 183.285156 273.183594 180.867188 272.160156 178.667969 C 275.011719 178.867188 277.566406 178.816406 280.417969 179.015625 " fill-opacity="1" fill-rule="nonzero"/><path fill="#f4ae92" d="M 283.1875 173.457031 C 283.1875 177.765625 280.195312 181.261719 276.503906 181.261719 C 272.8125 181.261719 269.820312 177.765625 269.820312 173.457031 C 269.820312 169.148438 271.160156 165.652344 276.503906 165.652344 C 281.984375 165.652344 283.1875 169.148438 283.1875 173.457031 " fill-opacity="1" fill-rule="nonzero"/><path fill="#e89c82" d="M 278.253906 182.363281 C 276.796875 182.238281 273.492188 182.128906 270.003906 182.925781 C 270.035156 185.128906 272.878906 186.910156 276.378906 186.910156 C 279.773438 186.910156 282.578125 185.152344 282.773438 183.042969 C 281.402344 182.691406 279.871094 182.503906 278.253906 182.363281 " fill-opacity="1" fill-rule="nonzero"/><path fill="#b1bee8" d="M 277.882812 203.160156 C 277.882812 204.160156 277.070312 204.972656 276.070312 204.972656 C 275.066406 204.972656 274.253906 204.160156 274.253906 203.160156 C 274.253906 202.160156 275.066406 201.347656 276.070312 201.347656 C 277.070312 201.347656 277.882812 202.160156 277.882812 203.160156 " fill-opacity="1" fill-rule="nonzero"/><path fill="#03336d" d="M 269.445312 215.125 C 267.578125 213.484375 264.710938 211.15625 260.960938 209.222656 C 258.210938 207.800781 256.378906 207.191406 254.179688 207.484375 C 252.789062 208.066406 250.632812 210.714844 250.585938 212.523438 C 250.496094 215.921875 255.835938 220.375 260.582031 222.324219 C 267.46875 225.15625 278.230469 229.222656 279.511719 228.910156 C 281.167969 228.507812 282.640625 223.699219 282.640625 223.699219 C 276.820312 219.988281 272.328125 217.660156 269.445312 215.125 " fill-opacity="1" fill-rule="nonzero"/><path fill="#f4ae92" d="M 270.96875 173.359375 C 271.257812 174.148438 271.019531 174.960938 270.4375 175.171875 C 269.855469 175.386719 269.148438 174.921875 268.855469 174.136719 C 268.566406 173.347656 268.804688 172.535156 269.386719 172.324219 C 269.972656 172.109375 270.679688 172.574219 270.96875 173.359375 " fill-opacity="1" fill-rule="nonzero"/><path fill="#f4ae92" d="M 282.113281 173.359375 C 281.824219 174.148438 282.0625 174.960938 282.648438 175.171875 C 283.230469 175.386719 283.9375 174.921875 284.226562 174.136719 C 284.515625 173.347656 284.277344 172.535156 283.695312 172.324219 C 283.113281 172.109375 282.40625 172.574219 282.113281 173.359375 " fill-opacity="1" fill-rule="nonzero"/><path fill="#001430" d="M 269.742188 223.46875 C 269.742188 223.46875 268.4375 222.492188 267.917969 222.523438 C 267.15625 222.5625 266.121094 223.847656 265.519531 224.140625 C 264.136719 224.820312 261.253906 225.453125 259.878906 226.148438 C 257.9375 227.136719 257.628906 229.632812 257.628906 229.632812 L 262.207031 227.347656 L 268.003906 224.625 L 269.742188 223.46875 " fill-opacity="1" fill-rule="nonzero"/><path fill="#002560" d="M 273.867188 226.417969 C 273.839844 226.625 273.679688 227.148438 273.082031 227.757812 C 272.246094 228.609375 270.933594 228.597656 270.597656 228.808594 C 269.503906 229.496094 267.117188 231.105469 261.808594 232.558594 C 261.222656 232.71875 258.40625 232.992188 257.679688 230.785156 C 256.980469 228.65625 259.234375 227.25 261.761719 226.433594 C 264.1875 225.652344 264.800781 225.699219 266.410156 224.855469 C 267.132812 224.480469 268.0625 223.429688 268.496094 223.410156 C 268.894531 223.390625 270.347656 223.289062 270.582031 223.757812 " fill-opacity="1" fill-rule="nonzero"/><path fill="#0944ad" d="M 271.425781 225.394531 C 268.3125 226.03125 265.269531 226.988281 262.355469 228.25 C 261.550781 228.597656 260.617188 229.203125 260.726562 230.070312 C 260.796875 230.648438 261.355469 231.074219 261.929688 231.175781 C 262.503906 231.28125 263.089844 231.136719 263.652344 230.976562 C 266.691406 230.117188 269.59375 228.835938 272.484375 227.5625 " fill-opacity="1" fill-rule="nonzero"/><path fill="#ffffff" d="M 268.753906 227.308594 L 269.851562 228.273438 L 268.90625 226.054688 Z M 267.359375 227.957031 L 268.300781 229.140625 L 268.511719 227.402344 L 267.640625 226.636719 Z M 266.054688 228.554688 L 266.777344 229.574219 L 267.109375 228.011719 L 266.390625 227.105469 Z M 264.660156 229.179688 L 265.425781 230.238281 L 265.808594 228.605469 L 265.101562 227.613281 Z M 263.035156 229.648438 L 264.03125 230.570312 L 264.410156 229.226562 L 263.519531 227.992188 Z M 261.746094 228.769531 L 262.425781 230.925781 L 262.773438 229.722656 Z M 262.429688 231.4375 C 262.378906 231.4375 262.332031 231.40625 262.320312 231.359375 L 261.390625 228.425781 C 261.375 228.375 261.394531 228.320312 261.441406 228.292969 C 261.484375 228.261719 261.542969 228.269531 261.582031 228.304688 L 262.847656 229.472656 L 263.363281 227.699219 C 263.375 227.65625 263.410156 227.625 263.453125 227.617188 C 263.496094 227.609375 263.539062 227.628906 263.566406 227.664062 L 264.488281 228.941406 L 264.945312 227.316406 C 264.957031 227.273438 264.992188 227.242188 265.039062 227.230469 C 265.082031 227.226562 265.125 227.242188 265.152344 227.28125 L 265.875 228.300781 L 266.21875 226.820312 C 266.230469 226.777344 266.265625 226.742188 266.308594 226.730469 C 266.351562 226.722656 266.394531 226.738281 266.421875 226.773438 L 267.171875 227.71875 L 267.457031 226.394531 C 267.464844 226.355469 267.492188 226.324219 267.53125 226.3125 C 267.574219 226.296875 267.617188 226.304688 267.644531 226.332031 L 268.542969 227.121094 L 268.730469 225.597656 C 268.738281 225.542969 268.777344 225.503906 268.828125 225.496094 C 268.878906 225.488281 268.929688 225.515625 268.953125 225.566406 L 270.265625 228.652344 C 270.285156 228.703125 270.269531 228.761719 270.226562 228.792969 C 270.183594 228.824219 270.125 228.820312 270.082031 228.785156 L 268.722656 227.585938 L 268.496094 229.445312 C 268.488281 229.492188 268.457031 229.53125 268.410156 229.542969 C 268.367188 229.554688 268.320312 229.539062 268.289062 229.503906 L 267.296875 228.25 L 266.949219 229.878906 C 266.9375 229.925781 266.902344 229.960938 266.859375 229.96875 C 266.8125 229.976562 266.769531 229.960938 266.738281 229.921875 L 265.984375 228.859375 L 265.59375 230.539062 C 265.585938 230.582031 265.550781 230.617188 265.503906 230.625 C 265.460938 230.632812 265.414062 230.617188 265.386719 230.582031 L 264.582031 229.464844 L 264.203125 230.8125 C 264.191406 230.851562 264.160156 230.882812 264.125 230.894531 C 264.085938 230.90625 264.042969 230.894531 264.011719 230.867188 L 262.964844 229.898438 L 262.539062 231.355469 C 262.527344 231.40625 262.484375 231.4375 262.429688 231.4375 " fill-opacity="1" fill-rule="nonzero"/><path fill="#03336d" d="M 298.234375 207.542969 C 295.917969 206.960938 294.519531 207.289062 291.742188 208.585938 C 288.148438 210.265625 284.671875 212.871094 282.234375 214.898438 C 279.285156 217.351562 275.570312 220.164062 269.25 222.945312 C 269.25 222.945312 270.152344 229.511719 272.03125 229.199219 C 274.949219 228.714844 284.578125 225.15625 291.46875 222.324219 C 296.214844 220.375 301.6875 215.746094 301.597656 212.347656 C 301.550781 210.539062 299.625 208.125 298.234375 207.542969 " fill-opacity="1" fill-rule="nonzero"/><path fill="#002560" d="M 279.511719 164.316406 C 276.875 163.234375 274.003906 163.648438 271.945312 165.355469 C 268.90625 167.882812 269.617188 172.21875 269.617188 172.21875 C 270.292969 172.171875 270.542969 173.214844 270.417969 173.929688 C 270.351562 174.308594 271.421875 174.835938 271.453125 174.53125 C 271.609375 172.886719 271.511719 168.28125 275.90625 168.777344 C 276.617188 168.929688 277.300781 169.316406 277.894531 169.753906 C 278.789062 170.417969 279.597656 171.214844 280.617188 171.660156 C 280.949219 171.804688 281.316406 171.898438 281.6875 171.933594 C 282.105469 173.308594 282.003906 174.59375 282.003906 174.59375 C 282.003906 174.59375 282.933594 174.300781 282.988281 174.015625 C 283.046875 173.722656 285.453125 166.746094 279.511719 164.316406 " fill-opacity="1" fill-rule="nonzero"/></svg>