<svg xmlns="http://www.w3.org/2000/svg" xmlns:xlink="http://www.w3.org/1999/xlink" width="933" zoomAndPan="magnify" viewBox="0 0 699.75 247.499998" height="330" preserveAspectRatio="xMidYMid meet" version="1.0"><defs><g/><clipPath id="1a4ecfc092"><path d="M 110 2 L 381 2 L 381 210 L 110 210 Z M 110 2 " clip-rule="nonzero"/></clipPath><clipPath id="33367860d6"><path d="M 62.230469 108.921875 L 304.585938 -7.925781 L 404.03125 198.332031 L 161.675781 315.179688 Z M 62.230469 108.921875 " clip-rule="nonzero"/></clipPath><clipPath id="d6bcca8995"><path d="M 62.230469 108.921875 L 304.585938 -7.925781 L 404.03125 198.332031 L 161.675781 315.179688 Z M 62.230469 108.921875 " clip-rule="nonzero"/></clipPath><clipPath id="acd30e8380"><path d="M 29.316406 145.453125 L 46.894531 145.453125 L 46.894531 209.15625 L 29.316406 209.15625 Z M 29.316406 145.453125 " clip-rule="nonzero"/></clipPath><clipPath id="36f336f024"><path d="M 65.648438 145.453125 L 83.226562 145.453125 L 83.226562 209.15625 L 65.648438 209.15625 Z M 65.648438 145.453125 " clip-rule="nonzero"/></clipPath><clipPath id="b6734c0c32"><path d="M 7.597656 125.148438 L 109.804688 125.148438 L 109.804688 139.65625 L 7.597656 139.65625 Z M 7.597656 125.148438 " clip-rule="nonzero"/></clipPath></defs><g clip-path="url(#1a4ecfc092)"><g clip-path="url(#33367860d6)"><g clip-path="url(#d6bcca8995)"><path fill="#000000" d="M 352.90625 92.011719 C 357.335938 101.167969 361.242188 110.539062 364.625 120.132812 C 368.007812 129.722656 370.847656 139.472656 373.144531 149.378906 C 375.441406 159.285156 377.183594 169.289062 378.367188 179.390625 C 379.550781 189.492188 380.167969 199.628906 380.222656 209.800781 L 110.441406 208.910156 L 283.734375 2.242188 C 290.980469 8.417969 297.886719 14.953125 304.453125 21.851562 C 311.015625 28.746094 317.203125 35.964844 323.015625 43.507812 C 328.828125 51.050781 334.230469 58.875 339.226562 66.980469 C 344.222656 75.085938 348.78125 83.429688 352.90625 92.011719 Z M 352.90625 92.011719 " fill-opacity="1" fill-rule="nonzero"/></g></g></g><g clip-path="url(#acd30e8380)"><path fill="#000000" d="M 29.316406 145.453125 L 46.894531 145.453125 L 46.894531 209.167969 L 29.316406 209.167969 Z M 29.316406 145.453125 " fill-opacity="1" fill-rule="nonzero"/></g><g fill="#ffffff" fill-opacity="1"><g transform="translate(157.586062, 208.559598)"><g><path d="M 6.15625 -37.578125 L 39.234375 -37.578125 L 39.234375 -21.875 L 6.15625 -21.875 Z M 6.15625 -37.578125 "/></g></g></g><g fill="#ffffff" fill-opacity="1"><g transform="translate(205.838471, 208.559598)"><g><path d="M 76.1875 0 L 72.1875 -50.21875 L 71.671875 -50.21875 L 54.328125 -0.515625 L 42.828125 -0.515625 L 25.46875 -50.21875 L 24.953125 -50.21875 L 20.953125 0 L 1.640625 0 L 9.234375 -84.71875 L 29.78125 -84.71875 L 48.578125 -35.84375 L 67.359375 -84.71875 L 87.90625 -84.71875 L 95.5 0 Z M 76.1875 0 "/></g></g></g><g fill="#ffffff" fill-opacity="1"><g transform="translate(305.832494, 208.559598)"><g><path d="M 25.46875 -84.71875 L 25.46875 -16.9375 L 54.625 -16.9375 L 54.625 0 L 6.15625 0 L 6.15625 -84.71875 Z M 25.46875 -84.71875 "/></g></g></g><g clip-path="url(#36f336f024)"><path fill="#000000" d="M 65.648438 145.453125 L 83.226562 145.453125 L 83.226562 209.167969 L 65.648438 209.167969 Z M 65.648438 145.453125 " fill-opacity="1" fill-rule="nonzero"/></g><g clip-path="url(#b6734c0c32)"><path fill="#000000" d="M 7.597656 139.65625 L 7.597656 125.148438 L 109.8125 125.148438 L 109.8125 139.65625 Z M 7.597656 139.65625 " fill-opacity="1" fill-rule="nonzero"/></g><g fill="#000000" fill-opacity="1"><g transform="translate(109.803353, 234.535433)"><g><path d="M 2.4375 0 L 2.4375 -18.734375 L 9.953125 -18.734375 C 11.890625 -18.734375 13.347656 -18.285156 14.328125 -17.390625 C 15.316406 -16.492188 15.8125 -15.257812 15.8125 -13.6875 C 15.8125 -12.550781 15.523438 -11.617188 14.953125 -10.890625 C 14.378906 -10.171875 13.519531 -9.617188 12.375 -9.234375 L 12.375 -8.96875 C 12.96875 -8.707031 13.441406 -8.328125 13.796875 -7.828125 C 14.160156 -7.328125 14.503906 -6.578125 14.828125 -5.578125 L 16.703125 0 L 12.90625 0 L 11.0625 -5.59375 C 10.875 -6.15625 10.660156 -6.59375 10.421875 -6.90625 C 10.191406 -7.21875 9.894531 -7.441406 9.53125 -7.578125 C 9.175781 -7.722656 8.707031 -7.796875 8.125 -7.796875 L 6.140625 -7.796875 L 6.140625 0 Z M 9.5 -10.734375 C 11.289062 -10.734375 12.1875 -11.570312 12.1875 -13.25 C 12.1875 -14.945312 11.289062 -15.796875 9.5 -15.796875 L 6.140625 -15.796875 L 6.140625 -10.734375 Z M 9.5 -10.734375 "/></g></g></g><g fill="#000000" fill-opacity="1"><g transform="translate(127.314252, 234.535433)"><g><path d="M 13.96875 -6.265625 L 4.875 -6.265625 C 4.976562 -5.035156 5.328125 -4.140625 5.921875 -3.578125 C 6.523438 -3.015625 7.34375 -2.734375 8.375 -2.734375 C 9.1875 -2.734375 9.84375 -2.882812 10.34375 -3.1875 C 10.851562 -3.5 11.257812 -3.960938 11.5625 -4.578125 L 11.84375 -4.578125 L 14.1875 -3.0625 C 13.726562 -2.070312 13.03125 -1.269531 12.09375 -0.65625 C 11.164062 -0.0390625 9.925781 0.265625 8.375 0.265625 C 6.914062 0.265625 5.65625 -0.0078125 4.59375 -0.5625 C 3.53125 -1.113281 2.707031 -1.9375 2.125 -3.03125 C 1.550781 -4.132812 1.265625 -5.476562 1.265625 -7.0625 C 1.265625 -8.664062 1.566406 -10.015625 2.171875 -11.109375 C 2.785156 -12.210938 3.609375 -13.035156 4.640625 -13.578125 C 5.671875 -14.117188 6.832031 -14.390625 8.125 -14.390625 C 10.125 -14.390625 11.65625 -13.859375 12.71875 -12.796875 C 13.78125 -11.742188 14.3125 -10.191406 14.3125 -8.140625 C 14.3125 -7.398438 14.285156 -6.828125 14.234375 -6.421875 Z M 10.90625 -8.5625 C 10.875 -9.632812 10.625 -10.414062 10.15625 -10.90625 C 9.695312 -11.394531 9.019531 -11.640625 8.125 -11.640625 C 6.332031 -11.640625 5.273438 -10.613281 4.953125 -8.5625 Z M 10.90625 -8.5625 "/></g></g></g><g fill="#000000" fill-opacity="1"><g transform="translate(142.673117, 234.535433)"><g><path d="M 6.609375 0.265625 C 5.640625 0.265625 4.753906 0.15625 3.953125 -0.0625 C 3.148438 -0.289062 2.460938 -0.601562 1.890625 -1 C 1.328125 -1.394531 0.910156 -1.851562 0.640625 -2.375 L 2.609375 -4.5 L 2.875 -4.5 C 3.351562 -3.863281 3.910156 -3.382812 4.546875 -3.0625 C 5.191406 -2.75 5.890625 -2.59375 6.640625 -2.59375 C 7.328125 -2.59375 7.84375 -2.71875 8.1875 -2.96875 C 8.539062 -3.21875 8.71875 -3.570312 8.71875 -4.03125 C 8.71875 -4.394531 8.59375 -4.695312 8.34375 -4.9375 C 8.09375 -5.175781 7.6875 -5.367188 7.125 -5.515625 L 5.25 -5.953125 C 3.851562 -6.285156 2.832031 -6.796875 2.1875 -7.484375 C 1.539062 -8.171875 1.21875 -9.046875 1.21875 -10.109375 C 1.21875 -10.984375 1.441406 -11.742188 1.890625 -12.390625 C 2.335938 -13.046875 2.96875 -13.539062 3.78125 -13.875 C 4.601562 -14.21875 5.554688 -14.390625 6.640625 -14.390625 C 7.910156 -14.390625 8.960938 -14.207031 9.796875 -13.84375 C 10.640625 -13.476562 11.296875 -12.988281 11.765625 -12.375 L 9.859375 -10.328125 L 9.609375 -10.328125 C 9.210938 -10.765625 8.769531 -11.085938 8.28125 -11.296875 C 7.789062 -11.503906 7.242188 -11.609375 6.640625 -11.609375 C 5.234375 -11.609375 4.53125 -11.171875 4.53125 -10.296875 C 4.53125 -9.929688 4.660156 -9.632812 4.921875 -9.40625 C 5.179688 -9.175781 5.640625 -8.988281 6.296875 -8.84375 L 8.046875 -8.453125 C 9.484375 -8.148438 10.53125 -7.65625 11.1875 -6.96875 C 11.851562 -6.289062 12.1875 -5.378906 12.1875 -4.234375 C 12.1875 -3.335938 11.960938 -2.546875 11.515625 -1.859375 C 11.066406 -1.179688 10.425781 -0.65625 9.59375 -0.28125 C 8.757812 0.0820312 7.765625 0.265625 6.609375 0.265625 Z M 6.609375 0.265625 "/></g></g></g><g fill="#000000" fill-opacity="1"><g transform="translate(155.700611, 234.535433)"><g><path d="M 13.96875 -6.265625 L 4.875 -6.265625 C 4.976562 -5.035156 5.328125 -4.140625 5.921875 -3.578125 C 6.523438 -3.015625 7.34375 -2.734375 8.375 -2.734375 C 9.1875 -2.734375 9.84375 -2.882812 10.34375 -3.1875 C 10.851562 -3.5 11.257812 -3.960938 11.5625 -4.578125 L 11.84375 -4.578125 L 14.1875 -3.0625 C 13.726562 -2.070312 13.03125 -1.269531 12.09375 -0.65625 C 11.164062 -0.0390625 9.925781 0.265625 8.375 0.265625 C 6.914062 0.265625 5.65625 -0.0078125 4.59375 -0.5625 C 3.53125 -1.113281 2.707031 -1.9375 2.125 -3.03125 C 1.550781 -4.132812 1.265625 -5.476562 1.265625 -7.0625 C 1.265625 -8.664062 1.566406 -10.015625 2.171875 -11.109375 C 2.785156 -12.210938 3.609375 -13.035156 4.640625 -13.578125 C 5.671875 -14.117188 6.832031 -14.390625 8.125 -14.390625 C 10.125 -14.390625 11.65625 -13.859375 12.71875 -12.796875 C 13.78125 -11.742188 14.3125 -10.191406 14.3125 -8.140625 C 14.3125 -7.398438 14.285156 -6.828125 14.234375 -6.421875 Z M 10.90625 -8.5625 C 10.875 -9.632812 10.625 -10.414062 10.15625 -10.90625 C 9.695312 -11.394531 9.019531 -11.640625 8.125 -11.640625 C 6.332031 -11.640625 5.273438 -10.613281 4.953125 -8.5625 Z M 10.90625 -8.5625 "/></g></g></g><g fill="#000000" fill-opacity="1"><g transform="translate(171.059476, 234.535433)"><g><path d="M 5.515625 0.265625 C 4.609375 0.265625 3.820312 0.0976562 3.15625 -0.234375 C 2.488281 -0.566406 1.972656 -1.054688 1.609375 -1.703125 C 1.253906 -2.347656 1.078125 -3.117188 1.078125 -4.015625 C 1.078125 -4.859375 1.253906 -5.5625 1.609375 -6.125 C 1.972656 -6.695312 2.53125 -7.160156 3.28125 -7.515625 C 4.03125 -7.878906 5.007812 -8.160156 6.21875 -8.359375 C 7.070312 -8.492188 7.71875 -8.644531 8.15625 -8.8125 C 8.59375 -8.976562 8.890625 -9.160156 9.046875 -9.359375 C 9.203125 -9.566406 9.28125 -9.828125 9.28125 -10.140625 C 9.28125 -10.597656 9.117188 -10.945312 8.796875 -11.1875 C 8.484375 -11.425781 7.957031 -11.546875 7.21875 -11.546875 C 6.4375 -11.546875 5.691406 -11.367188 4.984375 -11.015625 C 4.273438 -10.660156 3.660156 -10.203125 3.140625 -9.640625 L 2.875 -9.640625 L 1.390625 -11.875 C 2.109375 -12.664062 2.984375 -13.28125 4.015625 -13.71875 C 5.054688 -14.164062 6.1875 -14.390625 7.40625 -14.390625 C 9.269531 -14.390625 10.617188 -13.992188 11.453125 -13.203125 C 12.296875 -12.410156 12.71875 -11.285156 12.71875 -9.828125 L 12.71875 -3.6875 C 12.71875 -3.050781 12.992188 -2.734375 13.546875 -2.734375 C 13.765625 -2.734375 13.976562 -2.773438 14.1875 -2.859375 L 14.359375 -2.8125 L 14.609375 -0.328125 C 14.421875 -0.203125 14.148438 -0.0976562 13.796875 -0.015625 C 13.441406 0.0664062 13.054688 0.109375 12.640625 0.109375 C 11.796875 0.109375 11.132812 -0.0507812 10.65625 -0.375 C 10.1875 -0.707031 9.847656 -1.21875 9.640625 -1.90625 L 9.375 -1.9375 C 8.6875 -0.46875 7.398438 0.265625 5.515625 0.265625 Z M 6.640625 -2.375 C 7.453125 -2.375 8.101562 -2.648438 8.59375 -3.203125 C 9.09375 -3.753906 9.34375 -4.523438 9.34375 -5.515625 L 9.34375 -6.9375 L 9.09375 -7 C 8.882812 -6.820312 8.601562 -6.675781 8.25 -6.5625 C 7.90625 -6.445312 7.410156 -6.332031 6.765625 -6.21875 C 5.992188 -6.09375 5.4375 -5.875 5.09375 -5.5625 C 4.757812 -5.25 4.59375 -4.804688 4.59375 -4.234375 C 4.59375 -3.628906 4.769531 -3.164062 5.125 -2.84375 C 5.488281 -2.53125 5.992188 -2.375 6.640625 -2.375 Z M 6.640625 -2.375 "/></g></g></g><g fill="#000000" fill-opacity="1"><g transform="translate(185.957191, 234.535433)"><g><path d="M 2.03125 0 L 2.03125 -14.125 L 5.484375 -14.125 L 5.484375 -12.03125 L 5.75 -11.984375 C 6.09375 -12.765625 6.539062 -13.335938 7.09375 -13.703125 C 7.644531 -14.066406 8.320312 -14.25 9.125 -14.25 C 9.925781 -14.25 10.535156 -14.113281 10.953125 -13.84375 L 10.34375 -10.78125 L 10.078125 -10.734375 C 9.847656 -10.828125 9.625 -10.894531 9.40625 -10.9375 C 9.195312 -10.976562 8.941406 -11 8.640625 -11 C 7.640625 -11 6.878906 -10.648438 6.359375 -9.953125 C 5.835938 -9.265625 5.578125 -8.148438 5.578125 -6.609375 L 5.578125 0 Z M 2.03125 0 "/></g></g></g><g fill="#000000" fill-opacity="1"><g transform="translate(197.037607, 234.535433)"><g><path d="M 8.234375 0.265625 C 6.867188 0.265625 5.660156 -0.015625 4.609375 -0.578125 C 3.554688 -1.148438 2.734375 -1.984375 2.140625 -3.078125 C 1.554688 -4.179688 1.265625 -5.507812 1.265625 -7.0625 C 1.265625 -8.613281 1.554688 -9.9375 2.140625 -11.03125 C 2.734375 -12.132812 3.550781 -12.96875 4.59375 -13.53125 C 5.632812 -14.101562 6.828125 -14.390625 8.171875 -14.390625 C 11.148438 -14.390625 13.0625 -13.3125 13.90625 -11.15625 L 11.46875 -9.421875 L 11.203125 -9.421875 C 10.910156 -10.085938 10.53125 -10.582031 10.0625 -10.90625 C 9.59375 -11.226562 8.960938 -11.390625 8.171875 -11.390625 C 7.148438 -11.390625 6.351562 -11.035156 5.78125 -10.328125 C 5.207031 -9.617188 4.921875 -8.53125 4.921875 -7.0625 C 4.921875 -5.601562 5.207031 -4.515625 5.78125 -3.796875 C 6.363281 -3.085938 7.179688 -2.734375 8.234375 -2.734375 C 9.003906 -2.734375 9.65625 -2.941406 10.1875 -3.359375 C 10.71875 -3.773438 11.101562 -4.375 11.34375 -5.15625 L 11.609375 -5.171875 L 14.125 -3.796875 C 13.769531 -2.597656 13.109375 -1.617188 12.140625 -0.859375 C 11.171875 -0.109375 9.867188 0.265625 8.234375 0.265625 Z M 8.234375 0.265625 "/></g></g></g><g fill="#000000" fill-opacity="1"><g transform="translate(211.602275, 234.535433)"><g><path d="M 2.03125 0 L 2.03125 -19.796875 L 5.578125 -19.796875 L 5.578125 -12.28125 L 5.859375 -12.234375 C 6.328125 -12.921875 6.898438 -13.453125 7.578125 -13.828125 C 8.265625 -14.203125 9.09375 -14.390625 10.0625 -14.390625 C 13.175781 -14.390625 14.734375 -12.625 14.734375 -9.09375 L 14.734375 0 L 11.1875 0 L 11.1875 -8.640625 C 11.1875 -9.609375 10.992188 -10.3125 10.609375 -10.75 C 10.222656 -11.1875 9.625 -11.40625 8.8125 -11.40625 C 7.820312 -11.40625 7.035156 -11.070312 6.453125 -10.40625 C 5.867188 -9.75 5.578125 -8.71875 5.578125 -7.3125 L 5.578125 0 Z M 2.03125 0 "/></g></g></g><g fill="#000000" fill-opacity="1"><g transform="translate(228.152441, 234.535433)"><g/></g></g><g fill="#000000" fill-opacity="1"><g transform="translate(234.339542, 234.535433)"><g><path d="M 10.234375 0.265625 C 8.503906 0.265625 6.984375 -0.09375 5.671875 -0.8125 C 4.359375 -1.53125 3.328125 -2.609375 2.578125 -4.046875 C 1.835938 -5.484375 1.46875 -7.253906 1.46875 -9.359375 C 1.46875 -11.472656 1.835938 -13.25 2.578125 -14.6875 C 3.328125 -16.125 4.359375 -17.203125 5.671875 -17.921875 C 6.984375 -18.640625 8.503906 -19 10.234375 -19 C 12.035156 -19 13.566406 -18.644531 14.828125 -17.9375 C 16.085938 -17.238281 16.988281 -16.164062 17.53125 -14.71875 L 14.828125 -13.0625 L 14.5 -13.078125 C 14.101562 -14.054688 13.5625 -14.753906 12.875 -15.171875 C 12.1875 -15.597656 11.304688 -15.8125 10.234375 -15.8125 C 8.679688 -15.8125 7.46875 -15.296875 6.59375 -14.265625 C 5.726562 -13.234375 5.296875 -11.597656 5.296875 -9.359375 C 5.296875 -7.128906 5.726562 -5.5 6.59375 -4.46875 C 7.46875 -3.445312 8.679688 -2.9375 10.234375 -2.9375 C 12.671875 -2.9375 14.160156 -4.117188 14.703125 -6.484375 L 15.03125 -6.484375 L 17.75 -5.0625 C 17.238281 -3.28125 16.363281 -1.945312 15.125 -1.0625 C 13.882812 -0.175781 12.253906 0.265625 10.234375 0.265625 Z M 10.234375 0.265625 "/></g></g></g><g fill="#000000" fill-opacity="1"><g transform="translate(252.708695, 234.535433)"><g><path d="M 8.21875 0.265625 C 6.832031 0.265625 5.613281 -0.015625 4.5625 -0.578125 C 3.519531 -1.148438 2.707031 -1.984375 2.125 -3.078125 C 1.550781 -4.179688 1.265625 -5.507812 1.265625 -7.0625 C 1.265625 -8.613281 1.550781 -9.9375 2.125 -11.03125 C 2.707031 -12.132812 3.519531 -12.96875 4.5625 -13.53125 C 5.613281 -14.101562 6.832031 -14.390625 8.21875 -14.390625 C 9.59375 -14.390625 10.800781 -14.101562 11.84375 -13.53125 C 12.894531 -12.96875 13.710938 -12.132812 14.296875 -11.03125 C 14.878906 -9.9375 15.171875 -8.613281 15.171875 -7.0625 C 15.171875 -5.507812 14.878906 -4.179688 14.296875 -3.078125 C 13.710938 -1.984375 12.894531 -1.148438 11.84375 -0.578125 C 10.800781 -0.015625 9.59375 0.265625 8.21875 0.265625 Z M 8.21875 -2.734375 C 10.40625 -2.734375 11.5 -4.175781 11.5 -7.0625 C 11.5 -8.550781 11.21875 -9.644531 10.65625 -10.34375 C 10.09375 -11.039062 9.28125 -11.390625 8.21875 -11.390625 C 6.019531 -11.390625 4.921875 -9.945312 4.921875 -7.0625 C 4.921875 -4.175781 6.019531 -2.734375 8.21875 -2.734375 Z M 8.21875 -2.734375 "/></g></g></g><g fill="#000000" fill-opacity="1"><g transform="translate(269.130759, 234.535433)"><g><path d="M 2.03125 0 L 2.03125 -14.125 L 5.4375 -14.125 L 5.4375 -12.234375 L 5.71875 -12.1875 C 6.175781 -12.945312 6.710938 -13.503906 7.328125 -13.859375 C 7.953125 -14.210938 8.742188 -14.390625 9.703125 -14.390625 C 10.773438 -14.390625 11.632812 -14.175781 12.28125 -13.75 C 12.9375 -13.332031 13.410156 -12.71875 13.703125 -11.90625 L 13.96875 -11.90625 C 14.40625 -12.757812 14.96875 -13.382812 15.65625 -13.78125 C 16.34375 -14.1875 17.203125 -14.390625 18.234375 -14.390625 C 21.160156 -14.390625 22.625 -12.757812 22.625 -9.5 L 22.625 0 L 19.078125 0 L 19.078125 -9.0625 C 19.078125 -9.882812 18.910156 -10.476562 18.578125 -10.84375 C 18.253906 -11.21875 17.738281 -11.40625 17.03125 -11.40625 C 15.082031 -11.40625 14.109375 -10.101562 14.109375 -7.5 L 14.109375 0 L 10.5625 0 L 10.5625 -9.0625 C 10.5625 -9.882812 10.394531 -10.476562 10.0625 -10.84375 C 9.726562 -11.21875 9.207031 -11.40625 8.5 -11.40625 C 7.582031 -11.40625 6.863281 -11.097656 6.34375 -10.484375 C 5.832031 -9.867188 5.578125 -8.898438 5.578125 -7.578125 L 5.578125 0 Z M 2.03125 0 "/></g></g></g><g fill="#000000" fill-opacity="1"><g transform="translate(293.571716, 234.535433)"><g><path d="M 2.03125 5.71875 L 2.03125 -14.125 L 5.578125 -14.125 L 5.578125 -12.28125 L 5.859375 -12.234375 C 6.273438 -12.953125 6.832031 -13.488281 7.53125 -13.84375 C 8.226562 -14.207031 9.046875 -14.390625 9.984375 -14.390625 C 11.117188 -14.390625 12.113281 -14.117188 12.96875 -13.578125 C 13.820312 -13.046875 14.484375 -12.226562 14.953125 -11.125 C 15.429688 -10.03125 15.671875 -8.675781 15.671875 -7.0625 C 15.671875 -5.445312 15.421875 -4.09375 14.921875 -3 C 14.421875 -1.90625 13.722656 -1.085938 12.828125 -0.546875 C 11.941406 -0.00390625 10.921875 0.265625 9.765625 0.265625 C 8.878906 0.265625 8.113281 0.117188 7.46875 -0.171875 C 6.832031 -0.460938 6.296875 -0.921875 5.859375 -1.546875 L 5.578125 -1.5 L 5.578125 5.71875 Z M 8.78125 -2.734375 C 9.832031 -2.734375 10.628906 -3.078125 11.171875 -3.765625 C 11.722656 -4.460938 12 -5.5625 12 -7.0625 C 12 -8.550781 11.722656 -9.644531 11.171875 -10.34375 C 10.628906 -11.039062 9.832031 -11.390625 8.78125 -11.390625 C 7.78125 -11.390625 6.988281 -11.03125 6.40625 -10.3125 C 5.832031 -9.59375 5.546875 -8.507812 5.546875 -7.0625 C 5.546875 -5.613281 5.832031 -4.53125 6.40625 -3.8125 C 6.988281 -3.09375 7.78125 -2.734375 8.78125 -2.734375 Z M 8.78125 -2.734375 "/></g></g></g><g fill="#000000" fill-opacity="1"><g transform="translate(310.493362, 234.535433)"><g><path d="M 5.515625 0.265625 C 4.609375 0.265625 3.820312 0.0976562 3.15625 -0.234375 C 2.488281 -0.566406 1.972656 -1.054688 1.609375 -1.703125 C 1.253906 -2.347656 1.078125 -3.117188 1.078125 -4.015625 C 1.078125 -4.859375 1.253906 -5.5625 1.609375 -6.125 C 1.972656 -6.695312 2.53125 -7.160156 3.28125 -7.515625 C 4.03125 -7.878906 5.007812 -8.160156 6.21875 -8.359375 C 7.070312 -8.492188 7.71875 -8.644531 8.15625 -8.8125 C 8.59375 -8.976562 8.890625 -9.160156 9.046875 -9.359375 C 9.203125 -9.566406 9.28125 -9.828125 9.28125 -10.140625 C 9.28125 -10.597656 9.117188 -10.945312 8.796875 -11.1875 C 8.484375 -11.425781 7.957031 -11.546875 7.21875 -11.546875 C 6.4375 -11.546875 5.691406 -11.367188 4.984375 -11.015625 C 4.273438 -10.660156 3.660156 -10.203125 3.140625 -9.640625 L 2.875 -9.640625 L 1.390625 -11.875 C 2.109375 -12.664062 2.984375 -13.28125 4.015625 -13.71875 C 5.054688 -14.164062 6.1875 -14.390625 7.40625 -14.390625 C 9.269531 -14.390625 10.617188 -13.992188 11.453125 -13.203125 C 12.296875 -12.410156 12.71875 -11.285156 12.71875 -9.828125 L 12.71875 -3.6875 C 12.71875 -3.050781 12.992188 -2.734375 13.546875 -2.734375 C 13.765625 -2.734375 13.976562 -2.773438 14.1875 -2.859375 L 14.359375 -2.8125 L 14.609375 -0.328125 C 14.421875 -0.203125 14.148438 -0.0976562 13.796875 -0.015625 C 13.441406 0.0664062 13.054688 0.109375 12.640625 0.109375 C 11.796875 0.109375 11.132812 -0.0507812 10.65625 -0.375 C 10.1875 -0.707031 9.847656 -1.21875 9.640625 -1.90625 L 9.375 -1.9375 C 8.6875 -0.46875 7.398438 0.265625 5.515625 0.265625 Z M 6.640625 -2.375 C 7.453125 -2.375 8.101562 -2.648438 8.59375 -3.203125 C 9.09375 -3.753906 9.34375 -4.523438 9.34375 -5.515625 L 9.34375 -6.9375 L 9.09375 -7 C 8.882812 -6.820312 8.601562 -6.675781 8.25 -6.5625 C 7.90625 -6.445312 7.410156 -6.332031 6.765625 -6.21875 C 5.992188 -6.09375 5.4375 -5.875 5.09375 -5.5625 C 4.757812 -5.25 4.59375 -4.804688 4.59375 -4.234375 C 4.59375 -3.628906 4.769531 -3.164062 5.125 -2.84375 C 5.488281 -2.53125 5.992188 -2.375 6.640625 -2.375 Z M 6.640625 -2.375 "/></g></g></g><g fill="#000000" fill-opacity="1"><g transform="translate(325.391077, 234.535433)"><g><path d="M 2.03125 0 L 2.03125 -14.125 L 5.4375 -14.125 L 5.4375 -12.046875 L 5.71875 -11.984375 C 6.59375 -13.585938 8.015625 -14.390625 9.984375 -14.390625 C 11.617188 -14.390625 12.816406 -13.945312 13.578125 -13.0625 C 14.347656 -12.175781 14.734375 -10.882812 14.734375 -9.1875 L 14.734375 0 L 11.1875 0 L 11.1875 -8.75 C 11.1875 -9.6875 11 -10.363281 10.625 -10.78125 C 10.25 -11.195312 9.644531 -11.40625 8.8125 -11.40625 C 7.789062 -11.40625 6.992188 -11.070312 6.421875 -10.40625 C 5.859375 -9.75 5.578125 -8.71875 5.578125 -7.3125 L 5.578125 0 Z M 2.03125 0 "/></g></g></g><g fill="#000000" fill-opacity="1"><g transform="translate(341.941255, 234.535433)"><g><path d="M 3.125 6 C 2.519531 6 1.972656 5.953125 1.484375 5.859375 C 0.992188 5.765625 0.59375 5.640625 0.28125 5.484375 L 0.84375 2.609375 L 1.078125 2.53125 C 1.285156 2.644531 1.546875 2.734375 1.859375 2.796875 C 2.179688 2.867188 2.507812 2.90625 2.84375 2.90625 C 3.414062 2.90625 3.890625 2.828125 4.265625 2.671875 C 4.648438 2.523438 4.972656 2.28125 5.234375 1.9375 C 5.503906 1.59375 5.738281 1.113281 5.9375 0.5 L 0.3125 -14.125 L 4.015625 -14.125 L 7.53125 -4.296875 L 7.84375 -4.296875 L 11.265625 -14.125 L 14.875 -14.125 L 9.203125 0.890625 C 8.742188 2.097656 8.242188 3.070312 7.703125 3.8125 C 7.160156 4.550781 6.519531 5.097656 5.78125 5.453125 C 5.039062 5.816406 4.15625 6 3.125 6 Z M 3.125 6 "/></g></g></g></svg>