<svg xmlns="http://www.w3.org/2000/svg" xmlns:xlink="http://www.w3.org/1999/xlink" width="64" zoomAndPan="magnify" viewBox="0 0 48 48" height="64" preserveAspectRatio="xMidYMid meet" version="1.0"><defs><clipPath id="89ce079111"><path d="M 0.488281 0 L 47.507812 0 L 47.507812 47.019531 L 0.488281 47.019531 Z M 0.488281 0 " clip-rule="nonzero"/></clipPath><clipPath id="a65b915df3"><path d="M 2.933594 9.546875 L 44.8125 9.546875 L 44.8125 40.402344 L 2.933594 40.402344 Z M 2.933594 9.546875 " clip-rule="nonzero"/></clipPath></defs><g clip-path="url(#89ce079111)"><path fill="#ffffff" d="M 0.488281 0 L 47.511719 0 L 47.511719 47.019531 L 0.488281 47.019531 Z M 0.488281 0 " fill-opacity="1" fill-rule="nonzero"/><path fill="#ffffff" d="M 0.488281 0 L 47.511719 0 L 47.511719 47.019531 L 0.488281 47.019531 Z M 0.488281 0 " fill-opacity="1" fill-rule="nonzero"/></g><g clip-path="url(#a65b915df3)"><path fill="#370909" d="M 40.351562 9.546875 L 7.644531 9.546875 C 7.335938 9.546875 7.03125 9.578125 6.730469 9.636719 C 6.429688 9.699219 6.136719 9.789062 5.851562 9.90625 C 5.570312 10.023438 5.300781 10.167969 5.042969 10.339844 C 4.789062 10.511719 4.550781 10.703125 4.335938 10.921875 C 4.117188 11.136719 3.925781 11.375 3.753906 11.628906 C 3.582031 11.886719 3.4375 12.15625 3.320312 12.4375 C 3.203125 12.722656 3.113281 13.015625 3.050781 13.316406 C 2.992188 13.617188 2.960938 13.921875 2.960938 14.230469 L 2.960938 35.71875 C 2.960938 36.023438 2.992188 36.328125 3.050781 36.628906 C 3.113281 36.933594 3.203125 37.222656 3.320312 37.507812 C 3.4375 37.792969 3.582031 38.0625 3.753906 38.316406 C 3.925781 38.574219 4.117188 38.808594 4.335938 39.027344 C 4.550781 39.242188 4.789062 39.4375 5.042969 39.609375 C 5.300781 39.78125 5.570312 39.925781 5.851562 40.042969 C 6.136719 40.160156 6.429688 40.25 6.730469 40.308594 C 7.03125 40.371094 7.335938 40.402344 7.644531 40.402344 L 40.351562 40.402344 C 40.660156 40.402344 40.964844 40.371094 41.265625 40.308594 C 41.566406 40.25 41.859375 40.160156 42.144531 40.042969 C 42.425781 39.925781 42.695312 39.78125 42.953125 39.609375 C 43.207031 39.4375 43.445312 39.242188 43.660156 39.027344 C 43.878906 38.808594 44.074219 38.574219 44.242188 38.316406 C 44.414062 38.0625 44.558594 37.792969 44.675781 37.507812 C 44.792969 37.222656 44.882812 36.933594 44.945312 36.628906 C 45.003906 36.328125 45.035156 36.023438 45.035156 35.71875 L 45.035156 14.230469 C 45.035156 13.921875 45.003906 13.617188 44.945312 13.316406 C 44.882812 13.015625 44.792969 12.722656 44.675781 12.4375 C 44.558594 12.15625 44.414062 11.886719 44.242188 11.628906 C 44.074219 11.375 43.878906 11.136719 43.660156 10.921875 C 43.445312 10.703125 43.207031 10.511719 42.953125 10.339844 C 42.695312 10.167969 42.425781 10.023438 42.144531 9.90625 C 41.859375 9.789062 41.566406 9.699219 41.265625 9.636719 C 40.964844 9.578125 40.660156 9.546875 40.351562 9.546875 Z M 5.765625 14.132812 L 17.898438 23.457031 L 5.765625 35.621094 L 5.765625 14.230469 C 5.765625 14.230469 5.765625 14.160156 5.765625 14.132812 Z M 24 24.609375 L 8.066406 12.351562 L 39.933594 12.351562 Z M 20.15625 25.183594 L 23.140625 27.484375 C 23.394531 27.679688 23.679688 27.777344 24 27.777344 C 24.316406 27.777344 24.601562 27.679688 24.855469 27.484375 L 27.839844 25.183594 L 40.253906 37.597656 L 7.742188 37.597656 Z M 30.085938 23.457031 L 42.230469 14.132812 C 42.230469 14.132812 42.230469 14.132812 42.230469 14.230469 L 42.230469 35.621094 Z M 30.085938 23.457031 " fill-opacity="1" fill-rule="nonzero"/></g></svg>