<svg xmlns="http://www.w3.org/2000/svg" xmlns:xlink="http://www.w3.org/1999/xlink" width="64" zoomAndPan="magnify" viewBox="0 0 48 48" height="64" preserveAspectRatio="xMidYMid meet" version="1.0"><defs><clipPath id="68474fe9fe"><path d="M 0.488281 0 L 47.507812 0 L 47.507812 47.019531 L 0.488281 47.019531 Z M 0.488281 0 " clip-rule="nonzero"/></clipPath><clipPath id="4e3cae8fb0"><path d="M 5 4.703125 L 43 4.703125 L 43 42.90625 L 5 42.90625 Z M 5 4.703125 " clip-rule="nonzero"/></clipPath></defs><g clip-path="url(#68474fe9fe)"><path fill="#ffffff" d="M 0.488281 0 L 47.511719 0 L 47.511719 47.019531 L 0.488281 47.019531 Z M 0.488281 0 " fill-opacity="1" fill-rule="nonzero"/><path fill="#ffffff" d="M 0.488281 0 L 47.511719 0 L 47.511719 47.019531 L 0.488281 47.019531 Z M 0.488281 0 " fill-opacity="1" fill-rule="nonzero"/></g><g clip-path="url(#4e3cae8fb0)"><path fill="#370909" d="M 23.996094 4.703125 C 22.9375 4.703125 21.882812 4.789062 20.839844 4.964844 C 19.796875 5.140625 18.773438 5.402344 17.773438 5.75 C 16.773438 6.097656 15.808594 6.527344 14.878906 7.039062 C 13.949219 7.546875 13.070312 8.132812 12.242188 8.789062 C 11.410156 9.449219 10.640625 10.171875 9.933594 10.957031 C 9.222656 11.746094 8.585938 12.585938 8.019531 13.480469 C 7.449219 14.375 6.960938 15.308594 6.550781 16.285156 C 6.140625 17.261719 5.816406 18.265625 5.574219 19.296875 C 5.332031 20.328125 5.175781 21.375 5.109375 22.429688 C 5.046875 23.488281 5.066406 24.542969 5.179688 25.597656 C 5.289062 26.648438 5.488281 27.6875 5.773438 28.707031 C 6.058594 29.726562 6.425781 30.714844 6.878906 31.675781 C 7.332031 32.632812 7.859375 33.546875 8.464844 34.414062 C 9.070312 35.285156 9.742188 36.097656 10.484375 36.855469 C 11.226562 37.609375 12.027344 38.300781 12.882812 38.921875 C 13.742188 39.542969 14.644531 40.089844 15.59375 40.558594 C 15.648438 40.585938 15.707031 40.613281 15.765625 40.632812 C 17.046875 41.261719 18.382812 41.738281 19.769531 42.0625 C 21.160156 42.382812 22.570312 42.546875 23.996094 42.546875 C 25.421875 42.546875 26.832031 42.382812 28.222656 42.0625 C 29.609375 41.738281 30.945312 41.261719 32.226562 40.632812 C 32.285156 40.613281 32.339844 40.585938 32.398438 40.558594 C 33.347656 40.089844 34.25 39.542969 35.105469 38.921875 C 35.964844 38.300781 36.765625 37.609375 37.507812 36.855469 C 38.25 36.097656 38.921875 35.285156 39.527344 34.414062 C 40.132812 33.546875 40.660156 32.632812 41.113281 31.675781 C 41.5625 30.714844 41.933594 29.726562 42.21875 28.707031 C 42.503906 27.6875 42.703125 26.648438 42.8125 25.597656 C 42.925781 24.542969 42.945312 23.488281 42.878906 22.429688 C 42.8125 21.375 42.660156 20.328125 42.417969 19.296875 C 42.175781 18.265625 41.851562 17.261719 41.441406 16.285156 C 41.03125 15.308594 40.542969 14.375 39.972656 13.480469 C 39.40625 12.585938 38.769531 11.746094 38.058594 10.957031 C 37.351562 10.171875 36.582031 9.449219 35.75 8.789062 C 34.921875 8.132812 34.039062 7.546875 33.113281 7.039062 C 32.183594 6.527344 31.21875 6.097656 30.21875 5.75 C 29.21875 5.402344 28.195312 5.140625 27.152344 4.964844 C 26.105469 4.789062 25.054688 4.703125 23.996094 4.703125 Z M 23.996094 12.269531 C 24.367188 12.269531 24.738281 12.308594 25.101562 12.378906 C 25.46875 12.453125 25.824219 12.558594 26.167969 12.703125 C 26.511719 12.84375 26.839844 13.019531 27.148438 13.226562 C 27.460938 13.433594 27.746094 13.667969 28.007812 13.933594 C 28.273438 14.195312 28.507812 14.484375 28.714844 14.792969 C 28.921875 15.101562 29.097656 15.429688 29.238281 15.773438 C 29.382812 16.121094 29.492188 16.472656 29.5625 16.839844 C 29.636719 17.207031 29.671875 17.574219 29.671875 17.945312 C 29.671875 18.320312 29.636719 18.6875 29.5625 19.054688 C 29.492188 19.421875 29.382812 19.773438 29.238281 20.121094 C 29.097656 20.464844 28.921875 20.789062 28.714844 21.101562 C 28.507812 21.410156 28.273438 21.699219 28.007812 21.960938 C 27.746094 22.222656 27.460938 22.460938 27.148438 22.667969 C 26.839844 22.875 26.511719 23.050781 26.167969 23.191406 C 25.824219 23.335938 25.46875 23.441406 25.101562 23.515625 C 24.738281 23.585938 24.367188 23.625 23.996094 23.625 C 23.625 23.625 23.253906 23.585938 22.886719 23.515625 C 22.523438 23.441406 22.167969 23.335938 21.824219 23.191406 C 21.480469 23.050781 21.152344 22.875 20.84375 22.667969 C 20.53125 22.460938 20.246094 22.222656 19.980469 21.960938 C 19.71875 21.699219 19.484375 21.410156 19.277344 21.101562 C 19.070312 20.789062 18.894531 20.464844 18.75 20.121094 C 18.609375 19.773438 18.5 19.421875 18.429688 19.054688 C 18.355469 18.6875 18.320312 18.320312 18.320312 17.945312 C 18.320312 17.574219 18.359375 17.207031 18.429688 16.839844 C 18.503906 16.476562 18.613281 16.121094 18.757812 15.777344 C 18.898438 15.433594 19.074219 15.105469 19.28125 14.796875 C 19.488281 14.488281 19.722656 14.203125 19.988281 13.9375 C 20.25 13.675781 20.535156 13.441406 20.847656 13.230469 C 21.15625 13.023438 21.480469 12.851562 21.824219 12.707031 C 22.171875 12.5625 22.523438 12.457031 22.890625 12.382812 C 23.253906 12.308594 23.625 12.273438 23.996094 12.269531 Z M 29.671875 37.644531 C 29.238281 37.816406 28.78125 37.984375 28.328125 38.117188 C 27.914062 38.25 27.476562 38.363281 27.042969 38.457031 C 27.003906 38.457031 26.964844 38.476562 26.929688 38.476562 C 26.472656 38.570312 26 38.628906 25.546875 38.683594 L 25.492188 38.683594 C 24.492188 38.785156 23.496094 38.785156 22.5 38.683594 L 22.445312 38.683594 C 21.988281 38.628906 21.515625 38.570312 21.0625 38.476562 C 21.023438 38.476562 20.988281 38.457031 20.949219 38.457031 C 20.515625 38.363281 20.078125 38.25 19.664062 38.117188 C 19.207031 37.984375 18.753906 37.816406 18.320312 37.644531 C 16.945312 37.097656 15.683594 36.359375 14.535156 35.429688 L 14.535156 34.976562 C 14.535156 34.355469 14.59375 33.738281 14.71875 33.128906 C 14.839844 32.523438 15.015625 31.929688 15.253906 31.355469 C 15.492188 30.78125 15.785156 30.238281 16.128906 29.71875 C 16.472656 29.203125 16.867188 28.726562 17.304688 28.285156 C 17.746094 27.847656 18.222656 27.457031 18.738281 27.109375 C 19.257812 26.765625 19.800781 26.472656 20.375 26.234375 C 20.949219 26 21.539062 25.820312 22.148438 25.699219 C 22.757812 25.578125 23.375 25.515625 23.996094 25.515625 C 24.617188 25.515625 25.230469 25.578125 25.839844 25.699219 C 26.449219 25.820312 27.042969 26 27.617188 26.234375 C 28.191406 26.472656 28.734375 26.765625 29.25 27.109375 C 29.769531 27.457031 30.246094 27.847656 30.6875 28.285156 C 31.125 28.726562 31.515625 29.203125 31.863281 29.71875 C 32.207031 30.238281 32.5 30.78125 32.738281 31.355469 C 32.972656 31.929688 33.152344 32.523438 33.273438 33.128906 C 33.394531 33.738281 33.457031 34.355469 33.457031 34.976562 L 33.457031 35.429688 C 32.308594 36.359375 31.046875 37.097656 29.671875 37.644531 Z M 29.671875 37.644531 " fill-opacity="1" fill-rule="nonzero"/></g></svg>