<svg xmlns="http://www.w3.org/2000/svg" xmlns:xlink="http://www.w3.org/1999/xlink" width="64" zoomAndPan="magnify" viewBox="0 0 48 48" height="64" preserveAspectRatio="xMidYMid meet" version="1.0"><defs><clipPath id="8ee3e66f98"><path d="M 0.488281 0 L 47.507812 0 L 47.507812 47.019531 L 0.488281 47.019531 Z M 0.488281 0 " clip-rule="nonzero"/></clipPath><clipPath id="64d9ece9b9"><path d="M 7.660156 4 L 38 4 L 38 42.921875 L 7.660156 42.921875 Z M 7.660156 4 " clip-rule="nonzero"/></clipPath><clipPath id="d3881815a0"><path d="M 38 16 L 42.925781 16 L 42.925781 21 L 38 21 Z M 38 16 " clip-rule="nonzero"/></clipPath></defs><g clip-path="url(#8ee3e66f98)"><path fill="#ffffff" d="M 0.488281 0 L 47.511719 0 L 47.511719 47.019531 L 0.488281 47.019531 Z M 0.488281 0 " fill-opacity="1" fill-rule="nonzero"/><path fill="#ffffff" d="M 0.488281 0 L 47.511719 0 L 47.511719 47.019531 L 0.488281 47.019531 Z M 0.488281 0 " fill-opacity="1" fill-rule="nonzero"/></g><g clip-path="url(#64d9ece9b9)"><path fill="#370909" d="M 30.25 12.351562 C 29.375 12.351562 28.667969 11.75 28.667969 11.003906 L 28.667969 6.796875 L 34.460938 12.351562 Z M 36.929688 12.351562 C 36.914062 12.324219 36.890625 12.304688 36.871094 12.285156 L 28.667969 4.414062 L 28.453125 4.210938 C 28.339844 4.101562 28.195312 4.035156 28.046875 4.011719 L 11.027344 4.011719 C 10.703125 4.011719 10.386719 4.054688 10.085938 4.132812 C 8.6875 4.480469 7.660156 5.578125 7.660156 6.882812 L 7.660156 40.136719 C 7.660156 41.722656 9.171875 43.003906 11.027344 43.003906 L 33.726562 43.003906 C 35.285156 43.003906 36.605469 42.097656 36.984375 40.867188 C 37.058594 40.632812 37.09375 40.390625 37.09375 40.136719 L 37.09375 27.734375 L 35.3125 29.964844 L 35.3125 40.136719 C 35.3125 40.457031 35.179688 40.75 34.960938 40.980469 C 34.671875 41.289062 34.226562 41.484375 33.726562 41.484375 L 11.027344 41.484375 C 10.152344 41.484375 9.445312 40.882812 9.445312 40.136719 L 9.445312 6.882812 C 9.445312 6.484375 9.648438 6.125 9.976562 5.875 C 10.253906 5.660156 10.625 5.53125 11.027344 5.53125 L 26.882812 5.53125 L 26.882812 11.003906 C 26.882812 12.585938 28.394531 13.871094 30.25 13.871094 L 35.3125 13.871094 L 35.3125 19.800781 L 36.027344 18.90625 L 37.09375 17.570312 L 37.09375 12.734375 C 37.078125 12.59375 37.023438 12.464844 36.929688 12.351562 " fill-opacity="1" fill-rule="nonzero"/></g><g clip-path="url(#d3881815a0)"><path fill="#370909" d="M 42.28125 19.59375 L 41.730469 20.285156 L 38.375 17.609375 L 38.925781 16.917969 C 39.664062 15.992188 41.015625 15.839844 41.941406 16.578125 C 42.40625 16.949219 42.675781 17.46875 42.738281 18.015625 C 42.796875 18.5625 42.652344 19.132812 42.28125 19.59375 " fill-opacity="1" fill-rule="nonzero"/></g><path fill="#370909" d="M 33.433594 28.960938 C 33.304688 29.125 33.066406 29.152344 32.902344 29.023438 C 32.738281 28.890625 32.710938 28.652344 32.839844 28.488281 L 39.144531 20.589844 C 39.273438 20.429688 39.511719 20.402344 39.675781 20.53125 C 39.839844 20.664062 39.863281 20.902344 39.734375 21.0625 Z M 32.25 28.015625 C 32.117188 28.179688 31.878906 28.207031 31.714844 28.078125 C 31.550781 27.945312 31.527344 27.707031 31.65625 27.542969 L 37.960938 19.644531 C 38.089844 19.484375 38.328125 19.457031 38.492188 19.585938 C 38.65625 19.71875 38.679688 19.957031 38.550781 20.117188 Z M 37.847656 18.265625 L 30.285156 27.742188 L 33.644531 30.421875 L 41.207031 20.945312 L 37.847656 18.265625 " fill-opacity="1" fill-rule="nonzero"/><path fill="#370909" d="M 28.398438 31.949219 L 30.007812 33.230469 L 28.125 33.992188 Z M 28.398438 31.949219 " fill-opacity="1" fill-rule="nonzero"/><path fill="#370909" d="M 33.0625 31.144531 L 32.0625 32.398438 L 30.546875 33.015625 L 28.476562 31.363281 L 28.695312 29.734375 L 29.707031 28.46875 L 33.0625 31.144531 " fill-opacity="1" fill-rule="nonzero"/><path fill="#370909" d="M 24.652344 8.675781 L 12.828125 8.675781 C 12.511719 8.675781 12.257812 9.019531 12.257812 9.4375 C 12.257812 9.859375 12.511719 10.203125 12.828125 10.203125 L 24.652344 10.203125 C 24.964844 10.203125 25.222656 9.859375 25.222656 9.4375 C 25.222656 9.019531 24.964844 8.675781 24.652344 8.675781 " fill-opacity="1" fill-rule="nonzero"/><path fill="#370909" d="M 24.652344 12.542969 L 12.828125 12.542969 C 12.511719 12.542969 12.257812 12.886719 12.257812 13.304688 C 12.257812 13.726562 12.511719 14.070312 12.828125 14.070312 L 24.652344 14.070312 C 24.964844 14.070312 25.222656 13.726562 25.222656 13.304688 C 25.222656 12.886719 24.964844 12.542969 24.652344 12.542969 " fill-opacity="1" fill-rule="nonzero"/><path fill="#370909" d="M 31.457031 17.089844 L 13.136719 17.089844 C 12.652344 17.089844 12.257812 17.433594 12.257812 17.855469 C 12.257812 18.273438 12.652344 18.617188 13.136719 18.617188 L 31.457031 18.617188 C 31.941406 18.617188 32.335938 18.273438 32.335938 17.855469 C 32.335938 17.433594 31.941406 17.089844 31.457031 17.089844 " fill-opacity="1" fill-rule="nonzero"/><path fill="#370909" d="M 31.023438 21.640625 L 13.117188 21.640625 C 12.644531 21.640625 12.257812 21.984375 12.257812 22.402344 C 12.257812 22.824219 12.644531 23.167969 13.117188 23.167969 L 31.023438 23.167969 C 31.496094 23.167969 31.882812 22.824219 31.882812 22.402344 C 31.882812 21.984375 31.496094 21.640625 31.023438 21.640625 " fill-opacity="1" fill-rule="nonzero"/><path fill="#370909" d="M 28.410156 26.1875 L 13 26.1875 C 12.589844 26.1875 12.257812 26.53125 12.257812 26.953125 C 12.257812 27.371094 12.589844 27.714844 13 27.714844 L 28.410156 27.714844 C 28.820312 27.714844 29.152344 27.371094 29.152344 26.953125 C 29.152344 26.53125 28.820312 26.1875 28.410156 26.1875 " fill-opacity="1" fill-rule="nonzero"/><path fill="#370909" d="M 26.457031 30.738281 L 12.910156 30.738281 C 12.550781 30.738281 12.257812 31.082031 12.257812 31.5 C 12.257812 31.921875 12.550781 32.265625 12.910156 32.265625 L 26.457031 32.265625 C 26.8125 32.265625 27.105469 31.921875 27.105469 31.5 C 27.105469 31.082031 26.8125 30.738281 26.457031 30.738281 " fill-opacity="1" fill-rule="nonzero"/><path fill="#370909" d="M 31.023438 35.285156 L 13.117188 35.285156 C 12.644531 35.285156 12.257812 35.628906 12.257812 36.050781 C 12.257812 36.46875 12.644531 36.8125 13.117188 36.8125 L 31.023438 36.8125 C 31.496094 36.8125 31.882812 36.46875 31.882812 36.050781 C 31.882812 35.628906 31.496094 35.285156 31.023438 35.285156 " fill-opacity="1" fill-rule="nonzero"/></svg>