<svg xmlns="http://www.w3.org/2000/svg" xmlns:xlink="http://www.w3.org/1999/xlink" width="839" zoomAndPan="magnify" viewBox="0 0 629.25 198.749996" height="265" preserveAspectRatio="xMidYMid meet" version="1.0"><defs><clipPath id="5d0f132097"><path d="M 0.0195312 0 L 628.480469 0 L 628.480469 198.5 L 0.0195312 198.5 Z M 0.0195312 0 " clip-rule="nonzero"/></clipPath><clipPath id="f518a8de44"><path d="M 314.25 67.359375 L 376.421875 67.359375 L 376.421875 131 L 314.25 131 Z M 314.25 67.359375 " clip-rule="nonzero"/></clipPath></defs><g clip-path="url(#5d0f132097)"><path fill="#ffffff" d="M 0.0195312 0 L 628.480469 0 L 628.480469 198.5 L 0.0195312 198.5 Z M 0.0195312 0 " fill-opacity="1" fill-rule="nonzero"/><path fill="#ffffff" d="M 0.0195312 0 L 628.480469 0 L 628.480469 198.5 L 0.0195312 198.5 Z M 0.0195312 0 " fill-opacity="1" fill-rule="nonzero"/></g><path fill="#000000" d="M 114.691406 89.378906 C 117.378906 89.378906 119.613281 90.757812 120.675781 92.242188 L 120.675781 89.746094 L 124.777344 89.746094 L 124.777344 108.289062 L 121.828125 108.289062 C 121.175781 108.289062 120.65625 107.769531 120.65625 107.125 L 120.65625 105.789062 C 119.613281 107.296875 117.378906 108.675781 114.691406 108.675781 C 109.574219 108.675781 105.691406 104.324219 105.691406 99.027344 C 105.691406 93.730469 109.574219 89.378906 114.691406 89.378906 M 115.429688 93.082031 C 112.109375 93.082031 109.855469 95.6875 109.855469 99.027344 C 109.855469 102.363281 112.089844 104.972656 115.429688 104.972656 C 118.746094 104.972656 121.003906 102.363281 121.003906 99.027344 C 121.003906 95.6875 118.769531 93.082031 115.429688 93.082031 M 129.4375 89.746094 L 133.558594 89.746094 L 133.558594 92.265625 C 134.6875 90.414062 136.8125 89.378906 139.242188 89.378906 C 143.578125 89.378906 146.375 92.414062 146.375 97.132812 L 146.375 108.289062 L 143.425781 108.289062 C 142.777344 108.289062 142.257812 107.769531 142.257812 107.125 L 142.257812 97.800781 C 142.257812 94.871094 140.761719 93.082031 138.375 93.082031 C 135.640625 93.082031 133.558594 95.195312 133.558594 99.15625 L 133.558594 108.289062 L 130.609375 108.289062 C 129.960938 108.289062 129.4375 107.769531 129.4375 107.125 Z M 158.628906 89.378906 C 161.320312 89.378906 163.554688 90.757812 164.617188 92.242188 L 164.617188 80.484375 L 168.714844 80.484375 L 168.714844 108.308594 L 165.765625 108.308594 C 165.113281 108.308594 164.59375 107.792969 164.59375 107.144531 L 164.59375 105.8125 C 163.554688 107.296875 161.296875 108.675781 158.609375 108.675781 C 153.492188 108.675781 149.609375 104.324219 149.609375 99.027344 C 149.628906 93.730469 153.511719 89.378906 158.628906 89.378906 M 159.367188 93.082031 C 156.050781 93.082031 153.792969 95.6875 153.792969 99.027344 C 153.792969 102.363281 156.027344 104.972656 159.367188 104.972656 C 162.6875 104.972656 164.941406 102.363281 164.941406 99.027344 C 164.941406 95.6875 162.6875 93.082031 159.367188 93.082031 M 173.378906 89.746094 L 177.476562 89.746094 L 177.476562 93.039062 C 178.191406 90.929688 180.273438 89.550781 182.398438 89.550781 C 182.921875 89.550781 183.441406 89.59375 184.003906 89.703125 L 184.003906 93.902344 C 183.289062 93.6875 182.703125 93.558594 181.945312 93.558594 C 179.582031 93.558594 177.453125 95.515625 177.453125 99.242188 L 177.453125 108.289062 L 174.503906 108.289062 C 173.855469 108.289062 173.335938 107.769531 173.335938 107.125 L 173.335938 89.746094 Z M 195.109375 108.675781 C 189.578125 108.675781 185.328125 104.410156 185.328125 99.027344 C 185.328125 93.644531 189.578125 89.378906 195.109375 89.378906 C 200.640625 89.378906 204.890625 93.644531 204.890625 99.027344 C 204.890625 104.410156 200.640625 108.675781 195.109375 108.675781 M 195.109375 104.882812 C 198.40625 104.882812 200.703125 102.320312 200.703125 99.027344 C 200.703125 95.730469 198.382812 93.167969 195.109375 93.167969 C 191.789062 93.167969 189.46875 95.730469 189.46875 99.027344 C 189.46875 102.320312 191.789062 104.882812 195.109375 104.882812 M 210.269531 85.695312 C 208.773438 85.695312 207.515625 84.46875 207.515625 82.960938 C 207.515625 81.476562 208.792969 80.25 210.269531 80.25 C 211.808594 80.25 213 81.476562 213 82.960938 C 213 84.492188 211.808594 85.695312 210.269531 85.695312 M 208.230469 89.746094 L 212.328125 89.746094 L 212.328125 108.289062 L 209.402344 108.289062 C 208.75 108.289062 208.230469 107.769531 208.230469 107.125 Z M 224.710938 89.378906 C 227.402344 89.378906 229.636719 90.757812 230.699219 92.242188 L 230.699219 80.484375 L 234.796875 80.484375 L 234.796875 108.308594 L 231.847656 108.308594 C 231.195312 108.308594 230.675781 107.792969 230.675781 107.144531 L 230.675781 105.8125 C 229.636719 107.296875 227.378906 108.675781 224.691406 108.675781 C 219.570312 108.675781 215.691406 104.324219 215.691406 99.027344 C 215.710938 93.730469 219.59375 89.378906 224.710938 89.378906 M 225.472656 93.082031 C 222.152344 93.082031 219.898438 95.6875 219.898438 99.027344 C 219.898438 102.363281 222.132812 104.972656 225.472656 104.972656 C 228.789062 104.972656 231.042969 102.363281 231.042969 99.027344 C 231.042969 95.6875 228.789062 93.082031 225.472656 93.082031 " fill-opacity="1" fill-rule="nonzero"/><path fill="#3ddc84" d="M 280.144531 101.289062 C 278.996094 101.289062 278.0625 100.363281 278.0625 99.222656 C 278.0625 98.078125 278.996094 97.152344 280.144531 97.152344 C 281.292969 97.152344 282.226562 98.078125 282.226562 99.222656 C 282.226562 100.363281 281.292969 101.289062 280.144531 101.289062 M 257.222656 101.289062 C 256.070312 101.289062 255.140625 100.363281 255.140625 99.222656 C 255.140625 98.078125 256.070312 97.152344 257.222656 97.152344 C 258.371094 97.152344 259.304688 98.078125 259.304688 99.222656 C 259.304688 100.363281 258.371094 101.289062 257.222656 101.289062 M 280.882812 88.882812 L 285.046875 81.753906 C 285.285156 81.347656 285.132812 80.828125 284.722656 80.59375 C 284.308594 80.355469 283.789062 80.507812 283.550781 80.914062 L 279.34375 88.128906 C 276.132812 86.664062 272.53125 85.847656 268.695312 85.847656 C 264.855469 85.847656 261.234375 86.664062 258.023438 88.109375 L 253.816406 80.894531 C 253.578125 80.484375 253.058594 80.335938 252.644531 80.570312 C 252.234375 80.808594 252.082031 81.324219 252.320312 81.734375 L 256.460938 88.863281 C 249.347656 92.71875 244.46875 99.867188 243.753906 108.332031 L 293.570312 108.332031 C 292.875 99.886719 288.015625 92.738281 280.882812 88.882812 " fill-opacity="1" fill-rule="nonzero"/><g clip-path="url(#f518a8de44)"><path fill="#000000" d="M 372.296875 93.445312 C 373.699219 89.171875 373.230469 84.429688 370.976562 80.542969 C 367.550781 74.5625 360.625 71.53125 353.855469 72.929688 C 350.898438 69.585938 346.542969 67.722656 342.03125 67.722656 C 335.105469 67.722656 329.035156 72.152344 326.855469 78.679688 C 322.421875 79.613281 318.609375 82.332031 316.351562 86.296875 C 312.925781 92.28125 313.707031 99.738281 318.296875 104.867188 C 316.894531 109.21875 317.441406 113.882812 319.699219 117.769531 C 323.121094 123.753906 330.046875 126.863281 336.816406 125.386719 C 339.851562 128.726562 344.128906 130.667969 348.644531 130.667969 C 355.570312 130.667969 361.636719 126.238281 363.816406 119.710938 C 368.253906 118.78125 372.066406 116.058594 374.320312 112.097656 C 377.746094 106.113281 376.96875 98.574219 372.296875 93.445312 Z M 348.644531 126.550781 C 345.84375 126.550781 343.195312 125.617188 341.09375 123.832031 C 341.171875 123.753906 341.40625 123.675781 341.484375 123.597656 L 354.011719 116.371094 C 354.636719 115.980469 355.023438 115.359375 355.023438 114.582031 L 355.023438 96.941406 L 360.316406 99.972656 C 360.394531 99.972656 360.394531 100.050781 360.394531 100.128906 L 360.394531 114.738281 C 360.472656 121.265625 355.179688 126.550781 348.644531 126.550781 Z M 323.277344 115.75 C 321.875 113.339844 321.410156 110.542969 321.875 107.820312 C 321.953125 107.898438 322.109375 107.976562 322.265625 108.054688 L 334.792969 115.28125 C 335.414062 115.671875 336.195312 115.671875 336.816406 115.28125 L 352.144531 106.421875 L 352.144531 112.5625 C 352.144531 112.640625 352.144531 112.71875 352.066406 112.71875 L 339.382812 120.023438 C 333.78125 123.285156 326.542969 121.34375 323.277344 115.75 Z M 320.007812 88.394531 C 321.410156 85.984375 323.589844 84.195312 326.15625 83.1875 L 326.15625 98.109375 C 326.15625 98.808594 326.542969 99.507812 327.167969 99.894531 L 342.496094 108.753906 L 337.203125 111.785156 C 337.128906 111.785156 337.050781 111.863281 337.050781 111.785156 L 324.367188 104.480469 C 318.609375 101.214844 316.742188 93.988281 320.007812 88.394531 Z M 363.582031 98.496094 L 348.253906 89.636719 L 353.546875 86.605469 C 353.625 86.605469 353.703125 86.527344 353.703125 86.605469 L 366.382812 93.910156 C 372.066406 97.175781 373.933594 104.402344 370.664062 109.996094 C 369.261719 112.40625 367.085938 114.195312 364.515625 115.125 L 364.515625 100.285156 C 364.59375 99.585938 364.207031 98.886719 363.582031 98.496094 Z M 368.796875 90.570312 C 368.71875 90.492188 368.5625 90.414062 368.40625 90.335938 L 355.878906 83.109375 C 355.257812 82.71875 354.480469 82.71875 353.855469 83.109375 L 338.527344 91.96875 L 338.527344 85.828125 C 338.527344 85.75 338.527344 85.671875 338.605469 85.671875 L 351.289062 78.367188 C 356.96875 75.105469 364.128906 77.046875 367.394531 82.71875 C 368.796875 85.050781 369.261719 87.851562 368.796875 90.570312 Z M 335.648438 101.449219 L 330.359375 98.417969 C 330.28125 98.417969 330.28125 98.339844 330.28125 98.261719 L 330.28125 83.652344 C 330.28125 77.125 335.570312 71.839844 342.105469 71.839844 C 344.910156 71.839844 347.554688 72.773438 349.65625 74.5625 C 349.578125 74.636719 349.421875 74.714844 349.265625 74.792969 L 336.738281 82.019531 C 336.117188 82.410156 335.726562 83.03125 335.726562 83.808594 L 335.726562 101.449219 Z M 338.527344 95.230469 L 345.375 91.269531 L 352.222656 95.230469 L 352.222656 103.082031 L 345.375 107.042969 L 338.527344 103.082031 Z M 338.527344 95.230469 " fill-opacity="1" fill-rule="nonzero"/></g></svg>