<svg xmlns="http://www.w3.org/2000/svg" xmlns:xlink="http://www.w3.org/1999/xlink" width="64" zoomAndPan="magnify" viewBox="0 0 48 48" height="64" preserveAspectRatio="xMidYMid meet" version="1.0"><defs><clipPath id="2c5aefd867"><path d="M 0.488281 0 L 47.507812 0 L 47.507812 47.019531 L 0.488281 47.019531 Z M 0.488281 0 " clip-rule="nonzero"/></clipPath><clipPath id="8b1f532787"><path d="M 23 33 L 30 33 L 30 36.539062 L 23 36.539062 Z M 23 33 " clip-rule="nonzero"/></clipPath><clipPath id="10028320ac"><path d="M 38 23 L 42.660156 23 L 42.660156 26 L 38 26 Z M 38 23 " clip-rule="nonzero"/></clipPath><clipPath id="de38d171d9"><path d="M 40 20 L 42.660156 20 L 42.660156 23 L 40 23 Z M 40 20 " clip-rule="nonzero"/></clipPath><clipPath id="6c544e1160"><path d="M 40 16 L 42.660156 16 L 42.660156 20 L 40 20 Z M 40 16 " clip-rule="nonzero"/></clipPath><clipPath id="25b599105c"><path d="M 35 7.148438 L 39 7.148438 L 39 10 L 35 10 Z M 35 7.148438 " clip-rule="nonzero"/></clipPath><clipPath id="5c8f449fbe"><path d="M 18 33 L 24 33 L 24 36.539062 L 18 36.539062 Z M 18 33 " clip-rule="nonzero"/></clipPath><clipPath id="ed96803b80"><path d="M 5.191406 23 L 10 23 L 10 26 L 5.191406 26 Z M 5.191406 23 " clip-rule="nonzero"/></clipPath><clipPath id="1e1e07cc7a"><path d="M 5.191406 20 L 8 20 L 8 23 L 5.191406 23 Z M 5.191406 20 " clip-rule="nonzero"/></clipPath><clipPath id="7011080a9e"><path d="M 5.191406 16 L 8 16 L 8 20 L 5.191406 20 Z M 5.191406 16 " clip-rule="nonzero"/></clipPath><clipPath id="001acf84b0"><path d="M 5.191406 13 L 8 13 L 8 17 L 5.191406 17 Z M 5.191406 13 " clip-rule="nonzero"/></clipPath><clipPath id="8994e164db"><path d="M 9 7.148438 L 12 7.148438 L 12 10 L 9 10 Z M 9 7.148438 " clip-rule="nonzero"/></clipPath></defs><g clip-path="url(#2c5aefd867)"><path fill="#ffffff" d="M 0.488281 0 L 47.511719 0 L 47.511719 47.019531 L 0.488281 47.019531 Z M 0.488281 0 " fill-opacity="1" fill-rule="nonzero"/><path fill="#ffffff" d="M 0.488281 0 L 47.511719 0 L 47.511719 47.019531 L 0.488281 47.019531 Z M 0.488281 0 " fill-opacity="1" fill-rule="nonzero"/></g><g clip-path="url(#8b1f532787)"><path fill="#370909" d="M 23.914062 33.296875 C 24.132812 33.714844 24.367188 34.125 24.621094 34.535156 C 25.277344 35.660156 27.542969 36.445312 29.800781 35.917969 C 29.4375 35.601562 29.085938 35.269531 28.753906 34.929688 C 27.8125 34.011719 26.023438 33.546875 23.914062 33.296875 Z M 23.914062 33.296875 " fill-opacity="1" fill-rule="nonzero"/></g><path fill="#370909" d="M 26.820312 33.371094 C 27.035156 32.964844 27.226562 32.554688 27.398438 32.140625 C 27.902344 31.011719 29.121094 30.09375 30.457031 29.507812 C 30.445312 29.9375 30.414062 30.375 30.363281 30.8125 C 30.261719 31.996094 28.855469 33.242188 26.820312 33.371094 Z M 26.820312 33.371094 " fill-opacity="1" fill-rule="nonzero"/><path fill="#370909" d="M 27.738281 33.28125 C 28.011719 33.617188 28.304688 33.949219 28.609375 34.269531 C 29.414062 35.167969 31.496094 35.421875 33.367188 34.511719 C 32.980469 34.289062 32.605469 34.050781 32.242188 33.800781 C 31.222656 33.136719 29.558594 33.058594 27.738281 33.28125 Z M 27.738281 33.28125 " fill-opacity="1" fill-rule="nonzero"/><path fill="#370909" d="M 30.222656 32.746094 C 30.316406 32.328125 30.394531 31.910156 30.457031 31.496094 C 30.648438 30.355469 31.542969 29.265625 32.652344 28.472656 C 32.726562 28.875 32.78125 29.28125 32.820312 29.695312 C 32.960938 30.8125 31.949219 32.21875 30.222656 32.746094 Z M 30.222656 32.746094 " fill-opacity="1" fill-rule="nonzero"/><path fill="#370909" d="M 31.179688 32.410156 C 31.496094 32.660156 31.820312 32.902344 32.160156 33.136719 C 33.058594 33.792969 34.917969 33.613281 36.410156 32.441406 C 36.019531 32.304688 35.636719 32.15625 35.257812 31.996094 C 34.214844 31.578125 32.703125 31.828125 31.179688 32.410156 Z M 31.179688 32.410156 " fill-opacity="1" fill-rule="nonzero"/><path fill="#370909" d="M 33.238281 31.417969 C 33.234375 31.015625 33.21875 30.617188 33.1875 30.222656 C 33.121094 29.140625 33.710938 27.960938 34.59375 27.019531 C 34.734375 27.378906 34.859375 27.746094 34.972656 28.117188 C 35.308594 29.125 34.660156 30.59375 33.238281 31.417969 Z M 33.238281 31.417969 " fill-opacity="1" fill-rule="nonzero"/><path fill="#370909" d="M 34.1875 30.8125 C 34.523438 30.976562 34.867188 31.132812 35.214844 31.277344 C 36.15625 31.691406 37.773438 31.171875 38.898438 29.835938 C 38.515625 29.785156 38.140625 29.71875 37.765625 29.644531 C 36.738281 29.453125 35.414062 29.972656 34.1875 30.8125 Z M 34.1875 30.8125 " fill-opacity="1" fill-rule="nonzero"/><path fill="#370909" d="M 35.824219 29.496094 C 35.738281 29.132812 35.640625 28.773438 35.535156 28.417969 C 35.257812 27.441406 35.574219 26.242188 36.230469 25.210938 C 36.417969 25.515625 36.601562 25.828125 36.773438 26.152344 C 37.257812 27.015625 36.933594 28.472656 35.824219 29.496094 Z M 35.824219 29.496094 " fill-opacity="1" fill-rule="nonzero"/><path fill="#370909" d="M 36.703125 28.609375 C 37.039062 28.691406 37.382812 28.765625 37.726562 28.828125 C 38.664062 29.015625 40.011719 28.238281 40.789062 26.832031 C 40.429688 26.855469 40.074219 26.863281 39.71875 26.863281 C 38.746094 26.882812 37.632812 27.601562 36.703125 28.609375 Z M 36.703125 28.609375 " fill-opacity="1" fill-rule="nonzero"/><path fill="#370909" d="M 37.917969 27.097656 C 37.769531 26.78125 37.613281 26.472656 37.449219 26.171875 C 37.011719 25.335938 37.082031 24.175781 37.511719 23.101562 C 37.738281 23.347656 37.960938 23.605469 38.175781 23.867188 C 38.769531 24.574219 38.730469 25.957031 37.921875 27.097656 Z M 37.917969 27.097656 " fill-opacity="1" fill-rule="nonzero"/><g clip-path="url(#10028320ac)"><path fill="#370909" d="M 38.667969 25.929688 C 38.988281 25.9375 39.3125 25.9375 39.636719 25.925781 C 40.523438 25.910156 41.59375 24.960938 42.046875 23.554688 C 41.722656 23.636719 41.398438 23.714844 41.078125 23.777344 C 40.191406 23.972656 39.308594 24.835938 38.667969 25.929688 Z M 38.667969 25.929688 " fill-opacity="1" fill-rule="nonzero"/></g><path fill="#370909" d="M 39.480469 24.328125 C 39.285156 24.070312 39.082031 23.820312 38.878906 23.578125 C 38.320312 22.90625 38.179688 21.828125 38.390625 20.757812 C 38.640625 20.945312 38.886719 21.140625 39.128906 21.339844 C 39.796875 21.878906 40.003906 23.140625 39.480469 24.328125 Z M 39.480469 24.328125 " fill-opacity="1" fill-rule="nonzero"/><g clip-path="url(#de38d171d9)"><path fill="#370909" d="M 40.023438 22.902344 C 40.3125 22.84375 40.605469 22.777344 40.898438 22.707031 C 41.699219 22.515625 42.480469 21.464844 42.636719 20.121094 C 42.355469 20.257812 42.078125 20.382812 41.796875 20.503906 C 41.03125 20.84375 40.390625 21.789062 40.023438 22.902344 Z M 40.023438 22.902344 " fill-opacity="1" fill-rule="nonzero"/></g><path fill="#370909" d="M 40.453125 21.300781 C 40.226562 21.105469 40 20.921875 39.769531 20.742188 C 39.140625 20.238281 38.816406 19.277344 38.820312 18.25 C 39.078125 18.378906 39.335938 18.511719 39.589844 18.652344 C 40.292969 19.023438 40.703125 20.132812 40.453125 21.300781 Z M 40.453125 21.300781 " fill-opacity="1" fill-rule="nonzero"/><g clip-path="url(#6c544e1160)"><path fill="#370909" d="M 40.710938 19.652344 C 40.960938 19.542969 41.210938 19.425781 41.457031 19.300781 C 42.136719 18.976562 42.636719 17.890625 42.523438 16.65625 C 42.300781 16.828125 42.074219 16.992188 41.84375 17.15625 C 41.21875 17.601562 40.820312 18.582031 40.707031 19.652344 Z M 40.710938 19.652344 " fill-opacity="1" fill-rule="nonzero"/></g><path fill="#370909" d="M 40.785156 18.128906 C 40.546875 17.996094 40.308594 17.871094 40.066406 17.75 C 39.40625 17.417969 38.933594 16.601562 38.742188 15.652344 C 39 15.722656 39.253906 15.800781 39.511719 15.882812 C 40.210938 16.097656 40.789062 17.023438 40.785156 18.125 Z M 40.785156 18.128906 " fill-opacity="1" fill-rule="nonzero"/><path fill="#370909" d="M 40.675781 16.308594 C 40.875 16.160156 41.070312 16.003906 41.265625 15.84375 C 41.804688 15.417969 42.027344 14.351562 41.683594 13.265625 C 41.515625 13.464844 41.347656 13.65625 41.175781 13.84375 C 40.710938 14.363281 40.554688 15.324219 40.675781 16.308594 Z M 40.675781 16.308594 " fill-opacity="1" fill-rule="nonzero"/><path fill="#370909" d="M 40.429688 14.921875 C 40.191406 14.847656 39.953125 14.78125 39.714844 14.71875 C 39.058594 14.542969 38.46875 13.878906 38.105469 13.039062 C 38.347656 13.058594 38.59375 13.082031 38.839844 13.113281 C 39.511719 13.1875 40.210938 13.925781 40.429688 14.921875 Z M 40.429688 14.921875 " fill-opacity="1" fill-rule="nonzero"/><path fill="#370909" d="M 39.855469 12.996094 C 39.996094 12.820312 40.136719 12.640625 40.273438 12.460938 C 40.652344 11.972656 40.621094 10.980469 40.082031 10.0625 C 39.976562 10.273438 39.871094 10.476562 39.757812 10.675781 C 39.457031 11.230469 39.53125 12.132812 39.855469 12.992188 Z M 39.855469 12.996094 " fill-opacity="1" fill-rule="nonzero"/><path fill="#370909" d="M 39.335938 11.789062 C 39.109375 11.769531 38.882812 11.753906 38.65625 11.742188 C 38.039062 11.703125 37.367188 11.203125 36.851562 10.484375 C 37.074219 10.464844 37.300781 10.445312 37.527344 10.429688 C 38.140625 10.386719 38.921875 10.933594 39.335938 11.789062 Z M 39.335938 11.789062 " fill-opacity="1" fill-rule="nonzero"/><g clip-path="url(#25b599105c)"><path fill="#370909" d="M 38.304688 9.976562 C 38.046875 9.757812 37.785156 9.546875 37.515625 9.34375 C 36.789062 8.785156 36.144531 7.953125 35.847656 7.152344 C 36.167969 7.324219 36.480469 7.507812 36.789062 7.699219 C 37.636719 8.21875 38.257812 9.1875 38.300781 9.976562 Z M 38.304688 9.976562 " fill-opacity="1" fill-rule="nonzero"/></g><g clip-path="url(#5c8f449fbe)"><path fill="#370909" d="M 23.914062 33.296875 C 23.699219 33.714844 23.464844 34.125 23.210938 34.535156 C 22.554688 35.660156 20.289062 36.445312 18.03125 35.917969 C 18.394531 35.601562 18.746094 35.269531 19.078125 34.929688 C 20.019531 34.011719 21.808594 33.546875 23.917969 33.296875 Z M 23.914062 33.296875 " fill-opacity="1" fill-rule="nonzero"/></g><path fill="#370909" d="M 21.011719 33.371094 C 20.796875 32.964844 20.605469 32.554688 20.433594 32.140625 C 19.929688 31.011719 18.710938 30.09375 17.375 29.507812 C 17.390625 29.941406 17.421875 30.375 17.46875 30.8125 C 17.574219 32 18.976562 33.242188 21.011719 33.371094 Z M 21.011719 33.371094 " fill-opacity="1" fill-rule="nonzero"/><path fill="#370909" d="M 20.09375 33.28125 C 19.820312 33.617188 19.527344 33.949219 19.222656 34.269531 C 18.417969 35.167969 16.335938 35.421875 14.464844 34.511719 C 14.851562 34.289062 15.226562 34.050781 15.589844 33.800781 C 16.605469 33.136719 18.273438 33.058594 20.09375 33.28125 Z M 20.09375 33.28125 " fill-opacity="1" fill-rule="nonzero"/><path fill="#370909" d="M 17.609375 32.746094 C 17.515625 32.328125 17.4375 31.910156 17.375 31.496094 C 17.179688 30.355469 16.289062 29.265625 15.175781 28.472656 C 15.105469 28.875 15.050781 29.28125 15.011719 29.695312 C 14.871094 30.8125 15.882812 32.21875 17.609375 32.746094 Z M 17.609375 32.746094 " fill-opacity="1" fill-rule="nonzero"/><path fill="#370909" d="M 16.652344 32.410156 C 16.335938 32.660156 16.007812 32.902344 15.671875 33.136719 C 14.773438 33.792969 12.914062 33.613281 11.421875 32.441406 C 11.8125 32.304688 12.195312 32.15625 12.574219 31.996094 C 13.617188 31.578125 15.128906 31.828125 16.652344 32.410156 Z M 16.652344 32.410156 " fill-opacity="1" fill-rule="nonzero"/><path fill="#370909" d="M 14.59375 31.417969 C 14.597656 31.015625 14.613281 30.617188 14.644531 30.222656 C 14.710938 29.140625 14.121094 27.960938 13.238281 27.019531 C 13.097656 27.378906 12.972656 27.746094 12.855469 28.117188 C 12.523438 29.125 13.171875 30.59375 14.589844 31.417969 Z M 14.59375 31.417969 " fill-opacity="1" fill-rule="nonzero"/><path fill="#370909" d="M 13.644531 30.8125 C 13.308594 30.976562 12.964844 31.132812 12.617188 31.277344 C 11.675781 31.691406 10.058594 31.171875 8.933594 29.835938 C 9.316406 29.785156 9.691406 29.71875 10.066406 29.644531 C 11.09375 29.453125 12.417969 29.972656 13.644531 30.8125 Z M 13.644531 30.8125 " fill-opacity="1" fill-rule="nonzero"/><path fill="#370909" d="M 12.011719 29.496094 C 12.09375 29.132812 12.191406 28.773438 12.300781 28.417969 C 12.574219 27.441406 12.261719 26.242188 11.605469 25.210938 C 11.414062 25.515625 11.230469 25.828125 11.058594 26.152344 C 10.574219 27.015625 10.898438 28.472656 12.011719 29.496094 Z M 12.011719 29.496094 " fill-opacity="1" fill-rule="nonzero"/><path fill="#370909" d="M 11.128906 28.609375 C 10.792969 28.691406 10.449219 28.765625 10.105469 28.828125 C 9.167969 29.015625 7.820312 28.238281 7.042969 26.832031 C 7.402344 26.855469 7.757812 26.863281 8.113281 26.863281 C 9.085938 26.882812 10.199219 27.601562 11.128906 28.609375 Z M 11.128906 28.609375 " fill-opacity="1" fill-rule="nonzero"/><path fill="#370909" d="M 9.914062 27.097656 C 10.0625 26.78125 10.21875 26.472656 10.382812 26.171875 C 10.824219 25.335938 10.75 24.175781 10.320312 23.101562 C 10.09375 23.347656 9.875 23.605469 9.660156 23.867188 C 9.0625 24.574219 9.101562 25.957031 9.914062 27.097656 Z M 9.914062 27.097656 " fill-opacity="1" fill-rule="nonzero"/><g clip-path="url(#ed96803b80)"><path fill="#370909" d="M 9.164062 25.929688 C 8.84375 25.9375 8.519531 25.9375 8.195312 25.925781 C 7.308594 25.910156 6.238281 24.960938 5.785156 23.554688 C 6.109375 23.636719 6.433594 23.714844 6.753906 23.777344 C 7.640625 23.972656 8.523438 24.835938 9.164062 25.929688 Z M 9.164062 25.929688 " fill-opacity="1" fill-rule="nonzero"/></g><path fill="#370909" d="M 8.351562 24.328125 C 8.546875 24.070312 8.746094 23.820312 8.953125 23.578125 C 9.511719 22.90625 9.652344 21.828125 9.441406 20.757812 C 9.191406 20.945312 8.945312 21.140625 8.703125 21.339844 C 8.035156 21.878906 7.828125 23.140625 8.351562 24.328125 Z M 8.351562 24.328125 " fill-opacity="1" fill-rule="nonzero"/><g clip-path="url(#1e1e07cc7a)"><path fill="#370909" d="M 7.808594 22.902344 C 7.519531 22.84375 7.226562 22.777344 6.933594 22.707031 C 6.132812 22.515625 5.351562 21.464844 5.195312 20.121094 C 5.472656 20.257812 5.753906 20.382812 6.035156 20.503906 C 6.800781 20.84375 7.441406 21.789062 7.808594 22.902344 Z M 7.808594 22.902344 " fill-opacity="1" fill-rule="nonzero"/></g><path fill="#370909" d="M 7.378906 21.300781 C 7.605469 21.105469 7.832031 20.921875 8.0625 20.742188 C 8.691406 20.238281 9.015625 19.277344 9.011719 18.25 C 8.753906 18.378906 8.496094 18.511719 8.242188 18.652344 C 7.539062 19.023438 7.125 20.132812 7.378906 21.300781 Z M 7.378906 21.300781 " fill-opacity="1" fill-rule="nonzero"/><g clip-path="url(#7011080a9e)"><path fill="#370909" d="M 7.125 19.652344 C 6.871094 19.542969 6.621094 19.425781 6.375 19.300781 C 5.695312 18.976562 5.195312 17.890625 5.308594 16.65625 C 5.53125 16.828125 5.757812 16.992188 5.988281 17.15625 C 6.613281 17.601562 7.007812 18.582031 7.125 19.652344 Z M 7.125 19.652344 " fill-opacity="1" fill-rule="nonzero"/></g><path fill="#370909" d="M 7.046875 18.128906 C 7.285156 17.996094 7.523438 17.871094 7.765625 17.75 C 8.425781 17.417969 8.898438 16.601562 9.089844 15.652344 C 8.832031 15.722656 8.578125 15.800781 8.320312 15.882812 C 7.621094 16.097656 7.042969 17.023438 7.046875 18.125 Z M 7.046875 18.128906 " fill-opacity="1" fill-rule="nonzero"/><g clip-path="url(#001acf84b0)"><path fill="#370909" d="M 7.160156 16.308594 C 6.957031 16.160156 6.761719 16.003906 6.566406 15.84375 C 6.03125 15.417969 5.804688 14.351562 6.148438 13.265625 C 6.316406 13.464844 6.484375 13.65625 6.65625 13.84375 C 7.125 14.363281 7.277344 15.324219 7.160156 16.308594 Z M 7.160156 16.308594 " fill-opacity="1" fill-rule="nonzero"/></g><path fill="#370909" d="M 7.402344 14.921875 C 7.640625 14.847656 7.878906 14.78125 8.117188 14.71875 C 8.773438 14.542969 9.363281 13.878906 9.726562 13.039062 C 9.480469 13.058594 9.238281 13.082031 8.992188 13.113281 C 8.320312 13.1875 7.621094 13.925781 7.402344 14.921875 Z M 7.402344 14.921875 " fill-opacity="1" fill-rule="nonzero"/><path fill="#370909" d="M 7.976562 12.996094 C 7.835938 12.820312 7.695312 12.640625 7.558594 12.460938 C 7.179688 11.972656 7.210938 10.980469 7.75 10.0625 C 7.855469 10.273438 7.960938 10.476562 8.074219 10.675781 C 8.375 11.230469 8.296875 12.132812 7.976562 12.992188 Z M 7.976562 12.996094 " fill-opacity="1" fill-rule="nonzero"/><path fill="#370909" d="M 8.496094 11.789062 C 8.722656 11.769531 8.949219 11.753906 9.171875 11.742188 C 9.792969 11.703125 10.460938 11.203125 10.976562 10.484375 C 10.753906 10.464844 10.53125 10.445312 10.304688 10.429688 C 9.691406 10.386719 8.90625 10.933594 8.496094 11.789062 Z M 8.496094 11.789062 " fill-opacity="1" fill-rule="nonzero"/><g clip-path="url(#8994e164db)"><path fill="#370909" d="M 9.527344 9.976562 C 9.785156 9.757812 10.046875 9.546875 10.316406 9.34375 C 11.042969 8.785156 11.6875 7.953125 11.984375 7.152344 C 11.664062 7.324219 11.351562 7.507812 11.042969 7.699219 C 10.195312 8.21875 9.574219 9.1875 9.53125 9.976562 Z M 9.527344 9.976562 " fill-opacity="1" fill-rule="nonzero"/></g></svg>