<svg xmlns="http://www.w3.org/2000/svg" xmlns:xlink="http://www.w3.org/1999/xlink" width="64" zoomAndPan="magnify" viewBox="0 0 48 48" height="64" preserveAspectRatio="xMidYMid meet" version="1.0"><defs><clipPath id="1091c1f823"><path d="M 0.488281 0 L 47.507812 0 L 47.507812 47.019531 L 0.488281 47.019531 Z M 0.488281 0 " clip-rule="nonzero"/></clipPath><clipPath id="932c95c54e"><path d="M 7 7.265625 L 41.191406 7.265625 L 41.191406 32 L 7 32 Z M 7 7.265625 " clip-rule="nonzero"/></clipPath><clipPath id="ccc8d4492c"><path d="M 5.191406 22 L 21 22 L 21 36.652344 L 5.191406 36.652344 Z M 5.191406 22 " clip-rule="nonzero"/></clipPath></defs><g clip-path="url(#1091c1f823)"><path fill="#ffffff" d="M 0.488281 0 L 47.511719 0 L 47.511719 47.019531 L 0.488281 47.019531 Z M 0.488281 0 " fill-opacity="1" fill-rule="nonzero"/><path fill="#ffffff" d="M 0.488281 0 L 47.511719 0 L 47.511719 47.019531 L 0.488281 47.019531 Z M 0.488281 0 " fill-opacity="1" fill-rule="nonzero"/></g><g clip-path="url(#932c95c54e)"><path fill="#370909" d="M 37.25 22.511719 C 36.726562 22.511719 36.300781 22.085938 36.300781 21.5625 C 36.300781 21.039062 36.726562 20.613281 37.25 20.613281 C 37.773438 20.613281 38.199219 21.039062 38.199219 21.5625 C 38.199219 22.085938 37.773438 22.511719 37.25 22.511719 Z M 40.003906 28.066406 C 39.570312 27.402344 39.179688 26.714844 38.882812 25.976562 C 38.539062 25.125 38.273438 24.25 38.132812 23.335938 C 38.132812 23.3125 38.128906 23.292969 38.125 23.273438 C 38.746094 22.953125 39.171875 22.308594 39.171875 21.5625 C 39.171875 20.746094 38.660156 20.046875 37.941406 19.769531 C 37.933594 18.992188 37.886719 18.214844 37.675781 17.460938 C 37.441406 16.621094 37.015625 15.898438 36.417969 15.277344 C 36.371094 15.226562 36.328125 15.175781 36.257812 15.09375 C 36.644531 14.960938 38.945312 14.175781 39.726562 13.910156 C 39.925781 13.84375 40.121094 13.761719 40.289062 13.640625 C 40.609375 13.398438 40.605469 13.125 40.285156 12.886719 C 40.007812 12.671875 39.671875 12.601562 39.355469 12.492188 C 37.765625 11.949219 24.554688 7.457031 24.285156 7.351562 C 24.039062 7.257812 23.804688 7.265625 23.558594 7.351562 C 21.257812 8.152344 9.210938 12.308594 8.183594 12.664062 C 7.996094 12.730469 7.804688 12.804688 7.640625 12.921875 C 7.292969 13.171875 7.292969 13.449219 7.632812 13.703125 C 7.800781 13.828125 7.996094 13.90625 8.191406 13.972656 C 9.355469 14.375 13.207031 15.703125 16.761719 16.929688 C 19.886719 18.007812 22.78125 19.007812 23.433594 19.238281 C 23.683594 19.324219 23.910156 19.320312 24.15625 19.230469 C 24.65625 19.054688 28.109375 17.875 30.882812 16.929688 C 32.660156 16.320312 34.15625 15.808594 34.410156 15.71875 C 34.558594 15.667969 34.648438 15.695312 34.761719 15.789062 C 35.710938 16.558594 36.152344 17.601562 36.363281 18.765625 C 36.421875 19.109375 36.457031 19.457031 36.476562 19.800781 C 35.800781 20.097656 35.328125 20.777344 35.328125 21.5625 C 35.328125 22.316406 35.761719 22.96875 36.390625 23.28125 C 36.304688 24.464844 36.207031 25.648438 36.285156 26.835938 C 36.34375 27.734375 36.492188 28.613281 36.933594 29.417969 C 37.335938 30.144531 37.921875 30.660156 38.660156 31.011719 C 38.753906 31.058594 38.847656 31.082031 38.945312 31.027344 C 39.378906 30.78125 41 29.855469 41.238281 29.707031 C 40.78125 29.191406 40.375 28.640625 40.003906 28.066406 " fill-opacity="1" fill-rule="nonzero"/></g><path fill="#370909" d="M 33.445312 17.519531 C 31.480469 18.195312 24.984375 20.414062 24.621094 20.542969 C 24.34375 20.640625 24.066406 20.691406 23.785156 20.691406 C 23.511719 20.691406 23.242188 20.640625 22.972656 20.550781 C 22.125 20.25 17.445312 18.632812 13.4375 17.253906 C 13.210938 17.171875 12.972656 17.34375 12.972656 17.585938 L 12.972656 20.8125 C 14.125 20.820312 15.128906 21.5625 15.484375 22.65625 L 16.351562 25.324219 L 19.15625 25.324219 C 20.320312 25.324219 21.34375 26.070312 21.699219 27.171875 C 21.785156 27.433594 21.828125 27.695312 21.832031 27.957031 L 30.4375 27.957031 C 32.355469 27.957031 33.914062 26.398438 33.914062 24.476562 L 33.914062 17.851562 C 33.914062 17.613281 33.675781 17.445312 33.445312 17.519531 " fill-opacity="1" fill-rule="nonzero"/><g clip-path="url(#ccc8d4492c)"><path fill="#370909" d="M 19.15625 26.945312 L 15.941406 26.945312 C 15.484375 26.945312 15.078125 26.648438 14.9375 26.214844 L 13.941406 23.15625 C 13.625 22.183594 12.25 22.183594 11.933594 23.15625 L 10.941406 26.214844 C 10.800781 26.648438 10.394531 26.945312 9.9375 26.945312 L 6.722656 26.945312 C 5.699219 26.945312 5.273438 28.253906 6.101562 28.855469 L 8.703125 30.746094 C 9.074219 31.011719 9.226562 31.488281 9.085938 31.925781 L 8.09375 34.984375 C 7.777344 35.957031 8.890625 36.765625 9.714844 36.164062 L 12.320312 34.273438 C 12.6875 34.003906 13.191406 34.003906 13.558594 34.273438 L 16.160156 36.164062 C 16.988281 36.765625 18.101562 35.957031 17.785156 34.984375 L 16.792969 31.925781 C 16.652344 31.488281 16.804688 31.011719 17.175781 30.746094 L 19.777344 28.855469 C 20.605469 28.253906 20.179688 26.945312 19.15625 26.945312 " fill-opacity="1" fill-rule="nonzero"/></g></svg>