<svg xmlns="http://www.w3.org/2000/svg" xmlns:xlink="http://www.w3.org/1999/xlink" width="64" zoomAndPan="magnify" viewBox="0 0 48 48" height="64" preserveAspectRatio="xMidYMid meet" version="1.0"><defs><clipPath id="ad7c357534"><path d="M 0.488281 0 L 47.507812 0 L 47.507812 47.019531 L 0.488281 47.019531 Z M 0.488281 0 " clip-rule="nonzero"/></clipPath><clipPath id="cffd449424"><path d="M 23 40 L 29 40 L 29 42.960938 L 23 42.960938 Z M 23 40 " clip-rule="nonzero"/></clipPath><clipPath id="7435171167"><path d="M 24 5 L 44.613281 5 L 44.613281 26 L 24 26 Z M 24 5 " clip-rule="nonzero"/></clipPath><clipPath id="e83884f2ef"><path d="M 6.40625 14 L 13 14 L 13 17 L 6.40625 17 Z M 6.40625 14 " clip-rule="nonzero"/></clipPath><clipPath id="a8d823fc7a"><path d="M 13 4.023438 L 16 4.023438 L 16 10 L 13 10 Z M 13 4.023438 " clip-rule="nonzero"/></clipPath></defs><g clip-path="url(#ad7c357534)"><path fill="#ffffff" d="M 0.488281 0 L 47.511719 0 L 47.511719 47.019531 L 0.488281 47.019531 Z M 0.488281 0 " fill-opacity="1" fill-rule="nonzero"/><path fill="#ffffff" d="M 0.488281 0 L 47.511719 0 L 47.511719 47.019531 L 0.488281 47.019531 Z M 0.488281 0 " fill-opacity="1" fill-rule="nonzero"/></g><path fill="#370909" d="M 37.253906 23.832031 L 37.222656 23.792969 C 36.972656 23.460938 36.621094 23.519531 36.519531 23.546875 C 36.417969 23.570312 36.082031 23.6875 36.023438 24.097656 L 35.652344 26.703125 C 35.644531 26.738281 35.625 26.769531 35.617188 26.800781 C 36.292969 25.902344 36.847656 24.902344 37.253906 23.832031 Z M 37.253906 23.832031 " fill-opacity="1" fill-rule="nonzero"/><path fill="#370909" d="M 34.988281 27.277344 C 34.957031 27.277344 34.925781 27.277344 34.890625 27.269531 L 30.914062 26.703125 C 30.550781 26.648438 30.292969 26.3125 30.347656 25.945312 L 30.71875 23.339844 C 30.777344 22.929688 30.488281 22.722656 30.398438 22.667969 C 30.308594 22.613281 29.988281 22.460938 29.65625 22.710938 L 27.550781 24.289062 C 27.253906 24.507812 26.835938 24.449219 26.613281 24.152344 L 24.203125 20.9375 C 23.980469 20.644531 24.039062 20.222656 24.335938 20.003906 L 26.441406 18.425781 C 26.773438 18.175781 26.714844 17.824219 26.6875 17.722656 C 26.660156 17.621094 26.542969 17.285156 26.132812 17.226562 L 23.527344 16.851562 C 23.351562 16.828125 23.195312 16.734375 23.089844 16.589844 C 22.980469 16.449219 22.933594 16.269531 22.960938 16.09375 L 23.53125 12.117188 C 23.582031 11.75 23.921875 11.5 24.289062 11.550781 L 26.890625 11.921875 C 27.300781 11.976562 27.507812 11.691406 27.5625 11.601562 C 27.617188 11.511719 27.773438 11.191406 27.523438 10.855469 L 25.945312 8.753906 C 25.835938 8.609375 25.792969 8.433594 25.816406 8.257812 C 25.84375 8.082031 25.9375 7.921875 26.078125 7.816406 L 26.457031 7.53125 C 25.851562 7.507812 25.238281 7.511719 24.613281 7.582031 C 19.015625 8.199219 14.519531 12.777344 13.988281 18.386719 C 13.542969 23.128906 15.84375 27.371094 19.484375 29.707031 C 20.589844 30.417969 21.296875 31.609375 21.296875 32.925781 L 21.296875 35.628906 C 21.296875 36.738281 22.199219 37.640625 23.308594 37.640625 L 28.664062 37.640625 C 29.773438 37.640625 30.671875 36.738281 30.671875 35.628906 L 30.671875 32.980469 C 30.671875 31.632812 31.398438 30.417969 32.527344 29.683594 C 33.585938 29 34.527344 28.152344 35.324219 27.179688 C 35.21875 27.238281 35.105469 27.277344 34.988281 27.277344 Z M 26.65625 35.628906 L 25.316406 35.628906 L 25.316406 33.621094 L 26.65625 33.621094 Z M 25.316406 32.28125 C 25.316406 30.511719 24.238281 28.945312 22.566406 28.289062 C 18.949219 26.875 16.609375 23.445312 16.609375 19.558594 C 16.609375 16.320312 18.246094 13.355469 20.988281 11.625 L 21.703125 12.757812 C 19.351562 14.242188 17.949219 16.785156 17.949219 19.558594 C 17.949219 22.890625 19.953125 25.828125 23.054688 27.042969 C 25.242188 27.898438 26.65625 29.957031 26.65625 32.28125 Z M 25.316406 32.28125 " fill-opacity="1" fill-rule="nonzero"/><g clip-path="url(#cffd449424)"><path fill="#370909" d="M 24.644531 42.996094 L 27.324219 42.996094 C 28.0625 42.996094 28.664062 42.394531 28.664062 41.65625 L 28.664062 40.988281 L 23.308594 40.988281 L 23.308594 41.65625 C 23.308594 42.394531 23.90625 42.996094 24.644531 42.996094 Z M 24.644531 42.996094 " fill-opacity="1" fill-rule="nonzero"/></g><path fill="#370909" d="M 10.40625 27.59375 C 10.40625 25.546875 11.945312 23.855469 13.925781 23.609375 C 13.679688 22.875 13.503906 22.117188 13.394531 21.339844 L 13.277344 21.898438 C 13.183594 22.335938 12.882812 22.699219 12.464844 22.867188 C 12.046875 23.03125 11.578125 22.980469 11.207031 22.726562 L 9.816406 21.765625 L 8.597656 22.984375 L 9.554688 24.375 C 9.808594 24.746094 9.863281 25.214844 9.695312 25.632812 C 9.53125 26.050781 9.167969 26.355469 8.726562 26.445312 L 7.058594 26.796875 L 7.058594 28.390625 L 8.730469 28.742188 C 9.167969 28.832031 9.53125 29.136719 9.695312 29.554688 C 9.863281 29.972656 9.808594 30.441406 9.554688 30.8125 L 8.597656 32.203125 L 9.816406 33.421875 L 11.207031 32.464844 C 11.578125 32.207031 12.046875 32.15625 12.464844 32.320312 C 12.882812 32.488281 13.183594 32.851562 13.277344 33.289062 L 13.628906 34.960938 L 15.222656 34.960938 L 15.570312 33.289062 C 15.664062 32.851562 15.96875 32.488281 16.386719 32.324219 C 16.804688 32.15625 17.273438 32.207031 17.640625 32.464844 L 19.035156 33.421875 L 20.46875 31.988281 C 20.242188 31.304688 19.777344 30.695312 19.121094 30.273438 C 18.71875 30.015625 18.339844 29.734375 17.976562 29.4375 C 17.296875 30.734375 15.941406 31.613281 14.425781 31.613281 C 12.210938 31.613281 10.40625 29.808594 10.40625 27.59375 Z M 10.40625 27.59375 " fill-opacity="1" fill-rule="nonzero"/><path fill="#370909" d="M 23.308594 38.308594 L 28.664062 38.308594 L 28.664062 39.648438 L 23.308594 39.648438 Z M 23.308594 38.308594 " fill-opacity="1" fill-rule="nonzero"/><g clip-path="url(#7435171167)"><path fill="#370909" d="M 42.707031 15.535156 C 41.886719 15.417969 41.25 14.847656 41.042969 14.042969 C 40.839844 13.242188 41.121094 12.4375 41.785156 11.9375 L 43.355469 10.761719 L 41.746094 8.617188 L 40.179688 9.796875 C 39.515625 10.292969 38.660156 10.339844 37.949219 9.917969 C 37.238281 9.496094 36.867188 8.722656 36.984375 7.902344 L 37.261719 5.960938 L 34.609375 5.585938 L 34.332031 7.527344 C 34.214844 8.34375 33.644531 8.980469 32.84375 9.1875 C 32.039062 9.394531 31.234375 9.109375 30.734375 8.445312 L 29.558594 6.878906 L 27.417969 8.484375 L 28.59375 10.054688 C 29.089844 10.714844 29.136719 11.570312 28.714844 12.28125 C 28.292969 12.996094 27.523438 13.363281 26.703125 13.246094 L 24.761719 12.96875 L 24.382812 15.621094 L 26.324219 15.898438 C 27.144531 16.015625 27.78125 16.585938 27.984375 17.390625 C 28.191406 18.191406 27.90625 19 27.246094 19.496094 L 25.675781 20.671875 L 27.28125 22.816406 L 28.851562 21.636719 C 29.515625 21.140625 30.367188 21.09375 31.082031 21.515625 C 31.792969 21.9375 32.164062 22.710938 32.046875 23.53125 L 31.769531 25.472656 L 34.417969 25.847656 L 34.695312 23.90625 C 34.8125 23.089844 35.386719 22.453125 36.1875 22.246094 C 36.988281 22.039062 37.796875 22.324219 38.292969 22.988281 L 39.472656 24.554688 L 41.613281 22.949219 L 40.4375 21.378906 C 39.941406 20.71875 39.894531 19.863281 40.316406 19.152344 C 40.738281 18.4375 41.5 18.066406 42.328125 18.1875 L 44.269531 18.464844 L 44.648438 15.8125 Z M 34.515625 19.734375 C 32.296875 19.734375 30.496094 17.933594 30.496094 15.71875 C 30.496094 13.5 32.296875 11.699219 34.515625 11.699219 C 36.730469 11.699219 38.53125 13.5 38.53125 15.71875 C 38.53125 17.933594 36.730469 19.734375 34.515625 19.734375 Z M 34.515625 19.734375 " fill-opacity="1" fill-rule="nonzero"/></g><path fill="#370909" d="M 38.707031 28.933594 L 43.394531 28.933594 L 43.394531 30.273438 L 38.707031 30.273438 Z M 38.707031 28.933594 " fill-opacity="1" fill-rule="nonzero"/><path fill="#370909" d="M 37.609375 33.464844 L 38.46875 32.4375 L 42.484375 35.785156 L 41.628906 36.8125 Z M 37.609375 33.464844 " fill-opacity="1" fill-rule="nonzero"/><path fill="#370909" d="M 34.691406 34.289062 L 36.03125 34.289062 L 36.03125 38.976562 L 34.691406 38.976562 Z M 34.691406 34.289062 " fill-opacity="1" fill-rule="nonzero"/><g clip-path="url(#e83884f2ef)"><path fill="#370909" d="M 6.402344 15.5625 L 11.761719 14.222656 L 12.085938 15.519531 L 6.726562 16.859375 Z M 6.402344 15.5625 " fill-opacity="1" fill-rule="nonzero"/></g><path fill="#370909" d="M 7.515625 8.71875 L 8.292969 7.628906 L 12.980469 10.976562 L 12.203125 12.066406 Z M 7.515625 8.71875 " fill-opacity="1" fill-rule="nonzero"/><g clip-path="url(#a8d823fc7a)"><path fill="#370909" d="M 13.253906 4.320312 L 14.550781 3.988281 L 15.921875 9.347656 L 14.621094 9.679688 Z M 13.253906 4.320312 " fill-opacity="1" fill-rule="nonzero"/></g></svg>