<svg xmlns="http://www.w3.org/2000/svg" xmlns:xlink="http://www.w3.org/1999/xlink" width="64" zoomAndPan="magnify" viewBox="0 0 48 48" height="64" preserveAspectRatio="xMidYMid meet" version="1.0"><defs><clipPath id="24612c4fe0"><path d="M 0.488281 0 L 47.507812 0 L 47.507812 47.019531 L 0.488281 47.019531 Z M 0.488281 0 " clip-rule="nonzero"/></clipPath><clipPath id="78069c7a87"><path d="M 5.191406 4.039062 L 43.394531 4.039062 L 43.394531 42.246094 L 5.191406 42.246094 Z M 5.191406 4.039062 " clip-rule="nonzero"/></clipPath></defs><g clip-path="url(#24612c4fe0)"><path fill="#ffffff" d="M 0.488281 0 L 47.511719 0 L 47.511719 47.019531 L 0.488281 47.019531 Z M 0.488281 0 " fill-opacity="1" fill-rule="nonzero"/><path fill="#ffffff" d="M 0.488281 0 L 47.511719 0 L 47.511719 47.019531 L 0.488281 47.019531 Z M 0.488281 0 " fill-opacity="1" fill-rule="nonzero"/></g><g clip-path="url(#78069c7a87)"><path fill="#370909" d="M 25.023438 24.027344 L 18.816406 24.027344 C 18.695312 24.027344 18.59375 24.070312 18.511719 24.152344 C 18.425781 24.238281 18.386719 24.339844 18.386719 24.457031 C 18.386719 24.574219 18.425781 24.675781 18.511719 24.761719 C 18.59375 24.84375 18.695312 24.886719 18.816406 24.886719 L 25.023438 24.886719 C 25.140625 24.886719 25.238281 24.84375 25.320312 24.757812 C 25.40625 24.675781 25.445312 24.574219 25.445312 24.457031 C 25.445312 24.339844 25.40625 24.238281 25.320312 24.15625 C 25.238281 24.070312 25.140625 24.027344 25.023438 24.027344 Z M 26.796875 20.515625 L 17.039062 20.515625 C 16.921875 20.519531 16.820312 20.5625 16.738281 20.644531 C 16.65625 20.726562 16.613281 20.828125 16.613281 20.945312 C 16.613281 21.0625 16.65625 21.164062 16.738281 21.25 C 16.820312 21.332031 16.921875 21.375 17.039062 21.378906 L 26.796875 21.378906 C 26.914062 21.375 27.015625 21.332031 27.097656 21.25 C 27.179688 21.164062 27.222656 21.0625 27.222656 20.945312 C 27.222656 20.828125 27.179688 20.726562 27.097656 20.644531 C 27.015625 20.5625 26.914062 20.519531 26.796875 20.515625 Z M 26.796875 20.515625 L 17.039062 20.515625 C 16.921875 20.519531 16.820312 20.5625 16.738281 20.644531 C 16.65625 20.726562 16.613281 20.828125 16.613281 20.945312 C 16.613281 21.0625 16.65625 21.164062 16.738281 21.25 C 16.820312 21.332031 16.921875 21.375 17.039062 21.378906 L 26.796875 21.378906 C 26.914062 21.375 27.015625 21.332031 27.097656 21.25 C 27.179688 21.164062 27.222656 21.0625 27.222656 20.945312 C 27.222656 20.828125 27.179688 20.726562 27.097656 20.644531 C 27.015625 20.5625 26.914062 20.519531 26.796875 20.515625 Z M 25.023438 24.027344 L 18.816406 24.027344 C 18.695312 24.027344 18.59375 24.070312 18.511719 24.152344 C 18.425781 24.238281 18.386719 24.339844 18.386719 24.457031 C 18.386719 24.574219 18.425781 24.675781 18.511719 24.761719 C 18.59375 24.84375 18.695312 24.886719 18.816406 24.886719 L 25.023438 24.886719 C 25.140625 24.886719 25.238281 24.84375 25.320312 24.757812 C 25.40625 24.675781 25.445312 24.574219 25.445312 24.457031 C 25.445312 24.339844 25.40625 24.238281 25.320312 24.15625 C 25.238281 24.070312 25.140625 24.027344 25.023438 24.027344 Z M 25.023438 24.027344 L 18.816406 24.027344 C 18.695312 24.027344 18.59375 24.070312 18.511719 24.152344 C 18.425781 24.238281 18.386719 24.339844 18.386719 24.457031 C 18.386719 24.574219 18.425781 24.675781 18.511719 24.761719 C 18.59375 24.84375 18.695312 24.886719 18.816406 24.886719 L 25.023438 24.886719 C 25.140625 24.886719 25.238281 24.84375 25.320312 24.757812 C 25.40625 24.675781 25.445312 24.574219 25.445312 24.457031 C 25.445312 24.339844 25.40625 24.238281 25.320312 24.15625 C 25.238281 24.070312 25.140625 24.027344 25.023438 24.027344 Z M 26.796875 20.515625 L 17.039062 20.515625 C 16.921875 20.519531 16.820312 20.5625 16.738281 20.644531 C 16.65625 20.726562 16.613281 20.828125 16.613281 20.945312 C 16.613281 21.0625 16.65625 21.164062 16.738281 21.25 C 16.820312 21.332031 16.921875 21.375 17.039062 21.378906 L 26.796875 21.378906 C 26.914062 21.375 27.015625 21.332031 27.097656 21.25 C 27.179688 21.164062 27.222656 21.0625 27.222656 20.945312 C 27.222656 20.828125 27.179688 20.726562 27.097656 20.644531 C 27.015625 20.5625 26.914062 20.519531 26.796875 20.515625 Z M 26.796875 20.515625 L 17.039062 20.515625 C 16.921875 20.519531 16.820312 20.5625 16.738281 20.644531 C 16.65625 20.726562 16.613281 20.828125 16.613281 20.945312 C 16.613281 21.0625 16.65625 21.164062 16.738281 21.25 C 16.820312 21.332031 16.921875 21.375 17.039062 21.378906 L 26.796875 21.378906 C 26.914062 21.375 27.015625 21.332031 27.097656 21.25 C 27.179688 21.164062 27.222656 21.0625 27.222656 20.945312 C 27.222656 20.828125 27.179688 20.726562 27.097656 20.644531 C 27.015625 20.5625 26.914062 20.519531 26.796875 20.515625 Z M 25.023438 24.027344 L 18.816406 24.027344 C 18.695312 24.027344 18.59375 24.070312 18.511719 24.152344 C 18.425781 24.238281 18.386719 24.339844 18.386719 24.457031 C 18.386719 24.574219 18.425781 24.675781 18.511719 24.761719 C 18.59375 24.84375 18.695312 24.886719 18.816406 24.886719 L 25.023438 24.886719 C 25.140625 24.886719 25.238281 24.84375 25.320312 24.757812 C 25.40625 24.675781 25.445312 24.574219 25.445312 24.457031 C 25.445312 24.339844 25.40625 24.238281 25.320312 24.15625 C 25.238281 24.070312 25.140625 24.027344 25.023438 24.027344 Z M 25.023438 24.027344 L 18.816406 24.027344 C 18.695312 24.027344 18.59375 24.070312 18.511719 24.152344 C 18.425781 24.238281 18.386719 24.339844 18.386719 24.457031 C 18.386719 24.574219 18.425781 24.675781 18.511719 24.761719 C 18.59375 24.84375 18.695312 24.886719 18.816406 24.886719 L 25.023438 24.886719 C 25.140625 24.886719 25.238281 24.84375 25.320312 24.757812 C 25.40625 24.675781 25.445312 24.574219 25.445312 24.457031 C 25.445312 24.339844 25.40625 24.238281 25.320312 24.15625 C 25.238281 24.070312 25.140625 24.027344 25.023438 24.027344 Z M 26.796875 20.515625 L 17.039062 20.515625 C 16.921875 20.519531 16.820312 20.5625 16.738281 20.644531 C 16.65625 20.726562 16.613281 20.828125 16.613281 20.945312 C 16.613281 21.0625 16.65625 21.164062 16.738281 21.25 C 16.820312 21.332031 16.921875 21.375 17.039062 21.378906 L 26.796875 21.378906 C 26.914062 21.375 27.015625 21.332031 27.097656 21.25 C 27.179688 21.164062 27.222656 21.0625 27.222656 20.945312 C 27.222656 20.828125 27.179688 20.726562 27.097656 20.644531 C 27.015625 20.5625 26.914062 20.519531 26.796875 20.515625 Z M 26.796875 20.515625 L 17.039062 20.515625 C 16.921875 20.519531 16.820312 20.5625 16.738281 20.644531 C 16.65625 20.726562 16.613281 20.828125 16.613281 20.945312 C 16.613281 21.0625 16.65625 21.164062 16.738281 21.25 C 16.820312 21.332031 16.921875 21.375 17.039062 21.378906 L 26.796875 21.378906 C 26.914062 21.375 27.015625 21.332031 27.097656 21.25 C 27.179688 21.164062 27.222656 21.0625 27.222656 20.945312 C 27.222656 20.828125 27.179688 20.726562 27.097656 20.644531 C 27.015625 20.5625 26.914062 20.519531 26.796875 20.515625 Z M 25.023438 24.027344 L 18.816406 24.027344 C 18.695312 24.027344 18.59375 24.070312 18.511719 24.152344 C 18.425781 24.238281 18.386719 24.339844 18.386719 24.457031 C 18.386719 24.574219 18.425781 24.675781 18.511719 24.761719 C 18.59375 24.84375 18.695312 24.886719 18.816406 24.886719 L 25.023438 24.886719 C 25.140625 24.886719 25.238281 24.84375 25.320312 24.757812 C 25.40625 24.675781 25.445312 24.574219 25.445312 24.457031 C 25.445312 24.339844 25.40625 24.238281 25.320312 24.15625 C 25.238281 24.070312 25.140625 24.027344 25.023438 24.027344 Z M 25.023438 24.027344 L 18.816406 24.027344 C 18.695312 24.027344 18.59375 24.070312 18.511719 24.152344 C 18.425781 24.238281 18.386719 24.339844 18.386719 24.457031 C 18.386719 24.574219 18.425781 24.675781 18.511719 24.761719 C 18.59375 24.84375 18.695312 24.886719 18.816406 24.886719 L 25.023438 24.886719 C 25.140625 24.886719 25.238281 24.84375 25.320312 24.757812 C 25.40625 24.675781 25.445312 24.574219 25.445312 24.457031 C 25.445312 24.339844 25.40625 24.238281 25.320312 24.15625 C 25.238281 24.070312 25.140625 24.027344 25.023438 24.027344 Z M 26.796875 20.515625 L 17.039062 20.515625 C 16.921875 20.519531 16.820312 20.5625 16.738281 20.644531 C 16.65625 20.726562 16.613281 20.828125 16.613281 20.945312 C 16.613281 21.0625 16.65625 21.164062 16.738281 21.25 C 16.820312 21.332031 16.921875 21.375 17.039062 21.378906 L 26.796875 21.378906 C 26.914062 21.375 27.015625 21.332031 27.097656 21.25 C 27.179688 21.164062 27.222656 21.0625 27.222656 20.945312 C 27.222656 20.828125 27.179688 20.726562 27.097656 20.644531 C 27.015625 20.5625 26.914062 20.519531 26.796875 20.515625 Z M 26.796875 20.515625 L 17.039062 20.515625 C 16.921875 20.519531 16.820312 20.5625 16.738281 20.644531 C 16.65625 20.726562 16.613281 20.828125 16.613281 20.945312 C 16.613281 21.0625 16.65625 21.164062 16.738281 21.25 C 16.820312 21.332031 16.921875 21.375 17.039062 21.378906 L 26.796875 21.378906 C 26.914062 21.375 27.015625 21.332031 27.097656 21.25 C 27.179688 21.164062 27.222656 21.0625 27.222656 20.945312 C 27.222656 20.828125 27.179688 20.726562 27.097656 20.644531 C 27.015625 20.5625 26.914062 20.519531 26.796875 20.515625 Z M 25.023438 24.027344 L 18.816406 24.027344 C 18.695312 24.027344 18.59375 24.070312 18.511719 24.152344 C 18.425781 24.238281 18.386719 24.339844 18.386719 24.457031 C 18.386719 24.574219 18.425781 24.675781 18.511719 24.761719 C 18.59375 24.84375 18.695312 24.886719 18.816406 24.886719 L 25.023438 24.886719 C 25.140625 24.886719 25.238281 24.84375 25.320312 24.757812 C 25.40625 24.675781 25.445312 24.574219 25.445312 24.457031 C 25.445312 24.339844 25.40625 24.238281 25.320312 24.15625 C 25.238281 24.070312 25.140625 24.027344 25.023438 24.027344 Z M 25.023438 24.027344 L 18.816406 24.027344 C 18.695312 24.027344 18.59375 24.070312 18.511719 24.152344 C 18.425781 24.238281 18.386719 24.339844 18.386719 24.457031 C 18.386719 24.574219 18.425781 24.675781 18.511719 24.761719 C 18.59375 24.84375 18.695312 24.886719 18.816406 24.886719 L 25.023438 24.886719 C 25.140625 24.886719 25.238281 24.84375 25.320312 24.757812 C 25.40625 24.675781 25.445312 24.574219 25.445312 24.457031 C 25.445312 24.339844 25.40625 24.238281 25.320312 24.15625 C 25.238281 24.070312 25.140625 24.027344 25.023438 24.027344 Z M 26.796875 20.515625 L 17.039062 20.515625 C 16.921875 20.519531 16.820312 20.5625 16.738281 20.644531 C 16.65625 20.726562 16.613281 20.828125 16.613281 20.945312 C 16.613281 21.0625 16.65625 21.164062 16.738281 21.25 C 16.820312 21.332031 16.921875 21.375 17.039062 21.378906 L 26.796875 21.378906 C 26.914062 21.375 27.015625 21.332031 27.097656 21.25 C 27.179688 21.164062 27.222656 21.0625 27.222656 20.945312 C 27.222656 20.828125 27.179688 20.726562 27.097656 20.644531 C 27.015625 20.5625 26.914062 20.519531 26.796875 20.515625 Z M 26.796875 20.515625 L 17.039062 20.515625 C 16.921875 20.519531 16.820312 20.5625 16.738281 20.644531 C 16.65625 20.726562 16.613281 20.828125 16.613281 20.945312 C 16.613281 21.0625 16.65625 21.164062 16.738281 21.25 C 16.820312 21.332031 16.921875 21.375 17.039062 21.378906 L 26.796875 21.378906 C 26.914062 21.375 27.015625 21.332031 27.097656 21.25 C 27.179688 21.164062 27.222656 21.0625 27.222656 20.945312 C 27.222656 20.828125 27.179688 20.726562 27.097656 20.644531 C 27.015625 20.5625 26.914062 20.519531 26.796875 20.515625 Z M 25.023438 24.027344 L 18.816406 24.027344 C 18.695312 24.027344 18.59375 24.070312 18.511719 24.152344 C 18.425781 24.238281 18.386719 24.339844 18.386719 24.457031 C 18.386719 24.574219 18.425781 24.675781 18.511719 24.761719 C 18.59375 24.84375 18.695312 24.886719 18.816406 24.886719 L 25.023438 24.886719 C 25.140625 24.886719 25.238281 24.84375 25.320312 24.757812 C 25.40625 24.675781 25.445312 24.574219 25.445312 24.457031 C 25.445312 24.339844 25.40625 24.238281 25.320312 24.15625 C 25.238281 24.070312 25.140625 24.027344 25.023438 24.027344 Z M 25.023438 24.027344 L 18.816406 24.027344 C 18.695312 24.027344 18.59375 24.070312 18.511719 24.152344 C 18.425781 24.238281 18.386719 24.339844 18.386719 24.457031 C 18.386719 24.574219 18.425781 24.675781 18.511719 24.761719 C 18.59375 24.84375 18.695312 24.886719 18.816406 24.886719 L 25.023438 24.886719 C 25.140625 24.886719 25.238281 24.84375 25.320312 24.757812 C 25.40625 24.675781 25.445312 24.574219 25.445312 24.457031 C 25.445312 24.339844 25.40625 24.238281 25.320312 24.15625 C 25.238281 24.070312 25.140625 24.027344 25.023438 24.027344 Z M 26.796875 20.515625 L 17.039062 20.515625 C 16.921875 20.519531 16.820312 20.5625 16.738281 20.644531 C 16.65625 20.726562 16.613281 20.828125 16.613281 20.945312 C 16.613281 21.0625 16.65625 21.164062 16.738281 21.25 C 16.820312 21.332031 16.921875 21.375 17.039062 21.378906 L 26.796875 21.378906 C 26.914062 21.375 27.015625 21.332031 27.097656 21.25 C 27.179688 21.164062 27.222656 21.0625 27.222656 20.945312 C 27.222656 20.828125 27.179688 20.726562 27.097656 20.644531 C 27.015625 20.5625 26.914062 20.519531 26.796875 20.515625 Z M 26.796875 20.515625 L 17.039062 20.515625 C 16.921875 20.519531 16.820312 20.5625 16.738281 20.644531 C 16.65625 20.726562 16.613281 20.828125 16.613281 20.945312 C 16.613281 21.0625 16.65625 21.164062 16.738281 21.25 C 16.820312 21.332031 16.921875 21.375 17.039062 21.378906 L 26.796875 21.378906 C 26.914062 21.375 27.015625 21.332031 27.097656 21.25 C 27.179688 21.164062 27.222656 21.0625 27.222656 20.945312 C 27.222656 20.828125 27.179688 20.726562 27.097656 20.644531 C 27.015625 20.5625 26.914062 20.519531 26.796875 20.515625 Z M 25.023438 24.027344 L 18.816406 24.027344 C 18.695312 24.027344 18.59375 24.070312 18.511719 24.152344 C 18.425781 24.238281 18.386719 24.339844 18.386719 24.457031 C 18.386719 24.574219 18.425781 24.675781 18.511719 24.761719 C 18.59375 24.84375 18.695312 24.886719 18.816406 24.886719 L 25.023438 24.886719 C 25.140625 24.886719 25.238281 24.84375 25.320312 24.757812 C 25.40625 24.675781 25.445312 24.574219 25.445312 24.457031 C 25.445312 24.339844 25.40625 24.238281 25.320312 24.15625 C 25.238281 24.070312 25.140625 24.027344 25.023438 24.027344 Z M 25.023438 24.027344 L 18.816406 24.027344 C 18.695312 24.027344 18.59375 24.070312 18.511719 24.152344 C 18.425781 24.238281 18.386719 24.339844 18.386719 24.457031 C 18.386719 24.574219 18.425781 24.675781 18.511719 24.761719 C 18.59375 24.84375 18.695312 24.886719 18.816406 24.886719 L 25.023438 24.886719 C 25.140625 24.886719 25.238281 24.84375 25.320312 24.757812 C 25.40625 24.675781 25.445312 24.574219 25.445312 24.457031 C 25.445312 24.339844 25.40625 24.238281 25.320312 24.15625 C 25.238281 24.070312 25.140625 24.027344 25.023438 24.027344 Z M 26.796875 20.515625 L 17.039062 20.515625 C 16.921875 20.519531 16.820312 20.5625 16.738281 20.644531 C 16.65625 20.726562 16.613281 20.828125 16.613281 20.945312 C 16.613281 21.0625 16.65625 21.164062 16.738281 21.25 C 16.820312 21.332031 16.921875 21.375 17.039062 21.378906 L 26.796875 21.378906 C 26.914062 21.375 27.015625 21.332031 27.097656 21.25 C 27.179688 21.164062 27.222656 21.0625 27.222656 20.945312 C 27.222656 20.828125 27.179688 20.726562 27.097656 20.644531 C 27.015625 20.5625 26.914062 20.519531 26.796875 20.515625 Z M 26.796875 20.515625 L 17.039062 20.515625 C 16.921875 20.519531 16.820312 20.5625 16.738281 20.644531 C 16.65625 20.726562 16.613281 20.828125 16.613281 20.945312 C 16.613281 21.0625 16.65625 21.164062 16.738281 21.25 C 16.820312 21.332031 16.921875 21.375 17.039062 21.378906 L 26.796875 21.378906 C 26.914062 21.375 27.015625 21.332031 27.097656 21.25 C 27.179688 21.164062 27.222656 21.0625 27.222656 20.945312 C 27.222656 20.828125 27.179688 20.726562 27.097656 20.644531 C 27.015625 20.5625 26.914062 20.519531 26.796875 20.515625 Z M 25.023438 24.027344 L 18.816406 24.027344 C 18.695312 24.027344 18.59375 24.070312 18.511719 24.152344 C 18.425781 24.238281 18.386719 24.339844 18.386719 24.457031 C 18.386719 24.574219 18.425781 24.675781 18.511719 24.761719 C 18.59375 24.84375 18.695312 24.886719 18.816406 24.886719 L 25.023438 24.886719 C 25.140625 24.886719 25.238281 24.84375 25.320312 24.757812 C 25.40625 24.675781 25.445312 24.574219 25.445312 24.457031 C 25.445312 24.339844 25.40625 24.238281 25.320312 24.15625 C 25.238281 24.070312 25.140625 24.027344 25.023438 24.027344 Z M 25.023438 24.027344 L 18.816406 24.027344 C 18.695312 24.027344 18.59375 24.070312 18.511719 24.152344 C 18.425781 24.238281 18.386719 24.339844 18.386719 24.457031 C 18.386719 24.574219 18.425781 24.675781 18.511719 24.761719 C 18.59375 24.84375 18.695312 24.886719 18.816406 24.886719 L 25.023438 24.886719 C 25.140625 24.886719 25.238281 24.84375 25.320312 24.757812 C 25.40625 24.675781 25.445312 24.574219 25.445312 24.457031 C 25.445312 24.339844 25.40625 24.238281 25.320312 24.15625 C 25.238281 24.070312 25.140625 24.027344 25.023438 24.027344 Z M 26.796875 20.515625 L 17.039062 20.515625 C 16.921875 20.519531 16.820312 20.5625 16.738281 20.644531 C 16.65625 20.726562 16.613281 20.828125 16.613281 20.945312 C 16.613281 21.0625 16.65625 21.164062 16.738281 21.25 C 16.820312 21.332031 16.921875 21.375 17.039062 21.378906 L 26.796875 21.378906 C 26.914062 21.375 27.015625 21.332031 27.097656 21.25 C 27.179688 21.164062 27.222656 21.0625 27.222656 20.945312 C 27.222656 20.828125 27.179688 20.726562 27.097656 20.644531 C 27.015625 20.5625 26.914062 20.519531 26.796875 20.515625 Z M 26.796875 20.515625 L 17.039062 20.515625 C 16.921875 20.519531 16.820312 20.5625 16.738281 20.644531 C 16.65625 20.726562 16.613281 20.828125 16.613281 20.945312 C 16.613281 21.0625 16.65625 21.164062 16.738281 21.25 C 16.820312 21.332031 16.921875 21.375 17.039062 21.378906 L 26.796875 21.378906 C 26.914062 21.375 27.015625 21.332031 27.097656 21.25 C 27.179688 21.164062 27.222656 21.0625 27.222656 20.945312 C 27.222656 20.828125 27.179688 20.726562 27.097656 20.644531 C 27.015625 20.5625 26.914062 20.519531 26.796875 20.515625 Z M 25.023438 24.027344 L 18.816406 24.027344 C 18.695312 24.027344 18.59375 24.070312 18.511719 24.152344 C 18.425781 24.238281 18.386719 24.339844 18.386719 24.457031 C 18.386719 24.574219 18.425781 24.675781 18.511719 24.761719 C 18.59375 24.84375 18.695312 24.886719 18.816406 24.886719 L 25.023438 24.886719 C 25.140625 24.886719 25.238281 24.84375 25.320312 24.757812 C 25.40625 24.675781 25.445312 24.574219 25.445312 24.457031 C 25.445312 24.339844 25.40625 24.238281 25.320312 24.15625 C 25.238281 24.070312 25.140625 24.027344 25.023438 24.027344 Z M 25.023438 24.027344 L 18.816406 24.027344 C 18.695312 24.027344 18.59375 24.070312 18.511719 24.152344 C 18.425781 24.238281 18.386719 24.339844 18.386719 24.457031 C 18.386719 24.574219 18.425781 24.675781 18.511719 24.761719 C 18.59375 24.84375 18.695312 24.886719 18.816406 24.886719 L 25.023438 24.886719 C 25.140625 24.886719 25.238281 24.84375 25.320312 24.757812 C 25.40625 24.675781 25.445312 24.574219 25.445312 24.457031 C 25.445312 24.339844 25.40625 24.238281 25.320312 24.15625 C 25.238281 24.070312 25.140625 24.027344 25.023438 24.027344 Z M 26.796875 20.515625 L 17.039062 20.515625 C 16.921875 20.519531 16.820312 20.5625 16.738281 20.644531 C 16.65625 20.726562 16.613281 20.828125 16.613281 20.945312 C 16.613281 21.0625 16.65625 21.164062 16.738281 21.25 C 16.820312 21.332031 16.921875 21.375 17.039062 21.378906 L 26.796875 21.378906 C 26.914062 21.375 27.015625 21.332031 27.097656 21.25 C 27.179688 21.164062 27.222656 21.0625 27.222656 20.945312 C 27.222656 20.828125 27.179688 20.726562 27.097656 20.644531 C 27.015625 20.5625 26.914062 20.519531 26.796875 20.515625 Z M 26.796875 20.515625 L 17.039062 20.515625 C 16.921875 20.519531 16.820312 20.5625 16.738281 20.644531 C 16.65625 20.726562 16.613281 20.828125 16.613281 20.945312 C 16.613281 21.0625 16.65625 21.164062 16.738281 21.25 C 16.820312 21.332031 16.921875 21.375 17.039062 21.378906 L 26.796875 21.378906 C 26.914062 21.375 27.015625 21.332031 27.097656 21.25 C 27.179688 21.164062 27.222656 21.0625 27.222656 20.945312 C 27.222656 20.828125 27.179688 20.726562 27.097656 20.644531 C 27.015625 20.5625 26.914062 20.519531 26.796875 20.515625 Z M 25.023438 24.027344 L 18.816406 24.027344 C 18.695312 24.027344 18.59375 24.070312 18.511719 24.152344 C 18.425781 24.238281 18.386719 24.339844 18.386719 24.457031 C 18.386719 24.574219 18.425781 24.675781 18.511719 24.761719 C 18.59375 24.84375 18.695312 24.886719 18.816406 24.886719 L 25.023438 24.886719 C 25.140625 24.886719 25.238281 24.84375 25.320312 24.757812 C 25.40625 24.675781 25.445312 24.574219 25.445312 24.457031 C 25.445312 24.339844 25.40625 24.238281 25.320312 24.15625 C 25.238281 24.070312 25.140625 24.027344 25.023438 24.027344 Z M 25.023438 24.027344 L 18.816406 24.027344 C 18.695312 24.027344 18.59375 24.070312 18.511719 24.152344 C 18.425781 24.238281 18.386719 24.339844 18.386719 24.457031 C 18.386719 24.574219 18.425781 24.675781 18.511719 24.761719 C 18.59375 24.84375 18.695312 24.886719 18.816406 24.886719 L 25.023438 24.886719 C 25.140625 24.886719 25.238281 24.84375 25.320312 24.757812 C 25.40625 24.675781 25.445312 24.574219 25.445312 24.457031 C 25.445312 24.339844 25.40625 24.238281 25.320312 24.15625 C 25.238281 24.070312 25.140625 24.027344 25.023438 24.027344 Z M 26.796875 20.515625 L 17.039062 20.515625 C 16.921875 20.519531 16.820312 20.5625 16.738281 20.644531 C 16.65625 20.726562 16.613281 20.828125 16.613281 20.945312 C 16.613281 21.0625 16.65625 21.164062 16.738281 21.25 C 16.820312 21.332031 16.921875 21.375 17.039062 21.378906 L 26.796875 21.378906 C 26.914062 21.375 27.015625 21.332031 27.097656 21.25 C 27.179688 21.164062 27.222656 21.0625 27.222656 20.945312 C 27.222656 20.828125 27.179688 20.726562 27.097656 20.644531 C 27.015625 20.5625 26.914062 20.519531 26.796875 20.515625 Z M 26.796875 20.515625 L 17.039062 20.515625 C 16.921875 20.519531 16.820312 20.5625 16.738281 20.644531 C 16.65625 20.726562 16.613281 20.828125 16.613281 20.945312 C 16.613281 21.0625 16.65625 21.164062 16.738281 21.25 C 16.820312 21.332031 16.921875 21.375 17.039062 21.378906 L 26.796875 21.378906 C 26.914062 21.375 27.015625 21.332031 27.097656 21.25 C 27.179688 21.164062 27.222656 21.0625 27.222656 20.945312 C 27.222656 20.828125 27.179688 20.726562 27.097656 20.644531 C 27.015625 20.5625 26.914062 20.519531 26.796875 20.515625 Z M 25.023438 24.027344 L 18.816406 24.027344 C 18.695312 24.027344 18.59375 24.070312 18.511719 24.152344 C 18.425781 24.238281 18.386719 24.339844 18.386719 24.457031 C 18.386719 24.574219 18.425781 24.675781 18.511719 24.761719 C 18.59375 24.84375 18.695312 24.886719 18.816406 24.886719 L 25.023438 24.886719 C 25.140625 24.886719 25.238281 24.84375 25.320312 24.757812 C 25.40625 24.675781 25.445312 24.574219 25.445312 24.457031 C 25.445312 24.339844 25.40625 24.238281 25.320312 24.15625 C 25.238281 24.070312 25.140625 24.027344 25.023438 24.027344 Z M 25.023438 24.027344 L 18.816406 24.027344 C 18.695312 24.027344 18.59375 24.070312 18.511719 24.152344 C 18.425781 24.238281 18.386719 24.339844 18.386719 24.457031 C 18.386719 24.574219 18.425781 24.675781 18.511719 24.761719 C 18.59375 24.84375 18.695312 24.886719 18.816406 24.886719 L 25.023438 24.886719 C 25.140625 24.886719 25.238281 24.84375 25.320312 24.757812 C 25.40625 24.675781 25.445312 24.574219 25.445312 24.457031 C 25.445312 24.339844 25.40625 24.238281 25.320312 24.15625 C 25.238281 24.070312 25.140625 24.027344 25.023438 24.027344 Z M 26.796875 20.515625 L 17.039062 20.515625 C 16.921875 20.519531 16.820312 20.5625 16.738281 20.644531 C 16.65625 20.726562 16.613281 20.828125 16.613281 20.945312 C 16.613281 21.0625 16.65625 21.164062 16.738281 21.25 C 16.820312 21.332031 16.921875 21.375 17.039062 21.378906 L 26.796875 21.378906 C 26.914062 21.375 27.015625 21.332031 27.097656 21.25 C 27.179688 21.164062 27.222656 21.0625 27.222656 20.945312 C 27.222656 20.828125 27.179688 20.726562 27.097656 20.644531 C 27.015625 20.5625 26.914062 20.519531 26.796875 20.515625 Z M 26.796875 20.515625 L 17.039062 20.515625 C 16.921875 20.519531 16.820312 20.5625 16.738281 20.644531 C 16.65625 20.726562 16.613281 20.828125 16.613281 20.945312 C 16.613281 21.0625 16.65625 21.164062 16.738281 21.25 C 16.820312 21.332031 16.921875 21.375 17.039062 21.378906 L 26.796875 21.378906 C 26.914062 21.375 27.015625 21.332031 27.097656 21.25 C 27.179688 21.164062 27.222656 21.0625 27.222656 20.945312 C 27.222656 20.828125 27.179688 20.726562 27.097656 20.644531 C 27.015625 20.5625 26.914062 20.519531 26.796875 20.515625 Z M 25.023438 24.027344 L 18.816406 24.027344 C 18.695312 24.027344 18.59375 24.070312 18.511719 24.152344 C 18.425781 24.238281 18.386719 24.339844 18.386719 24.457031 C 18.386719 24.574219 18.425781 24.675781 18.511719 24.761719 C 18.59375 24.84375 18.695312 24.886719 18.816406 24.886719 L 25.023438 24.886719 C 25.140625 24.886719 25.238281 24.84375 25.320312 24.757812 C 25.40625 24.675781 25.445312 24.574219 25.445312 24.457031 C 25.445312 24.339844 25.40625 24.238281 25.320312 24.15625 C 25.238281 24.070312 25.140625 24.027344 25.023438 24.027344 Z M 25.023438 24.027344 L 18.816406 24.027344 C 18.695312 24.027344 18.59375 24.070312 18.511719 24.152344 C 18.425781 24.238281 18.386719 24.339844 18.386719 24.457031 C 18.386719 24.574219 18.425781 24.675781 18.511719 24.761719 C 18.59375 24.84375 18.695312 24.886719 18.816406 24.886719 L 25.023438 24.886719 C 25.140625 24.886719 25.238281 24.84375 25.320312 24.757812 C 25.40625 24.675781 25.445312 24.574219 25.445312 24.457031 C 25.445312 24.339844 25.40625 24.238281 25.320312 24.15625 C 25.238281 24.070312 25.140625 24.027344 25.023438 24.027344 Z M 26.796875 20.515625 L 17.039062 20.515625 C 16.921875 20.519531 16.820312 20.5625 16.738281 20.644531 C 16.65625 20.726562 16.613281 20.828125 16.613281 20.945312 C 16.613281 21.0625 16.65625 21.164062 16.738281 21.25 C 16.820312 21.332031 16.921875 21.375 17.039062 21.378906 L 26.796875 21.378906 C 26.914062 21.375 27.015625 21.332031 27.097656 21.25 C 27.179688 21.164062 27.222656 21.0625 27.222656 20.945312 C 27.222656 20.828125 27.179688 20.726562 27.097656 20.644531 C 27.015625 20.5625 26.914062 20.519531 26.796875 20.515625 Z M 26.796875 20.515625 L 17.039062 20.515625 C 16.921875 20.519531 16.820312 20.5625 16.738281 20.644531 C 16.65625 20.726562 16.613281 20.828125 16.613281 20.945312 C 16.613281 21.0625 16.65625 21.164062 16.738281 21.25 C 16.820312 21.332031 16.921875 21.375 17.039062 21.378906 L 26.796875 21.378906 C 26.914062 21.375 27.015625 21.332031 27.097656 21.25 C 27.179688 21.164062 27.222656 21.0625 27.222656 20.945312 C 27.222656 20.828125 27.179688 20.726562 27.097656 20.644531 C 27.015625 20.5625 26.914062 20.519531 26.796875 20.515625 Z M 25.023438 24.027344 L 18.816406 24.027344 C 18.695312 24.027344 18.59375 24.070312 18.511719 24.152344 C 18.425781 24.238281 18.386719 24.339844 18.386719 24.457031 C 18.386719 24.574219 18.425781 24.675781 18.511719 24.761719 C 18.59375 24.84375 18.695312 24.886719 18.816406 24.886719 L 25.023438 24.886719 C 25.140625 24.886719 25.238281 24.84375 25.320312 24.757812 C 25.40625 24.675781 25.445312 24.574219 25.445312 24.457031 C 25.445312 24.339844 25.40625 24.238281 25.320312 24.15625 C 25.238281 24.070312 25.140625 24.027344 25.023438 24.027344 Z M 25.023438 24.027344 L 18.816406 24.027344 C 18.695312 24.027344 18.59375 24.070312 18.511719 24.152344 C 18.425781 24.238281 18.386719 24.339844 18.386719 24.457031 C 18.386719 24.574219 18.425781 24.675781 18.511719 24.761719 C 18.59375 24.84375 18.695312 24.886719 18.816406 24.886719 L 25.023438 24.886719 C 25.140625 24.886719 25.238281 24.84375 25.320312 24.757812 C 25.40625 24.675781 25.445312 24.574219 25.445312 24.457031 C 25.445312 24.339844 25.40625 24.238281 25.320312 24.15625 C 25.238281 24.070312 25.140625 24.027344 25.023438 24.027344 Z M 26.796875 20.515625 L 17.039062 20.515625 C 16.921875 20.519531 16.820312 20.5625 16.738281 20.644531 C 16.65625 20.726562 16.613281 20.828125 16.613281 20.945312 C 16.613281 21.0625 16.65625 21.164062 16.738281 21.25 C 16.820312 21.332031 16.921875 21.375 17.039062 21.378906 L 26.796875 21.378906 C 26.914062 21.375 27.015625 21.332031 27.097656 21.25 C 27.179688 21.164062 27.222656 21.0625 27.222656 20.945312 C 27.222656 20.828125 27.179688 20.726562 27.097656 20.644531 C 27.015625 20.5625 26.914062 20.519531 26.796875 20.515625 Z M 26.796875 20.515625 L 17.039062 20.515625 C 16.921875 20.519531 16.820312 20.5625 16.738281 20.644531 C 16.65625 20.726562 16.613281 20.828125 16.613281 20.945312 C 16.613281 21.0625 16.65625 21.164062 16.738281 21.25 C 16.820312 21.332031 16.921875 21.375 17.039062 21.378906 L 26.796875 21.378906 C 26.914062 21.375 27.015625 21.332031 27.097656 21.25 C 27.179688 21.164062 27.222656 21.0625 27.222656 20.945312 C 27.222656 20.828125 27.179688 20.726562 27.097656 20.644531 C 27.015625 20.5625 26.914062 20.519531 26.796875 20.515625 Z M 25.023438 24.027344 L 18.816406 24.027344 C 18.695312 24.027344 18.59375 24.070312 18.511719 24.152344 C 18.425781 24.238281 18.386719 24.339844 18.386719 24.457031 C 18.386719 24.574219 18.425781 24.675781 18.511719 24.761719 C 18.59375 24.84375 18.695312 24.886719 18.816406 24.886719 L 25.023438 24.886719 C 25.140625 24.886719 25.238281 24.84375 25.320312 24.757812 C 25.40625 24.675781 25.445312 24.574219 25.445312 24.457031 C 25.445312 24.339844 25.40625 24.238281 25.320312 24.15625 C 25.238281 24.070312 25.140625 24.027344 25.023438 24.027344 Z M 24.328125 4.039062 C 23.703125 4.039062 23.078125 4.070312 22.453125 4.132812 C 21.828125 4.195312 21.210938 4.285156 20.59375 4.410156 C 19.980469 4.53125 19.371094 4.683594 18.773438 4.863281 C 18.171875 5.046875 17.585938 5.257812 17.003906 5.496094 C 16.425781 5.738281 15.859375 6.003906 15.308594 6.300781 C 14.753906 6.597656 14.21875 6.917969 13.695312 7.265625 C 13.175781 7.613281 12.671875 7.988281 12.1875 8.382812 C 11.703125 8.78125 11.238281 9.203125 10.796875 9.644531 C 10.355469 10.089844 9.933594 10.554688 9.535156 11.039062 C 9.136719 11.523438 8.765625 12.023438 8.417969 12.546875 C 8.070312 13.066406 7.746094 13.605469 7.453125 14.15625 C 7.15625 14.710938 6.886719 15.273438 6.648438 15.855469 C 6.410156 16.433594 6.199219 17.023438 6.015625 17.621094 C 5.832031 18.222656 5.683594 18.828125 5.558594 19.445312 C 5.4375 20.058594 5.34375 20.679688 5.285156 21.300781 C 5.222656 21.925781 5.191406 22.550781 5.191406 23.175781 C 5.191406 23.804688 5.222656 24.429688 5.285156 25.054688 C 5.34375 25.675781 5.4375 26.296875 5.558594 26.910156 C 5.683594 27.523438 5.832031 28.132812 6.015625 28.730469 C 6.199219 29.332031 6.410156 29.921875 6.648438 30.5 C 6.886719 31.078125 7.15625 31.644531 7.453125 32.199219 C 7.746094 32.75 8.070312 33.289062 8.417969 33.808594 C 8.765625 34.328125 9.136719 34.832031 9.535156 35.316406 C 9.933594 35.800781 10.355469 36.265625 10.796875 36.707031 C 11.238281 37.152344 11.703125 37.574219 12.1875 37.96875 C 12.671875 38.367188 13.175781 38.742188 13.695312 39.089844 C 14.21875 39.4375 14.753906 39.757812 15.308594 40.054688 C 15.859375 40.347656 16.425781 40.617188 17.003906 40.855469 C 17.585938 41.097656 18.171875 41.308594 18.773438 41.488281 C 19.371094 41.671875 19.980469 41.824219 20.59375 41.945312 C 21.210938 42.066406 21.828125 42.160156 22.453125 42.222656 C 23.078125 42.28125 23.703125 42.3125 24.328125 42.3125 C 24.953125 42.3125 25.582031 42.28125 26.203125 42.222656 C 26.828125 42.160156 27.445312 42.066406 28.0625 41.945312 C 28.675781 41.824219 29.285156 41.671875 29.882812 41.488281 C 30.484375 41.308594 31.074219 41.097656 31.652344 40.855469 C 32.230469 40.617188 32.796875 40.347656 33.347656 40.054688 C 33.902344 39.757812 34.4375 39.4375 34.960938 39.089844 C 35.480469 38.742188 35.984375 38.367188 36.46875 37.96875 C 36.953125 37.574219 37.417969 37.152344 37.859375 36.707031 C 38.304688 36.265625 38.722656 35.800781 39.121094 35.316406 C 39.519531 34.832031 39.890625 34.328125 40.238281 33.808594 C 40.589844 33.289062 40.910156 32.75 41.207031 32.199219 C 41.5 31.644531 41.769531 31.078125 42.007812 30.5 C 42.246094 29.921875 42.457031 29.332031 42.640625 28.730469 C 42.824219 28.132812 42.976562 27.523438 43.097656 26.910156 C 43.21875 26.296875 43.3125 25.675781 43.371094 25.054688 C 43.433594 24.429688 43.464844 23.804688 43.464844 23.175781 C 43.464844 22.550781 43.433594 21.925781 43.371094 21.300781 C 43.3125 20.679688 43.21875 20.058594 43.097656 19.445312 C 42.972656 18.828125 42.820312 18.222656 42.640625 17.621094 C 42.457031 17.023438 42.246094 16.433594 42.007812 15.855469 C 41.769531 15.277344 41.5 14.710938 41.203125 14.15625 C 40.910156 13.605469 40.585938 13.066406 40.238281 12.546875 C 39.890625 12.023438 39.519531 11.523438 39.121094 11.039062 C 38.722656 10.554688 38.300781 10.089844 37.859375 9.644531 C 37.414062 9.203125 36.953125 8.78125 36.46875 8.386719 C 35.984375 7.988281 35.480469 7.613281 34.960938 7.265625 C 34.4375 6.917969 33.902344 6.597656 33.347656 6.300781 C 32.796875 6.003906 32.230469 5.738281 31.652344 5.5 C 31.070312 5.257812 30.484375 5.046875 29.882812 4.867188 C 29.285156 4.683594 28.675781 4.53125 28.0625 4.410156 C 27.445312 4.285156 26.828125 4.195312 26.203125 4.132812 C 25.582031 4.070312 24.953125 4.039062 24.328125 4.039062 Z M 29.992188 34.683594 C 29.992188 34.800781 29.949219 34.902344 29.863281 34.988281 C 29.78125 35.070312 29.679688 35.113281 29.5625 35.113281 L 26.117188 35.113281 C 25.996094 35.113281 25.894531 35.070312 25.8125 34.988281 C 25.730469 34.902344 25.6875 34.800781 25.6875 34.683594 L 25.6875 29.511719 C 25.683594 29.390625 25.726562 29.289062 25.8125 29.207031 C 25.894531 29.121094 25.996094 29.078125 26.117188 29.078125 L 29.5625 29.078125 C 29.679688 29.078125 29.78125 29.121094 29.867188 29.207031 C 29.949219 29.289062 29.992188 29.390625 29.992188 29.511719 Z M 31.210938 25.179688 C 30.972656 25.429688 30.855469 25.722656 30.859375 26.066406 L 30.859375 28.21875 L 26.117188 28.21875 C 25.945312 28.21875 25.78125 28.25 25.621094 28.316406 C 25.464844 28.382812 25.324219 28.476562 25.203125 28.597656 C 25.082031 28.71875 24.988281 28.859375 24.921875 29.015625 C 24.859375 29.175781 24.824219 29.339844 24.824219 29.511719 L 24.824219 34.683594 C 24.824219 34.839844 24.851562 34.992188 24.910156 35.136719 L 15.722656 35.136719 C 15.3125 35.136719 14.917969 35.058594 14.539062 34.902344 C 14.160156 34.742188 13.828125 34.519531 13.539062 34.230469 C 13.25 33.941406 13.023438 33.605469 12.867188 33.226562 C 12.710938 32.851562 12.632812 32.457031 12.632812 32.046875 L 12.632812 14.308594 C 12.632812 13.898438 12.710938 13.503906 12.867188 13.125 C 13.023438 12.746094 13.25 12.414062 13.539062 12.125 C 13.828125 11.832031 14.160156 11.609375 14.539062 11.453125 C 14.917969 11.296875 15.3125 11.21875 15.722656 11.21875 L 30.773438 11.21875 C 30.890625 11.21875 30.992188 11.261719 31.074219 11.34375 C 31.15625 11.429688 31.199219 11.53125 31.199219 11.648438 C 31.199219 11.765625 31.15625 11.867188 31.074219 11.949219 C 30.992188 12.035156 30.890625 12.078125 30.773438 12.078125 L 15.722656 12.078125 C 15.429688 12.082031 15.144531 12.140625 14.875 12.253906 C 14.605469 12.367188 14.367188 12.53125 14.160156 12.738281 C 13.953125 12.949219 13.792969 13.1875 13.679688 13.460938 C 13.570312 13.730469 13.511719 14.015625 13.511719 14.308594 C 13.511719 14.601562 13.570312 14.886719 13.679688 15.15625 C 13.792969 15.429688 13.953125 15.667969 14.160156 15.878906 C 14.367188 16.085938 14.605469 16.25 14.875 16.363281 C 15.144531 16.476562 15.429688 16.535156 15.722656 16.539062 L 30.773438 16.539062 C 30.894531 16.539062 30.996094 16.582031 31.082031 16.664062 C 31.167969 16.75 31.210938 16.851562 31.210938 16.96875 Z M 29.472656 14.738281 L 16.164062 14.738281 C 16.046875 14.738281 15.949219 14.695312 15.867188 14.609375 C 15.78125 14.527344 15.742188 14.425781 15.742188 14.308594 C 15.742188 14.191406 15.78125 14.089844 15.867188 14.007812 C 15.949219 13.921875 16.046875 13.878906 16.164062 13.878906 L 29.472656 13.878906 C 29.589844 13.878906 29.6875 13.921875 29.769531 14.007812 C 29.851562 14.089844 29.894531 14.191406 29.894531 14.308594 C 29.894531 14.425781 29.851562 14.527344 29.769531 14.609375 C 29.6875 14.695312 29.589844 14.738281 29.472656 14.738281 Z M 36.027344 34.683594 C 36.023438 34.800781 35.984375 34.902344 35.898438 34.988281 C 35.816406 35.070312 35.714844 35.113281 35.59375 35.113281 L 32.148438 35.113281 C 32.03125 35.113281 31.929688 35.070312 31.847656 34.988281 C 31.761719 34.902344 31.71875 34.800781 31.71875 34.683594 L 31.71875 26.066406 C 31.71875 25.945312 31.761719 25.84375 31.84375 25.761719 C 31.929688 25.675781 32.03125 25.632812 32.148438 25.636719 L 35.59375 25.636719 C 35.714844 25.632812 35.816406 25.675781 35.898438 25.761719 C 35.984375 25.84375 36.027344 25.945312 36.027344 26.066406 Z M 26.796875 20.515625 L 17.039062 20.515625 C 16.921875 20.519531 16.820312 20.5625 16.738281 20.644531 C 16.65625 20.726562 16.613281 20.828125 16.613281 20.945312 C 16.613281 21.0625 16.65625 21.164062 16.738281 21.25 C 16.820312 21.332031 16.921875 21.375 17.039062 21.378906 L 26.796875 21.378906 C 26.914062 21.375 27.015625 21.332031 27.097656 21.25 C 27.179688 21.164062 27.222656 21.0625 27.222656 20.945312 C 27.222656 20.828125 27.179688 20.726562 27.097656 20.644531 C 27.015625 20.5625 26.914062 20.519531 26.796875 20.515625 Z M 25.023438 24.027344 L 18.816406 24.027344 C 18.695312 24.027344 18.59375 24.070312 18.511719 24.152344 C 18.425781 24.238281 18.386719 24.339844 18.386719 24.457031 C 18.386719 24.574219 18.425781 24.675781 18.511719 24.761719 C 18.59375 24.84375 18.695312 24.886719 18.816406 24.886719 L 25.023438 24.886719 C 25.140625 24.886719 25.238281 24.84375 25.320312 24.757812 C 25.40625 24.675781 25.445312 24.574219 25.445312 24.457031 C 25.445312 24.339844 25.40625 24.238281 25.320312 24.15625 C 25.238281 24.070312 25.140625 24.027344 25.023438 24.027344 Z M 25.023438 24.027344 L 18.816406 24.027344 C 18.695312 24.027344 18.59375 24.070312 18.511719 24.152344 C 18.425781 24.238281 18.386719 24.339844 18.386719 24.457031 C 18.386719 24.574219 18.425781 24.675781 18.511719 24.761719 C 18.59375 24.84375 18.695312 24.886719 18.816406 24.886719 L 25.023438 24.886719 C 25.140625 24.886719 25.238281 24.84375 25.320312 24.757812 C 25.40625 24.675781 25.445312 24.574219 25.445312 24.457031 C 25.445312 24.339844 25.40625 24.238281 25.320312 24.15625 C 25.238281 24.070312 25.140625 24.027344 25.023438 24.027344 Z M 26.796875 20.515625 L 17.039062 20.515625 C 16.921875 20.519531 16.820312 20.5625 16.738281 20.644531 C 16.65625 20.726562 16.613281 20.828125 16.613281 20.945312 C 16.613281 21.0625 16.65625 21.164062 16.738281 21.25 C 16.820312 21.332031 16.921875 21.375 17.039062 21.378906 L 26.796875 21.378906 C 26.914062 21.375 27.015625 21.332031 27.097656 21.25 C 27.179688 21.164062 27.222656 21.0625 27.222656 20.945312 C 27.222656 20.828125 27.179688 20.726562 27.097656 20.644531 C 27.015625 20.5625 26.914062 20.519531 26.796875 20.515625 Z M 26.796875 20.515625 L 17.039062 20.515625 C 16.921875 20.519531 16.820312 20.5625 16.738281 20.644531 C 16.65625 20.726562 16.613281 20.828125 16.613281 20.945312 C 16.613281 21.0625 16.65625 21.164062 16.738281 21.25 C 16.820312 21.332031 16.921875 21.375 17.039062 21.378906 L 26.796875 21.378906 C 26.914062 21.375 27.015625 21.332031 27.097656 21.25 C 27.179688 21.164062 27.222656 21.0625 27.222656 20.945312 C 27.222656 20.828125 27.179688 20.726562 27.097656 20.644531 C 27.015625 20.5625 26.914062 20.519531 26.796875 20.515625 Z M 25.023438 24.027344 L 18.816406 24.027344 C 18.695312 24.027344 18.59375 24.070312 18.511719 24.152344 C 18.425781 24.238281 18.386719 24.339844 18.386719 24.457031 C 18.386719 24.574219 18.425781 24.675781 18.511719 24.761719 C 18.59375 24.84375 18.695312 24.886719 18.816406 24.886719 L 25.023438 24.886719 C 25.140625 24.886719 25.238281 24.84375 25.320312 24.757812 C 25.40625 24.675781 25.445312 24.574219 25.445312 24.457031 C 25.445312 24.339844 25.40625 24.238281 25.320312 24.15625 C 25.238281 24.070312 25.140625 24.027344 25.023438 24.027344 Z M 25.023438 24.027344 L 18.816406 24.027344 C 18.695312 24.027344 18.59375 24.070312 18.511719 24.152344 C 18.425781 24.238281 18.386719 24.339844 18.386719 24.457031 C 18.386719 24.574219 18.425781 24.675781 18.511719 24.761719 C 18.59375 24.84375 18.695312 24.886719 18.816406 24.886719 L 25.023438 24.886719 C 25.140625 24.886719 25.238281 24.84375 25.320312 24.757812 C 25.40625 24.675781 25.445312 24.574219 25.445312 24.457031 C 25.445312 24.339844 25.40625 24.238281 25.320312 24.15625 C 25.238281 24.070312 25.140625 24.027344 25.023438 24.027344 Z M 26.796875 20.515625 L 17.039062 20.515625 C 16.921875 20.519531 16.820312 20.5625 16.738281 20.644531 C 16.65625 20.726562 16.613281 20.828125 16.613281 20.945312 C 16.613281 21.0625 16.65625 21.164062 16.738281 21.25 C 16.820312 21.332031 16.921875 21.375 17.039062 21.378906 L 26.796875 21.378906 C 26.914062 21.375 27.015625 21.332031 27.097656 21.25 C 27.179688 21.164062 27.222656 21.0625 27.222656 20.945312 C 27.222656 20.828125 27.179688 20.726562 27.097656 20.644531 C 27.015625 20.5625 26.914062 20.519531 26.796875 20.515625 Z M 26.796875 20.515625 L 17.039062 20.515625 C 16.921875 20.519531 16.820312 20.5625 16.738281 20.644531 C 16.65625 20.726562 16.613281 20.828125 16.613281 20.945312 C 16.613281 21.0625 16.65625 21.164062 16.738281 21.25 C 16.820312 21.332031 16.921875 21.375 17.039062 21.378906 L 26.796875 21.378906 C 26.914062 21.375 27.015625 21.332031 27.097656 21.25 C 27.179688 21.164062 27.222656 21.0625 27.222656 20.945312 C 27.222656 20.828125 27.179688 20.726562 27.097656 20.644531 C 27.015625 20.5625 26.914062 20.519531 26.796875 20.515625 Z M 25.023438 24.027344 L 18.816406 24.027344 C 18.695312 24.027344 18.59375 24.070312 18.511719 24.152344 C 18.425781 24.238281 18.386719 24.339844 18.386719 24.457031 C 18.386719 24.574219 18.425781 24.675781 18.511719 24.761719 C 18.59375 24.84375 18.695312 24.886719 18.816406 24.886719 L 25.023438 24.886719 C 25.140625 24.886719 25.238281 24.84375 25.320312 24.757812 C 25.40625 24.675781 25.445312 24.574219 25.445312 24.457031 C 25.445312 24.339844 25.40625 24.238281 25.320312 24.15625 C 25.238281 24.070312 25.140625 24.027344 25.023438 24.027344 Z M 25.023438 24.027344 L 18.816406 24.027344 C 18.695312 24.027344 18.59375 24.070312 18.511719 24.152344 C 18.425781 24.238281 18.386719 24.339844 18.386719 24.457031 C 18.386719 24.574219 18.425781 24.675781 18.511719 24.761719 C 18.59375 24.84375 18.695312 24.886719 18.816406 24.886719 L 25.023438 24.886719 C 25.140625 24.886719 25.238281 24.84375 25.320312 24.757812 C 25.40625 24.675781 25.445312 24.574219 25.445312 24.457031 C 25.445312 24.339844 25.40625 24.238281 25.320312 24.15625 C 25.238281 24.070312 25.140625 24.027344 25.023438 24.027344 Z M 26.796875 20.515625 L 17.039062 20.515625 C 16.921875 20.519531 16.820312 20.5625 16.738281 20.644531 C 16.65625 20.726562 16.613281 20.828125 16.613281 20.945312 C 16.613281 21.0625 16.65625 21.164062 16.738281 21.25 C 16.820312 21.332031 16.921875 21.375 17.039062 21.378906 L 26.796875 21.378906 C 26.914062 21.375 27.015625 21.332031 27.097656 21.25 C 27.179688 21.164062 27.222656 21.0625 27.222656 20.945312 C 27.222656 20.828125 27.179688 20.726562 27.097656 20.644531 C 27.015625 20.5625 26.914062 20.519531 26.796875 20.515625 Z M 26.796875 20.515625 L 17.039062 20.515625 C 16.921875 20.519531 16.820312 20.5625 16.738281 20.644531 C 16.65625 20.726562 16.613281 20.828125 16.613281 20.945312 C 16.613281 21.0625 16.65625 21.164062 16.738281 21.25 C 16.820312 21.332031 16.921875 21.375 17.039062 21.378906 L 26.796875 21.378906 C 26.914062 21.375 27.015625 21.332031 27.097656 21.25 C 27.179688 21.164062 27.222656 21.0625 27.222656 20.945312 C 27.222656 20.828125 27.179688 20.726562 27.097656 20.644531 C 27.015625 20.5625 26.914062 20.519531 26.796875 20.515625 Z M 25.023438 24.027344 L 18.816406 24.027344 C 18.695312 24.027344 18.59375 24.070312 18.511719 24.152344 C 18.425781 24.238281 18.386719 24.339844 18.386719 24.457031 C 18.386719 24.574219 18.425781 24.675781 18.511719 24.761719 C 18.59375 24.84375 18.695312 24.886719 18.816406 24.886719 L 25.023438 24.886719 C 25.140625 24.886719 25.238281 24.84375 25.320312 24.757812 C 25.40625 24.675781 25.445312 24.574219 25.445312 24.457031 C 25.445312 24.339844 25.40625 24.238281 25.320312 24.15625 C 25.238281 24.070312 25.140625 24.027344 25.023438 24.027344 Z M 25.023438 24.027344 L 18.816406 24.027344 C 18.695312 24.027344 18.59375 24.070312 18.511719 24.152344 C 18.425781 24.238281 18.386719 24.339844 18.386719 24.457031 C 18.386719 24.574219 18.425781 24.675781 18.511719 24.761719 C 18.59375 24.84375 18.695312 24.886719 18.816406 24.886719 L 25.023438 24.886719 C 25.140625 24.886719 25.238281 24.84375 25.320312 24.757812 C 25.40625 24.675781 25.445312 24.574219 25.445312 24.457031 C 25.445312 24.339844 25.40625 24.238281 25.320312 24.15625 C 25.238281 24.070312 25.140625 24.027344 25.023438 24.027344 Z M 26.796875 20.515625 L 17.039062 20.515625 C 16.921875 20.519531 16.820312 20.5625 16.738281 20.644531 C 16.65625 20.726562 16.613281 20.828125 16.613281 20.945312 C 16.613281 21.0625 16.65625 21.164062 16.738281 21.25 C 16.820312 21.332031 16.921875 21.375 17.039062 21.378906 L 26.796875 21.378906 C 26.914062 21.375 27.015625 21.332031 27.097656 21.25 C 27.179688 21.164062 27.222656 21.0625 27.222656 20.945312 C 27.222656 20.828125 27.179688 20.726562 27.097656 20.644531 C 27.015625 20.5625 26.914062 20.519531 26.796875 20.515625 Z M 26.796875 20.515625 L 17.039062 20.515625 C 16.921875 20.519531 16.820312 20.5625 16.738281 20.644531 C 16.65625 20.726562 16.613281 20.828125 16.613281 20.945312 C 16.613281 21.0625 16.65625 21.164062 16.738281 21.25 C 16.820312 21.332031 16.921875 21.375 17.039062 21.378906 L 26.796875 21.378906 C 26.914062 21.375 27.015625 21.332031 27.097656 21.25 C 27.179688 21.164062 27.222656 21.0625 27.222656 20.945312 C 27.222656 20.828125 27.179688 20.726562 27.097656 20.644531 C 27.015625 20.5625 26.914062 20.519531 26.796875 20.515625 Z M 25.023438 24.027344 L 18.816406 24.027344 C 18.695312 24.027344 18.59375 24.070312 18.511719 24.152344 C 18.425781 24.238281 18.386719 24.339844 18.386719 24.457031 C 18.386719 24.574219 18.425781 24.675781 18.511719 24.761719 C 18.59375 24.84375 18.695312 24.886719 18.816406 24.886719 L 25.023438 24.886719 C 25.140625 24.886719 25.238281 24.84375 25.320312 24.757812 C 25.40625 24.675781 25.445312 24.574219 25.445312 24.457031 C 25.445312 24.339844 25.40625 24.238281 25.320312 24.15625 C 25.238281 24.070312 25.140625 24.027344 25.023438 24.027344 Z M 25.023438 24.027344 L 18.816406 24.027344 C 18.695312 24.027344 18.59375 24.070312 18.511719 24.152344 C 18.425781 24.238281 18.386719 24.339844 18.386719 24.457031 C 18.386719 24.574219 18.425781 24.675781 18.511719 24.761719 C 18.59375 24.84375 18.695312 24.886719 18.816406 24.886719 L 25.023438 24.886719 C 25.140625 24.886719 25.238281 24.84375 25.320312 24.757812 C 25.40625 24.675781 25.445312 24.574219 25.445312 24.457031 C 25.445312 24.339844 25.40625 24.238281 25.320312 24.15625 C 25.238281 24.070312 25.140625 24.027344 25.023438 24.027344 Z M 26.796875 20.515625 L 17.039062 20.515625 C 16.921875 20.519531 16.820312 20.5625 16.738281 20.644531 C 16.65625 20.726562 16.613281 20.828125 16.613281 20.945312 C 16.613281 21.0625 16.65625 21.164062 16.738281 21.25 C 16.820312 21.332031 16.921875 21.375 17.039062 21.378906 L 26.796875 21.378906 C 26.914062 21.375 27.015625 21.332031 27.097656 21.25 C 27.179688 21.164062 27.222656 21.0625 27.222656 20.945312 C 27.222656 20.828125 27.179688 20.726562 27.097656 20.644531 C 27.015625 20.5625 26.914062 20.519531 26.796875 20.515625 Z M 26.796875 20.515625 L 17.039062 20.515625 C 16.921875 20.519531 16.820312 20.5625 16.738281 20.644531 C 16.65625 20.726562 16.613281 20.828125 16.613281 20.945312 C 16.613281 21.0625 16.65625 21.164062 16.738281 21.25 C 16.820312 21.332031 16.921875 21.375 17.039062 21.378906 L 26.796875 21.378906 C 26.914062 21.375 27.015625 21.332031 27.097656 21.25 C 27.179688 21.164062 27.222656 21.0625 27.222656 20.945312 C 27.222656 20.828125 27.179688 20.726562 27.097656 20.644531 C 27.015625 20.5625 26.914062 20.519531 26.796875 20.515625 Z M 25.023438 24.027344 L 18.816406 24.027344 C 18.695312 24.027344 18.59375 24.070312 18.511719 24.152344 C 18.425781 24.238281 18.386719 24.339844 18.386719 24.457031 C 18.386719 24.574219 18.425781 24.675781 18.511719 24.761719 C 18.59375 24.84375 18.695312 24.886719 18.816406 24.886719 L 25.023438 24.886719 C 25.140625 24.886719 25.238281 24.84375 25.320312 24.757812 C 25.40625 24.675781 25.445312 24.574219 25.445312 24.457031 C 25.445312 24.339844 25.40625 24.238281 25.320312 24.15625 C 25.238281 24.070312 25.140625 24.027344 25.023438 24.027344 Z M 25.023438 24.027344 L 18.816406 24.027344 C 18.695312 24.027344 18.59375 24.070312 18.511719 24.152344 C 18.425781 24.238281 18.386719 24.339844 18.386719 24.457031 C 18.386719 24.574219 18.425781 24.675781 18.511719 24.761719 C 18.59375 24.84375 18.695312 24.886719 18.816406 24.886719 L 25.023438 24.886719 C 25.140625 24.886719 25.238281 24.84375 25.320312 24.757812 C 25.40625 24.675781 25.445312 24.574219 25.445312 24.457031 C 25.445312 24.339844 25.40625 24.238281 25.320312 24.15625 C 25.238281 24.070312 25.140625 24.027344 25.023438 24.027344 Z M 26.796875 20.515625 L 17.039062 20.515625 C 16.921875 20.519531 16.820312 20.5625 16.738281 20.644531 C 16.65625 20.726562 16.613281 20.828125 16.613281 20.945312 C 16.613281 21.0625 16.65625 21.164062 16.738281 21.25 C 16.820312 21.332031 16.921875 21.375 17.039062 21.378906 L 26.796875 21.378906 C 26.914062 21.375 27.015625 21.332031 27.097656 21.25 C 27.179688 21.164062 27.222656 21.0625 27.222656 20.945312 C 27.222656 20.828125 27.179688 20.726562 27.097656 20.644531 C 27.015625 20.5625 26.914062 20.519531 26.796875 20.515625 Z M 26.796875 20.515625 L 17.039062 20.515625 C 16.921875 20.519531 16.820312 20.5625 16.738281 20.644531 C 16.65625 20.726562 16.613281 20.828125 16.613281 20.945312 C 16.613281 21.0625 16.65625 21.164062 16.738281 21.25 C 16.820312 21.332031 16.921875 21.375 17.039062 21.378906 L 26.796875 21.378906 C 26.914062 21.375 27.015625 21.332031 27.097656 21.25 C 27.179688 21.164062 27.222656 21.0625 27.222656 20.945312 C 27.222656 20.828125 27.179688 20.726562 27.097656 20.644531 C 27.015625 20.5625 26.914062 20.519531 26.796875 20.515625 Z M 25.023438 24.027344 L 18.816406 24.027344 C 18.695312 24.027344 18.59375 24.070312 18.511719 24.152344 C 18.425781 24.238281 18.386719 24.339844 18.386719 24.457031 C 18.386719 24.574219 18.425781 24.675781 18.511719 24.761719 C 18.59375 24.84375 18.695312 24.886719 18.816406 24.886719 L 25.023438 24.886719 C 25.140625 24.886719 25.238281 24.84375 25.320312 24.757812 C 25.40625 24.675781 25.445312 24.574219 25.445312 24.457031 C 25.445312 24.339844 25.40625 24.238281 25.320312 24.15625 C 25.238281 24.070312 25.140625 24.027344 25.023438 24.027344 Z M 25.023438 24.027344 L 18.816406 24.027344 C 18.695312 24.027344 18.59375 24.070312 18.511719 24.152344 C 18.425781 24.238281 18.386719 24.339844 18.386719 24.457031 C 18.386719 24.574219 18.425781 24.675781 18.511719 24.761719 C 18.59375 24.84375 18.695312 24.886719 18.816406 24.886719 L 25.023438 24.886719 C 25.140625 24.886719 25.238281 24.84375 25.320312 24.757812 C 25.40625 24.675781 25.445312 24.574219 25.445312 24.457031 C 25.445312 24.339844 25.40625 24.238281 25.320312 24.15625 C 25.238281 24.070312 25.140625 24.027344 25.023438 24.027344 Z M 26.796875 20.515625 L 17.039062 20.515625 C 16.921875 20.519531 16.820312 20.5625 16.738281 20.644531 C 16.65625 20.726562 16.613281 20.828125 16.613281 20.945312 C 16.613281 21.0625 16.65625 21.164062 16.738281 21.25 C 16.820312 21.332031 16.921875 21.375 17.039062 21.378906 L 26.796875 21.378906 C 26.914062 21.375 27.015625 21.332031 27.097656 21.25 C 27.179688 21.164062 27.222656 21.0625 27.222656 20.945312 C 27.222656 20.828125 27.179688 20.726562 27.097656 20.644531 C 27.015625 20.5625 26.914062 20.519531 26.796875 20.515625 Z M 26.796875 20.515625 L 17.039062 20.515625 C 16.921875 20.519531 16.820312 20.5625 16.738281 20.644531 C 16.65625 20.726562 16.613281 20.828125 16.613281 20.945312 C 16.613281 21.0625 16.65625 21.164062 16.738281 21.25 C 16.820312 21.332031 16.921875 21.375 17.039062 21.378906 L 26.796875 21.378906 C 26.914062 21.375 27.015625 21.332031 27.097656 21.25 C 27.179688 21.164062 27.222656 21.0625 27.222656 20.945312 C 27.222656 20.828125 27.179688 20.726562 27.097656 20.644531 C 27.015625 20.5625 26.914062 20.519531 26.796875 20.515625 Z M 25.023438 24.027344 L 18.816406 24.027344 C 18.695312 24.027344 18.59375 24.070312 18.511719 24.152344 C 18.425781 24.238281 18.386719 24.339844 18.386719 24.457031 C 18.386719 24.574219 18.425781 24.675781 18.511719 24.761719 C 18.59375 24.84375 18.695312 24.886719 18.816406 24.886719 L 25.023438 24.886719 C 25.140625 24.886719 25.238281 24.84375 25.320312 24.757812 C 25.40625 24.675781 25.445312 24.574219 25.445312 24.457031 C 25.445312 24.339844 25.40625 24.238281 25.320312 24.15625 C 25.238281 24.070312 25.140625 24.027344 25.023438 24.027344 Z M 25.023438 24.027344 L 18.816406 24.027344 C 18.695312 24.027344 18.59375 24.070312 18.511719 24.152344 C 18.425781 24.238281 18.386719 24.339844 18.386719 24.457031 C 18.386719 24.574219 18.425781 24.675781 18.511719 24.761719 C 18.59375 24.84375 18.695312 24.886719 18.816406 24.886719 L 25.023438 24.886719 C 25.140625 24.886719 25.238281 24.84375 25.320312 24.757812 C 25.40625 24.675781 25.445312 24.574219 25.445312 24.457031 C 25.445312 24.339844 25.40625 24.238281 25.320312 24.15625 C 25.238281 24.070312 25.140625 24.027344 25.023438 24.027344 Z M 26.796875 20.515625 L 17.039062 20.515625 C 16.921875 20.519531 16.820312 20.5625 16.738281 20.644531 C 16.65625 20.726562 16.613281 20.828125 16.613281 20.945312 C 16.613281 21.0625 16.65625 21.164062 16.738281 21.25 C 16.820312 21.332031 16.921875 21.375 17.039062 21.378906 L 26.796875 21.378906 C 26.914062 21.375 27.015625 21.332031 27.097656 21.25 C 27.179688 21.164062 27.222656 21.0625 27.222656 20.945312 C 27.222656 20.828125 27.179688 20.726562 27.097656 20.644531 C 27.015625 20.5625 26.914062 20.519531 26.796875 20.515625 Z M 26.796875 20.515625 L 17.039062 20.515625 C 16.921875 20.519531 16.820312 20.5625 16.738281 20.644531 C 16.65625 20.726562 16.613281 20.828125 16.613281 20.945312 C 16.613281 21.0625 16.65625 21.164062 16.738281 21.25 C 16.820312 21.332031 16.921875 21.375 17.039062 21.378906 L 26.796875 21.378906 C 26.914062 21.375 27.015625 21.332031 27.097656 21.25 C 27.179688 21.164062 27.222656 21.0625 27.222656 20.945312 C 27.222656 20.828125 27.179688 20.726562 27.097656 20.644531 C 27.015625 20.5625 26.914062 20.519531 26.796875 20.515625 Z M 25.023438 24.027344 L 18.816406 24.027344 C 18.695312 24.027344 18.59375 24.070312 18.511719 24.152344 C 18.425781 24.238281 18.386719 24.339844 18.386719 24.457031 C 18.386719 24.574219 18.425781 24.675781 18.511719 24.761719 C 18.59375 24.84375 18.695312 24.886719 18.816406 24.886719 L 25.023438 24.886719 C 25.140625 24.886719 25.238281 24.84375 25.320312 24.757812 C 25.40625 24.675781 25.445312 24.574219 25.445312 24.457031 C 25.445312 24.339844 25.40625 24.238281 25.320312 24.15625 C 25.238281 24.070312 25.140625 24.027344 25.023438 24.027344 Z M 25.023438 24.027344 L 18.816406 24.027344 C 18.695312 24.027344 18.59375 24.070312 18.511719 24.152344 C 18.425781 24.238281 18.386719 24.339844 18.386719 24.457031 C 18.386719 24.574219 18.425781 24.675781 18.511719 24.761719 C 18.59375 24.84375 18.695312 24.886719 18.816406 24.886719 L 25.023438 24.886719 C 25.140625 24.886719 25.238281 24.84375 25.320312 24.757812 C 25.40625 24.675781 25.445312 24.574219 25.445312 24.457031 C 25.445312 24.339844 25.40625 24.238281 25.320312 24.15625 C 25.238281 24.070312 25.140625 24.027344 25.023438 24.027344 Z M 26.796875 20.515625 L 17.039062 20.515625 C 16.921875 20.519531 16.820312 20.5625 16.738281 20.644531 C 16.65625 20.726562 16.613281 20.828125 16.613281 20.945312 C 16.613281 21.0625 16.65625 21.164062 16.738281 21.25 C 16.820312 21.332031 16.921875 21.375 17.039062 21.378906 L 26.796875 21.378906 C 26.914062 21.375 27.015625 21.332031 27.097656 21.25 C 27.179688 21.164062 27.222656 21.0625 27.222656 20.945312 C 27.222656 20.828125 27.179688 20.726562 27.097656 20.644531 C 27.015625 20.5625 26.914062 20.519531 26.796875 20.515625 Z M 26.796875 20.515625 L 17.039062 20.515625 C 16.921875 20.519531 16.820312 20.5625 16.738281 20.644531 C 16.65625 20.726562 16.613281 20.828125 16.613281 20.945312 C 16.613281 21.0625 16.65625 21.164062 16.738281 21.25 C 16.820312 21.332031 16.921875 21.375 17.039062 21.378906 L 26.796875 21.378906 C 26.914062 21.375 27.015625 21.332031 27.097656 21.25 C 27.179688 21.164062 27.222656 21.0625 27.222656 20.945312 C 27.222656 20.828125 27.179688 20.726562 27.097656 20.644531 C 27.015625 20.5625 26.914062 20.519531 26.796875 20.515625 Z M 25.023438 24.027344 L 18.816406 24.027344 C 18.695312 24.027344 18.59375 24.070312 18.511719 24.152344 C 18.425781 24.238281 18.386719 24.339844 18.386719 24.457031 C 18.386719 24.574219 18.425781 24.675781 18.511719 24.761719 C 18.59375 24.84375 18.695312 24.886719 18.816406 24.886719 L 25.023438 24.886719 C 25.140625 24.886719 25.238281 24.84375 25.320312 24.757812 C 25.40625 24.675781 25.445312 24.574219 25.445312 24.457031 C 25.445312 24.339844 25.40625 24.238281 25.320312 24.15625 C 25.238281 24.070312 25.140625 24.027344 25.023438 24.027344 Z M 25.023438 24.027344 L 18.816406 24.027344 C 18.695312 24.027344 18.59375 24.070312 18.511719 24.152344 C 18.425781 24.238281 18.386719 24.339844 18.386719 24.457031 C 18.386719 24.574219 18.425781 24.675781 18.511719 24.761719 C 18.59375 24.84375 18.695312 24.886719 18.816406 24.886719 L 25.023438 24.886719 C 25.140625 24.886719 25.238281 24.84375 25.320312 24.757812 C 25.40625 24.675781 25.445312 24.574219 25.445312 24.457031 C 25.445312 24.339844 25.40625 24.238281 25.320312 24.15625 C 25.238281 24.070312 25.140625 24.027344 25.023438 24.027344 Z M 26.796875 20.515625 L 17.039062 20.515625 C 16.921875 20.519531 16.820312 20.5625 16.738281 20.644531 C 16.65625 20.726562 16.613281 20.828125 16.613281 20.945312 C 16.613281 21.0625 16.65625 21.164062 16.738281 21.25 C 16.820312 21.332031 16.921875 21.375 17.039062 21.378906 L 26.796875 21.378906 C 26.914062 21.375 27.015625 21.332031 27.097656 21.25 C 27.179688 21.164062 27.222656 21.0625 27.222656 20.945312 C 27.222656 20.828125 27.179688 20.726562 27.097656 20.644531 C 27.015625 20.5625 26.914062 20.519531 26.796875 20.515625 Z M 26.796875 20.515625 L 17.039062 20.515625 C 16.921875 20.519531 16.820312 20.5625 16.738281 20.644531 C 16.65625 20.726562 16.613281 20.828125 16.613281 20.945312 C 16.613281 21.0625 16.65625 21.164062 16.738281 21.25 C 16.820312 21.332031 16.921875 21.375 17.039062 21.378906 L 26.796875 21.378906 C 26.914062 21.375 27.015625 21.332031 27.097656 21.25 C 27.179688 21.164062 27.222656 21.0625 27.222656 20.945312 C 27.222656 20.828125 27.179688 20.726562 27.097656 20.644531 C 27.015625 20.5625 26.914062 20.519531 26.796875 20.515625 Z M 25.023438 24.027344 L 18.816406 24.027344 C 18.695312 24.027344 18.59375 24.070312 18.511719 24.152344 C 18.425781 24.238281 18.386719 24.339844 18.386719 24.457031 C 18.386719 24.574219 18.425781 24.675781 18.511719 24.761719 C 18.59375 24.84375 18.695312 24.886719 18.816406 24.886719 L 25.023438 24.886719 C 25.140625 24.886719 25.238281 24.84375 25.320312 24.757812 C 25.40625 24.675781 25.445312 24.574219 25.445312 24.457031 C 25.445312 24.339844 25.40625 24.238281 25.320312 24.15625 C 25.238281 24.070312 25.140625 24.027344 25.023438 24.027344 Z M 25.023438 24.027344 L 18.816406 24.027344 C 18.695312 24.027344 18.59375 24.070312 18.511719 24.152344 C 18.425781 24.238281 18.386719 24.339844 18.386719 24.457031 C 18.386719 24.574219 18.425781 24.675781 18.511719 24.761719 C 18.59375 24.84375 18.695312 24.886719 18.816406 24.886719 L 25.023438 24.886719 C 25.140625 24.886719 25.238281 24.84375 25.320312 24.757812 C 25.40625 24.675781 25.445312 24.574219 25.445312 24.457031 C 25.445312 24.339844 25.40625 24.238281 25.320312 24.15625 C 25.238281 24.070312 25.140625 24.027344 25.023438 24.027344 Z M 26.796875 20.515625 L 17.039062 20.515625 C 16.921875 20.519531 16.820312 20.5625 16.738281 20.644531 C 16.65625 20.726562 16.613281 20.828125 16.613281 20.945312 C 16.613281 21.0625 16.65625 21.164062 16.738281 21.25 C 16.820312 21.332031 16.921875 21.375 17.039062 21.378906 L 26.796875 21.378906 C 26.914062 21.375 27.015625 21.332031 27.097656 21.25 C 27.179688 21.164062 27.222656 21.0625 27.222656 20.945312 C 27.222656 20.828125 27.179688 20.726562 27.097656 20.644531 C 27.015625 20.5625 26.914062 20.519531 26.796875 20.515625 Z M 26.796875 20.515625 L 17.039062 20.515625 C 16.921875 20.519531 16.820312 20.5625 16.738281 20.644531 C 16.65625 20.726562 16.613281 20.828125 16.613281 20.945312 C 16.613281 21.0625 16.65625 21.164062 16.738281 21.25 C 16.820312 21.332031 16.921875 21.375 17.039062 21.378906 L 26.796875 21.378906 C 26.914062 21.375 27.015625 21.332031 27.097656 21.25 C 27.179688 21.164062 27.222656 21.0625 27.222656 20.945312 C 27.222656 20.828125 27.179688 20.726562 27.097656 20.644531 C 27.015625 20.5625 26.914062 20.519531 26.796875 20.515625 Z M 25.023438 24.027344 L 18.816406 24.027344 C 18.695312 24.027344 18.59375 24.070312 18.511719 24.152344 C 18.425781 24.238281 18.386719 24.339844 18.386719 24.457031 C 18.386719 24.574219 18.425781 24.675781 18.511719 24.761719 C 18.59375 24.84375 18.695312 24.886719 18.816406 24.886719 L 25.023438 24.886719 C 25.140625 24.886719 25.238281 24.84375 25.320312 24.757812 C 25.40625 24.675781 25.445312 24.574219 25.445312 24.457031 C 25.445312 24.339844 25.40625 24.238281 25.320312 24.15625 C 25.238281 24.070312 25.140625 24.027344 25.023438 24.027344 Z M 25.023438 24.027344 L 18.816406 24.027344 C 18.695312 24.027344 18.59375 24.070312 18.511719 24.152344 C 18.425781 24.238281 18.386719 24.339844 18.386719 24.457031 C 18.386719 24.574219 18.425781 24.675781 18.511719 24.761719 C 18.59375 24.84375 18.695312 24.886719 18.816406 24.886719 L 25.023438 24.886719 C 25.140625 24.886719 25.238281 24.84375 25.320312 24.757812 C 25.40625 24.675781 25.445312 24.574219 25.445312 24.457031 C 25.445312 24.339844 25.40625 24.238281 25.320312 24.15625 C 25.238281 24.070312 25.140625 24.027344 25.023438 24.027344 Z M 26.796875 20.515625 L 17.039062 20.515625 C 16.921875 20.519531 16.820312 20.5625 16.738281 20.644531 C 16.65625 20.726562 16.613281 20.828125 16.613281 20.945312 C 16.613281 21.0625 16.65625 21.164062 16.738281 21.25 C 16.820312 21.332031 16.921875 21.375 17.039062 21.378906 L 26.796875 21.378906 C 26.914062 21.375 27.015625 21.332031 27.097656 21.25 C 27.179688 21.164062 27.222656 21.0625 27.222656 20.945312 C 27.222656 20.828125 27.179688 20.726562 27.097656 20.644531 C 27.015625 20.5625 26.914062 20.519531 26.796875 20.515625 Z M 26.796875 20.515625 L 17.039062 20.515625 C 16.921875 20.519531 16.820312 20.5625 16.738281 20.644531 C 16.65625 20.726562 16.613281 20.828125 16.613281 20.945312 C 16.613281 21.0625 16.65625 21.164062 16.738281 21.25 C 16.820312 21.332031 16.921875 21.375 17.039062 21.378906 L 26.796875 21.378906 C 26.914062 21.375 27.015625 21.332031 27.097656 21.25 C 27.179688 21.164062 27.222656 21.0625 27.222656 20.945312 C 27.222656 20.828125 27.179688 20.726562 27.097656 20.644531 C 27.015625 20.5625 26.914062 20.519531 26.796875 20.515625 Z M 25.023438 24.027344 L 18.816406 24.027344 C 18.695312 24.027344 18.59375 24.070312 18.511719 24.152344 C 18.425781 24.238281 18.386719 24.339844 18.386719 24.457031 C 18.386719 24.574219 18.425781 24.675781 18.511719 24.761719 C 18.59375 24.84375 18.695312 24.886719 18.816406 24.886719 L 25.023438 24.886719 C 25.140625 24.886719 25.238281 24.84375 25.320312 24.757812 C 25.40625 24.675781 25.445312 24.574219 25.445312 24.457031 C 25.445312 24.339844 25.40625 24.238281 25.320312 24.15625 C 25.238281 24.070312 25.140625 24.027344 25.023438 24.027344 Z M 25.023438 24.027344 L 18.816406 24.027344 C 18.695312 24.027344 18.59375 24.070312 18.511719 24.152344 C 18.425781 24.238281 18.386719 24.339844 18.386719 24.457031 C 18.386719 24.574219 18.425781 24.675781 18.511719 24.761719 C 18.59375 24.84375 18.695312 24.886719 18.816406 24.886719 L 25.023438 24.886719 C 25.140625 24.886719 25.238281 24.84375 25.320312 24.757812 C 25.40625 24.675781 25.445312 24.574219 25.445312 24.457031 C 25.445312 24.339844 25.40625 24.238281 25.320312 24.15625 C 25.238281 24.070312 25.140625 24.027344 25.023438 24.027344 Z M 26.796875 20.515625 L 17.039062 20.515625 C 16.921875 20.519531 16.820312 20.5625 16.738281 20.644531 C 16.65625 20.726562 16.613281 20.828125 16.613281 20.945312 C 16.613281 21.0625 16.65625 21.164062 16.738281 21.25 C 16.820312 21.332031 16.921875 21.375 17.039062 21.378906 L 26.796875 21.378906 C 26.914062 21.375 27.015625 21.332031 27.097656 21.25 C 27.179688 21.164062 27.222656 21.0625 27.222656 20.945312 C 27.222656 20.828125 27.179688 20.726562 27.097656 20.644531 C 27.015625 20.5625 26.914062 20.519531 26.796875 20.515625 Z M 26.796875 20.515625 L 17.039062 20.515625 C 16.921875 20.519531 16.820312 20.5625 16.738281 20.644531 C 16.65625 20.726562 16.613281 20.828125 16.613281 20.945312 C 16.613281 21.0625 16.65625 21.164062 16.738281 21.25 C 16.820312 21.332031 16.921875 21.375 17.039062 21.378906 L 26.796875 21.378906 C 26.914062 21.375 27.015625 21.332031 27.097656 21.25 C 27.179688 21.164062 27.222656 21.0625 27.222656 20.945312 C 27.222656 20.828125 27.179688 20.726562 27.097656 20.644531 C 27.015625 20.5625 26.914062 20.519531 26.796875 20.515625 Z M 25.023438 24.027344 L 18.816406 24.027344 C 18.695312 24.027344 18.59375 24.070312 18.511719 24.152344 C 18.425781 24.238281 18.386719 24.339844 18.386719 24.457031 C 18.386719 24.574219 18.425781 24.675781 18.511719 24.761719 C 18.59375 24.84375 18.695312 24.886719 18.816406 24.886719 L 25.023438 24.886719 C 25.140625 24.886719 25.238281 24.84375 25.320312 24.757812 C 25.40625 24.675781 25.445312 24.574219 25.445312 24.457031 C 25.445312 24.339844 25.40625 24.238281 25.320312 24.15625 C 25.238281 24.070312 25.140625 24.027344 25.023438 24.027344 Z M 25.023438 24.027344 " fill-opacity="1" fill-rule="nonzero"/></g></svg>