<svg xmlns="http://www.w3.org/2000/svg" xmlns:xlink="http://www.w3.org/1999/xlink" width="64" zoomAndPan="magnify" viewBox="0 0 48 48" height="64" preserveAspectRatio="xMidYMid meet" version="1.0"><defs><clipPath id="695f55abc8"><path d="M 0.488281 0 L 47.507812 0 L 47.507812 47.019531 L 0.488281 47.019531 Z M 0.488281 0 " clip-rule="nonzero"/></clipPath><clipPath id="991258560c"><path d="M 11.121094 3.25 L 36.835938 3.25 L 36.835938 40.722656 L 11.121094 40.722656 Z M 11.121094 3.25 " clip-rule="nonzero"/></clipPath></defs><g clip-path="url(#695f55abc8)"><path fill="#ffffff" d="M 0.488281 0 L 47.511719 0 L 47.511719 47.019531 L 0.488281 47.019531 Z M 0.488281 0 " fill-opacity="1" fill-rule="nonzero"/><path fill="#ffffff" d="M 0.488281 0 L 47.511719 0 L 47.511719 47.019531 L 0.488281 47.019531 Z M 0.488281 0 " fill-opacity="1" fill-rule="nonzero"/></g><g clip-path="url(#991258560c)"><path fill="#370909" d="M 14.632812 39.992188 L 33.367188 39.992188 L 33.367188 40.984375 L 14.632812 40.984375 Z M 24 29.105469 C 26.34375 29.105469 28.246094 31.007812 28.246094 33.355469 C 28.246094 35.699219 26.34375 37.601562 24 37.601562 C 21.652344 37.601562 19.75 35.699219 19.75 33.355469 C 19.75 31.007812 21.652344 29.105469 24 29.105469 Z M 25.617188 31.628906 L 27.339844 33.355469 L 25.617188 35.078125 L 25.117188 34.578125 L 26.34375 33.355469 L 25.117188 32.128906 Z M 22.878906 32.128906 L 21.65625 33.355469 L 22.878906 34.578125 L 22.378906 35.078125 L 20.65625 33.355469 L 22.378906 31.628906 Z M 25.027344 31.6875 L 23.625 35.277344 L 22.96875 35.023438 L 24.371094 31.429688 Z M 30.253906 15.40625 L 29.492188 15.40625 C 29.476562 17.253906 28.535156 18.886719 27.117188 19.875 L 27.777344 21.003906 L 24.1875 23.550781 L 26.675781 26.601562 L 29.324219 21.578125 C 33.496094 21.695312 36.875 25.144531 36.875 29.34375 L 36.875 34.707031 L 33.941406 34.707031 L 32.859375 39.558594 L 15.136719 39.558594 L 14.058594 34.707031 L 11.121094 34.707031 L 11.121094 29.34375 C 11.121094 25.144531 14.5 21.695312 18.675781 21.578125 L 21.324219 26.601562 L 23.8125 23.550781 L 20.222656 21.003906 L 20.878906 19.875 C 19.464844 18.890625 18.53125 17.257812 18.503906 15.40625 L 17.746094 15.40625 C 16.375 15.40625 15.707031 13.746094 16.664062 12.789062 L 16.734375 7.976562 C 16.757812 6.636719 20.535156 4.234375 21.738281 3.863281 C 23.730469 3.25 30.03125 3.304688 29.882812 3.414062 C 28.996094 4.09375 28.65625 4.835938 28.9375 5.644531 C 29.113281 6.152344 30.660156 6.511719 31.101562 7.03125 C 31.679688 7.707031 31.515625 11.847656 31.527344 12.972656 C 32.238281 13.847656 31.519531 15.40625 30.253906 15.40625 Z M 33.199219 28.089844 L 14.800781 28.089844 C 14.222656 28.089844 13.746094 28.546875 13.726562 29.125 L 15.855469 38.660156 L 32.140625 38.660156 L 34.273438 29.125 C 34.253906 28.546875 33.777344 28.089844 33.199219 28.089844 Z M 33.199219 28.089844 " fill-opacity="1" fill-rule="evenodd"/></g></svg>