<svg xmlns="http://www.w3.org/2000/svg" xmlns:xlink="http://www.w3.org/1999/xlink" width="64" zoomAndPan="magnify" viewBox="0 0 48 48" height="64" preserveAspectRatio="xMidYMid meet" version="1.0"><defs><clipPath id="7adfda2134"><path d="M 0.488281 0 L 47.507812 0 L 47.507812 47.019531 L 0.488281 47.019531 Z M 0.488281 0 " clip-rule="nonzero"/></clipPath><clipPath id="811198e3c0"><path d="M 9.894531 7.09375 L 42.957031 7.09375 L 42.957031 40 L 9.894531 40 Z M 9.894531 7.09375 " clip-rule="nonzero"/></clipPath></defs><g clip-path="url(#7adfda2134)"><path fill="#ffffff" d="M 0.488281 0 L 47.511719 0 L 47.511719 47.019531 L 0.488281 47.019531 Z M 0.488281 0 " fill-opacity="1" fill-rule="nonzero"/><path fill="#ffffff" d="M 0.488281 0 L 47.511719 0 L 47.511719 47.019531 L 0.488281 47.019531 Z M 0.488281 0 " fill-opacity="1" fill-rule="nonzero"/></g><g clip-path="url(#811198e3c0)"><path fill="#370909" d="M 23.414062 7.09375 C 15.949219 7.09375 9.894531 13.148438 9.894531 20.613281 C 9.894531 28.078125 15.949219 34.132812 23.414062 34.132812 C 25.023438 34.132812 26.5625 33.851562 27.992188 33.335938 C 27.8125 33.054688 27.730469 32.742188 27.683594 32.402344 C 27.667969 32.304688 27.65625 32.128906 27.632812 32.015625 C 27.546875 31.9375 27.398438 31.835938 27.316406 31.773438 C 26.992188 31.519531 26.722656 31.234375 26.578125 30.835938 C 26.433594 30.4375 26.460938 30.050781 26.546875 29.644531 C 26.570312 29.546875 26.617188 29.375 26.632812 29.261719 C 26.589844 29.175781 26.503906 29.058594 26.457031 28.988281 C 26.277344 28.703125 26.128906 28.425781 26.066406 28.085938 C 26.035156 27.894531 26.035156 27.703125 26.066406 27.519531 L 16.105469 27.519531 C 16.105469 23.484375 19.378906 20.210938 23.414062 20.210938 C 25.246094 20.210938 26.917969 20.882812 28.203125 21.996094 C 28.460938 21.726562 28.78125 21.574219 29.136719 21.457031 C 29.234375 21.425781 29.40625 21.382812 29.511719 21.339844 C 29.574219 21.242188 29.644531 21.078125 29.695312 20.988281 C 29.886719 20.621094 30.121094 20.308594 30.488281 20.097656 C 30.855469 19.886719 31.242188 19.84375 31.65625 19.859375 C 31.753906 19.863281 31.929688 19.878906 32.046875 19.875 C 32.140625 19.800781 32.261719 19.675781 32.339844 19.605469 C 32.648438 19.332031 32.972656 19.117188 33.390625 19.042969 C 33.804688 18.96875 34.183594 19.058594 34.570312 19.214844 C 34.664062 19.25 34.824219 19.328125 34.933594 19.363281 C 35.046875 19.332031 35.203125 19.253906 35.296875 19.214844 C 35.679688 19.0625 36.058594 18.96875 36.476562 19.042969 C 36.613281 19.066406 36.738281 19.105469 36.855469 19.15625 C 36.128906 12.375 30.386719 7.09375 23.414062 7.09375 Z M 33.246094 36.519531 L 31.660156 39.925781 L 30.296875 37.578125 L 27.621094 38.042969 L 29.402344 34.214844 C 29.445312 34.230469 29.480469 34.242188 29.515625 34.253906 C 29.578125 34.351562 29.648438 34.515625 29.695312 34.605469 C 29.890625 34.96875 30.121094 35.285156 30.488281 35.496094 C 30.855469 35.707031 31.242188 35.75 31.65625 35.734375 C 31.753906 35.730469 31.929688 35.714844 32.046875 35.71875 C 32.140625 35.789062 32.261719 35.917969 32.339844 35.988281 C 32.609375 36.230469 32.894531 36.429688 33.246094 36.519531 Z M 40.851562 34.09375 L 42.246094 37.328125 L 39.582031 36.78125 L 38.152344 39.089844 L 36.984375 36.378906 C 37.179688 36.277344 37.355469 36.140625 37.527344 35.988281 C 37.605469 35.917969 37.726562 35.792969 37.820312 35.71875 C 37.933594 35.714844 38.109375 35.734375 38.210938 35.734375 C 38.625 35.75 39.011719 35.707031 39.378906 35.496094 C 39.746094 35.285156 39.976562 34.972656 40.171875 34.605469 C 40.21875 34.515625 40.289062 34.351562 40.355469 34.253906 C 40.460938 34.210938 40.632812 34.167969 40.726562 34.136719 C 40.769531 34.121094 40.8125 34.109375 40.851562 34.09375 Z M 42.71875 27.695312 C 42.804688 28.179688 42.234375 28.597656 42.152344 29.070312 C 42.074219 29.515625 42.40625 30.0625 42.257812 30.464844 C 42.109375 30.867188 41.5 31.074219 41.277344 31.460938 C 41.054688 31.847656 41.179688 32.480469 40.902344 32.808594 C 40.628906 33.132812 39.988281 33.121094 39.644531 33.410156 C 39.300781 33.699219 39.203125 34.332031 38.832031 34.550781 C 38.464844 34.761719 37.859375 34.53125 37.441406 34.683594 C 37.027344 34.832031 36.714844 35.398438 36.285156 35.472656 C 35.855469 35.550781 35.371094 35.125 34.933594 35.125 C 34.484375 35.125 33.996094 35.546875 33.578125 35.476562 C 33.152344 35.398438 32.84375 34.835938 32.425781 34.683594 C 32.003906 34.53125 31.40625 34.761719 31.035156 34.546875 C 30.664062 34.332031 30.566406 33.699219 30.222656 33.410156 C 29.878906 33.125 29.238281 33.136719 28.960938 32.808594 C 28.6875 32.480469 28.8125 31.851562 28.585938 31.460938 C 28.363281 31.078125 27.753906 30.871094 27.605469 30.464844 C 27.460938 30.066406 27.796875 29.519531 27.714844 29.070312 C 27.644531 28.65625 27.214844 28.285156 27.144531 27.898438 C 27.0625 27.414062 27.632812 26.996094 27.714844 26.523438 C 27.792969 26.078125 27.460938 25.53125 27.605469 25.128906 C 27.753906 24.726562 28.363281 24.519531 28.585938 24.132812 C 28.808594 23.746094 28.6875 23.113281 28.960938 22.785156 C 29.234375 22.460938 29.878906 22.472656 30.222656 22.183594 C 30.5625 21.894531 30.660156 21.261719 31.035156 21.042969 C 31.402344 20.832031 32.003906 21.0625 32.425781 20.910156 C 32.839844 20.761719 33.148438 20.195312 33.578125 20.121094 C 34.007812 20.046875 34.492188 20.46875 34.933594 20.46875 C 35.382812 20.46875 35.871094 20.046875 36.285156 20.117188 C 36.710938 20.195312 37.019531 20.757812 37.4375 20.910156 C 37.859375 21.0625 38.460938 20.832031 38.832031 21.046875 C 39.199219 21.261719 39.300781 21.898438 39.644531 22.183594 C 39.984375 22.46875 40.628906 22.457031 40.90625 22.785156 C 41.179688 23.113281 41.054688 23.742188 41.28125 24.132812 C 41.5 24.515625 42.109375 24.722656 42.257812 25.128906 C 42.402344 25.527344 42.070312 26.074219 42.148438 26.523438 C 42.222656 26.9375 42.652344 27.308594 42.71875 27.695312 Z M 34.933594 21.9375 C 36.550781 21.9375 38.015625 22.59375 39.074219 23.652344 C 40.136719 24.714844 40.792969 26.179688 40.792969 27.796875 C 40.792969 29.414062 40.136719 30.878906 39.074219 31.941406 C 38.015625 33 36.550781 33.65625 34.933594 33.65625 C 33.316406 33.65625 31.851562 33 30.789062 31.941406 C 29.730469 30.878906 29.074219 29.414062 29.074219 27.796875 C 29.074219 26.179688 29.730469 24.714844 30.789062 23.652344 C 31.851562 22.59375 33.316406 21.9375 34.933594 21.9375 Z M 38.300781 24.425781 C 39.164062 25.289062 39.699219 26.480469 39.699219 27.796875 C 39.699219 29.113281 39.164062 30.304688 38.300781 31.167969 C 37.441406 32.027344 36.25 32.5625 34.933594 32.5625 C 33.617188 32.5625 32.425781 32.027344 31.5625 31.167969 C 30.699219 30.304688 30.167969 29.113281 30.167969 27.796875 C 30.167969 26.480469 30.699219 25.289062 31.5625 24.425781 C 32.425781 23.566406 33.617188 23.03125 34.933594 23.03125 C 36.25 23.03125 37.441406 23.566406 38.300781 24.425781 Z M 34.933594 24.277344 L 35.832031 26.480469 L 38.210938 26.65625 L 36.390625 28.195312 L 36.957031 30.511719 L 34.933594 29.253906 L 32.90625 30.511719 L 33.476562 28.195312 L 31.65625 26.65625 L 34.03125 26.480469 Z M 23.414062 12.132812 C 25.457031 12.132812 27.113281 13.789062 27.113281 15.832031 C 27.113281 17.871094 25.457031 19.527344 23.414062 19.527344 C 21.375 19.527344 19.71875 17.871094 19.71875 15.832031 C 19.71875 13.789062 21.375 12.132812 23.414062 12.132812 Z M 23.414062 12.132812 " fill-opacity="1" fill-rule="evenodd"/></g></svg>