<svg width="26" height="26" viewBox="0 0 26 26" fill="none" xmlns="http://www.w3.org/2000/svg">
<path d="M10.5241 4.18291C11.6381 2.30076 14.3619 2.30076 15.4759 4.18291V4.18291C16.0671 5.18162 17.2004 5.72739 18.3498 5.56688V5.56688C20.5159 5.26439 22.2141 7.39387 21.4372 9.43839V9.43839C21.0249 10.5233 21.3048 11.7496 22.147 12.5481V12.5481C23.734 14.0531 23.1279 16.7085 21.0451 17.3758V17.3758C19.9399 17.7299 19.1556 18.7134 19.0563 19.8697V19.8697C18.8692 22.0488 16.4152 23.2306 14.5949 22.0182V22.0182C13.6289 21.3749 12.3711 21.3749 11.4051 22.0182V22.0182C9.58476 23.2306 7.13079 22.0488 6.94368 19.8697V19.8697C6.84439 18.7134 6.06013 17.7299 4.95492 17.3758V17.3758C2.87205 16.7085 2.26597 14.0531 3.85303 12.5481V12.5481C4.69516 11.7496 4.97506 10.5233 4.56281 9.43839V9.43839C3.7859 7.39387 5.4841 5.26439 7.65024 5.56688V5.56688C8.79963 5.72739 9.93293 5.18162 10.5241 4.18291V4.18291Z" fill="#20A164"/>
<path d="M16.4976 10.0327C16.4014 9.94219 16.2512 9.94222 16.155 10.0328L11.7999 14.1322L9.53366 11.9993C9.4374 11.9087 9.28724 11.9087 9.19098 11.9993L8.49467 12.6547C8.44448 12.7019 8.41602 12.7678 8.41602 12.8367C8.41602 12.9057 8.44448 12.9715 8.49467 13.0188L11.6285 15.9683C11.7248 16.0589 11.875 16.0589 11.9712 15.9683L17.1945 11.0522C17.2447 11.005 17.2732 10.9391 17.2732 10.8702C17.2731 10.8012 17.2447 10.7353 17.1944 10.6881L16.4976 10.0327Z" fill="white" stroke="white" stroke-width="0.5" stroke-linejoin="round"/>
</svg>
