<svg xmlns="http://www.w3.org/2000/svg" xmlns:xlink="http://www.w3.org/1999/xlink" width="290" zoomAndPan="magnify" viewBox="0 0 217.5 31.5" height="42" preserveAspectRatio="xMidYMid meet" version="1.0"><defs><clipPath id="ddb088342c"><path d="M 1.453125 0 L 27 0 L 27 31.007812 L 1.453125 31.007812 Z M 1.453125 0 " clip-rule="nonzero"/></clipPath></defs><g clip-path="url(#ddb088342c)"><path fill="#ffffff" d="M 13.757812 31.527344 L 13.566406 31.425781 C 13.492188 31.386719 1.398438 25.082031 1.367188 10.382812 L 1.367188 0.121094 L 26.859375 0.121094 L 26.859375 10.382812 C 26.832031 25.082031 14.742188 31.386719 14.652344 31.433594 L 14.113281 31.714844 Z M 13.757812 31.527344 " fill-opacity="1" fill-rule="nonzero"/></g><path fill="#050505" d="M 2.140625 0.890625 L 2.140625 9.226562 L 26.09375 9.226562 L 26.09375 0.890625 Z M 22.796875 3.136719 C 22.882812 3.144531 22.957031 3.144531 23.019531 3.144531 C 23.0625 3.144531 23.101562 3.183594 23.101562 3.210938 L 23.101562 6.929688 L 22.789062 6.664062 C 22.800781 6.644531 22.808594 6.621094 22.808594 6.589844 L 22.808594 3.1875 C 22.804688 3.167969 22.800781 3.152344 22.796875 3.136719 Z M 23.007812 6.996094 L 21.117188 6.996094 C 21.097656 6.894531 21.039062 6.804688 20.949219 6.75 L 22.648438 6.75 C 22.667969 6.75 22.683594 6.746094 22.703125 6.738281 Z M 18.929688 3.195312 C 18.945312 3.175781 19.058594 3.128906 19.082031 3.132812 C 19.101562 3.132812 19.121094 3.132812 19.140625 3.132812 L 19.15625 3.132812 C 19.5 3.132812 19.90625 3.15625 20.222656 3.273438 C 20.539062 3.398438 20.753906 3.589844 20.753906 3.953125 L 20.867188 3.953125 C 20.871094 3.589844 21.082031 3.398438 21.402344 3.273438 C 21.714844 3.15625 22.125 3.132812 22.464844 3.132812 L 22.503906 3.132812 C 22.519531 3.132812 22.535156 3.132812 22.550781 3.132812 C 22.5625 3.132812 22.609375 3.148438 22.648438 3.160156 C 22.667969 3.171875 22.683594 3.183594 22.691406 3.1875 C 22.691406 3.191406 22.695312 3.195312 22.695312 3.195312 L 22.695312 6.589844 C 22.695312 6.617188 22.671875 6.636719 22.648438 6.636719 L 18.972656 6.636719 C 18.949219 6.636719 18.929688 6.617188 18.929688 6.589844 Z M 18.972656 6.75 L 20.578125 6.75 C 20.492188 6.804688 20.425781 6.894531 20.410156 7 L 18.597656 7 C 18.589844 7 18.585938 6.996094 18.578125 6.996094 L 18.894531 6.730469 C 18.917969 6.742188 18.945312 6.75 18.972656 6.75 Z M 18.527344 3.210938 C 18.527344 3.183594 18.558594 3.144531 18.601562 3.144531 C 18.664062 3.144531 18.742188 3.144531 18.832031 3.136719 C 18.820312 3.152344 18.816406 3.167969 18.8125 3.1875 L 18.8125 6.589844 C 18.8125 6.609375 18.816406 6.625 18.824219 6.640625 L 18.527344 6.894531 Z M 16.371094 3.148438 C 16.414062 3.148438 16.453125 3.191406 16.453125 3.21875 L 16.453125 6.910156 L 16.148438 6.65625 C 16.15625 6.636719 16.160156 6.621094 16.160156 6.597656 L 16.160156 3.195312 C 16.15625 3.175781 16.152344 3.160156 16.148438 3.148438 C 16.234375 3.148438 16.3125 3.148438 16.371094 3.148438 Z M 16.382812 7.003906 C 16.382812 7.003906 16.378906 7.003906 16.375 7.003906 L 14.46875 7.003906 C 14.453125 6.902344 14.394531 6.8125 14.308594 6.753906 L 16 6.753906 C 16.023438 6.753906 16.046875 6.75 16.070312 6.738281 Z M 14.21875 3.84375 C 14.21875 3.527344 14.386719 3.359375 14.632812 3.257812 C 14.878906 3.152344 15.199219 3.132812 15.464844 3.132812 C 15.640625 3.132812 15.792969 3.136719 15.894531 3.136719 C 15.90625 3.136719 15.957031 3.148438 15.996094 3.167969 C 16.015625 3.175781 16.03125 3.1875 16.042969 3.195312 L 16.046875 3.199219 L 16.046875 6.597656 C 16.046875 6.621094 16.023438 6.640625 16 6.640625 L 14.21875 6.640625 Z M 12.277344 3.199219 C 12.289062 3.195312 12.3125 3.175781 12.34375 3.160156 C 12.378906 3.148438 12.421875 3.140625 12.4375 3.140625 C 12.539062 3.140625 12.691406 3.132812 12.871094 3.132812 C 13.136719 3.132812 13.453125 3.15625 13.699219 3.257812 C 13.941406 3.363281 14.105469 3.527344 14.105469 3.84375 L 14.105469 6.640625 L 12.328125 6.640625 C 12.300781 6.640625 12.277344 6.621094 12.277344 6.597656 Z M 12.328125 6.753906 L 13.917969 6.753906 C 13.832031 6.8125 13.777344 6.902344 13.761719 7.003906 L 11.949219 7.003906 C 11.941406 7.003906 11.933594 7.003906 11.925781 7 L 12.246094 6.734375 C 12.269531 6.75 12.296875 6.753906 12.328125 6.753906 Z M 11.875 3.21875 C 11.875 3.191406 11.910156 3.148438 11.953125 3.148438 C 12.015625 3.148438 12.089844 3.148438 12.179688 3.148438 C 12.171875 3.160156 12.167969 3.175781 12.164062 3.191406 L 12.164062 6.597656 C 12.164062 6.613281 12.167969 6.628906 12.175781 6.644531 L 11.875 6.898438 Z M 9.496094 3.148438 C 9.585938 3.148438 9.660156 3.148438 9.722656 3.148438 C 9.765625 3.148438 9.800781 3.191406 9.800781 3.21875 L 9.800781 6.917969 L 9.496094 6.660156 C 9.503906 6.640625 9.511719 6.617188 9.511719 6.597656 L 9.511719 3.191406 C 9.511719 3.175781 9.503906 3.160156 9.496094 3.148438 Z M 9.730469 7.003906 L 7.816406 7.003906 C 7.804688 6.902344 7.746094 6.8125 7.660156 6.753906 L 9.351562 6.753906 C 9.375 6.753906 9.398438 6.75 9.417969 6.742188 Z M 7.570312 3.84375 C 7.570312 3.527344 7.738281 3.359375 7.984375 3.257812 C 8.230469 3.152344 8.550781 3.132812 8.820312 3.132812 C 8.992188 3.132812 9.144531 3.136719 9.242188 3.136719 C 9.253906 3.136719 9.308594 3.148438 9.347656 3.167969 C 9.367188 3.175781 9.382812 3.1875 9.394531 3.195312 L 9.398438 3.199219 L 9.398438 6.597656 C 9.398438 6.621094 9.375 6.640625 9.351562 6.640625 L 7.570312 6.640625 Z M 5.628906 3.199219 C 5.636719 3.195312 5.664062 3.175781 5.695312 3.160156 C 5.730469 3.148438 5.777344 3.140625 5.789062 3.140625 C 5.890625 3.140625 6.039062 3.132812 6.222656 3.132812 C 6.488281 3.132812 6.804688 3.15625 7.046875 3.257812 C 7.289062 3.363281 7.453125 3.527344 7.457031 3.84375 L 7.457031 6.640625 L 5.675781 6.640625 C 5.648438 6.640625 5.628906 6.621094 5.628906 6.597656 Z M 5.675781 6.753906 L 7.269531 6.753906 C 7.183594 6.8125 7.128906 6.902344 7.113281 7.003906 L 5.300781 7.003906 C 5.289062 7.003906 5.277344 7.003906 5.269531 7 L 5.585938 6.726562 C 5.613281 6.746094 5.644531 6.753906 5.675781 6.753906 Z M 5.226562 3.21875 C 5.226562 3.191406 5.261719 3.148438 5.304688 3.148438 C 5.367188 3.148438 5.441406 3.148438 5.527344 3.148438 C 5.523438 3.160156 5.519531 3.171875 5.515625 3.195312 L 5.515625 6.597656 C 5.515625 6.609375 5.519531 6.621094 5.523438 6.636719 L 5.226562 6.886719 Z M 4.828125 7.277344 C 4.769531 7.277344 4.722656 7.230469 4.722656 7.171875 L 4.722656 6.617188 C 4.566406 6.597656 4.445312 6.5 4.445312 6.382812 C 4.445312 6.269531 4.566406 6.171875 4.722656 6.148438 L 4.722656 4.351562 C 4.566406 4.328125 4.445312 4.234375 4.445312 4.121094 C 4.445312 4.003906 4.566406 3.910156 4.722656 3.886719 L 4.722656 3.175781 C 4.722656 3.117188 4.769531 3.070312 4.828125 3.070312 L 5.140625 3.132812 C 5.125 3.15625 5.113281 3.183594 5.113281 3.21875 L 5.113281 6.945312 C 5.113281 7.046875 5.203125 7.121094 5.300781 7.121094 L 7.113281 7.121094 C 7.121094 7.179688 7.148438 7.234375 7.183594 7.277344 Z M 7.570312 7.277344 L 7.359375 7.277344 C 7.277344 7.238281 7.222656 7.152344 7.21875 7.054688 C 7.222656 6.921875 7.328125 6.8125 7.464844 6.8125 C 7.601562 6.8125 7.710938 6.921875 7.710938 7.054688 C 7.710938 7.152344 7.652344 7.238281 7.570312 7.277344 Z M 10.457031 6.382812 C 10.457031 6.5 10.339844 6.59375 10.183594 6.617188 L 10.183594 7.171875 C 10.183594 7.226562 10.136719 7.277344 10.078125 7.277344 L 7.746094 7.277344 C 7.78125 7.234375 7.804688 7.179688 7.816406 7.121094 L 9.726562 7.121094 C 9.824219 7.121094 9.914062 7.046875 9.914062 6.945312 L 9.914062 3.21875 C 9.914062 3.175781 9.898438 3.136719 9.875 3.109375 L 10.078125 3.070312 C 10.136719 3.070312 10.179688 3.117188 10.179688 3.175781 L 10.179688 3.886719 C 10.335938 3.910156 10.457031 4.003906 10.457031 4.121094 C 10.457031 4.234375 10.335938 4.328125 10.179688 4.351562 L 10.179688 6.148438 C 10.339844 6.171875 10.457031 6.269531 10.457031 6.382812 Z M 11.472656 7.277344 C 11.417969 7.277344 11.371094 7.230469 11.371094 7.171875 L 11.371094 6.617188 C 11.210938 6.597656 11.09375 6.5 11.09375 6.382812 C 11.09375 6.269531 11.210938 6.171875 11.371094 6.148438 L 11.371094 4.351562 C 11.210938 4.328125 11.09375 4.234375 11.09375 4.121094 C 11.09375 4.003906 11.210938 3.910156 11.371094 3.886719 L 11.371094 3.175781 C 11.371094 3.117188 11.417969 3.070312 11.472656 3.070312 L 11.785156 3.132812 C 11.773438 3.15625 11.761719 3.183594 11.761719 3.21875 L 11.761719 6.945312 C 11.761719 7.046875 11.851562 7.121094 11.949219 7.121094 L 13.761719 7.121094 C 13.773438 7.179688 13.796875 7.234375 13.832031 7.277344 Z M 14.21875 7.277344 L 14.007812 7.277344 C 13.925781 7.238281 13.867188 7.152344 13.867188 7.054688 C 13.867188 6.921875 13.976562 6.8125 14.113281 6.8125 C 14.25 6.8125 14.359375 6.921875 14.359375 7.054688 C 14.359375 7.152344 14.300781 7.238281 14.21875 7.277344 Z M 17.105469 6.382812 C 17.105469 6.5 16.988281 6.59375 16.832031 6.617188 L 16.832031 7.171875 C 16.832031 7.226562 16.785156 7.277344 16.726562 7.277344 L 14.394531 7.277344 C 14.429688 7.234375 14.453125 7.179688 14.464844 7.121094 L 16.375 7.121094 C 16.472656 7.121094 16.5625 7.046875 16.5625 6.945312 L 16.5625 3.21875 C 16.5625 3.175781 16.546875 3.136719 16.523438 3.109375 L 16.726562 3.070312 C 16.785156 3.070312 16.832031 3.117188 16.832031 3.175781 L 16.832031 3.886719 C 16.988281 3.910156 17.105469 4.003906 17.105469 4.121094 C 17.105469 4.234375 16.988281 4.328125 16.832031 4.351562 L 16.832031 6.148438 C 16.988281 6.171875 17.105469 6.269531 17.105469 6.382812 Z M 18.125 7.277344 C 18.070312 7.277344 18.019531 7.230469 18.019531 7.171875 L 18.019531 6.617188 C 17.859375 6.597656 17.742188 6.5 17.742188 6.382812 C 17.742188 6.269531 17.859375 6.171875 18.019531 6.148438 L 18.019531 4.351562 C 17.859375 4.328125 17.742188 4.234375 17.742188 4.121094 C 17.742188 4.003906 17.859375 3.910156 18.019531 3.886719 L 18.019531 3.175781 C 18.019531 3.117188 18.066406 3.070312 18.125 3.070312 L 18.433594 3.132812 C 18.417969 3.152344 18.414062 3.183594 18.410156 3.210938 L 18.410156 6.9375 C 18.414062 7.039062 18.5 7.109375 18.597656 7.109375 L 20.410156 7.109375 C 20.421875 7.175781 20.445312 7.230469 20.484375 7.277344 Z M 20.867188 7.277344 L 20.660156 7.277344 C 20.574219 7.238281 20.519531 7.152344 20.519531 7.054688 C 20.519531 6.921875 20.628906 6.8125 20.761719 6.8125 C 20.898438 6.8125 21.011719 6.921875 21.011719 7.054688 C 21.011719 7.152344 20.949219 7.238281 20.867188 7.277344 Z M 23.757812 6.382812 C 23.757812 6.5 23.636719 6.597656 23.476562 6.617188 L 23.476562 7.171875 C 23.476562 7.226562 23.433594 7.277344 23.375 7.277344 L 21.042969 7.277344 C 21.082031 7.230469 21.105469 7.175781 21.117188 7.109375 L 23.023438 7.109375 C 23.125 7.109375 23.214844 7.039062 23.214844 6.9375 L 23.214844 3.210938 C 23.214844 3.171875 23.199219 3.136719 23.179688 3.109375 L 23.375 3.070312 C 23.433594 3.070312 23.476562 3.117188 23.476562 3.175781 L 23.476562 3.886719 C 23.636719 3.910156 23.757812 4.003906 23.757812 4.121094 C 23.757812 4.234375 23.636719 4.328125 23.476562 4.351562 L 23.476562 6.148438 C 23.636719 6.171875 23.757812 6.269531 23.757812 6.382812 Z M 8.503906 5.742188 C 8.386719 5.742188 8.351562 5.714844 8.351562 5.605469 L 8.351562 5.007812 C 8.527344 5.007812 8.621094 5.082031 8.644531 5.390625 L 8.6875 5.390625 L 8.6875 4.558594 L 8.644531 4.558594 C 8.613281 4.863281 8.523438 4.929688 8.351562 4.925781 L 8.351562 4.351562 C 8.351562 4.246094 8.382812 4.238281 8.484375 4.238281 C 8.726562 4.238281 8.851562 4.300781 8.890625 4.648438 L 8.9375 4.648438 L 8.9375 4.152344 L 7.902344 4.152344 L 7.902344 4.214844 C 7.984375 4.222656 8.0625 4.226562 8.0625 4.390625 L 8.0625 5.585938 C 8.0625 5.730469 8.003906 5.742188 7.902344 5.757812 L 7.902344 5.820312 L 8.953125 5.820312 L 9.023438 5.304688 L 8.972656 5.304688 C 8.859375 5.679688 8.679688 5.742188 8.503906 5.742188 Z M 21.691406 5.691406 C 21.746094 5.691406 21.828125 5.777344 22 5.777344 C 22.328125 5.777344 22.441406 5.476562 22.441406 5.257812 C 22.441406 4.992188 22.308594 4.847656 22.246094 4.808594 L 21.984375 4.628906 C 21.832031 4.527344 21.796875 4.472656 21.796875 4.339844 C 21.796875 4.179688 21.898438 4.105469 21.988281 4.105469 C 22.199219 4.105469 22.308594 4.386719 22.339844 4.558594 L 22.390625 4.558594 L 22.390625 4.023438 L 22.339844 4.023438 C 22.328125 4.070312 22.320312 4.109375 22.277344 4.109375 C 22.226562 4.109375 22.140625 4.023438 22 4.023438 C 21.65625 4.023438 21.601562 4.359375 21.601562 4.511719 C 21.601562 4.625 21.601562 4.839844 21.910156 5.039062 L 22.03125 5.117188 C 22.144531 5.191406 22.230469 5.253906 22.230469 5.414062 C 22.230469 5.453125 22.222656 5.695312 22.007812 5.695312 C 21.777344 5.695312 21.675781 5.414062 21.636719 5.167969 L 21.585938 5.167969 L 21.585938 5.777344 L 21.636719 5.777344 C 21.644531 5.734375 21.652344 5.691406 21.691406 5.691406 Z M 6.011719 4.351562 L 6.46875 5.828125 L 6.519531 5.828125 L 6.929688 4.382812 C 6.96875 4.246094 6.992188 4.195312 7.089844 4.179688 L 7.089844 4.117188 L 6.707031 4.117188 L 6.707031 4.179688 C 6.808594 4.1875 6.863281 4.195312 6.863281 4.292969 C 6.863281 4.34375 6.84375 4.40625 6.828125 4.464844 L 6.597656 5.273438 L 6.363281 4.496094 C 6.347656 4.433594 6.308594 4.328125 6.308594 4.28125 C 6.308594 4.191406 6.351562 4.191406 6.464844 4.179688 L 6.464844 4.117188 L 5.863281 4.117188 L 5.863281 4.179688 C 5.9375 4.195312 5.964844 4.203125 6.011719 4.351562 Z M 13.167969 5.710938 C 13.050781 5.6875 13.011719 5.679688 13.011719 5.484375 L 13.011719 5 L 13.058594 5 L 13.429688 5.773438 L 13.796875 5.773438 L 13.796875 5.710938 C 13.777344 5.710938 13.75 5.710938 13.722656 5.664062 L 13.363281 4.960938 C 13.460938 4.917969 13.644531 4.84375 13.644531 4.539062 C 13.644531 4.125 13.265625 4.105469 13.140625 4.105469 L 12.5625 4.105469 L 12.5625 4.171875 C 12.664062 4.175781 12.722656 4.183594 12.722656 4.394531 L 12.722656 5.484375 C 12.722656 5.679688 12.683594 5.691406 12.5625 5.710938 L 12.5625 5.773438 L 13.167969 5.773438 Z M 13.011719 4.292969 C 13.019531 4.214844 13.023438 4.1875 13.121094 4.1875 C 13.265625 4.1875 13.339844 4.296875 13.339844 4.542969 C 13.339844 4.863281 13.246094 4.917969 13.011719 4.921875 Z M 19.445312 4.183594 L 19.445312 5.484375 C 19.445312 5.691406 19.40625 5.695312 19.273438 5.710938 L 19.273438 5.773438 L 19.914062 5.773438 L 19.914062 5.710938 C 19.78125 5.695312 19.738281 5.691406 19.738281 5.484375 L 19.738281 4.183594 C 19.863281 4.191406 20.046875 4.207031 20.082031 4.601562 L 20.136719 4.601562 L 20.132812 4.105469 L 19.054688 4.105469 L 19.050781 4.601562 L 19.105469 4.601562 C 19.136719 4.207031 19.320312 4.191406 19.445312 4.183594 Z M 20.535156 5.707031 C 20.476562 5.703125 20.390625 5.695312 20.390625 5.601562 C 20.390625 5.558594 20.417969 5.457031 20.46875 5.28125 L 20.871094 5.28125 C 20.898438 5.359375 20.953125 5.542969 20.953125 5.609375 C 20.953125 5.691406 20.921875 5.695312 20.8125 5.707031 L 20.8125 5.765625 L 21.390625 5.765625 L 21.390625 5.707031 C 21.304688 5.714844 21.277344 5.625 21.195312 5.363281 L 20.796875 4.066406 L 20.746094 4.066406 L 20.351562 5.417969 C 20.292969 5.601562 20.269531 5.6875 20.171875 5.707031 L 20.171875 5.765625 L 20.539062 5.765625 Z M 20.664062 4.589844 L 20.84375 5.1875 L 20.496094 5.1875 Z M 14.789062 4.171875 C 14.875 4.175781 14.957031 4.179688 14.957031 4.339844 L 14.957031 5.53125 C 14.957031 5.6875 14.886719 5.695312 14.789062 5.710938 L 14.789062 5.773438 L 15.417969 5.773438 L 15.417969 5.710938 C 15.320312 5.703125 15.25 5.691406 15.25 5.53125 L 15.25 4.339844 C 15.25 4.175781 15.332031 4.175781 15.417969 4.171875 L 15.417969 4.105469 L 14.789062 4.105469 Z M 14.789062 4.171875 " fill-opacity="1" fill-rule="nonzero"/><path fill="#050505" d="M 18.441406 10 C 18.589844 10.226562 18.695312 10.496094 18.742188 10.769531 C 18.871094 11.546875 18.492188 12.367188 17.074219 12.441406 C 17.050781 13.601562 16.765625 14.078125 15.292969 14.105469 C 15.417969 15.34375 14.773438 15.742188 14.078125 15.742188 C 13.375 15.742188 12.730469 15.34375 12.859375 14.105469 C 11.382812 14.078125 11.097656 13.601562 11.074219 12.441406 C 9.652344 12.367188 9.277344 11.546875 9.410156 10.769531 C 9.453125 10.496094 9.558594 10.226562 9.707031 10 L 2.140625 10 L 2.140625 10.382812 C 2.152344 24.605469 13.90625 30.730469 13.941406 30.75 L 14.117188 30.847656 L 14.296875 30.75 C 14.332031 30.730469 26.089844 24.605469 26.101562 10.382812 L 26.101562 10 Z M 8.621094 23.046875 C 8.90625 22.898438 9.121094 22.464844 9.171875 22.171875 C 9.238281 21.789062 9.320312 21.628906 9.523438 21.625 C 9.722656 21.617188 9.804688 21.789062 9.871094 22.171875 C 9.921875 22.464844 10.136719 22.898438 10.421875 23.046875 C 10.597656 23.140625 11.164062 23.15625 11.046875 23.488281 C 10.96875 23.636719 10.867188 23.949219 10.710938 23.8125 C 10.554688 23.671875 10.292969 23.316406 10.1875 23.292969 C 10.085938 23.273438 10.097656 23.429688 10.140625 23.484375 C 10.203125 23.550781 10.382812 23.808594 10.484375 23.929688 C 10.613281 24.078125 10.652344 24.347656 10.425781 24.453125 C 10.203125 24.558594 9.96875 24.421875 9.972656 24.300781 C 9.980469 24.121094 9.871094 23.597656 9.773438 23.597656 C 9.695312 23.597656 9.691406 23.734375 9.699219 23.878906 C 9.667969 24.1875 9.875 24.433594 9.851562 24.59375 C 9.824219 24.746094 9.792969 24.910156 9.523438 24.90625 C 9.25 24.898438 9.214844 24.746094 9.191406 24.59375 C 9.164062 24.433594 9.371094 24.1875 9.339844 23.878906 C 9.347656 23.734375 9.347656 23.597656 9.269531 23.597656 C 9.171875 23.597656 9.058594 24.121094 9.070312 24.300781 C 9.074219 24.421875 8.839844 24.558594 8.613281 24.453125 C 8.386719 24.34375 8.429688 24.078125 8.554688 23.929688 C 8.660156 23.808594 8.839844 23.550781 8.898438 23.484375 C 8.941406 23.429688 8.957031 23.273438 8.855469 23.292969 C 8.75 23.3125 8.484375 23.671875 8.332031 23.8125 C 8.175781 23.949219 8.074219 23.636719 7.996094 23.488281 C 7.878906 23.15625 8.445312 23.140625 8.621094 23.046875 Z M 8.816406 22.070312 C 8.996094 22.050781 8.90625 22.238281 8.886719 22.40625 C 8.867188 22.570312 8.824219 22.589844 8.648438 22.355469 C 8.472656 22.121094 8.621094 22.089844 8.816406 22.070312 Z M 10.222656 22.089844 C 10.414062 22.113281 10.5625 22.140625 10.390625 22.371094 C 10.214844 22.605469 10.167969 22.585938 10.148438 22.425781 C 10.128906 22.257812 10.039062 22.070312 10.222656 22.089844 Z M 18.582031 23.597656 C 18.484375 23.597656 18.375 24.121094 18.382812 24.300781 C 18.386719 24.425781 18.15625 24.558594 17.929688 24.453125 C 17.703125 24.347656 17.742188 24.078125 17.871094 23.929688 C 17.976562 23.8125 18.160156 23.550781 18.214844 23.484375 C 18.257812 23.429688 18.273438 23.273438 18.171875 23.292969 C 18.066406 23.316406 17.800781 23.671875 17.644531 23.8125 C 17.492188 23.949219 17.386719 23.640625 17.308594 23.488281 C 17.191406 23.15625 17.761719 23.140625 17.9375 23.046875 C 18.21875 22.902344 18.433594 22.464844 18.484375 22.171875 C 18.550781 21.789062 18.636719 21.628906 18.835938 21.625 C 19.035156 21.617188 19.117188 21.789062 19.1875 22.171875 C 19.238281 22.464844 19.453125 22.898438 19.734375 23.046875 C 19.910156 23.140625 20.476562 23.15625 20.363281 23.488281 C 20.285156 23.640625 20.179688 23.949219 20.027344 23.8125 C 19.871094 23.671875 19.605469 23.316406 19.5 23.292969 C 19.398438 23.273438 19.414062 23.429688 19.457031 23.484375 C 19.515625 23.550781 19.699219 23.8125 19.800781 23.929688 C 19.929688 24.078125 19.96875 24.347656 19.742188 24.453125 C 19.515625 24.558594 19.28125 24.425781 19.289062 24.300781 C 19.296875 24.121094 19.1875 23.597656 19.089844 23.597656 C 19.011719 23.597656 19.007812 23.734375 19.015625 23.878906 C 18.984375 24.1875 19.195312 24.433594 19.164062 24.59375 C 19.140625 24.746094 19.105469 24.910156 18.839844 24.910156 C 18.566406 24.902344 18.535156 24.746094 18.503906 24.59375 C 18.480469 24.433594 18.6875 24.1875 18.65625 23.878906 C 18.664062 23.734375 18.664062 23.597656 18.582031 23.597656 Z M 18.128906 22.070312 C 18.3125 22.050781 18.21875 22.238281 18.203125 22.40625 C 18.183594 22.570312 18.136719 22.589844 17.960938 22.355469 C 17.789062 22.121094 17.933594 22.089844 18.128906 22.070312 Z M 19.535156 22.089844 C 19.730469 22.113281 19.875 22.140625 19.703125 22.371094 C 19.53125 22.605469 19.484375 22.585938 19.464844 22.425781 C 19.441406 22.257812 19.351562 22.070312 19.535156 22.089844 Z M 19.703125 12.992188 C 19.527344 13.226562 19.484375 13.207031 19.464844 13.042969 C 19.441406 12.878906 19.351562 12.6875 19.535156 12.707031 C 19.730469 12.726562 19.875 12.761719 19.703125 12.992188 Z M 18.128906 12.6875 C 18.3125 12.667969 18.21875 12.859375 18.203125 13.023438 C 18.183594 13.1875 18.136719 13.207031 17.960938 12.972656 C 17.789062 12.738281 17.933594 12.707031 18.128906 12.6875 Z M 17.9375 13.667969 C 18.21875 13.519531 18.433594 13.089844 18.484375 12.789062 C 18.550781 12.40625 18.636719 12.25 18.835938 12.242188 C 19.035156 12.238281 19.117188 12.40625 19.1875 12.789062 C 19.238281 13.089844 19.453125 13.519531 19.734375 13.667969 C 19.910156 13.761719 20.476562 13.773438 20.363281 14.105469 C 20.28125 14.261719 20.179688 14.566406 20.023438 14.429688 C 19.871094 14.289062 19.605469 13.933594 19.5 13.914062 C 19.398438 13.890625 19.414062 14.054688 19.457031 14.101562 C 19.515625 14.171875 19.695312 14.429688 19.800781 14.546875 C 19.929688 14.695312 19.96875 14.96875 19.742188 15.074219 C 19.515625 15.179688 19.28125 15.042969 19.289062 14.921875 C 19.296875 14.738281 19.1875 14.214844 19.089844 14.214844 C 19.007812 14.214844 19.007812 14.351562 19.015625 14.5 C 18.984375 14.808594 19.191406 15.054688 19.164062 15.214844 C 19.140625 15.371094 19.105469 15.53125 18.835938 15.527344 C 18.5625 15.523438 18.53125 15.371094 18.503906 15.214844 C 18.480469 15.054688 18.6875 14.808594 18.65625 14.5 C 18.667969 14.351562 18.664062 14.214844 18.582031 14.214844 C 18.484375 14.214844 18.375 14.742188 18.382812 14.921875 C 18.386719 15.042969 18.15625 15.179688 17.929688 15.074219 C 17.703125 14.96875 17.742188 14.695312 17.871094 14.550781 C 17.976562 14.429688 18.160156 14.171875 18.214844 14.101562 C 18.257812 14.054688 18.273438 13.890625 18.171875 13.914062 C 18.066406 13.933594 17.800781 14.289062 17.644531 14.429688 C 17.492188 14.570312 17.386719 14.261719 17.308594 14.105469 C 17.191406 13.773438 17.761719 13.761719 17.9375 13.667969 Z M 18.835938 17.414062 C 18.707031 16.101562 19.535156 15.722656 20.515625 15.796875 C 20.386719 14.484375 21.058594 14.054688 22.226562 14.105469 C 22.070312 12.570312 23.105469 12.394531 23.90625 12.445312 C 23.78125 11.300781 24.597656 10.828125 25.152344 10.769531 L 25.324219 10.769531 C 25.25 16.027344 23.492188 20.101562 21.382812 23.132812 C 20.507812 22.917969 20.371094 22.207031 20.4375 21.574219 C 19.148438 21.722656 18.628906 20.789062 18.808594 19.910156 C 18.316406 20.085938 17.253906 19.832031 17.128906 18.898438 C 17 17.96875 17.75 17.414062 18.835938 17.414062 Z M 14.878906 17.402344 C 15.074219 17.421875 15.21875 17.449219 15.046875 17.683594 C 14.867188 17.917969 14.828125 17.898438 14.808594 17.734375 C 14.789062 17.566406 14.695312 17.378906 14.878906 17.402344 Z M 13.476562 17.378906 C 13.652344 17.359375 13.5625 17.550781 13.542969 17.714844 C 13.523438 17.878906 13.480469 17.898438 13.304688 17.664062 C 13.128906 17.433594 13.277344 17.402344 13.476562 17.378906 Z M 13.28125 18.355469 C 13.5625 18.207031 13.777344 17.777344 13.828125 17.480469 C 13.894531 17.101562 13.976562 16.9375 14.179688 16.933594 C 14.378906 16.925781 14.460938 17.101562 14.527344 17.480469 C 14.578125 17.777344 14.796875 18.207031 15.078125 18.355469 C 15.253906 18.449219 15.820312 18.460938 15.707031 18.796875 C 15.625 18.953125 15.523438 19.261719 15.367188 19.121094 C 15.214844 18.980469 14.945312 18.625 14.847656 18.601562 C 14.742188 18.585938 14.757812 18.742188 14.800781 18.792969 C 14.859375 18.863281 15.039062 19.121094 15.144531 19.242188 C 15.273438 19.386719 15.308594 19.65625 15.082031 19.765625 C 14.859375 19.871094 14.625 19.734375 14.628906 19.613281 C 14.640625 19.429688 14.527344 18.90625 14.429688 18.90625 C 14.351562 18.90625 14.347656 19.039062 14.359375 19.1875 C 14.328125 19.5 14.535156 19.746094 14.507812 19.902344 C 14.484375 20.058594 14.449219 20.222656 14.179688 20.21875 C 13.90625 20.210938 13.875 20.058594 13.851562 19.902344 C 13.824219 19.746094 14.027344 19.5 14 19.1875 C 14.007812 19.039062 14.003906 18.90625 13.925781 18.90625 C 13.828125 18.90625 13.71875 19.429688 13.726562 19.613281 C 13.734375 19.734375 13.5 19.871094 13.273438 19.765625 C 13.046875 19.65625 13.085938 19.386719 13.214844 19.242188 C 13.320312 19.121094 13.5 18.863281 13.558594 18.792969 C 13.601562 18.742188 13.617188 18.585938 13.511719 18.601562 C 13.410156 18.625 13.144531 18.980469 12.988281 19.121094 C 12.835938 19.261719 12.730469 18.953125 12.652344 18.796875 C 12.535156 18.460938 13.101562 18.449219 13.28125 18.355469 Z M 12.859375 23.316406 C 12.757812 22.328125 13.351562 21.675781 14.152344 21.675781 C 14.953125 21.675781 15.546875 22.328125 15.449219 23.316406 C 16.328125 23.0625 17.492188 23.488281 17.207031 25.003906 C 18.210938 24.664062 18.984375 25.1875 19.035156 26.011719 C 16.808594 28.328125 14.714844 29.613281 14.113281 29.96875 C 13.5 29.617188 11.445312 28.351562 9.261719 26.089844 C 9.261719 25.21875 10.0625 24.652344 11.097656 25.003906 C 10.816406 23.488281 11.980469 23.0625 12.859375 23.316406 Z M 11.203125 18.898438 C 11.074219 19.832031 10.011719 20.085938 9.523438 19.910156 C 9.699219 20.792969 9.1875 21.726562 7.890625 21.574219 C 7.964844 22.230469 7.820312 22.976562 6.859375 23.15625 C 4.75 20.121094 2.992188 16.035156 2.910156 10.773438 C 2.921875 10.773438 2.929688 10.769531 2.933594 10.769531 L 3.179688 10.769531 C 3.734375 10.832031 4.546875 11.300781 4.425781 12.445312 C 5.226562 12.394531 6.261719 12.570312 6.105469 14.105469 C 7.269531 14.058594 7.945312 14.484375 7.8125 15.800781 C 8.796875 15.722656 9.628906 16.101562 9.496094 17.414062 C 10.582031 17.414062 11.332031 17.96875 11.203125 18.898438 Z M 8.679688 13.023438 C 8.660156 13.1875 8.617188 13.207031 8.441406 12.972656 C 8.265625 12.738281 8.414062 12.710938 8.609375 12.6875 C 8.792969 12.667969 8.699219 12.859375 8.679688 13.023438 Z M 10.015625 12.707031 C 10.207031 12.726562 10.355469 12.761719 10.179688 12.992188 C 10.003906 13.222656 9.960938 13.207031 9.941406 13.042969 C 9.921875 12.878906 9.835938 12.6875 10.015625 12.707031 Z M 9.664062 12.792969 C 9.714844 13.089844 9.929688 13.519531 10.214844 13.667969 C 10.390625 13.761719 10.957031 13.773438 10.839844 14.105469 C 10.761719 14.261719 10.660156 14.570312 10.503906 14.429688 C 10.351562 14.292969 10.085938 13.933594 9.980469 13.914062 C 9.875 13.894531 9.894531 14.054688 9.9375 14.101562 C 9.992188 14.171875 10.175781 14.429688 10.28125 14.550781 C 10.40625 14.695312 10.445312 14.96875 10.222656 15.074219 C 9.992188 15.179688 9.761719 15.042969 9.765625 14.921875 C 9.777344 14.742188 9.664062 14.214844 9.566406 14.214844 C 9.488281 14.214844 9.484375 14.351562 9.496094 14.503906 C 9.464844 14.808594 9.667969 15.054688 9.644531 15.214844 C 9.617188 15.371094 9.585938 15.53125 9.3125 15.527344 C 9.042969 15.523438 9.011719 15.371094 8.984375 15.214844 C 8.960938 15.054688 9.164062 14.808594 9.132812 14.503906 C 9.144531 14.351562 9.136719 14.214844 9.0625 14.214844 C 8.964844 14.214844 8.851562 14.742188 8.859375 14.921875 C 8.867188 15.042969 8.636719 15.179688 8.410156 15.074219 C 8.183594 14.96875 8.222656 14.695312 8.351562 14.550781 C 8.453125 14.429688 8.636719 14.171875 8.695312 14.101562 C 8.738281 14.054688 8.753906 13.894531 8.648438 13.914062 C 8.542969 13.933594 8.28125 14.292969 8.125 14.429688 C 7.96875 14.570312 7.867188 14.261719 7.789062 14.105469 C 7.671875 13.773438 8.242188 13.761719 8.417969 13.667969 C 8.699219 13.519531 8.914062 13.089844 8.96875 12.792969 C 9.035156 12.40625 9.117188 12.25 9.316406 12.242188 C 9.515625 12.238281 9.597656 12.40625 9.664062 12.792969 Z M 9.664062 12.792969 " fill-opacity="1" fill-rule="nonzero"/><path fill="#050505" d="M 38.433594 15.664062 C 38.433594 16.75 37.691406 17.480469 36.046875 17.480469 L 32.960938 17.480469 L 32.960938 10.75 L 35.953125 10.75 C 37.382812 10.75 38.148438 11.402344 38.148438 12.507812 C 38.148438 13.296875 37.691406 13.847656 36.972656 14.027344 C 37.917969 14.222656 38.433594 14.863281 38.433594 15.664062 Z M 34.8125 13.550781 L 35.53125 13.550781 C 36.011719 13.550781 36.308594 13.367188 36.308594 12.910156 C 36.308594 12.453125 36.011719 12.269531 35.53125 12.269531 L 34.8125 12.269531 Z M 34.8125 15.9375 L 35.785156 15.9375 C 36.25 15.9375 36.515625 15.730469 36.515625 15.34375 C 36.515625 14.953125 36.25 14.75 35.785156 14.75 L 34.8125 14.75 Z M 34.8125 15.9375 " fill-opacity="1" fill-rule="nonzero"/><path fill="#050505" d="M 42.078125 16.496094 C 41.929688 17.195312 41.390625 17.617188 40.488281 17.617188 C 39.53125 17.617188 38.855469 17.023438 38.855469 15.777344 L 38.855469 12.199219 L 40.707031 12.199219 L 40.707031 15.386719 C 40.707031 15.914062 40.855469 16.234375 41.277344 16.234375 C 41.757812 16.234375 42.054688 15.800781 42.054688 14.945312 L 42.054688 12.199219 L 43.90625 12.199219 L 43.90625 17.480469 L 42.25 17.480469 Z M 42.078125 16.496094 " fill-opacity="1" fill-rule="nonzero"/><path fill="#050505" d="M 45.789062 15.664062 C 45.894531 16.097656 46.222656 16.324219 46.625 16.324219 C 46.953125 16.324219 47.183594 16.210938 47.183594 15.984375 C 47.183594 15.753906 46.988281 15.652344 46.613281 15.570312 L 45.902344 15.421875 C 44.945312 15.21875 44.441406 14.726562 44.441406 13.859375 C 44.441406 12.578125 45.539062 12.074219 46.714844 12.074219 C 47.984375 12.074219 48.75 12.601562 48.929688 13.582031 L 47.25 13.835938 C 47.195312 13.539062 47.011719 13.367188 46.65625 13.367188 C 46.394531 13.367188 46.210938 13.492188 46.210938 13.699219 C 46.210938 13.902344 46.359375 14.007812 46.636719 14.050781 L 47.34375 14.179688 C 48.507812 14.371094 49 15 49 15.890625 C 49 17.136719 47.914062 17.617188 46.613281 17.617188 C 45.414062 17.617188 44.613281 17.183594 44.316406 16.246094 Z M 45.789062 15.664062 " fill-opacity="1" fill-rule="nonzero"/><path fill="#050505" d="M 50.449219 9.914062 C 51 9.914062 51.464844 10.292969 51.464844 10.886719 C 51.464844 11.480469 51 11.859375 50.449219 11.859375 C 49.902344 11.859375 49.433594 11.480469 49.433594 10.886719 C 49.433594 10.292969 49.902344 9.914062 50.449219 9.914062 Z M 51.375 12.199219 L 51.375 17.480469 L 49.535156 17.480469 L 49.535156 12.199219 Z M 51.375 12.199219 " fill-opacity="1" fill-rule="nonzero"/><path fill="#050505" d="M 54.003906 13.21875 C 54.277344 12.429688 54.894531 12.074219 55.683594 12.074219 C 56.492188 12.074219 57.222656 12.554688 57.222656 13.765625 L 57.222656 17.480469 L 55.386719 17.480469 L 55.386719 14.476562 C 55.386719 13.9375 55.226562 13.605469 54.757812 13.605469 C 54.355469 13.605469 54.015625 13.847656 54.015625 14.65625 L 54.015625 17.480469 L 52.175781 17.480469 L 52.175781 12.199219 L 53.832031 12.199219 Z M 54.003906 13.21875 " fill-opacity="1" fill-rule="nonzero"/><path fill="#050505" d="M 61.1875 15.570312 L 62.71875 16.050781 C 62.421875 17.183594 61.484375 17.617188 60.433594 17.617188 C 58.867188 17.617188 57.726562 16.621094 57.726562 14.898438 C 57.726562 13.113281 58.730469 12.074219 60.386719 12.074219 C 61.953125 12.074219 62.753906 13.082031 62.753906 14.542969 C 62.753906 14.738281 62.753906 14.964844 62.730469 15.207031 L 59.507812 15.207031 C 59.542969 15.859375 59.863281 16.210938 60.410156 16.210938 C 60.800781 16.210938 61.0625 16.039062 61.1875 15.570312 Z M 61.003906 14.269531 C 61.003906 13.8125 60.84375 13.410156 60.332031 13.410156 C 59.886719 13.410156 59.601562 13.777344 59.554688 14.269531 Z M 61.003906 14.269531 " fill-opacity="1" fill-rule="nonzero"/><path fill="#050505" d="M 64.441406 15.664062 C 64.546875 16.097656 64.875 16.324219 65.277344 16.324219 C 65.609375 16.324219 65.835938 16.210938 65.835938 15.984375 C 65.835938 15.753906 65.640625 15.652344 65.265625 15.570312 L 64.558594 15.421875 C 63.597656 15.21875 63.09375 14.726562 63.09375 13.859375 C 63.09375 12.578125 64.191406 12.074219 65.367188 12.074219 C 66.636719 12.074219 67.402344 12.601562 67.585938 13.582031 L 65.90625 13.835938 C 65.847656 13.539062 65.664062 13.367188 65.3125 13.367188 C 65.046875 13.367188 64.863281 13.492188 64.863281 13.699219 C 64.863281 13.902344 65.011719 14.007812 65.289062 14.050781 L 65.996094 14.179688 C 67.160156 14.371094 67.652344 15 67.652344 15.890625 C 67.652344 17.136719 66.566406 17.617188 65.265625 17.617188 C 64.066406 17.617188 63.265625 17.183594 62.96875 16.246094 Z M 64.441406 15.664062 " fill-opacity="1" fill-rule="nonzero"/><path fill="#050505" d="M 69.332031 15.664062 C 69.433594 16.097656 69.765625 16.324219 70.164062 16.324219 C 70.496094 16.324219 70.726562 16.210938 70.726562 15.984375 C 70.726562 15.753906 70.53125 15.652344 70.152344 15.570312 L 69.445312 15.421875 C 68.488281 15.21875 67.984375 14.726562 67.984375 13.859375 C 67.984375 12.578125 69.082031 12.074219 70.257812 12.074219 C 71.527344 12.074219 72.289062 12.601562 72.472656 13.582031 L 70.792969 13.835938 C 70.738281 13.539062 70.554688 13.367188 70.199219 13.367188 C 69.9375 13.367188 69.753906 13.492188 69.753906 13.699219 C 69.753906 13.902344 69.902344 14.007812 70.175781 14.050781 L 70.886719 14.179688 C 72.050781 14.371094 72.542969 15 72.542969 15.890625 C 72.542969 17.136719 71.457031 17.617188 70.152344 17.617188 C 68.953125 17.617188 68.15625 17.183594 67.859375 16.246094 Z M 69.332031 15.664062 " fill-opacity="1" fill-rule="nonzero"/><path fill="#050505" d="M 36.730469 25.625 C 36.515625 25.441406 36.433594 25.191406 36.355469 24.871094 L 36.148438 24.039062 C 36.035156 23.558594 35.839844 23.464844 35.40625 23.464844 L 34.824219 23.464844 L 34.824219 25.625 L 32.960938 25.625 L 32.960938 18.898438 L 35.839844 18.898438 C 37.347656 18.898438 38.386719 19.480469 38.386719 21.011719 C 38.386719 22.074219 37.703125 22.597656 36.960938 22.722656 C 37.578125 22.851562 37.886719 23.125 38.046875 23.707031 L 38.363281 24.859375 C 38.445312 25.15625 38.535156 25.386719 38.777344 25.625 Z M 34.824219 21.960938 L 35.542969 21.960938 C 36.195312 21.960938 36.480469 21.695312 36.480469 21.214844 C 36.480469 20.738281 36.195312 20.472656 35.542969 20.472656 L 34.824219 20.472656 Z M 34.824219 21.960938 " fill-opacity="1" fill-rule="nonzero"/><path fill="#050505" d="M 42.125 23.71875 L 43.652344 24.199219 C 43.355469 25.328125 42.417969 25.761719 41.367188 25.761719 C 39.804688 25.761719 38.660156 24.769531 38.660156 23.042969 C 38.660156 21.261719 39.667969 20.222656 41.324219 20.222656 C 42.886719 20.222656 43.6875 21.226562 43.6875 22.691406 C 43.6875 22.882812 43.6875 23.113281 43.664062 23.351562 L 40.445312 23.351562 C 40.476562 24.003906 40.796875 24.355469 41.347656 24.355469 C 41.734375 24.355469 41.996094 24.1875 42.125 23.71875 Z M 41.941406 22.414062 C 41.941406 21.960938 41.78125 21.558594 41.265625 21.558594 C 40.820312 21.558594 40.535156 21.925781 40.488281 22.414062 Z M 41.941406 22.414062 " fill-opacity="1" fill-rule="nonzero"/><path fill="#050505" d="M 43.550781 20.347656 L 45.492188 20.347656 L 46.097656 22.472656 C 46.316406 23.238281 46.441406 23.765625 46.441406 23.765625 L 46.464844 23.765625 C 46.464844 23.765625 46.578125 23.238281 46.816406 22.472656 L 47.503906 20.347656 L 49.296875 20.347656 L 47.378906 25.625 L 45.390625 25.625 Z M 43.550781 20.347656 " fill-opacity="1" fill-rule="nonzero"/><path fill="#050505" d="M 50.609375 18.066406 C 51.15625 18.066406 51.628906 18.441406 51.628906 19.035156 C 51.628906 19.628906 51.15625 20.007812 50.609375 20.007812 C 50.0625 20.007812 49.59375 19.628906 49.59375 19.035156 C 49.59375 18.441406 50.0625 18.066406 50.609375 18.066406 Z M 51.535156 20.347656 L 51.535156 25.625 L 49.695312 25.625 L 49.695312 20.347656 Z M 51.535156 20.347656 " fill-opacity="1" fill-rule="nonzero"/><path fill="#050505" d="M 55.566406 23.71875 L 57.097656 24.199219 C 56.800781 25.328125 55.863281 25.761719 54.8125 25.761719 C 53.25 25.761719 52.105469 24.769531 52.105469 23.042969 C 52.105469 21.261719 53.113281 20.222656 54.769531 20.222656 C 56.332031 20.222656 57.132812 21.226562 57.132812 22.691406 C 57.132812 22.882812 57.132812 23.113281 57.109375 23.351562 L 53.886719 23.351562 C 53.921875 24.003906 54.242188 24.355469 54.789062 24.355469 C 55.179688 24.355469 55.441406 24.1875 55.566406 23.71875 Z M 55.386719 22.414062 C 55.386719 21.960938 55.226562 21.558594 54.710938 21.558594 C 54.265625 21.558594 53.980469 21.925781 53.933594 22.414062 Z M 55.386719 22.414062 " fill-opacity="1" fill-rule="nonzero"/><path fill="#050505" d="M 62.066406 20.347656 L 62.445312 22.1875 C 62.636719 23.136719 62.742188 23.84375 62.742188 23.84375 L 62.761719 23.84375 C 62.761719 23.84375 62.878906 23.148438 63.09375 22.210938 L 63.515625 20.347656 L 65.308594 20.347656 L 63.882812 25.625 L 61.816406 25.625 L 61.496094 24.082031 C 61.335938 23.308594 61.210938 22.394531 61.210938 22.394531 L 61.1875 22.394531 C 61.1875 22.394531 61.0625 23.308594 60.902344 24.082031 L 60.582031 25.625 L 58.527344 25.625 L 57.097656 20.347656 L 58.960938 20.347656 L 59.382812 22.210938 C 59.601562 23.148438 59.714844 23.84375 59.714844 23.84375 L 59.738281 23.84375 C 59.738281 23.84375 59.839844 23.136719 60.035156 22.1875 L 60.410156 20.347656 Z M 62.066406 20.347656 " fill-opacity="1" fill-rule="nonzero"/><path fill="#050505" d="M 44.15625 7.59375 C 44.15625 7.84375 44.226562 7.980469 44.421875 7.980469 C 44.535156 7.980469 44.648438 7.9375 44.753906 7.878906 L 44.753906 9.179688 C 44.5 9.363281 44.261719 9.433594 43.839844 9.433594 C 43.128906 9.433594 42.742188 9.113281 42.535156 8.597656 C 42.238281 9.148438 41.769531 9.457031 41.015625 9.457031 C 40.046875 9.457031 39.441406 8.882812 39.441406 7.980469 C 39.441406 6.851562 40.25 6.277344 41.839844 6.277344 L 42.375 6.277344 L 42.375 5.925781 C 42.375 5.582031 42.261719 5.34375 41.929688 5.34375 C 41.609375 5.34375 41.464844 5.535156 41.441406 5.96875 L 39.679688 5.695312 C 39.785156 4.609375 40.628906 3.925781 41.988281 3.925781 C 43.496094 3.925781 44.160156 4.589844 44.160156 5.742188 Z M 42.375 7.214844 L 42.136719 7.214844 C 41.472656 7.214844 41.246094 7.421875 41.246094 7.765625 C 41.246094 8.015625 41.417969 8.210938 41.738281 8.210938 C 42.042969 8.210938 42.375 8.050781 42.375 7.558594 Z M 42.375 7.214844 " fill-opacity="1" fill-rule="nonzero"/><path fill="#050505" d="M 48.648438 6.128906 C 48.429688 6.050781 48.304688 5.992188 48.007812 5.992188 C 47.574219 5.992188 47.046875 6.164062 47.046875 7.101562 L 47.046875 9.328125 L 45.207031 9.328125 L 45.207031 4.050781 L 46.785156 4.050781 L 46.96875 5.355469 C 47.117188 4.472656 47.859375 4.050781 48.761719 4.050781 Z M 48.648438 6.128906 " fill-opacity="1" fill-rule="nonzero"/><path fill="#050505" d="M 48.941406 4.050781 L 50.882812 4.050781 L 51.488281 6.175781 C 51.707031 6.941406 51.832031 7.46875 51.832031 7.46875 L 51.855469 7.46875 C 51.855469 7.46875 51.96875 6.941406 52.207031 6.175781 L 52.894531 4.050781 L 54.6875 4.050781 L 52.769531 9.328125 L 50.78125 9.328125 Z M 48.941406 4.050781 " fill-opacity="1" fill-rule="nonzero"/><path fill="#050505" d="M 59.117188 7.59375 C 59.117188 7.84375 59.1875 7.980469 59.382812 7.980469 C 59.496094 7.980469 59.609375 7.9375 59.714844 7.878906 L 59.714844 9.179688 C 59.460938 9.363281 59.222656 9.433594 58.800781 9.433594 C 58.089844 9.433594 57.703125 9.113281 57.496094 8.597656 C 57.199219 9.148438 56.730469 9.457031 55.976562 9.457031 C 55.007812 9.457031 54.402344 8.882812 54.402344 7.980469 C 54.402344 6.851562 55.210938 6.277344 56.800781 6.277344 L 57.335938 6.277344 L 57.335938 5.925781 C 57.335938 5.582031 57.222656 5.34375 56.890625 5.34375 C 56.570312 5.34375 56.421875 5.535156 56.398438 5.96875 L 54.640625 5.695312 C 54.742188 4.609375 55.589844 3.925781 56.949219 3.925781 C 58.457031 3.925781 59.117188 4.589844 59.117188 5.742188 Z M 57.335938 7.214844 L 57.097656 7.214844 C 56.433594 7.214844 56.207031 7.421875 56.207031 7.765625 C 56.207031 8.015625 56.375 8.210938 56.695312 8.210938 C 57.003906 8.210938 57.335938 8.050781 57.335938 7.558594 Z M 57.335938 7.214844 " fill-opacity="1" fill-rule="nonzero"/><path fill="#050505" d="M 63.609375 6.128906 C 63.390625 6.050781 63.265625 5.992188 62.96875 5.992188 C 62.535156 5.992188 62.007812 6.164062 62.007812 7.101562 L 62.007812 9.328125 L 60.167969 9.328125 L 60.167969 4.050781 L 61.746094 4.050781 L 61.929688 5.355469 C 62.078125 4.472656 62.820312 4.050781 63.722656 4.050781 Z M 63.609375 6.128906 " fill-opacity="1" fill-rule="nonzero"/><path fill="#050505" d="M 67.617188 2.269531 L 69.46875 2.269531 L 69.46875 9.328125 L 67.800781 9.328125 L 67.628906 8.414062 C 67.433594 9.125 66.804688 9.46875 66.007812 9.46875 C 64.773438 9.46875 63.890625 8.507812 63.890625 6.792969 C 63.890625 5.023438 64.738281 3.925781 66.222656 3.925781 C 66.898438 3.925781 67.433594 4.234375 67.617188 4.738281 Z M 67.628906 6.3125 C 67.628906 5.640625 67.296875 5.273438 66.761719 5.273438 C 66.222656 5.273438 65.765625 5.671875 65.765625 6.726562 C 65.765625 7.59375 66.132812 8.050781 66.738281 8.050781 C 67.207031 8.050781 67.628906 7.695312 67.628906 6.976562 Z M 67.628906 6.3125 " fill-opacity="1" fill-rule="nonzero"/><path fill="#050505" d="M 32.960938 9.328125 L 32.960938 2.601562 L 34.835938 2.601562 L 34.835938 5.101562 L 37.144531 5.101562 L 37.144531 2.601562 L 39.015625 2.601562 L 39.015625 9.328125 L 37.144531 9.328125 L 37.144531 6.726562 L 34.835938 6.726562 L 34.835938 9.328125 Z M 32.960938 9.328125 " fill-opacity="1" fill-rule="nonzero"/></svg>