<svg xmlns="http://www.w3.org/2000/svg" xmlns:xlink="http://www.w3.org/1999/xlink" width="839" zoomAndPan="magnify" viewBox="0 0 629.25 198.749996" height="265" preserveAspectRatio="xMidYMid meet" version="1.0"><defs><clipPath id="72f35fb871"><path d="M 0.0195312 0 L 628.480469 0 L 628.480469 198.5 L 0.0195312 198.5 Z M 0.0195312 0 " clip-rule="nonzero"/></clipPath><clipPath id="c419e3349b"><path d="M 183 85 L 372.265625 85 L 372.265625 117 L 183 117 Z M 183 85 " clip-rule="nonzero"/></clipPath><clipPath id="6f32cd70f4"><path d="M 108.597656 69.933594 L 172 69.933594 L 172 128 L 108.597656 128 Z M 108.597656 69.933594 " clip-rule="nonzero"/></clipPath></defs><g clip-path="url(#72f35fb871)"><path fill="#ffffff" d="M 0.0195312 0 L 628.480469 0 L 628.480469 198.5 L 0.0195312 198.5 Z M 0.0195312 0 " fill-opacity="1" fill-rule="nonzero"/><path fill="#ffffff" d="M 0.0195312 0 L 628.480469 0 L 628.480469 198.5 L 0.0195312 198.5 Z M 0.0195312 0 " fill-opacity="1" fill-rule="nonzero"/></g><g clip-path="url(#c419e3349b)"><path fill="#000b1b" d="M 183.085938 109.503906 L 183.085938 88.617188 L 188.640625 88.617188 L 188.640625 96.394531 L 194.902344 96.394531 L 194.902344 88.617188 L 200.457031 88.617188 L 200.457031 109.503906 L 194.902344 109.503906 L 194.902344 101.214844 L 188.640625 101.214844 L 188.640625 109.503906 Z M 209.546875 109.890625 C 207.78125 109.890625 206.5 109.300781 205.703125 108.121094 C 204.90625 106.921875 204.507812 105.328125 204.507812 103.335938 L 204.507812 93.4375 L 210.0625 93.4375 L 210.0625 102.628906 C 210.0625 103.65625 210.191406 104.34375 210.449219 104.683594 C 210.730469 105.027344 211.136719 105.199219 211.675781 105.199219 C 212.191406 105.199219 212.625 105.09375 212.96875 104.878906 C 213.3125 104.664062 213.65625 104.300781 214 103.785156 L 214 93.4375 L 219.554688 93.4375 L 219.554688 109.503906 L 215.035156 109.503906 L 214.648438 107.382812 L 214.519531 107.382812 C 213.871094 108.15625 213.152344 108.765625 212.355469 109.214844 C 211.578125 109.664062 210.644531 109.890625 209.546875 109.890625 Z M 229.179688 116.125 C 227.953125 116.125 226.824219 115.984375 225.789062 115.707031 C 224.757812 115.449219 223.929688 115.03125 223.304688 114.453125 C 222.703125 113.875 222.402344 113.101562 222.402344 112.140625 C 222.402344 110.875 223.152344 109.847656 224.660156 109.054688 L 224.660156 108.925781 C 224.25 108.621094 223.886719 108.253906 223.59375 107.832031 C 223.316406 107.382812 223.175781 106.824219 223.175781 106.160156 C 223.175781 105.605469 223.335938 105.058594 223.660156 104.523438 C 224.003906 103.988281 224.445312 103.527344 224.984375 103.140625 L 224.984375 103.011719 C 224.402344 102.628906 223.886719 102.082031 223.433594 101.375 C 223.003906 100.644531 222.789062 99.820312 222.789062 98.898438 C 222.789062 97.570312 223.109375 96.480469 223.757812 95.625 C 224.425781 94.746094 225.285156 94.101562 226.339844 93.695312 C 227.394531 93.265625 228.511719 93.054688 229.699219 93.054688 C 230.644531 93.054688 231.503906 93.179688 232.28125 93.4375 L 238.285156 93.4375 L 238.285156 97.425781 L 235.960938 97.425781 C 236.023438 97.617188 236.078125 97.863281 236.121094 98.164062 C 236.1875 98.464844 236.21875 98.773438 236.21875 99.09375 C 236.21875 100.359375 235.925781 101.386719 235.347656 102.179688 C 234.765625 102.953125 233.980469 103.519531 232.988281 103.882812 C 232 104.246094 230.902344 104.429688 229.699219 104.429688 C 229.160156 104.429688 228.558594 104.355469 227.890625 104.203125 C 227.632812 104.441406 227.503906 104.75 227.503906 105.136719 C 227.503906 105.480469 227.675781 105.726562 228.019531 105.875 C 228.386719 106.027344 228.964844 106.101562 229.761719 106.101562 L 232.183594 106.101562 C 234.207031 106.101562 235.769531 106.433594 236.867188 107.097656 C 237.984375 107.738281 238.542969 108.800781 238.542969 110.277344 C 238.542969 111.4375 238.15625 112.453125 237.382812 113.332031 C 236.628906 114.207031 235.550781 114.894531 234.15625 115.386719 C 232.753906 115.878906 231.097656 116.125 229.183594 116.125 Z M 229.695312 101.152344 C 230.210938 101.152344 230.632812 100.96875 230.957031 100.605469 C 231.277344 100.242188 231.4375 99.671875 231.4375 98.902344 C 231.4375 98.152344 231.277344 97.605469 230.957031 97.261719 C 230.632812 96.898438 230.210938 96.714844 229.695312 96.714844 C 229.179688 96.714844 228.761719 96.898438 228.4375 97.261719 C 228.113281 97.605469 227.953125 98.152344 227.953125 98.902344 C 227.953125 99.671875 228.113281 100.242188 228.4375 100.605469 C 228.761719 100.96875 229.179688 101.152344 229.695312 101.152344 Z M 230.082031 112.71875 C 230.988281 112.71875 231.742188 112.582031 232.34375 112.300781 C 232.945312 112.046875 233.246094 111.691406 233.246094 111.242188 C 233.246094 110.8125 233.054688 110.546875 232.667969 110.4375 C 232.300781 110.332031 231.773438 110.277344 231.085938 110.277344 L 229.824219 110.277344 C 229.179688 110.277344 228.683594 110.257812 228.339844 110.214844 C 228.015625 110.191406 227.738281 110.148438 227.5 110.085938 C 227.113281 110.472656 226.917969 110.855469 226.917969 111.242188 C 226.917969 111.757812 227.210938 112.132812 227.792969 112.367188 C 228.394531 112.601562 229.160156 112.71875 230.082031 112.71875 Z M 246.800781 116.125 C 245.574219 116.125 244.445312 115.988281 243.414062 115.710938 C 242.378906 115.453125 241.550781 115.035156 240.929688 114.457031 C 240.324219 113.878906 240.023438 113.105469 240.023438 112.140625 C 240.023438 110.878906 240.777344 109.851562 242.285156 109.058594 L 242.285156 108.929688 C 241.871094 108.625 241.511719 108.253906 241.21875 107.835938 C 240.9375 107.386719 240.796875 106.828125 240.796875 106.164062 C 240.796875 105.609375 240.960938 105.0625 241.28125 104.527344 C 241.628906 103.992188 242.070312 103.53125 242.605469 103.144531 L 242.605469 103.015625 C 242.027344 102.628906 241.507812 102.085938 241.058594 101.375 C 240.625 100.648438 240.410156 99.824219 240.410156 98.902344 C 240.410156 97.574219 240.734375 96.480469 241.378906 95.625 C 242.046875 94.75 242.90625 94.105469 243.960938 93.699219 C 245.015625 93.269531 246.136719 93.054688 247.320312 93.054688 C 248.269531 93.054688 249.128906 93.183594 249.902344 93.441406 L 255.90625 93.441406 L 255.90625 97.425781 L 253.582031 97.425781 C 253.648438 97.621094 253.703125 97.867188 253.746094 98.167969 C 253.808594 98.464844 253.839844 98.777344 253.839844 99.097656 C 253.839844 100.363281 253.550781 101.390625 252.96875 102.183594 C 252.390625 102.953125 251.601562 103.523438 250.613281 103.886719 C 249.625 104.25 248.527344 104.433594 247.320312 104.433594 C 246.785156 104.433594 246.179688 104.359375 245.515625 104.207031 C 245.253906 104.445312 245.125 104.753906 245.125 105.140625 C 245.125 105.480469 245.296875 105.730469 245.644531 105.878906 C 246.007812 106.027344 246.589844 106.105469 247.386719 106.105469 L 249.808594 106.105469 C 251.832031 106.105469 253.390625 106.4375 254.488281 107.101562 C 255.609375 107.742188 256.167969 108.804688 256.167969 110.28125 C 256.167969 111.4375 255.78125 112.457031 255.003906 113.332031 C 254.25 114.210938 253.175781 114.898438 251.777344 115.390625 C 250.378906 115.882812 248.722656 116.128906 246.808594 116.128906 Z M 247.320312 101.152344 C 247.835938 101.152344 248.253906 100.972656 248.578125 100.605469 C 248.902344 100.242188 249.0625 99.675781 249.0625 98.90625 C 249.0625 98.15625 248.902344 97.609375 248.578125 97.265625 C 248.253906 96.902344 247.835938 96.71875 247.320312 96.71875 C 246.800781 96.71875 246.382812 96.902344 246.058594 97.265625 C 245.738281 97.609375 245.574219 98.15625 245.574219 98.90625 C 245.574219 99.675781 245.738281 100.242188 246.058594 100.605469 C 246.382812 100.972656 246.800781 101.152344 247.320312 101.152344 Z M 247.707031 112.722656 C 248.609375 112.722656 249.363281 112.585938 249.964844 112.304688 C 250.570312 112.046875 250.871094 111.695312 250.871094 111.246094 C 250.871094 110.816406 250.675781 110.550781 250.289062 110.441406 C 249.921875 110.335938 249.394531 110.28125 248.707031 110.28125 L 247.449219 110.28125 C 246.800781 110.28125 246.308594 110.261719 245.964844 110.214844 C 245.640625 110.195312 245.359375 110.152344 245.125 110.089844 C 244.734375 110.472656 244.542969 110.859375 244.542969 111.246094 C 244.542969 111.757812 244.832031 112.132812 245.414062 112.371094 C 246.015625 112.605469 246.78125 112.722656 247.707031 112.722656 Z M 258.550781 109.511719 L 258.550781 93.445312 L 264.101562 93.445312 L 264.101562 109.511719 Z M 261.328125 91.453125 C 260.421875 91.453125 259.691406 91.207031 259.128906 90.714844 C 258.570312 90.199219 258.292969 89.523438 258.292969 88.6875 C 258.292969 87.855469 258.570312 87.1875 259.128906 86.695312 C 259.691406 86.183594 260.421875 85.925781 261.328125 85.925781 C 262.230469 85.925781 262.960938 86.183594 263.519531 86.695312 C 264.082031 87.1875 264.359375 87.855469 264.359375 88.6875 C 264.359375 89.523438 264.082031 90.199219 263.519531 90.714844 C 262.960938 91.207031 262.230469 91.453125 261.328125 91.453125 Z M 267.851562 109.511719 L 267.851562 93.445312 L 272.371094 93.445312 L 272.757812 95.375 L 272.886719 95.375 C 273.53125 94.753906 274.265625 94.214844 275.082031 93.765625 C 275.921875 93.296875 276.890625 93.058594 277.988281 93.058594 C 279.773438 93.058594 281.054688 93.660156 281.832031 94.859375 C 282.628906 96.039062 283.027344 97.621094 283.027344 99.617188 L 283.027344 109.515625 L 277.472656 109.515625 L 277.472656 100.324219 C 277.472656 99.292969 277.34375 98.609375 277.085938 98.265625 C 276.828125 97.921875 276.417969 97.75 275.859375 97.75 C 275.34375 97.75 274.910156 97.859375 274.566406 98.074219 C 274.222656 98.289062 273.835938 98.585938 273.40625 98.972656 L 273.40625 109.511719 Z M 292.515625 116.128906 C 291.289062 116.128906 290.160156 115.992188 289.125 115.710938 C 288.09375 115.453125 287.265625 115.039062 286.640625 114.457031 C 286.039062 113.878906 285.738281 113.109375 285.738281 112.144531 C 285.738281 110.882812 286.488281 109.851562 287.996094 109.058594 L 287.996094 108.929688 C 287.585938 108.628906 287.222656 108.257812 286.929688 107.839844 C 286.652344 107.390625 286.511719 106.832031 286.511719 106.167969 C 286.511719 105.609375 286.671875 105.066406 286.996094 104.527344 C 287.339844 103.992188 287.78125 103.53125 288.320312 103.148438 L 288.320312 103.019531 C 287.738281 102.632812 287.222656 102.085938 286.769531 101.378906 C 286.339844 100.652344 286.125 99.828125 286.125 98.90625 C 286.125 97.578125 286.445312 96.484375 287.09375 95.628906 C 287.761719 94.75 288.621094 94.109375 289.675781 93.703125 C 290.730469 93.273438 291.847656 93.058594 293.035156 93.058594 C 293.980469 93.058594 294.839844 93.1875 295.617188 93.445312 L 301.621094 93.445312 L 301.621094 97.429688 L 299.296875 97.429688 C 299.359375 97.625 299.414062 97.871094 299.457031 98.167969 C 299.523438 98.46875 299.554688 98.78125 299.554688 99.101562 C 299.554688 100.367188 299.261719 101.394531 298.683594 102.1875 C 298.101562 102.957031 297.316406 103.527344 296.324219 103.890625 C 295.335938 104.253906 294.238281 104.4375 293.035156 104.4375 C 292.496094 104.4375 291.894531 104.359375 291.226562 104.210938 C 290.96875 104.445312 290.839844 104.757812 290.839844 105.144531 C 290.839844 105.484375 291.011719 105.730469 291.355469 105.882812 C 291.722656 106.03125 292.300781 106.105469 293.097656 106.105469 L 295.519531 106.105469 C 297.542969 106.105469 299.105469 106.4375 300.203125 107.101562 C 301.320312 107.746094 301.878906 108.804688 301.878906 110.285156 C 301.878906 111.441406 301.492188 112.460938 300.71875 113.335938 C 299.964844 114.214844 298.886719 114.902344 297.488281 115.394531 C 296.089844 115.886719 294.433594 116.132812 292.519531 116.132812 Z M 293.03125 101.15625 C 293.546875 101.15625 293.96875 100.976562 294.289062 100.609375 C 294.613281 100.246094 294.773438 99.679688 294.773438 98.90625 C 294.773438 98.15625 294.613281 97.609375 294.289062 97.269531 C 293.96875 96.90625 293.546875 96.722656 293.03125 96.722656 C 292.515625 96.722656 292.09375 96.90625 291.773438 97.269531 C 291.449219 97.609375 291.289062 98.15625 291.289062 98.90625 C 291.289062 99.679688 291.449219 100.246094 291.773438 100.609375 C 292.09375 100.976562 292.515625 101.15625 293.03125 101.15625 Z M 293.417969 112.726562 C 294.324219 112.726562 295.078125 112.585938 295.679688 112.308594 C 296.28125 112.050781 296.582031 111.699219 296.582031 111.25 C 296.582031 110.820312 296.390625 110.550781 296.003906 110.445312 C 295.636719 110.335938 295.109375 110.285156 294.421875 110.285156 L 293.160156 110.285156 C 292.515625 110.285156 292.019531 110.261719 291.675781 110.21875 C 291.351562 110.199219 291.074219 110.15625 290.835938 110.089844 C 290.449219 110.476562 290.253906 110.863281 290.253906 111.25 C 290.253906 111.761719 290.546875 112.136719 291.128906 112.371094 C 291.730469 112.609375 292.492188 112.726562 293.417969 112.726562 Z M 311.175781 109.515625 L 311.175781 88.625 L 324.863281 88.625 L 324.863281 93.25 L 316.730469 93.25 L 316.730469 97.238281 L 323.703125 97.238281 L 323.703125 101.863281 L 316.730469 101.863281 L 316.730469 109.511719 Z M 330.9375 109.898438 C 329.925781 109.898438 329.054688 109.675781 328.324219 109.226562 C 327.625 108.765625 327.058594 108.136719 326.675781 107.394531 C 326.289062 106.644531 326.097656 105.828125 326.097656 104.949219 C 326.097656 103.28125 326.785156 101.972656 328.160156 101.03125 C 329.539062 100.066406 331.777344 99.425781 334.875 99.105469 C 334.746094 97.988281 333.992188 97.433594 332.617188 97.433594 C 332.035156 97.433594 331.421875 97.550781 330.777344 97.785156 C 330.128906 98 329.386719 98.332031 328.546875 98.78125 L 326.609375 95.183594 C 327.75 94.5 328.902344 93.972656 330.0625 93.609375 C 331.246094 93.246094 332.476562 93.0625 333.710938 93.0625 C 335.820312 93.0625 337.464844 93.664062 338.652344 94.863281 C 339.835938 96.042969 340.429688 97.949219 340.429688 100.585938 L 340.429688 109.519531 L 335.90625 109.519531 L 335.519531 107.976562 L 335.390625 107.976562 C 334.746094 108.554688 334.058594 109.027344 333.324219 109.390625 C 332.617188 109.730469 331.820312 109.902344 330.9375 109.902344 Z M 332.875 105.660156 C 333.328125 105.660156 333.703125 105.5625 334.003906 105.371094 C 334.304688 105.15625 334.597656 104.886719 334.875 104.566406 L 334.875 102.382812 C 333.5625 102.574219 332.648438 102.863281 332.132812 103.25 C 331.636719 103.632812 331.390625 104.050781 331.390625 104.503906 C 331.390625 105.273438 331.886719 105.660156 332.875 105.660156 Z M 351.347656 109.898438 C 349.820312 109.898438 348.441406 109.566406 347.214844 108.902344 C 345.988281 108.238281 345.007812 107.285156 344.277344 106.042969 C 343.566406 104.78125 343.210938 103.257812 343.210938 101.480469 C 343.210938 99.703125 343.609375 98.191406 344.40625 96.949219 C 345.222656 95.683594 346.289062 94.722656 347.601562 94.058594 C 348.914062 93.394531 350.335938 93.0625 351.863281 93.0625 C 352.832031 93.0625 353.703125 93.210938 354.476562 93.511719 C 355.273438 93.808594 355.972656 94.21875 356.578125 94.730469 L 353.992188 98.265625 C 353.648438 97.964844 353.335938 97.761719 353.058594 97.65625 C 352.78125 97.546875 352.484375 97.492188 352.1875 97.496094 C 351.152344 97.496094 350.347656 97.859375 349.765625 98.585938 C 349.183594 99.292969 348.894531 100.257812 348.894531 101.480469 C 348.894531 102.699219 349.195312 103.675781 349.796875 104.402344 C 350.398438 105.109375 351.132812 105.464844 351.992188 105.464844 C 352.445312 105.464844 352.886719 105.367188 353.316406 105.175781 C 353.757812 104.964844 354.179688 104.71875 354.574219 104.4375 L 356.707031 108.035156 C 355.910156 108.742188 355.027344 109.234375 354.058594 109.511719 C 353.089844 109.769531 352.1875 109.898438 351.347656 109.898438 Z M 365.789062 109.898438 C 364.21875 109.898438 362.796875 109.566406 361.527344 108.902344 C 360.28125 108.238281 359.289062 107.285156 358.558594 106.042969 C 357.828125 104.78125 357.460938 103.257812 357.460938 101.480469 C 357.460938 99.746094 357.828125 98.257812 358.558594 97.015625 C 359.3125 95.75 360.28125 94.777344 361.464844 94.089844 C 362.648438 93.40625 363.894531 93.0625 365.210938 93.0625 C 366.800781 93.0625 368.113281 93.417969 369.148438 94.125 C 370.203125 94.808594 370.976562 95.742188 371.472656 96.917969 C 371.988281 98.097656 372.246094 99.402344 372.246094 100.839844 C 372.246094 101.308594 372.214844 101.769531 372.148438 102.21875 C 372.105469 102.648438 372.0625 102.960938 372.019531 103.152344 L 362.820312 103.152344 C 363.078125 104.117188 363.539062 104.789062 364.207031 105.175781 C 364.875 105.539062 365.660156 105.722656 366.566406 105.722656 C 367.597656 105.722656 368.695312 105.402344 369.855469 104.757812 L 371.664062 108.035156 C 370.804688 108.632812 369.835938 109.09375 368.757812 109.417969 C 367.683594 109.738281 366.691406 109.898438 365.789062 109.898438 Z M 362.753906 99.550781 L 367.53125 99.550781 C 367.53125 98.929688 367.371094 98.394531 367.050781 97.945312 C 366.746094 97.472656 366.175781 97.238281 365.339844 97.238281 C 364.734375 97.238281 364.195312 97.421875 363.722656 97.785156 C 363.25 98.148438 362.925781 98.738281 362.753906 99.550781 Z M 362.753906 99.550781 " fill-opacity="1" fill-rule="nonzero"/></g><g clip-path="url(#6f32cd70f4)"><path fill="#ffffff" d="M 171.171875 112.566406 C 171.007812 111.953125 170.742188 111.371094 170.386719 110.839844 C 170.464844 110.5625 170.519531 110.28125 170.558594 109.996094 C 170.8125 108.183594 170.179688 106.523438 168.992188 105.238281 C 168.347656 104.539062 167.65625 104.074219 166.925781 103.789062 C 167.40625 101.746094 167.648438 99.652344 167.648438 97.550781 C 167.648438 96.589844 167.59375 95.652344 167.503906 94.726562 C 167.457031 94.261719 167.398438 93.800781 167.332031 93.34375 C 167.121094 91.984375 166.808594 90.644531 166.398438 89.335938 C 166.132812 88.472656 165.820312 87.625 165.46875 86.792969 C 164.941406 85.5625 164.328125 84.371094 163.628906 83.230469 C 163.167969 82.46875 162.671875 81.734375 162.132812 81.027344 C 161.871094 80.671875 161.59375 80.320312 161.308594 79.980469 C 160.460938 78.957031 159.542969 77.996094 158.554688 77.105469 C 158.226562 76.804688 157.890625 76.515625 157.546875 76.238281 C 157.207031 75.953125 156.855469 75.679688 156.503906 75.414062 C 155.789062 74.886719 155.050781 74.390625 154.289062 73.925781 C 150.089844 71.386719 145.164062 69.933594 139.898438 69.933594 C 124.570312 69.933594 112.148438 82.296875 112.148438 97.550781 C 112.148438 99.679688 112.398438 101.800781 112.886719 103.867188 C 112.230469 104.152344 111.597656 104.59375 111.011719 105.238281 C 109.824219 106.519531 109.191406 108.175781 109.445312 109.988281 C 109.484375 110.277344 109.539062 110.5625 109.617188 110.839844 C 109.261719 111.371094 108.996094 111.953125 108.832031 112.566406 C 108.46875 113.953125 108.585938 115.199219 109.050781 116.292969 C 108.546875 117.722656 108.671875 119.242188 109.332031 120.566406 C 109.808594 121.535156 110.496094 122.28125 111.339844 122.949219 C 112.34375 123.742188 113.597656 124.417969 115.113281 125.066406 C 116.921875 125.832031 119.128906 126.554688 120.132812 126.816406 C 122.722656 127.488281 125.207031 127.910156 127.730469 127.929688 C 131.320312 127.964844 134.410156 127.125 136.621094 124.972656 C 137.707031 125.105469 138.804688 125.171875 139.898438 125.171875 C 141.054688 125.167969 142.210938 125.097656 143.359375 124.953125 C 145.566406 127.117188 148.667969 127.964844 152.269531 127.933594 C 154.789062 127.914062 157.273438 127.488281 159.859375 126.820312 C 160.871094 126.554688 163.074219 125.835938 164.886719 125.066406 C 166.402344 124.417969 167.65625 123.742188 168.667969 122.949219 C 169.503906 122.28125 170.1875 121.535156 170.667969 120.570312 C 171.332031 119.246094 171.453125 117.726562 170.953125 116.296875 C 171.414062 115.203125 171.535156 113.953125 171.167969 112.570312 Z M 168.601562 116.199219 C 169.109375 117.160156 169.140625 118.25 168.691406 119.261719 C 168.011719 120.792969 166.316406 122.003906 163.03125 123.300781 C 160.984375 124.109375 159.113281 124.625 159.097656 124.628906 C 156.394531 125.328125 153.949219 125.679688 151.832031 125.679688 C 148.328125 125.679688 145.71875 124.71875 144.066406 122.816406 C 141.265625 123.292969 138.410156 123.308594 135.605469 122.863281 C 133.953125 124.734375 131.359375 125.679688 127.882812 125.679688 C 125.765625 125.679688 123.320312 125.328125 120.617188 124.628906 C 120.597656 124.625 118.730469 124.109375 116.683594 123.300781 C 113.398438 122.003906 111.707031 120.796875 111.023438 119.261719 C 110.574219 118.246094 110.605469 117.160156 111.113281 116.199219 C 111.160156 116.109375 111.210938 116.023438 111.265625 115.9375 C 110.960938 115.484375 110.757812 114.96875 110.664062 114.425781 C 110.574219 113.886719 110.601562 113.332031 110.738281 112.800781 C 110.941406 112.035156 111.359375 111.398438 111.925781 110.941406 C 111.65625 110.496094 111.476562 110 111.402344 109.480469 C 111.238281 108.355469 111.613281 107.226562 112.457031 106.308594 C 113.117188 105.597656 114.046875 105.203125 115.078125 105.203125 L 115.105469 105.203125 C 114.328125 102.726562 113.933594 100.144531 113.9375 97.546875 C 113.9375 83.390625 125.46875 71.910156 139.691406 71.910156 C 153.917969 71.910156 165.445312 83.390625 165.445312 97.546875 C 165.449219 100.148438 165.050781 102.738281 164.269531 105.222656 C 164.394531 105.210938 164.515625 105.203125 164.636719 105.203125 C 165.667969 105.203125 166.597656 105.597656 167.253906 106.308594 C 168.101562 107.226562 168.476562 108.351562 168.3125 109.480469 C 168.238281 109.996094 168.058594 110.496094 167.785156 110.941406 C 168.351562 111.398438 168.769531 112.035156 168.972656 112.800781 C 169.113281 113.332031 169.136719 113.886719 169.046875 114.425781 C 168.957031 114.964844 168.75 115.480469 168.445312 115.9375 C 168.5 116.023438 168.550781 116.109375 168.597656 116.199219 Z M 168.601562 116.199219 " fill-opacity="1" fill-rule="nonzero"/></g><path fill="#ff9d00" d="M 168.429688 115.933594 C 168.734375 115.480469 168.9375 114.964844 169.027344 114.421875 C 169.121094 113.882812 169.09375 113.328125 168.957031 112.796875 C 168.753906 112.035156 168.335938 111.398438 167.765625 110.941406 C 168.039062 110.492188 168.21875 109.996094 168.292969 109.476562 C 168.457031 108.351562 168.082031 107.226562 167.238281 106.308594 C 166.578125 105.59375 165.648438 105.199219 164.617188 105.199219 C 164.5 105.199219 164.378906 105.207031 164.253906 105.21875 C 165.03125 102.734375 165.429688 100.148438 165.425781 97.542969 C 165.425781 83.386719 153.894531 71.90625 139.671875 71.90625 C 125.449219 71.90625 113.917969 83.382812 113.917969 97.542969 C 113.914062 100.140625 114.308594 102.722656 115.085938 105.199219 L 115.058594 105.199219 C 114.027344 105.199219 113.097656 105.59375 112.4375 106.308594 C 111.59375 107.222656 111.21875 108.347656 111.382812 109.476562 C 111.457031 109.996094 111.636719 110.492188 111.90625 110.941406 C 111.339844 111.398438 110.921875 112.035156 110.71875 112.800781 C 110.582031 113.328125 110.554688 113.882812 110.648438 114.425781 C 110.738281 114.964844 110.941406 115.480469 111.246094 115.9375 C 111.191406 116.019531 111.144531 116.109375 111.097656 116.195312 C 110.585938 117.160156 110.554688 118.246094 111.003906 119.257812 C 111.683594 120.792969 113.378906 122 116.667969 123.296875 C 118.710938 124.105469 120.582031 124.621094 120.597656 124.625 C 123.300781 125.324219 125.75 125.679688 127.863281 125.679688 C 131.339844 125.679688 133.933594 124.730469 135.589844 122.863281 C 138.390625 123.304688 141.25 123.289062 144.046875 122.816406 C 145.699219 124.714844 148.308594 125.679688 151.8125 125.679688 C 153.929688 125.679688 156.375 125.324219 159.078125 124.625 C 159.097656 124.621094 160.96875 124.105469 163.011719 123.296875 C 166.300781 122 167.992188 120.792969 168.671875 119.257812 C 169.121094 118.246094 169.089844 117.160156 168.582031 116.195312 C 168.535156 116.105469 168.484375 116.019531 168.429688 115.9375 Z M 134.417969 119.933594 C 134.273438 120.183594 134.121094 120.425781 133.960938 120.660156 C 133.53125 121.285156 132.96875 121.761719 132.316406 122.117188 C 131.066406 122.792969 129.484375 123.03125 127.878906 123.03125 C 125.339844 123.03125 122.734375 122.4375 121.28125 122.0625 C 121.207031 122.042969 112.339844 119.550781 113.460938 117.425781 C 113.652344 117.070312 113.960938 116.929688 114.355469 116.929688 C 115.933594 116.929688 118.8125 119.269531 120.050781 119.269531 C 120.324219 119.269531 120.519531 119.152344 120.601562 118.867188 C 121.128906 116.984375 112.589844 116.195312 113.308594 113.46875 C 113.433594 112.984375 113.777344 112.789062 114.261719 112.789062 C 116.351562 112.789062 121.042969 116.449219 122.023438 116.449219 C 122.101562 116.449219 122.15625 116.425781 122.183594 116.382812 L 122.195312 116.359375 C 122.65625 115.601562 122.394531 115.054688 119.238281 113.128906 L 118.933594 112.945312 C 115.464844 110.855469 113.027344 109.597656 114.414062 108.09375 C 114.570312 107.921875 114.796875 107.84375 115.070312 107.84375 C 115.398438 107.84375 115.792969 107.953125 116.226562 108.136719 C 118.058594 108.90625 120.597656 111.003906 121.664062 111.917969 C 121.976562 112.1875 122.160156 112.355469 122.160156 112.355469 C 122.160156 112.355469 123.503906 113.746094 124.316406 113.746094 C 124.503906 113.746094 124.664062 113.671875 124.769531 113.492188 C 125.347656 112.523438 119.417969 108.050781 119.082031 106.207031 C 118.855469 104.957031 119.242188 104.324219 119.957031 104.324219 C 120.292969 104.324219 120.707031 104.46875 121.164062 104.757812 C 122.582031 105.652344 125.320312 110.332031 126.320312 112.152344 C 126.65625 112.761719 127.230469 113.019531 127.746094 113.019531 C 128.773438 113.019531 129.574219 112.007812 127.839844 110.71875 C 125.238281 108.777344 126.152344 105.609375 127.394531 105.414062 C 127.445312 105.40625 127.5 105.402344 127.554688 105.402344 C 128.683594 105.402344 129.183594 107.339844 129.183594 107.339844 C 129.183594 107.339844 130.644531 110.992188 133.152344 113.488281 C 135.429688 115.753906 135.75 117.613281 134.421875 119.933594 Z M 142.535156 120.359375 L 142.402344 120.375 L 142.179688 120.402344 C 142.0625 120.414062 141.949219 120.425781 141.832031 120.4375 L 141.714844 120.445312 L 141.613281 120.457031 L 141.464844 120.46875 C 141.410156 120.472656 141.355469 120.476562 141.300781 120.480469 L 141.136719 120.488281 L 141.101562 120.492188 L 140.972656 120.5 L 140.917969 120.503906 L 140.765625 120.511719 L 140.585938 120.515625 L 140.425781 120.523438 L 140.320312 120.527344 L 140.265625 120.527344 C 140.230469 120.527344 140.199219 120.527344 140.164062 120.527344 L 140.113281 120.527344 C 140.078125 120.527344 140.042969 120.527344 140.011719 120.53125 L 139.683594 120.53125 C 139.535156 120.53125 139.386719 120.53125 139.238281 120.527344 L 139.117188 120.523438 C 139.082031 120.523438 139.046875 120.523438 139.011719 120.519531 L 138.886719 120.515625 L 138.726562 120.511719 L 138.582031 120.503906 L 138.546875 120.503906 L 138.410156 120.496094 C 138.371094 120.496094 138.335938 120.492188 138.296875 120.492188 L 138.207031 120.484375 C 138.097656 120.476562 137.988281 120.46875 137.878906 120.460938 L 137.761719 120.453125 L 137.613281 120.441406 L 137.445312 120.425781 C 137.347656 120.414062 137.253906 120.40625 137.15625 120.394531 L 137.152344 120.394531 C 138.546875 117.300781 137.839844 114.414062 135.027344 111.617188 C 133.179688 109.78125 131.953125 107.070312 131.699219 106.476562 C 131.183594 104.714844 129.820312 102.757812 127.550781 102.757812 C 127.359375 102.757812 127.167969 102.773438 126.980469 102.804688 C 125.984375 102.960938 125.117188 103.527344 124.5 104.382812 C 123.828125 103.554688 123.179688 102.898438 122.589844 102.523438 C 121.703125 101.964844 120.820312 101.683594 119.957031 101.683594 C 118.882812 101.683594 117.917969 102.121094 117.25 102.917969 L 117.230469 102.941406 L 117.195312 102.78125 L 117.191406 102.773438 C 117.066406 102.230469 116.957031 101.683594 116.871094 101.132812 C 116.871094 101.128906 116.871094 101.125 116.871094 101.121094 L 116.851562 100.996094 C 116.839844 100.929688 116.832031 100.863281 116.820312 100.796875 C 116.8125 100.738281 116.804688 100.683594 116.796875 100.628906 C 116.789062 100.570312 116.78125 100.515625 116.777344 100.457031 C 116.769531 100.402344 116.761719 100.347656 116.753906 100.289062 C 116.75 100.238281 116.742188 100.183594 116.738281 100.128906 L 116.734375 100.117188 C 116.707031 99.871094 116.683594 99.625 116.664062 99.375 L 116.652344 99.234375 C 116.648438 99.195312 116.648438 99.15625 116.644531 99.117188 C 116.644531 99.105469 116.644531 99.097656 116.644531 99.089844 L 116.632812 98.929688 C 116.628906 98.871094 116.625 98.816406 116.625 98.757812 C 116.621094 98.699219 116.617188 98.644531 116.613281 98.585938 L 116.609375 98.4375 L 116.605469 98.390625 L 116.601562 98.25 L 116.597656 98.132812 C 116.597656 98.085938 116.597656 98.039062 116.597656 97.992188 L 116.59375 97.84375 C 116.59375 97.792969 116.59375 97.746094 116.59375 97.695312 C 116.589844 97.644531 116.59375 97.597656 116.59375 97.546875 C 116.59375 84.851562 126.933594 74.558594 139.691406 74.558594 C 152.449219 74.558594 162.789062 84.851562 162.789062 97.546875 L 162.789062 97.84375 C 162.789062 97.894531 162.785156 97.941406 162.785156 97.992188 C 162.785156 98.035156 162.785156 98.074219 162.78125 98.117188 C 162.78125 98.152344 162.78125 98.1875 162.78125 98.222656 C 162.78125 98.269531 162.777344 98.316406 162.777344 98.363281 L 162.777344 98.367188 C 162.773438 98.46875 162.765625 98.566406 162.761719 98.667969 L 162.761719 98.703125 L 162.753906 98.851562 L 162.746094 98.972656 C 162.730469 99.253906 162.707031 99.535156 162.679688 99.820312 L 162.679688 99.824219 C 162.675781 99.875 162.667969 99.929688 162.664062 99.980469 C 162.648438 100.105469 162.636719 100.226562 162.621094 100.351562 L 162.605469 100.472656 L 162.585938 100.617188 C 162.582031 100.671875 162.574219 100.722656 162.566406 100.777344 C 162.558594 100.835938 162.550781 100.894531 162.539062 100.953125 L 162.519531 101.09375 L 162.496094 101.25 C 162.484375 101.304688 162.476562 101.355469 162.46875 101.40625 C 162.457031 101.460938 162.449219 101.511719 162.441406 101.5625 C 162.421875 101.667969 162.402344 101.773438 162.382812 101.875 C 162.339844 102.085938 162.300781 102.289062 162.253906 102.496094 C 162.242188 102.546875 162.230469 102.601562 162.21875 102.652344 C 161.570312 102.023438 160.707031 101.679688 159.757812 101.679688 C 158.898438 101.679688 158.011719 101.964844 157.125 102.523438 C 156.535156 102.894531 155.886719 103.554688 155.21875 104.382812 C 154.597656 103.527344 153.730469 102.957031 152.738281 102.800781 C 152.546875 102.773438 152.355469 102.757812 152.164062 102.757812 C 149.898438 102.757812 148.53125 104.714844 148.015625 106.476562 C 147.761719 107.070312 146.535156 109.777344 144.6875 111.617188 C 141.875 114.40625 141.164062 117.285156 142.535156 120.363281 Z M 166.378906 114.171875 L 166.367188 114.195312 C 166.363281 114.214844 166.355469 114.230469 166.347656 114.25 C 166.335938 114.273438 166.328125 114.300781 166.3125 114.324219 C 166.285156 114.382812 166.25 114.441406 166.214844 114.5 C 166.164062 114.574219 166.109375 114.648438 166.046875 114.714844 C 166.03125 114.730469 166.019531 114.746094 166.003906 114.761719 C 165.980469 114.785156 165.960938 114.808594 165.9375 114.828125 C 165.527344 115.234375 164.902344 115.589844 164.195312 115.914062 C 164.113281 115.953125 164.03125 115.988281 163.949219 116.023438 L 163.867188 116.058594 C 163.8125 116.082031 163.761719 116.109375 163.703125 116.132812 C 163.648438 116.15625 163.589844 116.179688 163.535156 116.203125 L 163.363281 116.269531 C 162.96875 116.433594 162.558594 116.589844 162.160156 116.742188 L 161.824219 116.875 C 161.710938 116.917969 161.601562 116.960938 161.492188 117.003906 L 161.332031 117.070312 L 161.171875 117.132812 L 161.09375 117.167969 C 161.042969 117.1875 160.992188 117.210938 160.941406 117.230469 C 159.769531 117.730469 158.929688 118.238281 159.105469 118.871094 C 159.113281 118.886719 159.117188 118.902344 159.121094 118.921875 C 159.140625 118.96875 159.160156 119.011719 159.1875 119.050781 C 159.203125 119.078125 159.222656 119.101562 159.242188 119.121094 C 159.449219 119.335938 159.828125 119.304688 160.304688 119.132812 C 160.34375 119.117188 160.382812 119.105469 160.421875 119.085938 C 160.449219 119.078125 160.476562 119.066406 160.503906 119.054688 L 160.546875 119.039062 C 160.65625 118.992188 160.769531 118.941406 160.890625 118.886719 C 160.917969 118.871094 160.949219 118.859375 160.976562 118.84375 C 161.5625 118.558594 162.222656 118.175781 162.878906 117.828125 C 162.980469 117.773438 163.078125 117.722656 163.179688 117.671875 C 163.34375 117.585938 163.507812 117.503906 163.675781 117.425781 C 164.296875 117.136719 164.882812 116.929688 165.351562 116.929688 C 165.570312 116.929688 165.765625 116.972656 165.925781 117.078125 L 165.953125 117.09375 C 166.035156 117.152344 166.109375 117.222656 166.164062 117.304688 C 166.179688 117.324219 166.195312 117.34375 166.207031 117.363281 C 166.21875 117.386719 166.230469 117.40625 166.242188 117.429688 C 166.472656 117.867188 166.28125 118.320312 165.824219 118.765625 C 165.390625 119.191406 164.710938 119.613281 163.941406 120 C 163.882812 120.027344 163.824219 120.058594 163.765625 120.085938 C 161.472656 121.207031 158.46875 122.050781 158.425781 122.0625 C 157.625 122.269531 156.480469 122.539062 155.1875 122.742188 L 154.996094 122.773438 L 154.964844 122.777344 C 154.671875 122.820312 154.378906 122.859375 154.085938 122.894531 L 154.058594 122.894531 C 153.523438 122.957031 152.976562 123 152.425781 123.019531 L 152.417969 123.019531 C 152.21875 123.027344 152.023438 123.027344 151.824219 123.027344 L 151.597656 123.027344 C 151.296875 123.023438 150.996094 123.011719 150.695312 122.988281 C 150.6875 122.988281 150.683594 122.988281 150.675781 122.988281 C 150.566406 122.980469 150.460938 122.96875 150.351562 122.957031 C 150.167969 122.9375 149.984375 122.914062 149.800781 122.882812 C 149.730469 122.871094 149.652344 122.859375 149.582031 122.847656 C 149.546875 122.839844 149.515625 122.835938 149.480469 122.828125 L 149.472656 122.828125 C 149.367188 122.808594 149.261719 122.785156 149.15625 122.761719 C 149.097656 122.746094 149.035156 122.734375 148.976562 122.71875 L 148.9375 122.707031 C 148.910156 122.699219 148.878906 122.691406 148.851562 122.683594 L 148.835938 122.679688 L 148.742188 122.652344 C 148.707031 122.644531 148.671875 122.632812 148.636719 122.625 L 148.625 122.621094 L 148.539062 122.59375 C 148.503906 122.582031 148.472656 122.574219 148.4375 122.5625 C 148.410156 122.550781 148.382812 122.542969 148.355469 122.535156 L 148.296875 122.511719 C 148.238281 122.492188 148.179688 122.472656 148.125 122.449219 L 148.070312 122.429688 L 148.023438 122.410156 C 147.9375 122.378906 147.851562 122.339844 147.765625 122.304688 L 147.710938 122.277344 L 147.699219 122.273438 C 147.679688 122.261719 147.660156 122.253906 147.640625 122.246094 C 147.601562 122.226562 147.5625 122.207031 147.523438 122.1875 L 147.511719 122.179688 L 147.457031 122.152344 C 147.355469 122.101562 147.257812 122.042969 147.164062 121.984375 L 147.109375 121.953125 C 147.082031 121.9375 147.058594 121.921875 147.03125 121.902344 L 146.964844 121.859375 C 146.941406 121.84375 146.914062 121.824219 146.890625 121.808594 L 146.847656 121.777344 C 146.800781 121.746094 146.753906 121.710938 146.710938 121.675781 C 146.6875 121.65625 146.664062 121.640625 146.640625 121.621094 C 146.589844 121.582031 146.535156 121.539062 146.488281 121.492188 L 146.484375 121.492188 C 146.433594 121.449219 146.386719 121.40625 146.339844 121.359375 C 146.3125 121.335938 146.289062 121.3125 146.265625 121.289062 C 146.242188 121.265625 146.21875 121.242188 146.195312 121.214844 C 146.171875 121.191406 146.148438 121.167969 146.128906 121.140625 C 146.105469 121.117188 146.085938 121.09375 146.0625 121.070312 L 146.054688 121.0625 C 145.945312 120.933594 145.84375 120.800781 145.746094 120.664062 L 145.710938 120.609375 C 145.683594 120.570312 145.660156 120.535156 145.636719 120.496094 L 145.5625 120.386719 C 145.527344 120.332031 145.492188 120.277344 145.460938 120.222656 C 145.4375 120.1875 145.414062 120.148438 145.390625 120.109375 C 145.371094 120.074219 145.347656 120.042969 145.332031 120.007812 C 145.320312 119.992188 145.308594 119.972656 145.300781 119.953125 C 145.289062 119.933594 145.277344 119.917969 145.265625 119.898438 L 145.25 119.867188 C 145.246094 119.855469 145.242188 119.855469 145.238281 119.847656 C 145.21875 119.8125 145.199219 119.773438 145.179688 119.738281 C 145.171875 119.722656 145.160156 119.703125 145.152344 119.6875 L 145.097656 119.585938 L 145.042969 119.480469 C 145.035156 119.460938 145.027344 119.445312 145.019531 119.425781 C 145 119.390625 144.984375 119.355469 144.96875 119.316406 C 144.960938 119.300781 144.953125 119.289062 144.949219 119.273438 C 144.925781 119.222656 144.902344 119.171875 144.882812 119.117188 C 144.867188 119.085938 144.855469 119.050781 144.839844 119.015625 C 144.800781 118.917969 144.761719 118.816406 144.730469 118.714844 C 144.71875 118.683594 144.710938 118.652344 144.699219 118.621094 C 144.679688 118.554688 144.660156 118.484375 144.640625 118.414062 C 144.621094 118.332031 144.601562 118.25 144.585938 118.167969 C 144.574219 118.117188 144.566406 118.070312 144.558594 118.019531 C 144.550781 117.96875 144.542969 117.921875 144.535156 117.875 C 144.523438 117.777344 144.515625 117.679688 144.507812 117.582031 C 144.507812 117.566406 144.507812 117.550781 144.507812 117.535156 C 144.507812 117.5 144.503906 117.46875 144.503906 117.4375 C 144.488281 116.140625 145.148438 114.894531 146.554688 113.492188 C 149.066406 110.996094 150.527344 107.34375 150.527344 107.34375 C 150.527344 107.34375 150.566406 107.191406 150.648438 106.972656 C 150.675781 106.898438 150.703125 106.824219 150.734375 106.753906 C 150.769531 106.671875 150.804688 106.589844 150.84375 106.511719 L 150.855469 106.488281 C 150.90625 106.390625 150.964844 106.292969 151.023438 106.195312 C 151.035156 106.171875 151.050781 106.152344 151.066406 106.128906 C 151.109375 106.0625 151.15625 106 151.207031 105.9375 C 151.246094 105.890625 151.285156 105.84375 151.328125 105.800781 C 151.476562 105.652344 151.640625 105.527344 151.828125 105.464844 L 151.855469 105.457031 C 151.871094 105.449219 151.886719 105.445312 151.902344 105.441406 C 151.921875 105.4375 151.9375 105.433594 151.957031 105.429688 L 151.964844 105.425781 C 152.007812 105.417969 152.046875 105.414062 152.085938 105.410156 L 152.089844 105.410156 C 152.113281 105.410156 152.132812 105.40625 152.152344 105.40625 C 152.207031 105.410156 152.261719 105.414062 152.316406 105.421875 C 152.542969 105.457031 152.757812 105.589844 152.941406 105.796875 L 152.96875 105.828125 C 153.027344 105.898438 153.082031 105.972656 153.128906 106.050781 C 153.167969 106.109375 153.203125 106.171875 153.234375 106.234375 C 153.246094 106.261719 153.261719 106.289062 153.273438 106.316406 C 153.277344 106.328125 153.285156 106.339844 153.289062 106.355469 C 153.300781 106.382812 153.3125 106.410156 153.324219 106.4375 C 153.390625 106.601562 153.4375 106.769531 153.472656 106.941406 C 153.511719 107.125 153.53125 107.3125 153.539062 107.5 C 153.539062 107.582031 153.539062 107.667969 153.539062 107.75 C 153.535156 107.785156 153.535156 107.816406 153.53125 107.847656 C 153.507812 108.210938 153.429688 108.5625 153.296875 108.902344 C 153.285156 108.933594 153.269531 108.96875 153.257812 109.003906 C 153.191406 109.160156 153.113281 109.308594 153.027344 109.457031 C 152.980469 109.539062 152.925781 109.621094 152.871094 109.703125 L 152.835938 109.753906 C 152.699219 109.941406 152.550781 110.113281 152.386719 110.277344 C 152.226562 110.4375 152.050781 110.585938 151.871094 110.722656 C 151.6875 110.859375 151.511719 111.007812 151.355469 111.171875 C 150.894531 111.648438 150.789062 112.070312 150.894531 112.390625 C 150.90625 112.425781 150.917969 112.464844 150.9375 112.496094 C 150.972656 112.570312 151.023438 112.640625 151.082031 112.699219 L 151.097656 112.714844 C 151.113281 112.730469 151.132812 112.746094 151.152344 112.761719 L 151.167969 112.777344 C 151.214844 112.8125 151.261719 112.839844 151.308594 112.867188 C 151.324219 112.875 151.335938 112.882812 151.351562 112.890625 C 151.421875 112.921875 151.492188 112.949219 151.5625 112.96875 L 151.582031 112.976562 L 151.609375 112.984375 L 151.632812 112.988281 L 151.660156 112.992188 L 151.683594 113 L 151.707031 113.003906 C 151.726562 113.007812 151.746094 113.007812 151.761719 113.011719 L 151.78125 113.015625 L 151.8125 113.015625 L 151.832031 113.019531 L 151.863281 113.023438 L 152.050781 113.023438 L 152.085938 113.019531 L 152.128906 113.015625 L 152.167969 113.011719 C 152.175781 113.011719 152.1875 113.007812 152.195312 113.007812 C 152.335938 112.984375 152.472656 112.945312 152.601562 112.890625 C 152.628906 112.878906 152.65625 112.867188 152.679688 112.851562 C 152.734375 112.824219 152.785156 112.796875 152.835938 112.761719 C 152.90625 112.71875 152.972656 112.664062 153.03125 112.609375 L 153.074219 112.570312 C 153.082031 112.5625 153.089844 112.554688 153.097656 112.550781 C 153.136719 112.507812 153.175781 112.464844 153.214844 112.417969 C 153.28125 112.335938 153.335938 112.246094 153.386719 112.15625 C 153.984375 111.078125 154.609375 110.011719 155.261719 108.96875 L 155.351562 108.824219 L 155.441406 108.683594 C 155.488281 108.609375 155.535156 108.539062 155.578125 108.46875 L 155.625 108.394531 L 155.714844 108.253906 C 155.839844 108.066406 155.964844 107.878906 156.085938 107.691406 L 156.179688 107.554688 C 156.367188 107.277344 156.554688 107.011719 156.738281 106.757812 L 156.828125 106.628906 C 157.027344 106.355469 157.238281 106.085938 157.453125 105.824219 L 157.539062 105.722656 C 157.554688 105.703125 157.566406 105.6875 157.582031 105.671875 L 157.667969 105.574219 C 157.683594 105.558594 157.695312 105.539062 157.710938 105.527344 L 157.792969 105.433594 L 157.832031 105.390625 C 157.871094 105.347656 157.914062 105.304688 157.953125 105.261719 C 157.980469 105.234375 158.007812 105.207031 158.03125 105.183594 C 158.1875 105.027344 158.359375 104.882812 158.542969 104.761719 L 158.582031 104.734375 L 158.625 104.707031 C 158.652344 104.691406 158.683594 104.675781 158.710938 104.660156 C 159.429688 104.253906 160.027344 104.222656 160.371094 104.5625 C 160.578125 104.769531 160.695312 105.113281 160.6875 105.589844 C 160.6875 105.613281 160.6875 105.632812 160.6875 105.65625 L 160.6875 105.679688 C 160.6875 105.699219 160.683594 105.722656 160.683594 105.746094 C 160.683594 105.773438 160.679688 105.800781 160.675781 105.824219 C 160.671875 105.851562 160.671875 105.875 160.667969 105.898438 C 160.667969 105.90625 160.667969 105.910156 160.667969 105.917969 C 160.664062 105.941406 160.664062 105.960938 160.660156 105.984375 C 160.660156 105.988281 160.660156 105.996094 160.65625 106.003906 C 160.652344 106.03125 160.648438 106.058594 160.644531 106.089844 C 160.640625 106.113281 160.636719 106.140625 160.632812 106.167969 C 160.628906 106.183594 160.625 106.199219 160.625 106.214844 C 160.617188 106.257812 160.605469 106.300781 160.59375 106.339844 C 160.570312 106.417969 160.542969 106.496094 160.507812 106.570312 C 160.492188 106.601562 160.476562 106.636719 160.460938 106.667969 C 160.429688 106.734375 160.390625 106.800781 160.351562 106.871094 C 160.328125 106.90625 160.308594 106.941406 160.285156 106.976562 L 160.253906 107.03125 C 160.21875 107.082031 160.179688 107.140625 160.144531 107.195312 C 160.105469 107.25 160.066406 107.304688 160.019531 107.363281 C 159.964844 107.441406 159.90625 107.519531 159.84375 107.597656 L 159.796875 107.65625 C 159.660156 107.824219 159.523438 107.988281 159.382812 108.148438 L 159.269531 108.273438 L 159.214844 108.335938 C 159.136719 108.425781 159.058594 108.511719 158.980469 108.59375 L 158.917969 108.660156 C 158.878906 108.703125 158.835938 108.746094 158.796875 108.789062 C 158.757812 108.835938 158.714844 108.878906 158.671875 108.921875 L 158.546875 109.054688 L 158.421875 109.183594 C 158.378906 109.230469 158.335938 109.273438 158.292969 109.316406 L 158.035156 109.582031 C 156.796875 110.84375 155.496094 112.101562 155.054688 112.886719 C 155.027344 112.9375 155 112.992188 154.976562 113.042969 C 154.914062 113.1875 154.886719 113.308594 154.90625 113.40625 C 154.910156 113.441406 154.921875 113.472656 154.9375 113.5 C 154.964844 113.542969 154.992188 113.582031 155.027344 113.617188 C 155.042969 113.632812 155.0625 113.648438 155.078125 113.660156 C 155.171875 113.726562 155.28125 113.757812 155.390625 113.753906 L 155.460938 113.753906 L 155.496094 113.746094 L 155.527344 113.742188 C 155.53125 113.742188 155.535156 113.742188 155.539062 113.742188 L 155.566406 113.738281 L 155.574219 113.734375 L 155.601562 113.726562 L 155.644531 113.71875 L 155.683594 113.707031 C 155.710938 113.699219 155.734375 113.691406 155.757812 113.679688 C 155.816406 113.660156 155.867188 113.640625 155.921875 113.613281 C 155.933594 113.605469 155.949219 113.601562 155.960938 113.59375 L 156.003906 113.574219 C 156.054688 113.546875 156.109375 113.519531 156.160156 113.488281 C 156.203125 113.460938 156.246094 113.4375 156.289062 113.410156 L 156.328125 113.382812 C 156.339844 113.375 156.355469 113.367188 156.367188 113.355469 L 156.410156 113.328125 L 156.429688 113.3125 L 156.488281 113.273438 C 156.542969 113.234375 156.59375 113.195312 156.648438 113.15625 L 156.652344 113.15625 L 156.734375 113.089844 C 156.84375 113.003906 156.949219 112.914062 157.046875 112.832031 L 157.109375 112.777344 L 157.117188 112.769531 L 157.148438 112.742188 C 157.230469 112.671875 157.300781 112.605469 157.359375 112.550781 L 157.4375 112.472656 L 157.472656 112.441406 L 157.488281 112.425781 C 157.519531 112.394531 157.519531 112.394531 157.546875 112.367188 L 157.558594 112.355469 C 157.5625 112.351562 157.570312 112.347656 157.574219 112.34375 L 157.589844 112.328125 L 157.652344 112.273438 L 157.6875 112.242188 C 157.703125 112.226562 157.722656 112.210938 157.742188 112.191406 L 157.78125 112.15625 C 157.789062 112.152344 157.796875 112.144531 157.804688 112.136719 L 157.847656 112.097656 L 157.914062 112.042969 L 157.945312 112.015625 C 158.078125 111.898438 158.242188 111.761719 158.425781 111.605469 L 158.5 111.539062 L 158.625 111.4375 L 158.753906 111.328125 C 158.921875 111.191406 159.101562 111.042969 159.292969 110.890625 L 159.417969 110.789062 C 159.527344 110.707031 159.636719 110.621094 159.746094 110.53125 C 159.789062 110.496094 159.835938 110.464844 159.882812 110.429688 C 159.996094 110.339844 160.109375 110.253906 160.226562 110.167969 C 160.488281 109.972656 160.757812 109.773438 161.027344 109.582031 L 161.144531 109.5 C 161.226562 109.445312 161.308594 109.390625 161.390625 109.335938 L 161.464844 109.285156 C 161.613281 109.1875 161.761719 109.089844 161.910156 108.996094 L 161.984375 108.949219 L 162.054688 108.902344 C 162.128906 108.859375 162.203125 108.8125 162.277344 108.769531 L 162.347656 108.726562 L 162.496094 108.644531 C 162.542969 108.613281 162.589844 108.589844 162.636719 108.5625 L 162.667969 108.546875 L 162.78125 108.484375 C 162.828125 108.457031 162.875 108.433594 162.921875 108.410156 L 162.992188 108.375 L 163.058594 108.339844 C 163.214844 108.261719 163.371094 108.191406 163.53125 108.125 C 163.554688 108.117188 163.574219 108.105469 163.597656 108.097656 C 163.640625 108.078125 163.683594 108.0625 163.722656 108.050781 C 163.765625 108.035156 163.808594 108.019531 163.847656 108.003906 C 163.886719 107.992188 163.921875 107.980469 163.957031 107.96875 L 163.96875 107.96875 C 163.988281 107.960938 164.007812 107.957031 164.027344 107.949219 L 164.03125 107.949219 C 164.070312 107.9375 164.109375 107.929688 164.148438 107.917969 L 164.152344 107.917969 C 164.207031 107.90625 164.261719 107.894531 164.316406 107.886719 C 164.335938 107.882812 164.355469 107.878906 164.371094 107.875 C 164.425781 107.867188 164.476562 107.863281 164.53125 107.859375 C 164.566406 107.855469 164.597656 107.855469 164.632812 107.855469 L 164.65625 107.855469 C 164.691406 107.855469 164.726562 107.859375 164.757812 107.863281 C 164.773438 107.863281 164.789062 107.863281 164.800781 107.867188 L 164.808594 107.867188 C 164.824219 107.867188 164.835938 107.871094 164.851562 107.875 C 164.867188 107.875 164.878906 107.878906 164.894531 107.882812 L 164.898438 107.882812 C 164.914062 107.886719 164.925781 107.890625 164.941406 107.894531 C 165.058594 107.925781 165.164062 107.984375 165.253906 108.0625 L 165.292969 108.101562 C 165.414062 108.230469 165.515625 108.378906 165.59375 108.539062 L 165.605469 108.5625 C 165.628906 108.625 165.648438 108.6875 165.664062 108.753906 C 165.703125 108.929688 165.691406 109.117188 165.632812 109.292969 C 165.605469 109.367188 165.574219 109.441406 165.539062 109.511719 L 165.511719 109.554688 C 165.417969 109.714844 165.304688 109.863281 165.179688 109.996094 L 165.152344 110.023438 C 165.089844 110.089844 165.027344 110.148438 164.964844 110.210938 C 164.945312 110.230469 164.921875 110.246094 164.902344 110.265625 L 164.867188 110.296875 C 164.800781 110.355469 164.734375 110.414062 164.664062 110.46875 C 164.652344 110.480469 164.640625 110.488281 164.628906 110.5 C 164.578125 110.539062 164.527344 110.578125 164.476562 110.617188 C 164.296875 110.753906 164.117188 110.882812 163.929688 111.011719 C 163.820312 111.085938 163.710938 111.160156 163.59375 111.234375 C 163.375 111.378906 163.15625 111.515625 162.9375 111.652344 C 162.871094 111.691406 162.808594 111.730469 162.742188 111.769531 C 162.144531 112.136719 161.480469 112.53125 160.769531 112.957031 L 160.585938 113.066406 C 160.386719 113.1875 160.195312 113.304688 160.019531 113.417969 L 159.929688 113.472656 L 159.757812 113.582031 C 159.691406 113.625 159.625 113.664062 159.5625 113.707031 C 159.515625 113.738281 159.46875 113.769531 159.421875 113.796875 L 159.332031 113.859375 C 159.285156 113.886719 159.242188 113.914062 159.199219 113.945312 L 159.15625 113.972656 C 159.109375 114 159.066406 114.03125 159.023438 114.058594 L 158.953125 114.109375 L 158.871094 114.164062 L 158.796875 114.214844 C 158.675781 114.300781 158.558594 114.386719 158.441406 114.472656 L 158.402344 114.503906 C 158.355469 114.539062 158.3125 114.570312 158.269531 114.605469 L 158.210938 114.652344 C 158.117188 114.726562 158.03125 114.796875 157.953125 114.867188 L 157.917969 114.902344 C 157.894531 114.921875 157.875 114.941406 157.851562 114.960938 C 157.839844 114.972656 157.824219 114.988281 157.8125 115 L 157.792969 115.019531 C 157.75 115.0625 157.707031 115.109375 157.664062 115.15625 L 157.644531 115.175781 C 157.601562 115.230469 157.5625 115.277344 157.527344 115.328125 L 157.511719 115.347656 C 157.472656 115.40625 157.4375 115.46875 157.40625 115.53125 L 157.394531 115.554688 L 157.390625 115.570312 L 157.382812 115.582031 L 157.378906 115.601562 C 157.375 115.605469 157.371094 115.617188 157.367188 115.628906 C 157.355469 115.664062 157.347656 115.699219 157.339844 115.738281 L 157.339844 115.757812 L 157.335938 115.777344 L 157.335938 115.890625 C 157.335938 115.898438 157.335938 115.90625 157.335938 115.914062 C 157.335938 115.921875 157.335938 115.925781 157.335938 115.929688 C 157.335938 115.9375 157.339844 115.945312 157.339844 115.953125 L 157.347656 115.988281 C 157.347656 116 157.351562 116.011719 157.351562 116.019531 C 157.355469 116.03125 157.359375 116.042969 157.363281 116.054688 C 157.371094 116.089844 157.382812 116.121094 157.398438 116.15625 C 157.398438 116.15625 157.398438 116.160156 157.402344 116.164062 C 157.402344 116.171875 157.40625 116.179688 157.410156 116.1875 C 157.425781 116.222656 157.441406 116.257812 157.460938 116.289062 L 157.5 116.359375 L 157.523438 116.394531 C 157.527344 116.398438 157.53125 116.402344 157.535156 116.410156 L 157.554688 116.429688 C 157.5625 116.433594 157.566406 116.4375 157.574219 116.441406 C 157.578125 116.441406 157.585938 116.445312 157.59375 116.449219 C 157.601562 116.449219 157.609375 116.453125 157.617188 116.453125 C 157.792969 116.492188 158.152344 116.347656 158.632812 116.097656 L 158.71875 116.050781 L 158.863281 115.972656 L 158.9375 115.933594 C 158.988281 115.90625 159.039062 115.875 159.09375 115.84375 L 159.1875 115.789062 C 159.824219 115.425781 160.582031 114.960938 161.367188 114.503906 C 161.4375 114.460938 161.511719 114.417969 161.585938 114.375 L 161.734375 114.28125 C 161.808594 114.238281 161.882812 114.195312 161.957031 114.15625 C 162.269531 113.976562 162.589844 113.804688 162.914062 113.640625 L 163.058594 113.570312 C 163.15625 113.519531 163.25 113.476562 163.34375 113.429688 C 163.527344 113.34375 163.710938 113.261719 163.898438 113.183594 L 164 113.144531 L 164.011719 113.140625 C 164.550781 112.925781 165.042969 112.792969 165.441406 112.792969 C 165.527344 112.792969 165.609375 112.800781 165.695312 112.816406 L 165.699219 112.816406 C 165.726562 112.820312 165.75 112.824219 165.777344 112.832031 L 165.78125 112.832031 C 165.816406 112.839844 165.851562 112.851562 165.886719 112.867188 C 165.914062 112.875 165.941406 112.886719 165.96875 112.902344 C 166.082031 112.957031 166.179688 113.042969 166.25 113.148438 C 166.257812 113.15625 166.261719 113.164062 166.269531 113.175781 C 166.296875 113.214844 166.320312 113.257812 166.335938 113.304688 C 166.347656 113.328125 166.359375 113.355469 166.367188 113.382812 C 166.378906 113.414062 166.386719 113.441406 166.394531 113.472656 C 166.460938 113.703125 166.453125 113.945312 166.378906 114.171875 Z M 166.378906 114.171875 " fill-opacity="1" fill-rule="nonzero"/><path fill="#ffd21e" d="M 162.761719 97.6875 L 162.761719 97.539062 C 162.761719 84.84375 152.421875 74.550781 139.664062 74.550781 C 126.910156 74.550781 116.566406 84.84375 116.566406 97.539062 L 116.566406 97.585938 C 116.566406 97.621094 116.566406 97.652344 116.566406 97.6875 C 116.570312 97.734375 116.570312 97.785156 116.570312 97.835938 L 116.570312 97.984375 L 116.574219 98.035156 C 116.574219 98.066406 116.574219 98.09375 116.574219 98.125 L 116.578125 98.242188 L 116.582031 98.378906 L 116.585938 98.425781 L 116.589844 98.570312 L 116.589844 98.578125 L 116.597656 98.746094 L 116.597656 98.75 C 116.601562 98.804688 116.605469 98.863281 116.609375 98.921875 C 116.613281 98.972656 116.613281 99.027344 116.617188 99.078125 L 116.621094 99.089844 C 116.621094 99.132812 116.625 99.179688 116.628906 99.222656 L 116.628906 99.234375 C 116.632812 99.28125 116.636719 99.324219 116.640625 99.367188 L 116.640625 99.375 L 116.644531 99.453125 C 116.664062 99.671875 116.6875 99.890625 116.710938 100.105469 L 116.710938 100.121094 L 116.730469 100.28125 L 116.75 100.449219 C 116.765625 100.5625 116.78125 100.671875 116.796875 100.785156 C 116.804688 100.851562 116.816406 100.921875 116.824219 100.988281 L 116.828125 100.996094 C 116.851562 101.148438 116.875 101.300781 116.902344 101.453125 C 116.976562 101.890625 117.066406 102.332031 117.167969 102.765625 L 117.167969 102.773438 L 117.179688 102.8125 C 117.1875 102.851562 117.199219 102.890625 117.207031 102.929688 L 117.222656 102.910156 C 117.894531 102.113281 118.855469 101.671875 119.933594 101.671875 C 120.792969 101.671875 121.679688 101.957031 122.566406 102.515625 C 123.15625 102.886719 123.804688 103.546875 124.472656 104.375 C 125.09375 103.519531 125.960938 102.949219 126.953125 102.792969 C 127.144531 102.765625 127.335938 102.75 127.527344 102.75 C 129.792969 102.75 131.160156 104.707031 131.675781 106.46875 C 131.929688 107.0625 133.15625 109.769531 135.007812 111.605469 C 137.824219 114.40625 138.527344 117.292969 137.132812 120.386719 L 137.140625 120.386719 C 137.234375 120.394531 137.328125 120.40625 137.425781 120.414062 C 137.480469 120.417969 137.539062 120.425781 137.597656 120.429688 L 137.617188 120.433594 C 137.65625 120.4375 137.699219 120.441406 137.742188 120.441406 L 137.859375 120.453125 C 137.96875 120.460938 138.078125 120.46875 138.191406 120.476562 L 138.277344 120.480469 L 138.347656 120.484375 L 138.390625 120.488281 L 138.527344 120.496094 L 138.566406 120.496094 L 138.707031 120.5 L 138.867188 120.507812 L 138.996094 120.511719 L 139.015625 120.511719 C 139.042969 120.511719 139.070312 120.515625 139.097656 120.515625 L 139.125 120.515625 C 139.304688 120.519531 139.484375 120.519531 139.664062 120.519531 L 139.992188 120.519531 C 140.027344 120.519531 140.058594 120.519531 140.09375 120.519531 L 140.144531 120.519531 L 140.191406 120.515625 C 140.210938 120.515625 140.226562 120.515625 140.246094 120.515625 L 140.300781 120.515625 L 140.40625 120.511719 L 140.570312 120.507812 L 140.746094 120.5 C 140.796875 120.496094 140.847656 120.496094 140.898438 120.492188 L 140.953125 120.488281 L 141.035156 120.484375 L 141.082031 120.480469 L 141.117188 120.480469 L 141.28125 120.46875 C 141.335938 120.464844 141.390625 120.460938 141.445312 120.457031 L 141.59375 120.445312 L 141.695312 120.4375 L 141.8125 120.425781 C 141.929688 120.414062 142.046875 120.40625 142.164062 120.390625 C 142.238281 120.382812 142.308594 120.375 142.382812 120.367188 L 142.515625 120.351562 C 141.144531 117.273438 141.851562 114.398438 144.65625 111.609375 C 146.503906 109.773438 147.730469 107.0625 147.988281 106.46875 C 148.503906 104.707031 149.867188 102.75 152.136719 102.75 C 152.328125 102.75 152.519531 102.761719 152.707031 102.792969 C 153.699219 102.949219 154.566406 103.519531 155.1875 104.375 C 155.859375 103.546875 156.507812 102.886719 157.097656 102.515625 C 157.980469 101.957031 158.867188 101.671875 159.730469 101.671875 C 160.679688 101.671875 161.539062 102.015625 162.191406 102.644531 C 162.226562 102.484375 162.261719 102.324219 162.292969 102.167969 C 162.3125 102.066406 162.332031 101.96875 162.351562 101.867188 C 162.375 101.746094 162.398438 101.621094 162.417969 101.5 C 162.425781 101.464844 162.429688 101.433594 162.4375 101.398438 C 162.449219 101.347656 162.457031 101.296875 162.464844 101.242188 L 162.46875 101.222656 L 162.488281 101.085938 L 162.511719 100.945312 C 162.519531 100.886719 162.527344 100.828125 162.535156 100.769531 C 162.542969 100.722656 162.546875 100.679688 162.554688 100.636719 L 162.558594 100.609375 L 162.578125 100.464844 L 162.59375 100.339844 C 162.601562 100.261719 162.609375 100.179688 162.621094 100.097656 C 162.625 100.066406 162.628906 100.03125 162.628906 100 L 162.632812 99.972656 C 162.640625 99.917969 162.644531 99.863281 162.648438 99.808594 L 162.660156 99.683594 C 162.6875 99.40625 162.707031 99.125 162.722656 98.84375 L 162.730469 98.695312 L 162.734375 98.660156 L 162.738281 98.519531 C 162.742188 98.464844 162.742188 98.414062 162.746094 98.359375 L 162.746094 98.316406 C 162.75 98.28125 162.75 98.25 162.75 98.214844 L 162.75 98.203125 C 162.75 98.171875 162.753906 98.140625 162.753906 98.105469 L 162.753906 98.078125 C 162.753906 98.046875 162.753906 98.015625 162.753906 97.984375 L 162.757812 97.957031 C 162.757812 97.917969 162.757812 97.875 162.757812 97.835938 Z M 133.9375 120.652344 C 135.769531 117.984375 135.636719 115.976562 133.128906 113.480469 C 130.617188 110.984375 129.15625 107.332031 129.15625 107.332031 C 129.15625 107.332031 128.613281 105.210938 127.371094 105.40625 C 126.125 105.601562 125.214844 108.769531 127.816406 110.710938 C 130.421875 112.648438 127.300781 113.964844 126.296875 112.144531 C 125.292969 110.324219 122.5625 105.644531 121.140625 104.75 C 119.722656 103.851562 118.726562 104.355469 119.058594 106.199219 C 119.226562 107.117188 120.769531 108.679688 122.214844 110.136719 C 123.675781 111.617188 125.035156 112.996094 124.746094 113.480469 C 124.167969 114.445312 122.136719 112.34375 122.136719 112.34375 C 122.136719 112.34375 115.773438 106.582031 114.390625 108.082031 C 113.113281 109.464844 115.082031 110.644531 118.117188 112.457031 C 118.375 112.609375 118.640625 112.769531 118.914062 112.933594 C 122.386719 115.027344 122.65625 115.578125 122.164062 116.367188 C 121.980469 116.660156 120.820312 115.964844 119.390625 115.109375 C 116.953125 113.65625 113.738281 111.734375 113.285156 113.453125 C 112.890625 114.941406 115.257812 115.851562 117.398438 116.679688 C 119.183594 117.367188 120.820312 117.996094 120.578125 118.851562 C 120.328125 119.738281 118.980469 119 117.503906 118.191406 C 115.847656 117.285156 114.03125 116.289062 113.4375 117.410156 C 112.316406 119.53125 121.179688 122.027344 121.253906 122.046875 C 124.121094 122.785156 131.394531 124.351562 133.9375 120.644531 Z M 145.722656 120.652344 C 143.890625 117.984375 144.023438 115.976562 146.53125 113.480469 C 149.042969 110.984375 150.503906 107.332031 150.503906 107.332031 C 150.503906 107.332031 151.046875 105.210938 152.289062 105.40625 C 153.535156 105.601562 154.445312 108.769531 151.84375 110.710938 C 149.238281 112.648438 152.359375 113.964844 153.363281 112.144531 C 154.367188 110.324219 157.101562 105.644531 158.515625 104.75 C 159.933594 103.851562 160.933594 104.355469 160.597656 106.199219 C 160.433594 107.117188 158.886719 108.679688 157.445312 110.140625 C 155.980469 111.621094 154.621094 112.996094 154.910156 113.484375 C 155.488281 114.449219 157.523438 112.347656 157.523438 112.347656 C 157.523438 112.347656 163.886719 106.582031 165.269531 108.082031 C 166.546875 109.46875 164.578125 110.644531 161.542969 112.457031 C 161.285156 112.613281 161.019531 112.769531 160.746094 112.933594 C 157.273438 115.027344 157.003906 115.578125 157.496094 116.367188 C 157.679688 116.660156 158.839844 115.96875 160.269531 115.113281 C 162.707031 113.65625 165.921875 111.738281 166.375 113.457031 C 166.765625 114.941406 164.402344 115.855469 162.261719 116.679688 C 160.472656 117.367188 158.839844 117.996094 159.082031 118.851562 C 159.332031 119.738281 160.679688 119 162.152344 118.191406 C 163.808594 117.285156 165.625 116.289062 166.21875 117.414062 C 167.339844 119.535156 158.476562 122.027344 158.402344 122.046875 C 155.539062 122.789062 148.261719 124.355469 145.722656 120.648438 Z M 145.722656 120.652344 " fill-opacity="1" fill-rule="nonzero"/><path fill="#32343d" d="M 147.1875 91.28125 C 147.546875 91.40625 147.816406 91.792969 148.070312 92.160156 C 148.414062 92.65625 148.734375 93.117188 149.226562 92.855469 C 149.808594 92.550781 150.28125 92.078125 150.59375 91.503906 C 150.90625 90.925781 151.039062 90.269531 150.972656 89.621094 C 150.925781 89.132812 150.773438 88.664062 150.519531 88.242188 C 150.269531 87.824219 149.925781 87.464844 149.519531 87.191406 C 149.109375 86.917969 148.648438 86.738281 148.160156 86.664062 C 147.675781 86.59375 147.179688 86.628906 146.707031 86.769531 C 146.078125 86.957031 145.519531 87.328125 145.101562 87.832031 C 144.683594 88.335938 144.425781 88.953125 144.359375 89.605469 C 144.292969 90.257812 144.421875 90.910156 144.730469 91.488281 C 144.960938 91.917969 145.464844 91.714844 146 91.503906 C 146.417969 91.335938 146.855469 91.164062 147.1875 91.28125 Z M 131.527344 91.28125 C 131.167969 91.40625 130.902344 91.792969 130.644531 92.160156 C 130.300781 92.65625 129.980469 93.117188 129.488281 92.859375 C 129.054688 92.628906 128.679688 92.304688 128.382812 91.914062 C 128.089844 91.519531 127.890625 91.070312 127.792969 90.589844 C 127.695312 90.109375 127.707031 89.613281 127.824219 89.140625 C 127.941406 88.664062 128.164062 88.222656 128.476562 87.84375 C 128.785156 87.464844 129.179688 87.160156 129.621094 86.949219 C 130.066406 86.738281 130.550781 86.632812 131.042969 86.628906 C 131.535156 86.628906 132.019531 86.734375 132.464844 86.945312 C 132.90625 87.152344 133.300781 87.457031 133.613281 87.832031 C 134.03125 88.335938 134.289062 88.953125 134.355469 89.605469 C 134.421875 90.257812 134.292969 90.910156 133.984375 91.488281 C 133.753906 91.917969 133.25 91.714844 132.714844 91.503906 C 132.296875 91.335938 131.859375 91.164062 131.527344 91.28125 Z M 144.765625 105.460938 C 147.246094 103.515625 148.15625 100.335938 148.15625 98.382812 C 148.15625 96.832031 147.109375 97.320312 145.4375 98.144531 L 145.34375 98.191406 C 143.804688 98.949219 141.757812 99.957031 139.515625 99.957031 C 137.269531 99.957031 135.222656 98.949219 133.6875 98.191406 C 131.960938 97.339844 130.875 96.804688 130.875 98.382812 C 130.875 100.398438 131.84375 103.714844 134.507812 105.640625 C 134.859375 104.929688 135.355469 104.300781 135.960938 103.789062 C 136.566406 103.277344 137.273438 102.898438 138.035156 102.671875 C 138.300781 102.59375 138.574219 103.046875 138.855469 103.515625 C 139.125 103.964844 139.402344 104.425781 139.683594 104.425781 C 139.984375 104.425781 140.277344 103.972656 140.5625 103.527344 C 140.863281 103.066406 141.15625 102.613281 141.441406 102.707031 C 142.867188 103.160156 144.058594 104.148438 144.765625 105.460938 Z M 144.765625 105.460938 " fill-opacity="1" fill-rule="nonzero"/><path fill="#ff323d" d="M 144.75 105.46875 C 143.457031 106.484375 141.738281 107.164062 139.5 107.164062 C 137.398438 107.164062 135.753906 106.5625 134.492188 105.648438 C 134.84375 104.941406 135.339844 104.3125 135.945312 103.800781 C 136.554688 103.289062 137.261719 102.910156 138.019531 102.679688 C 138.542969 102.527344 139.097656 104.433594 139.667969 104.433594 C 140.28125 104.433594 140.871094 102.539062 141.425781 102.714844 C 142.851562 103.171875 144.042969 104.15625 144.75 105.46875 Z M 144.75 105.46875 " fill-opacity="1" fill-rule="nonzero"/><path fill="#ffad03" d="M 125.589844 94.035156 C 125.351562 94.191406 125.089844 94.300781 124.808594 94.359375 C 124.53125 94.414062 124.242188 94.414062 123.964844 94.359375 C 123.6875 94.304688 123.421875 94.195312 123.183594 94.039062 C 122.949219 93.882812 122.746094 93.679688 122.585938 93.445312 C 122.429688 93.210938 122.320312 92.945312 122.265625 92.667969 C 122.207031 92.390625 122.207031 92.105469 122.265625 91.828125 C 122.320312 91.550781 122.429688 91.285156 122.589844 91.050781 C 122.746094 90.816406 122.953125 90.613281 123.1875 90.457031 C 123.664062 90.144531 124.246094 90.03125 124.808594 90.140625 C 125.367188 90.253906 125.859375 90.582031 126.179688 91.054688 C 126.496094 91.527344 126.613281 92.109375 126.503906 92.664062 C 126.390625 93.222656 126.0625 93.714844 125.589844 94.035156 Z M 156.492188 94.035156 C 156.253906 94.191406 155.992188 94.300781 155.710938 94.359375 C 155.433594 94.414062 155.144531 94.414062 154.867188 94.359375 C 154.589844 94.304688 154.324219 94.195312 154.085938 94.039062 C 153.851562 93.882812 153.648438 93.679688 153.488281 93.445312 C 153.332031 93.210938 153.222656 92.945312 153.167969 92.667969 C 153.109375 92.390625 153.113281 92.105469 153.167969 91.828125 C 153.222656 91.550781 153.332031 91.285156 153.492188 91.050781 C 153.652344 90.816406 153.855469 90.613281 154.089844 90.457031 C 154.566406 90.144531 155.148438 90.03125 155.710938 90.140625 C 156.269531 90.253906 156.761719 90.582031 157.082031 91.054688 C 157.398438 91.527344 157.515625 92.109375 157.40625 92.664062 C 157.292969 93.222656 156.964844 93.714844 156.492188 94.035156 Z M 156.492188 94.035156 " fill-opacity="1" fill-rule="nonzero"/></svg>