<svg width="16" height="16" viewBox="0 0 16 16" fill="none" xmlns="http://www.w3.org/2000/svg">
<g clip-path="url(#clip0_7794_45528)">
<path d="M1.79121 10.4288L3.06334 9.6944C3.13224 9.65462 3.2131 9.6408 3.29131 9.65543L5.79431 10.1239C6.00001 10.1624 6.18989 10.004 6.18896 9.79476L6.17921 7.60167C6.17895 7.54208 6.19466 7.48351 6.22472 7.43206L7.48787 5.26951C7.55361 5.15696 7.54772 5.01642 7.47279 4.90977L5.34599 1.88249M12.6669 3.23806C9.00018 4.99873 11.0001 7.33206 11.6669 7.66539C12.9182 8.29098 14.6585 8.33203 14.6585 8.33203C14.6639 8.2216 14.6667 8.11047 14.6667 7.9987C14.6667 4.3168 11.6819 1.33203 8.00004 1.33203C4.31814 1.33203 1.33337 4.3168 1.33337 7.9987C1.33337 11.6806 4.31814 14.6654 8.00004 14.6654C8.11182 14.6654 8.22295 14.6626 8.33337 14.6572M11.1719 14.6252L9.06071 9.05937L14.6266 11.1706L12.1585 12.1571L11.1719 14.6252Z" stroke="#003366" stroke-linecap="round" stroke-linejoin="round"/>
</g>
<defs>
<clipPath id="clip0_7794_45528">
<rect width="16" height="16" fill="white"/>
</clipPath>
</defs>
</svg>
