<svg xmlns="http://www.w3.org/2000/svg" xmlns:xlink="http://www.w3.org/1999/xlink" width="64" zoomAndPan="magnify" viewBox="0 0 48 48" height="64" preserveAspectRatio="xMidYMid meet" version="1.0"><defs><clipPath id="59750bad37"><path d="M 0.488281 0 L 47.507812 0 L 47.507812 47.019531 L 0.488281 47.019531 Z M 0.488281 0 " clip-rule="nonzero"/></clipPath><clipPath id="fa8e139d97"><path d="M 6.035156 6.625 L 42 6.625 L 42 40.417969 L 6.035156 40.417969 Z M 6.035156 6.625 " clip-rule="nonzero"/></clipPath></defs><g clip-path="url(#59750bad37)"><path fill="#ffffff" d="M 0.488281 0 L 47.511719 0 L 47.511719 47.019531 L 0.488281 47.019531 Z M 0.488281 0 " fill-opacity="1" fill-rule="nonzero"/><path fill="#ffffff" d="M 0.488281 0 L 47.511719 0 L 47.511719 47.019531 L 0.488281 47.019531 Z M 0.488281 0 " fill-opacity="1" fill-rule="nonzero"/></g><g clip-path="url(#fa8e139d97)"><path fill="#370909" d="M 41.621094 28.375 C 41.835938 28.238281 41.960938 28 41.953125 27.746094 C 41.945312 27.492188 41.804688 27.261719 41.582031 27.140625 L 33.027344 22.433594 L 36.207031 22.433594 L 36.207031 12.09375 C 36.207031 11.0625 35.347656 10.21875 34.292969 10.21875 L 26.867188 10.21875 L 26.867188 8.679688 C 26.867188 7.546875 25.902344 6.628906 24.714844 6.628906 L 17.53125 6.628906 C 16.339844 6.628906 15.375 7.546875 15.375 8.679688 L 15.375 10.21875 L 7.949219 10.21875 C 6.894531 10.21875 6.035156 11.0625 6.035156 12.09375 L 6.035156 21.816406 C 6.035156 22.15625 6.355469 22.433594 6.753906 22.433594 L 30.046875 22.433594 L 27.4375 23.867188 L 6.753906 23.867188 C 6.5 23.867188 6.261719 23.820312 6.035156 23.742188 L 6.035156 30.613281 C 6.035156 31.648438 6.894531 32.488281 7.949219 32.488281 L 24.613281 32.488281 C 24.175781 33.804688 23.984375 35.339844 23.996094 37.324219 C 24 37.71875 24.320312 38.035156 24.714844 38.035156 C 28.191406 38.035156 30.335938 39.039062 30.917969 40.035156 C 31.046875 40.257812 31.28125 40.390625 31.539062 40.390625 C 31.792969 40.390625 32.027344 40.257812 32.15625 40.035156 C 32.738281 39.039062 34.882812 38.035156 38.363281 38.035156 C 38.757812 38.035156 39.078125 37.71875 39.082031 37.324219 C 39.097656 34.457031 38.699219 32.519531 37.730469 30.847656 L 39.800781 29.53125 L 39.800781 32.707031 C 39.492188 32.925781 39.285156 33.28125 39.285156 33.6875 C 39.285156 33.808594 39.285156 34.175781 39.890625 35.050781 L 40.484375 35.910156 L 41.074219 35.054688 C 41.679688 34.175781 41.679688 33.808594 41.679688 33.6875 C 41.679688 33.3125 41.503906 32.984375 41.238281 32.761719 L 41.238281 28.617188 Z M 16.8125 8.679688 C 16.8125 8.339844 17.132812 8.0625 17.53125 8.0625 L 24.714844 8.0625 C 25.109375 8.0625 25.433594 8.339844 25.433594 8.679688 L 25.433594 10.21875 L 16.8125 10.21875 Z M 21.121094 20.277344 C 20.328125 20.277344 19.683594 19.632812 19.683594 18.839844 C 19.683594 18.046875 20.328125 17.402344 21.121094 17.402344 C 21.914062 17.402344 22.558594 18.046875 22.558594 18.839844 C 22.558594 19.632812 21.914062 20.277344 21.121094 20.277344 Z M 31.539062 38.546875 C 30.339844 37.425781 28.136719 36.722656 25.4375 36.613281 C 25.484375 34.4375 25.824219 32.910156 26.558594 31.617188 L 31.152344 34.535156 C 31.269531 34.609375 31.402344 34.644531 31.539062 34.644531 C 31.671875 34.644531 31.804688 34.609375 31.921875 34.53125 L 36.519531 31.617188 C 37.253906 32.914062 37.59375 34.4375 37.640625 36.613281 C 34.941406 36.71875 32.738281 37.425781 31.539062 38.546875 Z M 31.539062 33.074219 L 23.25 27.8125 L 31.539062 23.253906 L 39.828125 27.8125 Z M 31.539062 33.074219 " fill-opacity="1" fill-rule="nonzero"/></g></svg>