<svg xmlns="http://www.w3.org/2000/svg" xmlns:xlink="http://www.w3.org/1999/xlink" width="64" zoomAndPan="magnify" viewBox="0 0 48 48" height="64" preserveAspectRatio="xMidYMid meet" version="1.0"><defs><clipPath id="9854f828fc"><path d="M 0.488281 0 L 47.507812 0 L 47.507812 47.019531 L 0.488281 47.019531 Z M 0.488281 0 " clip-rule="nonzero"/></clipPath><clipPath id="f44d46d8c7"><path d="M 20 28 L 31 28 L 31 40.921875 L 20 40.921875 Z M 20 28 " clip-rule="nonzero"/></clipPath><clipPath id="44ee443b79"><path d="M 6.882812 17 L 19 17 L 19 27 L 6.882812 27 Z M 6.882812 17 " clip-rule="nonzero"/></clipPath><clipPath id="25c1235195"><path d="M 12 35 L 18 35 L 18 40.921875 L 12 40.921875 Z M 12 35 " clip-rule="nonzero"/></clipPath></defs><g clip-path="url(#9854f828fc)"><path fill="#ffffff" d="M 0.488281 0 L 47.511719 0 L 47.511719 47.019531 L 0.488281 47.019531 Z M 0.488281 0 " fill-opacity="1" fill-rule="nonzero"/><path fill="#ffffff" d="M 0.488281 0 L 47.511719 0 L 47.511719 47.019531 L 0.488281 47.019531 Z M 0.488281 0 " fill-opacity="1" fill-rule="nonzero"/></g><path fill="#370909" d="M 38.320312 9.941406 C 38.210938 9.578125 37.929688 9.292969 37.566406 9.1875 C 37.566406 9.1875 28.101562 6.371094 20.3125 14.15625 C 16.472656 17.996094 12.480469 24.277344 12.171875 27.878906 C 12.144531 28.203125 12.261719 28.527344 12.492188 28.757812 L 18.746094 35.011719 C 18.976562 35.246094 19.300781 35.363281 19.628906 35.332031 C 23.230469 35.027344 29.511719 31.03125 33.347656 27.195312 C 41.136719 19.40625 38.320312 9.941406 38.320312 9.941406 Z M 36.328125 11.179688 C 36.722656 13.214844 37.472656 19.925781 31.777344 25.621094 C 28.472656 28.925781 23.242188 32.476562 19.933594 33.054688 C 19.933594 33.054688 14.453125 27.574219 14.453125 27.574219 C 15.03125 24.265625 18.578125 19.03125 21.882812 15.730469 C 27.582031 10.03125 34.292969 10.78125 36.324219 11.179688 Z M 36.328125 11.179688 " fill-opacity="1" fill-rule="evenodd"/><path fill="#370909" d="M 31.785156 15.71875 C 29.914062 13.847656 26.871094 13.847656 25 15.71875 C 23.128906 17.59375 23.128906 20.632812 25 22.503906 C 26.871094 24.375 29.914062 24.375 31.785156 22.503906 C 33.65625 20.632812 33.65625 17.59375 31.785156 15.71875 Z M 30.210938 17.292969 C 31.21875 18.296875 31.21875 19.925781 30.210938 20.933594 C 29.207031 21.9375 27.578125 21.9375 26.574219 20.933594 C 25.570312 19.925781 25.570312 18.296875 26.574219 17.292969 C 27.578125 16.289062 29.207031 16.289062 30.210938 17.292969 Z M 30.210938 17.292969 " fill-opacity="1" fill-rule="evenodd"/><path fill="#370909" d="M 25.5625 30.945312 L 16.558594 21.945312 C 16.125 21.511719 15.421875 21.511719 14.988281 21.945312 C 14.554688 22.378906 14.554688 23.082031 14.988281 23.515625 L 23.988281 32.519531 C 24.421875 32.953125 25.125 32.953125 25.5625 32.519531 C 25.992188 32.085938 25.992188 31.378906 25.5625 30.945312 Z M 25.5625 30.945312 " fill-opacity="1" fill-rule="evenodd"/><g clip-path="url(#f44d46d8c7)"><path fill="#370909" d="M 27.808594 29.957031 C 27.808594 29.957031 27.582031 32.40625 27.429688 34.105469 C 27.375 34.722656 27.011719 35.269531 26.464844 35.566406 L 22.730469 37.578125 C 22.730469 37.578125 22.730469 34.226562 22.730469 34.226562 C 22.730469 33.613281 22.230469 33.113281 21.617188 33.113281 C 21.003906 33.113281 20.507812 33.613281 20.507812 34.226562 L 20.507812 39.4375 C 20.507812 39.828125 20.710938 40.191406 21.046875 40.394531 C 21.382812 40.59375 21.800781 40.601562 22.144531 40.417969 C 22.144531 40.417969 25.53125 38.59375 27.515625 37.523438 C 28.722656 36.875 29.519531 35.667969 29.644531 34.304688 C 29.796875 32.609375 30.023438 30.15625 30.023438 30.15625 C 30.078125 29.546875 29.625 29.003906 29.015625 28.949219 C 28.402344 28.894531 27.863281 29.34375 27.808594 29.957031 Z M 27.808594 29.957031 " fill-opacity="1" fill-rule="evenodd"/></g><g clip-path="url(#44ee443b79)"><path fill="#370909" d="M 17.347656 17.484375 C 17.347656 17.484375 14.898438 17.707031 13.199219 17.863281 C 11.839844 17.984375 10.628906 18.785156 9.980469 19.988281 C 8.914062 21.972656 7.089844 25.359375 7.089844 25.359375 C 6.902344 25.707031 6.914062 26.121094 7.113281 26.457031 C 7.3125 26.792969 7.675781 27 8.066406 27 L 13.277344 27 C 13.890625 27 14.390625 26.5 14.390625 25.886719 C 14.390625 25.273438 13.890625 24.777344 13.277344 24.777344 L 9.929688 24.777344 L 11.9375 21.042969 C 12.234375 20.496094 12.78125 20.132812 13.402344 20.074219 C 15.097656 19.921875 17.546875 19.699219 17.546875 19.699219 C 18.160156 19.644531 18.609375 19.101562 18.554688 18.488281 C 18.5 17.878906 17.957031 17.429688 17.347656 17.484375 Z M 17.347656 17.484375 " fill-opacity="1" fill-rule="evenodd"/></g><path fill="#370909" d="M 10.15625 30.5625 L 7.800781 32.917969 C 7.371094 33.355469 7.371094 34.058594 7.800781 34.492188 C 8.234375 34.925781 8.941406 34.925781 9.375 34.492188 L 11.730469 32.136719 C 12.164062 31.703125 12.164062 30.996094 11.730469 30.5625 C 11.296875 30.128906 10.59375 30.128906 10.15625 30.5625 Z M 10.15625 30.5625 " fill-opacity="1" fill-rule="evenodd"/><path fill="#370909" d="M 12.765625 33.171875 L 8.324219 37.609375 C 7.890625 38.042969 7.890625 38.746094 8.324219 39.183594 C 8.757812 39.617188 9.460938 39.617188 9.894531 39.183594 L 14.335938 34.742188 C 14.769531 34.308594 14.769531 33.601562 14.335938 33.171875 C 13.902344 32.734375 13.199219 32.734375 12.765625 33.171875 Z M 12.765625 33.171875 " fill-opacity="1" fill-rule="evenodd"/><g clip-path="url(#25c1235195)"><path fill="#370909" d="M 15.371094 35.773438 L 13.015625 38.132812 C 12.582031 38.566406 12.582031 39.269531 13.015625 39.703125 C 13.449219 40.136719 14.152344 40.136719 14.585938 39.703125 L 16.941406 37.347656 C 17.375 36.914062 17.375 36.210938 16.941406 35.773438 C 16.507812 35.339844 15.804688 35.339844 15.371094 35.773438 Z M 15.371094 35.773438 " fill-opacity="1" fill-rule="evenodd"/></g></svg>