<svg xmlns="http://www.w3.org/2000/svg" xmlns:xlink="http://www.w3.org/1999/xlink" width="64" zoomAndPan="magnify" viewBox="0 0 48 48" height="64" preserveAspectRatio="xMidYMid meet" version="1.0"><defs><clipPath id="0eb5d56f7c"><path d="M 0.488281 0 L 47.507812 0 L 47.507812 47.019531 L 0.488281 47.019531 Z M 0.488281 0 " clip-rule="nonzero"/></clipPath><clipPath id="a622148bc1"><path d="M 9 11.867188 L 40.605469 11.867188 L 40.605469 34 L 9 34 Z M 9 11.867188 " clip-rule="nonzero"/></clipPath><clipPath id="0b82c629b3"><path d="M 7.542969 25 L 22 25 L 22 39 L 7.542969 39 Z M 7.542969 25 " clip-rule="nonzero"/></clipPath></defs><g clip-path="url(#0eb5d56f7c)"><path fill="#ffffff" d="M 0.488281 0 L 47.511719 0 L 47.511719 47.019531 L 0.488281 47.019531 Z M 0.488281 0 " fill-opacity="1" fill-rule="nonzero"/><path fill="#ffffff" d="M 0.488281 0 L 47.511719 0 L 47.511719 47.019531 L 0.488281 47.019531 Z M 0.488281 0 " fill-opacity="1" fill-rule="nonzero"/></g><g clip-path="url(#a622148bc1)"><path fill="#370909" d="M 36.734375 25.75 C 36.261719 25.75 35.871094 25.359375 35.871094 24.882812 C 35.871094 24.40625 36.261719 24.019531 36.734375 24.019531 C 37.210938 24.019531 37.601562 24.40625 37.601562 24.882812 C 37.601562 25.359375 37.210938 25.75 36.734375 25.75 Z M 39.242188 30.804688 C 38.847656 30.203125 38.492188 29.574219 38.222656 28.902344 C 37.910156 28.128906 37.667969 27.328125 37.539062 26.5 C 37.539062 26.476562 37.535156 26.460938 37.535156 26.441406 C 38.097656 26.152344 38.484375 25.5625 38.484375 24.882812 C 38.484375 24.140625 38.019531 23.503906 37.367188 23.25 C 37.359375 22.542969 37.316406 21.835938 37.125 21.148438 C 36.910156 20.386719 36.523438 19.726562 35.976562 19.160156 C 35.9375 19.117188 35.894531 19.066406 35.832031 18.996094 C 36.1875 18.871094 38.28125 18.15625 38.992188 17.914062 C 39.171875 17.855469 39.347656 17.78125 39.503906 17.667969 C 39.792969 17.449219 39.792969 17.203125 39.5 16.984375 C 39.25 16.789062 38.941406 16.726562 38.652344 16.628906 C 37.207031 16.128906 25.179688 12.042969 24.929688 11.945312 C 24.707031 11.859375 24.496094 11.867188 24.269531 11.945312 C 22.175781 12.675781 11.207031 16.460938 10.269531 16.78125 C 10.097656 16.84375 9.925781 16.910156 9.777344 17.015625 C 9.460938 17.242188 9.457031 17.496094 9.769531 17.726562 C 9.925781 17.839844 10.097656 17.914062 10.277344 17.976562 C 11.335938 18.339844 14.84375 19.546875 18.082031 20.664062 C 20.925781 21.648438 23.5625 22.558594 24.15625 22.769531 C 24.382812 22.84375 24.589844 22.839844 24.8125 22.761719 C 25.269531 22.601562 28.414062 21.527344 30.9375 20.664062 C 32.558594 20.113281 33.921875 19.648438 34.152344 19.5625 C 34.285156 19.515625 34.367188 19.542969 34.472656 19.628906 C 35.335938 20.328125 35.734375 21.277344 35.925781 22.339844 C 35.980469 22.648438 36.015625 22.964844 36.03125 23.28125 C 35.417969 23.550781 34.984375 24.167969 34.984375 24.882812 C 34.984375 25.570312 35.378906 26.164062 35.953125 26.449219 C 35.875 27.527344 35.789062 28.605469 35.859375 29.683594 C 35.910156 30.503906 36.046875 31.304688 36.449219 32.039062 C 36.8125 32.695312 37.347656 33.167969 38.019531 33.488281 C 38.105469 33.53125 38.191406 33.550781 38.28125 33.5 C 38.675781 33.277344 40.152344 32.4375 40.367188 32.300781 C 39.949219 31.828125 39.582031 31.328125 39.242188 30.804688 " fill-opacity="1" fill-rule="nonzero"/></g><path fill="#370909" d="M 33.273438 21.203125 C 31.480469 21.816406 25.570312 23.835938 25.238281 23.957031 C 24.984375 24.042969 24.730469 24.089844 24.476562 24.089844 C 24.230469 24.089844 23.980469 24.046875 23.738281 23.960938 C 22.964844 23.691406 18.703125 22.21875 15.054688 20.960938 C 14.847656 20.886719 14.632812 21.042969 14.632812 21.261719 L 14.632812 24.199219 C 15.679688 24.210938 16.59375 24.882812 16.917969 25.878906 L 17.707031 28.308594 L 20.261719 28.308594 C 21.320312 28.308594 22.25 28.988281 22.578125 29.992188 C 22.652344 30.230469 22.695312 30.46875 22.695312 30.703125 L 30.53125 30.703125 C 32.28125 30.703125 33.699219 29.289062 33.699219 27.539062 L 33.699219 21.503906 C 33.699219 21.289062 33.480469 21.132812 33.273438 21.203125 " fill-opacity="1" fill-rule="nonzero"/><g clip-path="url(#0b82c629b3)"><path fill="#370909" d="M 20.261719 29.785156 L 17.335938 29.785156 C 16.917969 29.785156 16.550781 29.515625 16.417969 29.121094 L 15.515625 26.335938 C 15.226562 25.449219 13.972656 25.449219 13.6875 26.335938 L 12.78125 29.121094 C 12.652344 29.515625 12.285156 29.785156 11.867188 29.785156 L 8.941406 29.785156 C 8.007812 29.785156 7.621094 30.976562 8.375 31.523438 L 10.742188 33.246094 C 11.082031 33.488281 11.222656 33.921875 11.09375 34.320312 L 10.1875 37.105469 C 9.898438 37.988281 10.914062 38.726562 11.667969 38.179688 L 14.035156 36.457031 C 14.371094 36.210938 14.828125 36.210938 15.164062 36.457031 L 17.535156 38.179688 C 18.289062 38.726562 19.300781 37.988281 19.011719 37.105469 L 18.109375 34.320312 C 17.980469 33.921875 18.121094 33.488281 18.457031 33.246094 L 20.828125 31.523438 C 21.582031 30.976562 21.191406 29.785156 20.261719 29.785156 " fill-opacity="1" fill-rule="nonzero"/></g></svg>