<svg xmlns="http://www.w3.org/2000/svg" xmlns:xlink="http://www.w3.org/1999/xlink" width="64" zoomAndPan="magnify" viewBox="0 0 48 48" height="64" preserveAspectRatio="xMidYMid meet" version="1.0"><defs><clipPath id="78645ee68a"><path d="M 0.488281 0 L 47.507812 0 L 47.507812 47.019531 L 0.488281 47.019531 Z M 0.488281 0 " clip-rule="nonzero"/></clipPath><clipPath id="7afb193043"><path d="M 7.542969 7.054688 L 40.605469 7.054688 L 40.605469 40 L 7.542969 40 Z M 7.542969 7.054688 " clip-rule="nonzero"/></clipPath></defs><g clip-path="url(#78645ee68a)"><path fill="#ffffff" d="M 0.488281 0 L 47.511719 0 L 47.511719 47.019531 L 0.488281 47.019531 Z M 0.488281 0 " fill-opacity="1" fill-rule="nonzero"/><path fill="#ffffff" d="M 0.488281 0 L 47.511719 0 L 47.511719 47.019531 L 0.488281 47.019531 Z M 0.488281 0 " fill-opacity="1" fill-rule="nonzero"/></g><g clip-path="url(#7afb193043)"><path fill="#370909" d="M 13.269531 17.652344 L 13.269531 12.890625 L 40.453125 12.890625 L 40.453125 27.816406 C 40.453125 28.585938 40.136719 29.328125 39.566406 29.875 C 38.996094 30.417969 38.222656 30.726562 37.417969 30.726562 L 17.265625 30.726562 L 16.195312 29.625 C 16.011719 29.4375 16.011719 29.140625 16.195312 28.957031 L 18.765625 26.3125 C 19.496094 25.5625 19.863281 24.660156 19.863281 23.613281 L 19.863281 21.632812 L 19.902344 21.632812 C 20.433594 21.632812 20.863281 21.203125 20.863281 20.675781 L 20.863281 18.613281 C 20.863281 18.085938 20.433594 17.652344 19.902344 17.652344 Z M 28.75 21.636719 L 25.78125 19.496094 L 28.75 17.359375 C 28.964844 17.207031 29.015625 16.90625 28.859375 16.691406 C 28.707031 16.476562 28.40625 16.425781 28.191406 16.582031 L 24.679688 19.109375 C 24.554688 19.199219 24.480469 19.34375 24.480469 19.496094 C 24.480469 19.652344 24.554688 19.796875 24.679688 19.886719 L 28.191406 22.414062 C 28.40625 22.570312 28.707031 22.519531 28.859375 22.304688 C 29.015625 22.089844 28.964844 21.789062 28.75 21.636719 Z M 34.101562 22.414062 L 37.617188 19.886719 C 37.742188 19.796875 37.816406 19.652344 37.816406 19.496094 C 37.816406 19.34375 37.742188 19.199219 37.617188 19.109375 L 34.101562 16.582031 C 33.886719 16.425781 33.589844 16.476562 33.433594 16.691406 C 33.277344 16.90625 33.328125 17.207031 33.542969 17.359375 L 36.511719 19.496094 L 33.542969 21.636719 C 33.328125 21.789062 33.277344 22.089844 33.433594 22.304688 C 33.589844 22.519531 33.886719 22.570312 34.101562 22.414062 Z M 30.976562 22.582031 L 32.257812 16.617188 C 32.3125 16.355469 32.148438 16.101562 31.890625 16.046875 C 31.628906 15.992188 31.375 16.15625 31.320312 16.414062 L 30.035156 22.378906 C 29.980469 22.640625 30.144531 22.894531 30.40625 22.949219 C 30.664062 23.003906 30.917969 22.839844 30.976562 22.582031 Z M 40.453125 9.964844 L 40.453125 11.929688 L 13.269531 11.929688 L 13.269531 9.964844 C 13.269531 9.195312 13.589844 8.453125 14.15625 7.90625 C 14.726562 7.359375 15.5 7.054688 16.308594 7.054688 L 37.417969 7.054688 C 38.222656 7.054688 38.996094 7.359375 39.566406 7.90625 C 40.132812 8.453125 40.453125 9.195312 40.453125 9.964844 Z M 37.964844 8.765625 C 37.5625 8.765625 37.238281 9.09375 37.238281 9.492188 C 37.238281 9.890625 37.5625 10.214844 37.964844 10.214844 C 38.363281 10.214844 38.6875 9.890625 38.6875 9.492188 C 38.6875 9.09375 38.363281 8.765625 37.964844 8.765625 Z M 35.503906 8.765625 C 35.101562 8.765625 34.777344 9.09375 34.777344 9.492188 C 34.777344 9.890625 35.101562 10.214844 35.503906 10.214844 C 35.902344 10.214844 36.226562 9.890625 36.226562 9.492188 C 36.226562 9.09375 35.902344 8.765625 35.503906 8.765625 Z M 33.042969 8.765625 C 32.644531 8.765625 32.316406 9.09375 32.316406 9.492188 C 32.316406 9.890625 32.644531 10.214844 33.042969 10.214844 C 33.441406 10.214844 33.769531 9.890625 33.769531 9.492188 C 33.769531 9.09375 33.441406 8.765625 33.042969 8.765625 Z M 8.742188 33.882812 C 8.878906 33.539062 9.085938 33.222656 9.367188 32.933594 L 11.9375 30.292969 C 12.484375 29.734375 12.484375 28.84375 11.9375 28.285156 L 9.367188 25.644531 C 9.085938 25.355469 8.878906 25.042969 8.742188 24.699219 L 18.703125 24.699219 C 18.566406 25.042969 18.359375 25.355469 18.078125 25.644531 L 15.507812 28.285156 C 14.960938 28.84375 14.960938 29.734375 15.507812 30.292969 L 18.078125 32.933594 C 18.359375 33.222656 18.566406 33.539062 18.703125 33.882812 Z M 8.542969 23.738281 C 8.542969 23.695312 8.542969 23.65625 8.542969 23.613281 L 8.542969 21.632812 L 18.902344 21.632812 L 18.902344 23.613281 C 18.902344 23.65625 18.902344 23.695312 18.902344 23.738281 Z M 18.902344 34.839844 C 18.902344 34.882812 18.902344 34.925781 18.902344 34.96875 L 18.902344 36.945312 L 8.542969 36.945312 L 8.542969 34.96875 C 8.542969 34.925781 8.542969 34.882812 8.542969 34.839844 Z M 7.542969 18.957031 C 7.542969 18.867188 7.578125 18.777344 7.644531 18.714844 C 7.707031 18.648438 7.792969 18.613281 7.886719 18.613281 C 9.660156 18.613281 17.785156 18.613281 19.558594 18.613281 C 19.648438 18.613281 19.738281 18.648438 19.800781 18.714844 C 19.867188 18.777344 19.902344 18.867188 19.902344 18.957031 C 19.902344 19.339844 19.902344 19.949219 19.902344 20.332031 C 19.902344 20.421875 19.867188 20.511719 19.800781 20.574219 C 19.738281 20.636719 19.648438 20.675781 19.558594 20.675781 C 17.785156 20.675781 9.660156 20.675781 7.886719 20.675781 C 7.792969 20.675781 7.707031 20.636719 7.644531 20.574219 C 7.578125 20.511719 7.542969 20.421875 7.542969 20.332031 C 7.542969 19.949219 7.542969 19.339844 7.542969 18.957031 Z M 7.542969 38.246094 C 7.542969 38.15625 7.578125 38.070312 7.644531 38.003906 C 7.707031 37.941406 7.792969 37.90625 7.886719 37.90625 C 9.660156 37.90625 17.785156 37.90625 19.558594 37.90625 C 19.648438 37.90625 19.738281 37.941406 19.800781 38.003906 C 19.867188 38.070312 19.902344 38.15625 19.902344 38.246094 C 19.902344 38.628906 19.902344 39.242188 19.902344 39.621094 C 19.902344 39.714844 19.867188 39.800781 19.800781 39.863281 C 19.738281 39.929688 19.648438 39.964844 19.558594 39.964844 C 17.785156 39.964844 9.660156 39.964844 7.886719 39.964844 C 7.792969 39.964844 7.707031 39.929688 7.644531 39.863281 C 7.578125 39.800781 7.542969 39.714844 7.542969 39.621094 C 7.542969 39.242188 7.542969 38.628906 7.542969 38.246094 Z M 7.542969 38.246094 " fill-opacity="1" fill-rule="evenodd"/></g></svg>