<svg xmlns="http://www.w3.org/2000/svg" xmlns:xlink="http://www.w3.org/1999/xlink" width="550" zoomAndPan="magnify" viewBox="0 0 412.5 187.499995" height="250" preserveAspectRatio="xMidYMid meet" version="1.0"><defs><g/><clipPath id="f1a35d5de2"><path d="M 0.300781 27.183594 L 121.578125 27.183594 L 121.578125 147.980469 L 0.300781 147.980469 Z M 0.300781 27.183594 " clip-rule="nonzero"/></clipPath></defs><g clip-path="url(#f1a35d5de2)"><path fill="#370909" d="M 0.300781 27.183594 L 121.566406 27.183594 L 121.566406 147.980469 L 0.300781 147.980469 Z M 0.300781 27.183594 " fill-opacity="1" fill-rule="nonzero"/></g><g fill="#ffffff" fill-opacity="1"><g transform="translate(12.976051, 91.147766)"><g><path d="M 22.296875 0 L 19.828125 -7.078125 L 9.265625 -7.078125 L 6.8125 0 L 1 0 L 11.109375 -27.71875 L 17.96875 -27.71875 L 28.03125 0 Z M 14.546875 -23.453125 L 14.421875 -23.015625 C 14.285156 -22.546875 14.125 -22.007812 13.9375 -21.40625 C 13.757812 -20.800781 12.632812 -17.484375 10.5625 -11.453125 L 18.53125 -11.453125 L 15.796875 -19.421875 L 14.953125 -22.09375 Z M 14.546875 -23.453125 "/></g></g></g><g fill="#ffffff" fill-opacity="1"><g transform="translate(42.072572, 91.147766)"><g><path d="M 2.8125 -25.125 L 2.8125 -29.203125 L 8.34375 -29.203125 L 8.34375 -25.125 Z M 2.8125 0 L 2.8125 -21.296875 L 8.34375 -21.296875 L 8.34375 0 Z M 2.8125 0 "/></g></g></g><g fill="#ffffff" fill-opacity="1"><g transform="translate(53.266568, 91.147766)"><g><path d="M 25.71875 0 L 25.71875 -16.796875 C 25.71875 -17.179688 25.71875 -17.5625 25.71875 -17.9375 C 25.726562 -18.320312 25.789062 -19.957031 25.90625 -22.84375 C 24.976562 -19.3125 24.289062 -16.851562 23.84375 -15.46875 L 18.84375 0 L 14.71875 0 L 9.71875 -15.46875 L 7.609375 -22.84375 C 7.765625 -19.800781 7.84375 -17.785156 7.84375 -16.796875 L 7.84375 0 L 2.703125 0 L 2.703125 -27.71875 L 10.46875 -27.71875 L 15.421875 -12.21875 L 15.859375 -10.71875 L 16.796875 -7 L 18.046875 -11.453125 L 23.140625 -27.71875 L 30.875 -27.71875 L 30.875 0 Z M 25.71875 0 "/></g></g></g><g fill="#ffffff" fill-opacity="1"><g transform="translate(86.828883, 91.147766)"><g><path d="M 2.703125 0 L 2.703125 -27.71875 L 8.5 -27.71875 L 8.5 -4.484375 L 23.375 -4.484375 L 23.375 0 Z M 2.703125 0 "/></g></g></g><g fill="#ffffff" fill-opacity="1"><g transform="translate(12.976051, 106.905216)"><g><path d="M 6.625 -1.765625 C 8.113281 -1.765625 9.144531 -2.507812 9.71875 -4 L 11.859375 -3.1875 C 11.398438 -2.0625 10.722656 -1.21875 9.828125 -0.65625 C 8.941406 -0.101562 7.875 0.171875 6.625 0.171875 C 4.738281 0.171875 3.28125 -0.363281 2.25 -1.4375 C 1.21875 -2.507812 0.703125 -4.003906 0.703125 -5.921875 C 0.703125 -7.859375 1.195312 -9.34375 2.1875 -10.375 C 3.1875 -11.40625 4.628906 -11.921875 6.515625 -11.921875 C 7.898438 -11.921875 9.023438 -11.644531 9.890625 -11.09375 C 10.753906 -10.539062 11.363281 -9.726562 11.71875 -8.65625 L 9.546875 -8.0625 C 9.359375 -8.65625 8.992188 -9.125 8.453125 -9.46875 C 7.921875 -9.8125 7.296875 -9.984375 6.578125 -9.984375 C 5.460938 -9.984375 4.613281 -9.640625 4.03125 -8.953125 C 3.457031 -8.265625 3.171875 -7.253906 3.171875 -5.921875 C 3.171875 -4.578125 3.46875 -3.546875 4.0625 -2.828125 C 4.65625 -2.117188 5.507812 -1.765625 6.625 -1.765625 Z M 6.625 -1.765625 "/></g></g></g><g fill="#ffffff" fill-opacity="1"><g transform="translate(25.31391, 106.905216)"><g><path d="M 3.28125 0.171875 C 2.40625 0.171875 1.722656 -0.0664062 1.234375 -0.546875 C 0.742188 -1.023438 0.5 -1.691406 0.5 -2.546875 C 0.5 -3.484375 0.800781 -4.195312 1.40625 -4.6875 C 2.019531 -5.175781 2.90625 -5.425781 4.0625 -5.4375 L 6 -5.46875 L 6 -5.921875 C 6 -6.515625 5.894531 -6.953125 5.6875 -7.234375 C 5.488281 -7.523438 5.15625 -7.671875 4.6875 -7.671875 C 4.25 -7.671875 3.925781 -7.570312 3.71875 -7.375 C 3.519531 -7.175781 3.398438 -6.847656 3.359375 -6.390625 L 0.90625 -6.515625 C 1.0625 -7.390625 1.460938 -8.050781 2.109375 -8.5 C 2.765625 -8.957031 3.65625 -9.1875 4.78125 -9.1875 C 5.925781 -9.1875 6.804688 -8.90625 7.421875 -8.34375 C 8.035156 -7.78125 8.34375 -6.984375 8.34375 -5.953125 L 8.34375 -2.671875 C 8.34375 -2.160156 8.398438 -1.804688 8.515625 -1.609375 C 8.628906 -1.421875 8.820312 -1.328125 9.09375 -1.328125 C 9.269531 -1.328125 9.441406 -1.347656 9.609375 -1.390625 L 9.609375 -0.109375 C 9.460938 -0.078125 9.332031 -0.046875 9.21875 -0.015625 C 9.113281 0.00390625 9.003906 0.0195312 8.890625 0.03125 C 8.785156 0.0507812 8.671875 0.0664062 8.546875 0.078125 C 8.421875 0.0859375 8.273438 0.09375 8.109375 0.09375 C 7.515625 0.09375 7.078125 -0.046875 6.796875 -0.328125 C 6.515625 -0.617188 6.347656 -1.046875 6.296875 -1.609375 L 6.25 -1.609375 C 5.59375 -0.421875 4.601562 0.171875 3.28125 0.171875 Z M 6 -4.171875 L 4.796875 -4.15625 C 4.253906 -4.132812 3.867188 -4.070312 3.640625 -3.96875 C 3.410156 -3.875 3.234375 -3.726562 3.109375 -3.53125 C 2.992188 -3.332031 2.9375 -3.066406 2.9375 -2.734375 C 2.9375 -2.304688 3.035156 -1.988281 3.234375 -1.78125 C 3.429688 -1.570312 3.695312 -1.46875 4.03125 -1.46875 C 4.394531 -1.46875 4.726562 -1.566406 5.03125 -1.765625 C 5.332031 -1.960938 5.566406 -2.238281 5.734375 -2.59375 C 5.910156 -2.945312 6 -3.320312 6 -3.71875 Z M 6 -4.171875 "/></g></g></g><g fill="#ffffff" fill-opacity="1"><g transform="translate(34.815481, 106.905216)"><g><path d="M 6.5 0 L 6.5 -5.0625 C 6.5 -6.644531 6.046875 -7.4375 5.140625 -7.4375 C 4.660156 -7.4375 4.269531 -7.191406 3.96875 -6.703125 C 3.675781 -6.222656 3.53125 -5.601562 3.53125 -4.84375 L 3.53125 0 L 1.1875 0 L 1.1875 -7 C 1.1875 -7.488281 1.179688 -7.882812 1.171875 -8.1875 C 1.160156 -8.5 1.144531 -8.773438 1.125 -9.015625 L 3.359375 -9.015625 C 3.378906 -8.910156 3.398438 -8.628906 3.421875 -8.171875 C 3.453125 -7.710938 3.46875 -7.398438 3.46875 -7.234375 L 3.5 -7.234375 C 3.789062 -7.921875 4.148438 -8.421875 4.578125 -8.734375 C 5.015625 -9.046875 5.53125 -9.203125 6.125 -9.203125 C 7.507812 -9.203125 8.347656 -8.546875 8.640625 -7.234375 L 8.6875 -7.234375 C 8.988281 -7.929688 9.351562 -8.429688 9.78125 -8.734375 C 10.21875 -9.046875 10.765625 -9.203125 11.421875 -9.203125 C 12.296875 -9.203125 12.960938 -8.898438 13.421875 -8.296875 C 13.890625 -7.703125 14.125 -6.847656 14.125 -5.734375 L 14.125 0 L 11.796875 0 L 11.796875 -5.0625 C 11.796875 -6.644531 11.34375 -7.4375 10.4375 -7.4375 C 9.976562 -7.4375 9.601562 -7.210938 9.3125 -6.765625 C 9.019531 -6.328125 8.859375 -5.71875 8.828125 -4.9375 L 8.828125 0 Z M 6.5 0 "/></g></g></g><g fill="#ffffff" fill-opacity="1"><g transform="translate(50.006312, 106.905216)"><g><path d="M 9.734375 -4.546875 C 9.734375 -3.046875 9.429688 -1.882812 8.828125 -1.0625 C 8.222656 -0.238281 7.367188 0.171875 6.265625 0.171875 C 5.628906 0.171875 5.078125 0.0351562 4.609375 -0.234375 C 4.140625 -0.515625 3.78125 -0.914062 3.53125 -1.4375 L 3.484375 -1.4375 C 3.515625 -1.269531 3.53125 -0.765625 3.53125 0.078125 L 3.53125 3.546875 L 1.1875 3.546875 L 1.1875 -6.953125 C 1.1875 -7.796875 1.164062 -8.484375 1.125 -9.015625 L 3.40625 -9.015625 C 3.425781 -8.921875 3.445312 -8.722656 3.46875 -8.421875 C 3.488281 -8.128906 3.5 -7.84375 3.5 -7.5625 L 3.53125 -7.5625 C 4.0625 -8.664062 5.023438 -9.21875 6.421875 -9.21875 C 7.472656 -9.21875 8.285156 -8.8125 8.859375 -8 C 9.441406 -7.1875 9.734375 -6.035156 9.734375 -4.546875 Z M 7.28125 -4.546875 C 7.28125 -6.578125 6.660156 -7.59375 5.421875 -7.59375 C 4.804688 -7.59375 4.332031 -7.316406 4 -6.765625 C 3.664062 -6.222656 3.5 -5.460938 3.5 -4.484375 C 3.5 -3.515625 3.664062 -2.765625 4 -2.234375 C 4.332031 -1.703125 4.800781 -1.4375 5.40625 -1.4375 C 6.65625 -1.4375 7.28125 -2.472656 7.28125 -4.546875 Z M 7.28125 -4.546875 "/></g></g></g><g fill="#ffffff" fill-opacity="1"><g transform="translate(60.44219, 106.905216)"><g><path d="M 3.40625 -9.015625 L 3.40625 -3.96875 C 3.40625 -2.375 3.9375 -1.578125 5 -1.578125 C 5.570312 -1.578125 6.03125 -1.820312 6.375 -2.3125 C 6.71875 -2.800781 6.890625 -3.425781 6.890625 -4.1875 L 6.890625 -9.015625 L 9.234375 -9.015625 L 9.234375 -2.015625 C 9.234375 -1.253906 9.257812 -0.582031 9.3125 0 L 7.078125 0 C 7.003906 -0.800781 6.96875 -1.398438 6.96875 -1.796875 L 6.921875 -1.796875 C 6.617188 -1.109375 6.222656 -0.609375 5.734375 -0.296875 C 5.253906 0.015625 4.6875 0.171875 4.03125 0.171875 C 3.070312 0.171875 2.335938 -0.117188 1.828125 -0.703125 C 1.316406 -1.296875 1.0625 -2.160156 1.0625 -3.296875 L 1.0625 -9.015625 Z M 3.40625 -9.015625 "/></g></g></g><g fill="#ffffff" fill-opacity="1"><g transform="translate(70.878068, 106.905216)"><g><path d="M 8.796875 -2.640625 C 8.796875 -1.765625 8.4375 -1.078125 7.71875 -0.578125 C 7.007812 -0.078125 6.023438 0.171875 4.765625 0.171875 C 3.523438 0.171875 2.570312 -0.0234375 1.90625 -0.421875 C 1.25 -0.816406 0.8125 -1.425781 0.59375 -2.25 L 2.65625 -2.5625 C 2.769531 -2.132812 2.96875 -1.832031 3.25 -1.65625 C 3.539062 -1.476562 4.046875 -1.390625 4.765625 -1.390625 C 5.421875 -1.390625 5.894531 -1.472656 6.1875 -1.640625 C 6.488281 -1.804688 6.640625 -2.066406 6.640625 -2.421875 C 6.640625 -2.710938 6.519531 -2.941406 6.28125 -3.109375 C 6.039062 -3.273438 5.628906 -3.414062 5.046875 -3.53125 C 3.722656 -3.789062 2.832031 -4.035156 2.375 -4.265625 C 1.914062 -4.492188 1.5625 -4.785156 1.3125 -5.140625 C 1.070312 -5.492188 0.953125 -5.9375 0.953125 -6.46875 C 0.953125 -7.320312 1.285156 -7.988281 1.953125 -8.46875 C 2.617188 -8.957031 3.5625 -9.203125 4.78125 -9.203125 C 5.851562 -9.203125 6.710938 -8.992188 7.359375 -8.578125 C 8.015625 -8.160156 8.425781 -7.554688 8.59375 -6.765625 L 6.515625 -6.546875 C 6.441406 -6.910156 6.273438 -7.179688 6.015625 -7.359375 C 5.753906 -7.546875 5.34375 -7.640625 4.78125 -7.640625 C 4.21875 -7.640625 3.796875 -7.566406 3.515625 -7.421875 C 3.242188 -7.285156 3.109375 -7.050781 3.109375 -6.71875 C 3.109375 -6.457031 3.210938 -6.25 3.421875 -6.09375 C 3.640625 -5.9375 4.003906 -5.8125 4.515625 -5.71875 C 5.222656 -5.570312 5.847656 -5.421875 6.390625 -5.265625 C 6.941406 -5.109375 7.378906 -4.925781 7.703125 -4.71875 C 8.035156 -4.507812 8.300781 -4.238281 8.5 -3.90625 C 8.695312 -3.570312 8.796875 -3.148438 8.796875 -2.640625 Z M 8.796875 -2.640625 "/></g></g></g><g fill="#ffffff" fill-opacity="1"><g transform="translate(14.398469, 113.493492)"><g><path d="M 1.953125 0 L 1.953125 -1.125 L 0.8125 -1.125 L 0.8125 0 L 0.25 0 L 0.25 -2.640625 L 0.8125 -2.640625 L 0.8125 -1.578125 L 1.953125 -1.578125 L 1.953125 -2.640625 L 2.5 -2.640625 L 2.5 0 Z M 1.953125 0 "/></g></g><g transform="translate(17.163895, 113.493492)"><g><path d="M 0.765625 -2.015625 L 0.765625 -0.890625 C 0.765625 -0.535156 0.882812 -0.359375 1.125 -0.359375 C 1.25 -0.359375 1.347656 -0.410156 1.421875 -0.515625 C 1.503906 -0.628906 1.546875 -0.769531 1.546875 -0.9375 L 1.546875 -2.015625 L 2.078125 -2.015625 L 2.078125 -0.453125 C 2.078125 -0.273438 2.082031 -0.125 2.09375 0 L 1.578125 0 C 1.566406 -0.175781 1.5625 -0.3125 1.5625 -0.40625 L 1.546875 -0.40625 C 1.484375 -0.25 1.394531 -0.132812 1.28125 -0.0625 C 1.175781 0 1.050781 0.03125 0.90625 0.03125 C 0.6875 0.03125 0.519531 -0.03125 0.40625 -0.15625 C 0.289062 -0.289062 0.234375 -0.484375 0.234375 -0.734375 L 0.234375 -2.015625 Z M 0.765625 -2.015625 "/></g></g><g transform="translate(19.503008, 113.493492)"><g><path d="M 1.453125 0 L 1.453125 -1.140625 C 1.453125 -1.492188 1.351562 -1.671875 1.15625 -1.671875 C 1.050781 -1.671875 0.960938 -1.613281 0.890625 -1.5 C 0.828125 -1.394531 0.796875 -1.253906 0.796875 -1.078125 L 0.796875 0 L 0.265625 0 L 0.265625 -1.5625 C 0.265625 -1.675781 0.265625 -1.765625 0.265625 -1.828125 C 0.265625 -1.898438 0.257812 -1.960938 0.25 -2.015625 L 0.75 -2.015625 C 0.757812 -1.992188 0.765625 -1.929688 0.765625 -1.828125 C 0.773438 -1.722656 0.78125 -1.65625 0.78125 -1.625 C 0.84375 -1.78125 0.921875 -1.890625 1.015625 -1.953125 C 1.117188 -2.023438 1.238281 -2.0625 1.375 -2.0625 C 1.6875 -2.0625 1.875 -1.914062 1.9375 -1.625 L 1.953125 -1.625 C 2.015625 -1.78125 2.09375 -1.890625 2.1875 -1.953125 C 2.289062 -2.023438 2.414062 -2.0625 2.5625 -2.0625 C 2.757812 -2.0625 2.910156 -1.992188 3.015625 -1.859375 C 3.117188 -1.722656 3.171875 -1.53125 3.171875 -1.28125 L 3.171875 0 L 2.640625 0 L 2.640625 -1.140625 C 2.640625 -1.492188 2.539062 -1.671875 2.34375 -1.671875 C 2.238281 -1.671875 2.148438 -1.617188 2.078125 -1.515625 C 2.015625 -1.421875 1.984375 -1.285156 1.984375 -1.109375 L 1.984375 0 Z M 1.453125 0 "/></g></g><g transform="translate(22.907903, 113.493492)"><g><path d="M 0.734375 0.03125 C 0.535156 0.03125 0.378906 -0.0195312 0.265625 -0.125 C 0.160156 -0.226562 0.109375 -0.378906 0.109375 -0.578125 C 0.109375 -0.785156 0.175781 -0.941406 0.3125 -1.046875 C 0.445312 -1.160156 0.644531 -1.21875 0.90625 -1.21875 L 1.34375 -1.21875 L 1.34375 -1.328125 C 1.34375 -1.460938 1.316406 -1.5625 1.265625 -1.625 C 1.222656 -1.6875 1.148438 -1.71875 1.046875 -1.71875 C 0.953125 -1.71875 0.878906 -1.695312 0.828125 -1.65625 C 0.785156 -1.613281 0.757812 -1.539062 0.75 -1.4375 L 0.203125 -1.453125 C 0.234375 -1.648438 0.320312 -1.800781 0.46875 -1.90625 C 0.613281 -2.007812 0.816406 -2.0625 1.078125 -2.0625 C 1.328125 -2.0625 1.519531 -2 1.65625 -1.875 C 1.800781 -1.75 1.875 -1.566406 1.875 -1.328125 L 1.875 -0.59375 C 1.875 -0.476562 1.882812 -0.398438 1.90625 -0.359375 C 1.9375 -0.316406 1.976562 -0.296875 2.03125 -0.296875 C 2.070312 -0.296875 2.113281 -0.300781 2.15625 -0.3125 L 2.15625 -0.03125 C 2.125 -0.0195312 2.09375 -0.0078125 2.0625 0 C 2.039062 0 2.015625 0 1.984375 0 C 1.960938 0.0078125 1.9375 0.015625 1.90625 0.015625 C 1.882812 0.015625 1.851562 0.015625 1.8125 0.015625 C 1.6875 0.015625 1.59375 -0.015625 1.53125 -0.078125 C 1.46875 -0.140625 1.425781 -0.234375 1.40625 -0.359375 C 1.25 -0.0976562 1.023438 0.03125 0.734375 0.03125 Z M 1.34375 -0.9375 L 1.078125 -0.9375 C 0.953125 -0.925781 0.863281 -0.910156 0.8125 -0.890625 C 0.757812 -0.867188 0.71875 -0.832031 0.6875 -0.78125 C 0.664062 -0.738281 0.65625 -0.679688 0.65625 -0.609375 C 0.65625 -0.515625 0.675781 -0.441406 0.71875 -0.390625 C 0.769531 -0.347656 0.832031 -0.328125 0.90625 -0.328125 C 0.988281 -0.328125 1.0625 -0.347656 1.125 -0.390625 C 1.195312 -0.441406 1.25 -0.503906 1.28125 -0.578125 C 1.320312 -0.660156 1.34375 -0.742188 1.34375 -0.828125 Z M 1.34375 -0.9375 "/></g></g><g transform="translate(25.037599, 113.493492)"><g><path d="M 1.578125 0 L 1.578125 -1.140625 C 1.578125 -1.492188 1.457031 -1.671875 1.21875 -1.671875 C 1.09375 -1.671875 0.988281 -1.613281 0.90625 -1.5 C 0.832031 -1.394531 0.796875 -1.253906 0.796875 -1.078125 L 0.796875 0 L 0.265625 0 L 0.265625 -1.5625 C 0.265625 -1.675781 0.265625 -1.765625 0.265625 -1.828125 C 0.265625 -1.898438 0.257812 -1.960938 0.25 -2.015625 L 0.75 -2.015625 C 0.757812 -1.992188 0.765625 -1.929688 0.765625 -1.828125 C 0.773438 -1.722656 0.78125 -1.65625 0.78125 -1.625 C 0.851562 -1.78125 0.941406 -1.890625 1.046875 -1.953125 C 1.160156 -2.023438 1.289062 -2.0625 1.4375 -2.0625 C 1.644531 -2.0625 1.804688 -1.992188 1.921875 -1.859375 C 2.035156 -1.734375 2.09375 -1.539062 2.09375 -1.28125 L 2.09375 0 Z M 1.578125 0 "/></g></g><g transform="translate(27.376712, 113.493492)"><g/></g><g transform="translate(28.440625, 113.493492)"><g><path d="M 0.25 0 L 0.25 -2.640625 L 0.8125 -2.640625 L 0.8125 0 Z M 0.25 0 "/></g></g><g transform="translate(29.504538, 113.493492)"><g><path d="M 1.578125 0 L 1.578125 -1.140625 C 1.578125 -1.492188 1.457031 -1.671875 1.21875 -1.671875 C 1.09375 -1.671875 0.988281 -1.613281 0.90625 -1.5 C 0.832031 -1.394531 0.796875 -1.253906 0.796875 -1.078125 L 0.796875 0 L 0.265625 0 L 0.265625 -1.5625 C 0.265625 -1.675781 0.265625 -1.765625 0.265625 -1.828125 C 0.265625 -1.898438 0.257812 -1.960938 0.25 -2.015625 L 0.75 -2.015625 C 0.757812 -1.992188 0.765625 -1.929688 0.765625 -1.828125 C 0.773438 -1.722656 0.78125 -1.65625 0.78125 -1.625 C 0.851562 -1.78125 0.941406 -1.890625 1.046875 -1.953125 C 1.160156 -2.023438 1.289062 -2.0625 1.4375 -2.0625 C 1.644531 -2.0625 1.804688 -1.992188 1.921875 -1.859375 C 2.035156 -1.734375 2.09375 -1.539062 2.09375 -1.28125 L 2.09375 0 Z M 1.578125 0 "/></g></g><g transform="translate(31.843651, 113.493492)"><g><path d="M 0.78125 0.03125 C 0.625 0.03125 0.503906 -0.0078125 0.421875 -0.09375 C 0.335938 -0.175781 0.296875 -0.300781 0.296875 -0.46875 L 0.296875 -1.671875 L 0.046875 -1.671875 L 0.046875 -2.015625 L 0.328125 -2.015625 L 0.5 -2.5 L 0.828125 -2.5 L 0.828125 -2.015625 L 1.203125 -2.015625 L 1.203125 -1.671875 L 0.828125 -1.671875 L 0.828125 -0.609375 C 0.828125 -0.515625 0.84375 -0.441406 0.875 -0.390625 C 0.914062 -0.347656 0.972656 -0.328125 1.046875 -0.328125 C 1.085938 -0.328125 1.148438 -0.335938 1.234375 -0.359375 L 1.234375 -0.03125 C 1.097656 0.0078125 0.945312 0.03125 0.78125 0.03125 Z M 0.78125 0.03125 "/></g></g><g transform="translate(33.11885, 113.493492)"><g><path d="M 1.09375 0.03125 C 0.789062 0.03125 0.554688 -0.0546875 0.390625 -0.234375 C 0.234375 -0.410156 0.15625 -0.671875 0.15625 -1.015625 C 0.15625 -1.347656 0.234375 -1.601562 0.390625 -1.78125 C 0.554688 -1.96875 0.796875 -2.0625 1.109375 -2.0625 C 1.390625 -2.0625 1.609375 -1.960938 1.765625 -1.765625 C 1.921875 -1.578125 2 -1.296875 2 -0.921875 L 2 -0.90625 L 0.703125 -0.90625 C 0.703125 -0.707031 0.738281 -0.554688 0.8125 -0.453125 C 0.882812 -0.359375 0.988281 -0.3125 1.125 -0.3125 C 1.3125 -0.3125 1.425781 -0.394531 1.46875 -0.5625 L 1.96875 -0.515625 C 1.820312 -0.148438 1.53125 0.03125 1.09375 0.03125 Z M 1.09375 -1.734375 C 0.96875 -1.734375 0.867188 -1.6875 0.796875 -1.59375 C 0.734375 -1.507812 0.703125 -1.390625 0.703125 -1.234375 L 1.484375 -1.234375 C 1.472656 -1.398438 1.429688 -1.523438 1.359375 -1.609375 C 1.296875 -1.691406 1.207031 -1.734375 1.09375 -1.734375 Z M 1.09375 -1.734375 "/></g></g><g transform="translate(35.248546, 113.493492)"><g><path d="M 0.265625 0 L 0.265625 -2.78125 L 0.796875 -2.78125 L 0.796875 0 Z M 0.265625 0 "/></g></g><g transform="translate(36.312459, 113.493492)"><g><path d="M 0.265625 0 L 0.265625 -2.78125 L 0.796875 -2.78125 L 0.796875 0 Z M 0.265625 0 "/></g></g><g transform="translate(37.376372, 113.493492)"><g><path d="M 0.265625 -2.390625 L 0.265625 -2.78125 L 0.796875 -2.78125 L 0.796875 -2.390625 Z M 0.265625 0 L 0.265625 -2.015625 L 0.796875 -2.015625 L 0.796875 0 Z M 0.265625 0 "/></g></g><g transform="translate(38.440285, 113.493492)"><g><path d="M 1.109375 0.8125 C 0.867188 0.8125 0.671875 0.765625 0.515625 0.671875 C 0.367188 0.578125 0.273438 0.441406 0.234375 0.265625 L 0.765625 0.203125 C 0.785156 0.285156 0.828125 0.347656 0.890625 0.390625 C 0.953125 0.441406 1.03125 0.46875 1.125 0.46875 C 1.269531 0.46875 1.375 0.421875 1.4375 0.328125 C 1.507812 0.242188 1.546875 0.113281 1.546875 -0.0625 L 1.546875 -0.375 C 1.429688 -0.125 1.21875 0 0.90625 0 C 0.664062 0 0.476562 -0.0859375 0.34375 -0.265625 C 0.21875 -0.441406 0.15625 -0.695312 0.15625 -1.03125 C 0.15625 -1.351562 0.222656 -1.601562 0.359375 -1.78125 C 0.492188 -1.96875 0.6875 -2.0625 0.9375 -2.0625 C 1.226562 -2.0625 1.429688 -1.941406 1.546875 -1.703125 L 1.5625 -1.703125 C 1.5625 -1.742188 1.5625 -1.800781 1.5625 -1.875 C 1.570312 -1.945312 1.578125 -1.992188 1.578125 -2.015625 L 2.078125 -2.015625 C 2.078125 -1.890625 2.078125 -1.738281 2.078125 -1.5625 L 2.078125 -0.0625 C 2.078125 0.226562 1.992188 0.445312 1.828125 0.59375 C 1.660156 0.738281 1.421875 0.8125 1.109375 0.8125 Z M 1.546875 -1.046875 C 1.546875 -1.242188 1.507812 -1.398438 1.4375 -1.515625 C 1.363281 -1.640625 1.257812 -1.703125 1.125 -1.703125 C 0.84375 -1.703125 0.703125 -1.476562 0.703125 -1.03125 C 0.703125 -0.59375 0.84375 -0.375 1.125 -0.375 C 1.257812 -0.375 1.363281 -0.429688 1.4375 -0.546875 C 1.507812 -0.660156 1.546875 -0.828125 1.546875 -1.046875 Z M 1.546875 -1.046875 "/></g></g><g transform="translate(40.779398, 113.493492)"><g><path d="M 1.09375 0.03125 C 0.789062 0.03125 0.554688 -0.0546875 0.390625 -0.234375 C 0.234375 -0.410156 0.15625 -0.671875 0.15625 -1.015625 C 0.15625 -1.347656 0.234375 -1.601562 0.390625 -1.78125 C 0.554688 -1.96875 0.796875 -2.0625 1.109375 -2.0625 C 1.390625 -2.0625 1.609375 -1.960938 1.765625 -1.765625 C 1.921875 -1.578125 2 -1.296875 2 -0.921875 L 2 -0.90625 L 0.703125 -0.90625 C 0.703125 -0.707031 0.738281 -0.554688 0.8125 -0.453125 C 0.882812 -0.359375 0.988281 -0.3125 1.125 -0.3125 C 1.3125 -0.3125 1.425781 -0.394531 1.46875 -0.5625 L 1.96875 -0.515625 C 1.820312 -0.148438 1.53125 0.03125 1.09375 0.03125 Z M 1.09375 -1.734375 C 0.96875 -1.734375 0.867188 -1.6875 0.796875 -1.59375 C 0.734375 -1.507812 0.703125 -1.390625 0.703125 -1.234375 L 1.484375 -1.234375 C 1.472656 -1.398438 1.429688 -1.523438 1.359375 -1.609375 C 1.296875 -1.691406 1.207031 -1.734375 1.09375 -1.734375 Z M 1.09375 -1.734375 "/></g></g><g transform="translate(42.909094, 113.493492)"><g><path d="M 1.578125 0 L 1.578125 -1.140625 C 1.578125 -1.492188 1.457031 -1.671875 1.21875 -1.671875 C 1.09375 -1.671875 0.988281 -1.613281 0.90625 -1.5 C 0.832031 -1.394531 0.796875 -1.253906 0.796875 -1.078125 L 0.796875 0 L 0.265625 0 L 0.265625 -1.5625 C 0.265625 -1.675781 0.265625 -1.765625 0.265625 -1.828125 C 0.265625 -1.898438 0.257812 -1.960938 0.25 -2.015625 L 0.75 -2.015625 C 0.757812 -1.992188 0.765625 -1.929688 0.765625 -1.828125 C 0.773438 -1.722656 0.78125 -1.65625 0.78125 -1.625 C 0.851562 -1.78125 0.941406 -1.890625 1.046875 -1.953125 C 1.160156 -2.023438 1.289062 -2.0625 1.4375 -2.0625 C 1.644531 -2.0625 1.804688 -1.992188 1.921875 -1.859375 C 2.035156 -1.734375 2.09375 -1.539062 2.09375 -1.28125 L 2.09375 0 Z M 1.578125 0 "/></g></g><g transform="translate(45.248206, 113.493492)"><g><path d="M 1.109375 0.03125 C 0.804688 0.03125 0.570312 -0.0546875 0.40625 -0.234375 C 0.238281 -0.421875 0.15625 -0.675781 0.15625 -1 C 0.15625 -1.332031 0.238281 -1.59375 0.40625 -1.78125 C 0.570312 -1.96875 0.8125 -2.0625 1.125 -2.0625 C 1.351562 -2.0625 1.546875 -2 1.703125 -1.875 C 1.859375 -1.757812 1.957031 -1.597656 2 -1.390625 L 1.46875 -1.359375 C 1.457031 -1.460938 1.421875 -1.546875 1.359375 -1.609375 C 1.296875 -1.671875 1.210938 -1.703125 1.109375 -1.703125 C 0.835938 -1.703125 0.703125 -1.472656 0.703125 -1.015625 C 0.703125 -0.554688 0.835938 -0.328125 1.109375 -0.328125 C 1.210938 -0.328125 1.296875 -0.359375 1.359375 -0.421875 C 1.429688 -0.484375 1.472656 -0.578125 1.484375 -0.703125 L 2.015625 -0.671875 C 1.992188 -0.535156 1.941406 -0.410156 1.859375 -0.296875 C 1.785156 -0.191406 1.679688 -0.109375 1.546875 -0.046875 C 1.421875 0.00390625 1.273438 0.03125 1.109375 0.03125 Z M 1.109375 0.03125 "/></g></g><g transform="translate(47.377902, 113.493492)"><g><path d="M 1.09375 0.03125 C 0.789062 0.03125 0.554688 -0.0546875 0.390625 -0.234375 C 0.234375 -0.410156 0.15625 -0.671875 0.15625 -1.015625 C 0.15625 -1.347656 0.234375 -1.601562 0.390625 -1.78125 C 0.554688 -1.96875 0.796875 -2.0625 1.109375 -2.0625 C 1.390625 -2.0625 1.609375 -1.960938 1.765625 -1.765625 C 1.921875 -1.578125 2 -1.296875 2 -0.921875 L 2 -0.90625 L 0.703125 -0.90625 C 0.703125 -0.707031 0.738281 -0.554688 0.8125 -0.453125 C 0.882812 -0.359375 0.988281 -0.3125 1.125 -0.3125 C 1.3125 -0.3125 1.425781 -0.394531 1.46875 -0.5625 L 1.96875 -0.515625 C 1.820312 -0.148438 1.53125 0.03125 1.09375 0.03125 Z M 1.09375 -1.734375 C 0.96875 -1.734375 0.867188 -1.6875 0.796875 -1.59375 C 0.734375 -1.507812 0.703125 -1.390625 0.703125 -1.234375 L 1.484375 -1.234375 C 1.472656 -1.398438 1.429688 -1.523438 1.359375 -1.609375 C 1.296875 -1.691406 1.207031 -1.734375 1.09375 -1.734375 Z M 1.09375 -1.734375 "/></g></g></g><g fill="#ffffff" fill-opacity="1"><g transform="translate(14.398469, 117.322831)"><g><path d="M 2.4375 0 L 2.4375 -1.59375 C 2.4375 -1.632812 2.4375 -1.671875 2.4375 -1.703125 C 2.4375 -1.742188 2.445312 -1.898438 2.46875 -2.171875 C 2.375 -1.835938 2.304688 -1.601562 2.265625 -1.46875 L 1.796875 0 L 1.390625 0 L 0.921875 -1.46875 L 0.71875 -2.171875 C 0.738281 -1.878906 0.75 -1.6875 0.75 -1.59375 L 0.75 0 L 0.25 0 L 0.25 -2.640625 L 1 -2.640625 L 1.46875 -1.15625 L 1.5 -1.015625 L 1.59375 -0.671875 L 1.71875 -1.09375 L 2.203125 -2.640625 L 2.9375 -2.640625 L 2.9375 0 Z M 2.4375 0 "/></g></g><g transform="translate(17.588338, 117.322831)"><g><path d="M 1.09375 0.03125 C 0.789062 0.03125 0.554688 -0.0546875 0.390625 -0.234375 C 0.234375 -0.410156 0.15625 -0.671875 0.15625 -1.015625 C 0.15625 -1.347656 0.234375 -1.601562 0.390625 -1.78125 C 0.554688 -1.96875 0.796875 -2.0625 1.109375 -2.0625 C 1.390625 -2.0625 1.609375 -1.960938 1.765625 -1.765625 C 1.921875 -1.578125 2 -1.296875 2 -0.921875 L 2 -0.90625 L 0.703125 -0.90625 C 0.703125 -0.707031 0.738281 -0.554688 0.8125 -0.453125 C 0.882812 -0.359375 0.988281 -0.3125 1.125 -0.3125 C 1.3125 -0.3125 1.425781 -0.394531 1.46875 -0.5625 L 1.96875 -0.515625 C 1.820312 -0.148438 1.53125 0.03125 1.09375 0.03125 Z M 1.09375 -1.734375 C 0.96875 -1.734375 0.867188 -1.6875 0.796875 -1.59375 C 0.734375 -1.507812 0.703125 -1.390625 0.703125 -1.234375 L 1.484375 -1.234375 C 1.472656 -1.398438 1.429688 -1.523438 1.359375 -1.609375 C 1.296875 -1.691406 1.207031 -1.734375 1.09375 -1.734375 Z M 1.09375 -1.734375 "/></g></g><g transform="translate(19.718034, 117.322831)"><g><path d="M 1.09375 0.03125 C 0.789062 0.03125 0.554688 -0.0546875 0.390625 -0.234375 C 0.234375 -0.410156 0.15625 -0.671875 0.15625 -1.015625 C 0.15625 -1.347656 0.234375 -1.601562 0.390625 -1.78125 C 0.554688 -1.96875 0.796875 -2.0625 1.109375 -2.0625 C 1.390625 -2.0625 1.609375 -1.960938 1.765625 -1.765625 C 1.921875 -1.578125 2 -1.296875 2 -0.921875 L 2 -0.90625 L 0.703125 -0.90625 C 0.703125 -0.707031 0.738281 -0.554688 0.8125 -0.453125 C 0.882812 -0.359375 0.988281 -0.3125 1.125 -0.3125 C 1.3125 -0.3125 1.425781 -0.394531 1.46875 -0.5625 L 1.96875 -0.515625 C 1.820312 -0.148438 1.53125 0.03125 1.09375 0.03125 Z M 1.09375 -1.734375 C 0.96875 -1.734375 0.867188 -1.6875 0.796875 -1.59375 C 0.734375 -1.507812 0.703125 -1.390625 0.703125 -1.234375 L 1.484375 -1.234375 C 1.472656 -1.398438 1.429688 -1.523438 1.359375 -1.609375 C 1.296875 -1.691406 1.207031 -1.734375 1.09375 -1.734375 Z M 1.09375 -1.734375 "/></g></g><g transform="translate(21.84773, 117.322831)"><g><path d="M 0.78125 0.03125 C 0.625 0.03125 0.503906 -0.0078125 0.421875 -0.09375 C 0.335938 -0.175781 0.296875 -0.300781 0.296875 -0.46875 L 0.296875 -1.671875 L 0.046875 -1.671875 L 0.046875 -2.015625 L 0.328125 -2.015625 L 0.5 -2.5 L 0.828125 -2.5 L 0.828125 -2.015625 L 1.203125 -2.015625 L 1.203125 -1.671875 L 0.828125 -1.671875 L 0.828125 -0.609375 C 0.828125 -0.515625 0.84375 -0.441406 0.875 -0.390625 C 0.914062 -0.347656 0.972656 -0.328125 1.046875 -0.328125 C 1.085938 -0.328125 1.148438 -0.335938 1.234375 -0.359375 L 1.234375 -0.03125 C 1.097656 0.0078125 0.945312 0.03125 0.78125 0.03125 Z M 0.78125 0.03125 "/></g></g><g transform="translate(23.12293, 117.322831)"><g><path d="M 1.96875 -0.59375 C 1.96875 -0.394531 1.882812 -0.238281 1.71875 -0.125 C 1.5625 -0.0195312 1.34375 0.03125 1.0625 0.03125 C 0.789062 0.03125 0.578125 -0.0078125 0.421875 -0.09375 C 0.273438 -0.175781 0.179688 -0.3125 0.140625 -0.5 L 0.59375 -0.578125 C 0.625 -0.484375 0.671875 -0.414062 0.734375 -0.375 C 0.796875 -0.332031 0.90625 -0.3125 1.0625 -0.3125 C 1.207031 -0.3125 1.3125 -0.328125 1.375 -0.359375 C 1.445312 -0.398438 1.484375 -0.460938 1.484375 -0.546875 C 1.484375 -0.609375 1.457031 -0.65625 1.40625 -0.6875 C 1.351562 -0.726562 1.257812 -0.765625 1.125 -0.796875 C 0.832031 -0.847656 0.632812 -0.898438 0.53125 -0.953125 C 0.425781 -1.003906 0.347656 -1.066406 0.296875 -1.140625 C 0.242188 -1.222656 0.21875 -1.328125 0.21875 -1.453125 C 0.21875 -1.640625 0.289062 -1.785156 0.4375 -1.890625 C 0.582031 -2.003906 0.796875 -2.0625 1.078125 -2.0625 C 1.316406 -2.0625 1.507812 -2.015625 1.65625 -1.921875 C 1.800781 -1.828125 1.890625 -1.691406 1.921875 -1.515625 L 1.453125 -1.46875 C 1.441406 -1.550781 1.40625 -1.613281 1.34375 -1.65625 C 1.289062 -1.695312 1.203125 -1.71875 1.078125 -1.71875 C 0.953125 -1.71875 0.859375 -1.695312 0.796875 -1.65625 C 0.734375 -1.625 0.703125 -1.570312 0.703125 -1.5 C 0.703125 -1.445312 0.722656 -1.398438 0.765625 -1.359375 C 0.816406 -1.328125 0.898438 -1.300781 1.015625 -1.28125 C 1.171875 -1.25 1.304688 -1.210938 1.421875 -1.171875 C 1.546875 -1.140625 1.644531 -1.097656 1.71875 -1.046875 C 1.800781 -1.003906 1.863281 -0.945312 1.90625 -0.875 C 1.945312 -0.800781 1.96875 -0.707031 1.96875 -0.59375 Z M 1.96875 -0.59375 "/></g></g><g transform="translate(25.252625, 117.322831)"><g/></g><g transform="translate(26.316538, 117.322831)"><g><path d="M 2.125 0 L 1.890625 -0.671875 L 0.875 -0.671875 L 0.640625 0 L 0.09375 0 L 1.0625 -2.640625 L 1.703125 -2.640625 L 2.65625 0 Z M 1.375 -2.234375 L 1.375 -2.1875 C 1.351562 -2.144531 1.332031 -2.09375 1.3125 -2.03125 C 1.300781 -1.976562 1.195312 -1.664062 1 -1.09375 L 1.765625 -1.09375 L 1.5 -1.84375 L 1.421875 -2.09375 Z M 1.375 -2.234375 "/></g></g><g transform="translate(29.081964, 117.322831)"><g><path d="M 0.265625 0 L 0.265625 -1.546875 C 0.265625 -1.660156 0.265625 -1.753906 0.265625 -1.828125 C 0.265625 -1.898438 0.257812 -1.960938 0.25 -2.015625 L 0.75 -2.015625 C 0.757812 -1.992188 0.765625 -1.925781 0.765625 -1.8125 C 0.773438 -1.695312 0.78125 -1.625 0.78125 -1.59375 C 0.832031 -1.726562 0.878906 -1.828125 0.921875 -1.890625 C 0.960938 -1.953125 1.007812 -1.992188 1.0625 -2.015625 C 1.113281 -2.046875 1.179688 -2.0625 1.265625 -2.0625 C 1.335938 -2.0625 1.394531 -2.050781 1.4375 -2.03125 L 1.4375 -1.59375 C 1.351562 -1.613281 1.273438 -1.625 1.203125 -1.625 C 1.078125 -1.625 0.976562 -1.570312 0.90625 -1.46875 C 0.832031 -1.363281 0.796875 -1.207031 0.796875 -1 L 0.796875 0 Z M 0.265625 0 "/></g></g><g transform="translate(30.57219, 117.322831)"><g><path d="M 0.78125 0.03125 C 0.625 0.03125 0.503906 -0.0078125 0.421875 -0.09375 C 0.335938 -0.175781 0.296875 -0.300781 0.296875 -0.46875 L 0.296875 -1.671875 L 0.046875 -1.671875 L 0.046875 -2.015625 L 0.328125 -2.015625 L 0.5 -2.5 L 0.828125 -2.5 L 0.828125 -2.015625 L 1.203125 -2.015625 L 1.203125 -1.671875 L 0.828125 -1.671875 L 0.828125 -0.609375 C 0.828125 -0.515625 0.84375 -0.441406 0.875 -0.390625 C 0.914062 -0.347656 0.972656 -0.328125 1.046875 -0.328125 C 1.085938 -0.328125 1.148438 -0.335938 1.234375 -0.359375 L 1.234375 -0.03125 C 1.097656 0.0078125 0.945312 0.03125 0.78125 0.03125 Z M 0.78125 0.03125 "/></g></g><g transform="translate(31.84739, 117.322831)"><g><path d="M 0.265625 -2.390625 L 0.265625 -2.78125 L 0.796875 -2.78125 L 0.796875 -2.390625 Z M 0.265625 0 L 0.265625 -2.015625 L 0.796875 -2.015625 L 0.796875 0 Z M 0.265625 0 "/></g></g><g transform="translate(32.911303, 117.322831)"><g><path d="M 0.890625 -1.671875 L 0.890625 0 L 0.359375 0 L 0.359375 -1.671875 L 0.0625 -1.671875 L 0.0625 -2.015625 L 0.359375 -2.015625 L 0.359375 -2.234375 C 0.359375 -2.421875 0.40625 -2.554688 0.5 -2.640625 C 0.601562 -2.734375 0.753906 -2.78125 0.953125 -2.78125 C 1.046875 -2.78125 1.15625 -2.769531 1.28125 -2.75 L 1.28125 -2.40625 C 1.226562 -2.414062 1.175781 -2.421875 1.125 -2.421875 C 1.039062 -2.421875 0.976562 -2.398438 0.9375 -2.359375 C 0.90625 -2.328125 0.890625 -2.269531 0.890625 -2.1875 L 0.890625 -2.015625 L 1.28125 -2.015625 L 1.28125 -1.671875 Z M 0.890625 -1.671875 "/></g></g><g transform="translate(34.186503, 117.322831)"><g><path d="M 0.265625 -2.390625 L 0.265625 -2.78125 L 0.796875 -2.78125 L 0.796875 -2.390625 Z M 0.265625 0 L 0.265625 -2.015625 L 0.796875 -2.015625 L 0.796875 0 Z M 0.265625 0 "/></g></g><g transform="translate(35.250416, 117.322831)"><g><path d="M 1.109375 0.03125 C 0.804688 0.03125 0.570312 -0.0546875 0.40625 -0.234375 C 0.238281 -0.421875 0.15625 -0.675781 0.15625 -1 C 0.15625 -1.332031 0.238281 -1.59375 0.40625 -1.78125 C 0.570312 -1.96875 0.8125 -2.0625 1.125 -2.0625 C 1.351562 -2.0625 1.546875 -2 1.703125 -1.875 C 1.859375 -1.757812 1.957031 -1.597656 2 -1.390625 L 1.46875 -1.359375 C 1.457031 -1.460938 1.421875 -1.546875 1.359375 -1.609375 C 1.296875 -1.671875 1.210938 -1.703125 1.109375 -1.703125 C 0.835938 -1.703125 0.703125 -1.472656 0.703125 -1.015625 C 0.703125 -0.554688 0.835938 -0.328125 1.109375 -0.328125 C 1.210938 -0.328125 1.296875 -0.359375 1.359375 -0.421875 C 1.429688 -0.484375 1.472656 -0.578125 1.484375 -0.703125 L 2.015625 -0.671875 C 1.992188 -0.535156 1.941406 -0.410156 1.859375 -0.296875 C 1.785156 -0.191406 1.679688 -0.109375 1.546875 -0.046875 C 1.421875 0.00390625 1.273438 0.03125 1.109375 0.03125 Z M 1.109375 0.03125 "/></g></g><g transform="translate(37.380112, 117.322831)"><g><path d="M 0.265625 -2.390625 L 0.265625 -2.78125 L 0.796875 -2.78125 L 0.796875 -2.390625 Z M 0.265625 0 L 0.265625 -2.015625 L 0.796875 -2.015625 L 0.796875 0 Z M 0.265625 0 "/></g></g><g transform="translate(38.444025, 117.322831)"><g><path d="M 0.734375 0.03125 C 0.535156 0.03125 0.378906 -0.0195312 0.265625 -0.125 C 0.160156 -0.226562 0.109375 -0.378906 0.109375 -0.578125 C 0.109375 -0.785156 0.175781 -0.941406 0.3125 -1.046875 C 0.445312 -1.160156 0.644531 -1.21875 0.90625 -1.21875 L 1.34375 -1.21875 L 1.34375 -1.328125 C 1.34375 -1.460938 1.316406 -1.5625 1.265625 -1.625 C 1.222656 -1.6875 1.148438 -1.71875 1.046875 -1.71875 C 0.953125 -1.71875 0.878906 -1.695312 0.828125 -1.65625 C 0.785156 -1.613281 0.757812 -1.539062 0.75 -1.4375 L 0.203125 -1.453125 C 0.234375 -1.648438 0.320312 -1.800781 0.46875 -1.90625 C 0.613281 -2.007812 0.816406 -2.0625 1.078125 -2.0625 C 1.328125 -2.0625 1.519531 -2 1.65625 -1.875 C 1.800781 -1.75 1.875 -1.566406 1.875 -1.328125 L 1.875 -0.59375 C 1.875 -0.476562 1.882812 -0.398438 1.90625 -0.359375 C 1.9375 -0.316406 1.976562 -0.296875 2.03125 -0.296875 C 2.070312 -0.296875 2.113281 -0.300781 2.15625 -0.3125 L 2.15625 -0.03125 C 2.125 -0.0195312 2.09375 -0.0078125 2.0625 0 C 2.039062 0 2.015625 0 1.984375 0 C 1.960938 0.0078125 1.9375 0.015625 1.90625 0.015625 C 1.882812 0.015625 1.851562 0.015625 1.8125 0.015625 C 1.6875 0.015625 1.59375 -0.015625 1.53125 -0.078125 C 1.46875 -0.140625 1.425781 -0.234375 1.40625 -0.359375 C 1.25 -0.0976562 1.023438 0.03125 0.734375 0.03125 Z M 1.34375 -0.9375 L 1.078125 -0.9375 C 0.953125 -0.925781 0.863281 -0.910156 0.8125 -0.890625 C 0.757812 -0.867188 0.71875 -0.832031 0.6875 -0.78125 C 0.664062 -0.738281 0.65625 -0.679688 0.65625 -0.609375 C 0.65625 -0.515625 0.675781 -0.441406 0.71875 -0.390625 C 0.769531 -0.347656 0.832031 -0.328125 0.90625 -0.328125 C 0.988281 -0.328125 1.0625 -0.347656 1.125 -0.390625 C 1.195312 -0.441406 1.25 -0.503906 1.28125 -0.578125 C 1.320312 -0.660156 1.34375 -0.742188 1.34375 -0.828125 Z M 1.34375 -0.9375 "/></g></g><g transform="translate(40.57372, 117.322831)"><g><path d="M 0.265625 0 L 0.265625 -2.78125 L 0.796875 -2.78125 L 0.796875 0 Z M 0.265625 0 "/></g></g></g><g fill="#ffffff" fill-opacity="1"><g transform="translate(14.398469, 121.15217)"><g><path d="M 0.25 0 L 0.25 -2.640625 L 0.8125 -2.640625 L 0.8125 -0.421875 L 2.21875 -0.421875 L 2.21875 0 Z M 0.25 0 "/></g></g><g transform="translate(16.737582, 121.15217)"><g><path d="M 1.09375 0.03125 C 0.789062 0.03125 0.554688 -0.0546875 0.390625 -0.234375 C 0.234375 -0.410156 0.15625 -0.671875 0.15625 -1.015625 C 0.15625 -1.347656 0.234375 -1.601562 0.390625 -1.78125 C 0.554688 -1.96875 0.796875 -2.0625 1.109375 -2.0625 C 1.390625 -2.0625 1.609375 -1.960938 1.765625 -1.765625 C 1.921875 -1.578125 2 -1.296875 2 -0.921875 L 2 -0.90625 L 0.703125 -0.90625 C 0.703125 -0.707031 0.738281 -0.554688 0.8125 -0.453125 C 0.882812 -0.359375 0.988281 -0.3125 1.125 -0.3125 C 1.3125 -0.3125 1.425781 -0.394531 1.46875 -0.5625 L 1.96875 -0.515625 C 1.820312 -0.148438 1.53125 0.03125 1.09375 0.03125 Z M 1.09375 -1.734375 C 0.96875 -1.734375 0.867188 -1.6875 0.796875 -1.59375 C 0.734375 -1.507812 0.703125 -1.390625 0.703125 -1.234375 L 1.484375 -1.234375 C 1.472656 -1.398438 1.429688 -1.523438 1.359375 -1.609375 C 1.296875 -1.691406 1.207031 -1.734375 1.09375 -1.734375 Z M 1.09375 -1.734375 "/></g></g><g transform="translate(18.867278, 121.15217)"><g><path d="M 0.734375 0.03125 C 0.535156 0.03125 0.378906 -0.0195312 0.265625 -0.125 C 0.160156 -0.226562 0.109375 -0.378906 0.109375 -0.578125 C 0.109375 -0.785156 0.175781 -0.941406 0.3125 -1.046875 C 0.445312 -1.160156 0.644531 -1.21875 0.90625 -1.21875 L 1.34375 -1.21875 L 1.34375 -1.328125 C 1.34375 -1.460938 1.316406 -1.5625 1.265625 -1.625 C 1.222656 -1.6875 1.148438 -1.71875 1.046875 -1.71875 C 0.953125 -1.71875 0.878906 -1.695312 0.828125 -1.65625 C 0.785156 -1.613281 0.757812 -1.539062 0.75 -1.4375 L 0.203125 -1.453125 C 0.234375 -1.648438 0.320312 -1.800781 0.46875 -1.90625 C 0.613281 -2.007812 0.816406 -2.0625 1.078125 -2.0625 C 1.328125 -2.0625 1.519531 -2 1.65625 -1.875 C 1.800781 -1.75 1.875 -1.566406 1.875 -1.328125 L 1.875 -0.59375 C 1.875 -0.476562 1.882812 -0.398438 1.90625 -0.359375 C 1.9375 -0.316406 1.976562 -0.296875 2.03125 -0.296875 C 2.070312 -0.296875 2.113281 -0.300781 2.15625 -0.3125 L 2.15625 -0.03125 C 2.125 -0.0195312 2.09375 -0.0078125 2.0625 0 C 2.039062 0 2.015625 0 1.984375 0 C 1.960938 0.0078125 1.9375 0.015625 1.90625 0.015625 C 1.882812 0.015625 1.851562 0.015625 1.8125 0.015625 C 1.6875 0.015625 1.59375 -0.015625 1.53125 -0.078125 C 1.46875 -0.140625 1.425781 -0.234375 1.40625 -0.359375 C 1.25 -0.0976562 1.023438 0.03125 0.734375 0.03125 Z M 1.34375 -0.9375 L 1.078125 -0.9375 C 0.953125 -0.925781 0.863281 -0.910156 0.8125 -0.890625 C 0.757812 -0.867188 0.71875 -0.832031 0.6875 -0.78125 C 0.664062 -0.738281 0.65625 -0.679688 0.65625 -0.609375 C 0.65625 -0.515625 0.675781 -0.441406 0.71875 -0.390625 C 0.769531 -0.347656 0.832031 -0.328125 0.90625 -0.328125 C 0.988281 -0.328125 1.0625 -0.347656 1.125 -0.390625 C 1.195312 -0.441406 1.25 -0.503906 1.28125 -0.578125 C 1.320312 -0.660156 1.34375 -0.742188 1.34375 -0.828125 Z M 1.34375 -0.9375 "/></g></g><g transform="translate(20.996973, 121.15217)"><g><path d="M 0.265625 0 L 0.265625 -1.546875 C 0.265625 -1.660156 0.265625 -1.753906 0.265625 -1.828125 C 0.265625 -1.898438 0.257812 -1.960938 0.25 -2.015625 L 0.75 -2.015625 C 0.757812 -1.992188 0.765625 -1.925781 0.765625 -1.8125 C 0.773438 -1.695312 0.78125 -1.625 0.78125 -1.59375 C 0.832031 -1.726562 0.878906 -1.828125 0.921875 -1.890625 C 0.960938 -1.953125 1.007812 -1.992188 1.0625 -2.015625 C 1.113281 -2.046875 1.179688 -2.0625 1.265625 -2.0625 C 1.335938 -2.0625 1.394531 -2.050781 1.4375 -2.03125 L 1.4375 -1.59375 C 1.351562 -1.613281 1.273438 -1.625 1.203125 -1.625 C 1.078125 -1.625 0.976562 -1.570312 0.90625 -1.46875 C 0.832031 -1.363281 0.796875 -1.207031 0.796875 -1 L 0.796875 0 Z M 0.265625 0 "/></g></g><g transform="translate(22.4872, 121.15217)"><g><path d="M 1.578125 0 L 1.578125 -1.140625 C 1.578125 -1.492188 1.457031 -1.671875 1.21875 -1.671875 C 1.09375 -1.671875 0.988281 -1.613281 0.90625 -1.5 C 0.832031 -1.394531 0.796875 -1.253906 0.796875 -1.078125 L 0.796875 0 L 0.265625 0 L 0.265625 -1.5625 C 0.265625 -1.675781 0.265625 -1.765625 0.265625 -1.828125 C 0.265625 -1.898438 0.257812 -1.960938 0.25 -2.015625 L 0.75 -2.015625 C 0.757812 -1.992188 0.765625 -1.929688 0.765625 -1.828125 C 0.773438 -1.722656 0.78125 -1.65625 0.78125 -1.625 C 0.851562 -1.78125 0.941406 -1.890625 1.046875 -1.953125 C 1.160156 -2.023438 1.289062 -2.0625 1.4375 -2.0625 C 1.644531 -2.0625 1.804688 -1.992188 1.921875 -1.859375 C 2.035156 -1.734375 2.09375 -1.539062 2.09375 -1.28125 L 2.09375 0 Z M 1.578125 0 "/></g></g><g transform="translate(24.826312, 121.15217)"><g><path d="M 0.265625 -2.390625 L 0.265625 -2.78125 L 0.796875 -2.78125 L 0.796875 -2.390625 Z M 0.265625 0 L 0.265625 -2.015625 L 0.796875 -2.015625 L 0.796875 0 Z M 0.265625 0 "/></g></g><g transform="translate(25.890225, 121.15217)"><g><path d="M 1.578125 0 L 1.578125 -1.140625 C 1.578125 -1.492188 1.457031 -1.671875 1.21875 -1.671875 C 1.09375 -1.671875 0.988281 -1.613281 0.90625 -1.5 C 0.832031 -1.394531 0.796875 -1.253906 0.796875 -1.078125 L 0.796875 0 L 0.265625 0 L 0.265625 -1.5625 C 0.265625 -1.675781 0.265625 -1.765625 0.265625 -1.828125 C 0.265625 -1.898438 0.257812 -1.960938 0.25 -2.015625 L 0.75 -2.015625 C 0.757812 -1.992188 0.765625 -1.929688 0.765625 -1.828125 C 0.773438 -1.722656 0.78125 -1.65625 0.78125 -1.625 C 0.851562 -1.78125 0.941406 -1.890625 1.046875 -1.953125 C 1.160156 -2.023438 1.289062 -2.0625 1.4375 -2.0625 C 1.644531 -2.0625 1.804688 -1.992188 1.921875 -1.859375 C 2.035156 -1.734375 2.09375 -1.539062 2.09375 -1.28125 L 2.09375 0 Z M 1.578125 0 "/></g></g><g transform="translate(28.229338, 121.15217)"><g><path d="M 1.109375 0.8125 C 0.867188 0.8125 0.671875 0.765625 0.515625 0.671875 C 0.367188 0.578125 0.273438 0.441406 0.234375 0.265625 L 0.765625 0.203125 C 0.785156 0.285156 0.828125 0.347656 0.890625 0.390625 C 0.953125 0.441406 1.03125 0.46875 1.125 0.46875 C 1.269531 0.46875 1.375 0.421875 1.4375 0.328125 C 1.507812 0.242188 1.546875 0.113281 1.546875 -0.0625 L 1.546875 -0.375 C 1.429688 -0.125 1.21875 0 0.90625 0 C 0.664062 0 0.476562 -0.0859375 0.34375 -0.265625 C 0.21875 -0.441406 0.15625 -0.695312 0.15625 -1.03125 C 0.15625 -1.351562 0.222656 -1.601562 0.359375 -1.78125 C 0.492188 -1.96875 0.6875 -2.0625 0.9375 -2.0625 C 1.226562 -2.0625 1.429688 -1.941406 1.546875 -1.703125 L 1.5625 -1.703125 C 1.5625 -1.742188 1.5625 -1.800781 1.5625 -1.875 C 1.570312 -1.945312 1.578125 -1.992188 1.578125 -2.015625 L 2.078125 -2.015625 C 2.078125 -1.890625 2.078125 -1.738281 2.078125 -1.5625 L 2.078125 -0.0625 C 2.078125 0.226562 1.992188 0.445312 1.828125 0.59375 C 1.660156 0.738281 1.421875 0.8125 1.109375 0.8125 Z M 1.546875 -1.046875 C 1.546875 -1.242188 1.507812 -1.398438 1.4375 -1.515625 C 1.363281 -1.640625 1.257812 -1.703125 1.125 -1.703125 C 0.84375 -1.703125 0.703125 -1.476562 0.703125 -1.03125 C 0.703125 -0.59375 0.84375 -0.375 1.125 -0.375 C 1.257812 -0.375 1.363281 -0.429688 1.4375 -0.546875 C 1.507812 -0.660156 1.546875 -0.828125 1.546875 -1.046875 Z M 1.546875 -1.046875 "/></g></g><g transform="translate(30.568451, 121.15217)"><g/></g><g transform="translate(31.632364, 121.15217)"><g><path d="M 0.265625 -2.390625 L 0.265625 -2.78125 L 0.796875 -2.78125 L 0.796875 -2.390625 Z M 0.265625 0 L 0.265625 -2.015625 L 0.796875 -2.015625 L 0.796875 0 Z M 0.265625 0 "/></g></g><g transform="translate(32.696277, 121.15217)"><g><path d="M 1.578125 0 L 1.578125 -1.140625 C 1.578125 -1.492188 1.457031 -1.671875 1.21875 -1.671875 C 1.09375 -1.671875 0.988281 -1.613281 0.90625 -1.5 C 0.832031 -1.394531 0.796875 -1.253906 0.796875 -1.078125 L 0.796875 0 L 0.265625 0 L 0.265625 -1.5625 C 0.265625 -1.675781 0.265625 -1.765625 0.265625 -1.828125 C 0.265625 -1.898438 0.257812 -1.960938 0.25 -2.015625 L 0.75 -2.015625 C 0.757812 -1.992188 0.765625 -1.929688 0.765625 -1.828125 C 0.773438 -1.722656 0.78125 -1.65625 0.78125 -1.625 C 0.851562 -1.78125 0.941406 -1.890625 1.046875 -1.953125 C 1.160156 -2.023438 1.289062 -2.0625 1.4375 -2.0625 C 1.644531 -2.0625 1.804688 -1.992188 1.921875 -1.859375 C 2.035156 -1.734375 2.09375 -1.539062 2.09375 -1.28125 L 2.09375 0 Z M 1.578125 0 "/></g></g><g transform="translate(35.035389, 121.15217)"><g><path d="M 0.78125 0.03125 C 0.625 0.03125 0.503906 -0.0078125 0.421875 -0.09375 C 0.335938 -0.175781 0.296875 -0.300781 0.296875 -0.46875 L 0.296875 -1.671875 L 0.046875 -1.671875 L 0.046875 -2.015625 L 0.328125 -2.015625 L 0.5 -2.5 L 0.828125 -2.5 L 0.828125 -2.015625 L 1.203125 -2.015625 L 1.203125 -1.671875 L 0.828125 -1.671875 L 0.828125 -0.609375 C 0.828125 -0.515625 0.84375 -0.441406 0.875 -0.390625 C 0.914062 -0.347656 0.972656 -0.328125 1.046875 -0.328125 C 1.085938 -0.328125 1.148438 -0.335938 1.234375 -0.359375 L 1.234375 -0.03125 C 1.097656 0.0078125 0.945312 0.03125 0.78125 0.03125 Z M 0.78125 0.03125 "/></g></g><g transform="translate(36.310589, 121.15217)"><g><path d="M 1.09375 0.03125 C 0.789062 0.03125 0.554688 -0.0546875 0.390625 -0.234375 C 0.234375 -0.410156 0.15625 -0.671875 0.15625 -1.015625 C 0.15625 -1.347656 0.234375 -1.601562 0.390625 -1.78125 C 0.554688 -1.96875 0.796875 -2.0625 1.109375 -2.0625 C 1.390625 -2.0625 1.609375 -1.960938 1.765625 -1.765625 C 1.921875 -1.578125 2 -1.296875 2 -0.921875 L 2 -0.90625 L 0.703125 -0.90625 C 0.703125 -0.707031 0.738281 -0.554688 0.8125 -0.453125 C 0.882812 -0.359375 0.988281 -0.3125 1.125 -0.3125 C 1.3125 -0.3125 1.425781 -0.394531 1.46875 -0.5625 L 1.96875 -0.515625 C 1.820312 -0.148438 1.53125 0.03125 1.09375 0.03125 Z M 1.09375 -1.734375 C 0.96875 -1.734375 0.867188 -1.6875 0.796875 -1.59375 C 0.734375 -1.507812 0.703125 -1.390625 0.703125 -1.234375 L 1.484375 -1.234375 C 1.472656 -1.398438 1.429688 -1.523438 1.359375 -1.609375 C 1.296875 -1.691406 1.207031 -1.734375 1.09375 -1.734375 Z M 1.09375 -1.734375 "/></g></g><g transform="translate(38.440285, 121.15217)"><g><path d="M 0.265625 0 L 0.265625 -2.78125 L 0.796875 -2.78125 L 0.796875 0 Z M 0.265625 0 "/></g></g><g transform="translate(39.504198, 121.15217)"><g><path d="M 0.265625 0 L 0.265625 -2.78125 L 0.796875 -2.78125 L 0.796875 0 Z M 0.265625 0 "/></g></g><g transform="translate(40.568111, 121.15217)"><g><path d="M 0.265625 -2.390625 L 0.265625 -2.78125 L 0.796875 -2.78125 L 0.796875 -2.390625 Z M 0.265625 0 L 0.265625 -2.015625 L 0.796875 -2.015625 L 0.796875 0 Z M 0.265625 0 "/></g></g><g transform="translate(41.632024, 121.15217)"><g><path d="M 1.109375 0.8125 C 0.867188 0.8125 0.671875 0.765625 0.515625 0.671875 C 0.367188 0.578125 0.273438 0.441406 0.234375 0.265625 L 0.765625 0.203125 C 0.785156 0.285156 0.828125 0.347656 0.890625 0.390625 C 0.953125 0.441406 1.03125 0.46875 1.125 0.46875 C 1.269531 0.46875 1.375 0.421875 1.4375 0.328125 C 1.507812 0.242188 1.546875 0.113281 1.546875 -0.0625 L 1.546875 -0.375 C 1.429688 -0.125 1.21875 0 0.90625 0 C 0.664062 0 0.476562 -0.0859375 0.34375 -0.265625 C 0.21875 -0.441406 0.15625 -0.695312 0.15625 -1.03125 C 0.15625 -1.351562 0.222656 -1.601562 0.359375 -1.78125 C 0.492188 -1.96875 0.6875 -2.0625 0.9375 -2.0625 C 1.226562 -2.0625 1.429688 -1.941406 1.546875 -1.703125 L 1.5625 -1.703125 C 1.5625 -1.742188 1.5625 -1.800781 1.5625 -1.875 C 1.570312 -1.945312 1.578125 -1.992188 1.578125 -2.015625 L 2.078125 -2.015625 C 2.078125 -1.890625 2.078125 -1.738281 2.078125 -1.5625 L 2.078125 -0.0625 C 2.078125 0.226562 1.992188 0.445312 1.828125 0.59375 C 1.660156 0.738281 1.421875 0.8125 1.109375 0.8125 Z M 1.546875 -1.046875 C 1.546875 -1.242188 1.507812 -1.398438 1.4375 -1.515625 C 1.363281 -1.640625 1.257812 -1.703125 1.125 -1.703125 C 0.84375 -1.703125 0.703125 -1.476562 0.703125 -1.03125 C 0.703125 -0.59375 0.84375 -0.375 1.125 -0.375 C 1.257812 -0.375 1.363281 -0.429688 1.4375 -0.546875 C 1.507812 -0.660156 1.546875 -0.828125 1.546875 -1.046875 Z M 1.546875 -1.046875 "/></g></g><g transform="translate(43.971137, 121.15217)"><g><path d="M 1.09375 0.03125 C 0.789062 0.03125 0.554688 -0.0546875 0.390625 -0.234375 C 0.234375 -0.410156 0.15625 -0.671875 0.15625 -1.015625 C 0.15625 -1.347656 0.234375 -1.601562 0.390625 -1.78125 C 0.554688 -1.96875 0.796875 -2.0625 1.109375 -2.0625 C 1.390625 -2.0625 1.609375 -1.960938 1.765625 -1.765625 C 1.921875 -1.578125 2 -1.296875 2 -0.921875 L 2 -0.90625 L 0.703125 -0.90625 C 0.703125 -0.707031 0.738281 -0.554688 0.8125 -0.453125 C 0.882812 -0.359375 0.988281 -0.3125 1.125 -0.3125 C 1.3125 -0.3125 1.425781 -0.394531 1.46875 -0.5625 L 1.96875 -0.515625 C 1.820312 -0.148438 1.53125 0.03125 1.09375 0.03125 Z M 1.09375 -1.734375 C 0.96875 -1.734375 0.867188 -1.6875 0.796875 -1.59375 C 0.734375 -1.507812 0.703125 -1.390625 0.703125 -1.234375 L 1.484375 -1.234375 C 1.472656 -1.398438 1.429688 -1.523438 1.359375 -1.609375 C 1.296875 -1.691406 1.207031 -1.734375 1.09375 -1.734375 Z M 1.09375 -1.734375 "/></g></g><g transform="translate(46.100832, 121.15217)"><g><path d="M 1.578125 0 L 1.578125 -1.140625 C 1.578125 -1.492188 1.457031 -1.671875 1.21875 -1.671875 C 1.09375 -1.671875 0.988281 -1.613281 0.90625 -1.5 C 0.832031 -1.394531 0.796875 -1.253906 0.796875 -1.078125 L 0.796875 0 L 0.265625 0 L 0.265625 -1.5625 C 0.265625 -1.675781 0.265625 -1.765625 0.265625 -1.828125 C 0.265625 -1.898438 0.257812 -1.960938 0.25 -2.015625 L 0.75 -2.015625 C 0.757812 -1.992188 0.765625 -1.929688 0.765625 -1.828125 C 0.773438 -1.722656 0.78125 -1.65625 0.78125 -1.625 C 0.851562 -1.78125 0.941406 -1.890625 1.046875 -1.953125 C 1.160156 -2.023438 1.289062 -2.0625 1.4375 -2.0625 C 1.644531 -2.0625 1.804688 -1.992188 1.921875 -1.859375 C 2.035156 -1.734375 2.09375 -1.539062 2.09375 -1.28125 L 2.09375 0 Z M 1.578125 0 "/></g></g><g transform="translate(48.439945, 121.15217)"><g><path d="M 1.109375 0.03125 C 0.804688 0.03125 0.570312 -0.0546875 0.40625 -0.234375 C 0.238281 -0.421875 0.15625 -0.675781 0.15625 -1 C 0.15625 -1.332031 0.238281 -1.59375 0.40625 -1.78125 C 0.570312 -1.96875 0.8125 -2.0625 1.125 -2.0625 C 1.351562 -2.0625 1.546875 -2 1.703125 -1.875 C 1.859375 -1.757812 1.957031 -1.597656 2 -1.390625 L 1.46875 -1.359375 C 1.457031 -1.460938 1.421875 -1.546875 1.359375 -1.609375 C 1.296875 -1.671875 1.210938 -1.703125 1.109375 -1.703125 C 0.835938 -1.703125 0.703125 -1.472656 0.703125 -1.015625 C 0.703125 -0.554688 0.835938 -0.328125 1.109375 -0.328125 C 1.210938 -0.328125 1.296875 -0.359375 1.359375 -0.421875 C 1.429688 -0.484375 1.472656 -0.578125 1.484375 -0.703125 L 2.015625 -0.671875 C 1.992188 -0.535156 1.941406 -0.410156 1.859375 -0.296875 C 1.785156 -0.191406 1.679688 -0.109375 1.546875 -0.046875 C 1.421875 0.00390625 1.273438 0.03125 1.109375 0.03125 Z M 1.109375 0.03125 "/></g></g><g transform="translate(50.569641, 121.15217)"><g><path d="M 1.09375 0.03125 C 0.789062 0.03125 0.554688 -0.0546875 0.390625 -0.234375 C 0.234375 -0.410156 0.15625 -0.671875 0.15625 -1.015625 C 0.15625 -1.347656 0.234375 -1.601562 0.390625 -1.78125 C 0.554688 -1.96875 0.796875 -2.0625 1.109375 -2.0625 C 1.390625 -2.0625 1.609375 -1.960938 1.765625 -1.765625 C 1.921875 -1.578125 2 -1.296875 2 -0.921875 L 2 -0.90625 L 0.703125 -0.90625 C 0.703125 -0.707031 0.738281 -0.554688 0.8125 -0.453125 C 0.882812 -0.359375 0.988281 -0.3125 1.125 -0.3125 C 1.3125 -0.3125 1.425781 -0.394531 1.46875 -0.5625 L 1.96875 -0.515625 C 1.820312 -0.148438 1.53125 0.03125 1.09375 0.03125 Z M 1.09375 -1.734375 C 0.96875 -1.734375 0.867188 -1.6875 0.796875 -1.59375 C 0.734375 -1.507812 0.703125 -1.390625 0.703125 -1.234375 L 1.484375 -1.234375 C 1.472656 -1.398438 1.429688 -1.523438 1.359375 -1.609375 C 1.296875 -1.691406 1.207031 -1.734375 1.09375 -1.734375 Z M 1.09375 -1.734375 "/></g></g></g><g fill="#000000" fill-opacity="1"><g transform="translate(124.795364, 77.544702)"><g><path d="M 8.984375 -18.75 C 11.753906 -18.75 14.1875 -18.0625 16.28125 -16.6875 L 14.515625 -13 C 13.546875 -13.5625 12.503906 -14.023438 11.390625 -14.390625 C 10.273438 -14.753906 9.335938 -14.9375 8.578125 -14.9375 C 7.222656 -14.9375 6.546875 -14.488281 6.546875 -13.59375 C 6.546875 -13.007812 6.878906 -12.539062 7.546875 -12.1875 C 8.210938 -11.832031 9.023438 -11.523438 9.984375 -11.265625 C 10.953125 -11.015625 11.914062 -10.707031 12.875 -10.34375 C 13.84375 -9.976562 14.660156 -9.390625 15.328125 -8.578125 C 16.003906 -7.765625 16.34375 -6.742188 16.34375 -5.515625 C 16.34375 -3.722656 15.644531 -2.328125 14.25 -1.328125 C 12.851562 -0.335938 11.078125 0.15625 8.921875 0.15625 C 7.390625 0.15625 5.875 -0.109375 4.375 -0.640625 C 2.875 -1.171875 1.566406 -1.894531 0.453125 -2.8125 L 2.28125 -6.4375 C 3.21875 -5.625 4.320312 -4.957031 5.59375 -4.4375 C 6.863281 -3.914062 7.992188 -3.65625 8.984375 -3.65625 C 9.734375 -3.65625 10.320312 -3.789062 10.75 -4.0625 C 11.175781 -4.332031 11.390625 -4.734375 11.390625 -5.265625 C 11.390625 -5.773438 11.144531 -6.203125 10.65625 -6.546875 C 10.175781 -6.898438 9.570312 -7.160156 8.84375 -7.328125 C 8.125 -7.492188 7.335938 -7.71875 6.484375 -8 C 5.640625 -8.28125 4.851562 -8.585938 4.125 -8.921875 C 3.40625 -9.253906 2.800781 -9.785156 2.3125 -10.515625 C 1.832031 -11.253906 1.59375 -12.132812 1.59375 -13.15625 C 1.59375 -14.851562 2.265625 -16.207031 3.609375 -17.21875 C 4.960938 -18.238281 6.753906 -18.75 8.984375 -18.75 Z M 8.984375 -18.75 "/></g></g></g><g fill="#000000" fill-opacity="1"><g transform="translate(141.845906, 77.544702)"><g><path d="M 8.046875 -14.4375 C 9.460938 -14.4375 10.722656 -14.15625 11.828125 -13.59375 C 12.929688 -13.039062 13.789062 -12.253906 14.40625 -11.234375 L 11.125 -9.25 C 10.414062 -10.226562 9.453125 -10.71875 8.234375 -10.71875 C 7.347656 -10.71875 6.628906 -10.382812 6.078125 -9.71875 C 5.523438 -9.0625 5.25 -8.195312 5.25 -7.125 C 5.25 -6.03125 5.519531 -5.148438 6.0625 -4.484375 C 6.613281 -3.828125 7.335938 -3.5 8.234375 -3.5 C 9.578125 -3.5 10.550781 -4.035156 11.15625 -5.109375 L 14.484375 -3.15625 C 13.898438 -2.09375 13.046875 -1.273438 11.921875 -0.703125 C 10.804688 -0.128906 9.5 0.15625 8 0.15625 C 5.789062 0.15625 4.007812 -0.507812 2.65625 -1.84375 C 1.3125 -3.175781 0.640625 -4.925781 0.640625 -7.09375 C 0.640625 -9.28125 1.320312 -11.050781 2.6875 -12.40625 C 4.050781 -13.757812 5.835938 -14.4375 8.046875 -14.4375 Z M 8.046875 -14.4375 "/></g></g></g><g fill="#000000" fill-opacity="1"><g transform="translate(156.725432, 77.544702)"><g><path d="M 11.328125 -14.484375 C 12.898438 -14.484375 14.160156 -13.984375 15.109375 -12.984375 C 16.066406 -11.992188 16.546875 -10.664062 16.546875 -9 L 16.546875 0 L 11.96875 0 L 11.96875 -7.734375 C 11.96875 -8.566406 11.742188 -9.222656 11.296875 -9.703125 C 10.847656 -10.191406 10.234375 -10.4375 9.453125 -10.4375 C 8.566406 -10.4375 7.859375 -10.117188 7.328125 -9.484375 C 6.804688 -8.847656 6.546875 -8.035156 6.546875 -7.046875 L 6.546875 0 L 1.953125 0 L 1.953125 -19.65625 L 6.546875 -19.65625 L 6.546875 -11.921875 C 7.546875 -13.597656 9.140625 -14.453125 11.328125 -14.484375 Z M 11.328125 -14.484375 "/></g></g></g><g fill="#000000" fill-opacity="1"><g transform="translate(174.676169, 77.544702)"><g><path d="M 8.453125 -14.4375 C 10.773438 -14.4375 12.648438 -13.769531 14.078125 -12.4375 C 15.515625 -11.101562 16.234375 -9.335938 16.234375 -7.140625 C 16.234375 -4.953125 15.515625 -3.1875 14.078125 -1.84375 C 12.648438 -0.507812 10.773438 0.15625 8.453125 0.15625 C 6.097656 0.15625 4.207031 -0.507812 2.78125 -1.84375 C 1.351562 -3.1875 0.640625 -4.953125 0.640625 -7.140625 C 0.640625 -9.335938 1.351562 -11.101562 2.78125 -12.4375 C 4.207031 -13.769531 6.097656 -14.4375 8.453125 -14.4375 Z M 8.453125 -10.8125 C 7.492188 -10.8125 6.71875 -10.460938 6.125 -9.765625 C 5.539062 -9.078125 5.25 -8.1875 5.25 -7.09375 C 5.25 -5.976562 5.539062 -5.082031 6.125 -4.40625 C 6.71875 -3.726562 7.492188 -3.390625 8.453125 -3.390625 C 9.390625 -3.390625 10.148438 -3.726562 10.734375 -4.40625 C 11.328125 -5.082031 11.625 -5.976562 11.625 -7.09375 C 11.625 -8.1875 11.328125 -9.078125 10.734375 -9.765625 C 10.148438 -10.460938 9.390625 -10.8125 8.453125 -10.8125 Z M 8.453125 -10.8125 "/></g></g></g><g fill="#000000" fill-opacity="1"><g transform="translate(191.541384, 77.544702)"><g><path d="M 8.453125 -14.4375 C 10.773438 -14.4375 12.648438 -13.769531 14.078125 -12.4375 C 15.515625 -11.101562 16.234375 -9.335938 16.234375 -7.140625 C 16.234375 -4.953125 15.515625 -3.1875 14.078125 -1.84375 C 12.648438 -0.507812 10.773438 0.15625 8.453125 0.15625 C 6.097656 0.15625 4.207031 -0.507812 2.78125 -1.84375 C 1.351562 -3.1875 0.640625 -4.953125 0.640625 -7.140625 C 0.640625 -9.335938 1.351562 -11.101562 2.78125 -12.4375 C 4.207031 -13.769531 6.097656 -14.4375 8.453125 -14.4375 Z M 8.453125 -10.8125 C 7.492188 -10.8125 6.71875 -10.460938 6.125 -9.765625 C 5.539062 -9.078125 5.25 -8.1875 5.25 -7.09375 C 5.25 -5.976562 5.539062 -5.082031 6.125 -4.40625 C 6.71875 -3.726562 7.492188 -3.390625 8.453125 -3.390625 C 9.390625 -3.390625 10.148438 -3.726562 10.734375 -4.40625 C 11.328125 -5.082031 11.625 -5.976562 11.625 -7.09375 C 11.625 -8.1875 11.328125 -9.078125 10.734375 -9.765625 C 10.148438 -10.460938 9.390625 -10.8125 8.453125 -10.8125 Z M 8.453125 -10.8125 "/></g></g></g><g fill="#000000" fill-opacity="1"><g transform="translate(208.406599, 77.544702)"><g><path d="M 6.546875 0 L 1.953125 0 L 1.953125 -19.65625 L 6.546875 -19.65625 Z M 6.546875 0 "/></g></g></g><g fill="#000000" fill-opacity="1"><g transform="translate(216.90539, 77.544702)"><g/></g></g><g fill="#000000" fill-opacity="1"><g transform="translate(223.047836, 77.544702)"><g><path d="M 8.453125 -14.4375 C 10.773438 -14.4375 12.648438 -13.769531 14.078125 -12.4375 C 15.515625 -11.101562 16.234375 -9.335938 16.234375 -7.140625 C 16.234375 -4.953125 15.515625 -3.1875 14.078125 -1.84375 C 12.648438 -0.507812 10.773438 0.15625 8.453125 0.15625 C 6.097656 0.15625 4.207031 -0.507812 2.78125 -1.84375 C 1.351562 -3.1875 0.640625 -4.953125 0.640625 -7.140625 C 0.640625 -9.335938 1.351562 -11.101562 2.78125 -12.4375 C 4.207031 -13.769531 6.097656 -14.4375 8.453125 -14.4375 Z M 8.453125 -10.8125 C 7.492188 -10.8125 6.71875 -10.460938 6.125 -9.765625 C 5.539062 -9.078125 5.25 -8.1875 5.25 -7.09375 C 5.25 -5.976562 5.539062 -5.082031 6.125 -4.40625 C 6.71875 -3.726562 7.492188 -3.390625 8.453125 -3.390625 C 9.390625 -3.390625 10.148438 -3.726562 10.734375 -4.40625 C 11.328125 -5.082031 11.625 -5.976562 11.625 -7.09375 C 11.625 -8.1875 11.328125 -9.078125 10.734375 -9.765625 C 10.148438 -10.460938 9.390625 -10.8125 8.453125 -10.8125 Z M 8.453125 -10.8125 "/></g></g></g><g fill="#000000" fill-opacity="1"><g transform="translate(239.913052, 77.544702)"><g><path d="M 8.84375 -16.234375 C 8.363281 -16.253906 7.96875 -16.125 7.65625 -15.84375 C 7.351562 -15.570312 7.203125 -15.179688 7.203125 -14.671875 L 7.203125 -13.640625 L 10.4375 -13.640625 L 10.4375 -10.625 L 7.203125 -10.625 L 7.203125 0 L 2.671875 0 L 2.671875 -10.625 L 0.734375 -10.625 L 0.734375 -13.640625 L 2.671875 -13.640625 L 2.671875 -14.96875 C 2.671875 -16.5 3.179688 -17.695312 4.203125 -18.5625 C 5.234375 -19.425781 6.539062 -19.859375 8.125 -19.859375 C 9.644531 -19.859375 10.976562 -19.523438 12.125 -18.859375 L 10.515625 -15.65625 C 9.984375 -16.039062 9.425781 -16.234375 8.84375 -16.234375 Z M 8.84375 -16.234375 "/></g></g></g><g fill="#000000" fill-opacity="1"><g transform="translate(124.795364, 114.344506)"><g><path d="M 22.21875 0 L 18.0625 0 L 18.03125 -12.046875 L 13.59375 -1.859375 L 10.515625 -1.859375 L 6.0625 -12.046875 L 6.0625 0 L 1.859375 0 L 1.859375 -18.5625 L 7.015625 -18.5625 L 12.046875 -7.515625 L 17.078125 -18.5625 L 22.21875 -18.5625 Z M 22.21875 0 "/></g></g></g><g fill="#000000" fill-opacity="1"><g transform="translate(148.888521, 114.344506)"><g><path d="M 8.234375 -14.484375 C 10.191406 -14.484375 11.710938 -14.03125 12.796875 -13.125 C 13.890625 -12.21875 14.441406 -10.953125 14.453125 -9.328125 L 14.453125 0 L 9.984375 0 L 9.984375 -1.640625 C 9.046875 -0.398438 7.585938 0.21875 5.609375 0.21875 C 4.109375 0.21875 2.914062 -0.195312 2.03125 -1.03125 C 1.15625 -1.863281 0.71875 -2.941406 0.71875 -4.265625 C 0.71875 -5.617188 1.1875 -6.671875 2.125 -7.421875 C 3.070312 -8.171875 4.429688 -8.554688 6.203125 -8.578125 L 9.953125 -8.578125 L 9.953125 -8.796875 C 9.953125 -9.503906 9.71875 -10.054688 9.25 -10.453125 C 8.78125 -10.847656 8.085938 -11.046875 7.171875 -11.046875 C 5.890625 -11.046875 4.46875 -10.648438 2.90625 -9.859375 L 1.609375 -12.875 C 3.921875 -13.945312 6.128906 -14.484375 8.234375 -14.484375 Z M 7.015625 -2.890625 C 7.742188 -2.890625 8.378906 -3.066406 8.921875 -3.421875 C 9.472656 -3.785156 9.816406 -4.257812 9.953125 -4.84375 L 9.953125 -6.125 L 7.078125 -6.125 C 5.691406 -6.125 5 -5.609375 5 -4.578125 C 5 -4.046875 5.175781 -3.628906 5.53125 -3.328125 C 5.882812 -3.035156 6.378906 -2.890625 7.015625 -2.890625 Z M 7.015625 -2.890625 "/></g></g></g><g fill="#000000" fill-opacity="1"><g transform="translate(164.774139, 114.344506)"><g><path d="M 8.046875 -14.4375 C 9.460938 -14.4375 10.722656 -14.15625 11.828125 -13.59375 C 12.929688 -13.039062 13.789062 -12.253906 14.40625 -11.234375 L 11.125 -9.25 C 10.414062 -10.226562 9.453125 -10.71875 8.234375 -10.71875 C 7.347656 -10.71875 6.628906 -10.382812 6.078125 -9.71875 C 5.523438 -9.0625 5.25 -8.195312 5.25 -7.125 C 5.25 -6.03125 5.519531 -5.148438 6.0625 -4.484375 C 6.613281 -3.828125 7.335938 -3.5 8.234375 -3.5 C 9.578125 -3.5 10.550781 -4.035156 11.15625 -5.109375 L 14.484375 -3.15625 C 13.898438 -2.09375 13.046875 -1.273438 11.921875 -0.703125 C 10.804688 -0.128906 9.5 0.15625 8 0.15625 C 5.789062 0.15625 4.007812 -0.507812 2.65625 -1.84375 C 1.3125 -3.175781 0.640625 -4.925781 0.640625 -7.09375 C 0.640625 -9.28125 1.320312 -11.050781 2.6875 -12.40625 C 4.050781 -13.757812 5.835938 -14.4375 8.046875 -14.4375 Z M 8.046875 -14.4375 "/></g></g></g><g fill="#000000" fill-opacity="1"><g transform="translate(179.653665, 114.344506)"><g><path d="M 11.328125 -14.484375 C 12.898438 -14.484375 14.160156 -13.984375 15.109375 -12.984375 C 16.066406 -11.992188 16.546875 -10.664062 16.546875 -9 L 16.546875 0 L 11.96875 0 L 11.96875 -7.734375 C 11.96875 -8.566406 11.742188 -9.222656 11.296875 -9.703125 C 10.847656 -10.191406 10.234375 -10.4375 9.453125 -10.4375 C 8.566406 -10.4375 7.859375 -10.117188 7.328125 -9.484375 C 6.804688 -8.847656 6.546875 -8.035156 6.546875 -7.046875 L 6.546875 0 L 1.953125 0 L 1.953125 -19.65625 L 6.546875 -19.65625 L 6.546875 -11.921875 C 7.546875 -13.597656 9.140625 -14.453125 11.328125 -14.484375 Z M 11.328125 -14.484375 "/></g></g></g><g fill="#000000" fill-opacity="1"><g transform="translate(197.604401, 114.344506)"><g><path d="M 2.390625 -20.109375 C 2.847656 -20.566406 3.425781 -20.796875 4.125 -20.796875 C 4.832031 -20.796875 5.410156 -20.566406 5.859375 -20.109375 C 6.316406 -19.660156 6.546875 -19.082031 6.546875 -18.375 C 6.546875 -17.675781 6.316406 -17.09375 5.859375 -16.625 C 5.410156 -16.164062 4.832031 -15.9375 4.125 -15.9375 C 3.425781 -15.9375 2.847656 -16.164062 2.390625 -16.625 C 1.941406 -17.09375 1.71875 -17.675781 1.71875 -18.375 C 1.71875 -19.082031 1.941406 -19.660156 2.390625 -20.109375 Z M 6.375 0 L 1.828125 0 L 1.828125 -14.28125 L 6.375 -14.28125 Z M 6.375 0 "/></g></g></g><g fill="#000000" fill-opacity="1"><g transform="translate(205.838435, 114.344506)"><g><path d="M 11.171875 -14.484375 C 12.742188 -14.484375 14.003906 -13.984375 14.953125 -12.984375 C 15.910156 -11.992188 16.390625 -10.664062 16.390625 -9 L 16.390625 0 L 11.84375 0 L 11.84375 -7.734375 C 11.84375 -8.566406 11.613281 -9.222656 11.15625 -9.703125 C 10.707031 -10.191406 10.097656 -10.4375 9.328125 -10.4375 C 8.515625 -10.4375 7.847656 -10.171875 7.328125 -9.640625 C 6.804688 -9.109375 6.5 -8.410156 6.40625 -7.546875 L 6.40625 0 L 1.828125 0 L 1.828125 -14.28125 L 6.40625 -14.28125 L 6.40625 -11.9375 C 7.414062 -13.601562 9.003906 -14.453125 11.171875 -14.484375 Z M 11.171875 -14.484375 "/></g></g></g><g fill="#000000" fill-opacity="1"><g transform="translate(223.65678, 114.344506)"><g><path d="M 8.078125 -14.4375 C 10.546875 -14.4375 12.398438 -13.675781 13.640625 -12.15625 C 14.890625 -10.632812 15.4375 -8.550781 15.28125 -5.90625 L 5.25 -5.90625 C 5.476562 -5.0625 5.882812 -4.40625 6.46875 -3.9375 C 7.050781 -3.476562 7.765625 -3.25 8.609375 -3.25 C 9.910156 -3.25 11.050781 -3.738281 12.03125 -4.71875 L 14.4375 -2.359375 C 12.894531 -0.679688 10.816406 0.15625 8.203125 0.15625 C 5.890625 0.15625 4.050781 -0.503906 2.6875 -1.828125 C 1.320312 -3.148438 0.640625 -4.90625 0.640625 -7.09375 C 0.640625 -9.300781 1.320312 -11.078125 2.6875 -12.421875 C 4.050781 -13.765625 5.847656 -14.4375 8.078125 -14.4375 Z M 5.171875 -8.375 L 10.890625 -8.375 C 10.890625 -9.238281 10.632812 -9.929688 10.125 -10.453125 C 9.625 -10.984375 8.957031 -11.25 8.125 -11.25 C 7.351562 -11.25 6.703125 -10.988281 6.171875 -10.46875 C 5.640625 -9.945312 5.304688 -9.25 5.171875 -8.375 Z M 5.171875 -8.375 "/></g></g></g><g fill="#000000" fill-opacity="1"><g transform="translate(239.595333, 114.344506)"><g/></g></g><g fill="#000000" fill-opacity="1"><g transform="translate(245.73778, 114.344506)"><g><path d="M 6.5625 -3.953125 L 14.4375 -3.953125 L 14.4375 0 L 1.859375 0 L 1.859375 -18.546875 L 6.5625 -18.546875 Z M 6.5625 -3.953125 "/></g></g></g><g fill="#000000" fill-opacity="1"><g transform="translate(260.564344, 114.344506)"><g><path d="M 8.078125 -14.4375 C 10.546875 -14.4375 12.398438 -13.675781 13.640625 -12.15625 C 14.890625 -10.632812 15.4375 -8.550781 15.28125 -5.90625 L 5.25 -5.90625 C 5.476562 -5.0625 5.882812 -4.40625 6.46875 -3.9375 C 7.050781 -3.476562 7.765625 -3.25 8.609375 -3.25 C 9.910156 -3.25 11.050781 -3.738281 12.03125 -4.71875 L 14.4375 -2.359375 C 12.894531 -0.679688 10.816406 0.15625 8.203125 0.15625 C 5.890625 0.15625 4.050781 -0.503906 2.6875 -1.828125 C 1.320312 -3.148438 0.640625 -4.90625 0.640625 -7.09375 C 0.640625 -9.300781 1.320312 -11.078125 2.6875 -12.421875 C 4.050781 -13.765625 5.847656 -14.4375 8.078125 -14.4375 Z M 5.171875 -8.375 L 10.890625 -8.375 C 10.890625 -9.238281 10.632812 -9.929688 10.125 -10.453125 C 9.625 -10.984375 8.957031 -11.25 8.125 -11.25 C 7.351562 -11.25 6.703125 -10.988281 6.171875 -10.46875 C 5.640625 -9.945312 5.304688 -9.25 5.171875 -8.375 Z M 5.171875 -8.375 "/></g></g></g><g fill="#000000" fill-opacity="1"><g transform="translate(276.502898, 114.344506)"><g><path d="M 8.234375 -14.484375 C 10.191406 -14.484375 11.710938 -14.03125 12.796875 -13.125 C 13.890625 -12.21875 14.441406 -10.953125 14.453125 -9.328125 L 14.453125 0 L 9.984375 0 L 9.984375 -1.640625 C 9.046875 -0.398438 7.585938 0.21875 5.609375 0.21875 C 4.109375 0.21875 2.914062 -0.195312 2.03125 -1.03125 C 1.15625 -1.863281 0.71875 -2.941406 0.71875 -4.265625 C 0.71875 -5.617188 1.1875 -6.671875 2.125 -7.421875 C 3.070312 -8.171875 4.429688 -8.554688 6.203125 -8.578125 L 9.953125 -8.578125 L 9.953125 -8.796875 C 9.953125 -9.503906 9.71875 -10.054688 9.25 -10.453125 C 8.78125 -10.847656 8.085938 -11.046875 7.171875 -11.046875 C 5.890625 -11.046875 4.46875 -10.648438 2.90625 -9.859375 L 1.609375 -12.875 C 3.921875 -13.945312 6.128906 -14.484375 8.234375 -14.484375 Z M 7.015625 -2.890625 C 7.742188 -2.890625 8.378906 -3.066406 8.921875 -3.421875 C 9.472656 -3.785156 9.816406 -4.257812 9.953125 -4.84375 L 9.953125 -6.125 L 7.078125 -6.125 C 5.691406 -6.125 5 -5.609375 5 -4.578125 C 5 -4.046875 5.175781 -3.628906 5.53125 -3.328125 C 5.882812 -3.035156 6.378906 -2.890625 7.015625 -2.890625 Z M 7.015625 -2.890625 "/></g></g></g><g fill="#000000" fill-opacity="1"><g transform="translate(292.388515, 114.344506)"><g><path d="M 6.40625 -14.28125 L 6.40625 -11.859375 C 7.414062 -13.578125 8.960938 -14.453125 11.046875 -14.484375 L 11.046875 -10.359375 C 9.734375 -10.484375 8.660156 -10.265625 7.828125 -9.703125 C 7.003906 -9.148438 6.53125 -8.363281 6.40625 -7.34375 L 6.40625 0 L 1.828125 0 L 1.828125 -14.28125 Z M 6.40625 -14.28125 "/></g></g></g><g fill="#000000" fill-opacity="1"><g transform="translate(303.693759, 114.344506)"><g><path d="M 11.171875 -14.484375 C 12.742188 -14.484375 14.003906 -13.984375 14.953125 -12.984375 C 15.910156 -11.992188 16.390625 -10.664062 16.390625 -9 L 16.390625 0 L 11.84375 0 L 11.84375 -7.734375 C 11.84375 -8.566406 11.613281 -9.222656 11.15625 -9.703125 C 10.707031 -10.191406 10.097656 -10.4375 9.328125 -10.4375 C 8.515625 -10.4375 7.847656 -10.171875 7.328125 -9.640625 C 6.804688 -9.109375 6.5 -8.410156 6.40625 -7.546875 L 6.40625 0 L 1.828125 0 L 1.828125 -14.28125 L 6.40625 -14.28125 L 6.40625 -11.9375 C 7.414062 -13.601562 9.003906 -14.453125 11.171875 -14.484375 Z M 11.171875 -14.484375 "/></g></g></g><g fill="#000000" fill-opacity="1"><g transform="translate(321.512105, 114.344506)"><g><path d="M 2.390625 -20.109375 C 2.847656 -20.566406 3.425781 -20.796875 4.125 -20.796875 C 4.832031 -20.796875 5.410156 -20.566406 5.859375 -20.109375 C 6.316406 -19.660156 6.546875 -19.082031 6.546875 -18.375 C 6.546875 -17.675781 6.316406 -17.09375 5.859375 -16.625 C 5.410156 -16.164062 4.832031 -15.9375 4.125 -15.9375 C 3.425781 -15.9375 2.847656 -16.164062 2.390625 -16.625 C 1.941406 -17.09375 1.71875 -17.675781 1.71875 -18.375 C 1.71875 -19.082031 1.941406 -19.660156 2.390625 -20.109375 Z M 6.375 0 L 1.828125 0 L 1.828125 -14.28125 L 6.375 -14.28125 Z M 6.375 0 "/></g></g></g><g fill="#000000" fill-opacity="1"><g transform="translate(329.746138, 114.344506)"><g><path d="M 11.171875 -14.484375 C 12.742188 -14.484375 14.003906 -13.984375 14.953125 -12.984375 C 15.910156 -11.992188 16.390625 -10.664062 16.390625 -9 L 16.390625 0 L 11.84375 0 L 11.84375 -7.734375 C 11.84375 -8.566406 11.613281 -9.222656 11.15625 -9.703125 C 10.707031 -10.191406 10.097656 -10.4375 9.328125 -10.4375 C 8.515625 -10.4375 7.847656 -10.171875 7.328125 -9.640625 C 6.804688 -9.109375 6.5 -8.410156 6.40625 -7.546875 L 6.40625 0 L 1.828125 0 L 1.828125 -14.28125 L 6.40625 -14.28125 L 6.40625 -11.9375 C 7.414062 -13.601562 9.003906 -14.453125 11.171875 -14.484375 Z M 11.171875 -14.484375 "/></g></g></g><g fill="#000000" fill-opacity="1"><g transform="translate(347.564484, 114.344506)"><g><path d="M 15.46875 -14.28125 L 15.46875 -1.296875 C 15.46875 0.710938 14.753906 2.316406 13.328125 3.515625 C 11.910156 4.722656 10.046875 5.328125 7.734375 5.328125 C 5.367188 5.328125 3.25 4.695312 1.375 3.4375 L 2.96875 0.34375 C 4.34375 1.300781 5.816406 1.78125 7.390625 1.78125 C 8.484375 1.78125 9.34375 1.515625 9.96875 0.984375 C 10.59375 0.453125 10.90625 -0.265625 10.90625 -1.171875 L 10.90625 -2.671875 C 9.9375 -1.398438 8.570312 -0.765625 6.8125 -0.765625 C 4.988281 -0.765625 3.503906 -1.398438 2.359375 -2.671875 C 1.222656 -3.941406 0.65625 -5.613281 0.65625 -7.6875 C 0.65625 -9.695312 1.210938 -11.320312 2.328125 -12.5625 C 3.441406 -13.8125 4.898438 -14.4375 6.703125 -14.4375 C 8.515625 -14.445312 9.914062 -13.8125 10.90625 -12.53125 L 10.90625 -14.28125 Z M 7.953125 -4.078125 C 8.828125 -4.078125 9.535156 -4.398438 10.078125 -5.046875 C 10.628906 -5.691406 10.90625 -6.523438 10.90625 -7.546875 C 10.90625 -8.585938 10.628906 -9.429688 10.078125 -10.078125 C 9.535156 -10.722656 8.828125 -11.046875 7.953125 -11.046875 C 7.046875 -11.046875 6.3125 -10.722656 5.75 -10.078125 C 5.195312 -9.429688 4.921875 -8.585938 4.921875 -7.546875 C 4.921875 -6.523438 5.195312 -5.691406 5.75 -5.046875 C 6.3125 -4.398438 7.046875 -4.078125 7.953125 -4.078125 Z M 7.953125 -4.078125 "/></g></g></g></svg>