<svg xmlns="http://www.w3.org/2000/svg" xmlns:xlink="http://www.w3.org/1999/xlink" width="173" zoomAndPan="magnify" viewBox="0 0 129.75 31.5" height="42" preserveAspectRatio="xMidYMid meet" version="1.0"><defs><g/><clipPath id="89605f9508"><path d="M 0.890625 0 L 31.957031 0 L 31.957031 30.941406 L 0.890625 30.941406 Z M 0.890625 0 " clip-rule="nonzero"/></clipPath></defs><g clip-path="url(#89605f9508)"><path fill="#370909" d="M 0.890625 0 L 31.953125 0 L 31.953125 30.941406 L 0.890625 30.941406 Z M 0.890625 0 " fill-opacity="1" fill-rule="nonzero"/></g><g fill="#ffffff" fill-opacity="1"><g transform="translate(4.137831, 16.384783)"><g><path d="M 5.71875 0 L 5.078125 -1.8125 L 2.375 -1.8125 L 1.75 0 L 0.25 0 L 2.84375 -7.109375 L 4.609375 -7.109375 L 7.1875 0 Z M 3.734375 -6.015625 L 3.703125 -5.90625 C 3.660156 -5.78125 3.613281 -5.640625 3.5625 -5.484375 C 3.519531 -5.328125 3.234375 -4.476562 2.703125 -2.9375 L 4.75 -2.9375 L 4.046875 -4.984375 L 3.828125 -5.65625 Z M 3.734375 -6.015625 "/></g></g></g><g fill="#ffffff" fill-opacity="1"><g transform="translate(11.590979, 16.384783)"><g><path d="M 0.71875 -6.4375 L 0.71875 -7.484375 L 2.140625 -7.484375 L 2.140625 -6.4375 Z M 0.71875 0 L 0.71875 -5.453125 L 2.140625 -5.453125 L 2.140625 0 Z M 0.71875 0 "/></g></g></g><g fill="#ffffff" fill-opacity="1"><g transform="translate(14.45835, 16.384783)"><g><path d="M 6.59375 0 L 6.59375 -4.3125 C 6.59375 -4.40625 6.59375 -4.5 6.59375 -4.59375 C 6.59375 -4.695312 6.609375 -5.117188 6.640625 -5.859375 C 6.398438 -4.953125 6.222656 -4.320312 6.109375 -3.96875 L 4.828125 0 L 3.765625 0 L 2.484375 -3.96875 L 1.953125 -5.859375 C 1.992188 -5.078125 2.015625 -4.5625 2.015625 -4.3125 L 2.015625 0 L 0.6875 0 L 0.6875 -7.109375 L 2.6875 -7.109375 L 3.953125 -3.125 L 4.0625 -2.75 L 4.3125 -1.796875 L 4.625 -2.9375 L 5.9375 -7.109375 L 7.90625 -7.109375 L 7.90625 0 Z M 6.59375 0 "/></g></g></g><g fill="#ffffff" fill-opacity="1"><g transform="translate(23.055423, 16.384783)"><g><path d="M 0.6875 0 L 0.6875 -7.109375 L 2.171875 -7.109375 L 2.171875 -1.15625 L 5.984375 -1.15625 L 5.984375 0 Z M 0.6875 0 "/></g></g></g><g fill="#ffffff" fill-opacity="1"><g transform="translate(4.137831, 20.421094)"><g><path d="M 1.703125 -0.453125 C 2.078125 -0.453125 2.335938 -0.644531 2.484375 -1.03125 L 3.046875 -0.8125 C 2.921875 -0.519531 2.742188 -0.300781 2.515625 -0.15625 C 2.285156 -0.0195312 2.015625 0.046875 1.703125 0.046875 C 1.210938 0.046875 0.832031 -0.0859375 0.5625 -0.359375 C 0.300781 -0.640625 0.171875 -1.023438 0.171875 -1.515625 C 0.171875 -2.015625 0.296875 -2.394531 0.546875 -2.65625 C 0.804688 -2.925781 1.179688 -3.0625 1.671875 -3.0625 C 2.023438 -3.0625 2.3125 -2.988281 2.53125 -2.84375 C 2.75 -2.695312 2.90625 -2.488281 3 -2.21875 L 2.453125 -2.0625 C 2.398438 -2.21875 2.304688 -2.335938 2.171875 -2.421875 C 2.035156 -2.515625 1.875 -2.5625 1.6875 -2.5625 C 1.394531 -2.5625 1.175781 -2.472656 1.03125 -2.296875 C 0.882812 -2.117188 0.8125 -1.859375 0.8125 -1.515625 C 0.8125 -1.171875 0.882812 -0.90625 1.03125 -0.71875 C 1.1875 -0.539062 1.410156 -0.453125 1.703125 -0.453125 Z M 1.703125 -0.453125 "/></g></g></g><g fill="#ffffff" fill-opacity="1"><g transform="translate(7.298205, 20.421094)"><g><path d="M 0.84375 0.046875 C 0.613281 0.046875 0.4375 -0.015625 0.3125 -0.140625 C 0.1875 -0.265625 0.125 -0.4375 0.125 -0.65625 C 0.125 -0.894531 0.203125 -1.078125 0.359375 -1.203125 C 0.515625 -1.328125 0.742188 -1.390625 1.046875 -1.390625 L 1.53125 -1.40625 L 1.53125 -1.515625 C 1.53125 -1.671875 1.503906 -1.785156 1.453125 -1.859375 C 1.398438 -1.929688 1.316406 -1.96875 1.203125 -1.96875 C 1.085938 -1.96875 1.003906 -1.941406 0.953125 -1.890625 C 0.898438 -1.835938 0.867188 -1.753906 0.859375 -1.640625 L 0.234375 -1.671875 C 0.273438 -1.890625 0.378906 -2.054688 0.546875 -2.171875 C 0.710938 -2.296875 0.9375 -2.359375 1.21875 -2.359375 C 1.519531 -2.359375 1.75 -2.285156 1.90625 -2.140625 C 2.0625 -1.992188 2.140625 -1.789062 2.140625 -1.53125 L 2.140625 -0.6875 C 2.140625 -0.550781 2.148438 -0.457031 2.171875 -0.40625 C 2.203125 -0.363281 2.253906 -0.34375 2.328125 -0.34375 C 2.367188 -0.34375 2.414062 -0.347656 2.46875 -0.359375 L 2.46875 -0.03125 C 2.425781 -0.0195312 2.390625 -0.0078125 2.359375 0 C 2.335938 0 2.3125 0 2.28125 0 C 2.25 0.0078125 2.21875 0.015625 2.1875 0.015625 C 2.15625 0.0234375 2.117188 0.03125 2.078125 0.03125 C 1.921875 0.03125 1.804688 -0.00390625 1.734375 -0.078125 C 1.671875 -0.160156 1.628906 -0.269531 1.609375 -0.40625 L 1.59375 -0.40625 C 1.425781 -0.101562 1.175781 0.046875 0.84375 0.046875 Z M 1.53125 -1.0625 L 1.234375 -1.0625 C 1.085938 -1.0625 0.984375 -1.046875 0.921875 -1.015625 C 0.867188 -0.992188 0.828125 -0.957031 0.796875 -0.90625 C 0.765625 -0.851562 0.75 -0.785156 0.75 -0.703125 C 0.75 -0.585938 0.773438 -0.503906 0.828125 -0.453125 C 0.878906 -0.398438 0.945312 -0.375 1.03125 -0.375 C 1.125 -0.375 1.207031 -0.398438 1.28125 -0.453125 C 1.363281 -0.503906 1.425781 -0.570312 1.46875 -0.65625 C 1.507812 -0.75 1.53125 -0.847656 1.53125 -0.953125 Z M 1.53125 -1.0625 "/></g></g></g><g fill="#ffffff" fill-opacity="1"><g transform="translate(9.732057, 20.421094)"><g><path d="M 1.671875 0 L 1.671875 -1.296875 C 1.671875 -1.703125 1.550781 -1.90625 1.3125 -1.90625 C 1.195312 -1.90625 1.097656 -1.84375 1.015625 -1.71875 C 0.941406 -1.59375 0.90625 -1.429688 0.90625 -1.234375 L 0.90625 0 L 0.3125 0 L 0.3125 -1.796875 C 0.3125 -1.921875 0.304688 -2.019531 0.296875 -2.09375 C 0.296875 -2.175781 0.289062 -2.25 0.28125 -2.3125 L 0.859375 -2.3125 C 0.867188 -2.28125 0.875 -2.207031 0.875 -2.09375 C 0.882812 -1.976562 0.890625 -1.898438 0.890625 -1.859375 C 0.972656 -2.023438 1.066406 -2.148438 1.171875 -2.234375 C 1.285156 -2.316406 1.414062 -2.359375 1.5625 -2.359375 C 1.914062 -2.359375 2.132812 -2.191406 2.21875 -1.859375 C 2.300781 -2.035156 2.394531 -2.160156 2.5 -2.234375 C 2.613281 -2.316406 2.753906 -2.359375 2.921875 -2.359375 C 3.148438 -2.359375 3.320312 -2.28125 3.4375 -2.125 C 3.5625 -1.96875 3.625 -1.75 3.625 -1.46875 L 3.625 0 L 3.015625 0 L 3.015625 -1.296875 C 3.015625 -1.703125 2.898438 -1.90625 2.671875 -1.90625 C 2.554688 -1.90625 2.457031 -1.847656 2.375 -1.734375 C 2.300781 -1.617188 2.265625 -1.460938 2.265625 -1.265625 L 2.265625 0 Z M 1.671875 0 "/></g></g></g><g fill="#ffffff" fill-opacity="1"><g transform="translate(13.623227, 20.421094)"><g><path d="M 2.5 -1.171875 C 2.5 -0.785156 2.421875 -0.484375 2.265625 -0.265625 C 2.109375 -0.0546875 1.890625 0.046875 1.609375 0.046875 C 1.441406 0.046875 1.296875 0.0078125 1.171875 -0.0625 C 1.054688 -0.132812 0.96875 -0.238281 0.90625 -0.375 L 0.890625 -0.375 C 0.898438 -0.320312 0.90625 -0.191406 0.90625 0.015625 L 0.90625 0.90625 L 0.3125 0.90625 L 0.3125 -1.78125 C 0.3125 -2 0.300781 -2.175781 0.28125 -2.3125 L 0.875 -2.3125 C 0.875 -2.28125 0.875 -2.226562 0.875 -2.15625 C 0.882812 -2.082031 0.890625 -2.007812 0.890625 -1.9375 L 0.90625 -1.9375 C 1.039062 -2.21875 1.285156 -2.359375 1.640625 -2.359375 C 1.910156 -2.359375 2.117188 -2.253906 2.265625 -2.046875 C 2.421875 -1.835938 2.5 -1.546875 2.5 -1.171875 Z M 1.859375 -1.171875 C 1.859375 -1.679688 1.703125 -1.9375 1.390625 -1.9375 C 1.234375 -1.9375 1.109375 -1.867188 1.015625 -1.734375 C 0.929688 -1.597656 0.890625 -1.40625 0.890625 -1.15625 C 0.890625 -0.90625 0.929688 -0.710938 1.015625 -0.578125 C 1.109375 -0.441406 1.234375 -0.375 1.390625 -0.375 C 1.703125 -0.375 1.859375 -0.640625 1.859375 -1.171875 Z M 1.859375 -1.171875 "/></g></g></g><g fill="#ffffff" fill-opacity="1"><g transform="translate(16.296404, 20.421094)"><g><path d="M 0.875 -2.3125 L 0.875 -1.015625 C 0.875 -0.609375 1.007812 -0.40625 1.28125 -0.40625 C 1.425781 -0.40625 1.539062 -0.46875 1.625 -0.59375 C 1.71875 -0.71875 1.765625 -0.878906 1.765625 -1.078125 L 1.765625 -2.3125 L 2.359375 -2.3125 L 2.359375 -0.515625 C 2.359375 -0.316406 2.367188 -0.144531 2.390625 0 L 1.8125 0 C 1.789062 -0.207031 1.78125 -0.359375 1.78125 -0.453125 C 1.695312 -0.285156 1.59375 -0.160156 1.46875 -0.078125 C 1.34375 0.00390625 1.195312 0.046875 1.03125 0.046875 C 0.789062 0.046875 0.601562 -0.0234375 0.46875 -0.171875 C 0.332031 -0.328125 0.265625 -0.550781 0.265625 -0.84375 L 0.265625 -2.3125 Z M 0.875 -2.3125 "/></g></g></g><g fill="#ffffff" fill-opacity="1"><g transform="translate(18.969581, 20.421094)"><g><path d="M 2.25 -0.671875 C 2.25 -0.453125 2.15625 -0.273438 1.96875 -0.140625 C 1.789062 -0.015625 1.539062 0.046875 1.21875 0.046875 C 0.90625 0.046875 0.660156 -0.00390625 0.484375 -0.109375 C 0.316406 -0.210938 0.207031 -0.367188 0.15625 -0.578125 L 0.6875 -0.65625 C 0.707031 -0.539062 0.753906 -0.460938 0.828125 -0.421875 C 0.910156 -0.378906 1.039062 -0.359375 1.21875 -0.359375 C 1.382812 -0.359375 1.503906 -0.378906 1.578125 -0.421875 C 1.660156 -0.460938 1.703125 -0.53125 1.703125 -0.625 C 1.703125 -0.695312 1.671875 -0.753906 1.609375 -0.796875 C 1.546875 -0.835938 1.441406 -0.875 1.296875 -0.90625 C 0.953125 -0.96875 0.722656 -1.023438 0.609375 -1.078125 C 0.492188 -1.140625 0.40625 -1.21875 0.34375 -1.3125 C 0.28125 -1.40625 0.25 -1.519531 0.25 -1.65625 C 0.25 -1.875 0.332031 -2.046875 0.5 -2.171875 C 0.664062 -2.296875 0.90625 -2.359375 1.21875 -2.359375 C 1.5 -2.359375 1.722656 -2.300781 1.890625 -2.1875 C 2.054688 -2.082031 2.160156 -1.929688 2.203125 -1.734375 L 1.671875 -1.671875 C 1.648438 -1.765625 1.601562 -1.832031 1.53125 -1.875 C 1.46875 -1.925781 1.363281 -1.953125 1.21875 -1.953125 C 1.082031 -1.953125 0.976562 -1.929688 0.90625 -1.890625 C 0.832031 -1.859375 0.796875 -1.800781 0.796875 -1.71875 C 0.796875 -1.65625 0.820312 -1.601562 0.875 -1.5625 C 0.9375 -1.519531 1.03125 -1.488281 1.15625 -1.46875 C 1.332031 -1.425781 1.488281 -1.382812 1.625 -1.34375 C 1.769531 -1.3125 1.882812 -1.265625 1.96875 -1.203125 C 2.0625 -1.148438 2.128906 -1.082031 2.171875 -1 C 2.222656 -0.914062 2.25 -0.804688 2.25 -0.671875 Z M 2.25 -0.671875 "/></g></g></g><g fill="#ffffff" fill-opacity="1"><g transform="translate(4.502186, 22.108696)"><g><path d="M 0.5 0 L 0.5 -0.296875 L 0.21875 -0.296875 L 0.21875 0 L 0.0625 0 L 0.0625 -0.671875 L 0.21875 -0.671875 L 0.21875 -0.40625 L 0.5 -0.40625 L 0.5 -0.671875 L 0.640625 -0.671875 L 0.640625 0 Z M 0.5 0 "/></g></g><g transform="translate(5.210557, 22.108696)"><g><path d="M 0.203125 -0.515625 L 0.203125 -0.234375 C 0.203125 -0.140625 0.234375 -0.09375 0.296875 -0.09375 C 0.328125 -0.09375 0.351562 -0.101562 0.375 -0.125 C 0.394531 -0.15625 0.40625 -0.195312 0.40625 -0.25 L 0.40625 -0.515625 L 0.53125 -0.515625 L 0.53125 -0.125 C 0.53125 -0.0703125 0.53125 -0.03125 0.53125 0 L 0.40625 0 C 0.40625 -0.0507812 0.40625 -0.0859375 0.40625 -0.109375 C 0.382812 -0.0664062 0.359375 -0.0351562 0.328125 -0.015625 C 0.304688 0.00390625 0.273438 0.015625 0.234375 0.015625 C 0.179688 0.015625 0.140625 0 0.109375 -0.03125 C 0.078125 -0.0703125 0.0625 -0.125 0.0625 -0.1875 L 0.0625 -0.515625 Z M 0.203125 -0.515625 "/></g></g><g transform="translate(5.809727, 22.108696)"><g><path d="M 0.375 0 L 0.375 -0.296875 C 0.375 -0.378906 0.347656 -0.421875 0.296875 -0.421875 C 0.273438 -0.421875 0.253906 -0.40625 0.234375 -0.375 C 0.210938 -0.351562 0.203125 -0.320312 0.203125 -0.28125 L 0.203125 0 L 0.0625 0 L 0.0625 -0.40625 C 0.0625 -0.425781 0.0625 -0.441406 0.0625 -0.453125 C 0.0625 -0.472656 0.0625 -0.492188 0.0625 -0.515625 L 0.203125 -0.515625 C 0.203125 -0.503906 0.203125 -0.484375 0.203125 -0.453125 C 0.203125 -0.429688 0.203125 -0.414062 0.203125 -0.40625 C 0.222656 -0.445312 0.242188 -0.472656 0.265625 -0.484375 C 0.296875 -0.503906 0.328125 -0.515625 0.359375 -0.515625 C 0.429688 -0.515625 0.472656 -0.476562 0.484375 -0.40625 L 0.5 -0.40625 C 0.507812 -0.445312 0.523438 -0.472656 0.546875 -0.484375 C 0.578125 -0.503906 0.613281 -0.515625 0.65625 -0.515625 C 0.707031 -0.515625 0.742188 -0.5 0.765625 -0.46875 C 0.796875 -0.4375 0.8125 -0.390625 0.8125 -0.328125 L 0.8125 0 L 0.671875 0 L 0.671875 -0.296875 C 0.671875 -0.378906 0.644531 -0.421875 0.59375 -0.421875 C 0.570312 -0.421875 0.550781 -0.410156 0.53125 -0.390625 C 0.507812 -0.367188 0.5 -0.335938 0.5 -0.296875 L 0.5 0 Z M 0.375 0 "/></g></g><g transform="translate(6.681899, 22.108696)"><g><path d="M 0.1875 0.015625 C 0.132812 0.015625 0.09375 0 0.0625 -0.03125 C 0.0390625 -0.0625 0.03125 -0.101562 0.03125 -0.15625 C 0.03125 -0.207031 0.046875 -0.242188 0.078125 -0.265625 C 0.117188 -0.296875 0.171875 -0.3125 0.234375 -0.3125 L 0.359375 -0.328125 L 0.359375 -0.34375 C 0.359375 -0.382812 0.347656 -0.410156 0.328125 -0.421875 C 0.316406 -0.429688 0.300781 -0.4375 0.28125 -0.4375 C 0.25 -0.4375 0.226562 -0.429688 0.21875 -0.421875 C 0.207031 -0.410156 0.203125 -0.394531 0.203125 -0.375 L 0.046875 -0.375 C 0.0546875 -0.414062 0.0820312 -0.445312 0.125 -0.46875 C 0.164062 -0.5 0.21875 -0.515625 0.28125 -0.515625 C 0.34375 -0.515625 0.390625 -0.5 0.421875 -0.46875 C 0.453125 -0.4375 0.46875 -0.394531 0.46875 -0.34375 L 0.46875 -0.15625 C 0.46875 -0.125 0.472656 -0.101562 0.484375 -0.09375 C 0.492188 -0.0820312 0.503906 -0.078125 0.515625 -0.078125 C 0.523438 -0.078125 0.535156 -0.078125 0.546875 -0.078125 L 0.546875 0 C 0.535156 0 0.523438 0 0.515625 0 C 0.515625 0 0.507812 0 0.5 0 C 0.5 0 0.492188 0 0.484375 0 C 0.472656 0 0.460938 0 0.453125 0 C 0.421875 0 0.398438 -0.00390625 0.390625 -0.015625 C 0.378906 -0.0351562 0.375 -0.0625 0.375 -0.09375 L 0.359375 -0.09375 C 0.328125 -0.0195312 0.269531 0.015625 0.1875 0.015625 Z M 0.359375 -0.25 L 0.28125 -0.25 C 0.25 -0.238281 0.222656 -0.226562 0.203125 -0.21875 C 0.191406 -0.21875 0.179688 -0.210938 0.171875 -0.203125 C 0.171875 -0.191406 0.171875 -0.175781 0.171875 -0.15625 C 0.171875 -0.132812 0.175781 -0.117188 0.1875 -0.109375 C 0.195312 -0.0976562 0.210938 -0.09375 0.234375 -0.09375 C 0.253906 -0.09375 0.273438 -0.0976562 0.296875 -0.109375 C 0.316406 -0.117188 0.332031 -0.132812 0.34375 -0.15625 C 0.351562 -0.175781 0.359375 -0.195312 0.359375 -0.21875 Z M 0.359375 -0.25 "/></g></g><g transform="translate(7.227426, 22.108696)"><g><path d="M 0.40625 0 L 0.40625 -0.296875 C 0.40625 -0.378906 0.375 -0.421875 0.3125 -0.421875 C 0.28125 -0.421875 0.253906 -0.40625 0.234375 -0.375 C 0.210938 -0.351562 0.203125 -0.320312 0.203125 -0.28125 L 0.203125 0 L 0.0625 0 L 0.0625 -0.40625 C 0.0625 -0.425781 0.0625 -0.441406 0.0625 -0.453125 C 0.0625 -0.472656 0.0625 -0.492188 0.0625 -0.515625 L 0.203125 -0.515625 C 0.203125 -0.503906 0.203125 -0.484375 0.203125 -0.453125 C 0.203125 -0.429688 0.203125 -0.414062 0.203125 -0.40625 C 0.222656 -0.445312 0.242188 -0.472656 0.265625 -0.484375 C 0.296875 -0.503906 0.332031 -0.515625 0.375 -0.515625 C 0.414062 -0.515625 0.453125 -0.5 0.484375 -0.46875 C 0.515625 -0.4375 0.53125 -0.390625 0.53125 -0.328125 L 0.53125 0 Z M 0.40625 0 "/></g></g><g transform="translate(7.826596, 22.108696)"><g/></g><g transform="translate(8.09912, 22.108696)"><g><path d="M 0.0625 0 L 0.0625 -0.671875 L 0.21875 -0.671875 L 0.21875 0 Z M 0.0625 0 "/></g></g><g transform="translate(8.371644, 22.108696)"><g><path d="M 0.40625 0 L 0.40625 -0.296875 C 0.40625 -0.378906 0.375 -0.421875 0.3125 -0.421875 C 0.28125 -0.421875 0.253906 -0.40625 0.234375 -0.375 C 0.210938 -0.351562 0.203125 -0.320312 0.203125 -0.28125 L 0.203125 0 L 0.0625 0 L 0.0625 -0.40625 C 0.0625 -0.425781 0.0625 -0.441406 0.0625 -0.453125 C 0.0625 -0.472656 0.0625 -0.492188 0.0625 -0.515625 L 0.203125 -0.515625 C 0.203125 -0.503906 0.203125 -0.484375 0.203125 -0.453125 C 0.203125 -0.429688 0.203125 -0.414062 0.203125 -0.40625 C 0.222656 -0.445312 0.242188 -0.472656 0.265625 -0.484375 C 0.296875 -0.503906 0.332031 -0.515625 0.375 -0.515625 C 0.414062 -0.515625 0.453125 -0.5 0.484375 -0.46875 C 0.515625 -0.4375 0.53125 -0.390625 0.53125 -0.328125 L 0.53125 0 Z M 0.40625 0 "/></g></g><g transform="translate(8.970814, 22.108696)"><g><path d="M 0.203125 0.015625 C 0.160156 0.015625 0.128906 0.00390625 0.109375 -0.015625 C 0.0859375 -0.046875 0.078125 -0.0820312 0.078125 -0.125 L 0.078125 -0.421875 L 0.015625 -0.421875 L 0.015625 -0.515625 L 0.09375 -0.515625 L 0.125 -0.640625 L 0.21875 -0.640625 L 0.21875 -0.515625 L 0.3125 -0.515625 L 0.3125 -0.421875 L 0.21875 -0.421875 L 0.21875 -0.15625 C 0.21875 -0.132812 0.222656 -0.117188 0.234375 -0.109375 C 0.242188 -0.0976562 0.257812 -0.09375 0.28125 -0.09375 C 0.289062 -0.09375 0.304688 -0.09375 0.328125 -0.09375 L 0.328125 -0.015625 C 0.285156 0.00390625 0.242188 0.015625 0.203125 0.015625 Z M 0.203125 0.015625 "/></g></g><g transform="translate(9.297459, 22.108696)"><g><path d="M 0.28125 0.015625 C 0.207031 0.015625 0.148438 -0.00390625 0.109375 -0.046875 C 0.0664062 -0.0976562 0.046875 -0.171875 0.046875 -0.265625 C 0.046875 -0.347656 0.0664062 -0.410156 0.109375 -0.453125 C 0.148438 -0.492188 0.207031 -0.515625 0.28125 -0.515625 C 0.363281 -0.515625 0.421875 -0.492188 0.453125 -0.453125 C 0.484375 -0.410156 0.5 -0.335938 0.5 -0.234375 L 0.1875 -0.234375 C 0.1875 -0.179688 0.191406 -0.140625 0.203125 -0.109375 C 0.222656 -0.0859375 0.253906 -0.078125 0.296875 -0.078125 C 0.335938 -0.078125 0.367188 -0.0976562 0.390625 -0.140625 L 0.5 -0.140625 C 0.457031 -0.0351562 0.382812 0.015625 0.28125 0.015625 Z M 0.28125 -0.4375 C 0.25 -0.4375 0.222656 -0.425781 0.203125 -0.40625 C 0.191406 -0.394531 0.1875 -0.367188 0.1875 -0.328125 L 0.390625 -0.328125 C 0.390625 -0.367188 0.378906 -0.394531 0.359375 -0.40625 C 0.335938 -0.425781 0.3125 -0.4375 0.28125 -0.4375 Z M 0.28125 -0.4375 "/></g></g><g transform="translate(9.842986, 22.108696)"><g><path d="M 0.0625 0 L 0.0625 -0.703125 L 0.203125 -0.703125 L 0.203125 0 Z M 0.0625 0 "/></g></g><g transform="translate(10.11551, 22.108696)"><g><path d="M 0.0625 0 L 0.0625 -0.703125 L 0.203125 -0.703125 L 0.203125 0 Z M 0.0625 0 "/></g></g><g transform="translate(10.388034, 22.108696)"><g><path d="M 0.0625 -0.609375 L 0.0625 -0.703125 L 0.203125 -0.703125 L 0.203125 -0.609375 Z M 0.0625 0 L 0.0625 -0.515625 L 0.203125 -0.515625 L 0.203125 0 Z M 0.0625 0 "/></g></g><g transform="translate(10.660558, 22.108696)"><g><path d="M 0.296875 0.21875 C 0.222656 0.21875 0.164062 0.203125 0.125 0.171875 C 0.09375 0.148438 0.0703125 0.113281 0.0625 0.0625 L 0.203125 0.046875 C 0.203125 0.0664062 0.207031 0.0820312 0.21875 0.09375 C 0.238281 0.113281 0.265625 0.125 0.296875 0.125 C 0.335938 0.125 0.363281 0.109375 0.375 0.078125 C 0.394531 0.0546875 0.40625 0.0234375 0.40625 -0.015625 L 0.40625 -0.09375 C 0.375 -0.03125 0.316406 0 0.234375 0 C 0.171875 0 0.125 -0.0195312 0.09375 -0.0625 C 0.0625 -0.113281 0.046875 -0.179688 0.046875 -0.265625 C 0.046875 -0.347656 0.0625 -0.410156 0.09375 -0.453125 C 0.125 -0.492188 0.175781 -0.515625 0.25 -0.515625 C 0.320312 -0.515625 0.375 -0.484375 0.40625 -0.421875 C 0.40625 -0.429688 0.40625 -0.445312 0.40625 -0.46875 C 0.40625 -0.488281 0.40625 -0.503906 0.40625 -0.515625 L 0.53125 -0.515625 C 0.53125 -0.472656 0.53125 -0.4375 0.53125 -0.40625 L 0.53125 -0.015625 C 0.53125 0.0546875 0.507812 0.113281 0.46875 0.15625 C 0.425781 0.195312 0.367188 0.21875 0.296875 0.21875 Z M 0.40625 -0.265625 C 0.40625 -0.328125 0.394531 -0.367188 0.375 -0.390625 C 0.351562 -0.410156 0.328125 -0.421875 0.296875 -0.421875 C 0.222656 -0.421875 0.1875 -0.367188 0.1875 -0.265625 C 0.1875 -0.148438 0.222656 -0.09375 0.296875 -0.09375 C 0.328125 -0.09375 0.351562 -0.109375 0.375 -0.140625 C 0.394531 -0.171875 0.40625 -0.210938 0.40625 -0.265625 Z M 0.40625 -0.265625 "/></g></g><g transform="translate(11.259728, 22.108696)"><g><path d="M 0.28125 0.015625 C 0.207031 0.015625 0.148438 -0.00390625 0.109375 -0.046875 C 0.0664062 -0.0976562 0.046875 -0.171875 0.046875 -0.265625 C 0.046875 -0.347656 0.0664062 -0.410156 0.109375 -0.453125 C 0.148438 -0.492188 0.207031 -0.515625 0.28125 -0.515625 C 0.363281 -0.515625 0.421875 -0.492188 0.453125 -0.453125 C 0.484375 -0.410156 0.5 -0.335938 0.5 -0.234375 L 0.1875 -0.234375 C 0.1875 -0.179688 0.191406 -0.140625 0.203125 -0.109375 C 0.222656 -0.0859375 0.253906 -0.078125 0.296875 -0.078125 C 0.335938 -0.078125 0.367188 -0.0976562 0.390625 -0.140625 L 0.5 -0.140625 C 0.457031 -0.0351562 0.382812 0.015625 0.28125 0.015625 Z M 0.28125 -0.4375 C 0.25 -0.4375 0.222656 -0.425781 0.203125 -0.40625 C 0.191406 -0.394531 0.1875 -0.367188 0.1875 -0.328125 L 0.390625 -0.328125 C 0.390625 -0.367188 0.378906 -0.394531 0.359375 -0.40625 C 0.335938 -0.425781 0.3125 -0.4375 0.28125 -0.4375 Z M 0.28125 -0.4375 "/></g></g><g transform="translate(11.805255, 22.108696)"><g><path d="M 0.40625 0 L 0.40625 -0.296875 C 0.40625 -0.378906 0.375 -0.421875 0.3125 -0.421875 C 0.28125 -0.421875 0.253906 -0.40625 0.234375 -0.375 C 0.210938 -0.351562 0.203125 -0.320312 0.203125 -0.28125 L 0.203125 0 L 0.0625 0 L 0.0625 -0.40625 C 0.0625 -0.425781 0.0625 -0.441406 0.0625 -0.453125 C 0.0625 -0.472656 0.0625 -0.492188 0.0625 -0.515625 L 0.203125 -0.515625 C 0.203125 -0.503906 0.203125 -0.484375 0.203125 -0.453125 C 0.203125 -0.429688 0.203125 -0.414062 0.203125 -0.40625 C 0.222656 -0.445312 0.242188 -0.472656 0.265625 -0.484375 C 0.296875 -0.503906 0.332031 -0.515625 0.375 -0.515625 C 0.414062 -0.515625 0.453125 -0.5 0.484375 -0.46875 C 0.515625 -0.4375 0.53125 -0.390625 0.53125 -0.328125 L 0.53125 0 Z M 0.40625 0 "/></g></g><g transform="translate(12.404425, 22.108696)"><g><path d="M 0.296875 0.015625 C 0.210938 0.015625 0.148438 -0.0078125 0.109375 -0.0625 C 0.0664062 -0.113281 0.046875 -0.179688 0.046875 -0.265625 C 0.046875 -0.347656 0.0664062 -0.410156 0.109375 -0.453125 C 0.148438 -0.492188 0.210938 -0.515625 0.296875 -0.515625 C 0.359375 -0.515625 0.40625 -0.5 0.4375 -0.46875 C 0.46875 -0.4375 0.488281 -0.398438 0.5 -0.359375 L 0.390625 -0.359375 C 0.378906 -0.378906 0.363281 -0.394531 0.34375 -0.40625 C 0.332031 -0.414062 0.316406 -0.421875 0.296875 -0.421875 C 0.222656 -0.421875 0.1875 -0.367188 0.1875 -0.265625 C 0.1875 -0.140625 0.222656 -0.078125 0.296875 -0.078125 C 0.316406 -0.078125 0.335938 -0.0859375 0.359375 -0.109375 C 0.378906 -0.128906 0.390625 -0.15625 0.390625 -0.1875 L 0.515625 -0.171875 C 0.503906 -0.140625 0.488281 -0.109375 0.46875 -0.078125 C 0.445312 -0.046875 0.421875 -0.0195312 0.390625 0 C 0.367188 0.0078125 0.335938 0.015625 0.296875 0.015625 Z M 0.296875 0.015625 "/></g></g><g transform="translate(12.949952, 22.108696)"><g><path d="M 0.28125 0.015625 C 0.207031 0.015625 0.148438 -0.00390625 0.109375 -0.046875 C 0.0664062 -0.0976562 0.046875 -0.171875 0.046875 -0.265625 C 0.046875 -0.347656 0.0664062 -0.410156 0.109375 -0.453125 C 0.148438 -0.492188 0.207031 -0.515625 0.28125 -0.515625 C 0.363281 -0.515625 0.421875 -0.492188 0.453125 -0.453125 C 0.484375 -0.410156 0.5 -0.335938 0.5 -0.234375 L 0.1875 -0.234375 C 0.1875 -0.179688 0.191406 -0.140625 0.203125 -0.109375 C 0.222656 -0.0859375 0.253906 -0.078125 0.296875 -0.078125 C 0.335938 -0.078125 0.367188 -0.0976562 0.390625 -0.140625 L 0.5 -0.140625 C 0.457031 -0.0351562 0.382812 0.015625 0.28125 0.015625 Z M 0.28125 -0.4375 C 0.25 -0.4375 0.222656 -0.425781 0.203125 -0.40625 C 0.191406 -0.394531 0.1875 -0.367188 0.1875 -0.328125 L 0.390625 -0.328125 C 0.390625 -0.367188 0.378906 -0.394531 0.359375 -0.40625 C 0.335938 -0.425781 0.3125 -0.4375 0.28125 -0.4375 Z M 0.28125 -0.4375 "/></g></g></g><g fill="#ffffff" fill-opacity="1"><g transform="translate(4.502186, 23.089591)"><g><path d="M 0.625 0 L 0.625 -0.40625 C 0.625 -0.414062 0.625 -0.421875 0.625 -0.421875 C 0.625 -0.429688 0.625 -0.472656 0.625 -0.546875 C 0.601562 -0.460938 0.585938 -0.410156 0.578125 -0.390625 L 0.453125 0 L 0.359375 0 L 0.234375 -0.390625 L 0.1875 -0.546875 C 0.1875 -0.472656 0.1875 -0.425781 0.1875 -0.40625 L 0.1875 0 L 0.0625 0 L 0.0625 -0.671875 L 0.265625 -0.671875 L 0.390625 -0.296875 L 0.390625 -0.265625 L 0.40625 -0.171875 L 0.4375 -0.28125 L 0.5625 -0.671875 L 0.75 -0.671875 L 0.75 0 Z M 0.625 0 "/></g></g><g transform="translate(5.319279, 23.089591)"><g><path d="M 0.28125 0.015625 C 0.207031 0.015625 0.148438 -0.00390625 0.109375 -0.046875 C 0.0664062 -0.0976562 0.046875 -0.171875 0.046875 -0.265625 C 0.046875 -0.347656 0.0664062 -0.410156 0.109375 -0.453125 C 0.148438 -0.492188 0.207031 -0.515625 0.28125 -0.515625 C 0.363281 -0.515625 0.421875 -0.492188 0.453125 -0.453125 C 0.484375 -0.410156 0.5 -0.335938 0.5 -0.234375 L 0.1875 -0.234375 C 0.1875 -0.179688 0.191406 -0.140625 0.203125 -0.109375 C 0.222656 -0.0859375 0.253906 -0.078125 0.296875 -0.078125 C 0.335938 -0.078125 0.367188 -0.0976562 0.390625 -0.140625 L 0.5 -0.140625 C 0.457031 -0.0351562 0.382812 0.015625 0.28125 0.015625 Z M 0.28125 -0.4375 C 0.25 -0.4375 0.222656 -0.425781 0.203125 -0.40625 C 0.191406 -0.394531 0.1875 -0.367188 0.1875 -0.328125 L 0.390625 -0.328125 C 0.390625 -0.367188 0.378906 -0.394531 0.359375 -0.40625 C 0.335938 -0.425781 0.3125 -0.4375 0.28125 -0.4375 Z M 0.28125 -0.4375 "/></g></g><g transform="translate(5.864806, 23.089591)"><g><path d="M 0.28125 0.015625 C 0.207031 0.015625 0.148438 -0.00390625 0.109375 -0.046875 C 0.0664062 -0.0976562 0.046875 -0.171875 0.046875 -0.265625 C 0.046875 -0.347656 0.0664062 -0.410156 0.109375 -0.453125 C 0.148438 -0.492188 0.207031 -0.515625 0.28125 -0.515625 C 0.363281 -0.515625 0.421875 -0.492188 0.453125 -0.453125 C 0.484375 -0.410156 0.5 -0.335938 0.5 -0.234375 L 0.1875 -0.234375 C 0.1875 -0.179688 0.191406 -0.140625 0.203125 -0.109375 C 0.222656 -0.0859375 0.253906 -0.078125 0.296875 -0.078125 C 0.335938 -0.078125 0.367188 -0.0976562 0.390625 -0.140625 L 0.5 -0.140625 C 0.457031 -0.0351562 0.382812 0.015625 0.28125 0.015625 Z M 0.28125 -0.4375 C 0.25 -0.4375 0.222656 -0.425781 0.203125 -0.40625 C 0.191406 -0.394531 0.1875 -0.367188 0.1875 -0.328125 L 0.390625 -0.328125 C 0.390625 -0.367188 0.378906 -0.394531 0.359375 -0.40625 C 0.335938 -0.425781 0.3125 -0.4375 0.28125 -0.4375 Z M 0.28125 -0.4375 "/></g></g><g transform="translate(6.410333, 23.089591)"><g><path d="M 0.203125 0.015625 C 0.160156 0.015625 0.128906 0.00390625 0.109375 -0.015625 C 0.0859375 -0.046875 0.078125 -0.0820312 0.078125 -0.125 L 0.078125 -0.421875 L 0.015625 -0.421875 L 0.015625 -0.515625 L 0.09375 -0.515625 L 0.125 -0.640625 L 0.21875 -0.640625 L 0.21875 -0.515625 L 0.3125 -0.515625 L 0.3125 -0.421875 L 0.21875 -0.421875 L 0.21875 -0.15625 C 0.21875 -0.132812 0.222656 -0.117188 0.234375 -0.109375 C 0.242188 -0.0976562 0.257812 -0.09375 0.28125 -0.09375 C 0.289062 -0.09375 0.304688 -0.09375 0.328125 -0.09375 L 0.328125 -0.015625 C 0.285156 0.00390625 0.242188 0.015625 0.203125 0.015625 Z M 0.203125 0.015625 "/></g></g><g transform="translate(6.736979, 23.089591)"><g><path d="M 0.5 -0.15625 C 0.5 -0.101562 0.476562 -0.0625 0.4375 -0.03125 C 0.40625 0 0.351562 0.015625 0.28125 0.015625 C 0.207031 0.015625 0.148438 0.00390625 0.109375 -0.015625 C 0.0664062 -0.046875 0.0390625 -0.0820312 0.03125 -0.125 L 0.15625 -0.15625 C 0.164062 -0.125 0.175781 -0.101562 0.1875 -0.09375 C 0.207031 -0.0820312 0.238281 -0.078125 0.28125 -0.078125 C 0.320312 -0.078125 0.347656 -0.0820312 0.359375 -0.09375 C 0.378906 -0.101562 0.390625 -0.117188 0.390625 -0.140625 C 0.390625 -0.160156 0.378906 -0.175781 0.359375 -0.1875 C 0.347656 -0.195312 0.328125 -0.203125 0.296875 -0.203125 C 0.222656 -0.222656 0.171875 -0.238281 0.140625 -0.25 C 0.109375 -0.257812 0.0859375 -0.273438 0.078125 -0.296875 C 0.0664062 -0.316406 0.0625 -0.34375 0.0625 -0.375 C 0.0625 -0.414062 0.078125 -0.445312 0.109375 -0.46875 C 0.148438 -0.5 0.207031 -0.515625 0.28125 -0.515625 C 0.34375 -0.515625 0.390625 -0.503906 0.421875 -0.484375 C 0.453125 -0.460938 0.472656 -0.429688 0.484375 -0.390625 L 0.375 -0.390625 C 0.375 -0.398438 0.363281 -0.410156 0.34375 -0.421875 C 0.332031 -0.429688 0.3125 -0.4375 0.28125 -0.4375 C 0.25 -0.4375 0.222656 -0.429688 0.203125 -0.421875 C 0.191406 -0.410156 0.1875 -0.398438 0.1875 -0.390625 C 0.1875 -0.378906 0.191406 -0.367188 0.203125 -0.359375 C 0.210938 -0.347656 0.234375 -0.335938 0.265625 -0.328125 C 0.304688 -0.328125 0.335938 -0.320312 0.359375 -0.3125 C 0.390625 -0.300781 0.414062 -0.289062 0.4375 -0.28125 C 0.457031 -0.269531 0.472656 -0.253906 0.484375 -0.234375 C 0.492188 -0.210938 0.5 -0.1875 0.5 -0.15625 Z M 0.5 -0.15625 "/></g></g><g transform="translate(7.282506, 23.089591)"><g/></g><g transform="translate(7.55503, 23.089591)"><g><path d="M 0.53125 0 L 0.484375 -0.171875 L 0.234375 -0.171875 L 0.171875 0 L 0.03125 0 L 0.28125 -0.671875 L 0.4375 -0.671875 L 0.6875 0 Z M 0.359375 -0.5625 C 0.359375 -0.539062 0.351562 -0.523438 0.34375 -0.515625 C 0.34375 -0.503906 0.316406 -0.425781 0.265625 -0.28125 L 0.4375 -0.28125 L 0.375 -0.53125 Z M 0.359375 -0.5625 "/></g></g><g transform="translate(8.263401, 23.089591)"><g><path d="M 0.0625 0 L 0.0625 -0.40625 C 0.0625 -0.425781 0.0625 -0.441406 0.0625 -0.453125 C 0.0625 -0.472656 0.0625 -0.492188 0.0625 -0.515625 L 0.203125 -0.515625 C 0.203125 -0.503906 0.203125 -0.484375 0.203125 -0.453125 C 0.203125 -0.429688 0.203125 -0.414062 0.203125 -0.40625 C 0.210938 -0.4375 0.222656 -0.457031 0.234375 -0.46875 C 0.242188 -0.488281 0.253906 -0.5 0.265625 -0.5 C 0.285156 -0.507812 0.304688 -0.515625 0.328125 -0.515625 C 0.347656 -0.515625 0.363281 -0.515625 0.375 -0.515625 L 0.375 -0.40625 C 0.351562 -0.40625 0.332031 -0.40625 0.3125 -0.40625 C 0.28125 -0.40625 0.253906 -0.394531 0.234375 -0.375 C 0.210938 -0.351562 0.203125 -0.316406 0.203125 -0.265625 L 0.203125 0 Z M 0.0625 0 "/></g></g><g transform="translate(8.645126, 23.089591)"><g><path d="M 0.203125 0.015625 C 0.160156 0.015625 0.128906 0.00390625 0.109375 -0.015625 C 0.0859375 -0.046875 0.078125 -0.0820312 0.078125 -0.125 L 0.078125 -0.421875 L 0.015625 -0.421875 L 0.015625 -0.515625 L 0.09375 -0.515625 L 0.125 -0.640625 L 0.21875 -0.640625 L 0.21875 -0.515625 L 0.3125 -0.515625 L 0.3125 -0.421875 L 0.21875 -0.421875 L 0.21875 -0.15625 C 0.21875 -0.132812 0.222656 -0.117188 0.234375 -0.109375 C 0.242188 -0.0976562 0.257812 -0.09375 0.28125 -0.09375 C 0.289062 -0.09375 0.304688 -0.09375 0.328125 -0.09375 L 0.328125 -0.015625 C 0.285156 0.00390625 0.242188 0.015625 0.203125 0.015625 Z M 0.203125 0.015625 "/></g></g><g transform="translate(8.971772, 23.089591)"><g><path d="M 0.0625 -0.609375 L 0.0625 -0.703125 L 0.203125 -0.703125 L 0.203125 -0.609375 Z M 0.0625 0 L 0.0625 -0.515625 L 0.203125 -0.515625 L 0.203125 0 Z M 0.0625 0 "/></g></g><g transform="translate(9.244296, 23.089591)"><g><path d="M 0.234375 -0.421875 L 0.234375 0 L 0.09375 0 L 0.09375 -0.421875 L 0.015625 -0.421875 L 0.015625 -0.515625 L 0.09375 -0.515625 L 0.09375 -0.5625 C 0.09375 -0.613281 0.101562 -0.648438 0.125 -0.671875 C 0.15625 -0.691406 0.195312 -0.703125 0.25 -0.703125 C 0.269531 -0.703125 0.296875 -0.703125 0.328125 -0.703125 L 0.328125 -0.609375 C 0.316406 -0.617188 0.304688 -0.625 0.296875 -0.625 C 0.273438 -0.625 0.257812 -0.617188 0.25 -0.609375 C 0.238281 -0.597656 0.234375 -0.578125 0.234375 -0.546875 L 0.234375 -0.515625 L 0.328125 -0.515625 L 0.328125 -0.421875 Z M 0.234375 -0.421875 "/></g></g><g transform="translate(9.570941, 23.089591)"><g><path d="M 0.0625 -0.609375 L 0.0625 -0.703125 L 0.203125 -0.703125 L 0.203125 -0.609375 Z M 0.0625 0 L 0.0625 -0.515625 L 0.203125 -0.515625 L 0.203125 0 Z M 0.0625 0 "/></g></g><g transform="translate(9.843465, 23.089591)"><g><path d="M 0.296875 0.015625 C 0.210938 0.015625 0.148438 -0.0078125 0.109375 -0.0625 C 0.0664062 -0.113281 0.046875 -0.179688 0.046875 -0.265625 C 0.046875 -0.347656 0.0664062 -0.410156 0.109375 -0.453125 C 0.148438 -0.492188 0.210938 -0.515625 0.296875 -0.515625 C 0.359375 -0.515625 0.40625 -0.5 0.4375 -0.46875 C 0.46875 -0.4375 0.488281 -0.398438 0.5 -0.359375 L 0.390625 -0.359375 C 0.378906 -0.378906 0.363281 -0.394531 0.34375 -0.40625 C 0.332031 -0.414062 0.316406 -0.421875 0.296875 -0.421875 C 0.222656 -0.421875 0.1875 -0.367188 0.1875 -0.265625 C 0.1875 -0.140625 0.222656 -0.078125 0.296875 -0.078125 C 0.316406 -0.078125 0.335938 -0.0859375 0.359375 -0.109375 C 0.378906 -0.128906 0.390625 -0.15625 0.390625 -0.1875 L 0.515625 -0.171875 C 0.503906 -0.140625 0.488281 -0.109375 0.46875 -0.078125 C 0.445312 -0.046875 0.421875 -0.0195312 0.390625 0 C 0.367188 0.0078125 0.335938 0.015625 0.296875 0.015625 Z M 0.296875 0.015625 "/></g></g><g transform="translate(10.388992, 23.089591)"><g><path d="M 0.0625 -0.609375 L 0.0625 -0.703125 L 0.203125 -0.703125 L 0.203125 -0.609375 Z M 0.0625 0 L 0.0625 -0.515625 L 0.203125 -0.515625 L 0.203125 0 Z M 0.0625 0 "/></g></g><g transform="translate(10.661516, 23.089591)"><g><path d="M 0.1875 0.015625 C 0.132812 0.015625 0.09375 0 0.0625 -0.03125 C 0.0390625 -0.0625 0.03125 -0.101562 0.03125 -0.15625 C 0.03125 -0.207031 0.046875 -0.242188 0.078125 -0.265625 C 0.117188 -0.296875 0.171875 -0.3125 0.234375 -0.3125 L 0.359375 -0.328125 L 0.359375 -0.34375 C 0.359375 -0.382812 0.347656 -0.410156 0.328125 -0.421875 C 0.316406 -0.429688 0.300781 -0.4375 0.28125 -0.4375 C 0.25 -0.4375 0.226562 -0.429688 0.21875 -0.421875 C 0.207031 -0.410156 0.203125 -0.394531 0.203125 -0.375 L 0.046875 -0.375 C 0.0546875 -0.414062 0.0820312 -0.445312 0.125 -0.46875 C 0.164062 -0.5 0.21875 -0.515625 0.28125 -0.515625 C 0.34375 -0.515625 0.390625 -0.5 0.421875 -0.46875 C 0.453125 -0.4375 0.46875 -0.394531 0.46875 -0.34375 L 0.46875 -0.15625 C 0.46875 -0.125 0.472656 -0.101562 0.484375 -0.09375 C 0.492188 -0.0820312 0.503906 -0.078125 0.515625 -0.078125 C 0.523438 -0.078125 0.535156 -0.078125 0.546875 -0.078125 L 0.546875 0 C 0.535156 0 0.523438 0 0.515625 0 C 0.515625 0 0.507812 0 0.5 0 C 0.5 0 0.492188 0 0.484375 0 C 0.472656 0 0.460938 0 0.453125 0 C 0.421875 0 0.398438 -0.00390625 0.390625 -0.015625 C 0.378906 -0.0351562 0.375 -0.0625 0.375 -0.09375 L 0.359375 -0.09375 C 0.328125 -0.0195312 0.269531 0.015625 0.1875 0.015625 Z M 0.359375 -0.25 L 0.28125 -0.25 C 0.25 -0.238281 0.222656 -0.226562 0.203125 -0.21875 C 0.191406 -0.21875 0.179688 -0.210938 0.171875 -0.203125 C 0.171875 -0.191406 0.171875 -0.175781 0.171875 -0.15625 C 0.171875 -0.132812 0.175781 -0.117188 0.1875 -0.109375 C 0.195312 -0.0976562 0.210938 -0.09375 0.234375 -0.09375 C 0.253906 -0.09375 0.273438 -0.0976562 0.296875 -0.109375 C 0.316406 -0.117188 0.332031 -0.132812 0.34375 -0.15625 C 0.351562 -0.175781 0.359375 -0.195312 0.359375 -0.21875 Z M 0.359375 -0.25 "/></g></g><g transform="translate(11.207043, 23.089591)"><g><path d="M 0.0625 0 L 0.0625 -0.703125 L 0.203125 -0.703125 L 0.203125 0 Z M 0.0625 0 "/></g></g></g><g fill="#ffffff" fill-opacity="1"><g transform="translate(4.502186, 24.070486)"><g><path d="M 0.0625 0 L 0.0625 -0.671875 L 0.21875 -0.671875 L 0.21875 -0.109375 L 0.5625 -0.109375 L 0.5625 0 Z M 0.0625 0 "/></g></g><g transform="translate(5.101356, 24.070486)"><g><path d="M 0.28125 0.015625 C 0.207031 0.015625 0.148438 -0.00390625 0.109375 -0.046875 C 0.0664062 -0.0976562 0.046875 -0.171875 0.046875 -0.265625 C 0.046875 -0.347656 0.0664062 -0.410156 0.109375 -0.453125 C 0.148438 -0.492188 0.207031 -0.515625 0.28125 -0.515625 C 0.363281 -0.515625 0.421875 -0.492188 0.453125 -0.453125 C 0.484375 -0.410156 0.5 -0.335938 0.5 -0.234375 L 0.1875 -0.234375 C 0.1875 -0.179688 0.191406 -0.140625 0.203125 -0.109375 C 0.222656 -0.0859375 0.253906 -0.078125 0.296875 -0.078125 C 0.335938 -0.078125 0.367188 -0.0976562 0.390625 -0.140625 L 0.5 -0.140625 C 0.457031 -0.0351562 0.382812 0.015625 0.28125 0.015625 Z M 0.28125 -0.4375 C 0.25 -0.4375 0.222656 -0.425781 0.203125 -0.40625 C 0.191406 -0.394531 0.1875 -0.367188 0.1875 -0.328125 L 0.390625 -0.328125 C 0.390625 -0.367188 0.378906 -0.394531 0.359375 -0.40625 C 0.335938 -0.425781 0.3125 -0.4375 0.28125 -0.4375 Z M 0.28125 -0.4375 "/></g></g><g transform="translate(5.646883, 24.070486)"><g><path d="M 0.1875 0.015625 C 0.132812 0.015625 0.09375 0 0.0625 -0.03125 C 0.0390625 -0.0625 0.03125 -0.101562 0.03125 -0.15625 C 0.03125 -0.207031 0.046875 -0.242188 0.078125 -0.265625 C 0.117188 -0.296875 0.171875 -0.3125 0.234375 -0.3125 L 0.359375 -0.328125 L 0.359375 -0.34375 C 0.359375 -0.382812 0.347656 -0.410156 0.328125 -0.421875 C 0.316406 -0.429688 0.300781 -0.4375 0.28125 -0.4375 C 0.25 -0.4375 0.226562 -0.429688 0.21875 -0.421875 C 0.207031 -0.410156 0.203125 -0.394531 0.203125 -0.375 L 0.046875 -0.375 C 0.0546875 -0.414062 0.0820312 -0.445312 0.125 -0.46875 C 0.164062 -0.5 0.21875 -0.515625 0.28125 -0.515625 C 0.34375 -0.515625 0.390625 -0.5 0.421875 -0.46875 C 0.453125 -0.4375 0.46875 -0.394531 0.46875 -0.34375 L 0.46875 -0.15625 C 0.46875 -0.125 0.472656 -0.101562 0.484375 -0.09375 C 0.492188 -0.0820312 0.503906 -0.078125 0.515625 -0.078125 C 0.523438 -0.078125 0.535156 -0.078125 0.546875 -0.078125 L 0.546875 0 C 0.535156 0 0.523438 0 0.515625 0 C 0.515625 0 0.507812 0 0.5 0 C 0.5 0 0.492188 0 0.484375 0 C 0.472656 0 0.460938 0 0.453125 0 C 0.421875 0 0.398438 -0.00390625 0.390625 -0.015625 C 0.378906 -0.0351562 0.375 -0.0625 0.375 -0.09375 L 0.359375 -0.09375 C 0.328125 -0.0195312 0.269531 0.015625 0.1875 0.015625 Z M 0.359375 -0.25 L 0.28125 -0.25 C 0.25 -0.238281 0.222656 -0.226562 0.203125 -0.21875 C 0.191406 -0.21875 0.179688 -0.210938 0.171875 -0.203125 C 0.171875 -0.191406 0.171875 -0.175781 0.171875 -0.15625 C 0.171875 -0.132812 0.175781 -0.117188 0.1875 -0.109375 C 0.195312 -0.0976562 0.210938 -0.09375 0.234375 -0.09375 C 0.253906 -0.09375 0.273438 -0.0976562 0.296875 -0.109375 C 0.316406 -0.117188 0.332031 -0.132812 0.34375 -0.15625 C 0.351562 -0.175781 0.359375 -0.195312 0.359375 -0.21875 Z M 0.359375 -0.25 "/></g></g><g transform="translate(6.19241, 24.070486)"><g><path d="M 0.0625 0 L 0.0625 -0.40625 C 0.0625 -0.425781 0.0625 -0.441406 0.0625 -0.453125 C 0.0625 -0.472656 0.0625 -0.492188 0.0625 -0.515625 L 0.203125 -0.515625 C 0.203125 -0.503906 0.203125 -0.484375 0.203125 -0.453125 C 0.203125 -0.429688 0.203125 -0.414062 0.203125 -0.40625 C 0.210938 -0.4375 0.222656 -0.457031 0.234375 -0.46875 C 0.242188 -0.488281 0.253906 -0.5 0.265625 -0.5 C 0.285156 -0.507812 0.304688 -0.515625 0.328125 -0.515625 C 0.347656 -0.515625 0.363281 -0.515625 0.375 -0.515625 L 0.375 -0.40625 C 0.351562 -0.40625 0.332031 -0.40625 0.3125 -0.40625 C 0.28125 -0.40625 0.253906 -0.394531 0.234375 -0.375 C 0.210938 -0.351562 0.203125 -0.316406 0.203125 -0.265625 L 0.203125 0 Z M 0.0625 0 "/></g></g><g transform="translate(6.574135, 24.070486)"><g><path d="M 0.40625 0 L 0.40625 -0.296875 C 0.40625 -0.378906 0.375 -0.421875 0.3125 -0.421875 C 0.28125 -0.421875 0.253906 -0.40625 0.234375 -0.375 C 0.210938 -0.351562 0.203125 -0.320312 0.203125 -0.28125 L 0.203125 0 L 0.0625 0 L 0.0625 -0.40625 C 0.0625 -0.425781 0.0625 -0.441406 0.0625 -0.453125 C 0.0625 -0.472656 0.0625 -0.492188 0.0625 -0.515625 L 0.203125 -0.515625 C 0.203125 -0.503906 0.203125 -0.484375 0.203125 -0.453125 C 0.203125 -0.429688 0.203125 -0.414062 0.203125 -0.40625 C 0.222656 -0.445312 0.242188 -0.472656 0.265625 -0.484375 C 0.296875 -0.503906 0.332031 -0.515625 0.375 -0.515625 C 0.414062 -0.515625 0.453125 -0.5 0.484375 -0.46875 C 0.515625 -0.4375 0.53125 -0.390625 0.53125 -0.328125 L 0.53125 0 Z M 0.40625 0 "/></g></g><g transform="translate(7.173305, 24.070486)"><g><path d="M 0.0625 -0.609375 L 0.0625 -0.703125 L 0.203125 -0.703125 L 0.203125 -0.609375 Z M 0.0625 0 L 0.0625 -0.515625 L 0.203125 -0.515625 L 0.203125 0 Z M 0.0625 0 "/></g></g><g transform="translate(7.445829, 24.070486)"><g><path d="M 0.40625 0 L 0.40625 -0.296875 C 0.40625 -0.378906 0.375 -0.421875 0.3125 -0.421875 C 0.28125 -0.421875 0.253906 -0.40625 0.234375 -0.375 C 0.210938 -0.351562 0.203125 -0.320312 0.203125 -0.28125 L 0.203125 0 L 0.0625 0 L 0.0625 -0.40625 C 0.0625 -0.425781 0.0625 -0.441406 0.0625 -0.453125 C 0.0625 -0.472656 0.0625 -0.492188 0.0625 -0.515625 L 0.203125 -0.515625 C 0.203125 -0.503906 0.203125 -0.484375 0.203125 -0.453125 C 0.203125 -0.429688 0.203125 -0.414062 0.203125 -0.40625 C 0.222656 -0.445312 0.242188 -0.472656 0.265625 -0.484375 C 0.296875 -0.503906 0.332031 -0.515625 0.375 -0.515625 C 0.414062 -0.515625 0.453125 -0.5 0.484375 -0.46875 C 0.515625 -0.4375 0.53125 -0.390625 0.53125 -0.328125 L 0.53125 0 Z M 0.40625 0 "/></g></g><g transform="translate(8.044998, 24.070486)"><g><path d="M 0.296875 0.21875 C 0.222656 0.21875 0.164062 0.203125 0.125 0.171875 C 0.09375 0.148438 0.0703125 0.113281 0.0625 0.0625 L 0.203125 0.046875 C 0.203125 0.0664062 0.207031 0.0820312 0.21875 0.09375 C 0.238281 0.113281 0.265625 0.125 0.296875 0.125 C 0.335938 0.125 0.363281 0.109375 0.375 0.078125 C 0.394531 0.0546875 0.40625 0.0234375 0.40625 -0.015625 L 0.40625 -0.09375 C 0.375 -0.03125 0.316406 0 0.234375 0 C 0.171875 0 0.125 -0.0195312 0.09375 -0.0625 C 0.0625 -0.113281 0.046875 -0.179688 0.046875 -0.265625 C 0.046875 -0.347656 0.0625 -0.410156 0.09375 -0.453125 C 0.125 -0.492188 0.175781 -0.515625 0.25 -0.515625 C 0.320312 -0.515625 0.375 -0.484375 0.40625 -0.421875 C 0.40625 -0.429688 0.40625 -0.445312 0.40625 -0.46875 C 0.40625 -0.488281 0.40625 -0.503906 0.40625 -0.515625 L 0.53125 -0.515625 C 0.53125 -0.472656 0.53125 -0.4375 0.53125 -0.40625 L 0.53125 -0.015625 C 0.53125 0.0546875 0.507812 0.113281 0.46875 0.15625 C 0.425781 0.195312 0.367188 0.21875 0.296875 0.21875 Z M 0.40625 -0.265625 C 0.40625 -0.328125 0.394531 -0.367188 0.375 -0.390625 C 0.351562 -0.410156 0.328125 -0.421875 0.296875 -0.421875 C 0.222656 -0.421875 0.1875 -0.367188 0.1875 -0.265625 C 0.1875 -0.148438 0.222656 -0.09375 0.296875 -0.09375 C 0.328125 -0.09375 0.351562 -0.109375 0.375 -0.140625 C 0.394531 -0.171875 0.40625 -0.210938 0.40625 -0.265625 Z M 0.40625 -0.265625 "/></g></g><g transform="translate(8.644168, 24.070486)"><g/></g><g transform="translate(8.916692, 24.070486)"><g><path d="M 0.0625 -0.609375 L 0.0625 -0.703125 L 0.203125 -0.703125 L 0.203125 -0.609375 Z M 0.0625 0 L 0.0625 -0.515625 L 0.203125 -0.515625 L 0.203125 0 Z M 0.0625 0 "/></g></g><g transform="translate(9.189216, 24.070486)"><g><path d="M 0.40625 0 L 0.40625 -0.296875 C 0.40625 -0.378906 0.375 -0.421875 0.3125 -0.421875 C 0.28125 -0.421875 0.253906 -0.40625 0.234375 -0.375 C 0.210938 -0.351562 0.203125 -0.320312 0.203125 -0.28125 L 0.203125 0 L 0.0625 0 L 0.0625 -0.40625 C 0.0625 -0.425781 0.0625 -0.441406 0.0625 -0.453125 C 0.0625 -0.472656 0.0625 -0.492188 0.0625 -0.515625 L 0.203125 -0.515625 C 0.203125 -0.503906 0.203125 -0.484375 0.203125 -0.453125 C 0.203125 -0.429688 0.203125 -0.414062 0.203125 -0.40625 C 0.222656 -0.445312 0.242188 -0.472656 0.265625 -0.484375 C 0.296875 -0.503906 0.332031 -0.515625 0.375 -0.515625 C 0.414062 -0.515625 0.453125 -0.5 0.484375 -0.46875 C 0.515625 -0.4375 0.53125 -0.390625 0.53125 -0.328125 L 0.53125 0 Z M 0.40625 0 "/></g></g><g transform="translate(9.788386, 24.070486)"><g><path d="M 0.203125 0.015625 C 0.160156 0.015625 0.128906 0.00390625 0.109375 -0.015625 C 0.0859375 -0.046875 0.078125 -0.0820312 0.078125 -0.125 L 0.078125 -0.421875 L 0.015625 -0.421875 L 0.015625 -0.515625 L 0.09375 -0.515625 L 0.125 -0.640625 L 0.21875 -0.640625 L 0.21875 -0.515625 L 0.3125 -0.515625 L 0.3125 -0.421875 L 0.21875 -0.421875 L 0.21875 -0.15625 C 0.21875 -0.132812 0.222656 -0.117188 0.234375 -0.109375 C 0.242188 -0.0976562 0.257812 -0.09375 0.28125 -0.09375 C 0.289062 -0.09375 0.304688 -0.09375 0.328125 -0.09375 L 0.328125 -0.015625 C 0.285156 0.00390625 0.242188 0.015625 0.203125 0.015625 Z M 0.203125 0.015625 "/></g></g><g transform="translate(10.115031, 24.070486)"><g><path d="M 0.28125 0.015625 C 0.207031 0.015625 0.148438 -0.00390625 0.109375 -0.046875 C 0.0664062 -0.0976562 0.046875 -0.171875 0.046875 -0.265625 C 0.046875 -0.347656 0.0664062 -0.410156 0.109375 -0.453125 C 0.148438 -0.492188 0.207031 -0.515625 0.28125 -0.515625 C 0.363281 -0.515625 0.421875 -0.492188 0.453125 -0.453125 C 0.484375 -0.410156 0.5 -0.335938 0.5 -0.234375 L 0.1875 -0.234375 C 0.1875 -0.179688 0.191406 -0.140625 0.203125 -0.109375 C 0.222656 -0.0859375 0.253906 -0.078125 0.296875 -0.078125 C 0.335938 -0.078125 0.367188 -0.0976562 0.390625 -0.140625 L 0.5 -0.140625 C 0.457031 -0.0351562 0.382812 0.015625 0.28125 0.015625 Z M 0.28125 -0.4375 C 0.25 -0.4375 0.222656 -0.425781 0.203125 -0.40625 C 0.191406 -0.394531 0.1875 -0.367188 0.1875 -0.328125 L 0.390625 -0.328125 C 0.390625 -0.367188 0.378906 -0.394531 0.359375 -0.40625 C 0.335938 -0.425781 0.3125 -0.4375 0.28125 -0.4375 Z M 0.28125 -0.4375 "/></g></g><g transform="translate(10.660558, 24.070486)"><g><path d="M 0.0625 0 L 0.0625 -0.703125 L 0.203125 -0.703125 L 0.203125 0 Z M 0.0625 0 "/></g></g><g transform="translate(10.933082, 24.070486)"><g><path d="M 0.0625 0 L 0.0625 -0.703125 L 0.203125 -0.703125 L 0.203125 0 Z M 0.0625 0 "/></g></g><g transform="translate(11.205606, 24.070486)"><g><path d="M 0.0625 -0.609375 L 0.0625 -0.703125 L 0.203125 -0.703125 L 0.203125 -0.609375 Z M 0.0625 0 L 0.0625 -0.515625 L 0.203125 -0.515625 L 0.203125 0 Z M 0.0625 0 "/></g></g><g transform="translate(11.47813, 24.070486)"><g><path d="M 0.296875 0.21875 C 0.222656 0.21875 0.164062 0.203125 0.125 0.171875 C 0.09375 0.148438 0.0703125 0.113281 0.0625 0.0625 L 0.203125 0.046875 C 0.203125 0.0664062 0.207031 0.0820312 0.21875 0.09375 C 0.238281 0.113281 0.265625 0.125 0.296875 0.125 C 0.335938 0.125 0.363281 0.109375 0.375 0.078125 C 0.394531 0.0546875 0.40625 0.0234375 0.40625 -0.015625 L 0.40625 -0.09375 C 0.375 -0.03125 0.316406 0 0.234375 0 C 0.171875 0 0.125 -0.0195312 0.09375 -0.0625 C 0.0625 -0.113281 0.046875 -0.179688 0.046875 -0.265625 C 0.046875 -0.347656 0.0625 -0.410156 0.09375 -0.453125 C 0.125 -0.492188 0.175781 -0.515625 0.25 -0.515625 C 0.320312 -0.515625 0.375 -0.484375 0.40625 -0.421875 C 0.40625 -0.429688 0.40625 -0.445312 0.40625 -0.46875 C 0.40625 -0.488281 0.40625 -0.503906 0.40625 -0.515625 L 0.53125 -0.515625 C 0.53125 -0.472656 0.53125 -0.4375 0.53125 -0.40625 L 0.53125 -0.015625 C 0.53125 0.0546875 0.507812 0.113281 0.46875 0.15625 C 0.425781 0.195312 0.367188 0.21875 0.296875 0.21875 Z M 0.40625 -0.265625 C 0.40625 -0.328125 0.394531 -0.367188 0.375 -0.390625 C 0.351562 -0.410156 0.328125 -0.421875 0.296875 -0.421875 C 0.222656 -0.421875 0.1875 -0.367188 0.1875 -0.265625 C 0.1875 -0.148438 0.222656 -0.09375 0.296875 -0.09375 C 0.328125 -0.09375 0.351562 -0.109375 0.375 -0.140625 C 0.394531 -0.171875 0.40625 -0.210938 0.40625 -0.265625 Z M 0.40625 -0.265625 "/></g></g><g transform="translate(12.0773, 24.070486)"><g><path d="M 0.28125 0.015625 C 0.207031 0.015625 0.148438 -0.00390625 0.109375 -0.046875 C 0.0664062 -0.0976562 0.046875 -0.171875 0.046875 -0.265625 C 0.046875 -0.347656 0.0664062 -0.410156 0.109375 -0.453125 C 0.148438 -0.492188 0.207031 -0.515625 0.28125 -0.515625 C 0.363281 -0.515625 0.421875 -0.492188 0.453125 -0.453125 C 0.484375 -0.410156 0.5 -0.335938 0.5 -0.234375 L 0.1875 -0.234375 C 0.1875 -0.179688 0.191406 -0.140625 0.203125 -0.109375 C 0.222656 -0.0859375 0.253906 -0.078125 0.296875 -0.078125 C 0.335938 -0.078125 0.367188 -0.0976562 0.390625 -0.140625 L 0.5 -0.140625 C 0.457031 -0.0351562 0.382812 0.015625 0.28125 0.015625 Z M 0.28125 -0.4375 C 0.25 -0.4375 0.222656 -0.425781 0.203125 -0.40625 C 0.191406 -0.394531 0.1875 -0.367188 0.1875 -0.328125 L 0.390625 -0.328125 C 0.390625 -0.367188 0.378906 -0.394531 0.359375 -0.40625 C 0.335938 -0.425781 0.3125 -0.4375 0.28125 -0.4375 Z M 0.28125 -0.4375 "/></g></g><g transform="translate(12.622827, 24.070486)"><g><path d="M 0.40625 0 L 0.40625 -0.296875 C 0.40625 -0.378906 0.375 -0.421875 0.3125 -0.421875 C 0.28125 -0.421875 0.253906 -0.40625 0.234375 -0.375 C 0.210938 -0.351562 0.203125 -0.320312 0.203125 -0.28125 L 0.203125 0 L 0.0625 0 L 0.0625 -0.40625 C 0.0625 -0.425781 0.0625 -0.441406 0.0625 -0.453125 C 0.0625 -0.472656 0.0625 -0.492188 0.0625 -0.515625 L 0.203125 -0.515625 C 0.203125 -0.503906 0.203125 -0.484375 0.203125 -0.453125 C 0.203125 -0.429688 0.203125 -0.414062 0.203125 -0.40625 C 0.222656 -0.445312 0.242188 -0.472656 0.265625 -0.484375 C 0.296875 -0.503906 0.332031 -0.515625 0.375 -0.515625 C 0.414062 -0.515625 0.453125 -0.5 0.484375 -0.46875 C 0.515625 -0.4375 0.53125 -0.390625 0.53125 -0.328125 L 0.53125 0 Z M 0.40625 0 "/></g></g><g transform="translate(13.221997, 24.070486)"><g><path d="M 0.296875 0.015625 C 0.210938 0.015625 0.148438 -0.0078125 0.109375 -0.0625 C 0.0664062 -0.113281 0.046875 -0.179688 0.046875 -0.265625 C 0.046875 -0.347656 0.0664062 -0.410156 0.109375 -0.453125 C 0.148438 -0.492188 0.210938 -0.515625 0.296875 -0.515625 C 0.359375 -0.515625 0.40625 -0.5 0.4375 -0.46875 C 0.46875 -0.4375 0.488281 -0.398438 0.5 -0.359375 L 0.390625 -0.359375 C 0.378906 -0.378906 0.363281 -0.394531 0.34375 -0.40625 C 0.332031 -0.414062 0.316406 -0.421875 0.296875 -0.421875 C 0.222656 -0.421875 0.1875 -0.367188 0.1875 -0.265625 C 0.1875 -0.140625 0.222656 -0.078125 0.296875 -0.078125 C 0.316406 -0.078125 0.335938 -0.0859375 0.359375 -0.109375 C 0.378906 -0.128906 0.390625 -0.15625 0.390625 -0.1875 L 0.515625 -0.171875 C 0.503906 -0.140625 0.488281 -0.109375 0.46875 -0.078125 C 0.445312 -0.046875 0.421875 -0.0195312 0.390625 0 C 0.367188 0.0078125 0.335938 0.015625 0.296875 0.015625 Z M 0.296875 0.015625 "/></g></g><g transform="translate(13.767524, 24.070486)"><g><path d="M 0.28125 0.015625 C 0.207031 0.015625 0.148438 -0.00390625 0.109375 -0.046875 C 0.0664062 -0.0976562 0.046875 -0.171875 0.046875 -0.265625 C 0.046875 -0.347656 0.0664062 -0.410156 0.109375 -0.453125 C 0.148438 -0.492188 0.207031 -0.515625 0.28125 -0.515625 C 0.363281 -0.515625 0.421875 -0.492188 0.453125 -0.453125 C 0.484375 -0.410156 0.5 -0.335938 0.5 -0.234375 L 0.1875 -0.234375 C 0.1875 -0.179688 0.191406 -0.140625 0.203125 -0.109375 C 0.222656 -0.0859375 0.253906 -0.078125 0.296875 -0.078125 C 0.335938 -0.078125 0.367188 -0.0976562 0.390625 -0.140625 L 0.5 -0.140625 C 0.457031 -0.0351562 0.382812 0.015625 0.28125 0.015625 Z M 0.28125 -0.4375 C 0.25 -0.4375 0.222656 -0.425781 0.203125 -0.40625 C 0.191406 -0.394531 0.1875 -0.367188 0.1875 -0.328125 L 0.390625 -0.328125 C 0.390625 -0.367188 0.378906 -0.394531 0.359375 -0.40625 C 0.335938 -0.425781 0.3125 -0.4375 0.28125 -0.4375 Z M 0.28125 -0.4375 "/></g></g></g><g fill="#000000" fill-opacity="1"><g transform="translate(32.780632, 12.900323)"><g><path d="M 2.296875 -4.796875 C 3.003906 -4.796875 3.628906 -4.617188 4.171875 -4.265625 L 3.71875 -3.328125 C 3.46875 -3.472656 3.195312 -3.59375 2.90625 -3.6875 C 2.625 -3.78125 2.390625 -3.828125 2.203125 -3.828125 C 1.847656 -3.828125 1.671875 -3.710938 1.671875 -3.484375 C 1.671875 -3.328125 1.753906 -3.203125 1.921875 -3.109375 C 2.097656 -3.023438 2.304688 -2.945312 2.546875 -2.875 C 2.796875 -2.8125 3.046875 -2.734375 3.296875 -2.640625 C 3.546875 -2.554688 3.753906 -2.410156 3.921875 -2.203125 C 4.097656 -1.992188 4.1875 -1.726562 4.1875 -1.40625 C 4.1875 -0.945312 4.003906 -0.585938 3.640625 -0.328125 C 3.285156 -0.078125 2.832031 0.046875 2.28125 0.046875 C 1.894531 0.046875 1.507812 -0.0195312 1.125 -0.15625 C 0.738281 -0.289062 0.398438 -0.476562 0.109375 -0.71875 L 0.578125 -1.640625 C 0.816406 -1.429688 1.097656 -1.257812 1.421875 -1.125 C 1.753906 -1 2.046875 -0.9375 2.296875 -0.9375 C 2.492188 -0.9375 2.644531 -0.96875 2.75 -1.03125 C 2.863281 -1.101562 2.921875 -1.207031 2.921875 -1.34375 C 2.921875 -1.476562 2.859375 -1.585938 2.734375 -1.671875 C 2.609375 -1.765625 2.453125 -1.832031 2.265625 -1.875 C 2.078125 -1.914062 1.875 -1.972656 1.65625 -2.046875 C 1.4375 -2.117188 1.234375 -2.195312 1.046875 -2.28125 C 0.867188 -2.375 0.71875 -2.515625 0.59375 -2.703125 C 0.46875 -2.890625 0.40625 -3.113281 0.40625 -3.375 C 0.40625 -3.800781 0.578125 -4.144531 0.921875 -4.40625 C 1.265625 -4.664062 1.722656 -4.796875 2.296875 -4.796875 Z M 2.296875 -4.796875 "/></g></g></g><g fill="#000000" fill-opacity="1"><g transform="translate(37.148172, 12.900323)"><g><path d="M 2.0625 -3.703125 C 2.425781 -3.703125 2.75 -3.628906 3.03125 -3.484375 C 3.3125 -3.335938 3.53125 -3.132812 3.6875 -2.875 L 2.84375 -2.359375 C 2.664062 -2.617188 2.421875 -2.75 2.109375 -2.75 C 1.878906 -2.75 1.691406 -2.660156 1.546875 -2.484375 C 1.410156 -2.316406 1.34375 -2.097656 1.34375 -1.828125 C 1.34375 -1.546875 1.410156 -1.316406 1.546875 -1.140625 C 1.691406 -0.972656 1.878906 -0.890625 2.109375 -0.890625 C 2.453125 -0.890625 2.703125 -1.03125 2.859375 -1.3125 L 3.703125 -0.8125 C 3.554688 -0.539062 3.335938 -0.328125 3.046875 -0.171875 C 2.765625 -0.0234375 2.429688 0.046875 2.046875 0.046875 C 1.484375 0.046875 1.023438 -0.125 0.671875 -0.46875 C 0.328125 -0.8125 0.15625 -1.257812 0.15625 -1.8125 C 0.15625 -2.375 0.332031 -2.828125 0.6875 -3.171875 C 1.039062 -3.523438 1.5 -3.703125 2.0625 -3.703125 Z M 2.0625 -3.703125 "/></g></g></g><g fill="#000000" fill-opacity="1"><g transform="translate(40.959601, 12.900323)"><g><path d="M 2.90625 -3.703125 C 3.300781 -3.703125 3.617188 -3.570312 3.859375 -3.3125 C 4.109375 -3.0625 4.234375 -2.726562 4.234375 -2.3125 L 4.234375 0 L 3.0625 0 L 3.0625 -1.984375 C 3.0625 -2.191406 3.003906 -2.359375 2.890625 -2.484375 C 2.773438 -2.609375 2.617188 -2.671875 2.421875 -2.671875 C 2.191406 -2.671875 2.007812 -2.585938 1.875 -2.421875 C 1.738281 -2.265625 1.671875 -2.054688 1.671875 -1.796875 L 1.671875 0 L 0.5 0 L 0.5 -5.03125 L 1.671875 -5.03125 L 1.671875 -3.046875 C 1.929688 -3.484375 2.34375 -3.703125 2.90625 -3.703125 Z M 2.90625 -3.703125 "/></g></g></g><g fill="#000000" fill-opacity="1"><g transform="translate(45.557728, 12.900323)"><g><path d="M 2.15625 -3.703125 C 2.757812 -3.703125 3.242188 -3.53125 3.609375 -3.1875 C 3.972656 -2.84375 4.15625 -2.390625 4.15625 -1.828125 C 4.15625 -1.265625 3.972656 -0.8125 3.609375 -0.46875 C 3.242188 -0.125 2.757812 0.046875 2.15625 0.046875 C 1.5625 0.046875 1.078125 -0.125 0.703125 -0.46875 C 0.335938 -0.8125 0.15625 -1.265625 0.15625 -1.828125 C 0.15625 -2.390625 0.335938 -2.84375 0.703125 -3.1875 C 1.078125 -3.53125 1.5625 -3.703125 2.15625 -3.703125 Z M 2.15625 -2.765625 C 1.914062 -2.765625 1.71875 -2.675781 1.5625 -2.5 C 1.414062 -2.320312 1.34375 -2.09375 1.34375 -1.8125 C 1.34375 -1.53125 1.414062 -1.300781 1.5625 -1.125 C 1.71875 -0.957031 1.914062 -0.875 2.15625 -0.875 C 2.394531 -0.875 2.59375 -0.957031 2.75 -1.125 C 2.90625 -1.300781 2.984375 -1.53125 2.984375 -1.8125 C 2.984375 -2.09375 2.90625 -2.320312 2.75 -2.5 C 2.59375 -2.675781 2.394531 -2.765625 2.15625 -2.765625 Z M 2.15625 -2.765625 "/></g></g></g><g fill="#000000" fill-opacity="1"><g transform="translate(49.877796, 12.900323)"><g><path d="M 2.15625 -3.703125 C 2.757812 -3.703125 3.242188 -3.53125 3.609375 -3.1875 C 3.972656 -2.84375 4.15625 -2.390625 4.15625 -1.828125 C 4.15625 -1.265625 3.972656 -0.8125 3.609375 -0.46875 C 3.242188 -0.125 2.757812 0.046875 2.15625 0.046875 C 1.5625 0.046875 1.078125 -0.125 0.703125 -0.46875 C 0.335938 -0.8125 0.15625 -1.265625 0.15625 -1.828125 C 0.15625 -2.390625 0.335938 -2.84375 0.703125 -3.1875 C 1.078125 -3.53125 1.5625 -3.703125 2.15625 -3.703125 Z M 2.15625 -2.765625 C 1.914062 -2.765625 1.71875 -2.675781 1.5625 -2.5 C 1.414062 -2.320312 1.34375 -2.09375 1.34375 -1.8125 C 1.34375 -1.53125 1.414062 -1.300781 1.5625 -1.125 C 1.71875 -0.957031 1.914062 -0.875 2.15625 -0.875 C 2.394531 -0.875 2.59375 -0.957031 2.75 -1.125 C 2.90625 -1.300781 2.984375 -1.53125 2.984375 -1.8125 C 2.984375 -2.09375 2.90625 -2.320312 2.75 -2.5 C 2.59375 -2.675781 2.394531 -2.765625 2.15625 -2.765625 Z M 2.15625 -2.765625 "/></g></g></g><g fill="#000000" fill-opacity="1"><g transform="translate(54.197864, 12.900323)"><g><path d="M 1.671875 0 L 0.5 0 L 0.5 -5.03125 L 1.671875 -5.03125 Z M 1.671875 0 "/></g></g></g><g fill="#000000" fill-opacity="1"><g transform="translate(56.374851, 12.900323)"><g/></g></g><g fill="#000000" fill-opacity="1"><g transform="translate(57.948254, 12.900323)"><g><path d="M 2.15625 -3.703125 C 2.757812 -3.703125 3.242188 -3.53125 3.609375 -3.1875 C 3.972656 -2.84375 4.15625 -2.390625 4.15625 -1.828125 C 4.15625 -1.265625 3.972656 -0.8125 3.609375 -0.46875 C 3.242188 -0.125 2.757812 0.046875 2.15625 0.046875 C 1.5625 0.046875 1.078125 -0.125 0.703125 -0.46875 C 0.335938 -0.8125 0.15625 -1.265625 0.15625 -1.828125 C 0.15625 -2.390625 0.335938 -2.84375 0.703125 -3.1875 C 1.078125 -3.53125 1.5625 -3.703125 2.15625 -3.703125 Z M 2.15625 -2.765625 C 1.914062 -2.765625 1.71875 -2.675781 1.5625 -2.5 C 1.414062 -2.320312 1.34375 -2.09375 1.34375 -1.8125 C 1.34375 -1.53125 1.414062 -1.300781 1.5625 -1.125 C 1.71875 -0.957031 1.914062 -0.875 2.15625 -0.875 C 2.394531 -0.875 2.59375 -0.957031 2.75 -1.125 C 2.90625 -1.300781 2.984375 -1.53125 2.984375 -1.8125 C 2.984375 -2.09375 2.90625 -2.320312 2.75 -2.5 C 2.59375 -2.675781 2.394531 -2.765625 2.15625 -2.765625 Z M 2.15625 -2.765625 "/></g></g></g><g fill="#000000" fill-opacity="1"><g transform="translate(62.268322, 12.900323)"><g><path d="M 2.265625 -4.15625 C 2.140625 -4.15625 2.035156 -4.117188 1.953125 -4.046875 C 1.878906 -3.984375 1.84375 -3.882812 1.84375 -3.75 L 1.84375 -3.5 L 2.671875 -3.5 L 2.671875 -2.71875 L 1.84375 -2.71875 L 1.84375 0 L 0.6875 0 L 0.6875 -2.71875 L 0.1875 -2.71875 L 0.1875 -3.5 L 0.6875 -3.5 L 0.6875 -3.828125 C 0.6875 -4.222656 0.816406 -4.53125 1.078125 -4.75 C 1.335938 -4.976562 1.671875 -5.09375 2.078125 -5.09375 C 2.472656 -5.09375 2.816406 -5.003906 3.109375 -4.828125 L 2.6875 -4 C 2.550781 -4.101562 2.410156 -4.15625 2.265625 -4.15625 Z M 2.265625 -4.15625 "/></g></g></g><g fill="#000000" fill-opacity="1"><g transform="translate(32.780632, 22.326687)"><g><path d="M 5.6875 0 L 4.625 0 L 4.625 -3.078125 L 3.484375 -0.46875 L 2.6875 -0.46875 L 1.546875 -3.078125 L 1.546875 0 L 0.46875 0 L 0.46875 -4.75 L 1.796875 -4.75 L 3.078125 -1.921875 L 4.375 -4.75 L 5.6875 -4.75 Z M 5.6875 0 "/></g></g></g><g fill="#000000" fill-opacity="1"><g transform="translate(38.952156, 22.326687)"><g><path d="M 2.109375 -3.703125 C 2.609375 -3.703125 3 -3.585938 3.28125 -3.359375 C 3.5625 -3.128906 3.703125 -2.804688 3.703125 -2.390625 L 3.703125 0 L 2.5625 0 L 2.5625 -0.421875 C 2.320312 -0.109375 1.945312 0.046875 1.4375 0.046875 C 1.050781 0.046875 0.742188 -0.0546875 0.515625 -0.265625 C 0.296875 -0.472656 0.1875 -0.75 0.1875 -1.09375 C 0.1875 -1.4375 0.304688 -1.703125 0.546875 -1.890625 C 0.785156 -2.085938 1.132812 -2.191406 1.59375 -2.203125 L 2.546875 -2.203125 L 2.546875 -2.25 C 2.546875 -2.425781 2.484375 -2.566406 2.359375 -2.671875 C 2.242188 -2.773438 2.070312 -2.828125 1.84375 -2.828125 C 1.507812 -2.828125 1.144531 -2.722656 0.75 -2.515625 L 0.40625 -3.296875 C 1 -3.566406 1.566406 -3.703125 2.109375 -3.703125 Z M 1.796875 -0.734375 C 1.984375 -0.734375 2.144531 -0.78125 2.28125 -0.875 C 2.425781 -0.96875 2.515625 -1.085938 2.546875 -1.234375 L 2.546875 -1.5625 L 1.8125 -1.5625 C 1.457031 -1.5625 1.28125 -1.429688 1.28125 -1.171875 C 1.28125 -1.035156 1.320312 -0.925781 1.40625 -0.84375 C 1.5 -0.769531 1.628906 -0.734375 1.796875 -0.734375 Z M 1.796875 -0.734375 "/></g></g></g><g fill="#000000" fill-opacity="1"><g transform="translate(43.021297, 22.326687)"><g><path d="M 2.0625 -3.703125 C 2.425781 -3.703125 2.75 -3.628906 3.03125 -3.484375 C 3.3125 -3.335938 3.53125 -3.132812 3.6875 -2.875 L 2.84375 -2.359375 C 2.664062 -2.617188 2.421875 -2.75 2.109375 -2.75 C 1.878906 -2.75 1.691406 -2.660156 1.546875 -2.484375 C 1.410156 -2.316406 1.34375 -2.097656 1.34375 -1.828125 C 1.34375 -1.546875 1.410156 -1.316406 1.546875 -1.140625 C 1.691406 -0.972656 1.878906 -0.890625 2.109375 -0.890625 C 2.453125 -0.890625 2.703125 -1.03125 2.859375 -1.3125 L 3.703125 -0.8125 C 3.554688 -0.539062 3.335938 -0.328125 3.046875 -0.171875 C 2.765625 -0.0234375 2.429688 0.046875 2.046875 0.046875 C 1.484375 0.046875 1.023438 -0.125 0.671875 -0.46875 C 0.328125 -0.8125 0.15625 -1.257812 0.15625 -1.8125 C 0.15625 -2.375 0.332031 -2.828125 0.6875 -3.171875 C 1.039062 -3.523438 1.5 -3.703125 2.0625 -3.703125 Z M 2.0625 -3.703125 "/></g></g></g><g fill="#000000" fill-opacity="1"><g transform="translate(46.832726, 22.326687)"><g><path d="M 2.90625 -3.703125 C 3.300781 -3.703125 3.617188 -3.570312 3.859375 -3.3125 C 4.109375 -3.0625 4.234375 -2.726562 4.234375 -2.3125 L 4.234375 0 L 3.0625 0 L 3.0625 -1.984375 C 3.0625 -2.191406 3.003906 -2.359375 2.890625 -2.484375 C 2.773438 -2.609375 2.617188 -2.671875 2.421875 -2.671875 C 2.191406 -2.671875 2.007812 -2.585938 1.875 -2.421875 C 1.738281 -2.265625 1.671875 -2.054688 1.671875 -1.796875 L 1.671875 0 L 0.5 0 L 0.5 -5.03125 L 1.671875 -5.03125 L 1.671875 -3.046875 C 1.929688 -3.484375 2.34375 -3.703125 2.90625 -3.703125 Z M 2.90625 -3.703125 "/></g></g></g><g fill="#000000" fill-opacity="1"><g transform="translate(51.430853, 22.326687)"><g><path d="M 0.609375 -5.15625 C 0.722656 -5.269531 0.867188 -5.328125 1.046875 -5.328125 C 1.234375 -5.328125 1.382812 -5.269531 1.5 -5.15625 C 1.613281 -5.039062 1.671875 -4.890625 1.671875 -4.703125 C 1.671875 -4.523438 1.613281 -4.375 1.5 -4.25 C 1.382812 -4.132812 1.234375 -4.078125 1.046875 -4.078125 C 0.867188 -4.078125 0.722656 -4.132812 0.609375 -4.25 C 0.492188 -4.375 0.4375 -4.523438 0.4375 -4.703125 C 0.4375 -4.890625 0.492188 -5.039062 0.609375 -5.15625 Z M 1.640625 0 L 0.46875 0 L 0.46875 -3.65625 L 1.640625 -3.65625 Z M 1.640625 0 "/></g></g></g><g fill="#000000" fill-opacity="1"><g transform="translate(53.540022, 22.326687)"><g><path d="M 2.859375 -3.703125 C 3.265625 -3.703125 3.585938 -3.570312 3.828125 -3.3125 C 4.078125 -3.0625 4.203125 -2.726562 4.203125 -2.3125 L 4.203125 0 L 3.03125 0 L 3.03125 -1.984375 C 3.03125 -2.191406 2.972656 -2.359375 2.859375 -2.484375 C 2.742188 -2.609375 2.585938 -2.671875 2.390625 -2.671875 C 2.179688 -2.671875 2.007812 -2.601562 1.875 -2.46875 C 1.738281 -2.332031 1.660156 -2.15625 1.640625 -1.9375 L 1.640625 0 L 0.46875 0 L 0.46875 -3.65625 L 1.640625 -3.65625 L 1.640625 -3.0625 C 1.898438 -3.488281 2.304688 -3.703125 2.859375 -3.703125 Z M 2.859375 -3.703125 "/></g></g></g><g fill="#000000" fill-opacity="1"><g transform="translate(58.104237, 22.326687)"><g><path d="M 2.0625 -3.703125 C 2.695312 -3.703125 3.171875 -3.503906 3.484375 -3.109375 C 3.804688 -2.722656 3.945312 -2.191406 3.90625 -1.515625 L 1.34375 -1.515625 C 1.40625 -1.296875 1.507812 -1.125 1.65625 -1 C 1.800781 -0.882812 1.984375 -0.828125 2.203125 -0.828125 C 2.535156 -0.828125 2.828125 -0.953125 3.078125 -1.203125 L 3.703125 -0.609375 C 3.304688 -0.171875 2.773438 0.046875 2.109375 0.046875 C 1.515625 0.046875 1.039062 -0.117188 0.6875 -0.453125 C 0.332031 -0.796875 0.15625 -1.25 0.15625 -1.8125 C 0.15625 -2.382812 0.332031 -2.84375 0.6875 -3.1875 C 1.039062 -3.53125 1.5 -3.703125 2.0625 -3.703125 Z M 1.328125 -2.140625 L 2.78125 -2.140625 C 2.78125 -2.359375 2.71875 -2.535156 2.59375 -2.671875 C 2.46875 -2.804688 2.296875 -2.875 2.078125 -2.875 C 1.878906 -2.875 1.710938 -2.804688 1.578125 -2.671875 C 1.441406 -2.546875 1.359375 -2.367188 1.328125 -2.140625 Z M 1.328125 -2.140625 "/></g></g></g><g fill="#000000" fill-opacity="1"><g transform="translate(62.186938, 22.326687)"><g/></g></g><g fill="#000000" fill-opacity="1"><g transform="translate(63.760341, 22.326687)"><g><path d="M 1.6875 -1.015625 L 3.703125 -1.015625 L 3.703125 0 L 0.46875 0 L 0.46875 -4.75 L 1.6875 -4.75 Z M 1.6875 -1.015625 "/></g></g></g><g fill="#000000" fill-opacity="1"><g transform="translate(67.558204, 22.326687)"><g><path d="M 2.0625 -3.703125 C 2.695312 -3.703125 3.171875 -3.503906 3.484375 -3.109375 C 3.804688 -2.722656 3.945312 -2.191406 3.90625 -1.515625 L 1.34375 -1.515625 C 1.40625 -1.296875 1.507812 -1.125 1.65625 -1 C 1.800781 -0.882812 1.984375 -0.828125 2.203125 -0.828125 C 2.535156 -0.828125 2.828125 -0.953125 3.078125 -1.203125 L 3.703125 -0.609375 C 3.304688 -0.171875 2.773438 0.046875 2.109375 0.046875 C 1.515625 0.046875 1.039062 -0.117188 0.6875 -0.453125 C 0.332031 -0.796875 0.15625 -1.25 0.15625 -1.8125 C 0.15625 -2.382812 0.332031 -2.84375 0.6875 -3.1875 C 1.039062 -3.53125 1.5 -3.703125 2.0625 -3.703125 Z M 1.328125 -2.140625 L 2.78125 -2.140625 C 2.78125 -2.359375 2.71875 -2.535156 2.59375 -2.671875 C 2.46875 -2.804688 2.296875 -2.875 2.078125 -2.875 C 1.878906 -2.875 1.710938 -2.804688 1.578125 -2.671875 C 1.441406 -2.546875 1.359375 -2.367188 1.328125 -2.140625 Z M 1.328125 -2.140625 "/></g></g></g><g fill="#000000" fill-opacity="1"><g transform="translate(71.640905, 22.326687)"><g><path d="M 2.109375 -3.703125 C 2.609375 -3.703125 3 -3.585938 3.28125 -3.359375 C 3.5625 -3.128906 3.703125 -2.804688 3.703125 -2.390625 L 3.703125 0 L 2.5625 0 L 2.5625 -0.421875 C 2.320312 -0.109375 1.945312 0.046875 1.4375 0.046875 C 1.050781 0.046875 0.742188 -0.0546875 0.515625 -0.265625 C 0.296875 -0.472656 0.1875 -0.75 0.1875 -1.09375 C 0.1875 -1.4375 0.304688 -1.703125 0.546875 -1.890625 C 0.785156 -2.085938 1.132812 -2.191406 1.59375 -2.203125 L 2.546875 -2.203125 L 2.546875 -2.25 C 2.546875 -2.425781 2.484375 -2.566406 2.359375 -2.671875 C 2.242188 -2.773438 2.070312 -2.828125 1.84375 -2.828125 C 1.507812 -2.828125 1.144531 -2.722656 0.75 -2.515625 L 0.40625 -3.296875 C 1 -3.566406 1.566406 -3.703125 2.109375 -3.703125 Z M 1.796875 -0.734375 C 1.984375 -0.734375 2.144531 -0.78125 2.28125 -0.875 C 2.425781 -0.96875 2.515625 -1.085938 2.546875 -1.234375 L 2.546875 -1.5625 L 1.8125 -1.5625 C 1.457031 -1.5625 1.28125 -1.429688 1.28125 -1.171875 C 1.28125 -1.035156 1.320312 -0.925781 1.40625 -0.84375 C 1.5 -0.769531 1.628906 -0.734375 1.796875 -0.734375 Z M 1.796875 -0.734375 "/></g></g></g><g fill="#000000" fill-opacity="1"><g transform="translate(75.710047, 22.326687)"><g><path d="M 1.640625 -3.65625 L 1.640625 -3.03125 C 1.898438 -3.476562 2.296875 -3.703125 2.828125 -3.703125 L 2.828125 -2.65625 C 2.492188 -2.6875 2.21875 -2.628906 2 -2.484375 C 1.789062 -2.335938 1.671875 -2.132812 1.640625 -1.875 L 1.640625 0 L 0.46875 0 L 0.46875 -3.65625 Z M 1.640625 -3.65625 "/></g></g></g><g fill="#000000" fill-opacity="1"><g transform="translate(78.605914, 22.326687)"><g><path d="M 2.859375 -3.703125 C 3.265625 -3.703125 3.585938 -3.570312 3.828125 -3.3125 C 4.078125 -3.0625 4.203125 -2.726562 4.203125 -2.3125 L 4.203125 0 L 3.03125 0 L 3.03125 -1.984375 C 3.03125 -2.191406 2.972656 -2.359375 2.859375 -2.484375 C 2.742188 -2.609375 2.585938 -2.671875 2.390625 -2.671875 C 2.179688 -2.671875 2.007812 -2.601562 1.875 -2.46875 C 1.738281 -2.332031 1.660156 -2.15625 1.640625 -1.9375 L 1.640625 0 L 0.46875 0 L 0.46875 -3.65625 L 1.640625 -3.65625 L 1.640625 -3.0625 C 1.898438 -3.488281 2.304688 -3.703125 2.859375 -3.703125 Z M 2.859375 -3.703125 "/></g></g></g><g fill="#000000" fill-opacity="1"><g transform="translate(83.170129, 22.326687)"><g><path d="M 0.609375 -5.15625 C 0.722656 -5.269531 0.867188 -5.328125 1.046875 -5.328125 C 1.234375 -5.328125 1.382812 -5.269531 1.5 -5.15625 C 1.613281 -5.039062 1.671875 -4.890625 1.671875 -4.703125 C 1.671875 -4.523438 1.613281 -4.375 1.5 -4.25 C 1.382812 -4.132812 1.234375 -4.078125 1.046875 -4.078125 C 0.867188 -4.078125 0.722656 -4.132812 0.609375 -4.25 C 0.492188 -4.375 0.4375 -4.523438 0.4375 -4.703125 C 0.4375 -4.890625 0.492188 -5.039062 0.609375 -5.15625 Z M 1.640625 0 L 0.46875 0 L 0.46875 -3.65625 L 1.640625 -3.65625 Z M 1.640625 0 "/></g></g></g><g fill="#000000" fill-opacity="1"><g transform="translate(85.279297, 22.326687)"><g><path d="M 2.859375 -3.703125 C 3.265625 -3.703125 3.585938 -3.570312 3.828125 -3.3125 C 4.078125 -3.0625 4.203125 -2.726562 4.203125 -2.3125 L 4.203125 0 L 3.03125 0 L 3.03125 -1.984375 C 3.03125 -2.191406 2.972656 -2.359375 2.859375 -2.484375 C 2.742188 -2.609375 2.585938 -2.671875 2.390625 -2.671875 C 2.179688 -2.671875 2.007812 -2.601562 1.875 -2.46875 C 1.738281 -2.332031 1.660156 -2.15625 1.640625 -1.9375 L 1.640625 0 L 0.46875 0 L 0.46875 -3.65625 L 1.640625 -3.65625 L 1.640625 -3.0625 C 1.898438 -3.488281 2.304688 -3.703125 2.859375 -3.703125 Z M 2.859375 -3.703125 "/></g></g></g><g fill="#000000" fill-opacity="1"><g transform="translate(89.843512, 22.326687)"><g><path d="M 3.953125 -3.65625 L 3.953125 -0.328125 C 3.953125 0.179688 3.769531 0.585938 3.40625 0.890625 C 3.050781 1.203125 2.578125 1.359375 1.984375 1.359375 C 1.378906 1.359375 0.835938 1.195312 0.359375 0.875 L 0.765625 0.09375 C 1.109375 0.332031 1.484375 0.453125 1.890625 0.453125 C 2.171875 0.453125 2.390625 0.382812 2.546875 0.25 C 2.710938 0.113281 2.796875 -0.0664062 2.796875 -0.296875 L 2.796875 -0.6875 C 2.546875 -0.363281 2.195312 -0.203125 1.75 -0.203125 C 1.28125 -0.203125 0.898438 -0.363281 0.609375 -0.6875 C 0.316406 -1.007812 0.171875 -1.4375 0.171875 -1.96875 C 0.171875 -2.476562 0.3125 -2.894531 0.59375 -3.21875 C 0.882812 -3.539062 1.257812 -3.703125 1.71875 -3.703125 C 2.1875 -3.703125 2.546875 -3.535156 2.796875 -3.203125 L 2.796875 -3.65625 Z M 2.03125 -1.046875 C 2.257812 -1.046875 2.441406 -1.128906 2.578125 -1.296875 C 2.722656 -1.460938 2.796875 -1.675781 2.796875 -1.9375 C 2.796875 -2.195312 2.722656 -2.410156 2.578125 -2.578125 C 2.441406 -2.742188 2.257812 -2.828125 2.03125 -2.828125 C 1.800781 -2.828125 1.613281 -2.742188 1.46875 -2.578125 C 1.332031 -2.410156 1.265625 -2.195312 1.265625 -1.9375 C 1.265625 -1.675781 1.332031 -1.460938 1.46875 -1.296875 C 1.613281 -1.128906 1.800781 -1.046875 2.03125 -1.046875 Z M 2.03125 -1.046875 "/></g></g></g></svg>