<svg xmlns="http://www.w3.org/2000/svg" xmlns:xlink="http://www.w3.org/1999/xlink" width="288" zoomAndPan="magnify" viewBox="0 0 216 72" height="96" preserveAspectRatio="xMidYMid meet" version="1.0"><defs><clipPath id="d403975154"><path d="M 54 17.574219 L 92 17.574219 L 92 54.324219 L 54 54.324219 Z M 54 17.574219 " clip-rule="nonzero"/></clipPath></defs><g clip-path="url(#d403975154)"><path fill="#1b1716" d="M 83.820312 33.898438 C 77.976562 30.433594 68.335938 30.113281 62.757812 31.804688 C 61.859375 32.074219 60.914062 31.570312 60.640625 30.675781 C 60.371094 29.78125 60.875 28.835938 61.773438 28.566406 C 68.175781 26.625 78.824219 27 85.550781 30.984375 C 86.355469 31.464844 86.621094 32.503906 86.144531 33.304688 C 85.664062 34.109375 84.625 34.375 83.820312 33.898438 Z M 83.628906 39.027344 C 83.21875 39.695312 82.347656 39.902344 81.683594 39.492188 C 76.8125 36.503906 69.382812 35.636719 63.617188 37.382812 C 62.871094 37.609375 62.082031 37.191406 61.851562 36.445312 C 61.628906 35.699219 62.050781 34.910156 62.796875 34.683594 C 69.382812 32.691406 77.566406 33.65625 83.164062 37.089844 C 83.828125 37.496094 84.035156 38.367188 83.628906 39.027344 Z M 81.410156 43.957031 C 81.085938 44.492188 80.386719 44.65625 79.855469 44.332031 C 75.597656 41.734375 70.238281 41.148438 63.929688 42.585938 C 63.320312 42.726562 62.714844 42.347656 62.574219 41.738281 C 62.4375 41.132812 62.816406 40.527344 63.425781 40.390625 C 70.332031 38.8125 76.257812 39.492188 81.035156 42.40625 C 81.566406 42.730469 81.734375 43.425781 81.410156 43.957031 Z M 73.09375 17.851562 C 63.082031 17.851562 54.964844 25.957031 54.964844 35.949219 C 54.964844 45.949219 63.082031 54.050781 73.09375 54.050781 C 83.109375 54.050781 91.226562 45.949219 91.226562 35.949219 C 91.226562 25.957031 83.109375 17.851562 73.09375 17.851562 " fill-opacity="1" fill-rule="nonzero"/></g><path fill="#1b1716" d="M 104.292969 34.5625 C 101.160156 33.816406 100.605469 33.292969 100.605469 32.195312 C 100.605469 31.15625 101.582031 30.457031 103.039062 30.457031 C 104.453125 30.457031 105.851562 30.988281 107.320312 32.078125 C 107.363281 32.113281 107.417969 32.125 107.472656 32.117188 C 107.527344 32.109375 107.578125 32.078125 107.609375 32.035156 L 109.136719 29.882812 C 109.199219 29.792969 109.183594 29.671875 109.097656 29.605469 C 107.351562 28.207031 105.386719 27.527344 103.085938 27.527344 C 99.707031 27.527344 97.34375 29.550781 97.34375 32.449219 C 97.34375 35.554688 99.382812 36.65625 102.902344 37.503906 C 105.898438 38.191406 106.402344 38.769531 106.402344 39.800781 C 106.402344 40.945312 105.378906 41.65625 103.734375 41.65625 C 101.90625 41.65625 100.417969 41.039062 98.75 39.597656 C 98.707031 39.5625 98.652344 39.546875 98.597656 39.550781 C 98.542969 39.554688 98.492188 39.582031 98.457031 39.621094 L 96.746094 41.660156 C 96.671875 41.742188 96.683594 41.867188 96.765625 41.941406 C 98.703125 43.671875 101.089844 44.585938 103.664062 44.585938 C 107.308594 44.585938 109.660156 42.597656 109.660156 39.523438 C 109.660156 36.925781 108.105469 35.488281 104.292969 34.5625 " fill-opacity="1" fill-rule="nonzero"/><path fill="#1b1716" d="M 120.546875 38.042969 C 120.546875 40.238281 119.191406 41.769531 117.253906 41.769531 C 115.335938 41.769531 113.890625 40.167969 113.890625 38.042969 C 113.890625 35.917969 115.335938 34.316406 117.253906 34.316406 C 119.160156 34.316406 120.546875 35.882812 120.546875 38.042969 Z M 117.902344 31.480469 C 116.324219 31.480469 115.027344 32.101562 113.960938 33.371094 L 113.960938 31.941406 C 113.960938 31.828125 113.867188 31.734375 113.753906 31.734375 L 110.953125 31.734375 C 110.839844 31.734375 110.746094 31.828125 110.746094 31.941406 L 110.746094 47.847656 C 110.746094 47.960938 110.839844 48.050781 110.953125 48.050781 L 113.753906 48.050781 C 113.867188 48.050781 113.960938 47.960938 113.960938 47.847656 L 113.960938 42.824219 C 115.027344 44.023438 116.324219 44.605469 117.902344 44.605469 C 120.835938 44.605469 123.804688 42.351562 123.804688 38.042969 C 123.804688 33.734375 120.835938 31.480469 117.902344 31.480469 " fill-opacity="1" fill-rule="nonzero"/><path fill="#1b1716" d="M 131.417969 41.792969 C 129.40625 41.792969 127.890625 40.179688 127.890625 38.042969 C 127.890625 35.898438 129.355469 34.339844 131.371094 34.339844 C 133.394531 34.339844 134.917969 35.953125 134.917969 38.089844 C 134.917969 40.234375 133.445312 41.792969 131.417969 41.792969 Z M 131.417969 31.480469 C 127.640625 31.480469 124.679688 34.382812 124.679688 38.089844 C 124.679688 41.757812 127.617188 44.632812 131.371094 44.632812 C 135.160156 44.632812 138.128906 41.738281 138.128906 38.042969 C 138.128906 34.363281 135.183594 31.480469 131.417969 31.480469 " fill-opacity="1" fill-rule="nonzero"/><path fill="#1b1716" d="M 146.199219 31.734375 L 143.113281 31.734375 L 143.113281 28.585938 C 143.113281 28.472656 143.023438 28.382812 142.910156 28.382812 L 140.105469 28.382812 C 139.992188 28.382812 139.902344 28.472656 139.902344 28.585938 L 139.902344 31.734375 L 138.550781 31.734375 C 138.441406 31.734375 138.347656 31.828125 138.347656 31.941406 L 138.347656 34.34375 C 138.347656 34.457031 138.441406 34.550781 138.550781 34.550781 L 139.902344 34.550781 L 139.902344 40.773438 C 139.902344 43.285156 141.152344 44.5625 143.625 44.5625 C 144.632812 44.5625 145.464844 44.355469 146.253906 43.910156 C 146.316406 43.875 146.355469 43.804688 146.355469 43.730469 L 146.355469 41.441406 C 146.355469 41.371094 146.320312 41.304688 146.257812 41.269531 C 146.199219 41.230469 146.121094 41.226562 146.058594 41.257812 C 145.519531 41.53125 144.996094 41.65625 144.414062 41.65625 C 143.515625 41.65625 143.113281 41.246094 143.113281 40.332031 L 143.113281 34.550781 L 146.199219 34.550781 C 146.3125 34.550781 146.402344 34.457031 146.402344 34.34375 L 146.402344 31.941406 C 146.402344 31.828125 146.3125 31.734375 146.199219 31.734375 " fill-opacity="1" fill-rule="nonzero"/><path fill="#1b1716" d="M 156.945312 31.746094 L 156.945312 31.359375 C 156.945312 30.222656 157.382812 29.714844 158.363281 29.714844 C 158.945312 29.714844 159.414062 29.832031 159.941406 30.007812 C 160.003906 30.027344 160.074219 30.015625 160.125 29.976562 C 160.179688 29.941406 160.210938 29.878906 160.210938 29.8125 L 160.210938 27.453125 C 160.210938 27.363281 160.152344 27.285156 160.066406 27.257812 C 159.511719 27.09375 158.800781 26.921875 157.734375 26.921875 C 155.148438 26.921875 153.777344 28.378906 153.777344 31.128906 L 153.777344 31.722656 L 152.429688 31.722656 C 152.320312 31.722656 152.226562 31.816406 152.226562 31.929688 L 152.226562 34.34375 C 152.226562 34.457031 152.320312 34.550781 152.429688 34.550781 L 153.777344 34.550781 L 153.777344 44.148438 C 153.777344 44.261719 153.871094 44.351562 153.984375 44.351562 L 156.785156 44.351562 C 156.898438 44.351562 156.992188 44.261719 156.992188 44.148438 L 156.992188 34.550781 L 159.609375 34.550781 L 163.617188 44.144531 C 163.160156 45.152344 162.714844 45.355469 162.105469 45.355469 C 161.609375 45.355469 161.089844 45.207031 160.558594 44.917969 C 160.507812 44.886719 160.449219 44.882812 160.394531 44.902344 C 160.339844 44.917969 160.296875 44.960938 160.273438 45.011719 L 159.324219 47.09375 C 159.277344 47.191406 159.316406 47.304688 159.410156 47.355469 C 160.402344 47.894531 161.296875 48.121094 162.40625 48.121094 C 164.476562 48.121094 165.617188 47.160156 166.628906 44.570312 L 171.492188 32.027344 C 171.515625 31.964844 171.507812 31.890625 171.46875 31.835938 C 171.429688 31.78125 171.367188 31.746094 171.300781 31.746094 L 168.382812 31.746094 C 168.296875 31.746094 168.214844 31.800781 168.1875 31.882812 L 165.199219 40.40625 L 161.925781 31.878906 C 161.894531 31.800781 161.816406 31.746094 161.734375 31.746094 L 156.945312 31.746094 " fill-opacity="1" fill-rule="nonzero"/><path fill="#1b1716" d="M 150.714844 31.734375 L 147.910156 31.734375 C 147.796875 31.734375 147.707031 31.828125 147.707031 31.941406 L 147.707031 44.148438 C 147.707031 44.261719 147.796875 44.351562 147.910156 44.351562 L 150.714844 44.351562 C 150.828125 44.351562 150.917969 44.261719 150.917969 44.148438 L 150.917969 31.941406 C 150.917969 31.828125 150.828125 31.734375 150.714844 31.734375 " fill-opacity="1" fill-rule="nonzero"/><path fill="#1b1716" d="M 149.328125 26.175781 C 148.21875 26.175781 147.316406 27.074219 147.316406 28.183594 C 147.316406 29.292969 148.21875 30.191406 149.328125 30.191406 C 150.4375 30.191406 151.335938 29.292969 151.335938 28.183594 C 151.335938 27.074219 150.4375 26.175781 149.328125 26.175781 " fill-opacity="1" fill-rule="nonzero"/><path fill="#1b1716" d="M 174 32.949219 L 173.484375 32.949219 L 173.484375 33.601562 L 174 33.601562 C 174.253906 33.601562 174.40625 33.476562 174.40625 33.277344 C 174.40625 33.0625 174.253906 32.949219 174 32.949219 Z M 174.332031 33.882812 L 174.890625 34.660156 L 174.417969 34.660156 L 173.917969 33.945312 L 173.484375 33.945312 L 173.484375 34.660156 L 173.089844 34.660156 L 173.089844 32.59375 L 174.015625 32.59375 C 174.496094 32.59375 174.8125 32.839844 174.8125 33.253906 C 174.8125 33.59375 174.617188 33.800781 174.332031 33.882812 Z M 173.894531 31.90625 C 172.882812 31.90625 172.117188 32.707031 172.117188 33.691406 C 172.117188 34.671875 172.878906 35.464844 173.882812 35.464844 C 174.894531 35.464844 175.660156 34.660156 175.660156 33.679688 C 175.660156 32.699219 174.898438 31.90625 173.894531 31.90625 Z M 173.882812 35.660156 C 172.773438 35.660156 171.910156 34.769531 171.910156 33.691406 C 171.910156 32.609375 172.785156 31.710938 173.894531 31.710938 C 175.003906 31.710938 175.867188 32.601562 175.867188 33.679688 C 175.867188 34.757812 174.992188 35.660156 173.882812 35.660156 " fill-opacity="1" fill-rule="nonzero"/></svg>