<svg xmlns="http://www.w3.org/2000/svg" xmlns:xlink="http://www.w3.org/1999/xlink" width="288" zoomAndPan="magnify" viewBox="0 0 216 72" height="96" preserveAspectRatio="xMidYMid meet" version="1.0"><defs><clipPath id="258e9364c7"><path d="M 70.003906 4.035156 L 134.503906 4.035156 L 134.503906 67.785156 L 70.003906 67.785156 Z M 70.003906 4.035156 " clip-rule="nonzero"/></clipPath></defs><g clip-path="url(#258e9364c7)"><path fill="#0068b5" d="M 70.003906 4.042969 L 134.503906 4.042969 L 134.503906 67.773438 L 70.003906 67.773438 Z M 70.003906 4.042969 " fill-opacity="1" fill-rule="nonzero"/></g><path fill="#00c7fd" d="M 78.027344 29.210938 L 81.570312 29.210938 L 81.570312 32.765625 L 78.027344 32.765625 Z M 78.027344 29.210938 " fill-opacity="1" fill-rule="nonzero"/><path fill="#ffffff" d="M 81.480469 47.695312 L 81.480469 34.917969 L 78.121094 34.917969 L 78.121094 47.695312 Z M 103.738281 47.828125 L 103.738281 44.703125 C 103.253906 44.703125 102.824219 44.683594 102.523438 44.628906 C 102.171875 44.570312 101.910156 44.460938 101.722656 44.273438 C 101.554688 44.105469 101.425781 43.84375 101.367188 43.523438 C 101.3125 43.207031 101.292969 42.792969 101.292969 42.289062 L 101.292969 37.816406 L 103.71875 37.816406 L 103.71875 34.917969 L 101.292969 34.917969 L 101.292969 29.921875 L 97.933594 29.921875 L 97.933594 42.289062 C 97.933594 43.335938 98.027344 44.214844 98.195312 44.925781 C 98.363281 45.621094 98.679688 46.179688 99.09375 46.609375 C 99.503906 47.042969 100.0625 47.339844 100.734375 47.527344 C 101.40625 47.714844 102.261719 47.808594 103.289062 47.808594 L 103.738281 47.808594 Z M 122.972656 47.695312 L 122.972656 28.949219 L 119.617188 28.949219 L 119.617188 47.695312 Z M 94.707031 36.171875 C 93.773438 35.160156 92.46875 34.65625 90.808594 34.65625 C 90.003906 34.65625 89.277344 34.824219 88.605469 35.140625 C 87.953125 35.476562 87.394531 35.925781 86.945312 36.507812 L 86.757812 36.75 L 86.757812 34.917969 L 83.4375 34.917969 L 83.4375 47.695312 L 86.777344 47.695312 L 86.777344 40.902344 L 86.777344 41.371094 C 86.777344 41.296875 86.777344 41.222656 86.777344 41.148438 C 86.816406 39.949219 87.113281 39.070312 87.65625 38.492188 C 88.25 37.890625 88.960938 37.574219 89.78125 37.574219 C 90.75 37.574219 91.5 37.875 91.984375 38.453125 C 92.46875 39.03125 92.710938 39.855469 92.710938 40.902344 L 92.710938 47.679688 L 96.105469 47.679688 L 96.105469 40.4375 C 96.125 38.621094 95.640625 37.179688 94.707031 36.171875 Z M 117.878906 41.277344 C 117.878906 40.363281 117.710938 39.5 117.394531 38.695312 C 117.058594 37.890625 116.613281 37.199219 116.050781 36.582031 C 115.472656 35.984375 114.78125 35.515625 113.980469 35.160156 C 113.179688 34.824219 112.28125 34.65625 111.3125 34.65625 C 110.398438 34.65625 109.523438 34.824219 108.71875 35.179688 C 107.917969 35.535156 107.207031 36 106.609375 36.601562 C 106.015625 37.199219 105.546875 37.910156 105.191406 38.714844 C 104.839844 39.519531 104.671875 40.398438 104.671875 41.316406 C 104.671875 42.234375 104.839844 43.113281 105.15625 43.917969 C 105.492188 44.722656 105.957031 45.433594 106.535156 46.03125 C 107.113281 46.628906 107.84375 47.097656 108.664062 47.453125 C 109.503906 47.808594 110.417969 47.976562 111.386719 47.976562 C 114.242188 47.976562 115.996094 46.667969 117.058594 45.46875 L 114.632812 43.617188 C 114.128906 44.214844 112.917969 45.039062 111.40625 45.039062 C 110.453125 45.039062 109.6875 44.832031 109.09375 44.382812 C 108.496094 43.953125 108.101562 43.355469 107.878906 42.605469 L 107.84375 42.496094 L 117.863281 42.496094 Z M 107.898438 40.117188 C 107.898438 39.183594 108.960938 37.554688 111.273438 37.535156 C 113.589844 37.535156 114.671875 39.164062 114.671875 40.101562 Z M 107.898438 40.117188 " fill-opacity="1" fill-rule="nonzero"/><path fill="#ffffff" d="M 126.816406 46.03125 C 126.761719 45.882812 126.667969 45.75 126.554688 45.636719 C 126.445312 45.527344 126.3125 45.433594 126.164062 45.375 C 126.015625 45.320312 125.847656 45.28125 125.679688 45.28125 C 125.511719 45.28125 125.34375 45.320312 125.195312 45.375 C 125.042969 45.433594 124.914062 45.527344 124.800781 45.636719 C 124.691406 45.75 124.597656 45.882812 124.542969 46.03125 C 124.484375 46.179688 124.449219 46.347656 124.449219 46.519531 C 124.449219 46.6875 124.484375 46.855469 124.542969 47.003906 C 124.597656 47.152344 124.691406 47.285156 124.800781 47.398438 C 124.914062 47.507812 125.042969 47.601562 125.195312 47.660156 C 125.34375 47.714844 125.511719 47.753906 125.679688 47.753906 C 125.847656 47.753906 126.015625 47.714844 126.164062 47.660156 C 126.3125 47.601562 126.445312 47.507812 126.554688 47.398438 C 126.667969 47.285156 126.761719 47.152344 126.816406 47.003906 C 126.875 46.855469 126.910156 46.6875 126.910156 46.519531 C 126.910156 46.347656 126.875 46.179688 126.816406 46.03125 Z M 126.613281 46.910156 C 126.554688 47.042969 126.480469 47.152344 126.40625 47.246094 C 126.332031 47.339844 126.203125 47.414062 126.070312 47.453125 C 125.941406 47.492188 125.828125 47.527344 125.660156 47.527344 C 125.53125 47.527344 125.378906 47.507812 125.25 47.453125 C 125.121094 47.398438 125.007812 47.320312 124.914062 47.246094 C 124.820312 47.171875 124.746094 47.042969 124.707031 46.910156 C 124.652344 46.78125 124.632812 46.667969 124.632812 46.5 C 124.632812 46.367188 124.652344 46.21875 124.707031 46.085938 C 124.765625 45.957031 124.839844 45.84375 124.914062 45.75 C 125.007812 45.65625 125.121094 45.582031 125.25 45.542969 C 125.378906 45.507812 125.492188 45.46875 125.660156 45.46875 C 125.792969 45.46875 125.941406 45.488281 126.070312 45.542969 C 126.203125 45.601562 126.3125 45.675781 126.40625 45.75 C 126.5 45.824219 126.574219 45.957031 126.613281 46.085938 C 126.667969 46.21875 126.6875 46.332031 126.6875 46.5 C 126.6875 46.667969 126.648438 46.796875 126.613281 46.910156 Z M 125.902344 46.609375 C 125.996094 46.59375 126.070312 46.554688 126.144531 46.5 C 126.21875 46.441406 126.238281 46.347656 126.238281 46.21875 C 126.238281 46.085938 126.203125 45.976562 126.109375 45.898438 C 126.035156 45.824219 125.902344 45.789062 125.734375 45.789062 L 125.175781 45.789062 L 125.175781 47.210938 L 125.4375 47.210938 L 125.4375 46.628906 L 125.625 46.628906 L 125.976562 47.210938 L 126.257812 47.210938 Z M 125.773438 46.40625 C 125.734375 46.40625 125.699219 46.40625 125.640625 46.40625 L 125.457031 46.40625 L 125.457031 45.992188 L 125.640625 45.992188 C 125.679688 45.992188 125.714844 45.992188 125.773438 45.992188 C 125.808594 45.992188 125.847656 46.011719 125.882812 46.011719 C 125.921875 46.03125 125.941406 46.050781 125.960938 46.070312 C 125.976562 46.085938 125.976562 46.125 125.976562 46.179688 C 125.976562 46.238281 125.960938 46.273438 125.960938 46.292969 C 125.941406 46.3125 125.902344 46.347656 125.882812 46.347656 C 125.847656 46.40625 125.808594 46.40625 125.773438 46.40625 Z M 125.773438 46.40625 " fill-opacity="1" fill-rule="nonzero"/></svg>