<svg xmlns="http://www.w3.org/2000/svg" xmlns:xlink="http://www.w3.org/1999/xlink" width="288" zoomAndPan="magnify" viewBox="0 0 216 72" height="96" preserveAspectRatio="xMidYMid meet" version="1.0"><defs><clipPath id="7dcf10a23f"><path d="M 77 26 L 169.90625 26 L 169.90625 45 L 77 45 Z M 77 26 " clip-rule="nonzero"/></clipPath><clipPath id="d86d49ecda"><path d="M 41.65625 22.265625 L 55 22.265625 L 55 36 L 41.65625 36 Z M 41.65625 22.265625 " clip-rule="nonzero"/></clipPath><clipPath id="ad55aa8e21"><path d="M 56 22.265625 L 70 22.265625 L 70 36 L 56 36 Z M 56 22.265625 " clip-rule="nonzero"/></clipPath><clipPath id="10e089e643"><path d="M 41.65625 36 L 55 36 L 55 50.015625 L 41.65625 50.015625 Z M 41.65625 36 " clip-rule="nonzero"/></clipPath><clipPath id="fe76155aba"><path d="M 56 36 L 70 36 L 70 50.015625 L 56 50.015625 Z M 56 36 " clip-rule="nonzero"/></clipPath></defs><g clip-path="url(#7dcf10a23f)"><path fill="#737373" d="M 86.929688 38.25 L 86.167969 40.445312 L 86.101562 40.445312 C 85.976562 39.949219 85.742188 39.195312 85.359375 38.292969 L 81.261719 27.859375 L 77.25 27.859375 L 77.25 44.488281 L 79.90625 44.488281 L 79.90625 34.226562 C 79.90625 33.582031 79.90625 32.851562 79.882812 31.945312 C 79.863281 31.496094 79.820312 31.152344 79.796875 30.890625 L 79.863281 30.890625 C 79.988281 31.539062 80.136719 32.011719 80.246094 32.3125 L 85.167969 44.445312 L 87.035156 44.445312 L 91.917969 32.203125 C 92.023438 31.925781 92.132812 31.367188 92.238281 30.890625 L 92.300781 30.890625 C 92.238281 32.117188 92.195312 33.214844 92.171875 33.882812 L 92.171875 44.421875 L 94.996094 44.421875 L 94.996094 27.816406 L 91.132812 27.816406 Z M 97.671875 32.503906 L 100.429688 32.503906 L 100.429688 44.421875 L 97.671875 44.421875 Z M 99.070312 27.472656 C 98.605469 27.472656 98.222656 27.644531 97.90625 27.945312 C 97.585938 28.246094 97.417969 28.632812 97.417969 29.105469 C 97.417969 29.558594 97.585938 29.945312 97.90625 30.246094 C 98.222656 30.546875 98.605469 30.699219 99.070312 30.699219 C 99.539062 30.699219 99.941406 30.527344 100.238281 30.246094 C 100.558594 29.945312 100.726562 29.558594 100.726562 29.105469 C 100.726562 28.65625 100.558594 28.269531 100.238281 27.945312 C 99.964844 27.644531 99.558594 27.472656 99.070312 27.472656 M 110.214844 32.398438 C 109.707031 32.289062 109.175781 32.226562 108.667969 32.226562 C 107.414062 32.226562 106.269531 32.503906 105.3125 33.066406 C 104.359375 33.625 103.59375 34.398438 103.105469 35.367188 C 102.597656 36.355469 102.339844 37.496094 102.339844 38.808594 C 102.339844 39.949219 102.597656 40.960938 103.085938 41.886719 C 103.570312 42.789062 104.25 43.519531 105.164062 44.015625 C 106.035156 44.507812 107.054688 44.765625 108.199219 44.765625 C 109.515625 44.765625 110.640625 44.488281 111.53125 43.972656 L 111.554688 43.949219 L 111.554688 41.367188 L 111.445312 41.453125 C 111.042969 41.753906 110.578125 42.015625 110.109375 42.164062 C 109.621094 42.335938 109.175781 42.421875 108.792969 42.421875 C 107.691406 42.421875 106.820312 42.101562 106.203125 41.390625 C 105.566406 40.703125 105.25 39.753906 105.25 38.570312 C 105.25 37.347656 105.566406 36.378906 106.226562 35.667969 C 106.882812 34.957031 107.753906 34.59375 108.816406 34.59375 C 109.707031 34.59375 110.621094 34.894531 111.445312 35.496094 L 111.554688 35.582031 L 111.554688 32.851562 L 111.53125 32.828125 C 111.171875 32.679688 110.769531 32.503906 110.214844 32.398438 M 119.320312 32.3125 C 118.644531 32.3125 118.007812 32.527344 117.453125 32.980469 C 116.988281 33.367188 116.667969 33.925781 116.394531 34.59375 L 116.371094 34.59375 L 116.371094 32.503906 L 113.613281 32.503906 L 113.613281 44.421875 L 116.371094 44.421875 L 116.371094 38.335938 C 116.371094 37.304688 116.582031 36.441406 117.050781 35.820312 C 117.519531 35.171875 118.113281 34.851562 118.832031 34.851562 C 119.089844 34.851562 119.34375 34.914062 119.660156 34.957031 C 119.957031 35.042969 120.171875 35.128906 120.320312 35.238281 L 120.425781 35.324219 L 120.425781 32.527344 L 120.363281 32.503906 C 120.171875 32.375 119.789062 32.3125 119.320312 32.3125 M 126.835938 32.246094 C 124.90625 32.246094 123.355469 32.828125 122.273438 33.96875 C 121.167969 35.109375 120.636719 36.679688 120.636719 38.65625 C 120.636719 40.507812 121.191406 42.015625 122.25 43.109375 C 123.3125 44.1875 124.757812 44.746094 126.558594 44.746094 C 128.449219 44.746094 129.957031 44.164062 131.039062 43.003906 C 132.144531 41.839844 132.671875 40.292969 132.671875 38.378906 C 132.671875 36.484375 132.164062 34.980469 131.125 33.882812 C 130.125 32.785156 128.660156 32.246094 126.835938 32.246094 M 129.042969 41.410156 C 128.535156 42.078125 127.726562 42.402344 126.730469 42.402344 C 125.734375 42.402344 124.925781 42.078125 124.351562 41.367188 C 123.78125 40.703125 123.503906 39.734375 123.503906 38.507812 C 123.503906 37.238281 123.800781 36.269531 124.351562 35.582031 C 124.925781 34.894531 125.710938 34.550781 126.707031 34.550781 C 127.683594 34.550781 128.449219 34.871094 129 35.539062 C 129.554688 36.207031 129.851562 37.171875 129.851562 38.441406 C 129.808594 39.734375 129.574219 40.746094 129.042969 41.410156 M 138.828125 37.453125 C 137.957031 37.085938 137.40625 36.808594 137.152344 36.570312 C 136.941406 36.355469 136.832031 36.054688 136.832031 35.667969 C 136.832031 35.34375 136.960938 35.023438 137.28125 34.808594 C 137.597656 34.59375 137.957031 34.484375 138.488281 34.484375 C 138.957031 34.484375 139.445312 34.570312 139.910156 34.699219 C 140.378906 34.828125 140.804688 35.023438 141.144531 35.28125 L 141.25 35.367188 L 141.25 32.742188 L 141.183594 32.722656 C 140.867188 32.589844 140.441406 32.460938 139.933594 32.355469 C 139.421875 32.269531 138.957031 32.226562 138.574219 32.226562 C 137.257812 32.226562 136.175781 32.546875 135.328125 33.257812 C 134.476562 33.925781 134.074219 34.828125 134.074219 35.882812 C 134.074219 36.441406 134.160156 36.9375 134.351562 37.347656 C 134.542969 37.753906 134.816406 38.140625 135.199219 38.464844 C 135.582031 38.765625 136.132812 39.109375 136.898438 39.433594 C 137.535156 39.710938 138.023438 39.925781 138.320312 40.097656 C 138.617188 40.269531 138.808594 40.464844 138.957031 40.617188 C 139.0625 40.789062 139.125 41.003906 139.125 41.28125 C 139.125 42.078125 138.53125 42.464844 137.320312 42.464844 C 136.855469 42.464844 136.367188 42.378906 135.792969 42.1875 C 135.21875 41.992188 134.691406 41.710938 134.246094 41.390625 L 134.136719 41.304688 L 134.136719 44.035156 L 134.203125 44.058594 C 134.605469 44.25 135.09375 44.378906 135.6875 44.53125 C 136.28125 44.636719 136.8125 44.722656 137.28125 44.722656 C 138.703125 44.722656 139.871094 44.402344 140.695312 43.691406 C 141.546875 43.003906 141.992188 42.121094 141.992188 40.980469 C 141.992188 40.183594 141.78125 39.476562 141.3125 38.9375 C 140.695312 38.421875 139.933594 37.882812 138.828125 37.453125 M 149.273438 32.246094 C 147.339844 32.246094 145.792969 32.828125 144.707031 33.96875 C 143.625 35.109375 143.074219 36.679688 143.074219 38.65625 C 143.074219 40.507812 143.625 42.015625 144.6875 43.109375 C 145.75 44.1875 147.191406 44.746094 148.996094 44.746094 C 150.886719 44.746094 152.394531 44.164062 153.476562 43.003906 C 154.578125 41.839844 155.109375 40.292969 155.109375 38.378906 C 155.109375 36.484375 154.601562 34.980469 153.558594 33.882812 C 152.5625 32.785156 151.097656 32.246094 149.273438 32.246094 M 151.457031 41.410156 C 150.949219 42.078125 150.144531 42.402344 149.144531 42.402344 C 148.125 42.402344 147.339844 42.078125 146.769531 41.367188 C 146.195312 40.703125 145.917969 39.734375 145.917969 38.507812 C 145.917969 37.238281 146.214844 36.269531 146.769531 35.582031 C 147.339844 34.894531 148.125 34.550781 149.125 34.550781 C 150.078125 34.550781 150.863281 34.871094 151.417969 35.539062 C 151.96875 36.207031 152.265625 37.171875 152.265625 38.441406 C 152.265625 39.734375 151.988281 40.746094 151.457031 41.410156 M 169.863281 34.808594 L 169.863281 32.503906 L 167.082031 32.503906 L 167.082031 28.976562 L 166.996094 29 L 164.363281 29.796875 L 164.300781 29.816406 L 164.300781 32.503906 L 160.140625 32.503906 L 160.140625 31 C 160.140625 30.3125 160.308594 29.773438 160.605469 29.429688 C 160.90625 29.085938 161.351562 28.914062 161.902344 28.914062 C 162.285156 28.914062 162.6875 29 163.132812 29.191406 L 163.238281 29.257812 L 163.238281 26.828125 L 163.175781 26.804688 C 162.792969 26.675781 162.285156 26.589844 161.625 26.589844 C 160.796875 26.589844 160.078125 26.785156 159.417969 27.105469 C 158.761719 27.472656 158.273438 27.964844 157.910156 28.632812 C 157.550781 29.277344 157.359375 30.011719 157.359375 30.847656 L 157.359375 32.503906 L 155.429688 32.503906 L 155.429688 34.785156 L 157.359375 34.785156 L 157.359375 44.421875 L 160.140625 44.421875 L 160.140625 34.808594 L 164.300781 34.808594 L 164.300781 40.9375 C 164.300781 43.457031 165.46875 44.722656 167.804688 44.722656 C 168.183594 44.722656 168.589844 44.660156 168.96875 44.59375 C 169.375 44.507812 169.671875 44.402344 169.839844 44.316406 L 169.863281 44.292969 L 169.863281 41.992188 L 169.757812 42.078125 C 169.585938 42.1875 169.4375 42.273438 169.183594 42.335938 C 168.96875 42.402344 168.78125 42.421875 168.632812 42.421875 C 168.078125 42.421875 167.695312 42.292969 167.421875 41.972656 C 167.167969 41.667969 167.039062 41.175781 167.039062 40.445312 L 167.039062 34.808594 Z M 169.863281 34.808594 " fill-opacity="1" fill-rule="nonzero"/></g><g clip-path="url(#d86d49ecda)"><path fill="#f25022" d="M 41.675781 22.265625 L 54.6875 22.265625 L 54.6875 35.453125 L 41.675781 35.453125 Z M 41.675781 22.265625 " fill-opacity="1" fill-rule="nonzero"/></g><g clip-path="url(#ad55aa8e21)"><path fill="#7fba00" d="M 56.046875 22.265625 L 69.058594 22.265625 L 69.058594 35.453125 L 56.046875 35.453125 Z M 56.046875 22.265625 " fill-opacity="1" fill-rule="nonzero"/></g><g clip-path="url(#10e089e643)"><path fill="#00a4ef" d="M 41.675781 36.828125 L 54.6875 36.828125 L 54.6875 50.015625 L 41.675781 50.015625 Z M 41.675781 36.828125 " fill-opacity="1" fill-rule="nonzero"/></g><g clip-path="url(#fe76155aba)"><path fill="#ffb900" d="M 56.046875 36.828125 L 69.058594 36.828125 L 69.058594 50.015625 L 56.046875 50.015625 Z M 56.046875 36.828125 " fill-opacity="1" fill-rule="nonzero"/></g></svg>