<svg xmlns="http://www.w3.org/2000/svg" xmlns:xlink="http://www.w3.org/1999/xlink" width="468" zoomAndPan="magnify" viewBox="0 0 351 350.250003" height="467" preserveAspectRatio="xMidYMid meet" version="1.0"><defs><clipPath id="b38fdc6c8a"><path d="M 65.300781 57 L 277.84375 57 L 277.84375 273 L 65.300781 273 Z M 65.300781 57 " clip-rule="nonzero"/></clipPath></defs><g clip-path="url(#b38fdc6c8a)"><path fill="#000000" d="M 263.746094 145.3125 C 268.535156 130.691406 266.9375 114.472656 259.226562 101.179688 C 247.519531 80.710938 223.84375 70.339844 200.703125 75.128906 C 190.59375 63.695312 175.695312 57.316406 160.269531 57.316406 C 136.59375 57.316406 115.84375 72.46875 108.394531 94.800781 C 93.230469 97.988281 80.199219 107.292969 72.484375 120.851562 C 60.777344 141.324219 63.4375 166.84375 79.132812 184.390625 C 74.34375 199.277344 76.207031 215.230469 83.921875 228.523438 C 95.625 248.992188 119.300781 259.625 142.445312 254.574219 C 152.820312 266.007812 167.449219 272.652344 182.878906 272.652344 C 206.554688 272.652344 227.304688 257.5 234.75 235.167969 C 249.914062 231.976562 262.949219 222.671875 270.664062 209.117188 C 282.367188 188.644531 279.707031 162.855469 263.746094 145.3125 Z M 182.878906 258.5625 C 173.300781 258.5625 164.257812 255.375 157.074219 249.257812 C 157.339844 248.992188 158.140625 248.726562 158.40625 248.460938 L 201.234375 223.738281 C 203.363281 222.40625 204.691406 220.28125 204.691406 217.621094 L 204.691406 157.273438 L 222.78125 167.644531 C 223.046875 167.644531 223.046875 167.910156 223.046875 168.175781 L 223.046875 218.152344 C 223.3125 240.484375 205.222656 258.5625 182.878906 258.5625 Z M 96.160156 221.609375 C 91.371094 213.367188 89.773438 203.796875 91.371094 194.492188 C 91.636719 194.757812 92.167969 195.023438 92.699219 195.292969 L 135.527344 220.015625 C 137.65625 221.34375 140.316406 221.34375 142.445312 220.015625 L 194.847656 189.707031 L 194.847656 210.710938 C 194.847656 210.976562 194.847656 211.242188 194.582031 211.242188 L 151.222656 236.230469 C 132.070312 247.398438 107.332031 240.75 96.160156 221.609375 Z M 84.984375 128.03125 C 89.773438 119.789062 97.222656 113.675781 106 110.21875 L 106 161.261719 C 106 163.65625 107.332031 166.046875 109.460938 167.375 L 161.863281 197.683594 L 143.773438 208.050781 C 143.507812 208.050781 143.242188 208.316406 143.242188 208.050781 L 99.882812 183.0625 C 80.199219 171.894531 73.8125 147.171875 84.984375 128.03125 Z M 233.953125 162.589844 L 181.546875 132.285156 L 199.636719 121.917969 C 199.902344 121.917969 200.167969 121.652344 200.167969 121.917969 L 243.53125 146.90625 C 262.949219 158.070312 269.332031 182.796875 258.160156 201.9375 C 253.371094 210.179688 245.925781 216.292969 237.144531 219.484375 L 237.144531 168.707031 C 237.410156 166.3125 236.082031 163.921875 233.953125 162.589844 Z M 251.777344 135.476562 C 251.511719 135.210938 250.976562 134.941406 250.445312 134.675781 L 207.617188 109.953125 C 205.488281 108.625 202.828125 108.625 200.703125 109.953125 L 148.296875 140.261719 L 148.296875 119.257812 C 148.296875 118.992188 148.296875 118.726562 148.5625 118.726562 L 191.921875 93.738281 C 211.34375 82.570312 235.816406 89.21875 246.988281 108.625 C 251.777344 116.597656 253.371094 126.171875 251.777344 135.476562 Z M 138.453125 172.695312 L 120.367188 162.324219 C 120.097656 162.324219 120.097656 162.058594 120.097656 161.792969 L 120.097656 111.8125 C 120.097656 89.484375 138.1875 71.40625 160.535156 71.40625 C 170.109375 71.40625 179.15625 74.59375 186.335938 80.710938 C 186.070312 80.976562 185.539062 81.242188 185.007812 81.507812 L 142.179688 106.230469 C 140.050781 107.5625 138.71875 109.6875 138.71875 112.347656 L 138.71875 172.695312 Z M 148.296875 151.425781 L 171.707031 137.867188 L 195.117188 151.425781 L 195.117188 178.277344 L 171.707031 191.835938 L 148.296875 178.277344 Z M 148.296875 151.425781 " fill-opacity="1" fill-rule="nonzero"/></g></svg>