<svg xmlns="http://www.w3.org/2000/svg" xmlns:xlink="http://www.w3.org/1999/xlink" width="288" zoomAndPan="magnify" viewBox="0 0 216 72" height="96" preserveAspectRatio="xMidYMid meet" version="1.0"><path fill="#2a4c87" d="M 135.148438 32.3125 C 135.523438 33.742188 136.988281 34.597656 138.433594 34.207031 C 139.863281 33.832031 140.71875 32.367188 140.324219 30.921875 C 139.949219 29.492188 138.488281 28.636719 137.042969 29.027344 C 135.632812 29.421875 134.773438 30.886719 135.148438 32.3125 Z M 135.148438 32.3125 " fill-opacity="1" fill-rule="nonzero"/><path fill="#2a4c87" d="M 131.527344 35.167969 C 132.488281 34.902344 133.078125 33.902344 132.8125 32.9375 C 132.542969 31.972656 131.542969 31.386719 130.578125 31.652344 C 129.617188 31.921875 129.027344 32.921875 129.292969 33.882812 C 129.542969 34.847656 130.542969 35.417969 131.527344 35.167969 Z M 131.527344 35.167969 " fill-opacity="1" fill-rule="nonzero"/><path fill="#2a4c87" d="M 126.171875 36.097656 C 126.886719 35.902344 127.3125 35.167969 127.117188 34.457031 C 126.921875 33.742188 126.1875 33.3125 125.476562 33.507812 C 124.761719 33.707031 124.332031 34.4375 124.527344 35.152344 C 124.726562 35.867188 125.457031 36.292969 126.171875 36.097656 Z M 126.171875 36.097656 " fill-opacity="1" fill-rule="nonzero"/><path fill="#2e4e88" d="M 122.011719 36.722656 C 122.457031 36.597656 122.726562 36.132812 122.617188 35.6875 C 122.511719 35.242188 122.03125 34.972656 121.582031 35.082031 C 121.136719 35.207031 120.871094 35.667969 120.976562 36.117188 C 121.082031 36.5625 121.546875 36.828125 122.011719 36.722656 Z M 122.011719 36.722656 " fill-opacity="1" fill-rule="nonzero"/><path fill="#1f3d70" d="M 133.167969 26.886719 C 133.847656 28.046875 135.328125 28.457031 136.488281 27.78125 C 137.648438 27.101562 138.058594 25.621094 137.378906 24.460938 C 136.703125 23.300781 135.222656 22.890625 134.058594 23.566406 C 132.898438 24.246094 132.488281 25.726562 133.167969 26.886719 Z M 133.167969 26.886719 " fill-opacity="1" fill-rule="nonzero"/><path fill="#1f3d70" d="M 127.796875 29.976562 C 128.257812 30.796875 129.292969 31.0625 130.117188 30.601562 C 130.9375 30.136719 131.203125 29.101562 130.742188 28.28125 C 130.277344 27.457031 129.242188 27.191406 128.417969 27.65625 C 127.617188 28.117188 127.332031 29.152344 127.796875 29.976562 Z M 127.796875 29.976562 " fill-opacity="1" fill-rule="nonzero"/><path fill="#1f3d70" d="M 123.976562 30.777344 C 123.386719 31.117188 123.191406 31.847656 123.527344 32.4375 C 123.867188 33.027344 124.601562 33.222656 125.1875 32.886719 C 125.777344 32.546875 125.972656 31.8125 125.636719 31.226562 C 125.3125 30.652344 124.5625 30.457031 123.976562 30.777344 Z M 123.976562 30.777344 " fill-opacity="1" fill-rule="nonzero"/><path fill="#1f3d70" d="M 120.566406 33.242188 C 120.191406 33.457031 120.046875 33.9375 120.261719 34.3125 C 120.476562 34.6875 120.957031 34.832031 121.332031 34.617188 C 121.707031 34.402344 121.851562 33.921875 121.636719 33.546875 C 121.421875 33.171875 120.941406 33.027344 120.566406 33.242188 Z M 120.566406 33.242188 " fill-opacity="1" fill-rule="nonzero"/><path fill="#194c88" d="M 132.898438 22.121094 C 133.757812 21.265625 133.757812 19.890625 132.898438 19.035156 C 132.042969 18.175781 130.667969 18.175781 129.8125 19.035156 C 128.957031 19.890625 128.957031 21.265625 129.8125 22.121094 C 130.652344 22.976562 132.042969 22.976562 132.898438 22.121094 Z M 132.898438 22.121094 " fill-opacity="1" fill-rule="nonzero"/><path fill="#194c88" d="M 127.5625 24.351562 C 126.9375 23.726562 125.9375 23.726562 125.332031 24.351562 C 124.707031 24.976562 124.707031 25.976562 125.332031 26.582031 C 125.957031 27.207031 126.957031 27.207031 127.5625 26.582031 C 128.1875 25.960938 128.1875 24.960938 127.5625 24.351562 Z M 127.5625 24.351562 " fill-opacity="1" fill-rule="nonzero"/><path fill="#194c88" d="M 121.851562 28.511719 C 121.421875 28.941406 121.421875 29.636719 121.851562 30.066406 C 122.28125 30.492188 122.976562 30.492188 123.402344 30.066406 C 123.832031 29.636719 123.832031 28.941406 123.402344 28.53125 C 122.976562 28.082031 122.28125 28.082031 121.851562 28.511719 Z M 121.851562 28.511719 " fill-opacity="1" fill-rule="nonzero"/><path fill="#194c88" d="M 119.15625 32.761719 C 119.441406 33.046875 119.90625 33.046875 120.191406 32.761719 C 120.476562 32.472656 120.476562 32.011719 120.191406 31.726562 C 119.90625 31.4375 119.441406 31.4375 119.15625 31.726562 C 118.871094 32.011719 118.871094 32.472656 119.15625 32.761719 Z M 119.15625 32.761719 " fill-opacity="1" fill-rule="nonzero"/><path fill="#3468a3" d="M 125.207031 18.445312 C 126.1875 19.015625 127.457031 18.675781 128.027344 17.695312 C 128.597656 16.710938 128.257812 15.445312 127.277344 14.875 C 126.296875 14.304688 125.027344 14.640625 124.457031 15.625 C 123.867188 16.605469 124.207031 17.871094 125.207031 18.445312 C 125.1875 18.445312 125.207031 18.445312 125.207031 18.445312 Z M 125.207031 18.445312 " fill-opacity="1" fill-rule="nonzero"/><path fill="#3468a3" d="M 121.511719 21.925781 C 121.101562 22.621094 121.351562 23.511719 122.046875 23.925781 C 122.742188 24.335938 123.636719 24.085938 124.046875 23.390625 C 124.457031 22.691406 124.207031 21.800781 123.511719 21.390625 C 122.796875 20.980469 121.90625 21.230469 121.511719 21.925781 Z M 121.511719 21.925781 " fill-opacity="1" fill-rule="nonzero"/><path fill="#3468a3" d="M 120.546875 26.496094 C 120.082031 26.226562 119.496094 26.386719 119.226562 26.851562 C 118.960938 27.316406 119.121094 27.90625 119.585938 28.171875 C 120.046875 28.441406 120.636719 28.28125 120.90625 27.816406 C 121.171875 27.351562 121.011719 26.761719 120.546875 26.496094 Z M 120.546875 26.496094 " fill-opacity="1" fill-rule="nonzero"/><path fill="#3468a3" d="M 118.300781 30.386719 C 117.976562 30.207031 117.566406 30.316406 117.386719 30.636719 C 117.210938 30.957031 117.316406 31.367188 117.636719 31.546875 C 117.960938 31.726562 118.371094 31.617188 118.550781 31.296875 C 118.726562 30.976562 118.621094 30.5625 118.300781 30.386719 Z M 118.300781 30.386719 " fill-opacity="1" fill-rule="nonzero"/><path fill="#4c8dcb" d="M 119.78125 16.070312 C 120.816406 16.355469 121.886719 15.730469 122.15625 14.695312 C 122.441406 13.660156 121.816406 12.589844 120.78125 12.320312 C 119.746094 12.054688 118.671875 12.660156 118.40625 13.695312 C 118.121094 14.730469 118.746094 15.800781 119.78125 16.070312 Z M 119.78125 16.070312 " fill-opacity="1" fill-rule="nonzero"/><path fill="#4c8dcb" d="M 118.136719 22.175781 C 118.851562 22.371094 119.585938 21.941406 119.78125 21.230469 C 119.976562 20.515625 119.546875 19.78125 118.835938 19.585938 C 118.121094 19.390625 117.386719 19.820312 117.191406 20.53125 C 117.015625 21.246094 117.425781 21.980469 118.136719 22.175781 Z M 118.136719 22.175781 " fill-opacity="1" fill-rule="nonzero"/><path fill="#4c8dcb" d="M 116.851562 26.996094 C 117.335938 27.121094 117.835938 26.832031 117.960938 26.351562 C 118.085938 25.871094 117.800781 25.371094 117.316406 25.246094 C 116.835938 25.121094 116.335938 25.40625 116.210938 25.886719 C 116.085938 26.351562 116.371094 26.851562 116.851562 26.996094 Z M 116.851562 26.996094 " fill-opacity="1" fill-rule="nonzero"/><path fill="#4c8dcb" d="M 115.425781 29.992188 C 115.335938 30.316406 115.53125 30.652344 115.851562 30.742188 C 116.175781 30.832031 116.515625 30.636719 116.601562 30.316406 C 116.691406 29.992188 116.496094 29.652344 116.175781 29.566406 C 115.835938 29.476562 115.496094 29.671875 115.425781 29.992188 Z M 115.425781 29.992188 " fill-opacity="1" fill-rule="nonzero"/><path fill="#3498b3" d="M 113.890625 15.175781 C 114.890625 15.175781 115.710938 14.355469 115.710938 13.355469 C 115.710938 12.355469 114.890625 11.535156 113.890625 11.535156 C 112.890625 11.535156 112.070312 12.355469 112.070312 13.355469 C 112.070312 14.375 112.890625 15.175781 113.890625 15.175781 Z M 113.890625 15.175781 " fill-opacity="1" fill-rule="nonzero"/><path fill="#3498b3" d="M 113.890625 19.070312 C 113.210938 19.070312 112.675781 19.605469 112.675781 20.28125 C 112.675781 20.960938 113.210938 21.496094 113.890625 21.496094 C 114.566406 21.496094 115.105469 20.960938 115.105469 20.28125 C 115.105469 19.621094 114.566406 19.070312 113.890625 19.070312 Z M 113.890625 19.070312 " fill-opacity="1" fill-rule="nonzero"/><path fill="#3498b3" d="M 114.746094 25.691406 C 114.746094 25.226562 114.371094 24.835938 113.890625 24.835938 C 113.40625 24.835938 113.035156 25.210938 113.035156 25.691406 C 113.035156 26.171875 113.40625 26.546875 113.890625 26.546875 C 114.371094 26.546875 114.746094 26.15625 114.746094 25.691406 Z M 114.746094 25.691406 " fill-opacity="1" fill-rule="nonzero"/><path fill="#3498b3" d="M 113.890625 29.332031 C 113.585938 29.332031 113.335938 29.582031 113.335938 29.886719 C 113.335938 30.191406 113.585938 30.4375 113.890625 30.4375 C 114.195312 30.4375 114.445312 30.191406 114.445312 29.886719 C 114.445312 29.582031 114.195312 29.332031 113.890625 29.332031 Z M 113.890625 29.332031 " fill-opacity="1" fill-rule="nonzero"/><path fill="#0aa496" d="M 107.945312 15.855469 C 108.855469 15.605469 109.390625 14.679688 109.140625 13.765625 C 108.890625 12.855469 107.964844 12.320312 107.054688 12.570312 C 106.144531 12.820312 105.609375 13.75 105.859375 14.660156 C 106.105469 15.550781 107.054688 16.089844 107.945312 15.855469 Z M 107.945312 15.855469 " fill-opacity="1" fill-rule="nonzero"/><path fill="#0aa496" d="M 108.25 21.175781 C 108.410156 21.765625 109 22.101562 109.589844 21.941406 C 110.175781 21.78125 110.515625 21.191406 110.355469 20.605469 C 110.195312 20.015625 109.605469 19.675781 109.015625 19.835938 C 108.445312 19.996094 108.089844 20.605469 108.25 21.175781 Z M 108.25 21.175781 " fill-opacity="1" fill-rule="nonzero"/><path fill="#0aa496" d="M 109.945312 26.332031 C 110.050781 26.761719 110.5 27.011719 110.910156 26.886719 C 111.335938 26.78125 111.585938 26.332031 111.460938 25.921875 C 111.355469 25.496094 110.910156 25.246094 110.5 25.371094 C 110.070312 25.476562 109.839844 25.90625 109.945312 26.332031 C 109.945312 26.316406 109.945312 26.316406 109.945312 26.332031 Z M 109.945312 26.332031 " fill-opacity="1" fill-rule="nonzero"/><path fill="#0aa496" d="M 111.320312 30.296875 C 111.390625 30.5625 111.660156 30.707031 111.910156 30.636719 C 112.175781 30.5625 112.320312 30.296875 112.246094 30.046875 C 112.175781 29.777344 111.910156 29.636719 111.660156 29.707031 C 111.410156 29.777344 111.25 30.027344 111.320312 30.296875 Z M 111.320312 30.296875 " fill-opacity="1" fill-rule="nonzero"/><path fill="#00aa75" d="M 102.359375 18.050781 C 103.109375 17.625 103.375 16.640625 102.949219 15.890625 C 102.519531 15.140625 101.539062 14.875 100.789062 15.300781 C 100.039062 15.730469 99.769531 16.710938 100.199219 17.460938 C 100.644531 18.230469 101.609375 18.480469 102.359375 18.050781 Z M 102.359375 18.050781 " fill-opacity="1" fill-rule="nonzero"/><path fill="#00aa75" d="M 105.519531 23.511719 C 105.984375 23.246094 106.144531 22.65625 105.875 22.191406 C 105.609375 21.730469 105.019531 21.566406 104.554688 21.835938 C 104.089844 22.101562 103.929688 22.691406 104.199219 23.15625 C 104.449219 23.621094 105.054688 23.78125 105.519531 23.511719 Z M 105.519531 23.511719 " fill-opacity="1" fill-rule="nonzero"/><path fill="#00aa75" d="M 108.089844 27.992188 C 108.445312 27.796875 108.554688 27.351562 108.355469 26.996094 C 108.160156 26.636719 107.714844 26.53125 107.355469 26.726562 C 107 26.921875 106.894531 27.371094 107.089844 27.726562 C 107.304688 28.066406 107.75 28.191406 108.089844 27.992188 Z M 108.089844 27.992188 " fill-opacity="1" fill-rule="nonzero"/><path fill="#00aa75" d="M 110.195312 30.777344 C 110.070312 30.582031 109.820312 30.511719 109.605469 30.617188 C 109.410156 30.742188 109.339844 30.992188 109.445312 31.207031 C 109.570312 31.402344 109.820312 31.476562 110.015625 31.367188 C 110.25 31.242188 110.320312 30.976562 110.195312 30.777344 Z M 110.195312 30.777344 " fill-opacity="1" fill-rule="nonzero"/><path fill="#4fba6a" d="M 97.484375 21.640625 C 98.058594 21.066406 98.058594 20.140625 97.484375 19.570312 C 96.914062 18.996094 95.988281 18.996094 95.414062 19.570312 C 94.84375 20.140625 94.84375 21.066406 95.414062 21.640625 C 96.003906 22.210938 96.933594 22.210938 97.484375 21.640625 Z M 97.484375 21.640625 " fill-opacity="1" fill-rule="nonzero"/><path fill="#4fba6a" d="M 101.964844 24.90625 C 101.628906 24.566406 101.089844 24.566406 100.769531 24.90625 C 100.429688 25.246094 100.429688 25.78125 100.769531 26.101562 C 101.109375 26.441406 101.644531 26.441406 101.964844 26.101562 C 102.289062 25.761719 102.289062 25.226562 101.964844 24.90625 Z M 101.964844 24.90625 " fill-opacity="1" fill-rule="nonzero"/><path fill="#4fba6a" d="M 105.660156 28.851562 C 105.394531 28.582031 104.984375 28.582031 104.714844 28.851562 C 104.449219 29.117188 104.449219 29.527344 104.714844 29.796875 C 104.984375 30.066406 105.394531 30.066406 105.660156 29.796875 C 105.910156 29.527344 105.910156 29.117188 105.660156 28.851562 Z M 105.660156 28.851562 " fill-opacity="1" fill-rule="nonzero"/><path fill="#4fba6a" d="M 108.410156 32.027344 C 108.265625 31.886719 108.035156 31.902344 107.910156 32.046875 C 107.765625 32.1875 107.785156 32.421875 107.929688 32.546875 C 108.070312 32.671875 108.285156 32.671875 108.429688 32.546875 C 108.554688 32.402344 108.554688 32.171875 108.410156 32.027344 Z M 108.410156 32.027344 " fill-opacity="1" fill-rule="nonzero"/><path fill="#7ec45f" d="M 91.84375 26.832031 C 92.488281 27.207031 93.308594 26.976562 93.664062 26.351562 C 94.039062 25.710938 93.808594 24.886719 93.183594 24.53125 C 92.542969 24.15625 91.71875 24.386719 91.363281 25.011719 C 90.988281 25.636719 91.203125 26.457031 91.84375 26.832031 Z M 91.84375 26.832031 " fill-opacity="1" fill-rule="nonzero"/><path fill="#7ec45f" d="M 98.914062 28.546875 C 98.558594 28.351562 98.128906 28.476562 97.914062 28.816406 C 97.71875 29.171875 97.84375 29.601562 98.183594 29.816406 C 98.539062 30.011719 98.96875 29.902344 99.179688 29.546875 C 99.378906 29.191406 99.253906 28.742188 98.914062 28.546875 Z M 98.914062 28.546875 " fill-opacity="1" fill-rule="nonzero"/><path fill="#7ec45f" d="M 103.535156 31.351562 C 103.25 31.1875 102.875 31.277344 102.714844 31.582031 C 102.554688 31.867188 102.644531 32.242188 102.949219 32.402344 C 103.234375 32.5625 103.609375 32.472656 103.769531 32.1875 C 103.929688 31.902344 103.824219 31.527344 103.535156 31.351562 Z M 103.535156 31.351562 " fill-opacity="1" fill-rule="nonzero"/><path fill="#4c609b" d="M 138.59375 35.082031 C 136.988281 35.082031 135.667969 36.382812 135.667969 38.007812 C 135.667969 39.613281 136.96875 40.933594 138.59375 40.933594 C 140.199219 40.933594 141.503906 39.632812 141.523438 38.027344 C 141.503906 36.402344 140.199219 35.082031 138.59375 35.082031 Z M 138.59375 35.082031 " fill-opacity="1" fill-rule="nonzero"/><path fill="#4c609b" d="M 133.757812 38.007812 C 133.757812 36.847656 132.828125 35.917969 131.667969 35.917969 C 130.507812 35.917969 129.582031 36.847656 129.582031 38.007812 C 129.582031 39.167969 130.507812 40.097656 131.667969 40.097656 C 132.8125 40.097656 133.757812 39.167969 133.757812 38.007812 Z M 133.757812 38.007812 " fill-opacity="1" fill-rule="nonzero"/><path fill="#4c609b" d="M 126.261719 36.578125 C 125.476562 36.578125 124.832031 37.222656 124.832031 38.007812 C 124.832031 38.792969 125.476562 39.4375 126.261719 39.4375 C 127.046875 39.4375 127.6875 38.792969 127.6875 38.007812 C 127.6875 37.222656 127.046875 36.578125 126.261719 36.578125 Z M 126.261719 36.578125 " fill-opacity="1" fill-rule="nonzero"/><path fill="#54669f" d="M 122.992188 38.007812 C 122.992188 37.488281 122.582031 37.078125 122.066406 37.078125 C 121.546875 37.078125 121.136719 37.488281 121.136719 38.007812 C 121.136719 38.527344 121.546875 38.9375 122.066406 38.9375 C 122.582031 38.9375 122.992188 38.527344 122.992188 38.007812 Z M 122.992188 38.007812 " fill-opacity="1" fill-rule="nonzero"/><path fill="#746fa7" d="M 138.433594 41.792969 C 137.003906 41.398438 135.542969 42.257812 135.148438 43.683594 C 134.757812 45.113281 135.613281 46.574219 137.042969 46.96875 C 138.46875 47.359375 139.933594 46.503906 140.324219 45.078125 C 140.324219 45.078125 140.324219 45.078125 140.324219 45.058594 C 140.699219 43.648438 139.84375 42.183594 138.433594 41.792969 Z M 138.433594 41.792969 " fill-opacity="1" fill-rule="nonzero"/><path fill="#746fa7" d="M 130.578125 44.34375 C 131.542969 44.613281 132.542969 44.023438 132.8125 43.058594 C 133.078125 42.09375 132.488281 41.097656 131.527344 40.828125 C 130.5625 40.558594 129.5625 41.148438 129.292969 42.113281 C 129.027344 43.078125 129.597656 44.078125 130.578125 44.34375 Z M 130.578125 44.34375 " fill-opacity="1" fill-rule="nonzero"/><path fill="#746fa7" d="M 125.476562 42.488281 C 126.1875 42.683594 126.921875 42.257812 127.117188 41.542969 C 127.3125 40.828125 126.886719 40.097656 126.171875 39.898438 C 125.457031 39.703125 124.726562 40.132812 124.527344 40.847656 C 124.351562 41.558594 124.761719 42.292969 125.476562 42.488281 Z M 125.476562 42.488281 " fill-opacity="1" fill-rule="nonzero"/><path fill="#746fa7" d="M 121.566406 40.933594 C 122.011719 41.058594 122.476562 40.792969 122.601562 40.328125 C 122.726562 39.882812 122.457031 39.417969 121.992188 39.292969 C 121.546875 39.167969 121.082031 39.4375 120.957031 39.898438 C 120.832031 40.328125 121.101562 40.808594 121.566406 40.933594 C 121.566406 40.917969 121.566406 40.917969 121.566406 40.933594 Z M 121.566406 40.933594 " fill-opacity="1" fill-rule="nonzero"/><path fill="#99558e" d="M 136.488281 48.21875 C 135.328125 47.539062 133.847656 47.949219 133.167969 49.109375 C 132.488281 50.269531 132.898438 51.753906 134.058594 52.429688 C 135.222656 53.109375 136.703125 52.699219 137.378906 51.539062 C 138.042969 50.378906 137.648438 48.894531 136.488281 48.21875 Z M 136.488281 48.21875 " fill-opacity="1" fill-rule="nonzero"/><path fill="#99558e" d="M 130.757812 47.71875 C 131.222656 46.898438 130.953125 45.863281 130.132812 45.398438 C 129.3125 44.933594 128.277344 45.203125 127.8125 46.023438 C 127.347656 46.84375 127.617188 47.878906 128.4375 48.34375 C 129.242188 48.808594 130.277344 48.519531 130.757812 47.71875 Z M 130.757812 47.71875 " fill-opacity="1" fill-rule="nonzero"/><path fill="#99558e" d="M 125.636719 44.773438 C 125.972656 44.183594 125.777344 43.453125 125.1875 43.113281 C 124.601562 42.773438 123.867188 42.96875 123.527344 43.558594 C 123.191406 44.148438 123.386719 44.878906 123.976562 45.21875 C 124.5625 45.539062 125.296875 45.34375 125.636719 44.773438 Z M 125.636719 44.773438 " fill-opacity="1" fill-rule="nonzero"/><path fill="#99558e" d="M 121.65625 42.453125 C 121.867188 42.078125 121.742188 41.59375 121.371094 41.363281 C 120.996094 41.148438 120.511719 41.273438 120.28125 41.648438 C 120.046875 42.023438 120.191406 42.507812 120.566406 42.738281 C 120.566406 42.738281 120.566406 42.738281 120.582031 42.738281 C 120.957031 42.953125 121.441406 42.828125 121.65625 42.453125 Z M 121.65625 42.453125 " fill-opacity="1" fill-rule="nonzero"/><path fill="#af3379" d="M 129.792969 53.875 C 128.9375 54.734375 128.9375 56.109375 129.792969 56.964844 C 130.652344 57.820312 132.027344 57.820312 132.882812 56.964844 C 133.738281 56.109375 133.738281 54.734375 132.882812 53.875 C 132.042969 53.039062 130.652344 53.039062 129.792969 53.875 Z M 129.792969 53.875 " fill-opacity="1" fill-rule="nonzero"/><path fill="#af3379" d="M 127.5625 51.644531 C 128.1875 51.019531 128.1875 50.019531 127.5625 49.414062 C 126.9375 48.789062 125.9375 48.789062 125.332031 49.414062 C 124.707031 50.039062 124.707031 51.039062 125.332031 51.644531 C 125.9375 52.269531 126.9375 52.269531 127.5625 51.644531 Z M 127.5625 51.644531 " fill-opacity="1" fill-rule="nonzero"/><path fill="#af3379" d="M 123.402344 47.484375 C 123.832031 47.058594 123.832031 46.363281 123.402344 45.933594 C 122.976562 45.503906 122.28125 45.503906 121.851562 45.933594 C 121.421875 46.363281 121.421875 47.058594 121.851562 47.46875 C 122.28125 47.914062 122.976562 47.914062 123.402344 47.484375 Z M 123.402344 47.484375 " fill-opacity="1" fill-rule="nonzero"/><path fill="#af3379" d="M 119.15625 44.253906 C 119.441406 44.539062 119.90625 44.539062 120.191406 44.253906 C 120.476562 43.96875 120.476562 43.503906 120.191406 43.21875 C 119.90625 42.933594 119.441406 42.933594 119.15625 43.21875 C 118.871094 43.503906 118.871094 43.96875 119.15625 44.253906 Z M 119.15625 44.253906 " fill-opacity="1" fill-rule="nonzero"/><path fill="#be266a" d="M 125.207031 57.554688 C 124.226562 58.125 123.886719 59.390625 124.457031 60.375 C 125.027344 61.355469 126.296875 61.695312 127.277344 61.125 C 128.257812 60.550781 128.597656 59.285156 128.027344 58.304688 C 127.457031 57.320312 126.1875 56.980469 125.207031 57.554688 Z M 125.207031 57.554688 " fill-opacity="1" fill-rule="nonzero"/><path fill="#be266a" d="M 124.027344 52.628906 C 123.617188 51.929688 122.742188 51.679688 122.03125 52.089844 C 121.332031 52.503906 121.082031 53.375 121.492188 54.089844 C 121.90625 54.785156 122.78125 55.035156 123.492188 54.625 C 124.191406 54.214844 124.4375 53.324219 124.027344 52.628906 Z M 124.027344 52.628906 " fill-opacity="1" fill-rule="nonzero"/><path fill="#be266a" d="M 120.546875 49.503906 C 121.011719 49.234375 121.171875 48.644531 120.90625 48.183594 C 120.636719 47.71875 120.046875 47.558594 119.585938 47.824219 C 119.121094 48.09375 118.960938 48.683594 119.226562 49.144531 C 119.496094 49.609375 120.082031 49.769531 120.546875 49.503906 Z M 120.546875 49.503906 " fill-opacity="1" fill-rule="nonzero"/><path fill="#be266a" d="M 117.636719 44.453125 C 117.316406 44.628906 117.210938 45.039062 117.386719 45.363281 C 117.566406 45.683594 117.976562 45.789062 118.300781 45.613281 C 118.621094 45.433594 118.726562 45.023438 118.550781 44.703125 C 118.371094 44.378906 117.960938 44.273438 117.636719 44.453125 Z M 117.636719 44.453125 " fill-opacity="1" fill-rule="nonzero"/><path fill="#d4525c" d="M 119.78125 59.925781 C 118.746094 60.214844 118.121094 61.265625 118.40625 62.300781 C 118.691406 63.335938 119.746094 63.960938 120.78125 63.675781 C 121.816406 63.390625 122.441406 62.335938 122.15625 61.300781 C 121.886719 60.265625 120.816406 59.640625 119.78125 59.925781 Z M 119.78125 59.925781 " fill-opacity="1" fill-rule="nonzero"/><path fill="#d4525c" d="M 118.835938 56.394531 C 119.546875 56.195312 119.976562 55.464844 119.78125 54.75 C 119.585938 54.039062 118.851562 53.609375 118.136719 53.804688 C 117.425781 54 117.015625 54.734375 117.191406 55.449219 C 117.386719 56.179688 118.121094 56.589844 118.835938 56.394531 C 118.835938 56.410156 118.835938 56.410156 118.835938 56.394531 Z M 118.835938 56.394531 " fill-opacity="1" fill-rule="nonzero"/><path fill="#d4525c" d="M 117.960938 49.644531 C 117.835938 49.164062 117.335938 48.878906 116.851562 49.003906 C 116.371094 49.128906 116.085938 49.628906 116.210938 50.109375 C 116.335938 50.59375 116.835938 50.878906 117.316406 50.753906 C 117.816406 50.644531 118.101562 50.144531 117.960938 49.644531 C 117.960938 49.664062 117.960938 49.664062 117.960938 49.644531 Z M 117.960938 49.644531 " fill-opacity="1" fill-rule="nonzero"/><path fill="#d4525c" d="M 116.585938 45.683594 C 116.496094 45.363281 116.15625 45.164062 115.835938 45.253906 C 115.515625 45.34375 115.316406 45.683594 115.40625 46.003906 C 115.496094 46.324219 115.816406 46.523438 116.15625 46.433594 C 116.476562 46.34375 116.675781 46.003906 116.585938 45.683594 Z M 116.585938 45.683594 " fill-opacity="1" fill-rule="nonzero"/><path fill="#e0654f" d="M 113.890625 60.820312 C 112.890625 60.820312 112.070312 61.640625 112.070312 62.640625 C 112.070312 63.640625 112.890625 64.460938 113.890625 64.460938 C 114.890625 64.460938 115.710938 63.660156 115.710938 62.640625 C 115.710938 61.640625 114.90625 60.820312 113.890625 60.820312 Z M 113.890625 60.820312 " fill-opacity="1" fill-rule="nonzero"/><path fill="#e0654f" d="M 112.675781 55.714844 C 112.675781 56.394531 113.210938 56.929688 113.890625 56.929688 C 114.566406 56.929688 115.105469 56.394531 115.105469 55.714844 C 115.105469 55.035156 114.566406 54.5 113.890625 54.5 C 113.230469 54.5 112.675781 55.035156 112.675781 55.714844 Z M 112.675781 55.714844 " fill-opacity="1" fill-rule="nonzero"/><path fill="#e0654f" d="M 113.890625 51.144531 C 114.355469 51.144531 114.746094 50.769531 114.746094 50.289062 C 114.746094 49.808594 114.371094 49.433594 113.890625 49.433594 C 113.425781 49.433594 113.035156 49.808594 113.035156 50.289062 C 113.050781 50.769531 113.425781 51.144531 113.890625 51.144531 C 113.890625 51.164062 113.890625 51.164062 113.890625 51.144531 Z M 113.890625 51.144531 " fill-opacity="1" fill-rule="nonzero"/><path fill="#e0654f" d="M 113.890625 45.558594 C 113.585938 45.558594 113.335938 45.808594 113.335938 46.113281 C 113.335938 46.414062 113.585938 46.664062 113.890625 46.664062 C 114.195312 46.664062 114.445312 46.414062 114.445312 46.113281 C 114.445312 45.808594 114.195312 45.558594 113.890625 45.558594 Z M 113.890625 45.558594 " fill-opacity="1" fill-rule="nonzero"/><path fill="#f57f2a" d="M 107.945312 60.140625 C 107.035156 59.890625 106.105469 60.445312 105.859375 61.335938 C 105.609375 62.25 106.160156 63.175781 107.054688 63.425781 C 107.964844 63.675781 108.890625 63.121094 109.140625 62.230469 C 109.390625 61.320312 108.855469 60.390625 107.945312 60.140625 Z M 107.945312 60.140625 " fill-opacity="1" fill-rule="nonzero"/><path fill="#f57f2a" d="M 109.589844 54.039062 C 109 53.875 108.410156 54.234375 108.25 54.804688 C 108.089844 55.394531 108.445312 55.984375 109.015625 56.144531 C 109.605469 56.304688 110.195312 55.945312 110.355469 55.375 C 110.515625 54.804688 110.175781 54.199219 109.589844 54.039062 Z M 109.589844 54.039062 " fill-opacity="1" fill-rule="nonzero"/><path fill="#f57f2a" d="M 110.910156 49.109375 C 110.480469 49.003906 110.050781 49.253906 109.945312 49.664062 C 109.839844 50.09375 110.089844 50.519531 110.5 50.628906 C 110.925781 50.734375 111.355469 50.484375 111.460938 50.074219 C 111.585938 49.664062 111.335938 49.234375 110.910156 49.109375 Z M 110.910156 49.109375 " fill-opacity="1" fill-rule="nonzero"/><path fill="#f57f2a" d="M 112.265625 45.949219 C 112.335938 45.683594 112.175781 45.414062 111.925781 45.363281 C 111.675781 45.308594 111.390625 45.453125 111.335938 45.703125 C 111.285156 45.949219 111.425781 46.238281 111.675781 46.289062 C 111.925781 46.363281 112.195312 46.21875 112.265625 45.949219 Z M 112.265625 45.949219 " fill-opacity="1" fill-rule="nonzero"/><path fill="#f89828" d="M 102.359375 57.945312 C 101.609375 57.519531 100.644531 57.769531 100.199219 58.515625 C 99.769531 59.265625 100.019531 60.230469 100.769531 60.675781 C 101.519531 61.105469 102.484375 60.855469 102.929688 60.105469 C 103.375 59.355469 103.109375 58.390625 102.359375 57.945312 Z M 102.359375 57.945312 " fill-opacity="1" fill-rule="nonzero"/><path fill="#f89828" d="M 105.519531 52.484375 C 105.054688 52.214844 104.464844 52.378906 104.199219 52.839844 C 103.929688 53.304688 104.089844 53.894531 104.554688 54.160156 C 105.019531 54.429688 105.609375 54.269531 105.875 53.804688 C 106.144531 53.339844 105.984375 52.75 105.519531 52.484375 Z M 105.519531 52.484375 " fill-opacity="1" fill-rule="nonzero"/><path fill="#f89828" d="M 107.375 49.269531 C 107.730469 49.46875 108.179688 49.359375 108.375 49.003906 C 108.570312 48.644531 108.464844 48.199219 108.105469 48.003906 C 107.75 47.808594 107.304688 47.914062 107.105469 48.273438 C 106.910156 48.628906 107.019531 49.074219 107.375 49.269531 Z M 107.375 49.269531 " fill-opacity="1" fill-rule="nonzero"/><path fill="#f89828" d="M 110.050781 44.628906 C 109.855469 44.503906 109.589844 44.578125 109.480469 44.789062 C 109.355469 44.988281 109.425781 45.253906 109.640625 45.363281 C 109.839844 45.488281 110.105469 45.414062 110.214844 45.203125 C 110.320312 45.023438 110.25 44.753906 110.050781 44.628906 C 110.050781 44.648438 110.050781 44.648438 110.050781 44.628906 Z M 110.050781 44.628906 " fill-opacity="1" fill-rule="nonzero"/><path fill="#fec127" d="M 95.433594 54.359375 C 94.863281 54.929688 94.863281 55.859375 95.433594 56.429688 C 96.003906 57 96.933594 57 97.503906 56.429688 C 98.074219 55.859375 98.074219 54.929688 97.503906 54.359375 C 96.933594 53.789062 96.003906 53.789062 95.433594 54.359375 Z M 95.433594 54.359375 " fill-opacity="1" fill-rule="nonzero"/><path fill="#fec127" d="M 100.769531 49.894531 C 100.429688 50.234375 100.429688 50.769531 100.769531 51.09375 C 101.109375 51.429688 101.644531 51.429688 101.964844 51.09375 C 102.289062 50.753906 102.304688 50.21875 101.964844 49.894531 C 101.644531 49.558594 101.089844 49.558594 100.769531 49.894531 Z M 100.769531 49.894531 " fill-opacity="1" fill-rule="nonzero"/><path fill="#fec127" d="M 104.714844 46.199219 C 104.449219 46.46875 104.449219 46.878906 104.714844 47.148438 C 104.984375 47.414062 105.394531 47.414062 105.660156 47.148438 C 105.929688 46.878906 105.929688 46.46875 105.660156 46.199219 C 105.394531 45.933594 104.964844 45.933594 104.714844 46.199219 Z M 104.714844 46.199219 " fill-opacity="1" fill-rule="nonzero"/><path fill="#fec127" d="M 108.410156 43.453125 C 108.265625 43.308594 108.035156 43.328125 107.910156 43.46875 C 107.765625 43.613281 107.785156 43.84375 107.929688 43.96875 C 108.070312 44.09375 108.285156 44.09375 108.429688 43.96875 C 108.554688 43.828125 108.554688 43.59375 108.410156 43.453125 Z M 108.410156 43.453125 " fill-opacity="1" fill-rule="nonzero"/><path fill="#fed627" d="M 91.882812 49.128906 C 91.238281 49.503906 91.023438 50.304688 91.398438 50.949219 C 91.773438 51.589844 92.578125 51.804688 93.21875 51.429688 C 93.863281 51.054688 94.078125 50.253906 93.703125 49.609375 C 93.34375 48.96875 92.523438 48.753906 91.882812 49.128906 Z M 91.882812 49.128906 " fill-opacity="1" fill-rule="nonzero"/><path fill="#fed627" d="M 98.183594 46.183594 C 97.84375 46.378906 97.71875 46.824219 97.914062 47.183594 C 98.109375 47.523438 98.558594 47.648438 98.914062 47.449219 C 99.253906 47.253906 99.378906 46.808594 99.179688 46.449219 C 98.984375 46.113281 98.539062 45.988281 98.183594 46.183594 Z M 98.183594 46.183594 " fill-opacity="1" fill-rule="nonzero"/><path fill="#fed627" d="M 102.929688 43.59375 C 102.644531 43.753906 102.539062 44.128906 102.714844 44.414062 C 102.875 44.703125 103.25 44.808594 103.535156 44.628906 C 103.824219 44.46875 103.929688 44.09375 103.75 43.808594 C 103.589844 43.523438 103.214844 43.417969 102.929688 43.59375 Z M 102.929688 43.59375 " fill-opacity="1" fill-rule="nonzero"/><path fill="#351a55" d="M 89.167969 33.757812 L 91.308594 33.757812 L 91.308594 42.007812 L 89.167969 42.007812 Z M 90.472656 30.082031 C 89.808594 29.902344 89.132812 30.296875 88.953125 30.957031 C 88.773438 31.617188 89.167969 32.296875 89.828125 32.472656 C 90.488281 32.652344 91.167969 32.261719 91.34375 31.601562 C 91.523438 30.9375 91.132812 30.242188 90.472656 30.082031 Z M 97.933594 42.183594 C 97.414062 42.183594 96.898438 42.09375 96.414062 41.882812 C 95.988281 41.683594 95.613281 41.382812 95.324219 41.007812 L 95.324219 46.128906 L 93.238281 46.128906 L 93.238281 33.757812 L 95.308594 33.757812 L 95.308594 34.902344 C 95.574219 34.492188 95.949219 34.171875 96.398438 33.9375 C 96.859375 33.707031 97.378906 33.582031 97.914062 33.582031 C 98.433594 33.582031 98.933594 33.6875 99.414062 33.882812 C 99.894531 34.082031 100.324219 34.382812 100.679688 34.742188 C 101.054688 35.132812 101.359375 35.597656 101.554688 36.097656 C 101.789062 36.667969 101.894531 37.257812 101.878906 37.863281 C 101.894531 38.472656 101.769531 39.078125 101.539062 39.648438 C 101.324219 40.148438 101.019531 40.613281 100.644531 41.007812 C 99.949219 41.757812 98.949219 42.183594 97.933594 42.183594 Z M 97.503906 40.183594 C 97.808594 40.183594 98.109375 40.132812 98.394531 40.007812 C 98.664062 39.882812 98.914062 39.722656 99.128906 39.507812 C 99.34375 39.292969 99.503906 39.042969 99.609375 38.773438 C 99.84375 38.1875 99.84375 37.542969 99.609375 36.953125 C 99.503906 36.6875 99.324219 36.4375 99.128906 36.222656 C 98.914062 36.007812 98.664062 35.847656 98.394531 35.722656 C 98.109375 35.597656 97.808594 35.542969 97.503906 35.542969 C 96.898438 35.542969 96.308594 35.792969 95.863281 36.222656 C 95.648438 36.4375 95.488281 36.6875 95.378906 36.953125 C 95.148438 37.542969 95.148438 38.1875 95.378906 38.757812 C 95.488281 39.023438 95.648438 39.273438 95.863281 39.488281 C 96.308594 39.953125 96.898438 40.203125 97.503906 40.183594 Z M 103.410156 33.757812 L 105.484375 33.757812 L 105.484375 35.027344 C 105.660156 34.582031 105.964844 34.207031 106.375 33.957031 C 106.804688 33.722656 107.269531 33.597656 107.765625 33.617188 C 108.035156 33.617188 108.285156 33.652344 108.535156 33.707031 C 108.75 33.757812 108.964844 33.832031 109.160156 33.9375 L 108.390625 36.007812 C 108.25 35.917969 108.089844 35.847656 107.929688 35.792969 C 107.714844 35.742188 107.5 35.707031 107.285156 35.707031 C 106.804688 35.6875 106.339844 35.847656 105.984375 36.152344 C 105.660156 36.453125 105.5 36.953125 105.5 37.632812 L 105.5 41.988281 L 103.410156 41.988281 Z M 113.820312 42.183594 C 113.230469 42.183594 112.640625 42.078125 112.085938 41.84375 C 111.570312 41.632812 111.105469 41.308594 110.695312 40.917969 C 109.890625 40.113281 109.445312 39.023438 109.445312 37.882812 C 109.445312 37.3125 109.550781 36.742188 109.765625 36.203125 C 109.980469 35.6875 110.285156 35.222656 110.675781 34.832031 C 112.410156 33.152344 115.15625 33.152344 116.890625 34.832031 C 117.691406 35.632812 118.15625 36.722656 118.15625 37.863281 C 118.15625 38.4375 118.050781 39.007812 117.816406 39.523438 C 117.601562 40.042969 117.28125 40.507812 116.90625 40.898438 C 116.515625 41.292969 116.050781 41.613281 115.515625 41.828125 C 114.996094 42.058594 114.40625 42.183594 113.820312 42.183594 Z M 113.835938 40.183594 C 114.140625 40.183594 114.445312 40.132812 114.730469 40.007812 C 114.996094 39.882812 115.230469 39.722656 115.441406 39.523438 C 115.65625 39.3125 115.816406 39.0625 115.925781 38.792969 C 116.15625 38.203125 116.15625 37.5625 115.925781 36.992188 C 115.816406 36.722656 115.65625 36.472656 115.441406 36.257812 C 115.230469 36.042969 114.996094 35.882812 114.730469 35.777344 C 114.15625 35.527344 113.515625 35.527344 112.960938 35.777344 C 112.695312 35.902344 112.460938 36.0625 112.246094 36.257812 C 112.035156 36.472656 111.871094 36.722656 111.765625 36.992188 C 111.535156 37.578125 111.535156 38.222656 111.765625 38.792969 C 111.871094 39.0625 112.035156 39.3125 112.246094 39.523438 C 112.460938 39.738281 112.695312 39.898438 112.960938 40.007812 C 113.230469 40.113281 113.53125 40.183594 113.835938 40.183594 Z M 74.261719 33.757812 L 76.40625 33.757812 L 78.066406 39.023438 L 80.027344 33.757812 L 81.886719 33.757812 L 83.8125 39.023438 L 85.542969 33.757812 L 87.6875 33.757812 L 84.882812 42.007812 L 82.902344 42.007812 L 80.9375 36.632812 L 78.957031 42.007812 L 76.941406 42.007812 Z M 74.261719 33.757812 " fill-opacity="1" fill-rule="nonzero"/></svg>