<svg xmlns="http://www.w3.org/2000/svg" xmlns:xlink="http://www.w3.org/1999/xlink" width="288" zoomAndPan="magnify" viewBox="0 0 216 72" height="96" preserveAspectRatio="xMidYMid meet" version="1.0"><defs><clipPath id="1e4ba8881d"><path d="M 46.046875 57 L 69 57 L 69 60.882812 L 46.046875 60.882812 Z M 46.046875 57 " clip-rule="nonzero"/></clipPath><clipPath id="1f2368c580"><path d="M 46.046875 51 L 69 51 L 69 55 L 46.046875 55 Z M 46.046875 51 " clip-rule="nonzero"/></clipPath><clipPath id="51d007cc95"><path d="M 46.046875 21 L 69 21 L 69 25 L 46.046875 25 Z M 46.046875 21 " clip-rule="nonzero"/></clipPath><clipPath id="82bd024a3e"><path d="M 46.046875 15.132812 L 69 15.132812 L 69 19 L 46.046875 19 Z M 46.046875 15.132812 " clip-rule="nonzero"/></clipPath><clipPath id="4382a12e93"><path d="M 72 15.132812 L 104 15.132812 L 104 19 L 72 19 Z M 72 15.132812 " clip-rule="nonzero"/></clipPath><clipPath id="feb65ca249"><path d="M 72 57 L 104 57 L 104 60.882812 L 72 60.882812 Z M 72 57 " clip-rule="nonzero"/></clipPath><clipPath id="1868c40777"><path d="M 135 57 L 138 57 L 138 60.882812 L 135 60.882812 Z M 135 57 " clip-rule="nonzero"/></clipPath><clipPath id="4d48ed88ff"><path d="M 142 15.132812 L 162 15.132812 L 162 19 L 142 19 Z M 142 15.132812 " clip-rule="nonzero"/></clipPath><clipPath id="bda584f29c"><path d="M 110 57 L 127 57 L 127 60.882812 L 110 60.882812 Z M 110 57 " clip-rule="nonzero"/></clipPath><clipPath id="0b84576235"><path d="M 145 57 L 162 57 L 162 60.882812 L 145 60.882812 Z M 145 57 " clip-rule="nonzero"/></clipPath><clipPath id="526199d5db"><path d="M 110 15.132812 L 131 15.132812 L 131 19 L 110 19 Z M 110 15.132812 " clip-rule="nonzero"/></clipPath></defs><g clip-path="url(#1e4ba8881d)"><path fill="#000000" d="M 46.375 57.695312 L 68.84375 57.695312 L 68.84375 60.882812 L 46.375 60.882812 Z M 46.375 57.695312 " fill-opacity="1" fill-rule="nonzero"/></g><g clip-path="url(#1f2368c580)"><path fill="#000000" d="M 46.375 51.605469 L 68.84375 51.605469 L 68.84375 54.792969 L 46.375 54.792969 Z M 46.375 51.605469 " fill-opacity="1" fill-rule="nonzero"/></g><path fill="#000000" d="M 52.804688 45.515625 L 62.449219 45.515625 L 62.449219 48.703125 L 52.804688 48.703125 Z M 52.804688 45.515625 " fill-opacity="1" fill-rule="nonzero"/><path fill="#000000" d="M 52.804688 39.460938 L 62.449219 39.460938 L 62.449219 42.648438 L 52.804688 42.648438 Z M 52.804688 39.460938 " fill-opacity="1" fill-rule="nonzero"/><path fill="#000000" d="M 52.804688 33.371094 L 62.449219 33.371094 L 62.449219 36.558594 L 52.804688 36.558594 Z M 52.804688 33.371094 " fill-opacity="1" fill-rule="nonzero"/><path fill="#000000" d="M 52.804688 27.277344 L 62.449219 27.277344 L 62.449219 30.46875 L 52.804688 30.46875 Z M 52.804688 27.277344 " fill-opacity="1" fill-rule="nonzero"/><g clip-path="url(#51d007cc95)"><path fill="#000000" d="M 46.375 21.222656 L 68.84375 21.222656 L 68.84375 24.414062 L 46.375 24.414062 Z M 46.375 21.222656 " fill-opacity="1" fill-rule="nonzero"/></g><g clip-path="url(#82bd024a3e)"><path fill="#000000" d="M 46.375 15.132812 L 68.84375 15.132812 L 68.84375 18.320312 L 46.375 18.320312 Z M 46.375 15.132812 " fill-opacity="1" fill-rule="nonzero"/></g><path fill="#000000" d="M 72.058594 54.792969 L 106.339844 54.792969 C 106.917969 53.789062 107.351562 52.714844 107.640625 51.605469 L 72.058594 51.605469 Z M 72.058594 54.792969 " fill-opacity="1" fill-rule="nonzero"/><path fill="#000000" d="M 103.632812 39.460938 L 78.488281 39.460938 L 78.488281 42.648438 L 106.339844 42.648438 C 105.617188 41.429688 104.714844 40.355469 103.632812 39.460938 Z M 103.632812 39.460938 " fill-opacity="1" fill-rule="nonzero"/><path fill="#000000" d="M 78.488281 33.371094 L 78.488281 36.558594 L 103.632812 36.558594 C 104.714844 35.660156 105.617188 34.585938 106.304688 33.371094 Z M 78.488281 33.371094 " fill-opacity="1" fill-rule="nonzero"/><path fill="#000000" d="M 106.339844 21.222656 L 72.058594 21.222656 L 72.058594 24.414062 L 107.605469 24.414062 C 107.351562 23.265625 106.917969 22.191406 106.339844 21.222656 Z M 106.339844 21.222656 " fill-opacity="1" fill-rule="nonzero"/><g clip-path="url(#4382a12e93)"><path fill="#000000" d="M 95.71875 15.132812 L 72.058594 15.132812 L 72.058594 18.320312 L 103.992188 18.320312 C 101.714844 16.28125 98.753906 15.132812 95.71875 15.132812 Z M 95.71875 15.132812 " fill-opacity="1" fill-rule="nonzero"/></g><path fill="#000000" d="M 78.488281 27.277344 L 88.132812 27.277344 L 88.132812 30.46875 L 78.488281 30.46875 Z M 78.488281 27.277344 " fill-opacity="1" fill-rule="nonzero"/><path fill="#000000" d="M 97.164062 30.46875 L 107.53125 30.46875 C 107.820312 29.429688 107.964844 28.355469 107.964844 27.277344 L 97.164062 27.277344 Z M 97.164062 30.46875 " fill-opacity="1" fill-rule="nonzero"/><path fill="#000000" d="M 78.488281 45.515625 L 88.132812 45.515625 L 88.132812 48.703125 L 78.488281 48.703125 Z M 78.488281 45.515625 " fill-opacity="1" fill-rule="nonzero"/><path fill="#000000" d="M 97.164062 45.515625 L 97.164062 48.703125 L 107.964844 48.703125 C 107.964844 47.628906 107.820312 46.554688 107.53125 45.515625 Z M 97.164062 45.515625 " fill-opacity="1" fill-rule="nonzero"/><g clip-path="url(#feb65ca249)"><path fill="#000000" d="M 72.058594 60.847656 L 95.71875 60.882812 C 98.789062 60.882812 101.753906 59.738281 103.992188 57.695312 L 72.058594 57.695312 Z M 72.058594 60.847656 " fill-opacity="1" fill-rule="nonzero"/></g><g clip-path="url(#1868c40777)"><path fill="#000000" d="M 136.289062 60.882812 L 137.40625 57.695312 L 135.167969 57.695312 Z M 136.289062 60.882812 " fill-opacity="1" fill-rule="nonzero"/></g><path fill="#000000" d="M 134.15625 54.792969 L 138.417969 54.792969 L 139.539062 51.605469 L 133 51.605469 Z M 134.15625 54.792969 " fill-opacity="1" fill-rule="nonzero"/><path fill="#000000" d="M 131.988281 48.703125 L 140.585938 48.703125 L 141.707031 45.515625 L 130.867188 45.515625 Z M 131.988281 48.703125 " fill-opacity="1" fill-rule="nonzero"/><path fill="#000000" d="M 129.820312 42.648438 L 142.71875 42.648438 L 143.875 39.460938 L 128.703125 39.460938 Z M 129.820312 42.648438 " fill-opacity="1" fill-rule="nonzero"/><path fill="#000000" d="M 117.035156 30.46875 L 134.375 30.46875 L 133.253906 27.277344 L 117.035156 27.277344 Z M 117.035156 30.46875 " fill-opacity="1" fill-rule="nonzero"/><path fill="#000000" d="M 140.332031 24.414062 L 161.972656 24.414062 L 161.972656 21.222656 L 141.453125 21.222656 Z M 140.332031 24.414062 " fill-opacity="1" fill-rule="nonzero"/><g clip-path="url(#4d48ed88ff)"><path fill="#000000" d="M 143.585938 15.132812 L 142.464844 18.320312 L 161.972656 18.320312 L 161.972656 15.132812 Z M 143.585938 15.132812 " fill-opacity="1" fill-rule="nonzero"/></g><g clip-path="url(#bda584f29c)"><path fill="#000000" d="M 110.601562 57.695312 L 126.640625 57.695312 L 126.640625 60.882812 L 110.601562 60.882812 Z M 110.601562 57.695312 " fill-opacity="1" fill-rule="nonzero"/></g><path fill="#000000" d="M 110.601562 51.605469 L 126.640625 51.605469 L 126.640625 54.792969 L 110.601562 54.792969 Z M 110.601562 51.605469 " fill-opacity="1" fill-rule="nonzero"/><path fill="#000000" d="M 117.035156 45.515625 L 126.679688 45.515625 L 126.679688 48.703125 L 117.035156 48.703125 Z M 117.035156 45.515625 " fill-opacity="1" fill-rule="nonzero"/><path fill="#000000" d="M 117.035156 39.460938 L 126.679688 39.460938 L 126.679688 42.648438 L 117.035156 42.648438 Z M 117.035156 39.460938 " fill-opacity="1" fill-rule="nonzero"/><path fill="#000000" d="M 155.542969 27.277344 L 139.320312 27.277344 L 138.203125 30.46875 L 155.542969 30.46875 Z M 155.542969 27.277344 " fill-opacity="1" fill-rule="nonzero"/><path fill="#000000" d="M 145.933594 36.558594 L 155.542969 36.558594 L 155.542969 33.371094 L 137.191406 33.371094 L 136.289062 35.949219 L 135.382812 33.371094 L 117.035156 33.371094 L 117.035156 36.558594 L 126.640625 36.558594 L 126.640625 33.621094 L 127.691406 36.558594 L 144.886719 36.558594 L 145.933594 33.621094 Z M 145.933594 36.558594 " fill-opacity="1" fill-rule="nonzero"/><path fill="#000000" d="M 145.933594 39.460938 L 155.578125 39.460938 L 155.578125 42.648438 L 145.933594 42.648438 Z M 145.933594 39.460938 " fill-opacity="1" fill-rule="nonzero"/><path fill="#000000" d="M 145.933594 45.515625 L 155.578125 45.515625 L 155.578125 48.703125 L 145.933594 48.703125 Z M 145.933594 45.515625 " fill-opacity="1" fill-rule="nonzero"/><path fill="#000000" d="M 145.933594 51.605469 L 161.972656 51.605469 L 161.972656 54.792969 L 145.933594 54.792969 Z M 145.933594 51.605469 " fill-opacity="1" fill-rule="nonzero"/><g clip-path="url(#0b84576235)"><path fill="#000000" d="M 145.933594 57.695312 L 161.972656 57.695312 L 161.972656 60.882812 L 145.933594 60.882812 Z M 145.933594 57.695312 " fill-opacity="1" fill-rule="nonzero"/></g><path fill="#000000" d="M 132.242188 24.414062 L 131.121094 21.222656 L 110.601562 21.222656 L 110.601562 24.414062 Z M 132.242188 24.414062 " fill-opacity="1" fill-rule="nonzero"/><g clip-path="url(#526199d5db)"><path fill="#000000" d="M 130.109375 18.320312 L 128.992188 15.132812 L 110.601562 15.132812 L 110.601562 18.320312 Z M 130.109375 18.320312 " fill-opacity="1" fill-rule="nonzero"/></g></svg>