<svg xmlns="http://www.w3.org/2000/svg" xmlns:xlink="http://www.w3.org/1999/xlink" width="468" zoomAndPan="magnify" viewBox="0 0 351 350.250003" height="467" preserveAspectRatio="xMidYMid meet" version="1.0"><path fill="#000000" d="M 139.527344 130.601562 L 149.777344 130.601562 L 167.203125 162.058594 L 184.632812 130.601562 L 194.660156 130.601562 L 194.660156 182.292969 L 186.296875 182.292969 L 186.296875 142.675781 L 171.015625 170.109375 L 163.171875 170.109375 L 147.890625 142.675781 L 147.890625 182.292969 L 139.527344 182.292969 Z M 139.527344 130.601562 " fill-opacity="1" fill-rule="nonzero"/><path fill="#000000" d="M 221.636719 183.21875 C 217.761719 183.21875 214.359375 182.363281 211.421875 180.652344 C 208.488281 178.941406 206.199219 176.570312 204.558594 173.542969 C 202.917969 170.515625 202.097656 167.042969 202.097656 163.128906 C 202.097656 159.167969 202.898438 155.660156 204.503906 152.609375 C 206.105469 149.554688 208.332031 147.167969 211.183594 145.445312 C 214.03125 143.722656 217.304688 142.859375 221.007812 142.859375 C 224.679688 142.859375 227.84375 143.726562 230.496094 145.460938 C 233.148438 147.199219 235.191406 149.628906 236.621094 152.753906 C 238.050781 155.882812 238.765625 159.550781 238.765625 163.757812 L 238.765625 166.046875 L 210.386719 166.046875 C 210.902344 169.199219 212.179688 171.679688 214.214844 173.488281 C 216.25 175.296875 218.824219 176.203125 221.929688 176.199219 C 224.421875 176.199219 226.570312 175.832031 228.371094 175.09375 C 230.171875 174.355469 231.859375 173.234375 233.4375 171.734375 L 237.878906 177.160156 C 233.464844 181.199219 228.046875 183.21875 221.636719 183.21875 Z M 227.742188 152.550781 C 225.988281 150.765625 223.695312 149.875 220.859375 149.875 C 218.09375 149.875 215.78125 150.785156 213.921875 152.609375 C 212.058594 154.429688 210.878906 156.878906 210.386719 159.957031 L 230.738281 159.957031 C 230.492188 156.804688 229.492188 154.335938 227.742188 152.550781 Z M 227.742188 152.550781 " fill-opacity="1" fill-rule="nonzero"/><path fill="#000000" d="M 248.90625 150.613281 L 241.210938 150.613281 L 241.210938 143.78125 L 248.90625 143.78125 L 248.90625 132.484375 L 256.972656 132.484375 L 256.972656 143.78125 L 268.667969 143.78125 L 268.667969 150.613281 L 256.972656 150.613281 L 256.972656 167.929688 C 256.972656 170.808594 257.46875 172.867188 258.453125 174.097656 C 259.441406 175.328125 261.128906 175.941406 263.523438 175.941406 C 264.582031 175.941406 265.484375 175.898438 266.222656 175.8125 C 266.964844 175.726562 267.777344 175.609375 268.667969 175.460938 L 268.667969 182.21875 C 267.652344 182.511719 266.621094 182.734375 265.578125 182.882812 C 264.378906 183.058594 263.179688 183.144531 261.96875 183.144531 C 253.261719 183.144531 248.90625 178.390625 248.90625 168.890625 Z M 248.90625 150.613281 " fill-opacity="1" fill-rule="nonzero"/><path fill="#000000" d="M 310.703125 182.292969 L 302.785156 182.292969 L 302.785156 176.902344 C 301.378906 178.921875 299.589844 180.476562 297.417969 181.574219 C 295.246094 182.667969 292.78125 183.214844 290.019531 183.21875 C 286.613281 183.21875 283.597656 182.347656 280.972656 180.613281 C 278.34375 178.878906 276.277344 176.492188 274.773438 173.449219 C 273.269531 170.410156 272.515625 166.933594 272.515625 163.019531 C 272.515625 159.082031 273.28125 155.597656 274.808594 152.570312 C 276.339844 149.542969 278.453125 147.167969 281.15625 145.445312 C 283.855469 143.722656 286.960938 142.859375 290.460938 142.859375 C 293.101562 142.859375 295.46875 143.371094 297.566406 144.390625 C 299.667969 145.40625 301.40625 146.851562 302.785156 148.730469 L 302.785156 143.78125 L 310.703125 143.78125 Z M 302.636719 157.261719 C 301.773438 155.070312 300.410156 153.339844 298.546875 152.070312 C 296.683594 150.804688 294.53125 150.171875 292.089844 150.171875 C 288.636719 150.171875 285.886719 151.328125 283.839844 153.640625 C 281.789062 155.953125 280.765625 159.082031 280.765625 163.019531 C 280.765625 166.984375 281.753906 170.121094 283.726562 172.433594 C 285.699219 174.75 288.378906 175.90625 291.757812 175.90625 C 294.25 175.90625 296.46875 175.265625 298.417969 173.984375 C 300.367188 172.707031 301.773438 170.984375 302.636719 168.816406 Z M 302.636719 157.261719 " fill-opacity="1" fill-rule="nonzero"/><path fill="#000000" d="M 99.121094 128.855469 C 92.394531 128.855469 87.140625 133.90625 82.378906 140.328125 C 75.839844 132.019531 70.371094 128.855469 63.828125 128.855469 C 50.484375 128.855469 40.261719 146.179688 40.261719 164.519531 C 40.261719 175.996094 45.824219 183.234375 55.144531 183.234375 C 61.851562 183.234375 66.675781 180.078125 75.253906 165.121094 C 75.253906 165.121094 78.828125 158.820312 81.289062 154.480469 C 82.148438 155.871094 83.058594 157.367188 84.011719 158.96875 L 88.03125 165.71875 C 95.867188 178.800781 100.230469 183.234375 108.140625 183.234375 C 117.21875 183.234375 122.273438 175.898438 122.273438 164.183594 C 122.273438 144.980469 111.820312 128.855469 99.121094 128.855469 Z M 68.714844 161.070312 C 61.761719 171.945312 59.355469 174.382812 55.484375 174.382812 C 51.5 174.382812 49.132812 170.894531 49.132812 164.671875 C 49.132812 151.355469 55.785156 137.742188 63.714844 137.742188 C 68.007812 137.742188 71.597656 140.21875 77.09375 148.070312 C 71.875 156.058594 68.714844 161.070312 68.714844 161.070312 Z M 94.957031 159.699219 L 90.148438 151.699219 C 88.847656 149.585938 87.597656 147.644531 86.394531 145.867188 C 90.730469 139.191406 94.304688 135.867188 98.554688 135.867188 C 107.390625 135.867188 114.453125 148.84375 114.453125 164.78125 C 114.453125 170.859375 112.460938 174.382812 108.328125 174.382812 C 104.367188 174.382812 102.476562 171.773438 94.957031 159.699219 Z M 94.957031 159.699219 " fill-opacity="1" fill-rule="nonzero"/></svg>