<svg xmlns="http://www.w3.org/2000/svg" xmlns:xlink="http://www.w3.org/1999/xlink" width="288" zoomAndPan="magnify" viewBox="0 0 216 72" height="96" preserveAspectRatio="xMidYMid meet" version="1.0"><defs><clipPath id="193ff96ac3"><path d="M 132 24.359375 L 157.472656 24.359375 L 157.472656 50.609375 L 132 50.609375 Z M 132 24.359375 " clip-rule="nonzero"/></clipPath></defs><path fill="#0071dc" d="M 108.773438 41.050781 C 108.773438 41.253906 108.738281 41.496094 108.703125 41.667969 C 108.394531 42.558594 107.570312 43.140625 106.609375 43.140625 C 105.75 43.140625 105.09375 42.660156 105.09375 41.632812 C 105.09375 40.054688 106.8125 39.644531 108.808594 39.644531 L 108.808594 41.050781 Z M 111.867188 38.308594 C 111.867188 35.738281 110.765625 33.441406 107.019531 33.441406 C 105.09375 33.441406 103.546875 33.988281 102.722656 34.46875 L 103.339844 36.558594 C 104.304688 36.011719 105.371094 35.703125 106.46875 35.667969 C 108.394531 35.667969 108.703125 36.730469 108.703125 37.417969 L 108.703125 37.589844 C 104.542969 37.589844 101.933594 39.027344 101.933594 41.941406 C 101.933594 43.722656 103.273438 45.402344 105.609375 45.402344 C 107.019531 45.402344 108.222656 44.851562 108.945312 43.929688 L 109.015625 43.929688 C 109.015625 43.929688 109.496094 45.914062 112.109375 45.160156 C 111.96875 44.339844 111.902344 43.449219 111.902344 42.421875 L 111.902344 38.308594 Z M 48.339844 29.914062 L 51.503906 42.796875 C 52.019531 44.886719 52.914062 45.675781 55.527344 45.160156 L 57.210938 38.308594 C 57.621094 36.59375 57.933594 35.394531 58.207031 33.648438 L 58.242188 33.648438 C 58.449219 35.394531 58.722656 36.59375 59.066406 38.308594 L 60.097656 43.070312 C 60.476562 44.714844 61.4375 45.746094 64.015625 45.160156 L 68.039062 29.945312 L 64.773438 29.945312 L 63.398438 36.527344 C 63.019531 38.445312 62.675781 39.953125 62.433594 41.699219 C 62.195312 39.953125 61.886719 38.515625 61.507812 36.664062 L 60.097656 29.945312 L 56.695312 29.945312 L 55.148438 36.492188 C 54.734375 38.480469 54.324219 40.089844 54.046875 41.769531 L 54.011719 41.769531 C 53.738281 40.191406 53.394531 38.171875 53.015625 36.25 L 51.777344 29.914062 L 48.339844 29.914062 M 74.019531 41.050781 C 74.019531 41.253906 74.019531 41.496094 73.949219 41.667969 C 73.640625 42.558594 72.816406 43.140625 71.855469 43.140625 C 70.996094 43.140625 70.339844 42.660156 70.339844 41.632812 C 70.339844 40.054688 72.058594 39.644531 74.054688 39.644531 L 74.054688 41.050781 Z M 77.148438 38.308594 C 77.148438 35.738281 76.046875 33.441406 72.300781 33.441406 C 70.375 33.441406 68.828125 33.988281 68.003906 34.46875 L 68.621094 36.558594 C 69.585938 36.011719 70.652344 35.703125 71.75 35.667969 C 73.675781 35.667969 73.984375 36.730469 73.984375 37.417969 L 73.984375 37.589844 C 69.824219 37.589844 67.214844 39.027344 67.214844 41.941406 C 67.214844 43.722656 68.554688 45.402344 70.890625 45.402344 C 72.300781 45.402344 73.503906 44.851562 74.226562 43.929688 L 74.292969 43.929688 C 74.292969 43.929688 74.777344 45.914062 77.386719 45.160156 C 77.25 44.339844 77.183594 43.449219 77.183594 42.421875 L 77.183594 38.308594 Z M 81.925781 41.90625 L 81.925781 29.914062 L 78.832031 29.914062 L 78.832031 45.128906 L 81.925781 45.128906 L 81.925781 41.90625 M 121.390625 29.945312 L 121.390625 41.152344 C 121.390625 42.695312 121.664062 43.792969 122.316406 44.441406 C 122.867188 45.023438 123.761719 45.402344 124.828125 45.402344 C 125.753906 45.402344 126.648438 45.230469 127.0625 45.058594 L 127.027344 42.625 C 126.71875 42.730469 126.339844 42.761719 125.859375 42.761719 C 124.792969 42.761719 124.449219 42.113281 124.449219 40.707031 L 124.449219 36.457031 L 127.164062 36.457031 L 127.164062 33.542969 L 124.449219 33.542969 L 124.449219 29.914062 L 121.390625 29.945312 M 113.378906 33.714844 L 113.378906 45.160156 L 116.578125 45.160156 L 116.578125 39.300781 C 116.578125 38.992188 116.609375 38.71875 116.644531 38.445312 C 116.886719 37.210938 117.8125 36.421875 119.1875 36.421875 C 119.566406 36.421875 119.808594 36.457031 120.117188 36.492188 L 120.117188 33.476562 C 119.875 33.441406 119.636719 33.40625 119.429688 33.40625 C 118.226562 33.40625 116.886719 34.160156 116.300781 35.839844 L 116.234375 35.839844 L 116.234375 33.683594 L 113.378906 33.714844 M 83.746094 33.714844 L 83.746094 45.160156 L 86.839844 45.160156 L 86.839844 38.445312 C 86.839844 38.136719 86.875 37.792969 86.980469 37.519531 C 87.21875 36.835938 87.871094 36.046875 88.871094 36.046875 C 90.140625 36.046875 90.726562 37.109375 90.726562 38.617188 L 90.726562 45.128906 L 93.855469 45.128906 L 93.855469 38.34375 C 93.855469 38.035156 93.886719 37.65625 93.992188 37.417969 C 94.230469 36.59375 95.023438 36.011719 95.882812 36.011719 C 97.152344 36.011719 97.773438 37.039062 97.773438 38.855469 L 97.773438 45.128906 L 100.902344 45.128906 L 100.902344 38.410156 C 100.902344 34.882812 99.078125 33.441406 97.050781 33.441406 C 96.121094 33.441406 95.433594 33.683594 94.78125 34.058594 C 94.230469 34.402344 93.75 34.882812 93.339844 35.496094 L 93.304688 35.496094 C 92.789062 34.230469 91.515625 33.40625 90.140625 33.441406 C 88.765625 33.375 87.460938 34.058594 86.808594 35.257812 L 86.773438 35.257812 L 86.773438 33.714844 L 83.746094 33.714844 " fill-opacity="1" fill-rule="evenodd"/><g clip-path="url(#193ff96ac3)"><path fill="#f3b53b" d="M 143.90625 33.203125 C 144.523438 33.203125 145.039062 32.859375 145.109375 32.480469 L 145.691406 25.59375 C 145.691406 24.910156 144.902344 24.359375 143.90625 24.359375 C 142.90625 24.359375 142.117188 24.910156 142.117188 25.59375 L 142.734375 32.480469 C 142.769531 32.894531 143.285156 33.203125 143.90625 33.203125 M 140.15625 35.359375 C 140.46875 34.8125 140.433594 34.230469 140.125 33.957031 L 134.453125 30.015625 C 133.867188 29.671875 132.972656 30.082031 132.492188 30.941406 C 131.976562 31.796875 132.078125 32.789062 132.664062 33.097656 L 138.953125 36.011719 C 139.332031 36.148438 139.882812 35.875 140.15625 35.359375 M 147.617188 35.328125 C 147.925781 35.875 148.441406 36.148438 148.855469 35.976562 L 155.109375 33.066406 C 155.695312 32.722656 155.796875 31.761719 155.28125 30.90625 C 154.765625 30.050781 153.90625 29.636719 153.324219 29.980469 L 147.652344 33.957031 C 147.34375 34.230469 147.308594 34.8125 147.617188 35.328125 M 143.90625 41.769531 C 144.523438 41.769531 145.039062 42.113281 145.109375 42.488281 L 145.691406 49.375 C 145.691406 50.0625 144.902344 50.609375 143.90625 50.609375 C 142.90625 50.609375 142.117188 50.0625 142.117188 49.375 L 142.734375 42.488281 C 142.769531 42.078125 143.285156 41.769531 143.90625 41.769531 M 147.617188 39.644531 C 147.925781 39.097656 148.441406 38.820312 148.855469 38.960938 L 155.109375 41.871094 C 155.695312 42.214844 155.796875 43.175781 155.28125 44.03125 C 154.765625 44.886719 153.90625 45.300781 153.324219 44.957031 L 147.652344 41.015625 C 147.34375 40.777344 147.308594 40.160156 147.617188 39.644531 M 140.15625 39.644531 C 140.46875 40.160156 140.433594 40.777344 140.125 41.050781 L 134.453125 44.992188 C 133.867188 45.332031 132.972656 44.921875 132.492188 44.066406 C 131.976562 43.207031 132.078125 42.25 132.664062 41.90625 L 138.953125 38.992188 C 139.332031 38.820312 139.882812 39.097656 140.15625 39.644531 M 156.453125 44.375 L 156.519531 44.375 C 156.589844 44.375 156.65625 44.339844 156.65625 44.304688 C 156.65625 44.238281 156.625 44.238281 156.554688 44.238281 L 156.484375 44.238281 L 156.484375 44.375 Z M 156.453125 44.683594 L 156.3125 44.683594 L 156.3125 44.132812 L 156.519531 44.132812 C 156.625 44.132812 156.65625 44.132812 156.726562 44.167969 C 156.761719 44.203125 156.796875 44.238281 156.796875 44.269531 C 156.796875 44.339844 156.761719 44.375 156.691406 44.40625 C 156.761719 44.441406 156.796875 44.476562 156.796875 44.546875 C 156.796875 44.648438 156.828125 44.648438 156.828125 44.683594 L 156.691406 44.683594 C 156.65625 44.648438 156.65625 44.613281 156.65625 44.546875 C 156.65625 44.476562 156.625 44.476562 156.554688 44.476562 L 156.484375 44.476562 Z M 156.519531 43.960938 C 156.28125 43.960938 156.109375 44.167969 156.109375 44.40625 C 156.109375 44.648438 156.28125 44.851562 156.519531 44.851562 C 156.761719 44.851562 156.933594 44.648438 156.933594 44.40625 C 156.96875 44.167969 156.761719 43.960938 156.519531 43.960938 Z M 156.519531 43.859375 C 156.828125 43.859375 157.070312 44.097656 157.070312 44.40625 C 157.070312 44.714844 156.828125 44.957031 156.519531 44.957031 C 156.210938 44.957031 155.9375 44.714844 155.9375 44.40625 C 155.96875 44.097656 156.210938 43.859375 156.519531 43.859375 Z M 156.519531 43.859375 " fill-opacity="1" fill-rule="evenodd"/></g></svg>