<svg xmlns="http://www.w3.org/2000/svg" xmlns:xlink="http://www.w3.org/1999/xlink" width="288" zoomAndPan="magnify" viewBox="0 0 216 72" height="96" preserveAspectRatio="xMidYMid meet" version="1.0"><defs><clipPath id="a89b4055cf"><path d="M 35.957031 19 L 69 19 L 69 53 L 35.957031 53 Z M 35.957031 19 " clip-rule="nonzero"/></clipPath><clipPath id="7001bca208"><path d="M 119 30 L 141 30 L 141 62.46875 L 119 62.46875 Z M 119 30 " clip-rule="nonzero"/></clipPath><clipPath id="f41b8792a1"><path d="M 152 30 L 172.457031 30 L 172.457031 53 L 152 53 Z M 152 30 " clip-rule="nonzero"/></clipPath></defs><g clip-path="url(#a89b4055cf)"><path fill="#4285f4" d="M 53.03125 34.53125 L 53.03125 39.148438 L 64.054688 39.148438 C 63.761719 41.703125 62.886719 43.667969 61.519531 44.941406 C 59.957031 46.515625 57.421875 48.28125 53.03125 48.28125 C 46.296875 48.28125 41.03125 42.78125 41.03125 36.003906 C 41.03125 29.226562 46.199219 23.726562 53.03125 23.726562 C 56.640625 23.726562 59.371094 25.199219 61.324219 27.066406 L 64.542969 23.824219 C 61.8125 21.171875 58.105469 19.109375 53.03125 19.109375 C 43.761719 19.109375 35.957031 26.671875 35.957031 36.003906 C 35.957031 45.335938 43.761719 52.898438 53.03125 52.898438 C 58.007812 52.898438 61.8125 51.230469 64.738281 48.183594 C 67.761719 45.140625 68.738281 40.816406 68.738281 37.378906 C 68.738281 36.296875 68.640625 35.316406 68.542969 34.53125 Z M 53.03125 34.53125 " fill-opacity="1" fill-rule="nonzero"/></g><path fill="#ea4335" d="M 82.398438 30.699219 C 76.449219 30.699219 71.472656 35.316406 71.472656 41.601562 C 71.472656 47.890625 76.351562 52.507812 82.398438 52.507812 C 88.449219 52.507812 93.328125 47.988281 93.328125 41.703125 C 93.328125 35.316406 88.449219 30.699219 82.398438 30.699219 Z M 82.398438 48.28125 C 79.082031 48.28125 76.253906 45.53125 76.253906 41.703125 C 76.253906 37.773438 79.082031 35.121094 82.398438 35.121094 C 85.714844 35.121094 88.546875 37.773438 88.546875 41.703125 C 88.546875 45.53125 85.714844 48.28125 82.398438 48.28125 Z M 82.398438 48.28125 " fill-opacity="1" fill-rule="nonzero"/><g clip-path="url(#7001bca208)"><path fill="#4285f4" d="M 135.769531 33.15625 L 135.574219 33.15625 C 134.5 31.878906 132.453125 30.699219 129.816406 30.699219 C 124.355469 30.699219 119.671875 35.414062 119.671875 41.601562 C 119.671875 47.695312 124.355469 52.507812 129.816406 52.507812 C 132.453125 52.507812 134.5 51.328125 135.574219 50.050781 L 135.769531 50.050781 L 135.769531 51.621094 C 135.769531 55.75 133.527344 58.007812 130.011719 58.007812 C 127.085938 58.007812 125.328125 55.945312 124.550781 54.078125 L 120.453125 55.847656 C 121.621094 58.695312 124.84375 62.328125 130.109375 62.328125 C 135.671875 62.328125 140.453125 58.988281 140.453125 50.933594 L 140.453125 31.289062 L 135.964844 31.289062 L 135.964844 33.15625 Z M 130.304688 48.28125 C 126.988281 48.28125 124.550781 45.433594 124.550781 41.703125 C 124.550781 37.871094 127.085938 35.121094 130.304688 35.121094 C 133.527344 35.121094 136.0625 37.96875 136.0625 41.800781 C 136.160156 45.53125 133.625 48.28125 130.304688 48.28125 Z M 130.304688 48.28125 " fill-opacity="1" fill-rule="nonzero"/></g><path fill="#fbbc05" d="M 106.695312 30.699219 C 100.742188 30.699219 95.765625 35.316406 95.765625 41.601562 C 95.765625 47.890625 100.644531 52.507812 106.695312 52.507812 C 112.742188 52.507812 117.621094 47.988281 117.621094 41.703125 C 117.621094 35.316406 112.742188 30.699219 106.695312 30.699219 Z M 106.695312 48.28125 C 103.375 48.28125 100.546875 45.53125 100.546875 41.703125 C 100.546875 37.773438 103.375 35.121094 106.695312 35.121094 C 110.011719 35.121094 112.839844 37.773438 112.839844 41.703125 C 112.839844 45.53125 110.011719 48.28125 106.695312 48.28125 Z M 106.695312 48.28125 " fill-opacity="1" fill-rule="nonzero"/><path fill="#34a853" d="M 144.0625 19.601562 L 148.746094 19.601562 L 148.746094 52.605469 L 144.0625 52.605469 Z M 144.0625 19.601562 " fill-opacity="1" fill-rule="nonzero"/><g clip-path="url(#f41b8792a1)"><path fill="#ea4335" d="M 163.1875 48.28125 C 160.746094 48.28125 159.089844 47.203125 157.917969 44.941406 L 172.457031 38.949219 L 171.96875 37.675781 C 171.089844 35.21875 168.261719 30.699219 162.699219 30.699219 C 157.136719 30.699219 152.453125 35.121094 152.453125 41.601562 C 152.453125 47.695312 157.039062 52.507812 163.1875 52.507812 C 168.164062 52.507812 170.992188 49.460938 172.261719 47.695312 L 168.554688 45.238281 C 167.285156 47.105469 165.625 48.28125 163.1875 48.28125 Z M 162.894531 34.824219 C 164.84375 34.824219 166.503906 35.808594 166.992188 37.183594 L 157.234375 41.308594 C 157.136719 36.789062 160.453125 34.824219 162.894531 34.824219 Z M 162.894531 34.824219 " fill-opacity="1" fill-rule="nonzero"/></g></svg>