<svg xmlns="http://www.w3.org/2000/svg" xmlns:xlink="http://www.w3.org/1999/xlink" width="288" zoomAndPan="magnify" viewBox="0 0 216 72" height="96" preserveAspectRatio="xMidYMid meet" version="1.0"><defs><clipPath id="9f918e0f36"><path d="M 58 43 L 122 43 L 122 57.363281 L 58 57.363281 Z M 58 43 " clip-rule="nonzero"/></clipPath><clipPath id="a6ef83178a"><path d="M 114 18.363281 L 131 18.363281 L 131 41 L 114 41 Z M 114 18.363281 " clip-rule="nonzero"/></clipPath><clipPath id="33a9514929"><path d="M 62 18.363281 L 90 18.363281 L 90 41 L 62 41 Z M 62 18.363281 " clip-rule="nonzero"/></clipPath><clipPath id="30f381b299"><path d="M 132 18.363281 L 151 18.363281 L 151 42 L 132 42 Z M 132 18.363281 " clip-rule="nonzero"/></clipPath><clipPath id="0b080c7b0b"><path d="M 153 18.363281 L 170 18.363281 L 170 41 L 153 41 Z M 153 18.363281 " clip-rule="nonzero"/></clipPath><clipPath id="d02d46712f"><path d="M 92 18.363281 L 113 18.363281 L 113 42 L 92 42 Z M 92 18.363281 " clip-rule="nonzero"/></clipPath><clipPath id="4443c47750"><path d="M 40.28125 18.363281 L 60 18.363281 L 60 42 L 40.28125 42 Z M 40.28125 18.363281 " clip-rule="nonzero"/></clipPath></defs><g clip-path="url(#9f918e0f36)"><path fill="#ff9900" d="M 120.757812 48.863281 C 113.226562 54.40625 102.3125 57.363281 92.914062 57.363281 C 79.734375 57.363281 67.871094 52.496094 58.898438 44.402344 C 58.191406 43.765625 58.824219 42.898438 59.671875 43.394531 C 69.355469 49.019531 81.332031 52.40625 93.703125 52.40625 C 102.046875 52.40625 111.222656 50.683594 119.664062 47.105469 C 120.9375 46.566406 122.003906 47.941406 120.757812 48.863281 " fill-opacity="1" fill-rule="evenodd"/></g><path fill="#ff9900" d="M 123.890625 45.285156 C 122.929688 44.058594 117.527344 44.707031 115.101562 44.992188 C 114.359375 45.082031 114.25 44.441406 114.914062 43.980469 C 119.21875 40.953125 126.28125 41.828125 127.105469 42.839844 C 127.929688 43.859375 126.890625 50.929688 122.84375 54.304688 C 122.226562 54.824219 121.632812 54.546875 121.910156 53.859375 C 122.816406 51.59375 124.855469 46.519531 123.890625 45.285156 " fill-opacity="1" fill-rule="evenodd"/><g clip-path="url(#a6ef83178a)"><path fill="#000000" d="M 115.269531 22.625 L 115.269531 19.683594 C 115.269531 19.238281 115.609375 18.9375 116.015625 18.9375 L 129.195312 18.9375 C 129.621094 18.9375 129.957031 19.242188 129.957031 19.683594 L 129.957031 22.199219 C 129.953125 22.625 129.597656 23.175781 128.964844 24.046875 L 122.132812 33.789062 C 124.671875 33.726562 127.351562 34.105469 129.652344 35.398438 C 130.171875 35.691406 130.3125 36.121094 130.355469 36.542969 L 130.355469 39.679688 C 130.355469 40.109375 129.878906 40.609375 129.382812 40.351562 C 125.328125 38.226562 119.941406 37.996094 115.457031 40.375 C 115 40.621094 114.519531 40.125 114.519531 39.699219 L 114.519531 36.71875 C 114.519531 36.238281 114.523438 35.421875 115.003906 34.695312 L 122.917969 23.359375 L 116.03125 23.359375 C 115.609375 23.359375 115.269531 23.0625 115.269531 22.625 " fill-opacity="1" fill-rule="evenodd"/></g><g clip-path="url(#33a9514929)"><path fill="#000000" d="M 67.179688 40.972656 L 63.167969 40.972656 C 62.785156 40.941406 62.480469 40.65625 62.453125 40.289062 L 62.453125 19.734375 C 62.453125 19.320312 62.796875 18.996094 63.222656 18.996094 L 66.964844 18.996094 C 67.351562 19.011719 67.664062 19.3125 67.691406 19.683594 L 67.691406 22.371094 L 67.765625 22.371094 C 68.742188 19.773438 70.574219 18.5625 73.046875 18.5625 C 75.554688 18.5625 77.125 19.773438 78.253906 22.371094 C 79.222656 19.773438 81.429688 18.5625 83.792969 18.5625 C 85.472656 18.5625 87.3125 19.253906 88.433594 20.808594 C 89.703125 22.539062 89.445312 25.050781 89.445312 27.253906 L 89.4375 40.226562 C 89.4375 40.640625 89.09375 40.972656 88.664062 40.972656 L 84.660156 40.972656 C 84.261719 40.941406 83.9375 40.621094 83.9375 40.226562 L 83.9375 29.332031 C 83.9375 28.464844 84.015625 26.300781 83.824219 25.480469 C 83.527344 24.097656 82.628906 23.710938 81.46875 23.710938 C 80.496094 23.710938 79.480469 24.359375 79.070312 25.394531 C 78.660156 26.429688 78.699219 28.167969 78.699219 29.332031 L 78.699219 40.226562 C 78.699219 40.640625 78.355469 40.972656 77.925781 40.972656 L 73.917969 40.972656 C 73.511719 40.941406 73.199219 40.621094 73.199219 40.226562 L 73.191406 29.332031 C 73.191406 27.039062 73.570312 23.664062 70.722656 23.664062 C 67.839844 23.664062 67.953125 26.957031 67.953125 29.332031 L 67.953125 40.226562 C 67.953125 40.640625 67.605469 40.972656 67.179688 40.972656 " fill-opacity="1" fill-rule="evenodd"/></g><g clip-path="url(#30f381b299)"><path fill="#000000" d="M 141.308594 18.5625 C 147.261719 18.5625 150.480469 23.664062 150.480469 30.15625 C 150.480469 36.425781 146.921875 41.398438 141.308594 41.398438 C 135.464844 41.398438 132.28125 36.296875 132.28125 29.933594 C 132.28125 23.535156 135.503906 18.5625 141.308594 18.5625 M 141.34375 22.757812 C 138.386719 22.757812 138.199219 26.78125 138.199219 29.289062 C 138.199219 31.800781 138.160156 37.164062 141.308594 37.164062 C 144.417969 37.164062 144.5625 32.835938 144.5625 30.199219 C 144.5625 28.464844 144.492188 26.390625 143.964844 24.746094 C 143.515625 23.316406 142.617188 22.757812 141.34375 22.757812 " fill-opacity="1" fill-rule="evenodd"/></g><g clip-path="url(#0b080c7b0b)"><path fill="#000000" d="M 158.199219 40.972656 L 154.203125 40.972656 C 153.804688 40.941406 153.480469 40.621094 153.480469 40.226562 L 153.476562 19.664062 C 153.511719 19.289062 153.84375 18.996094 154.25 18.996094 L 157.96875 18.996094 C 158.316406 19.011719 158.605469 19.25 158.683594 19.570312 L 158.683594 22.714844 L 158.757812 22.714844 C 159.878906 19.902344 161.453125 18.5625 164.222656 18.5625 C 166.023438 18.5625 167.777344 19.210938 168.90625 20.984375 C 169.953125 22.628906 169.953125 25.394531 169.953125 27.382812 L 169.953125 40.324219 C 169.910156 40.683594 169.578125 40.972656 169.183594 40.972656 L 165.160156 40.972656 C 164.792969 40.941406 164.488281 40.671875 164.449219 40.324219 L 164.449219 29.15625 C 164.449219 26.910156 164.707031 23.621094 161.9375 23.621094 C 160.960938 23.621094 160.066406 24.273438 159.621094 25.265625 C 159.054688 26.519531 158.984375 27.773438 158.984375 29.15625 L 158.984375 40.226562 C 158.976562 40.640625 158.628906 40.972656 158.199219 40.972656 " fill-opacity="1" fill-rule="evenodd"/></g><g clip-path="url(#d02d46712f)"><path fill="#000000" d="M 104.761719 31.152344 C 104.761719 32.710938 104.800781 34.015625 104.007812 35.398438 C 103.371094 36.527344 102.355469 37.21875 101.234375 37.21875 C 99.695312 37.21875 98.792969 36.046875 98.792969 34.316406 C 98.792969 30.902344 101.855469 30.285156 104.761719 30.285156 L 104.761719 31.152344 M 108.804688 40.914062 C 108.539062 41.152344 108.15625 41.167969 107.855469 41.011719 C 106.527344 39.90625 106.28125 39.394531 105.554688 38.339844 C 103.355469 40.582031 101.792969 41.253906 98.945312 41.253906 C 95.566406 41.253906 92.941406 39.175781 92.941406 35.011719 C 92.941406 31.761719 94.703125 29.546875 97.21875 28.464844 C 99.394531 27.507812 102.4375 27.339844 104.761719 27.074219 L 104.761719 26.554688 C 104.761719 25.601562 104.832031 24.476562 104.269531 23.652344 C 103.785156 22.917969 102.847656 22.613281 102.019531 22.613281 C 100.488281 22.613281 99.128906 23.394531 98.796875 25.015625 C 98.730469 25.378906 98.464844 25.734375 98.097656 25.75 L 94.210938 25.332031 C 93.882812 25.257812 93.515625 24.996094 93.613281 24.492188 C 94.503906 19.785156 98.769531 18.363281 102.582031 18.363281 C 104.535156 18.363281 107.082031 18.882812 108.625 20.359375 C 110.574219 22.179688 110.390625 24.605469 110.390625 27.25 L 110.390625 33.488281 C 110.390625 35.367188 111.167969 36.1875 111.902344 37.203125 C 112.15625 37.5625 112.210938 37.996094 111.882812 38.265625 C 111.066406 38.949219 109.609375 40.214844 108.808594 40.925781 L 108.804688 40.914062 " fill-opacity="1" fill-rule="evenodd"/></g><g clip-path="url(#4443c47750)"><path fill="#000000" d="M 52.179688 31.152344 C 52.179688 32.710938 52.21875 34.015625 51.429688 35.398438 C 50.789062 36.527344 49.78125 37.21875 48.652344 37.21875 C 47.113281 37.21875 46.214844 36.046875 46.214844 34.316406 C 46.214844 30.902344 49.277344 30.285156 52.179688 30.285156 L 52.179688 31.152344 M 56.222656 40.914062 C 55.957031 41.152344 55.574219 41.167969 55.277344 41.011719 C 53.945312 39.90625 53.707031 39.394531 52.972656 38.339844 C 50.773438 40.582031 49.21875 41.253906 46.363281 41.253906 C 42.988281 41.253906 40.359375 39.175781 40.359375 35.011719 C 40.359375 31.761719 42.125 29.546875 44.636719 28.464844 C 46.8125 27.507812 49.855469 27.339844 52.179688 27.074219 L 52.179688 26.554688 C 52.179688 25.601562 52.253906 24.476562 51.695312 23.652344 C 51.203125 22.917969 50.265625 22.613281 49.441406 22.613281 C 47.914062 22.613281 46.546875 23.394531 46.214844 25.015625 C 46.148438 25.378906 45.882812 25.734375 45.523438 25.75 L 41.628906 25.332031 C 41.300781 25.257812 40.941406 24.996094 41.03125 24.492188 C 41.929688 19.785156 46.1875 18.363281 50 18.363281 C 51.953125 18.363281 54.503906 18.882812 56.042969 20.359375 C 57.996094 22.179688 57.808594 24.605469 57.808594 27.25 L 57.808594 33.488281 C 57.808594 35.367188 58.585938 36.1875 59.320312 37.203125 C 59.578125 37.5625 59.636719 37.996094 59.308594 38.265625 C 58.492188 38.949219 57.035156 40.214844 56.234375 40.925781 L 56.222656 40.914062 " fill-opacity="1" fill-rule="evenodd"/></g></svg>