<svg xmlns="http://www.w3.org/2000/svg" xmlns:xlink="http://www.w3.org/1999/xlink" width="288" zoomAndPan="magnify" viewBox="0 0 216 72" height="96" preserveAspectRatio="xMidYMid meet" version="1.0"><defs><clipPath id="918ae4c860"><path d="M 172 37 L 180 37 L 180 45.980469 L 172 45.980469 Z M 172 37 " clip-rule="nonzero"/></clipPath><clipPath id="91fe4dc2e1"><path d="M 31.894531 18.230469 L 55 18.230469 L 55 45.980469 L 31.894531 45.980469 Z M 31.894531 18.230469 " clip-rule="nonzero"/></clipPath><clipPath id="2b9ab471ac"><path d="M 78 18.230469 L 85 18.230469 L 85 45.980469 L 78 45.980469 Z M 78 18.230469 " clip-rule="nonzero"/></clipPath><clipPath id="9ab776e68c"><path d="M 87 24 L 108 24 L 108 45.980469 L 87 45.980469 Z M 87 24 " clip-rule="nonzero"/></clipPath><clipPath id="c2ae1f89c3"><path d="M 110 25 L 117 25 L 117 45.980469 L 110 45.980469 Z M 110 25 " clip-rule="nonzero"/></clipPath><clipPath id="5d5c7d9070"><path d="M 110 18.230469 L 117 18.230469 L 117 23 L 110 23 Z M 110 18.230469 " clip-rule="nonzero"/></clipPath><clipPath id="f0271adda3"><path d="M 119 18.230469 L 134 18.230469 L 134 45.980469 L 119 45.980469 Z M 119 18.230469 " clip-rule="nonzero"/></clipPath><clipPath id="ac26cef690"><path d="M 135 18.230469 L 150 18.230469 L 150 45.980469 L 135 45.980469 Z M 135 18.230469 " clip-rule="nonzero"/></clipPath><clipPath id="ba442043d1"><path d="M 151 24 L 171 24 L 171 45.980469 L 151 45.980469 Z M 151 24 " clip-rule="nonzero"/></clipPath><clipPath id="4ccd7a1909"><path d="M 56 24 L 76 24 L 76 45.980469 L 56 45.980469 Z M 56 24 " clip-rule="nonzero"/></clipPath></defs><g clip-path="url(#918ae4c860)"><path fill="#86bc25" d="M 172.074219 41.898438 C 172.074219 39.695312 173.867188 37.980469 175.988281 37.980469 C 178.191406 37.980469 179.90625 39.777344 179.90625 41.898438 C 179.90625 44.019531 178.109375 45.816406 175.988281 45.816406 C 173.867188 45.816406 172.074219 44.101562 172.074219 41.898438 " fill-opacity="1" fill-rule="nonzero"/></g><g clip-path="url(#91fe4dc2e1)"><path fill="#000000" d="M 54.414062 31.371094 C 54.414062 35.941406 53.273438 39.367188 50.824219 41.816406 C 48.378906 44.265625 44.949219 45.488281 40.542969 45.488281 L 31.894531 45.488281 L 31.894531 18.3125 L 41.035156 18.3125 C 45.359375 18.3125 48.621094 19.375 50.90625 21.660156 C 53.273438 23.863281 54.414062 27.125 54.414062 31.371094 M 46.910156 31.617188 C 46.910156 29.085938 46.417969 27.289062 45.441406 26.066406 C 44.542969 24.921875 42.992188 24.269531 41.035156 24.269531 L 39.074219 24.269531 L 39.074219 39.449219 L 40.707031 39.449219 C 42.910156 39.449219 44.460938 38.796875 45.523438 37.492188 C 46.417969 36.1875 46.910156 34.226562 46.910156 31.617188 " fill-opacity="1" fill-rule="nonzero"/></g><g clip-path="url(#2b9ab471ac)"><path fill="#000000" d="M 78.160156 18.230469 L 84.929688 18.230469 L 84.929688 45.488281 L 78.160156 45.488281 Z M 78.160156 18.230469 " fill-opacity="1" fill-rule="nonzero"/></g><g clip-path="url(#9ab776e68c)"><path fill="#000000" d="M 107.289062 35.289062 C 107.289062 38.554688 106.472656 41.164062 104.675781 43.042969 C 102.882812 44.917969 100.433594 45.816406 97.332031 45.816406 C 94.316406 45.816406 91.949219 44.917969 90.152344 42.960938 C 88.359375 41 87.460938 38.472656 87.460938 35.289062 C 87.460938 32.023438 88.277344 29.410156 90.070312 27.617188 C 91.867188 25.738281 94.316406 24.839844 97.414062 24.839844 C 99.375 24.839844 101.085938 25.25 102.554688 26.066406 C 104.105469 26.882812 105.167969 28.105469 105.984375 29.65625 C 106.960938 31.371094 107.289062 33.167969 107.289062 35.289062 M 94.476562 35.289062 C 94.476562 37.082031 94.722656 38.308594 95.128906 39.207031 C 95.539062 40.105469 96.273438 40.511719 97.414062 40.511719 C 98.558594 40.511719 99.210938 40.105469 99.699219 39.207031 C 100.109375 38.308594 100.351562 36.921875 100.351562 35.289062 C 100.351562 33.492188 100.109375 32.269531 99.699219 31.371094 C 99.292969 30.554688 98.558594 30.066406 97.414062 30.066406 C 96.4375 30.066406 95.621094 30.472656 95.128906 31.371094 C 94.722656 32.269531 94.476562 33.492188 94.476562 35.289062 " fill-opacity="1" fill-rule="nonzero"/></g><g clip-path="url(#c2ae1f89c3)"><path fill="#000000" d="M 110.0625 25.167969 L 116.835938 25.167969 L 116.835938 45.410156 L 110.0625 45.410156 Z M 110.0625 25.167969 " fill-opacity="1" fill-rule="nonzero"/></g><g clip-path="url(#5d5c7d9070)"><path fill="#000000" d="M 110.0625 18.230469 L 116.835938 18.230469 L 116.835938 22.800781 L 110.0625 22.800781 Z M 110.0625 18.230469 " fill-opacity="1" fill-rule="nonzero"/></g><g clip-path="url(#f0271adda3)"><path fill="#000000" d="M 130.625 40.265625 C 131.519531 40.265625 132.664062 40.023438 133.886719 39.613281 L 133.886719 44.753906 C 132.988281 45.164062 132.09375 45.410156 131.277344 45.570312 C 130.460938 45.734375 129.480469 45.816406 128.339844 45.816406 C 126.054688 45.816406 124.421875 45.246094 123.363281 44.019531 C 122.382812 42.878906 121.8125 41.082031 121.8125 38.714844 L 121.8125 30.390625 L 119.445312 30.390625 L 119.445312 25.167969 L 121.8125 25.167969 L 121.8125 20.109375 L 128.664062 18.964844 L 128.664062 25.332031 L 133.070312 25.332031 L 133.070312 30.472656 L 128.664062 30.472656 L 128.664062 38.308594 C 128.828125 39.695312 129.398438 40.265625 130.625 40.265625 " fill-opacity="1" fill-rule="nonzero"/></g><g clip-path="url(#ac26cef690)"><path fill="#000000" d="M 146.453125 40.265625 C 147.351562 40.265625 148.492188 40.023438 149.714844 39.613281 L 149.714844 44.753906 C 148.820312 45.164062 147.921875 45.410156 147.105469 45.570312 C 146.289062 45.734375 145.3125 45.816406 144.167969 45.816406 C 141.882812 45.816406 140.25 45.246094 139.191406 44.019531 C 138.210938 42.878906 137.640625 41.082031 137.640625 38.714844 L 137.640625 30.390625 L 135.273438 30.390625 L 135.273438 25.167969 L 137.640625 25.167969 L 137.640625 20.027344 L 144.496094 18.964844 L 144.496094 25.332031 L 148.902344 25.332031 L 148.902344 30.472656 L 144.496094 30.472656 L 144.496094 38.308594 C 144.578125 39.695312 145.230469 40.265625 146.453125 40.265625 " fill-opacity="1" fill-rule="nonzero"/></g><g clip-path="url(#ba442043d1)"><path fill="#000000" d="M 167.992188 27.207031 C 166.363281 25.574219 164.078125 24.839844 161.140625 24.839844 C 158.039062 24.839844 155.589844 25.738281 153.878906 27.617188 C 152.164062 29.492188 151.347656 32.105469 151.347656 35.53125 C 151.347656 38.796875 152.246094 41.410156 154.042969 43.203125 C 155.917969 45 158.445312 45.898438 161.710938 45.898438 C 163.34375 45.898438 164.648438 45.816406 165.789062 45.570312 C 166.851562 45.328125 168.074219 45 169.054688 44.429688 L 168.074219 39.859375 C 167.339844 40.183594 166.523438 40.429688 165.871094 40.59375 C 164.894531 40.839844 163.75 40.917969 162.609375 40.917969 C 161.304688 40.917969 160.242188 40.59375 159.507812 40.023438 C 158.773438 39.367188 158.367188 38.472656 158.367188 37.328125 L 170.523438 37.328125 L 170.523438 34.144531 C 170.441406 31.125 169.542969 28.839844 167.992188 27.207031 M 158.367188 32.839844 C 158.445312 31.777344 158.773438 30.882812 159.261719 30.390625 C 159.753906 29.902344 160.40625 29.65625 161.304688 29.65625 C 162.117188 29.65625 162.933594 29.902344 163.425781 30.472656 C 163.914062 31.042969 164.160156 31.777344 164.242188 32.839844 Z M 158.367188 32.839844 " fill-opacity="1" fill-rule="nonzero"/></g><g clip-path="url(#4ccd7a1909)"><path fill="#000000" d="M 73.101562 27.207031 C 71.386719 25.574219 69.183594 24.839844 66.246094 24.839844 C 63.144531 24.839844 60.699219 25.738281 58.984375 27.617188 C 57.269531 29.492188 56.457031 32.105469 56.457031 35.53125 C 56.457031 38.796875 57.351562 41.410156 59.148438 43.203125 C 61.023438 45 63.554688 45.898438 66.816406 45.898438 C 68.449219 45.898438 69.753906 45.816406 70.898438 45.570312 C 71.957031 45.328125 73.183594 45 74.160156 44.429688 L 73.183594 39.777344 C 72.449219 40.101562 71.632812 40.347656 70.980469 40.511719 C 70 40.757812 68.859375 40.839844 67.714844 40.839844 C 66.410156 40.839844 65.347656 40.511719 64.613281 39.941406 C 63.878906 39.289062 63.472656 38.390625 63.472656 37.246094 L 75.628906 37.246094 L 75.628906 34.144531 C 75.546875 31.125 74.652344 28.839844 73.101562 27.207031 M 63.390625 32.839844 C 63.472656 31.777344 63.796875 30.882812 64.289062 30.390625 C 64.777344 29.902344 65.429688 29.65625 66.328125 29.65625 C 67.226562 29.65625 67.960938 29.902344 68.449219 30.472656 C 68.9375 31.042969 69.183594 31.777344 69.265625 32.839844 Z M 63.390625 32.839844 " fill-opacity="1" fill-rule="nonzero"/></g></svg>