<svg xmlns="http://www.w3.org/2000/svg" xmlns:xlink="http://www.w3.org/1999/xlink" width="468" zoomAndPan="magnify" viewBox="0 0 351 350.250003" height="467" preserveAspectRatio="xMidYMid meet" version="1.0"><defs><clipPath id="6b322a3ce6"><path d="M 320 127 L 334 127 L 334 142 L 320 142 Z M 320 127 " clip-rule="nonzero"/></clipPath><clipPath id="8636ca621b"><path d="M 333.980469 134.359375 C 333.980469 134.804688 333.9375 135.246094 333.851562 135.679688 C 333.765625 136.117188 333.636719 136.539062 333.46875 136.949219 C 333.296875 137.359375 333.089844 137.75 332.84375 138.121094 C 332.597656 138.488281 332.316406 138.832031 332.003906 139.144531 C 331.6875 139.460938 331.347656 139.742188 330.976562 139.988281 C 330.609375 140.234375 330.21875 140.441406 329.808594 140.613281 C 329.398438 140.785156 328.976562 140.910156 328.539062 141 C 328.105469 141.085938 327.664062 141.128906 327.222656 141.128906 C 326.777344 141.128906 326.339844 141.085938 325.902344 141 C 325.46875 140.910156 325.042969 140.785156 324.636719 140.613281 C 324.226562 140.441406 323.835938 140.234375 323.464844 139.988281 C 323.097656 139.742188 322.753906 139.460938 322.441406 139.144531 C 322.128906 138.832031 321.847656 138.488281 321.601562 138.121094 C 321.355469 137.75 321.144531 137.359375 320.976562 136.949219 C 320.804688 136.539062 320.679688 136.117188 320.589844 135.679688 C 320.503906 135.246094 320.460938 134.804688 320.460938 134.359375 C 320.460938 133.917969 320.503906 133.476562 320.589844 133.039062 C 320.679688 132.605469 320.804688 132.179688 320.976562 131.769531 C 321.144531 131.359375 321.355469 130.96875 321.601562 130.601562 C 321.847656 130.230469 322.128906 129.890625 322.441406 129.574219 C 322.753906 129.261719 323.097656 128.980469 323.464844 128.734375 C 323.835938 128.488281 324.226562 128.277344 324.636719 128.109375 C 325.042969 127.9375 325.46875 127.808594 325.902344 127.722656 C 326.339844 127.636719 326.777344 127.59375 327.222656 127.59375 C 327.664062 127.59375 328.105469 127.636719 328.539062 127.722656 C 328.976562 127.808594 329.398438 127.9375 329.808594 128.109375 C 330.21875 128.277344 330.609375 128.488281 330.976562 128.734375 C 331.347656 128.980469 331.6875 129.261719 332.003906 129.574219 C 332.316406 129.890625 332.597656 130.230469 332.84375 130.601562 C 333.089844 130.96875 333.296875 131.359375 333.46875 131.769531 C 333.636719 132.179688 333.765625 132.605469 333.851562 133.039062 C 333.9375 133.476562 333.980469 133.917969 333.980469 134.359375 Z M 333.980469 134.359375 " clip-rule="nonzero"/></clipPath><linearGradient x1="1373.529819" gradientTransform="matrix(0.250565, 0, 0, 0.250836, -23.696605, 21.138256)" y1="451.37799" x2="1427.489895" gradientUnits="userSpaceOnUse" y2="451.37799" id="2c3c4f9dbf"><stop stop-opacity="1" stop-color="rgb(73.699951%, 40.79895%, 55.697632%)" offset="0"/><stop stop-opacity="1" stop-color="rgb(73.779297%, 40.786743%, 55.548096%)" offset="0.015625"/><stop stop-opacity="1" stop-color="rgb(73.937988%, 40.760803%, 55.247498%)" offset="0.03125"/><stop stop-opacity="1" stop-color="rgb(74.098206%, 40.736389%, 54.946899%)" offset="0.046875"/><stop stop-opacity="1" stop-color="rgb(74.256897%, 40.711975%, 54.647827%)" offset="0.0625"/><stop stop-opacity="1" stop-color="rgb(74.417114%, 40.686035%, 54.347229%)" offset="0.078125"/><stop stop-opacity="1" stop-color="rgb(74.575806%, 40.661621%, 54.048157%)" offset="0.09375"/><stop stop-opacity="1" stop-color="rgb(74.736023%, 40.635681%, 53.747559%)" offset="0.109375"/><stop stop-opacity="1" stop-color="rgb(74.894714%, 40.611267%, 53.44696%)" offset="0.125"/><stop stop-opacity="1" stop-color="rgb(75.054932%, 40.586853%, 53.147888%)" offset="0.140625"/><stop stop-opacity="1" stop-color="rgb(75.213623%, 40.560913%, 52.84729%)" offset="0.15625"/><stop stop-opacity="1" stop-color="rgb(75.372314%, 40.536499%, 52.548218%)" offset="0.171875"/><stop stop-opacity="1" stop-color="rgb(75.532532%, 40.512085%, 52.24762%)" offset="0.1875"/><stop stop-opacity="1" stop-color="rgb(75.691223%, 40.486145%, 51.947021%)" offset="0.203125"/><stop stop-opacity="1" stop-color="rgb(75.85144%, 40.461731%, 51.647949%)" offset="0.21875"/><stop stop-opacity="1" stop-color="rgb(76.010132%, 40.435791%, 51.347351%)" offset="0.234375"/><stop stop-opacity="1" stop-color="rgb(76.170349%, 40.411377%, 51.048279%)" offset="0.25"/><stop stop-opacity="1" stop-color="rgb(76.329041%, 40.386963%, 50.747681%)" offset="0.265625"/><stop stop-opacity="1" stop-color="rgb(76.489258%, 40.361023%, 50.447083%)" offset="0.28125"/><stop stop-opacity="1" stop-color="rgb(76.647949%, 40.336609%, 50.14801%)" offset="0.296875"/><stop stop-opacity="1" stop-color="rgb(76.806641%, 40.310669%, 49.847412%)" offset="0.3125"/><stop stop-opacity="1" stop-color="rgb(76.966858%, 40.286255%, 49.546814%)" offset="0.328125"/><stop stop-opacity="1" stop-color="rgb(77.125549%, 40.261841%, 49.247742%)" offset="0.34375"/><stop stop-opacity="1" stop-color="rgb(77.285767%, 40.235901%, 48.947144%)" offset="0.359375"/><stop stop-opacity="1" stop-color="rgb(77.444458%, 40.211487%, 48.648071%)" offset="0.375"/><stop stop-opacity="1" stop-color="rgb(77.604675%, 40.187073%, 48.347473%)" offset="0.390625"/><stop stop-opacity="1" stop-color="rgb(77.763367%, 40.161133%, 48.046875%)" offset="0.40625"/><stop stop-opacity="1" stop-color="rgb(77.923584%, 40.136719%, 47.747803%)" offset="0.421875"/><stop stop-opacity="1" stop-color="rgb(78.082275%, 40.110779%, 47.447205%)" offset="0.4375"/><stop stop-opacity="1" stop-color="rgb(78.242493%, 40.086365%, 47.148132%)" offset="0.453125"/><stop stop-opacity="1" stop-color="rgb(78.401184%, 40.061951%, 46.847534%)" offset="0.46875"/><stop stop-opacity="1" stop-color="rgb(78.559875%, 40.036011%, 46.546936%)" offset="0.484375"/><stop stop-opacity="1" stop-color="rgb(78.720093%, 40.011597%, 46.247864%)" offset="0.5"/><stop stop-opacity="1" stop-color="rgb(78.878784%, 39.985657%, 45.947266%)" offset="0.515625"/><stop stop-opacity="1" stop-color="rgb(79.039001%, 39.961243%, 45.648193%)" offset="0.53125"/><stop stop-opacity="1" stop-color="rgb(79.197693%, 39.936829%, 45.347595%)" offset="0.546875"/><stop stop-opacity="1" stop-color="rgb(79.35791%, 39.910889%, 45.046997%)" offset="0.5625"/><stop stop-opacity="1" stop-color="rgb(79.516602%, 39.886475%, 44.747925%)" offset="0.578125"/><stop stop-opacity="1" stop-color="rgb(79.676819%, 39.862061%, 44.447327%)" offset="0.59375"/><stop stop-opacity="1" stop-color="rgb(79.83551%, 39.836121%, 44.146729%)" offset="0.609375"/><stop stop-opacity="1" stop-color="rgb(79.994202%, 39.811707%, 43.847656%)" offset="0.625"/><stop stop-opacity="1" stop-color="rgb(80.154419%, 39.785767%, 43.547058%)" offset="0.640625"/><stop stop-opacity="1" stop-color="rgb(80.31311%, 39.761353%, 43.247986%)" offset="0.65625"/><stop stop-opacity="1" stop-color="rgb(80.473328%, 39.736938%, 42.947388%)" offset="0.671875"/><stop stop-opacity="1" stop-color="rgb(80.632019%, 39.710999%, 42.64679%)" offset="0.6875"/><stop stop-opacity="1" stop-color="rgb(80.792236%, 39.686584%, 42.347717%)" offset="0.703125"/><stop stop-opacity="1" stop-color="rgb(80.950928%, 39.660645%, 42.047119%)" offset="0.71875"/><stop stop-opacity="1" stop-color="rgb(81.111145%, 39.63623%, 41.748047%)" offset="0.734375"/><stop stop-opacity="1" stop-color="rgb(81.269836%, 39.611816%, 41.447449%)" offset="0.75"/><stop stop-opacity="1" stop-color="rgb(81.430054%, 39.585876%, 41.146851%)" offset="0.765625"/><stop stop-opacity="1" stop-color="rgb(81.588745%, 39.561462%, 40.847778%)" offset="0.78125"/><stop stop-opacity="1" stop-color="rgb(81.747437%, 39.537048%, 40.54718%)" offset="0.796875"/><stop stop-opacity="1" stop-color="rgb(81.907654%, 39.511108%, 40.248108%)" offset="0.8125"/><stop stop-opacity="1" stop-color="rgb(82.066345%, 39.486694%, 39.94751%)" offset="0.828125"/><stop stop-opacity="1" stop-color="rgb(82.226562%, 39.460754%, 39.646912%)" offset="0.84375"/><stop stop-opacity="1" stop-color="rgb(82.385254%, 39.43634%, 39.347839%)" offset="0.859375"/><stop stop-opacity="1" stop-color="rgb(82.545471%, 39.411926%, 39.047241%)" offset="0.875"/><stop stop-opacity="1" stop-color="rgb(82.704163%, 39.385986%, 38.746643%)" offset="0.890625"/><stop stop-opacity="1" stop-color="rgb(82.86438%, 39.361572%, 38.447571%)" offset="0.90625"/><stop stop-opacity="1" stop-color="rgb(83.023071%, 39.335632%, 38.146973%)" offset="0.921875"/><stop stop-opacity="1" stop-color="rgb(83.181763%, 39.311218%, 37.8479%)" offset="0.9375"/><stop stop-opacity="1" stop-color="rgb(83.34198%, 39.286804%, 37.547302%)" offset="0.953125"/><stop stop-opacity="1" stop-color="rgb(83.500671%, 39.260864%, 37.246704%)" offset="0.96875"/><stop stop-opacity="1" stop-color="rgb(83.660889%, 39.23645%, 36.947632%)" offset="0.984375"/><stop stop-opacity="1" stop-color="rgb(83.81958%, 39.212036%, 36.64856%)" offset="1"/></linearGradient><clipPath id="24046fa193"><path d="M 267 148 L 315 148 L 315 205 L 267 205 Z M 267 148 " clip-rule="nonzero"/></clipPath><clipPath id="99f014db5d"><path d="M 312.3125 158.917969 C 309.714844 153.550781 305.253906 150.328125 299.484375 149.296875 C 292.949219 148.125 286.585938 149.269531 281.351562 153.53125 C 279.625 154.851562 278.289062 156.335938 277.347656 157.988281 C 276.882812 158.804688 276.648438 158.746094 276.648438 157.804688 L 276.652344 150.734375 C 276.652344 150.636719 276.605469 150.589844 276.507812 150.589844 L 267.71875 150.589844 C 267.671875 150.589844 267.628906 150.628906 267.628906 150.679688 L 267.628906 204.472656 C 267.628906 204.585938 267.683594 204.644531 267.796875 204.644531 L 277.097656 204.644531 C 277.183594 204.644531 277.226562 204.601562 277.226562 204.515625 C 277.246094 194.882812 277.242188 185.179688 277.21875 175.410156 C 277.214844 173.570312 277.332031 172.035156 277.570312 170.808594 C 278.324219 166.949219 280.171875 163.652344 283.109375 160.910156 C 283.550781 160.566406 283.988281 160.234375 284.417969 159.917969 C 287.214844 157.839844 290.261719 157.300781 293.667969 157.59375 C 297.824219 157.953125 301.976562 160.058594 303.644531 163.925781 C 304.53125 165.972656 304.972656 168.253906 304.980469 170.769531 C 304.996094 181.6875 305 192.957031 304.988281 204.566406 C 304.988281 204.621094 305.015625 204.644531 305.066406 204.644531 L 314.449219 204.644531 C 314.539062 204.644531 314.589844 204.597656 314.589844 204.503906 C 314.605469 192.796875 314.601562 181.105469 314.574219 169.429688 C 314.566406 165.523438 313.808594 162.019531 312.3125 158.917969 Z M 281.410156 153.921875 C 281.410156 153.921875 281.417969 153.921875 281.417969 153.921875 C 281.421875 153.925781 281.429688 153.929688 281.433594 153.929688 C 281.421875 153.925781 281.417969 153.921875 281.410156 153.921875 Z M 281.410156 153.921875 " clip-rule="nonzero"/></clipPath><linearGradient x1="1162.680104" gradientTransform="matrix(0.250565, 0, 0, 0.250836, -23.696605, 21.138256)" y1="620.38702" x2="1350.160071" gradientUnits="userSpaceOnUse" y2="620.38702" id="99c300d43b"><stop stop-opacity="1" stop-color="rgb(56.898499%, 46.699524%, 77.999878%)" offset="0"/><stop stop-opacity="1" stop-color="rgb(57.073975%, 46.635437%, 77.886963%)" offset="0.25"/><stop stop-opacity="1" stop-color="rgb(57.426453%, 46.507263%, 77.662659%)" offset="0.5"/><stop stop-opacity="1" stop-color="rgb(57.778931%, 46.379089%, 77.438354%)" offset="0.75"/><stop stop-opacity="1" stop-color="rgb(58.004761%, 46.296692%, 77.275085%)" offset="0.78125"/><stop stop-opacity="1" stop-color="rgb(58.627319%, 46.078491%, 76.434326%)" offset="0.785156"/><stop stop-opacity="1" stop-color="rgb(59.20105%, 45.878601%, 75.645447%)" offset="0.789062"/><stop stop-opacity="1" stop-color="rgb(59.773254%, 45.677185%, 74.856567%)" offset="0.792969"/><stop stop-opacity="1" stop-color="rgb(60.346985%, 45.477295%, 74.069214%)" offset="0.796875"/><stop stop-opacity="1" stop-color="rgb(60.920715%, 45.275879%, 73.280334%)" offset="0.800781"/><stop stop-opacity="1" stop-color="rgb(61.494446%, 45.074463%, 72.491455%)" offset="0.804687"/><stop stop-opacity="1" stop-color="rgb(62.06665%, 44.873047%, 71.702576%)" offset="0.808594"/><stop stop-opacity="1" stop-color="rgb(62.640381%, 44.673157%, 70.913696%)" offset="0.8125"/><stop stop-opacity="1" stop-color="rgb(63.212585%, 44.471741%, 70.124817%)" offset="0.816406"/><stop stop-opacity="1" stop-color="rgb(63.786316%, 44.271851%, 69.337463%)" offset="0.820312"/><stop stop-opacity="1" stop-color="rgb(64.360046%, 44.070435%, 68.548584%)" offset="0.824219"/><stop stop-opacity="1" stop-color="rgb(64.933777%, 43.870544%, 67.759705%)" offset="0.828125"/><stop stop-opacity="1" stop-color="rgb(65.505981%, 43.669128%, 66.970825%)" offset="0.832031"/><stop stop-opacity="1" stop-color="rgb(66.079712%, 43.469238%, 66.181946%)" offset="0.835937"/><stop stop-opacity="1" stop-color="rgb(66.651917%, 43.267822%, 65.393066%)" offset="0.839844"/><stop stop-opacity="1" stop-color="rgb(67.225647%, 43.066406%, 64.604187%)" offset="0.84375"/><stop stop-opacity="1" stop-color="rgb(67.799377%, 42.86499%, 63.815308%)" offset="0.847656"/><stop stop-opacity="1" stop-color="rgb(68.373108%, 42.6651%, 63.027954%)" offset="0.851562"/><stop stop-opacity="1" stop-color="rgb(68.945312%, 42.463684%, 62.239075%)" offset="0.855469"/><stop stop-opacity="1" stop-color="rgb(69.519043%, 42.263794%, 61.450195%)" offset="0.859375"/><stop stop-opacity="1" stop-color="rgb(70.091248%, 42.062378%, 60.661316%)" offset="0.863281"/><stop stop-opacity="1" stop-color="rgb(70.664978%, 41.862488%, 59.872437%)" offset="0.867188"/><stop stop-opacity="1" stop-color="rgb(71.238708%, 41.661072%, 59.083557%)" offset="0.871094"/><stop stop-opacity="1" stop-color="rgb(71.812439%, 41.459656%, 58.296204%)" offset="0.875"/><stop stop-opacity="1" stop-color="rgb(72.384644%, 41.25824%, 57.507324%)" offset="0.878906"/><stop stop-opacity="1" stop-color="rgb(72.958374%, 41.05835%, 56.718445%)" offset="0.882812"/><stop stop-opacity="1" stop-color="rgb(73.454285%, 40.908813%, 55.970764%)" offset="0.886719"/><stop stop-opacity="1" stop-color="rgb(73.951721%, 40.759277%, 55.224609%)" offset="0.890625"/><stop stop-opacity="1" stop-color="rgb(74.307251%, 40.70282%, 54.554749%)" offset="0.894531"/><stop stop-opacity="1" stop-color="rgb(74.662781%, 40.647888%, 53.886414%)" offset="0.898437"/><stop stop-opacity="1" stop-color="rgb(75.018311%, 40.591431%, 53.216553%)" offset="0.902344"/><stop stop-opacity="1" stop-color="rgb(75.37384%, 40.536499%, 52.546692%)" offset="0.90625"/><stop stop-opacity="1" stop-color="rgb(75.72937%, 40.480042%, 51.876831%)" offset="0.910156"/><stop stop-opacity="1" stop-color="rgb(76.086426%, 40.42511%, 51.20697%)" offset="0.914062"/><stop stop-opacity="1" stop-color="rgb(76.441956%, 40.368652%, 50.537109%)" offset="0.917969"/><stop stop-opacity="1" stop-color="rgb(76.797485%, 40.313721%, 49.867249%)" offset="0.921875"/><stop stop-opacity="1" stop-color="rgb(77.153015%, 40.257263%, 49.197388%)" offset="0.925781"/><stop stop-opacity="1" stop-color="rgb(77.508545%, 40.202332%, 48.527527%)" offset="0.929687"/><stop stop-opacity="1" stop-color="rgb(77.864075%, 40.145874%, 47.857666%)" offset="0.933594"/><stop stop-opacity="1" stop-color="rgb(78.22113%, 40.089417%, 47.187805%)" offset="0.9375"/><stop stop-opacity="1" stop-color="rgb(78.57666%, 40.032959%, 46.517944%)" offset="0.941406"/><stop stop-opacity="1" stop-color="rgb(78.93219%, 39.978027%, 45.849609%)" offset="0.945312"/><stop stop-opacity="1" stop-color="rgb(79.28772%, 39.92157%, 45.179749%)" offset="0.949219"/><stop stop-opacity="1" stop-color="rgb(79.64325%, 39.866638%, 44.509888%)" offset="0.953125"/><stop stop-opacity="1" stop-color="rgb(79.998779%, 39.810181%, 43.840027%)" offset="0.957031"/><stop stop-opacity="1" stop-color="rgb(80.355835%, 39.755249%, 43.170166%)" offset="0.960938"/><stop stop-opacity="1" stop-color="rgb(80.711365%, 39.698792%, 42.500305%)" offset="0.964844"/><stop stop-opacity="1" stop-color="rgb(81.066895%, 39.64386%, 41.830444%)" offset="0.96875"/><stop stop-opacity="1" stop-color="rgb(81.422424%, 39.587402%, 41.160583%)" offset="0.972656"/><stop stop-opacity="1" stop-color="rgb(81.777954%, 39.532471%, 40.490723%)" offset="0.976562"/><stop stop-opacity="1" stop-color="rgb(82.133484%, 39.476013%, 39.820862%)" offset="0.980469"/><stop stop-opacity="1" stop-color="rgb(82.49054%, 39.419556%, 39.151001%)" offset="0.984375"/><stop stop-opacity="1" stop-color="rgb(82.846069%, 39.363098%, 38.48114%)" offset="0.988281"/><stop stop-opacity="1" stop-color="rgb(83.201599%, 39.308167%, 37.812805%)" offset="0.992187"/><stop stop-opacity="1" stop-color="rgb(83.5495%, 39.253235%, 37.155151%)" offset="0.996094"/><stop stop-opacity="1" stop-color="rgb(83.898926%, 39.199829%, 36.499023%)" offset="1"/></linearGradient><clipPath id="2944534aeb"><path d="M 322 150 L 333 150 L 333 205 L 322 205 Z M 322 150 " clip-rule="nonzero"/></clipPath><clipPath id="6721e059a2"><path d="M 331.949219 150.589844 L 322.617188 150.589844 C 322.582031 150.589844 322.550781 150.621094 322.550781 150.65625 L 322.550781 204.578125 C 322.550781 204.613281 322.582031 204.644531 322.617188 204.644531 L 331.949219 204.644531 C 331.988281 204.644531 332.019531 204.613281 332.019531 204.578125 L 332.019531 150.65625 C 332.019531 150.621094 331.988281 150.589844 331.949219 150.589844 Z M 331.949219 150.589844 " clip-rule="nonzero"/></clipPath><linearGradient x1="1381.869908" gradientTransform="matrix(0.250565, 0, 0, 0.250836, -23.696605, 21.138256)" y1="623.828" x2="1419.649926" gradientUnits="userSpaceOnUse" y2="623.828" id="fad8c05d99"><stop stop-opacity="1" stop-color="rgb(73.699951%, 40.79895%, 55.697632%)" offset="0"/><stop stop-opacity="1" stop-color="rgb(73.779297%, 40.786743%, 55.54657%)" offset="0.015625"/><stop stop-opacity="1" stop-color="rgb(73.939514%, 40.760803%, 55.247498%)" offset="0.03125"/><stop stop-opacity="1" stop-color="rgb(74.098206%, 40.736389%, 54.946899%)" offset="0.046875"/><stop stop-opacity="1" stop-color="rgb(74.258423%, 40.711975%, 54.646301%)" offset="0.0625"/><stop stop-opacity="1" stop-color="rgb(74.417114%, 40.686035%, 54.347229%)" offset="0.078125"/><stop stop-opacity="1" stop-color="rgb(74.575806%, 40.661621%, 54.046631%)" offset="0.09375"/><stop stop-opacity="1" stop-color="rgb(74.736023%, 40.635681%, 53.747559%)" offset="0.109375"/><stop stop-opacity="1" stop-color="rgb(74.894714%, 40.611267%, 53.44696%)" offset="0.125"/><stop stop-opacity="1" stop-color="rgb(75.054932%, 40.586853%, 53.146362%)" offset="0.140625"/><stop stop-opacity="1" stop-color="rgb(75.213623%, 40.560913%, 52.84729%)" offset="0.15625"/><stop stop-opacity="1" stop-color="rgb(75.37384%, 40.536499%, 52.546692%)" offset="0.171875"/><stop stop-opacity="1" stop-color="rgb(75.532532%, 40.510559%, 52.24762%)" offset="0.1875"/><stop stop-opacity="1" stop-color="rgb(75.692749%, 40.486145%, 51.947021%)" offset="0.203125"/><stop stop-opacity="1" stop-color="rgb(75.85144%, 40.461731%, 51.646423%)" offset="0.21875"/><stop stop-opacity="1" stop-color="rgb(76.010132%, 40.435791%, 51.347351%)" offset="0.234375"/><stop stop-opacity="1" stop-color="rgb(76.170349%, 40.411377%, 51.046753%)" offset="0.25"/><stop stop-opacity="1" stop-color="rgb(76.329041%, 40.386963%, 50.746155%)" offset="0.265625"/><stop stop-opacity="1" stop-color="rgb(76.489258%, 40.361023%, 50.447083%)" offset="0.28125"/><stop stop-opacity="1" stop-color="rgb(76.647949%, 40.336609%, 50.146484%)" offset="0.296875"/><stop stop-opacity="1" stop-color="rgb(76.808167%, 40.310669%, 49.847412%)" offset="0.3125"/><stop stop-opacity="1" stop-color="rgb(76.966858%, 40.286255%, 49.546814%)" offset="0.328125"/><stop stop-opacity="1" stop-color="rgb(77.127075%, 40.261841%, 49.246216%)" offset="0.34375"/><stop stop-opacity="1" stop-color="rgb(77.285767%, 40.235901%, 48.947144%)" offset="0.359375"/><stop stop-opacity="1" stop-color="rgb(77.444458%, 40.211487%, 48.646545%)" offset="0.375"/><stop stop-opacity="1" stop-color="rgb(77.604675%, 40.185547%, 48.347473%)" offset="0.390625"/><stop stop-opacity="1" stop-color="rgb(77.763367%, 40.161133%, 48.046875%)" offset="0.40625"/><stop stop-opacity="1" stop-color="rgb(77.923584%, 40.136719%, 47.746277%)" offset="0.421875"/><stop stop-opacity="1" stop-color="rgb(78.082275%, 40.110779%, 47.447205%)" offset="0.4375"/><stop stop-opacity="1" stop-color="rgb(78.242493%, 40.086365%, 47.146606%)" offset="0.453125"/><stop stop-opacity="1" stop-color="rgb(78.401184%, 40.061951%, 46.847534%)" offset="0.46875"/><stop stop-opacity="1" stop-color="rgb(78.561401%, 40.036011%, 46.546936%)" offset="0.484375"/><stop stop-opacity="1" stop-color="rgb(78.720093%, 40.011597%, 46.246338%)" offset="0.5"/><stop stop-opacity="1" stop-color="rgb(78.88031%, 39.985657%, 45.947266%)" offset="0.515625"/><stop stop-opacity="1" stop-color="rgb(79.039001%, 39.961243%, 45.646667%)" offset="0.53125"/><stop stop-opacity="1" stop-color="rgb(79.197693%, 39.936829%, 45.347595%)" offset="0.546875"/><stop stop-opacity="1" stop-color="rgb(79.35791%, 39.910889%, 45.046997%)" offset="0.5625"/><stop stop-opacity="1" stop-color="rgb(79.516602%, 39.886475%, 44.746399%)" offset="0.578125"/><stop stop-opacity="1" stop-color="rgb(79.676819%, 39.860535%, 44.447327%)" offset="0.59375"/><stop stop-opacity="1" stop-color="rgb(79.83551%, 39.836121%, 44.146729%)" offset="0.609375"/><stop stop-opacity="1" stop-color="rgb(79.995728%, 39.811707%, 43.84613%)" offset="0.625"/><stop stop-opacity="1" stop-color="rgb(80.154419%, 39.785767%, 43.547058%)" offset="0.640625"/><stop stop-opacity="1" stop-color="rgb(80.314636%, 39.761353%, 43.24646%)" offset="0.65625"/><stop stop-opacity="1" stop-color="rgb(80.473328%, 39.736938%, 42.947388%)" offset="0.671875"/><stop stop-opacity="1" stop-color="rgb(80.632019%, 39.710999%, 42.64679%)" offset="0.6875"/><stop stop-opacity="1" stop-color="rgb(80.792236%, 39.686584%, 42.346191%)" offset="0.703125"/><stop stop-opacity="1" stop-color="rgb(80.950928%, 39.660645%, 42.047119%)" offset="0.71875"/><stop stop-opacity="1" stop-color="rgb(81.111145%, 39.63623%, 41.746521%)" offset="0.734375"/><stop stop-opacity="1" stop-color="rgb(81.269836%, 39.611816%, 41.447449%)" offset="0.75"/><stop stop-opacity="1" stop-color="rgb(81.430054%, 39.585876%, 41.146851%)" offset="0.765625"/><stop stop-opacity="1" stop-color="rgb(81.588745%, 39.561462%, 40.846252%)" offset="0.78125"/><stop stop-opacity="1" stop-color="rgb(81.748962%, 39.535522%, 40.54718%)" offset="0.796875"/><stop stop-opacity="1" stop-color="rgb(81.907654%, 39.511108%, 40.246582%)" offset="0.8125"/><stop stop-opacity="1" stop-color="rgb(82.067871%, 39.486694%, 39.94751%)" offset="0.828125"/><stop stop-opacity="1" stop-color="rgb(82.226562%, 39.460754%, 39.646912%)" offset="0.84375"/><stop stop-opacity="1" stop-color="rgb(82.385254%, 39.43634%, 39.346313%)" offset="0.859375"/><stop stop-opacity="1" stop-color="rgb(82.545471%, 39.411926%, 39.047241%)" offset="0.875"/><stop stop-opacity="1" stop-color="rgb(82.704163%, 39.385986%, 38.746643%)" offset="0.890625"/><stop stop-opacity="1" stop-color="rgb(82.86438%, 39.361572%, 38.446045%)" offset="0.90625"/><stop stop-opacity="1" stop-color="rgb(83.023071%, 39.335632%, 38.146973%)" offset="0.921875"/><stop stop-opacity="1" stop-color="rgb(83.183289%, 39.311218%, 37.846375%)" offset="0.9375"/><stop stop-opacity="1" stop-color="rgb(83.34198%, 39.286804%, 37.547302%)" offset="0.953125"/><stop stop-opacity="1" stop-color="rgb(83.502197%, 39.260864%, 37.246704%)" offset="0.96875"/><stop stop-opacity="1" stop-color="rgb(83.660889%, 39.23645%, 36.946106%)" offset="0.984375"/><stop stop-opacity="1" stop-color="rgb(83.81958%, 39.212036%, 36.647034%)" offset="1"/></linearGradient></defs><path fill="#8779cd" d="M 258.082031 114.839844 C 258.160156 114.839844 258.160156 114.820312 258.09375 114.789062 C 258.050781 114.769531 258.007812 114.757812 257.964844 114.757812 C 251.980469 114.640625 246.777344 112.546875 242.34375 108.476562 C 237.652344 104.167969 234.75 97.875 234.890625 91.375 C 234.890625 91.363281 234.886719 91.359375 234.875 91.359375 C 234.839844 91.355469 234.832031 91.355469 234.867188 91.359375 C 234.875 91.363281 234.882812 91.367188 234.878906 91.378906 C 234.738281 93.082031 234.566406 94.457031 234.359375 95.503906 C 233.054688 102.066406 229.667969 107.191406 224.195312 110.871094 C 220.425781 113.40625 216.210938 114.699219 211.546875 114.75 C 211.519531 114.75 211.507812 114.761719 211.507812 114.789062 L 211.507812 114.792969 C 211.507812 114.820312 211.519531 114.835938 211.546875 114.835938 C 218.320312 114.824219 225.210938 118.160156 229.445312 123.429688 C 231.707031 126.246094 233.265625 129.382812 234.117188 132.839844 C 234.320312 133.660156 234.476562 134.527344 234.582031 135.433594 C 234.695312 136.378906 234.785156 137.269531 234.851562 138.101562 C 234.867188 138.3125 234.878906 138.3125 234.882812 138.101562 C 234.914062 136.738281 234.953125 135.417969 235.1875 134.097656 C 236.707031 125.621094 242.671875 118.972656 250.695312 116.101562 C 253.070312 115.246094 255.535156 114.824219 258.082031 114.839844 Z M 258.082031 114.839844 " fill-opacity="1" fill-rule="nonzero"/><path fill="#4991e7" d="M 93.816406 164.261719 L 57.421875 164.261719 C 57.351562 164.261719 57.289062 164.320312 57.289062 164.394531 L 57.292969 172.910156 C 57.292969 173.015625 57.382812 173.101562 57.488281 173.101562 L 84.675781 173.101562 C 84.792969 173.101562 84.84375 173.160156 84.839844 173.277344 C 84.527344 177.136719 83.695312 180.429688 82.339844 183.160156 C 78.90625 190.085938 73.277344 194.515625 65.457031 196.441406 C 62.421875 197.1875 59.226562 197.492188 55.871094 197.347656 C 50.011719 197.101562 44.636719 195.273438 39.742188 191.863281 C 32.96875 187.140625 28.652344 179.429688 27.683594 171.277344 C 27.207031 167.261719 27.339844 163.347656 28.082031 159.53125 C 29.210938 153.742188 32.140625 148.320312 36.472656 144.21875 C 41.371094 139.582031 47.3125 136.925781 54.296875 136.253906 C 62.949219 135.417969 72.554688 138.496094 78.320312 145.128906 C 78.386719 145.207031 78.457031 145.207031 78.527344 145.132812 L 84.980469 138.492188 C 85.054688 138.417969 85.050781 138.347656 84.96875 138.28125 C 84.496094 137.90625 84.160156 137.414062 83.722656 136.996094 C 81.707031 135.054688 79.601562 133.464844 77.410156 132.222656 C 70.609375 128.378906 62.761719 126.691406 54.914062 127.113281 C 48.148438 127.476562 41.9375 129.402344 36.269531 132.902344 C 29.933594 136.8125 25.078125 142.175781 21.710938 148.988281 C 18.421875 155.644531 17.265625 163.054688 17.882812 170.480469 C 18.464844 177.472656 20.769531 183.867188 24.800781 189.65625 C 31.519531 199.304688 41.96875 205.289062 53.710938 206.207031 C 65.878906 207.164062 78.066406 203.371094 86.074219 193.898438 C 89.945312 189.3125 92.476562 183.96875 93.679688 177.859375 C 93.992188 176.253906 94.214844 174.554688 94.347656 172.765625 C 94.558594 169.929688 94.40625 167.113281 93.894531 164.324219 C 93.886719 164.289062 93.851562 164.261719 93.816406 164.261719 Z M 93.816406 164.261719 " fill-opacity="1" fill-rule="nonzero"/><path fill="#8a78cb" d="M 260.808594 134.359375 C 260.808594 134.804688 260.765625 135.246094 260.675781 135.679688 C 260.589844 136.117188 260.460938 136.539062 260.292969 136.953125 C 260.121094 137.363281 259.914062 137.753906 259.667969 138.121094 C 259.421875 138.492188 259.140625 138.832031 258.828125 139.148438 C 258.511719 139.460938 258.171875 139.742188 257.800781 139.988281 C 257.433594 140.238281 257.042969 140.445312 256.632812 140.617188 C 256.222656 140.785156 255.800781 140.914062 255.363281 141 C 254.929688 141.085938 254.488281 141.132812 254.042969 141.132812 C 253.601562 141.132812 253.160156 141.085938 252.726562 141 C 252.289062 140.914062 251.867188 140.785156 251.457031 140.617188 C 251.046875 140.445312 250.65625 140.238281 250.289062 139.988281 C 249.917969 139.742188 249.578125 139.460938 249.261719 139.148438 C 248.949219 138.832031 248.667969 138.492188 248.421875 138.121094 C 248.175781 137.753906 247.964844 137.363281 247.796875 136.953125 C 247.625 136.539062 247.5 136.117188 247.410156 135.679688 C 247.324219 135.246094 247.28125 134.804688 247.28125 134.359375 C 247.28125 133.917969 247.324219 133.476562 247.410156 133.039062 C 247.5 132.605469 247.625 132.179688 247.796875 131.769531 C 247.964844 131.359375 248.175781 130.96875 248.421875 130.597656 C 248.667969 130.230469 248.949219 129.886719 249.261719 129.574219 C 249.578125 129.257812 249.917969 128.980469 250.289062 128.730469 C 250.65625 128.484375 251.046875 128.277344 251.457031 128.105469 C 251.867188 127.9375 252.289062 127.808594 252.726562 127.722656 C 253.160156 127.632812 253.601562 127.589844 254.042969 127.589844 C 254.488281 127.589844 254.929688 127.632812 255.363281 127.722656 C 255.800781 127.808594 256.222656 127.9375 256.632812 128.105469 C 257.042969 128.277344 257.433594 128.484375 257.800781 128.730469 C 258.171875 128.980469 258.511719 129.257812 258.828125 129.574219 C 259.140625 129.886719 259.421875 130.230469 259.667969 130.597656 C 259.914062 130.96875 260.121094 131.359375 260.292969 131.769531 C 260.460938 132.179688 260.589844 132.605469 260.675781 133.039062 C 260.765625 133.476562 260.808594 133.917969 260.808594 134.359375 Z M 260.808594 134.359375 " fill-opacity="1" fill-rule="nonzero"/><g clip-path="url(#6b322a3ce6)"><g clip-path="url(#8636ca621b)"><path fill="url(#2c3c4f9dbf)" d="M 320.460938 127.59375 L 320.460938 141.128906 L 333.980469 141.128906 L 333.980469 127.59375 Z M 320.460938 127.59375 " fill-rule="nonzero"/></g></g><path fill="#4d8beb" d="M 130.386719 149.082031 C 123.535156 148.308594 117.03125 149.589844 111.480469 153.765625 C 104.554688 158.972656 100.910156 166.898438 100.386719 175.5625 C 100.234375 178.140625 100.34375 180.671875 100.722656 183.160156 C 101.644531 189.292969 104.148438 194.441406 108.222656 198.605469 C 114.515625 205.035156 123.265625 207.269531 132.101562 206.03125 C 134.886719 205.636719 137.246094 204.980469 139.183594 204.050781 C 144.570312 201.46875 148.675781 197.523438 151.503906 192.214844 C 151.503906 192.210938 151.503906 192.207031 151.503906 192.207031 C 151.535156 192.152344 151.507812 192.085938 151.453125 192.058594 L 143.582031 188.328125 C 143.574219 188.324219 143.566406 188.320312 143.554688 188.316406 C 143.449219 188.28125 143.335938 188.339844 143.300781 188.449219 C 143.273438 188.542969 143.230469 188.628906 143.183594 188.714844 C 140.855469 192.707031 136.730469 196.363281 132.113281 197.355469 C 129.652344 197.886719 127.320312 197.964844 125.128906 197.597656 C 117.492188 196.324219 111.707031 190.652344 110.28125 183.039062 C 110.0625 181.855469 109.917969 180.753906 109.855469 179.730469 C 109.847656 179.617188 109.90625 179.5625 110.015625 179.5625 L 152.226562 179.5625 C 152.335938 179.5625 152.398438 179.503906 152.410156 179.390625 C 153.085938 172.15625 151.554688 164.683594 147.367188 158.792969 C 143.414062 153.234375 137.21875 149.855469 130.386719 149.082031 Z M 142.429688 171.785156 L 110.5625 171.785156 C 110.453125 171.785156 110.410156 171.734375 110.433594 171.625 C 111.171875 168.28125 112.5 165.445312 114.417969 163.121094 C 117.144531 159.8125 121.117188 157.714844 125.425781 157.457031 C 126.363281 157.402344 127.359375 157.40625 128.414062 157.46875 C 132.511719 157.707031 136.636719 159.664062 139.199219 162.882812 C 141.15625 165.339844 142.277344 168.261719 142.5625 171.640625 C 142.566406 171.734375 142.523438 171.785156 142.429688 171.785156 Z M 142.429688 171.785156 " fill-opacity="1" fill-rule="nonzero"/><path fill="#7f7bd1" d="M 240.570312 165.691406 C 240.089844 161.464844 238.453125 157.292969 235.664062 154.085938 C 233.253906 151.320312 229.828125 149.773438 226.1875 149.207031 C 223.28125 148.75 220.382812 148.765625 217.484375 149.25 C 215.582031 149.585938 213.9375 150.101562 212.558594 150.804688 C 208.78125 152.722656 205.730469 155.5 203.414062 159.132812 C 203.320312 159.277344 203.246094 159.269531 203.195312 159.109375 C 203.035156 158.644531 202.839844 158.191406 202.597656 157.75 C 200.378906 153.671875 196.230469 150.523438 191.714844 149.4375 C 188.355469 148.625 185.050781 148.6875 181.804688 149.621094 C 177.46875 150.925781 173.933594 153.347656 171.203125 156.875 C 170.871094 157.304688 170.550781 157.804688 170.25 158.371094 C 170.210938 158.445312 170.148438 158.484375 170.066406 158.492188 L 169.941406 158.5 C 169.84375 158.507812 169.796875 158.464844 169.796875 158.371094 L 169.800781 150.648438 C 169.800781 150.613281 169.777344 150.589844 169.746094 150.589844 L 160.847656 150.589844 C 160.746094 150.589844 160.660156 150.675781 160.660156 150.78125 L 160.660156 204.546875 C 160.660156 204.609375 160.691406 204.644531 160.753906 204.644531 L 170.117188 204.644531 C 170.210938 204.644531 170.253906 204.601562 170.257812 204.507812 C 170.265625 195.207031 170.257812 185.480469 170.234375 175.3125 C 170.230469 173.605469 170.316406 172.230469 170.488281 171.1875 C 171.597656 164.535156 176.363281 157.835938 183.636719 157.523438 C 189.777344 157.382812 194.378906 160.230469 195.53125 166.464844 C 195.832031 168.078125 195.980469 169.703125 195.984375 171.347656 C 196 182.128906 196.003906 193.183594 195.996094 204.507812 C 195.996094 204.597656 196.042969 204.644531 196.128906 204.644531 L 205.339844 204.644531 C 205.398438 204.644531 205.445312 204.597656 205.445312 204.539062 C 205.46875 195.046875 205.460938 185.59375 205.433594 176.183594 C 205.425781 174.152344 205.511719 172.554688 205.679688 171.390625 C 206.097656 168.507812 207.152344 165.832031 208.835938 163.359375 C 209.636719 162.175781 210.660156 161.097656 211.902344 160.121094 C 214.300781 158.230469 217.042969 157.371094 220.117188 157.539062 C 223.503906 157.585938 226.832031 158.808594 228.898438 161.535156 C 230.730469 163.953125 231.328125 167.699219 231.335938 170.667969 C 231.359375 181.140625 231.363281 192.410156 231.347656 204.480469 C 231.347656 204.585938 231.398438 204.644531 231.507812 204.644531 L 240.65625 204.644531 C 240.757812 204.644531 240.808594 204.59375 240.808594 204.496094 C 240.78125 193.519531 240.78125 182.261719 240.8125 170.71875 C 240.816406 168.8125 240.738281 167.136719 240.570312 165.691406 Z M 240.570312 165.691406 " fill-opacity="1" fill-rule="nonzero"/><g clip-path="url(#24046fa193)"><g clip-path="url(#99f014db5d)"><path fill="url(#99c300d43b)" d="M 267.628906 148.125 L 267.628906 204.644531 L 314.605469 204.644531 L 314.605469 148.125 Z M 267.628906 148.125 " fill-rule="nonzero"/></g></g><path fill="#8a78cb" d="M 258.746094 150.589844 L 249.394531 150.589844 C 249.359375 150.589844 249.328125 150.621094 249.328125 150.65625 L 249.328125 204.578125 C 249.328125 204.613281 249.359375 204.644531 249.394531 204.644531 L 258.746094 204.644531 C 258.785156 204.644531 258.816406 204.613281 258.816406 204.578125 L 258.816406 150.65625 C 258.816406 150.621094 258.785156 150.589844 258.746094 150.589844 Z M 258.746094 150.589844 " fill-opacity="1" fill-rule="nonzero"/><g clip-path="url(#2944534aeb)"><g clip-path="url(#6721e059a2)"><path fill="url(#fad8c05d99)" d="M 322.550781 150.589844 L 322.550781 204.644531 L 332.019531 204.644531 L 332.019531 150.589844 Z M 322.550781 150.589844 " fill-rule="nonzero"/></g></g></svg>