<svg xmlns="http://www.w3.org/2000/svg" xmlns:xlink="http://www.w3.org/1999/xlink" width="468" zoomAndPan="magnify" viewBox="0 0 351 350.250003" height="467" preserveAspectRatio="xMidYMid meet" version="1.0"><defs><clipPath id="bf0bf11071"><path d="M 39.484375 58.167969 L 319.386719 58.167969 L 319.386719 243.773438 L 39.484375 243.773438 Z M 39.484375 58.167969 " clip-rule="nonzero"/></clipPath></defs><g clip-path="url(#bf0bf11071)"><path fill="#000000" d="M 143.976562 113.480469 L 143.976562 96.835938 C 145.691406 96.664062 147.234375 96.664062 148.949219 96.664062 C 194.761719 95.292969 224.785156 136.128906 224.785156 136.128906 C 224.785156 136.128906 192.359375 180.910156 157.527344 180.910156 C 152.898438 180.910156 148.4375 180.222656 143.976562 178.679688 L 143.976562 128.0625 C 161.820312 130.292969 165.421875 138.015625 176.058594 155.859375 L 199.90625 135.785156 C 199.90625 135.785156 182.40625 112.964844 153.238281 112.964844 C 150.152344 112.964844 147.0625 113.136719 143.976562 113.480469 M 143.976562 58.234375 L 143.976562 83.113281 L 148.949219 82.769531 C 212.605469 80.539062 254.125 134.925781 254.125 134.925781 C 254.125 134.925781 206.429688 193.089844 156.84375 193.089844 C 152.554688 193.089844 148.265625 192.746094 143.976562 191.890625 L 143.976562 207.332031 C 147.40625 207.675781 151.007812 208.019531 154.613281 208.019531 C 200.765625 208.019531 234.222656 184.339844 266.652344 156.546875 C 271.96875 160.835938 293.929688 171.300781 298.5625 175.761719 C 267.851562 201.496094 196.132812 222.257812 155.46875 222.257812 C 151.523438 222.257812 147.921875 222.085938 144.144531 221.570312 L 144.144531 243.535156 L 319.667969 243.535156 L 319.667969 58.234375 C 319.667969 58.234375 143.976562 58.234375 143.976562 58.234375 Z M 143.976562 178.851562 L 143.976562 192.0625 C 101.253906 184.339844 89.414062 139.902344 89.414062 139.902344 C 89.414062 139.902344 110.003906 117.253906 143.976562 113.480469 L 143.976562 127.890625 L 143.804688 127.890625 C 125.960938 125.660156 111.890625 142.476562 111.890625 142.476562 C 111.890625 142.476562 119.953125 170.613281 143.976562 178.851562 M 68.140625 138.015625 C 68.140625 138.015625 93.359375 100.613281 143.976562 96.835938 L 143.976562 83.28125 C 87.871094 87.742188 39.484375 135.097656 39.484375 135.097656 C 39.484375 135.097656 66.9375 214.539062 143.976562 221.742188 L 143.976562 207.332031 C 87.355469 200.296875 68.140625 138.015625 68.140625 138.015625 Z M 68.140625 138.015625 " fill-opacity="1" fill-rule="nonzero"/></g></svg>