<svg xmlns="http://www.w3.org/2000/svg" xmlns:xlink="http://www.w3.org/1999/xlink" width="288" zoomAndPan="magnify" viewBox="0 0 216 72" height="96" preserveAspectRatio="xMidYMid meet" version="1.0"><defs><clipPath id="4d78084193"><path d="M 63.527344 5.0625 L 152.777344 5.0625 L 152.777344 66.5625 L 63.527344 66.5625 Z M 63.527344 5.0625 " clip-rule="nonzero"/></clipPath></defs><g clip-path="url(#4d78084193)"><path fill="#00a1e0" d="M 100.441406 11.769531 C 103.300781 8.820312 107.285156 6.988281 111.691406 6.988281 C 117.542969 6.988281 122.652344 10.222656 125.375 15.023438 C 127.835938 13.933594 130.414062 13.390625 133.109375 13.394531 C 143.667969 13.394531 152.226562 21.949219 152.226562 32.503906 C 152.226562 43.058594 143.667969 51.609375 133.109375 51.609375 C 131.816406 51.609375 130.558594 51.484375 129.339844 51.242188 C 126.945312 55.472656 122.378906 58.332031 117.140625 58.332031 C 114.945312 58.332031 112.871094 57.832031 111.023438 56.9375 C 108.597656 62.597656 102.9375 66.5625 96.34375 66.5625 C 89.476562 66.5625 83.625 62.257812 81.378906 56.222656 C 80.375 56.433594 79.363281 56.539062 78.335938 56.535156 C 70.160156 56.539062 63.53125 49.902344 63.53125 41.71875 C 63.527344 40.421875 63.695312 39.148438 64.027344 37.894531 C 64.363281 36.640625 64.855469 35.449219 65.503906 34.324219 C 66.152344 33.199219 66.9375 32.171875 67.859375 31.25 C 68.78125 30.328125 69.804688 29.539062 70.933594 28.882812 C 69.988281 26.722656 69.515625 24.464844 69.515625 22.105469 C 69.515625 12.691406 77.230469 5.0625 86.746094 5.0625 C 88.070312 5.0625 89.378906 5.210938 90.667969 5.507812 C 91.960938 5.804688 93.199219 6.246094 94.386719 6.828125 C 95.574219 7.410156 96.679688 8.117188 97.703125 8.953125 C 98.726562 9.789062 99.636719 10.726562 100.441406 11.769531 " fill-opacity="1" fill-rule="evenodd"/></g><path fill="#ffffff" d="M 76.378906 36.957031 L 76.738281 35.96875 C 76.792969 35.800781 76.921875 35.855469 76.976562 35.886719 C 77.074219 35.945312 77.148438 36 77.277344 36.074219 C 78.335938 36.738281 79.3125 36.742188 79.621094 36.742188 C 80.410156 36.742188 80.902344 36.328125 80.902344 35.769531 L 80.902344 35.738281 C 80.902344 35.128906 80.144531 34.898438 79.269531 34.632812 L 79.078125 34.574219 C 77.878906 34.234375 76.59375 33.746094 76.59375 32.242188 L 76.59375 32.210938 C 76.59375 30.78125 77.757812 29.785156 79.421875 29.785156 L 79.605469 29.785156 C 80.582031 29.785156 81.527344 30.066406 82.210938 30.476562 C 82.273438 30.515625 82.332031 30.585938 82.300781 30.679688 L 81.929688 31.667969 C 81.863281 31.835938 81.6875 31.722656 81.6875 31.722656 C 80.964844 31.351562 80.195312 31.152344 79.378906 31.136719 C 78.671875 31.136719 78.21875 31.507812 78.21875 32.011719 L 78.21875 32.042969 C 78.21875 32.628906 78.996094 32.878906 79.898438 33.171875 L 80.050781 33.21875 C 81.25 33.59375 82.523438 34.113281 82.523438 35.539062 L 82.523438 35.570312 C 82.523438 37.113281 81.394531 38.070312 79.574219 38.070312 C 78.679688 38.070312 77.828125 37.933594 76.921875 37.457031 C 76.753906 37.359375 76.582031 37.277344 76.417969 37.15625 C 76.398438 37.128906 76.324219 37.101562 76.378906 36.957031 Z M 103.011719 36.957031 L 103.375 35.96875 C 103.425781 35.808594 103.578125 35.867188 103.609375 35.886719 C 103.710938 35.949219 103.785156 36 103.910156 36.074219 C 104.972656 36.738281 105.949219 36.742188 106.257812 36.742188 C 107.046875 36.742188 107.539062 36.328125 107.539062 35.769531 L 107.539062 35.738281 C 107.539062 35.128906 106.78125 34.898438 105.90625 34.632812 L 105.714844 34.574219 C 104.511719 34.234375 103.230469 33.746094 103.230469 32.242188 L 103.230469 32.210938 C 103.230469 30.78125 104.394531 29.785156 106.058594 29.785156 L 106.238281 29.785156 C 107.214844 29.785156 108.164062 30.066406 108.847656 30.476562 C 108.910156 30.515625 108.96875 30.585938 108.933594 30.679688 C 108.902344 30.765625 108.597656 31.574219 108.566406 31.667969 C 108.5 31.835938 108.324219 31.722656 108.324219 31.722656 C 107.601562 31.351562 106.828125 31.152344 106.011719 31.136719 C 105.304688 31.136719 104.851562 31.507812 104.851562 32.011719 L 104.851562 32.042969 C 104.851562 32.628906 105.628906 32.878906 106.53125 33.171875 L 106.6875 33.21875 C 107.882812 33.59375 109.160156 34.113281 109.160156 35.539062 L 109.160156 35.570312 C 109.160156 37.113281 108.03125 38.070312 106.210938 38.070312 C 105.316406 38.070312 104.460938 37.933594 103.558594 37.457031 C 103.386719 37.359375 103.21875 37.277344 103.050781 37.15625 C 103.035156 37.128906 102.957031 37.101562 103.011719 36.957031 Z M 122.714844 32.316406 C 122.863281 32.8125 122.9375 33.355469 122.9375 33.933594 C 122.9375 34.507812 122.863281 35.050781 122.714844 35.546875 C 122.578125 36.03125 122.347656 36.46875 122.027344 36.855469 C 121.703125 37.234375 121.316406 37.523438 120.859375 37.726562 C 120.394531 37.9375 119.847656 38.042969 119.230469 38.042969 C 118.617188 38.042969 118.066406 37.9375 117.601562 37.726562 C 117.148438 37.523438 116.757812 37.234375 116.433594 36.855469 C 116.113281 36.46875 115.882812 36.03125 115.746094 35.550781 C 115.59375 35.019531 115.519531 34.480469 115.523438 33.933594 C 115.523438 33.355469 115.597656 32.8125 115.746094 32.316406 C 115.894531 31.816406 116.125 31.375 116.433594 31.007812 C 116.757812 30.628906 117.148438 30.335938 117.601562 30.132812 C 118.066406 29.917969 118.613281 29.808594 119.230469 29.808594 C 119.847656 29.808594 120.394531 29.917969 120.859375 30.132812 C 121.320312 30.34375 121.714844 30.640625 122.027344 31.007812 C 122.335938 31.375 122.566406 31.816406 122.714844 32.316406 Z M 121.199219 33.933594 C 121.199219 33.0625 121.035156 32.375 120.710938 31.894531 C 120.390625 31.417969 119.90625 31.1875 119.230469 31.1875 C 118.554688 31.1875 118.074219 31.417969 117.757812 31.894531 C 117.441406 32.375 117.277344 33.0625 117.277344 33.933594 C 117.277344 34.804688 117.441406 35.492188 117.761719 35.976562 C 118.074219 36.460938 118.554688 36.695312 119.230469 36.695312 C 119.90625 36.695312 120.390625 36.460938 120.710938 35.976562 C 121.03125 35.492188 121.199219 34.804688 121.199219 33.933594 Z M 135.1875 36.460938 L 135.5625 37.480469 C 135.609375 37.605469 135.5 37.660156 135.5 37.660156 C 134.925781 37.882812 134.125 38.039062 133.347656 38.039062 C 132.03125 38.039062 131.023438 37.664062 130.347656 36.921875 C 129.679688 36.179688 129.339844 35.175781 129.339844 33.925781 C 129.339844 33.347656 129.421875 32.804688 129.589844 32.308594 C 129.753906 31.808594 130 31.367188 130.324219 31 C 130.667969 30.617188 131.078125 30.328125 131.550781 30.121094 C 132.035156 29.910156 132.605469 29.800781 133.242188 29.800781 C 133.671875 29.800781 134.054688 29.828125 134.382812 29.875 C 134.730469 29.929688 135.199219 30.054688 135.394531 30.128906 C 135.429688 30.144531 135.53125 30.191406 135.488281 30.308594 C 135.347656 30.707031 135.25 30.96875 135.117188 31.335938 C 135.058594 31.488281 134.9375 31.4375 134.9375 31.4375 C 134.4375 31.28125 133.960938 31.210938 133.335938 31.210938 C 132.582031 31.210938 132.019531 31.460938 131.648438 31.945312 C 131.277344 32.433594 131.066406 33.074219 131.066406 33.925781 C 131.0625 34.863281 131.300781 35.554688 131.71875 35.984375 C 132.136719 36.410156 132.71875 36.628906 133.457031 36.628906 C 133.753906 36.628906 134.035156 36.609375 134.289062 36.570312 C 134.539062 36.53125 134.773438 36.453125 134.992188 36.367188 C 134.992188 36.367188 135.136719 36.3125 135.1875 36.460938 Z M 142.957031 32.03125 C 143.289062 33.179688 143.117188 34.171875 143.109375 34.226562 C 143.097656 34.355469 142.960938 34.359375 142.960938 34.359375 L 137.820312 34.355469 C 137.855469 35.128906 138.039062 35.675781 138.417969 36.046875 C 138.789062 36.410156 139.378906 36.644531 140.179688 36.648438 C 141.398438 36.648438 141.921875 36.40625 142.289062 36.269531 C 142.289062 36.269531 142.429688 36.222656 142.484375 36.359375 L 142.820312 37.292969 C 142.886719 37.449219 142.832031 37.503906 142.773438 37.535156 C 142.453125 37.710938 141.671875 38.039062 140.1875 38.042969 C 139.464844 38.046875 138.835938 37.945312 138.320312 37.746094 C 137.824219 37.5625 137.390625 37.28125 137.027344 36.898438 C 136.679688 36.523438 136.429688 36.089844 136.28125 35.601562 C 136.121094 35.074219 136.042969 34.53125 136.050781 33.976562 C 136.050781 33.402344 136.125 32.851562 136.273438 32.351562 C 136.425781 31.847656 136.660156 31.402344 136.96875 31.027344 C 137.296875 30.640625 137.691406 30.34375 138.15625 30.136719 C 138.625 29.914062 139.210938 29.808594 139.851562 29.808594 C 140.402344 29.808594 140.90625 29.925781 141.324219 30.101562 C 141.644531 30.238281 141.96875 30.488281 142.300781 30.839844 C 142.511719 31.0625 142.828125 31.550781 142.957031 32.03125 Z M 137.847656 33.097656 L 141.511719 33.097656 C 141.476562 32.628906 141.382812 32.210938 141.171875 31.894531 C 140.847656 31.417969 140.40625 31.15625 139.730469 31.15625 C 139.054688 31.15625 138.578125 31.417969 138.257812 31.894531 C 138.050781 32.210938 137.917969 32.613281 137.84375 33.097656 Z M 101.785156 32.03125 C 102.113281 33.179688 101.945312 34.171875 101.9375 34.226562 C 101.925781 34.355469 101.789062 34.359375 101.789062 34.359375 L 96.648438 34.355469 C 96.679688 35.128906 96.867188 35.675781 97.246094 36.046875 C 97.617188 36.410156 98.207031 36.644531 99.003906 36.648438 C 100.226562 36.648438 100.75 36.40625 101.117188 36.269531 C 101.117188 36.269531 101.257812 36.222656 101.308594 36.359375 L 101.644531 37.292969 C 101.714844 37.449219 101.660156 37.503906 101.601562 37.535156 C 101.277344 37.710938 100.496094 38.039062 99.011719 38.042969 C 98.292969 38.046875 97.664062 37.945312 97.148438 37.746094 C 96.648438 37.5625 96.21875 37.28125 95.851562 36.898438 C 95.507812 36.523438 95.257812 36.089844 95.109375 35.601562 C 94.949219 35.074219 94.871094 34.53125 94.875 33.976562 C 94.875 33.402344 94.953125 32.851562 95.101562 32.351562 C 95.242188 31.863281 95.472656 31.421875 95.796875 31.027344 C 96.125 30.644531 96.519531 30.34375 96.980469 30.136719 C 97.453125 29.914062 98.039062 29.808594 98.679688 29.808594 C 99.191406 29.804688 99.679688 29.90625 100.152344 30.101562 C 100.472656 30.238281 100.796875 30.488281 101.128906 30.839844 C 101.335938 31.0625 101.65625 31.550781 101.785156 32.03125 Z M 96.671875 33.097656 L 100.339844 33.097656 C 100.300781 32.628906 100.207031 32.210938 100 31.894531 C 99.679688 31.417969 99.230469 31.15625 98.558594 31.15625 C 97.882812 31.15625 97.402344 31.417969 97.085938 31.894531 C 96.878906 32.210938 96.746094 32.613281 96.671875 33.097656 Z M 87.605469 32.855469 C 87.605469 32.855469 88.011719 32.890625 88.453125 32.953125 L 88.453125 32.738281 C 88.453125 32.058594 88.308594 31.738281 88.03125 31.523438 C 87.742188 31.304688 87.3125 31.195312 86.757812 31.195312 C 86.757812 31.195312 85.507812 31.179688 84.519531 31.710938 C 84.472656 31.738281 84.433594 31.753906 84.433594 31.753906 C 84.433594 31.753906 84.3125 31.796875 84.265625 31.671875 L 83.902344 30.703125 C 83.847656 30.5625 83.949219 30.5 83.949219 30.5 C 84.410156 30.140625 85.53125 29.925781 85.53125 29.925781 C 85.988281 29.847656 86.449219 29.804688 86.910156 29.800781 C 87.9375 29.800781 88.730469 30.035156 89.273438 30.503906 C 89.8125 30.972656 90.089844 31.730469 90.089844 32.75 L 90.089844 37.410156 C 90.089844 37.410156 90.101562 37.546875 89.972656 37.574219 C 89.972656 37.574219 89.785156 37.628906 89.613281 37.667969 C 89.441406 37.707031 88.824219 37.832031 88.316406 37.914062 C 87.800781 38 87.28125 38.042969 86.757812 38.042969 C 86.257812 38.042969 85.796875 38 85.394531 37.90625 C 85.015625 37.828125 84.667969 37.679688 84.347656 37.457031 C 84.058594 37.25 83.835938 36.984375 83.679688 36.660156 C 83.519531 36.339844 83.441406 35.949219 83.441406 35.5 C 83.441406 35.054688 83.535156 34.660156 83.71875 34.324219 C 83.898438 33.988281 84.148438 33.707031 84.464844 33.484375 C 84.792969 33.253906 85.148438 33.089844 85.535156 32.992188 C 85.9375 32.886719 86.363281 32.832031 86.804688 32.832031 C 87.125 32.832031 87.394531 32.835938 87.605469 32.855469 Z M 85.558594 36.433594 C 85.554688 36.429688 86.019531 36.792969 87.066406 36.730469 C 87.800781 36.683594 88.453125 36.546875 88.453125 36.546875 L 88.453125 34.230469 C 88.453125 34.230469 87.796875 34.125 87.058594 34.113281 C 86.011719 34.101562 85.566406 34.484375 85.566406 34.480469 C 85.257812 34.699219 85.109375 35.019531 85.109375 35.464844 C 85.109375 35.75 85.160156 35.976562 85.265625 36.128906 C 85.328125 36.234375 85.359375 36.273438 85.558594 36.433594 Z M 129.070312 30.230469 C 129.023438 30.367188 128.773438 31.066406 128.683594 31.296875 C 128.648438 31.386719 128.59375 31.445312 128.496094 31.4375 C 128.496094 31.4375 128.199219 31.367188 127.929688 31.367188 C 127.746094 31.367188 127.480469 31.390625 127.242188 31.464844 C 127 31.539062 126.789062 31.664062 126.609375 31.84375 C 126.417969 32.023438 126.265625 32.273438 126.15625 32.59375 C 126.042969 32.910156 125.984375 33.417969 125.984375 33.929688 L 125.984375 37.722656 C 125.988281 37.824219 125.933594 37.875 125.832031 37.875 L 124.480469 37.875 C 124.375 37.878906 124.324219 37.828125 124.324219 37.722656 L 124.324219 30.125 C 124.324219 30.042969 124.386719 29.972656 124.472656 29.972656 L 125.789062 29.972656 C 125.875 29.972656 125.9375 30.042969 125.9375 30.125 L 125.9375 30.746094 C 126.132812 30.484375 126.488281 30.253906 126.808594 30.113281 C 127.125 29.96875 127.484375 29.863281 128.132812 29.902344 C 128.46875 29.921875 128.90625 30.011719 128.996094 30.046875 C 129.082031 30.082031 129.109375 30.144531 129.070312 30.230469 Z M 116.390625 26.710938 C 116.429688 26.722656 116.527344 26.769531 116.488281 26.886719 L 116.09375 27.957031 C 116.058594 28.035156 116.039062 28.085938 115.871094 28.035156 C 115.648438 27.964844 115.417969 27.929688 115.183594 27.929688 C 114.980469 27.929688 114.796875 27.953125 114.632812 28.007812 C 114.46875 28.0625 114.324219 28.148438 114.203125 28.273438 C 114.042969 28.425781 113.921875 28.609375 113.84375 28.816406 C 113.652344 29.355469 113.582031 29.925781 113.570312 29.964844 L 115.214844 29.964844 C 115.351562 29.964844 115.394531 30.027344 115.382812 30.128906 L 115.191406 31.1875 C 115.160156 31.339844 115.019531 31.335938 115.019531 31.335938 L 113.324219 31.335938 L 112.167969 37.828125 C 112.066406 38.410156 111.917969 38.980469 111.714844 39.539062 C 111.535156 40.007812 111.347656 40.351562 111.046875 40.679688 C 110.785156 40.976562 110.46875 41.195312 110.097656 41.335938 C 109.742188 41.464844 109.308594 41.53125 108.835938 41.53125 C 108.609375 41.53125 108.367188 41.523438 108.082031 41.457031 C 107.921875 41.421875 107.765625 41.375 107.613281 41.320312 C 107.546875 41.300781 107.496094 41.21875 107.535156 41.117188 C 107.570312 41.015625 107.875 40.191406 107.914062 40.082031 C 107.964844 39.953125 108.101562 40.003906 108.101562 40.003906 C 108.191406 40.039062 108.253906 40.066406 108.375 40.089844 C 108.5 40.113281 108.664062 40.132812 108.789062 40.132812 C 109.015625 40.132812 109.21875 40.109375 109.394531 40.046875 C 109.609375 39.980469 109.734375 39.855469 109.863281 39.691406 C 110 39.515625 110.109375 39.28125 110.226562 38.964844 C 110.339844 38.644531 110.441406 38.222656 110.53125 37.710938 L 111.683594 31.335938 L 110.546875 31.335938 C 110.414062 31.335938 110.367188 31.273438 110.382812 31.171875 L 110.570312 30.113281 C 110.601562 29.957031 110.746094 29.964844 110.746094 29.964844 L 111.910156 29.964844 L 111.976562 29.621094 C 112.148438 28.597656 112.496094 27.820312 113.007812 27.308594 C 113.523438 26.796875 114.253906 26.535156 115.183594 26.535156 C 115.449219 26.535156 115.683594 26.554688 115.882812 26.589844 C 116.078125 26.625 116.226562 26.660156 116.390625 26.710938 Z M 93.425781 37.722656 C 93.425781 37.808594 93.363281 37.875 93.277344 37.875 L 91.914062 37.875 C 91.828125 37.875 91.769531 37.808594 91.769531 37.722656 L 91.769531 26.851562 C 91.769531 26.769531 91.828125 26.699219 91.914062 26.699219 L 93.277344 26.699219 C 93.363281 26.699219 93.425781 26.769531 93.425781 26.851562 Z M 93.425781 37.722656 " fill-opacity="1" fill-rule="evenodd"/></svg>