<svg xmlns="http://www.w3.org/2000/svg" xmlns:xlink="http://www.w3.org/1999/xlink" width="290" zoomAndPan="magnify" viewBox="0 0 217.5 31.5" height="42" preserveAspectRatio="xMidYMid meet" version="1.0"><defs><clipPath id="202aead71d"><path d="M 28 25 L 31 25 L 31 29.53125 L 28 29.53125 Z M 28 25 " clip-rule="nonzero"/></clipPath><clipPath id="4e55493b1d"><path d="M 50 25 L 52.320312 25 L 52.320312 29 L 50 29 Z M 50 25 " clip-rule="nonzero"/></clipPath><clipPath id="25b0810fba"><path d="M 2.265625 18 L 9 18 L 9 24 L 2.265625 24 Z M 2.265625 18 " clip-rule="nonzero"/></clipPath><clipPath id="095363dc78"><path d="M 48 18 L 52.320312 18 L 52.320312 24 L 48 24 Z M 48 18 " clip-rule="nonzero"/></clipPath><clipPath id="ab0ef8189e"><path d="M 3 0.476562 L 25 0.476562 L 25 17 L 3 17 Z M 3 0.476562 " clip-rule="nonzero"/></clipPath></defs><path fill="#858889" d="M 24.886719 0.476562 L 24.886719 16.808594 L 29.816406 16.808594 L 29.816406 0.476562 Z M 24.886719 0.476562 " fill-opacity="1" fill-rule="nonzero"/><path fill="#4d5054" d="M 30.261719 0.476562 L 30.261719 4.507812 L 32.292969 4.507812 L 32.292969 16.808594 L 37.472656 16.808594 L 37.472656 4.507812 L 43.058594 4.507812 L 43.058594 0.476562 Z M 30.261719 0.476562 " fill-opacity="1" fill-rule="nonzero"/><path fill="#4d5054" d="M 17.730469 26.199219 L 17.34375 26.425781 C 17.273438 26.300781 17.203125 26.222656 17.136719 26.183594 C 17.070312 26.140625 16.980469 26.117188 16.871094 26.117188 C 16.742188 26.117188 16.628906 26.15625 16.542969 26.230469 C 16.457031 26.304688 16.414062 26.394531 16.414062 26.507812 C 16.414062 26.660156 16.527344 26.78125 16.753906 26.875 L 17.070312 27.003906 C 17.328125 27.105469 17.515625 27.230469 17.632812 27.378906 C 17.753906 27.527344 17.8125 27.707031 17.8125 27.921875 C 17.8125 28.210938 17.714844 28.449219 17.523438 28.636719 C 17.328125 28.824219 17.085938 28.921875 16.796875 28.921875 C 16.519531 28.921875 16.292969 28.839844 16.117188 28.679688 C 15.941406 28.515625 15.828125 28.289062 15.785156 28 L 16.269531 27.894531 C 16.289062 28.078125 16.328125 28.203125 16.382812 28.273438 C 16.480469 28.410156 16.625 28.476562 16.8125 28.476562 C 16.960938 28.476562 17.085938 28.425781 17.183594 28.328125 C 17.28125 28.230469 17.332031 28.105469 17.332031 27.953125 C 17.332031 27.894531 17.324219 27.839844 17.304688 27.789062 C 17.289062 27.738281 17.261719 27.691406 17.226562 27.648438 C 17.191406 27.605469 17.144531 27.566406 17.085938 27.527344 C 17.027344 27.492188 16.960938 27.457031 16.878906 27.421875 L 16.578125 27.296875 C 16.144531 27.117188 15.925781 26.851562 15.925781 26.503906 C 15.925781 26.269531 16.019531 26.074219 16.199219 25.914062 C 16.382812 25.753906 16.605469 25.675781 16.878906 25.675781 C 17.242188 25.675781 17.527344 25.851562 17.730469 26.199219 " fill-opacity="1" fill-rule="nonzero"/><path fill="#4d5054" d="M 21.09375 27.292969 C 21.09375 27.636719 21.210938 27.921875 21.445312 28.144531 C 21.679688 28.367188 21.949219 28.476562 22.253906 28.476562 C 22.585938 28.476562 22.863281 28.363281 23.09375 28.136719 C 23.320312 27.90625 23.433594 27.628906 23.433594 27.296875 C 23.433594 26.964844 23.320312 26.6875 23.097656 26.460938 C 22.875 26.234375 22.597656 26.121094 22.265625 26.121094 C 21.9375 26.121094 21.660156 26.234375 21.433594 26.460938 C 21.207031 26.683594 21.09375 26.960938 21.09375 27.292969 M 20.613281 27.285156 C 20.613281 26.84375 20.773438 26.46875 21.101562 26.152344 C 21.425781 25.835938 21.816406 25.675781 22.273438 25.675781 C 22.722656 25.675781 23.109375 25.835938 23.429688 26.15625 C 23.753906 26.472656 23.914062 26.855469 23.914062 27.304688 C 23.914062 27.753906 23.753906 28.136719 23.429688 28.449219 C 23.101562 28.765625 22.710938 28.921875 22.246094 28.921875 C 21.839844 28.921875 21.472656 28.78125 21.148438 28.5 C 20.792969 28.191406 20.613281 27.785156 20.613281 27.285156 " fill-opacity="1" fill-rule="nonzero"/><path fill="#4d5054" d="M 26.304688 27.660156 L 25.835938 26.597656 L 25.34375 27.660156 Z M 26.496094 28.105469 L 25.144531 28.105469 L 24.792969 28.863281 L 24.277344 28.863281 L 25.84375 25.539062 L 27.351562 28.863281 L 26.828125 28.863281 Z M 26.496094 28.105469 " fill-opacity="1" fill-rule="nonzero"/><g clip-path="url(#202aead71d)"><path fill="#4d5054" d="M 28.03125 28.863281 L 28.03125 25.523438 L 30.335938 27.910156 L 30.335938 25.734375 L 30.8125 25.734375 L 30.8125 29.054688 L 28.507812 26.671875 L 28.507812 28.863281 Z M 28.03125 28.863281 " fill-opacity="1" fill-rule="nonzero"/></g><path fill="#4d5054" d="M 35.222656 26.199219 L 34.835938 26.425781 C 34.761719 26.300781 34.691406 26.222656 34.628906 26.183594 C 34.558594 26.140625 34.472656 26.117188 34.363281 26.117188 C 34.230469 26.117188 34.121094 26.15625 34.035156 26.230469 C 33.945312 26.304688 33.902344 26.394531 33.902344 26.507812 C 33.902344 26.660156 34.015625 26.78125 34.246094 26.875 L 34.5625 27.003906 C 34.820312 27.105469 35.007812 27.230469 35.125 27.378906 C 35.242188 27.527344 35.300781 27.707031 35.300781 27.921875 C 35.300781 28.210938 35.207031 28.449219 35.011719 28.636719 C 34.816406 28.824219 34.574219 28.921875 34.285156 28.921875 C 34.011719 28.921875 33.785156 28.839844 33.605469 28.679688 C 33.429688 28.515625 33.320312 28.289062 33.277344 28 L 33.757812 27.894531 C 33.78125 28.078125 33.820312 28.203125 33.875 28.273438 C 33.972656 28.410156 34.117188 28.476562 34.304688 28.476562 C 34.453125 28.476562 34.578125 28.425781 34.675781 28.328125 C 34.773438 28.230469 34.820312 28.105469 34.820312 27.953125 C 34.820312 27.894531 34.8125 27.839844 34.796875 27.789062 C 34.777344 27.738281 34.753906 27.691406 34.714844 27.648438 C 34.679688 27.605469 34.632812 27.566406 34.578125 27.527344 C 34.519531 27.492188 34.449219 27.457031 34.371094 27.421875 L 34.066406 27.296875 C 33.632812 27.117188 33.417969 26.851562 33.417969 26.503906 C 33.417969 26.269531 33.507812 26.074219 33.691406 25.914062 C 33.871094 25.753906 34.097656 25.675781 34.367188 25.675781 C 34.730469 25.675781 35.015625 25.851562 35.222656 26.199219 " fill-opacity="1" fill-rule="nonzero"/><path fill="#4d5054" d="M 38.464844 25.902344 L 38.464844 26.460938 C 38.191406 26.230469 37.90625 26.117188 37.609375 26.117188 C 37.285156 26.117188 37.011719 26.234375 36.789062 26.464844 C 36.566406 26.695312 36.453125 26.976562 36.453125 27.308594 C 36.453125 27.636719 36.566406 27.914062 36.789062 28.136719 C 37.011719 28.363281 37.289062 28.476562 37.613281 28.476562 C 37.78125 28.476562 37.921875 28.449219 38.039062 28.394531 C 38.105469 28.367188 38.171875 28.332031 38.242188 28.285156 C 38.316406 28.242188 38.386719 28.183594 38.464844 28.121094 L 38.464844 28.691406 C 38.191406 28.84375 37.90625 28.921875 37.605469 28.921875 C 37.15625 28.921875 36.769531 28.765625 36.449219 28.453125 C 36.132812 28.136719 35.972656 27.757812 35.972656 27.3125 C 35.972656 26.914062 36.105469 26.5625 36.371094 26.246094 C 36.699219 25.867188 37.125 25.675781 37.644531 25.675781 C 37.925781 25.675781 38.203125 25.75 38.464844 25.902344 " fill-opacity="1" fill-rule="nonzero"/><path fill="#4d5054" d="M 39.917969 26.960938 L 41.28125 26.960938 L 41.28125 25.738281 L 41.757812 25.738281 L 41.757812 28.863281 L 41.28125 28.863281 L 41.28125 27.402344 L 39.917969 27.402344 L 39.917969 28.863281 L 39.441406 28.863281 L 39.441406 25.738281 L 39.917969 25.738281 Z M 39.917969 26.960938 " fill-opacity="1" fill-rule="nonzero"/><path fill="#4d5054" d="M 43.089844 27.292969 C 43.089844 27.636719 43.207031 27.921875 43.441406 28.144531 C 43.675781 28.367188 43.945312 28.476562 44.25 28.476562 C 44.582031 28.476562 44.863281 28.363281 45.089844 28.136719 C 45.316406 27.90625 45.429688 27.628906 45.429688 27.296875 C 45.429688 26.964844 45.320312 26.6875 45.09375 26.460938 C 44.871094 26.234375 44.59375 26.121094 44.261719 26.121094 C 43.933594 26.121094 43.65625 26.234375 43.429688 26.460938 C 43.203125 26.683594 43.089844 26.960938 43.089844 27.292969 M 42.609375 27.285156 C 42.609375 26.84375 42.773438 26.46875 43.097656 26.152344 C 43.421875 25.835938 43.8125 25.675781 44.269531 25.675781 C 44.71875 25.675781 45.105469 25.835938 45.425781 26.15625 C 45.75 26.472656 45.914062 26.855469 45.914062 27.304688 C 45.914062 27.753906 45.75 28.136719 45.425781 28.449219 C 45.097656 28.765625 44.707031 28.921875 44.246094 28.921875 C 43.835938 28.921875 43.46875 28.78125 43.144531 28.5 C 42.789062 28.191406 42.609375 27.785156 42.609375 27.285156 " fill-opacity="1" fill-rule="nonzero"/><path fill="#4d5054" d="M 47.085938 27.292969 C 47.085938 27.636719 47.203125 27.921875 47.4375 28.144531 C 47.671875 28.367188 47.941406 28.476562 48.25 28.476562 C 48.578125 28.476562 48.859375 28.363281 49.085938 28.136719 C 49.316406 27.90625 49.429688 27.628906 49.429688 27.296875 C 49.429688 26.964844 49.316406 26.6875 49.089844 26.460938 C 48.867188 26.234375 48.589844 26.121094 48.261719 26.121094 C 47.929688 26.121094 47.652344 26.234375 47.425781 26.460938 C 47.199219 26.683594 47.085938 26.960938 47.085938 27.292969 M 46.605469 27.285156 C 46.605469 26.84375 46.769531 26.46875 47.09375 26.152344 C 47.421875 25.835938 47.8125 25.675781 48.265625 25.675781 C 48.714844 25.675781 49.101562 25.835938 49.425781 26.15625 C 49.746094 26.472656 49.910156 26.855469 49.910156 27.304688 C 49.910156 27.753906 49.746094 28.136719 49.421875 28.449219 C 49.097656 28.765625 48.703125 28.921875 48.242188 28.921875 C 47.832031 28.921875 47.46875 28.78125 47.140625 28.5 C 46.785156 28.191406 46.605469 27.785156 46.605469 27.285156 " fill-opacity="1" fill-rule="nonzero"/><g clip-path="url(#4e55493b1d)"><path fill="#4d5054" d="M 51.253906 25.734375 L 51.253906 28.417969 L 52.320312 28.417969 L 52.320312 28.863281 L 50.777344 28.863281 L 50.777344 25.734375 Z M 51.253906 25.734375 " fill-opacity="1" fill-rule="nonzero"/></g><path fill="#4d5054" d="M 19.097656 25.734375 L 19.097656 28.417969 L 20.164062 28.417969 L 20.164062 28.863281 L 18.621094 28.863281 L 18.621094 25.734375 Z M 19.097656 25.734375 " fill-opacity="1" fill-rule="nonzero"/><g clip-path="url(#25b0810fba)"><path fill="#4d5054" d="M 3.160156 18.703125 L 4.402344 18.703125 L 5.390625 21.269531 L 6.433594 18.703125 L 7.6875 18.703125 L 8.578125 23.507812 L 7.210938 23.507812 L 6.804688 20.742188 L 6.792969 20.742188 L 5.628906 23.507812 L 5.125 23.507812 L 4.011719 20.742188 L 4 20.742188 L 3.542969 23.507812 L 2.265625 23.507812 Z M 3.160156 18.703125 " fill-opacity="1" fill-rule="nonzero"/></g><path fill="#4d5054" d="M 11.375 20.1875 L 11.363281 20.1875 L 10.839844 21.714844 L 11.890625 21.714844 Z M 10.492188 22.671875 L 10.160156 23.507812 L 8.820312 23.507812 L 10.6875 18.703125 L 12.066406 18.703125 L 13.894531 23.507812 L 12.546875 23.507812 L 12.234375 22.671875 Z M 10.492188 22.671875 " fill-opacity="1" fill-rule="nonzero"/><path fill="#4d5054" d="M 14.261719 18.703125 L 15.523438 18.703125 L 17.835938 21.640625 L 17.851562 21.640625 L 17.851562 18.703125 L 19.113281 18.703125 L 19.113281 23.507812 L 17.851562 23.507812 L 15.539062 20.5625 L 15.523438 20.5625 L 15.523438 23.507812 L 14.261719 23.507812 Z M 14.261719 18.703125 " fill-opacity="1" fill-rule="nonzero"/><path fill="#4d5054" d="M 22.039062 20.1875 L 22.023438 20.1875 L 21.503906 21.714844 L 22.554688 21.714844 Z M 21.15625 22.671875 L 20.820312 23.507812 L 19.480469 23.507812 L 21.347656 18.703125 L 22.726562 18.703125 L 24.554688 23.507812 L 23.210938 23.507812 L 22.894531 22.671875 Z M 21.15625 22.671875 " fill-opacity="1" fill-rule="nonzero"/><path fill="#4d5054" d="M 29.597656 20.824219 C 29.585938 21.527344 29.535156 22.125 29.101562 22.722656 C 28.625 23.378906 27.910156 23.667969 27.097656 23.667969 C 25.574219 23.667969 24.511719 22.640625 24.511719 21.128906 C 24.511719 19.570312 25.578125 18.542969 27.144531 18.542969 C 28.140625 18.542969 28.914062 18.988281 29.332031 19.886719 L 28.136719 20.382812 C 27.960938 19.925781 27.59375 19.621094 27.085938 19.621094 C 26.253906 19.621094 25.824219 20.402344 25.824219 21.136719 C 25.824219 21.882812 26.273438 22.640625 27.105469 22.640625 C 27.652344 22.640625 28.070312 22.359375 28.121094 21.804688 L 27.09375 21.804688 L 27.09375 20.824219 Z M 29.597656 20.824219 " fill-opacity="1" fill-rule="nonzero"/><path fill="#4d5054" d="M 31.449219 19.761719 L 31.449219 20.5625 L 32.875 20.5625 L 32.875 21.621094 L 31.449219 21.621094 L 31.449219 22.449219 L 32.949219 22.449219 L 32.949219 23.507812 L 30.1875 23.507812 L 30.1875 18.703125 L 32.949219 18.703125 L 32.949219 19.761719 Z M 31.449219 19.761719 " fill-opacity="1" fill-rule="nonzero"/><path fill="#4d5054" d="M 41.441406 19.761719 L 41.441406 20.5625 L 42.863281 20.5625 L 42.863281 21.621094 L 41.441406 21.621094 L 41.441406 22.449219 L 42.941406 22.449219 L 42.941406 23.507812 L 40.179688 23.507812 L 40.179688 18.703125 L 42.941406 18.703125 L 42.941406 19.761719 Z M 41.441406 19.761719 " fill-opacity="1" fill-rule="nonzero"/><path fill="#4d5054" d="M 43.722656 18.703125 L 44.984375 18.703125 L 47.296875 21.640625 L 47.3125 21.640625 L 47.3125 18.703125 L 48.574219 18.703125 L 48.574219 23.507812 L 47.3125 23.507812 L 45 20.5625 L 44.984375 20.5625 L 44.984375 23.507812 L 43.722656 23.507812 Z M 43.722656 18.703125 " fill-opacity="1" fill-rule="nonzero"/><g clip-path="url(#095363dc78)"><path fill="#4d5054" d="M 51.277344 23.507812 L 50.015625 23.507812 L 50.015625 19.761719 L 48.972656 19.761719 L 48.972656 18.703125 L 52.320312 18.703125 L 52.320312 19.761719 L 51.277344 19.761719 Z M 51.277344 23.507812 " fill-opacity="1" fill-rule="nonzero"/></g><path fill="#4d5054" d="M 34.304688 18.703125 L 35.546875 18.703125 L 36.53125 21.269531 L 37.574219 18.703125 L 38.832031 18.703125 L 39.71875 23.507812 L 38.351562 23.507812 L 37.949219 20.742188 L 37.9375 20.742188 L 36.769531 23.507812 L 36.269531 23.507812 L 35.152344 20.742188 L 35.140625 20.742188 L 34.6875 23.507812 L 33.40625 23.507812 Z M 34.304688 18.703125 " fill-opacity="1" fill-rule="nonzero"/><g clip-path="url(#ab0ef8189e)"><path fill="#a31934" d="M 24.441406 8.640625 L 24.375 8.292969 L 22.90625 0.476562 L 17.96875 0.476562 L 14.625 8.410156 L 11.277344 0.476562 L 6.316406 0.476562 L 3.25 16.808594 L 8.171875 16.808594 L 9.75 8.441406 L 13.457031 16.808594 L 15.792969 16.808594 L 19.480469 8.441406 L 21.046875 16.808594 L 24.441406 16.808594 Z M 24.441406 8.640625 " fill-opacity="1" fill-rule="nonzero"/></g></svg>