<svg xmlns="http://www.w3.org/2000/svg" xmlns:xlink="http://www.w3.org/1999/xlink" width="64" zoomAndPan="magnify" viewBox="0 0 48 48" height="64" preserveAspectRatio="xMidYMid meet" version="1.0"><defs><clipPath id="478f360e9d"><path d="M 0.488281 0 L 47.507812 0 L 47.507812 47.019531 L 0.488281 47.019531 Z M 0.488281 0 " clip-rule="nonzero"/></clipPath><clipPath id="6c2c75a975"><path d="M 4.96875 4.703125 L 43 4.703125 L 43 39.96875 L 4.96875 39.96875 Z M 4.96875 4.703125 " clip-rule="nonzero"/></clipPath></defs><g clip-path="url(#478f360e9d)"><path fill="#ffffff" d="M 0.488281 0 L 47.511719 0 L 47.511719 47.019531 L 0.488281 47.019531 Z M 0.488281 0 " fill-opacity="1" fill-rule="nonzero"/><path fill="#ffffff" d="M 0.488281 0 L 47.511719 0 L 47.511719 47.019531 L 0.488281 47.019531 Z M 0.488281 0 " fill-opacity="1" fill-rule="nonzero"/></g><g clip-path="url(#6c2c75a975)"><path fill="#370909" d="M 42.183594 20.5625 L 37.914062 20.5625 C 38.195312 20.5625 38.441406 20.371094 38.507812 20.097656 C 38.574219 19.824219 38.445312 19.539062 38.199219 19.410156 L 29.613281 14.933594 C 29.851562 14.597656 29.984375 14.238281 29.984375 13.851562 L 29.984375 10.996094 L 31.207031 10.539062 L 31.207031 11.582031 C 30.84375 11.792969 30.59375 12.183594 30.59375 12.632812 C 30.59375 13.082031 30.84375 13.472656 31.207031 13.683594 L 31.207031 15.070312 L 32.425781 15.070312 L 32.425781 13.683594 C 32.789062 13.472656 33.035156 13.082031 33.035156 12.632812 C 33.035156 12.183594 32.789062 11.792969 32.425781 11.582031 L 32.425781 10.082031 L 33.859375 9.542969 C 34.097656 9.453125 34.253906 9.226562 34.253906 8.972656 C 34.253906 8.71875 34.097656 8.488281 33.859375 8.402344 L 24.097656 4.742188 C 23.960938 4.6875 23.808594 4.6875 23.671875 4.742188 L 13.910156 8.402344 C 13.671875 8.488281 13.515625 8.71875 13.515625 8.972656 C 13.515625 9.226562 13.671875 9.453125 13.910156 9.542969 L 17.785156 10.996094 L 17.785156 13.851562 C 17.785156 14.238281 17.921875 14.597656 18.15625 14.933594 L 9.574219 19.410156 C 9.324219 19.539062 9.195312 19.824219 9.261719 20.097656 C 9.332031 20.371094 9.574219 20.5625 9.855469 20.5625 L 5.585938 20.5625 C 5.25 20.5625 4.976562 20.835938 4.976562 21.171875 L 4.976562 23.613281 C 4.976562 23.949219 5.25 24.222656 5.585938 24.222656 L 6.804688 24.222656 L 6.804688 36.421875 C 6.46875 36.421875 6.195312 36.695312 6.195312 37.03125 L 6.195312 39.472656 C 6.195312 39.808594 6.46875 40.082031 6.804688 40.082031 L 40.964844 40.082031 C 41.300781 40.082031 41.574219 39.808594 41.574219 39.472656 L 41.574219 37.03125 C 41.574219 36.695312 41.300781 36.421875 40.964844 36.421875 L 40.964844 24.222656 L 42.183594 24.222656 C 42.523438 24.222656 42.796875 23.949219 42.796875 23.613281 L 42.796875 21.171875 C 42.796875 20.835938 42.523438 20.5625 42.183594 20.5625 Z M 34.253906 36.421875 L 34.253906 23.003906 L 35.476562 23.003906 L 35.476562 36.421875 Z M 22.664062 32.761719 L 25.105469 32.761719 L 25.105469 36.421875 L 22.664062 36.421875 Z M 22.664062 31.542969 C 22.664062 30.871094 23.210938 30.320312 23.886719 30.320312 C 24.558594 30.320312 25.105469 30.871094 25.105469 31.542969 Z M 23.886719 29.101562 C 22.539062 29.101562 21.445312 30.195312 21.445312 31.542969 L 21.445312 36.421875 L 20.226562 36.421875 L 20.226562 23.003906 L 27.546875 23.003906 L 27.546875 36.421875 L 26.324219 36.421875 L 26.324219 31.542969 C 26.324219 30.195312 25.230469 29.101562 23.886719 29.101562 Z M 23.886719 16.902344 C 25.851562 16.902344 27.542969 16.480469 28.644531 15.804688 L 35.425781 19.34375 L 12.34375 19.34375 L 19.125 15.804688 C 20.226562 16.480469 21.917969 16.902344 23.886719 16.902344 Z M 11.683594 21.78125 L 11.683594 20.5625 L 36.085938 20.5625 L 36.085938 21.78125 Z M 12.296875 23.003906 L 13.515625 23.003906 L 13.515625 36.421875 L 12.296875 36.421875 Z M 14.734375 23.003906 L 16.566406 23.003906 L 16.566406 36.421875 L 14.734375 36.421875 Z M 17.785156 23.003906 L 19.003906 23.003906 L 19.003906 36.421875 L 17.785156 36.421875 Z M 28.765625 23.003906 L 29.984375 23.003906 L 29.984375 36.421875 L 28.765625 36.421875 Z M 31.207031 23.003906 L 33.035156 23.003906 L 33.035156 36.421875 L 31.207031 36.421875 Z M 23.886719 5.964844 L 31.90625 8.972656 L 23.886719 11.980469 L 15.863281 8.972656 Z M 23.671875 13.203125 C 23.742188 13.230469 23.8125 13.242188 23.886719 13.242188 C 23.957031 13.242188 24.03125 13.230469 24.097656 13.203125 L 28.765625 11.453125 L 28.765625 13.851562 C 28.765625 14.597656 26.863281 15.683594 23.886719 15.683594 C 20.90625 15.683594 19.003906 14.597656 19.003906 13.851562 L 19.003906 11.453125 Z M 6.195312 21.78125 L 10.464844 21.78125 L 10.464844 22.390625 C 10.464844 22.726562 10.738281 23 11.074219 23.003906 L 6.195312 23.003906 Z M 8.023438 24.222656 L 11.074219 24.222656 L 11.074219 36.421875 L 8.023438 36.421875 Z M 40.355469 38.863281 L 7.414062 38.863281 L 7.414062 37.640625 L 40.355469 37.640625 Z M 39.746094 36.421875 L 36.695312 36.421875 L 36.695312 24.222656 L 39.746094 24.222656 Z M 41.574219 23.003906 L 36.695312 23.003906 C 37.03125 23 37.304688 22.726562 37.304688 22.390625 L 37.304688 21.78125 L 41.574219 21.78125 Z M 41.574219 23.003906 " fill-opacity="1" fill-rule="nonzero"/></g></svg>