<svg xmlns="http://www.w3.org/2000/svg" xmlns:xlink="http://www.w3.org/1999/xlink" width="64" zoomAndPan="magnify" viewBox="0 0 48 48" height="64" preserveAspectRatio="xMidYMid meet" version="1.0"><defs><clipPath id="bb44cc21c1"><path d="M 0.488281 0 L 47.507812 0 L 47.507812 47.019531 L 0.488281 47.019531 Z M 0.488281 0 " clip-rule="nonzero"/></clipPath><clipPath id="2773a1f8b3"><path d="M 8.0625 3.457031 L 42.59375 3.457031 L 42.59375 43.863281 L 8.0625 43.863281 Z M 8.0625 3.457031 " clip-rule="nonzero"/></clipPath></defs><g clip-path="url(#bb44cc21c1)"><path fill="#ffffff" d="M 0.488281 0 L 47.511719 0 L 47.511719 47.019531 L 0.488281 47.019531 Z M 0.488281 0 " fill-opacity="1" fill-rule="nonzero"/><path fill="#ffffff" d="M 0.488281 0 L 47.511719 0 L 47.511719 47.019531 L 0.488281 47.019531 Z M 0.488281 0 " fill-opacity="1" fill-rule="nonzero"/></g><g clip-path="url(#2773a1f8b3)"><path fill="#370909" d="M 18.75 43.550781 L 32.113281 43.550781 C 32.296875 43.550781 32.453125 43.484375 32.585938 43.355469 C 32.714844 43.226562 32.78125 43.066406 32.78125 42.882812 L 32.78125 40.878906 L 42.132812 40.878906 C 42.316406 40.878906 42.472656 40.8125 42.605469 40.683594 C 42.734375 40.550781 42.800781 40.394531 42.800781 40.210938 L 42.800781 32.945312 C 42.800781 32.570312 42.742188 32.210938 42.621094 31.859375 C 42.5 31.503906 42.324219 31.183594 42.09375 30.886719 C 41.863281 30.59375 41.59375 30.347656 41.28125 30.144531 C 40.96875 29.941406 40.632812 29.792969 40.269531 29.703125 L 38.296875 29.210938 C 38.050781 29.148438 37.847656 29.019531 37.691406 28.816406 C 37.535156 28.617188 37.457031 28.386719 37.457031 28.132812 L 37.457031 27.402344 C 37.855469 27.261719 38.179688 27.019531 38.421875 26.671875 C 38.667969 26.324219 38.792969 25.9375 38.792969 25.515625 L 38.792969 23.054688 L 40.511719 22.625 C 40.792969 22.554688 41.019531 22.40625 41.199219 22.179688 C 41.375 21.953125 41.464844 21.695312 41.464844 21.40625 L 41.464844 17.597656 C 41.464844 17.308594 41.375 17.050781 41.199219 16.820312 C 41.019531 16.59375 40.789062 16.445312 40.511719 16.375 L 37.945312 15.734375 C 37.691406 14.894531 37.359375 14.085938 36.941406 13.3125 L 38.300781 11.046875 C 38.449219 10.796875 38.507812 10.53125 38.472656 10.246094 C 38.4375 9.957031 38.316406 9.714844 38.113281 9.507812 L 37.265625 8.660156 L 36.320312 9.605469 L 37.128906 10.414062 L 35.773438 12.667969 C 35.53125 13.082031 35.523438 13.496094 35.75 13.914062 C 36.136719 14.628906 36.445312 15.375 36.675781 16.15625 C 36.808594 16.613281 37.109375 16.902344 37.574219 17.023438 L 40.128906 17.660156 L 40.128906 21.34375 L 38.792969 21.679688 L 38.792969 21.507812 C 38.792969 21.0625 38.707031 20.636719 38.535156 20.226562 C 38.367188 19.820312 38.125 19.457031 37.8125 19.144531 C 37.5 18.832031 37.136719 18.589844 36.730469 18.421875 C 36.320312 18.25 35.894531 18.167969 35.453125 18.164062 C 35.417969 18.164062 35.386719 18.175781 35.355469 18.175781 C 35.277344 17.578125 35.144531 16.996094 34.960938 16.421875 C 34.773438 15.851562 34.539062 15.296875 34.257812 14.769531 C 33.972656 14.238281 33.644531 13.738281 33.269531 13.265625 C 32.894531 12.792969 32.480469 12.359375 32.03125 11.964844 C 31.578125 11.566406 31.09375 11.214844 30.578125 10.90625 C 30.058594 10.597656 29.519531 10.335938 28.957031 10.125 C 28.394531 9.910156 27.816406 9.753906 27.226562 9.644531 C 26.632812 9.535156 26.035156 9.484375 25.433594 9.484375 C 24.832031 9.480469 24.234375 9.535156 23.644531 9.644531 C 23.050781 9.75 22.472656 9.910156 21.910156 10.121094 C 21.347656 10.335938 20.808594 10.59375 20.292969 10.902344 C 19.777344 11.210938 19.292969 11.566406 18.839844 11.960938 C 18.386719 12.359375 17.972656 12.792969 17.597656 13.261719 C 17.222656 13.734375 16.894531 14.234375 16.609375 14.765625 C 16.324219 15.292969 16.089844 15.847656 15.90625 16.417969 C 15.722656 16.992188 15.589844 17.574219 15.511719 18.171875 C 15.476562 18.171875 15.445312 18.164062 15.410156 18.164062 C 14.96875 18.167969 14.542969 18.25 14.132812 18.421875 C 13.726562 18.589844 13.363281 18.832031 13.050781 19.144531 C 12.738281 19.457031 12.496094 19.820312 12.328125 20.226562 C 12.15625 20.636719 12.070312 21.0625 12.070312 21.507812 L 12.070312 21.679688 L 10.734375 21.34375 L 10.734375 17.660156 L 13.289062 17.019531 C 13.753906 16.902344 14.054688 16.613281 14.1875 16.152344 C 14.417969 15.375 14.726562 14.628906 15.113281 13.914062 C 15.34375 13.492188 15.335938 13.078125 15.089844 12.667969 L 13.738281 10.410156 L 16.34375 7.804688 L 18.597656 9.160156 C 19.007812 9.402344 19.425781 9.410156 19.84375 9.183594 C 20.558594 8.796875 21.304688 8.488281 22.085938 8.257812 C 22.542969 8.125 22.832031 7.824219 22.949219 7.363281 L 23.589844 4.804688 L 27.273438 4.804688 L 27.914062 7.363281 C 28.03125 7.824219 28.320312 8.125 28.777344 8.257812 C 29.558594 8.488281 30.304688 8.796875 31.019531 9.183594 C 31.4375 9.414062 31.851562 9.40625 32.261719 9.160156 L 34.519531 7.808594 L 35.34375 8.628906 L 36.285156 7.683594 L 35.421875 6.820312 C 35.21875 6.617188 34.972656 6.496094 34.6875 6.460938 C 34.402344 6.425781 34.132812 6.480469 33.886719 6.628906 L 31.617188 7.992188 C 30.84375 7.574219 30.039062 7.242188 29.199219 6.988281 L 28.554688 4.421875 C 28.484375 4.140625 28.335938 3.914062 28.109375 3.734375 C 27.882812 3.558594 27.621094 3.46875 27.335938 3.46875 L 23.527344 3.46875 C 23.238281 3.46875 22.980469 3.558594 22.75 3.734375 C 22.523438 3.914062 22.375 4.140625 22.304688 4.421875 L 21.667969 6.988281 C 20.824219 7.242188 20.019531 7.578125 19.246094 7.992188 L 16.976562 6.628906 C 16.730469 6.484375 16.464844 6.425781 16.175781 6.460938 C 15.890625 6.496094 15.644531 6.617188 15.441406 6.820312 L 12.75 9.511719 C 12.546875 9.714844 12.425781 9.960938 12.390625 10.246094 C 12.355469 10.53125 12.414062 10.800781 12.5625 11.046875 L 13.921875 13.3125 C 13.503906 14.085938 13.171875 14.894531 12.921875 15.734375 L 10.355469 16.375 C 10.074219 16.445312 9.84375 16.59375 9.664062 16.824219 C 9.488281 17.050781 9.398438 17.308594 9.398438 17.597656 L 9.398438 21.40625 C 9.398438 21.695312 9.488281 21.953125 9.664062 22.183594 C 9.84375 22.410156 10.074219 22.558594 10.351562 22.628906 L 12.070312 23.054688 L 12.070312 25.515625 C 12.070312 25.9375 12.195312 26.324219 12.441406 26.671875 C 12.683594 27.019531 13.007812 27.261719 13.40625 27.402344 L 13.40625 28.132812 C 13.40625 28.386719 13.328125 28.617188 13.171875 28.816406 C 13.015625 29.019531 12.8125 29.148438 12.5625 29.210938 L 10.59375 29.703125 C 10.230469 29.792969 9.894531 29.941406 9.582031 30.144531 C 9.269531 30.347656 9 30.59375 8.769531 30.886719 C 8.539062 31.183594 8.363281 31.503906 8.242188 31.855469 C 8.121094 32.210938 8.0625 32.570312 8.0625 32.945312 L 8.0625 34.867188 L 9.398438 34.867188 L 9.398438 32.945312 C 9.398438 32.484375 9.539062 32.074219 9.824219 31.710938 C 10.105469 31.347656 10.472656 31.113281 10.917969 31 L 12.890625 30.507812 C 13.152344 30.441406 13.402344 30.335938 13.628906 30.1875 C 13.859375 30.035156 14.058594 29.855469 14.226562 29.640625 C 14.394531 29.425781 14.523438 29.1875 14.609375 28.929688 C 14.699219 28.671875 14.742188 28.40625 14.742188 28.132812 L 14.742188 26.851562 C 14.742188 26.664062 14.679688 26.507812 14.546875 26.378906 C 14.417969 26.246094 14.261719 26.183594 14.074219 26.183594 C 13.890625 26.183594 13.734375 26.117188 13.601562 25.988281 C 13.472656 25.855469 13.40625 25.699219 13.40625 25.515625 L 13.40625 21.507812 C 13.40625 21.242188 13.457031 20.984375 13.558594 20.738281 C 13.660156 20.492188 13.804688 20.277344 13.996094 20.089844 C 14.183594 19.902344 14.398438 19.757812 14.644531 19.65625 C 14.890625 19.554688 15.144531 19.503906 15.410156 19.503906 C 15.675781 19.503906 15.933594 19.554688 16.179688 19.65625 C 16.421875 19.757812 16.640625 19.902344 16.828125 20.089844 C 17.015625 20.277344 17.160156 20.492188 17.261719 20.738281 C 17.363281 20.984375 17.414062 21.242188 17.414062 21.507812 L 17.414062 25.515625 C 17.414062 25.699219 17.351562 25.855469 17.21875 25.988281 C 17.089844 26.117188 16.933594 26.183594 16.746094 26.183594 C 16.5625 26.183594 16.40625 26.246094 16.273438 26.378906 C 16.144531 26.507812 16.078125 26.664062 16.078125 26.851562 L 16.078125 28.132812 C 16.078125 28.40625 16.125 28.671875 16.210938 28.929688 C 16.300781 29.1875 16.429688 29.425781 16.597656 29.640625 C 16.765625 29.855469 16.964844 30.035156 17.191406 30.183594 C 17.421875 30.335938 17.667969 30.441406 17.933594 30.507812 L 19.90625 31 C 20.570312 31.167969 21.03125 31.570312 21.277344 32.210938 L 20.609375 32.375 C 20.25 32.46875 19.914062 32.613281 19.601562 32.816406 C 19.289062 33.019531 19.019531 33.269531 18.789062 33.5625 C 18.558594 33.855469 18.386719 34.175781 18.265625 34.53125 C 18.144531 34.882812 18.082031 35.246094 18.082031 35.617188 L 18.082031 39.542969 L 12.738281 39.542969 L 12.738281 34.867188 C 12.738281 34.683594 12.675781 34.523438 12.542969 34.394531 C 12.414062 34.265625 12.253906 34.199219 12.070312 34.199219 C 11.886719 34.199219 11.730469 34.265625 11.597656 34.394531 C 11.46875 34.523438 11.402344 34.683594 11.402344 34.867188 L 11.402344 39.542969 L 9.398438 39.542969 L 9.398438 36.222656 L 8.0625 36.222656 L 8.0625 40.210938 C 8.0625 40.394531 8.128906 40.550781 8.257812 40.683594 C 8.390625 40.8125 8.546875 40.878906 8.730469 40.878906 L 18.082031 40.878906 L 18.082031 42.882812 C 18.082031 43.066406 18.148438 43.226562 18.277344 43.355469 C 18.410156 43.484375 18.566406 43.550781 18.75 43.550781 Z M 37.457031 21.507812 L 37.457031 25.515625 C 37.457031 25.699219 37.390625 25.855469 37.261719 25.988281 C 37.128906 26.117188 36.972656 26.183594 36.789062 26.183594 C 36.605469 26.183594 36.445312 26.246094 36.316406 26.378906 C 36.183594 26.507812 36.121094 26.664062 36.121094 26.851562 L 36.121094 28.132812 C 36.121094 28.40625 36.164062 28.671875 36.253906 28.929688 C 36.339844 29.1875 36.46875 29.425781 36.636719 29.640625 C 36.804688 29.855469 37.003906 30.035156 37.234375 30.183594 C 37.460938 30.335938 37.707031 30.441406 37.972656 30.507812 L 39.945312 31 C 40.390625 31.113281 40.757812 31.347656 41.039062 31.710938 C 41.324219 32.074219 41.464844 32.484375 41.464844 32.945312 L 41.464844 39.542969 L 39.460938 39.542969 L 39.460938 34.867188 C 39.460938 34.683594 39.394531 34.523438 39.265625 34.394531 C 39.132812 34.265625 38.976562 34.199219 38.792969 34.199219 C 38.609375 34.199219 38.449219 34.265625 38.320312 34.394531 C 38.1875 34.523438 38.125 34.683594 38.125 34.867188 L 38.125 39.542969 L 32.78125 39.542969 L 32.78125 35.617188 C 32.78125 35.246094 32.71875 34.882812 32.597656 34.53125 C 32.476562 34.175781 32.304688 33.855469 32.074219 33.5625 C 31.84375 33.265625 31.574219 33.019531 31.261719 32.816406 C 30.949219 32.613281 30.613281 32.464844 30.25 32.375 L 29.582031 32.210938 C 29.832031 31.570312 30.289062 31.167969 30.957031 31 L 32.925781 30.507812 C 33.191406 30.441406 33.441406 30.335938 33.667969 30.1875 C 33.898438 30.039062 34.097656 29.855469 34.265625 29.640625 C 34.433594 29.425781 34.5625 29.1875 34.652344 28.929688 C 34.738281 28.671875 34.785156 28.40625 34.785156 28.132812 L 34.785156 26.851562 C 34.785156 26.664062 34.71875 26.507812 34.589844 26.378906 C 34.457031 26.246094 34.300781 26.183594 34.117188 26.183594 C 33.929688 26.183594 33.773438 26.117188 33.644531 25.988281 C 33.511719 25.855469 33.449219 25.699219 33.449219 25.515625 L 33.449219 21.507812 C 33.449219 21.242188 33.5 20.984375 33.601562 20.738281 C 33.703125 20.492188 33.847656 20.277344 34.035156 20.089844 C 34.222656 19.902344 34.441406 19.757812 34.683594 19.65625 C 34.929688 19.554688 35.1875 19.503906 35.453125 19.503906 C 35.71875 19.503906 35.972656 19.554688 36.21875 19.65625 C 36.464844 19.757812 36.679688 19.902344 36.871094 20.089844 C 37.058594 20.277344 37.203125 20.492188 37.304688 20.738281 C 37.40625 20.984375 37.457031 21.242188 37.457031 21.507812 Z M 28.589844 29.007812 C 30.066406 28.519531 31.355469 27.730469 32.460938 26.636719 C 32.707031 27 33.035156 27.253906 33.449219 27.402344 L 33.449219 28.132812 C 33.449219 28.386719 33.371094 28.617188 33.210938 28.816406 C 33.054688 29.019531 32.851562 29.148438 32.605469 29.210938 L 30.632812 29.703125 C 30.082031 29.84375 29.59375 30.105469 29.175781 30.492188 C 28.757812 30.878906 28.460938 31.34375 28.28125 31.882812 C 28.03125 31.824219 27.828125 31.691406 27.671875 31.488281 C 27.515625 31.289062 27.433594 31.058594 27.4375 30.804688 L 27.4375 30.078125 C 27.972656 29.882812 28.359375 29.527344 28.589844 29.007812 Z M 16.8125 18.476562 C 16.875 17.953125 16.984375 17.441406 17.140625 16.9375 C 17.292969 16.433594 17.492188 15.945312 17.738281 15.480469 C 17.980469 15.011719 18.265625 14.570312 18.589844 14.15625 C 18.914062 13.738281 19.273438 13.355469 19.667969 13.003906 C 20.0625 12.65625 20.484375 12.34375 20.933594 12.070312 C 21.386719 11.796875 21.855469 11.566406 22.351562 11.378906 C 22.84375 11.191406 23.347656 11.050781 23.867188 10.957031 C 24.386719 10.859375 24.910156 10.8125 25.4375 10.8125 C 25.964844 10.8125 26.484375 10.863281 27.003906 10.957031 C 27.523438 11.054688 28.027344 11.195312 28.519531 11.382812 C 29.015625 11.570312 29.484375 11.800781 29.9375 12.074219 C 30.386719 12.347656 30.808594 12.660156 31.203125 13.011719 C 31.597656 13.363281 31.953125 13.746094 32.277344 14.160156 C 32.601562 14.578125 32.886719 15.019531 33.128906 15.488281 C 33.371094 15.957031 33.570312 16.441406 33.726562 16.945312 C 33.878906 17.449219 33.988281 17.964844 34.050781 18.488281 C 33.460938 18.757812 32.992188 19.167969 32.640625 19.714844 C 32.289062 20.261719 32.113281 20.859375 32.113281 21.507812 L 32.113281 25.042969 C 31.203125 26.144531 30.089844 26.96875 28.773438 27.515625 L 28.773438 24.179688 C 28.773438 23.734375 28.6875 23.308594 28.515625 22.898438 C 28.347656 22.492188 28.105469 22.128906 27.792969 21.816406 C 27.480469 21.503906 27.117188 21.261719 26.710938 21.09375 C 26.300781 20.921875 25.875 20.839844 25.433594 20.839844 C 24.988281 20.839844 24.5625 20.921875 24.152344 21.09375 C 23.746094 21.261719 23.382812 21.503906 23.070312 21.816406 C 22.757812 22.128906 22.515625 22.492188 22.347656 22.898438 C 22.175781 23.308594 22.089844 23.734375 22.089844 24.179688 L 22.089844 27.515625 C 20.773438 26.96875 19.660156 26.144531 18.75 25.042969 L 18.75 21.507812 C 18.75 20.855469 18.578125 20.257812 18.226562 19.707031 C 17.875 19.160156 17.40625 18.75 16.8125 18.476562 Z M 20.230469 29.703125 L 18.257812 29.210938 C 18.011719 29.148438 17.808594 29.019531 17.652344 28.816406 C 17.492188 28.617188 17.414062 28.386719 17.414062 28.132812 L 17.414062 27.402344 C 17.828125 27.253906 18.15625 27 18.402344 26.636719 C 19.507812 27.730469 20.796875 28.519531 22.273438 29.007812 C 22.507812 29.527344 22.890625 29.882812 23.425781 30.078125 L 23.425781 30.804688 C 23.429688 31.058594 23.351562 31.289062 23.191406 31.488281 C 23.035156 31.691406 22.832031 31.820312 22.585938 31.882812 C 22.40625 31.34375 22.105469 30.878906 21.6875 30.492188 C 21.269531 30.105469 20.78125 29.84375 20.230469 29.703125 Z M 19.417969 35.617188 C 19.417969 35.15625 19.5625 34.746094 19.84375 34.382812 C 20.128906 34.019531 20.492188 33.785156 20.9375 33.671875 L 22.910156 33.179688 C 23.175781 33.113281 23.421875 33.007812 23.648438 32.859375 C 23.878906 32.710938 24.078125 32.527344 24.246094 32.3125 C 24.414062 32.097656 24.542969 31.859375 24.632812 31.601562 C 24.71875 31.34375 24.765625 31.078125 24.765625 30.804688 L 24.765625 29.523438 C 24.765625 29.339844 24.699219 29.179688 24.566406 29.050781 C 24.4375 28.917969 24.28125 28.855469 24.09375 28.855469 C 23.910156 28.855469 23.753906 28.789062 23.625 28.660156 C 23.492188 28.527344 23.425781 28.371094 23.425781 28.1875 L 23.425781 24.179688 C 23.425781 23.914062 23.476562 23.65625 23.582031 23.410156 C 23.683594 23.164062 23.828125 22.949219 24.015625 22.761719 C 24.203125 22.574219 24.417969 22.429688 24.664062 22.328125 C 24.910156 22.226562 25.164062 22.175781 25.433594 22.175781 C 25.699219 22.175781 25.953125 22.226562 26.199219 22.328125 C 26.445312 22.429688 26.660156 22.574219 26.847656 22.761719 C 27.035156 22.949219 27.179688 23.164062 27.285156 23.410156 C 27.386719 23.65625 27.4375 23.914062 27.4375 24.179688 L 27.4375 28.1875 C 27.4375 28.371094 27.371094 28.527344 27.238281 28.660156 C 27.109375 28.789062 26.953125 28.855469 26.769531 28.855469 C 26.582031 28.855469 26.425781 28.917969 26.296875 29.050781 C 26.164062 29.179688 26.101562 29.339844 26.101562 29.523438 L 26.101562 30.804688 C 26.097656 31.078125 26.144531 31.34375 26.230469 31.601562 C 26.320312 31.859375 26.449219 32.097656 26.617188 32.3125 C 26.785156 32.527344 26.984375 32.707031 27.210938 32.859375 C 27.441406 33.007812 27.6875 33.113281 27.953125 33.179688 L 29.925781 33.671875 C 30.371094 33.785156 30.734375 34.019531 31.019531 34.382812 C 31.300781 34.746094 31.445312 35.15625 31.445312 35.617188 L 31.445312 42.214844 L 29.441406 42.214844 L 29.441406 37.539062 C 29.441406 37.355469 29.375 37.195312 29.246094 37.066406 C 29.113281 36.9375 28.957031 36.871094 28.773438 36.871094 C 28.585938 36.871094 28.429688 36.9375 28.300781 37.066406 C 28.167969 37.195312 28.105469 37.355469 28.105469 37.539062 L 28.105469 42.214844 L 22.757812 42.214844 L 22.757812 37.539062 C 22.757812 37.355469 22.695312 37.195312 22.5625 37.066406 C 22.433594 36.9375 22.277344 36.871094 22.089844 36.871094 C 21.90625 36.871094 21.75 36.9375 21.621094 37.066406 C 21.488281 37.195312 21.421875 37.355469 21.421875 37.539062 L 21.421875 42.214844 L 19.417969 42.214844 Z M 19.417969 35.617188 " fill-opacity="1" fill-rule="nonzero"/></g><path fill="#370909" d="M 24.09375 18.46875 L 24.09375 19.503906 C 24.09375 19.6875 24.160156 19.84375 24.292969 19.972656 C 24.421875 20.105469 24.578125 20.171875 24.765625 20.171875 L 26.101562 20.171875 C 26.285156 20.171875 26.441406 20.105469 26.570312 19.972656 C 26.703125 19.84375 26.769531 19.6875 26.769531 19.503906 L 26.769531 18.46875 C 26.9375 18.371094 27.09375 18.253906 27.238281 18.125 C 27.378906 17.992188 27.507812 17.84375 27.621094 17.6875 C 27.734375 17.527344 27.824219 17.355469 27.902344 17.175781 C 27.976562 16.996094 28.03125 16.808594 28.0625 16.617188 C 28.097656 16.425781 28.109375 16.230469 28.101562 16.035156 C 28.09375 15.839844 28.0625 15.648438 28.011719 15.460938 C 27.960938 15.273438 27.890625 15.09375 27.800781 14.917969 C 27.710938 14.746094 27.605469 14.585938 27.480469 14.4375 C 27.351562 14.285156 27.214844 14.152344 27.058594 14.035156 C 26.902344 13.914062 26.738281 13.8125 26.5625 13.730469 C 26.382812 13.648438 26.199219 13.585938 26.011719 13.542969 C 25.820312 13.503906 25.625 13.480469 25.433594 13.480469 C 25.238281 13.480469 25.042969 13.503906 24.851562 13.542969 C 24.664062 13.585938 24.480469 13.648438 24.300781 13.730469 C 24.125 13.8125 23.960938 13.914062 23.804688 14.035156 C 23.648438 14.152344 23.511719 14.285156 23.382812 14.4375 C 23.257812 14.585938 23.152344 14.746094 23.0625 14.917969 C 22.972656 15.09375 22.902344 15.273438 22.851562 15.460938 C 22.800781 15.648438 22.769531 15.839844 22.761719 16.035156 C 22.753906 16.230469 22.765625 16.425781 22.800781 16.617188 C 22.835938 16.808594 22.886719 16.996094 22.964844 17.175781 C 23.039062 17.355469 23.132812 17.527344 23.242188 17.6875 C 23.355469 17.84375 23.484375 17.992188 23.625 18.125 C 23.769531 18.253906 23.925781 18.371094 24.09375 18.46875 Z M 25.433594 14.824219 C 25.757812 14.824219 26.042969 14.929688 26.292969 15.136719 C 26.542969 15.347656 26.691406 15.613281 26.75 15.933594 C 26.804688 16.253906 26.75 16.550781 26.582031 16.832031 C 26.417969 17.113281 26.183594 17.304688 25.875 17.414062 C 25.578125 17.519531 25.433594 17.730469 25.433594 18.042969 C 25.429688 17.730469 25.285156 17.519531 24.988281 17.414062 C 24.679688 17.304688 24.445312 17.113281 24.28125 16.832031 C 24.117188 16.550781 24.058594 16.253906 24.117188 15.933594 C 24.171875 15.613281 24.320312 15.347656 24.570312 15.136719 C 24.820312 14.929688 25.105469 14.824219 25.433594 14.824219 Z M 25.433594 14.824219 " fill-opacity="1" fill-rule="nonzero"/><path fill="#370909" d="M 24.765625 11.484375 L 26.101562 11.484375 L 26.101562 12.820312 L 24.765625 12.820312 Z M 24.765625 11.484375 " fill-opacity="1" fill-rule="nonzero"/><path fill="#370909" d="M 27.320312 13.328125 L 28.265625 12.382812 L 29.210938 13.328125 L 28.265625 14.273438 Z M 27.320312 13.328125 " fill-opacity="1" fill-rule="nonzero"/><path fill="#370909" d="M 21.652344 13.328125 L 22.597656 12.382812 L 23.542969 13.328125 L 22.597656 14.273438 Z M 21.652344 13.328125 " fill-opacity="1" fill-rule="nonzero"/><path fill="#370909" d="M 28.773438 15.492188 L 30.109375 15.492188 L 30.109375 16.828125 L 28.773438 16.828125 Z M 28.773438 15.492188 " fill-opacity="1" fill-rule="nonzero"/><path fill="#370909" d="M 20.753906 15.492188 L 22.089844 15.492188 L 22.089844 16.828125 L 20.753906 16.828125 Z M 20.753906 15.492188 " fill-opacity="1" fill-rule="nonzero"/></svg>