<svg xmlns="http://www.w3.org/2000/svg" xmlns:xlink="http://www.w3.org/1999/xlink" width="64" zoomAndPan="magnify" viewBox="0 0 48 48" height="64" preserveAspectRatio="xMidYMid meet" version="1.0"><defs><clipPath id="fc352d6b82"><path d="M 0.488281 0 L 47.507812 0 L 47.507812 47.019531 L 0.488281 47.019531 Z M 0.488281 0 " clip-rule="nonzero"/></clipPath><clipPath id="cf4a94028e"><path d="M 7.90625 4.703125 L 43.90625 4.703125 L 43.90625 38.496094 L 7.90625 38.496094 Z M 7.90625 4.703125 " clip-rule="nonzero"/></clipPath></defs><g clip-path="url(#fc352d6b82)"><path fill="#ffffff" d="M 0.488281 0 L 47.511719 0 L 47.511719 47.019531 L 0.488281 47.019531 Z M 0.488281 0 " fill-opacity="1" fill-rule="nonzero"/><path fill="#ffffff" d="M 0.488281 0 L 47.511719 0 L 47.511719 47.019531 L 0.488281 47.019531 Z M 0.488281 0 " fill-opacity="1" fill-rule="nonzero"/></g><g clip-path="url(#cf4a94028e)"><path fill="#370909" d="M 43.492188 26.453125 C 43.707031 26.316406 43.835938 26.078125 43.824219 25.824219 C 43.816406 25.570312 43.675781 25.339844 43.453125 25.21875 L 34.898438 20.511719 L 38.078125 20.511719 L 38.078125 10.175781 C 38.078125 9.140625 37.21875 8.296875 36.164062 8.296875 L 28.742188 8.296875 L 28.742188 6.757812 C 28.742188 5.628906 27.773438 4.707031 26.585938 4.707031 L 19.402344 4.707031 C 18.214844 4.707031 17.246094 5.628906 17.246094 6.757812 L 17.246094 8.296875 L 9.824219 8.296875 C 8.765625 8.296875 7.90625 9.140625 7.90625 10.175781 L 7.90625 19.894531 C 7.90625 20.234375 8.230469 20.511719 8.625 20.511719 L 31.921875 20.511719 L 29.308594 21.949219 L 8.625 21.949219 C 8.371094 21.949219 8.132812 21.898438 7.90625 21.820312 L 7.90625 28.691406 C 7.90625 29.726562 8.765625 30.570312 9.824219 30.570312 L 26.484375 30.570312 C 26.046875 31.882812 25.855469 33.417969 25.867188 35.402344 C 25.871094 35.796875 26.191406 36.113281 26.585938 36.113281 C 30.0625 36.113281 32.207031 37.121094 32.789062 38.113281 C 32.917969 38.335938 33.152344 38.472656 33.410156 38.472656 C 33.664062 38.472656 33.902344 38.335938 34.027344 38.113281 C 34.609375 37.121094 36.753906 36.113281 40.234375 36.113281 C 40.628906 36.113281 40.949219 35.796875 40.953125 35.402344 C 40.96875 32.535156 40.570312 30.597656 39.601562 28.925781 L 41.671875 27.609375 L 41.671875 30.785156 C 41.363281 31.003906 41.160156 31.359375 41.160156 31.765625 C 41.160156 31.886719 41.160156 32.253906 41.765625 33.132812 L 42.355469 33.988281 L 42.945312 33.132812 C 43.554688 32.253906 43.554688 31.886719 43.554688 31.765625 C 43.554688 31.390625 43.378906 31.0625 43.109375 30.84375 L 43.109375 26.699219 Z M 18.683594 6.757812 C 18.683594 6.417969 19.003906 6.144531 19.402344 6.144531 L 26.585938 6.144531 C 26.980469 6.144531 27.304688 6.417969 27.304688 6.757812 L 27.304688 8.296875 L 18.683594 8.296875 Z M 22.992188 18.355469 C 22.199219 18.355469 21.554688 17.710938 21.554688 16.917969 C 21.554688 16.125 22.199219 15.480469 22.992188 15.480469 C 23.789062 15.480469 24.429688 16.125 24.429688 16.917969 C 24.429688 17.710938 23.789062 18.355469 22.992188 18.355469 Z M 33.410156 36.625 C 32.210938 35.503906 30.007812 34.800781 27.308594 34.691406 C 27.355469 32.515625 27.695312 30.988281 28.429688 29.695312 L 33.023438 32.613281 C 33.144531 32.6875 33.277344 32.722656 33.410156 32.722656 C 33.542969 32.722656 33.675781 32.6875 33.796875 32.613281 L 38.390625 29.695312 C 39.125 30.992188 39.464844 32.519531 39.511719 34.691406 C 36.8125 34.800781 34.609375 35.503906 33.410156 36.625 Z M 33.410156 31.152344 L 25.121094 25.890625 L 33.410156 21.332031 L 41.699219 25.890625 Z M 33.410156 31.152344 " fill-opacity="1" fill-rule="nonzero"/></g></svg>