<svg xmlns="http://www.w3.org/2000/svg" xmlns:xlink="http://www.w3.org/1999/xlink" width="64" zoomAndPan="magnify" viewBox="0 0 48 48" height="64" preserveAspectRatio="xMidYMid meet" version="1.0"><defs><clipPath id="a1e2b103f0"><path d="M 0.488281 0 L 47.507812 0 L 47.507812 47.019531 L 0.488281 47.019531 Z M 0.488281 0 " clip-rule="nonzero"/></clipPath><clipPath id="7304d82359"><path d="M 9.347656 3.316406 L 38.734375 3.316406 L 38.734375 40.785156 L 9.347656 40.785156 Z M 9.347656 3.316406 " clip-rule="nonzero"/></clipPath></defs><g clip-path="url(#a1e2b103f0)"><path fill="#ffffff" d="M 0.488281 0 L 47.511719 0 L 47.511719 47.019531 L 0.488281 47.019531 Z M 0.488281 0 " fill-opacity="1" fill-rule="nonzero"/><path fill="#ffffff" d="M 0.488281 0 L 47.511719 0 L 47.511719 47.019531 L 0.488281 47.019531 Z M 0.488281 0 " fill-opacity="1" fill-rule="nonzero"/></g><g clip-path="url(#7304d82359)"><path fill="#370909" d="M 23.996094 3.316406 C 32.078125 3.316406 38.632812 9.867188 38.632812 17.953125 C 38.632812 26.035156 32.078125 32.589844 23.996094 32.589844 C 15.914062 32.589844 9.359375 26.035156 9.359375 17.953125 C 9.359375 9.867188 15.914062 3.316406 23.996094 3.316406 Z M 34.984375 29.425781 C 32.953125 31.371094 30.402344 32.785156 27.5625 33.4375 L 30.0625 39.242188 L 32.765625 34.890625 L 37.78125 35.917969 Z M 21.191406 33.589844 C 18.324219 33.082031 15.722656 31.800781 13.609375 29.972656 L 10.210938 37.273438 L 15.253906 36.390625 L 17.828125 40.820312 Z M 24.242188 12.796875 C 24.15625 12.570312 23.835938 12.570312 23.75 12.796875 L 22.476562 16.148438 C 22.4375 16.246094 22.351562 16.3125 22.242188 16.316406 L 18.664062 16.492188 C 18.421875 16.503906 18.320312 16.808594 18.511719 16.960938 L 21.304688 19.207031 C 21.386719 19.273438 21.421875 19.378906 21.394531 19.484375 L 20.453125 22.941406 C 20.390625 23.175781 20.648438 23.363281 20.855469 23.230469 L 23.851562 21.269531 C 23.941406 21.210938 24.050781 21.210938 24.140625 21.269531 L 27.136719 23.230469 C 27.34375 23.363281 27.601562 23.175781 27.539062 22.941406 L 26.597656 19.484375 C 26.570312 19.378906 26.605469 19.273438 26.6875 19.207031 L 29.480469 16.960938 C 29.671875 16.808594 29.570312 16.503906 29.328125 16.492188 L 25.75 16.316406 C 25.640625 16.3125 25.554688 16.246094 25.515625 16.148438 Z M 25.378906 7.601562 C 24.546875 6.980469 23.445312 6.980469 22.613281 7.601562 C 20.445312 9.226562 20.9375 9.046875 18.234375 9.195312 C 17.195312 9.253906 16.351562 9.960938 16.113281 10.976562 C 15.496094 13.613281 15.757812 13.160156 13.78125 15.011719 C 13.023438 15.722656 12.832031 16.808594 13.300781 17.738281 C 14.523438 20.152344 14.433594 19.636719 14.113281 22.328125 C 13.988281 23.359375 14.539062 24.3125 15.496094 24.722656 C 17.984375 25.789062 17.582031 25.453125 19.066406 27.71875 C 19.636719 28.589844 20.667969 28.964844 21.664062 28.664062 C 24.257812 27.882812 23.734375 27.882812 26.328125 28.664062 C 27.324219 28.964844 28.355469 28.589844 28.925781 27.71875 C 30.410156 25.453125 30.007812 25.789062 32.496094 24.722656 C 33.453125 24.3125 34.003906 23.359375 33.878906 22.328125 C 33.558594 19.636719 33.46875 20.152344 34.691406 17.738281 C 35.160156 16.808594 34.96875 15.722656 34.210938 15.011719 C 32.234375 13.160156 32.496094 13.613281 31.878906 10.976562 C 31.640625 9.960938 30.796875 9.253906 29.757812 9.195312 C 27.054688 9.046875 27.546875 9.226562 25.378906 7.601562 Z M 25.378906 7.601562 " fill-opacity="1" fill-rule="evenodd"/></g></svg>