<svg xmlns="http://www.w3.org/2000/svg" xmlns:xlink="http://www.w3.org/1999/xlink" width="64" zoomAndPan="magnify" viewBox="0 0 48 48" height="64" preserveAspectRatio="xMidYMid meet" version="1.0"><defs><filter x="0%" y="0%" width="100%" height="100%" id="42671b7ef7"><feColorMatrix values="0 0 0 0 1 0 0 0 0 1 0 0 0 0 1 0 0 0 1 0" color-interpolation-filters="sRGB"/></filter><clipPath id="c7045bf879"><path d="M 0.488281 0 L 47.507812 0 L 47.507812 47.019531 L 0.488281 47.019531 Z M 0.488281 0 " clip-rule="nonzero"/></clipPath><clipPath id="5b627b8e1e"><path d="M 9.394531 3.820312 L 36.578125 3.820312 L 36.578125 36.882812 L 9.394531 36.882812 Z M 9.394531 3.820312 " clip-rule="nonzero"/></clipPath><clipPath id="249231873c"><path d="M 9.394531 3.820312 L 24 3.820312 L 24 36.882812 L 9.394531 36.882812 Z M 9.394531 3.820312 " clip-rule="nonzero"/></clipPath><mask id="3769d3b0f7"><g filter="url(#42671b7ef7)"><rect x="-4.8" width="57.6" fill="#000000" y="-4.8" height="57.6" fill-opacity="0.15"/></g></mask><clipPath id="e1ccfd7787"><path d="M 0.394531 0.820312 L 14.292969 0.820312 L 14.292969 33.882812 L 0.394531 33.882812 Z M 0.394531 0.820312 " clip-rule="nonzero"/></clipPath><clipPath id="c4e26ca283"><rect x="0" width="15" y="0" height="34"/></clipPath></defs><g clip-path="url(#c7045bf879)"><path fill="#ffffff" d="M 0.488281 0 L 47.511719 0 L 47.511719 47.019531 L 0.488281 47.019531 Z M 0.488281 0 " fill-opacity="1" fill-rule="nonzero"/><path fill="#ffffff" d="M 0.488281 0 L 47.511719 0 L 47.511719 47.019531 L 0.488281 47.019531 Z M 0.488281 0 " fill-opacity="1" fill-rule="nonzero"/></g><g clip-path="url(#5b627b8e1e)"><path fill="#370909" d="M 23.113281 3.820312 C 15.601562 3.820312 9.515625 9.910156 9.515625 17.417969 C 9.515625 27.746094 23.113281 36.730469 23.113281 36.730469 C 23.113281 36.730469 36.710938 27.746094 36.710938 17.417969 C 36.710938 9.910156 30.621094 3.820312 23.113281 3.820312 Z M 23.113281 3.820312 " fill-opacity="1" fill-rule="nonzero"/></g><g clip-path="url(#249231873c)"><g mask="url(#3769d3b0f7)"><g transform="matrix(1, 0, 0, 1, 9, 3)"><g clip-path="url(#c4e26ca283)"><g clip-path="url(#e1ccfd7787)"><path fill="#ffffff" d="M 14.113281 0.820312 C 6.601562 0.820312 0.515625 6.910156 0.515625 14.417969 C 0.515625 24.746094 14.113281 33.730469 14.113281 33.730469 Z M 14.113281 0.820312 " fill-opacity="1" fill-rule="nonzero"/></g></g></g></g></g><path fill="#370909" d="M 33.679688 17.417969 C 33.679688 18.113281 33.613281 18.800781 33.476562 19.480469 C 33.34375 20.160156 33.140625 20.820312 32.875 21.460938 C 32.609375 22.105469 32.285156 22.710938 31.898438 23.289062 C 31.515625 23.867188 31.078125 24.402344 30.585938 24.890625 C 30.09375 25.382812 29.5625 25.820312 28.984375 26.207031 C 28.40625 26.589844 27.796875 26.917969 27.15625 27.183594 C 26.515625 27.449219 25.855469 27.648438 25.175781 27.785156 C 24.492188 27.917969 23.804688 27.988281 23.113281 27.988281 C 22.417969 27.988281 21.730469 27.917969 21.050781 27.785156 C 20.371094 27.648438 19.710938 27.449219 19.066406 27.183594 C 18.425781 26.917969 17.816406 26.589844 17.242188 26.207031 C 16.664062 25.820312 16.128906 25.382812 15.640625 24.890625 C 15.148438 24.402344 14.710938 23.867188 14.324219 23.289062 C 13.9375 22.710938 13.613281 22.105469 13.347656 21.460938 C 13.082031 20.820312 12.882812 20.160156 12.746094 19.480469 C 12.613281 18.800781 12.542969 18.113281 12.542969 17.417969 C 12.542969 16.722656 12.613281 16.035156 12.746094 15.355469 C 12.882812 14.675781 13.082031 14.015625 13.347656 13.375 C 13.613281 12.734375 13.9375 12.125 14.324219 11.546875 C 14.710938 10.96875 15.148438 10.4375 15.640625 9.945312 C 16.128906 9.453125 16.664062 9.015625 17.242188 8.628906 C 17.816406 8.246094 18.425781 7.917969 19.066406 7.652344 C 19.710938 7.386719 20.371094 7.1875 21.050781 7.050781 C 21.730469 6.917969 22.417969 6.847656 23.113281 6.847656 C 23.804688 6.847656 24.492188 6.917969 25.175781 7.050781 C 25.855469 7.1875 26.515625 7.386719 27.15625 7.652344 C 27.796875 7.917969 28.40625 8.246094 28.984375 8.628906 C 29.5625 9.015625 30.09375 9.453125 30.585938 9.945312 C 31.078125 10.4375 31.515625 10.96875 31.898438 11.546875 C 32.285156 12.125 32.609375 12.734375 32.875 13.375 C 33.140625 14.015625 33.34375 14.675781 33.476562 15.355469 C 33.613281 16.035156 33.679688 16.722656 33.679688 17.417969 Z M 33.679688 17.417969 " fill-opacity="1" fill-rule="nonzero"/><path fill="#ffffff" d="M 28.644531 14.722656 L 17.289062 14.722656 C 16.941406 14.722656 16.660156 15.003906 16.660156 15.351562 L 16.660156 21.660156 C 16.660156 22.007812 16.941406 22.292969 17.289062 22.292969 L 28.644531 22.292969 C 28.992188 22.292969 29.277344 22.007812 29.277344 21.660156 L 29.277344 15.351562 C 29.277344 15.003906 28.992188 14.722656 28.644531 14.722656 Z M 28.644531 14.722656 " fill-opacity="1" fill-rule="nonzero"/><path fill="#ffffff" d="M 21.074219 13.460938 L 24.230469 13.460938 L 24.230469 14.089844 L 25.492188 14.089844 L 25.492188 12.828125 C 25.492188 12.480469 25.207031 12.199219 24.859375 12.199219 L 20.445312 12.199219 C 20.097656 12.199219 19.8125 12.480469 19.8125 12.828125 L 19.8125 14.089844 L 21.074219 14.089844 Z M 21.074219 13.460938 " fill-opacity="1" fill-rule="nonzero"/></svg>