<svg xmlns="http://www.w3.org/2000/svg" xmlns:xlink="http://www.w3.org/1999/xlink" width="64" zoomAndPan="magnify" viewBox="0 0 48 48" height="64" preserveAspectRatio="xMidYMid meet" version="1.0"><defs><clipPath id="eabbb33f89"><path d="M 0.488281 0 L 47.507812 0 L 47.507812 47.019531 L 0.488281 47.019531 Z M 0.488281 0 " clip-rule="nonzero"/></clipPath><clipPath id="2b3c228459"><path d="M 5.191406 0 L 44.128906 0 L 44.128906 42.613281 L 5.191406 42.613281 Z M 5.191406 0 " clip-rule="nonzero"/></clipPath></defs><g clip-path="url(#eabbb33f89)"><path fill="#ffffff" d="M 0.488281 0 L 47.511719 0 L 47.511719 47.019531 L 0.488281 47.019531 Z M 0.488281 0 " fill-opacity="1" fill-rule="nonzero"/><path fill="#ffffff" d="M 0.488281 0 L 47.511719 0 L 47.511719 47.019531 L 0.488281 47.019531 Z M 0.488281 0 " fill-opacity="1" fill-rule="nonzero"/></g><g clip-path="url(#2b3c228459)"><path fill="#370909" d="M 24.710938 3.789062 L 18.941406 3.789062 L 20.433594 2.300781 C 20.929688 1.808594 20.929688 1.007812 20.433594 0.511719 C 19.941406 0.0195312 19.140625 0.0195312 18.644531 0.511719 L 15 4.15625 C 14.507812 4.652344 14.507812 5.453125 15 5.945312 L 18.644531 9.589844 C 18.894531 9.835938 19.21875 9.957031 19.539062 9.957031 C 19.863281 9.957031 20.1875 9.835938 20.433594 9.589844 C 20.929688 9.09375 20.929688 8.296875 20.433594 7.800781 L 18.949219 6.3125 L 24.710938 6.3125 C 34.082031 6.3125 41.707031 13.941406 41.707031 23.308594 C 41.707031 32.679688 34.082031 40.308594 24.710938 40.308594 C 15.34375 40.308594 7.71875 32.683594 7.71875 23.3125 C 7.71875 18.621094 9.6875 14.097656 13.113281 10.894531 C 13.621094 10.417969 13.652344 9.617188 13.171875 9.109375 C 12.691406 8.601562 11.898438 8.570312 11.390625 9.050781 C 7.449219 12.726562 5.191406 17.925781 5.191406 23.3125 C 5.191406 34.078125 13.945312 42.835938 24.710938 42.835938 C 35.480469 42.835938 44.234375 34.078125 44.234375 23.3125 C 44.234375 12.550781 35.480469 3.789062 24.710938 3.789062 Z M 24.710938 3.789062 " fill-opacity="1" fill-rule="nonzero"/></g><path fill="#370909" d="M 24.710938 34.769531 C 31.039062 34.769531 36.171875 29.640625 36.171875 23.308594 C 36.171875 16.976562 31.042969 11.851562 24.710938 11.851562 C 18.386719 11.851562 13.253906 16.976562 13.253906 23.308594 C 13.253906 29.640625 18.386719 34.769531 24.710938 34.769531 Z M 23.347656 17.242188 C 23.347656 16.488281 23.957031 15.875 24.710938 15.875 C 25.46875 15.875 26.078125 16.488281 26.078125 17.242188 L 26.078125 21.949219 L 28.96875 21.949219 C 29.722656 21.949219 30.335938 22.558594 30.335938 23.3125 C 30.335938 24.070312 29.722656 24.679688 28.96875 24.679688 L 24.710938 24.679688 C 23.957031 24.679688 23.347656 24.070312 23.347656 23.3125 Z M 23.347656 17.242188 " fill-opacity="1" fill-rule="nonzero"/></svg>