<svg xmlns="http://www.w3.org/2000/svg" xmlns:xlink="http://www.w3.org/1999/xlink" width="64" zoomAndPan="magnify" viewBox="0 0 48 48" height="64" preserveAspectRatio="xMidYMid meet" version="1.0"><defs><clipPath id="2d3aae5e59"><path d="M 0.488281 0 L 47.507812 0 L 47.507812 47.019531 L 0.488281 47.019531 Z M 0.488281 0 " clip-rule="nonzero"/></clipPath><clipPath id="9a3275761a"><path d="M 6.121094 5 L 42.855469 5 L 42.855469 41 L 6.121094 41 Z M 6.121094 5 " clip-rule="nonzero"/></clipPath></defs><g clip-path="url(#2d3aae5e59)"><path fill="#ffffff" d="M 0.488281 0 L 47.511719 0 L 47.511719 47.019531 L 0.488281 47.019531 Z M 0.488281 0 " fill-opacity="1" fill-rule="nonzero"/><path fill="#ffffff" d="M 0.488281 0 L 47.511719 0 L 47.511719 47.019531 L 0.488281 47.019531 Z M 0.488281 0 " fill-opacity="1" fill-rule="nonzero"/></g><g clip-path="url(#9a3275761a)"><path fill="#370909" d="M 36.359375 28.964844 C 34.953125 28.960938 33.703125 29.410156 32.617188 30.300781 L 30.359375 28.046875 C 30.65625 27.703125 30.917969 27.332031 31.152344 26.941406 C 31.382812 26.550781 31.578125 26.140625 31.734375 25.714844 C 31.894531 25.285156 32.015625 24.847656 32.09375 24.402344 C 32.175781 23.953125 32.214844 23.5 32.214844 23.046875 C 32.214844 22.589844 32.175781 22.140625 32.09375 21.691406 C 32.015625 21.242188 31.894531 20.804688 31.734375 20.378906 C 31.578125 19.953125 31.382812 19.542969 31.152344 19.152344 C 30.917969 18.757812 30.65625 18.390625 30.359375 18.046875 L 32.273438 16.128906 C 32.957031 16.660156 33.726562 16.980469 34.582031 17.085938 L 34.582031 18.394531 C 34.398438 18.441406 34.222656 18.511719 34.054688 18.601562 C 33.886719 18.691406 33.730469 18.800781 33.589844 18.929688 C 33.445312 19.058594 33.324219 19.199219 33.214844 19.359375 C 33.109375 19.515625 33.023438 19.683594 32.957031 19.863281 C 32.890625 20.042969 32.84375 20.226562 32.824219 20.417969 C 32.800781 20.605469 32.800781 20.796875 32.828125 20.984375 C 32.851562 21.175781 32.898438 21.359375 32.964844 21.535156 C 33.035156 21.714844 33.121094 21.882812 33.230469 22.039062 C 33.339844 22.195312 33.464844 22.335938 33.609375 22.464844 C 33.753906 22.589844 33.910156 22.695312 34.078125 22.785156 C 34.246094 22.875 34.425781 22.941406 34.609375 22.984375 C 34.796875 23.03125 34.984375 23.054688 35.175781 23.054688 C 35.367188 23.054688 35.554688 23.03125 35.738281 22.984375 C 35.925781 22.941406 36.101562 22.875 36.269531 22.785156 C 36.441406 22.695312 36.597656 22.589844 36.738281 22.464844 C 36.882812 22.335938 37.007812 22.195312 37.117188 22.039062 C 37.226562 21.882812 37.316406 21.714844 37.382812 21.535156 C 37.453125 21.359375 37.5 21.175781 37.523438 20.984375 C 37.546875 20.796875 37.546875 20.605469 37.527344 20.417969 C 37.503906 20.226562 37.460938 20.042969 37.394531 19.863281 C 37.328125 19.683594 37.242188 19.515625 37.132812 19.359375 C 37.027344 19.199219 36.902344 19.058594 36.761719 18.929688 C 36.617188 18.800781 36.464844 18.691406 36.296875 18.601562 C 36.128906 18.511719 35.949219 18.441406 35.765625 18.394531 L 35.765625 17.085938 C 36.355469 17.015625 36.910156 16.835938 37.433594 16.554688 C 37.957031 16.269531 38.410156 15.902344 38.792969 15.449219 C 39.175781 14.996094 39.464844 14.488281 39.65625 13.925781 C 39.851562 13.363281 39.933594 12.789062 39.910156 12.195312 C 39.886719 11.601562 39.753906 11.03125 39.515625 10.488281 C 39.277344 9.945312 38.945312 9.460938 38.527344 9.042969 C 38.105469 8.621094 37.625 8.292969 37.082031 8.054688 C 36.539062 7.816406 35.96875 7.683594 35.375 7.660156 C 34.78125 7.636719 34.203125 7.71875 33.644531 7.914062 C 33.082031 8.105469 32.574219 8.394531 32.121094 8.777344 C 31.667969 9.160156 31.300781 9.613281 31.015625 10.136719 C 30.734375 10.65625 30.554688 11.214844 30.480469 11.804688 L 29.175781 11.804688 C 29.125 11.617188 29.058594 11.441406 28.96875 11.273438 C 28.875 11.105469 28.765625 10.949219 28.640625 10.808594 C 28.511719 10.667969 28.367188 10.542969 28.210938 10.4375 C 28.054688 10.328125 27.882812 10.242188 27.707031 10.175781 C 27.527344 10.109375 27.34375 10.066406 27.152344 10.042969 C 26.960938 10.023438 26.773438 10.023438 26.585938 10.046875 C 26.394531 10.070312 26.210938 10.117188 26.03125 10.183594 C 25.855469 10.253906 25.6875 10.34375 25.53125 10.453125 C 25.375 10.5625 25.230469 10.6875 25.105469 10.832031 C 24.980469 10.972656 24.871094 11.128906 24.785156 11.296875 C 24.695312 11.46875 24.628906 11.644531 24.582031 11.832031 C 24.539062 12.015625 24.515625 12.203125 24.515625 12.394531 C 24.515625 12.585938 24.539062 12.773438 24.582031 12.960938 C 24.628906 13.144531 24.695312 13.320312 24.785156 13.492188 C 24.871094 13.660156 24.980469 13.816406 25.105469 13.960938 C 25.230469 14.101562 25.375 14.230469 25.53125 14.339844 C 25.6875 14.445312 25.855469 14.535156 26.03125 14.605469 C 26.210938 14.671875 26.394531 14.71875 26.585938 14.742188 C 26.773438 14.765625 26.960938 14.769531 27.152344 14.746094 C 27.34375 14.722656 27.527344 14.679688 27.707031 14.613281 C 27.882812 14.546875 28.054688 14.460938 28.210938 14.355469 C 28.367188 14.246094 28.511719 14.121094 28.640625 13.980469 C 28.765625 13.839844 28.875 13.683594 28.96875 13.515625 C 29.058594 13.347656 29.125 13.171875 29.175781 12.988281 L 30.480469 12.988281 C 30.589844 13.84375 30.910156 14.613281 31.441406 15.292969 L 29.523438 17.210938 C 29.179688 16.914062 28.808594 16.648438 28.417969 16.417969 C 28.027344 16.1875 27.617188 15.992188 27.191406 15.832031 C 26.761719 15.675781 26.324219 15.554688 25.878906 15.472656 C 25.429688 15.394531 24.976562 15.355469 24.523438 15.355469 C 24.066406 15.355469 23.617188 15.394531 23.167969 15.472656 C 22.71875 15.554688 22.28125 15.675781 21.855469 15.832031 C 21.429688 15.992188 21.019531 16.1875 20.628906 16.417969 C 20.234375 16.648438 19.867188 16.914062 19.523438 17.210938 L 17.269531 14.953125 C 17.425781 14.757812 17.570312 14.554688 17.703125 14.34375 C 17.835938 14.128906 17.957031 13.910156 18.058594 13.683594 C 18.164062 13.457031 18.253906 13.222656 18.328125 12.984375 C 18.40625 12.746094 18.464844 12.503906 18.507812 12.257812 C 18.554688 12.007812 18.582031 11.761719 18.59375 11.511719 C 18.605469 11.261719 18.605469 11.011719 18.585938 10.761719 C 18.566406 10.511719 18.53125 10.265625 18.480469 10.019531 C 18.429688 9.773438 18.367188 9.535156 18.285156 9.296875 C 18.203125 9.058594 18.109375 8.828125 18 8.605469 C 17.886719 8.378906 17.765625 8.164062 17.628906 7.953125 C 17.488281 7.746094 17.339844 7.546875 17.175781 7.355469 C 17.011719 7.164062 16.839844 6.988281 16.652344 6.820312 C 16.46875 6.652344 16.273438 6.496094 16.066406 6.351562 C 15.863281 6.210938 15.648438 6.078125 15.425781 5.964844 C 15.203125 5.847656 14.976562 5.746094 14.742188 5.660156 C 14.507812 5.574219 14.269531 5.5 14.023438 5.445312 C 13.78125 5.386719 13.535156 5.347656 13.285156 5.320312 C 13.035156 5.296875 12.785156 5.285156 12.535156 5.292969 C 12.285156 5.296875 12.035156 5.320312 11.789062 5.359375 C 11.542969 5.398438 11.296875 5.449219 11.058594 5.519531 C 10.816406 5.585938 10.582031 5.671875 10.351562 5.769531 C 10.121094 5.867188 9.898438 5.980469 9.683594 6.109375 C 9.46875 6.234375 9.261719 6.375 9.0625 6.527344 C 8.863281 6.683594 8.675781 6.847656 8.5 7.023438 C 8.324219 7.199219 8.160156 7.386719 8.003906 7.585938 C 7.851562 7.785156 7.710938 7.992188 7.585938 8.207031 C 7.457031 8.421875 7.34375 8.644531 7.246094 8.875 C 7.148438 9.105469 7.0625 9.339844 6.996094 9.582031 C 6.925781 9.820312 6.875 10.066406 6.835938 10.3125 C 6.796875 10.558594 6.773438 10.808594 6.769531 11.058594 C 6.761719 11.308594 6.773438 11.558594 6.796875 11.808594 C 6.824219 12.058594 6.863281 12.304688 6.921875 12.546875 C 6.976562 12.792969 7.050781 13.03125 7.136719 13.265625 C 7.222656 13.5 7.324219 13.726562 7.441406 13.949219 C 7.554688 14.171875 7.6875 14.386719 7.828125 14.589844 C 7.972656 14.796875 8.128906 14.992188 8.296875 15.175781 C 8.464844 15.363281 8.640625 15.535156 8.832031 15.699219 C 9.023438 15.863281 9.222656 16.011719 9.429688 16.152344 C 9.640625 16.289062 9.855469 16.414062 10.082031 16.523438 C 10.304688 16.632812 10.535156 16.726562 10.773438 16.808594 C 11.011719 16.890625 11.25 16.953125 11.496094 17.003906 C 11.742188 17.054688 11.988281 17.089844 12.238281 17.109375 C 12.488281 17.128906 12.738281 17.128906 12.988281 17.117188 C 13.238281 17.105469 13.484375 17.078125 13.730469 17.03125 C 13.980469 16.988281 14.222656 16.929688 14.460938 16.851562 C 14.699219 16.777344 14.933594 16.6875 15.160156 16.582031 C 15.386719 16.480469 15.605469 16.359375 15.820312 16.226562 C 16.03125 16.09375 16.234375 15.949219 16.429688 15.792969 L 18.6875 18.046875 C 18.390625 18.390625 18.125 18.757812 17.894531 19.152344 C 17.664062 19.542969 17.46875 19.953125 17.308594 20.378906 C 17.152344 20.804688 17.03125 21.242188 16.949219 21.691406 C 16.871094 22.140625 16.832031 22.589844 16.832031 23.046875 C 16.832031 23.5 16.871094 23.953125 16.949219 24.402344 C 17.03125 24.847656 17.152344 25.285156 17.308594 25.714844 C 17.46875 26.140625 17.664062 26.550781 17.894531 26.941406 C 18.125 27.332031 18.390625 27.703125 18.6875 28.046875 L 16.769531 29.964844 C 16.089844 29.433594 15.320312 29.113281 14.464844 29.003906 L 14.464844 27.699219 C 14.648438 27.648438 14.824219 27.582031 14.992188 27.492188 C 15.160156 27.398438 15.316406 27.289062 15.457031 27.164062 C 15.597656 27.035156 15.722656 26.890625 15.832031 26.734375 C 15.9375 26.578125 16.023438 26.40625 16.089844 26.230469 C 16.15625 26.050781 16.199219 25.867188 16.222656 25.675781 C 16.246094 25.488281 16.242188 25.296875 16.21875 25.109375 C 16.195312 24.917969 16.148438 24.734375 16.082031 24.554688 C 16.011719 24.378906 15.921875 24.210938 15.8125 24.054688 C 15.707031 23.898438 15.578125 23.757812 15.4375 23.628906 C 15.292969 23.503906 15.136719 23.394531 14.96875 23.308594 C 14.796875 23.21875 14.621094 23.152344 14.4375 23.105469 C 14.25 23.0625 14.0625 23.039062 13.871094 23.039062 C 13.679688 23.039062 13.492188 23.0625 13.308594 23.105469 C 13.121094 23.152344 12.945312 23.21875 12.773438 23.308594 C 12.605469 23.394531 12.449219 23.503906 12.304688 23.628906 C 12.164062 23.757812 12.039062 23.898438 11.929688 24.054688 C 11.820312 24.210938 11.730469 24.378906 11.660156 24.554688 C 11.59375 24.734375 11.546875 24.917969 11.523438 25.109375 C 11.5 25.296875 11.496094 25.488281 11.519531 25.675781 C 11.542969 25.867188 11.585938 26.050781 11.652344 26.230469 C 11.71875 26.40625 11.804688 26.578125 11.914062 26.734375 C 12.019531 26.890625 12.144531 27.035156 12.285156 27.164062 C 12.425781 27.289062 12.582031 27.398438 12.75 27.492188 C 12.917969 27.582031 13.09375 27.648438 13.28125 27.699219 L 13.28125 29.003906 C 12.691406 29.078125 12.132812 29.257812 11.613281 29.539062 C 11.089844 29.824219 10.636719 30.191406 10.253906 30.644531 C 9.871094 31.097656 9.582031 31.605469 9.390625 32.167969 C 9.195312 32.726562 9.113281 33.304688 9.136719 33.898438 C 9.160156 34.492188 9.292969 35.0625 9.53125 35.605469 C 9.769531 36.148438 10.097656 36.628906 10.519531 37.050781 C 10.9375 37.46875 11.421875 37.800781 11.964844 38.039062 C 12.507812 38.277344 13.078125 38.410156 13.671875 38.433594 C 14.265625 38.457031 14.839844 38.375 15.402344 38.179688 C 15.964844 37.988281 16.472656 37.699219 16.925781 37.316406 C 17.378906 36.933594 17.746094 36.480469 18.03125 35.957031 C 18.3125 35.433594 18.492188 34.878906 18.5625 34.289062 L 19.871094 34.289062 C 19.917969 34.472656 19.988281 34.652344 20.078125 34.820312 C 20.167969 34.988281 20.277344 35.140625 20.40625 35.285156 C 20.535156 35.425781 20.675781 35.550781 20.835938 35.65625 C 20.992188 35.765625 21.160156 35.851562 21.339844 35.917969 C 21.519531 35.984375 21.703125 36.027344 21.894531 36.050781 C 22.082031 36.070312 22.273438 36.070312 22.460938 36.046875 C 22.652344 36.023438 22.835938 35.976562 23.011719 35.90625 C 23.191406 35.839844 23.359375 35.75 23.515625 35.640625 C 23.671875 35.53125 23.8125 35.40625 23.941406 35.261719 C 24.066406 35.121094 24.171875 34.964844 24.261719 34.792969 C 24.351562 34.625 24.417969 34.449219 24.460938 34.261719 C 24.507812 34.078125 24.53125 33.890625 24.53125 33.699219 C 24.53125 33.507812 24.507812 33.320312 24.460938 33.132812 C 24.417969 32.949219 24.351562 32.769531 24.261719 32.601562 C 24.171875 32.433594 24.066406 32.277344 23.941406 32.132812 C 23.8125 31.988281 23.671875 31.863281 23.515625 31.753906 C 23.359375 31.644531 23.191406 31.558594 23.011719 31.488281 C 22.835938 31.421875 22.652344 31.375 22.460938 31.351562 C 22.273438 31.324219 22.082031 31.324219 21.894531 31.347656 C 21.703125 31.367188 21.519531 31.414062 21.339844 31.480469 C 21.160156 31.546875 20.992188 31.632812 20.835938 31.738281 C 20.675781 31.847656 20.535156 31.96875 20.40625 32.113281 C 20.277344 32.253906 20.167969 32.410156 20.078125 32.578125 C 19.988281 32.746094 19.917969 32.921875 19.871094 33.105469 L 18.5625 33.105469 C 18.457031 32.25 18.136719 31.480469 17.605469 30.796875 L 19.523438 28.882812 C 19.867188 29.179688 20.234375 29.441406 20.628906 29.675781 C 21.019531 29.90625 21.429688 30.101562 21.855469 30.257812 C 22.28125 30.417969 22.71875 30.539062 23.167969 30.617188 C 23.617188 30.699219 24.066406 30.738281 24.523438 30.738281 C 24.976562 30.738281 25.429688 30.699219 25.878906 30.617188 C 26.324219 30.539062 26.761719 30.417969 27.191406 30.257812 C 27.617188 30.101562 28.027344 29.90625 28.417969 29.675781 C 28.808594 29.441406 29.179688 29.179688 29.523438 28.882812 L 31.777344 31.140625 C 31.496094 31.488281 31.257812 31.859375 31.058594 32.257812 C 30.863281 32.65625 30.710938 33.074219 30.609375 33.507812 C 30.503906 33.941406 30.449219 34.378906 30.445312 34.824219 C 30.441406 35.269531 30.488281 35.710938 30.582031 36.148438 C 30.679688 36.582031 30.820312 37 31.011719 37.402344 C 31.199219 37.808594 31.433594 38.183594 31.707031 38.535156 C 31.984375 38.882812 32.292969 39.199219 32.640625 39.480469 C 32.984375 39.761719 33.359375 40 33.757812 40.195312 C 34.160156 40.390625 34.574219 40.539062 35.007812 40.640625 C 35.445312 40.742188 35.882812 40.796875 36.328125 40.800781 C 36.773438 40.800781 37.214844 40.753906 37.648438 40.65625 C 38.082031 40.5625 38.503906 40.417969 38.90625 40.226562 C 39.308594 40.035156 39.683594 39.800781 40.03125 39.523438 C 40.382812 39.25 40.695312 38.9375 40.976562 38.589844 C 41.253906 38.242188 41.492188 37.867188 41.6875 37.46875 C 41.882812 37.066406 42.027344 36.648438 42.128906 36.214844 C 42.230469 35.78125 42.28125 35.34375 42.28125 34.894531 C 42.28125 34.449219 42.234375 34.011719 42.136719 33.578125 C 42.039062 33.140625 41.890625 32.722656 41.699219 32.320312 C 41.507812 31.921875 41.269531 31.546875 40.992188 31.195312 C 40.714844 30.847656 40.402344 30.535156 40.054688 30.257812 C 39.707031 29.980469 39.332031 29.742188 38.929688 29.550781 C 38.53125 29.355469 38.113281 29.210938 37.679688 29.113281 C 37.242188 29.011719 36.804688 28.964844 36.359375 28.964844 Z M 15.648438 14.902344 L 15.648438 14.171875 C 15.644531 13.351562 15.355469 12.652344 14.777344 12.074219 C 14.644531 11.941406 14.496094 11.824219 14.339844 11.71875 C 14.566406 11.5 14.742188 11.246094 14.863281 10.953125 C 14.988281 10.664062 15.050781 10.359375 15.054688 10.046875 C 15.058594 9.730469 15 9.425781 14.878906 9.132812 C 14.761719 8.839844 14.589844 8.582031 14.367188 8.359375 C 14.148438 8.132812 13.890625 7.960938 13.597656 7.839844 C 13.308594 7.71875 13.003906 7.65625 12.6875 7.65625 C 12.371094 7.65625 12.070312 7.71875 11.777344 7.839844 C 11.484375 7.960938 11.230469 8.132812 11.007812 8.359375 C 10.785156 8.582031 10.613281 8.839844 10.496094 9.132812 C 10.375 9.425781 10.316406 9.730469 10.320312 10.046875 C 10.324219 10.359375 10.386719 10.664062 10.511719 10.953125 C 10.636719 11.246094 10.8125 11.5 11.035156 11.71875 C 10.628906 11.996094 10.308594 12.347656 10.078125 12.78125 C 9.847656 13.214844 9.730469 13.679688 9.730469 14.171875 L 9.730469 14.902344 C 9.476562 14.699219 9.246094 14.472656 9.039062 14.222656 C 8.828125 13.972656 8.652344 13.703125 8.5 13.414062 C 8.347656 13.125 8.226562 12.824219 8.136719 12.511719 C 8.046875 12.199219 7.992188 11.878906 7.964844 11.554688 C 7.941406 11.230469 7.953125 10.90625 7.996094 10.585938 C 8.039062 10.261719 8.113281 9.949219 8.222656 9.640625 C 8.328125 9.332031 8.46875 9.039062 8.636719 8.761719 C 8.804688 8.484375 9 8.226562 9.21875 7.984375 C 9.441406 7.746094 9.683594 7.535156 9.949219 7.347656 C 10.214844 7.15625 10.496094 7 10.796875 6.867188 C 11.09375 6.738281 11.402344 6.640625 11.722656 6.574219 C 12.039062 6.507812 12.363281 6.472656 12.6875 6.472656 C 13.011719 6.472656 13.335938 6.507812 13.652344 6.574219 C 13.972656 6.640625 14.28125 6.738281 14.578125 6.867188 C 14.878906 7 15.160156 7.15625 15.425781 7.347656 C 15.691406 7.535156 15.933594 7.746094 16.15625 7.984375 C 16.378906 8.226562 16.574219 8.484375 16.742188 8.761719 C 16.910156 9.039062 17.046875 9.332031 17.15625 9.640625 C 17.261719 9.949219 17.335938 10.261719 17.378906 10.585938 C 17.421875 10.90625 17.433594 11.230469 17.410156 11.554688 C 17.386719 11.878906 17.328125 12.199219 17.238281 12.511719 C 17.148438 12.824219 17.027344 13.125 16.875 13.414062 C 16.726562 13.703125 16.546875 13.972656 16.339844 14.222656 C 16.132812 14.472656 15.902344 14.699219 15.648438 14.902344 Z M 28.664062 28.066406 L 28.664062 26.597656 C 28.679688 25.457031 28.285156 24.484375 27.480469 23.671875 C 27.183594 23.367188 26.84375 23.117188 26.464844 22.921875 C 26.773438 22.660156 27.019531 22.347656 27.203125 21.984375 C 27.382812 21.617188 27.488281 21.234375 27.507812 20.828125 C 27.53125 20.421875 27.472656 20.027344 27.335938 19.644531 C 27.195312 19.261719 26.984375 18.925781 26.707031 18.628906 C 26.425781 18.332031 26.101562 18.105469 25.726562 17.945312 C 25.351562 17.78125 24.960938 17.703125 24.554688 17.703125 C 24.148438 17.703125 23.757812 17.78125 23.386719 17.945312 C 23.011719 18.105469 22.683594 18.332031 22.40625 18.628906 C 22.125 18.925781 21.917969 19.261719 21.777344 19.644531 C 21.636719 20.027344 21.578125 20.421875 21.601562 20.828125 C 21.625 21.234375 21.726562 21.617188 21.910156 21.984375 C 22.089844 22.347656 22.335938 22.660156 22.648438 22.921875 C 21.953125 23.273438 21.40625 23.78125 20.996094 24.441406 C 20.589844 25.101562 20.382812 25.820312 20.378906 26.597656 L 20.378906 28.066406 C 20.039062 27.78125 19.726562 27.464844 19.449219 27.121094 C 19.167969 26.773438 18.929688 26.402344 18.726562 26.003906 C 18.523438 25.609375 18.363281 25.195312 18.246094 24.765625 C 18.128906 24.339844 18.054688 23.902344 18.027344 23.457031 C 18 23.015625 18.015625 22.570312 18.078125 22.132812 C 18.140625 21.691406 18.246094 21.261719 18.398438 20.84375 C 18.546875 20.425781 18.738281 20.023438 18.972656 19.644531 C 19.203125 19.265625 19.472656 18.914062 19.777344 18.589844 C 20.082031 18.265625 20.414062 17.976562 20.777344 17.71875 C 21.140625 17.464844 21.527344 17.246094 21.9375 17.070312 C 22.34375 16.894531 22.765625 16.757812 23.203125 16.667969 C 23.636719 16.578125 24.078125 16.535156 24.523438 16.535156 C 24.96875 16.535156 25.40625 16.578125 25.84375 16.667969 C 26.28125 16.757812 26.703125 16.894531 27.109375 17.070312 C 27.519531 17.246094 27.902344 17.464844 28.269531 17.71875 C 28.632812 17.976562 28.964844 18.265625 29.269531 18.589844 C 29.574219 18.914062 29.84375 19.265625 30.074219 19.644531 C 30.308594 20.023438 30.5 20.425781 30.648438 20.84375 C 30.800781 21.261719 30.90625 21.691406 30.96875 22.132812 C 31.03125 22.570312 31.046875 23.015625 31.019531 23.457031 C 30.992188 23.902344 30.917969 24.339844 30.800781 24.765625 C 30.683594 25.195312 30.523438 25.609375 30.320312 26.003906 C 30.117188 26.402344 29.875 26.773438 29.597656 27.121094 C 29.320312 27.464844 29.007812 27.78125 28.664062 28.066406 Z M 39.316406 38.574219 L 39.316406 37.839844 C 39.316406 37.023438 39.027344 36.324219 38.445312 35.746094 C 38.3125 35.613281 38.167969 35.492188 38.007812 35.390625 C 38.234375 35.171875 38.410156 34.914062 38.535156 34.625 C 38.660156 34.335938 38.722656 34.03125 38.726562 33.714844 C 38.726562 33.398438 38.667969 33.097656 38.550781 32.804688 C 38.433594 32.511719 38.261719 32.253906 38.039062 32.027344 C 37.816406 31.804688 37.558594 31.632812 37.269531 31.507812 C 36.976562 31.386719 36.671875 31.328125 36.359375 31.328125 C 36.042969 31.328125 35.738281 31.386719 35.449219 31.507812 C 35.15625 31.632812 34.898438 31.804688 34.675781 32.027344 C 34.453125 32.253906 34.285156 32.511719 34.164062 32.804688 C 34.046875 33.097656 33.988281 33.398438 33.992188 33.714844 C 33.992188 34.03125 34.058594 34.335938 34.179688 34.625 C 34.304688 34.914062 34.480469 35.171875 34.707031 35.390625 C 34.300781 35.664062 33.980469 36.019531 33.746094 36.453125 C 33.515625 36.886719 33.398438 37.347656 33.398438 37.839844 L 33.398438 38.574219 C 33.144531 38.371094 32.914062 38.144531 32.707031 37.890625 C 32.5 37.640625 32.320312 37.371094 32.167969 37.082031 C 32.015625 36.796875 31.898438 36.496094 31.808594 36.183594 C 31.71875 35.871094 31.660156 35.550781 31.636719 35.226562 C 31.613281 34.902344 31.621094 34.578125 31.664062 34.253906 C 31.707031 33.933594 31.785156 33.617188 31.890625 33.3125 C 32 33.003906 32.136719 32.710938 32.304688 32.433594 C 32.472656 32.152344 32.667969 31.894531 32.890625 31.65625 C 33.113281 31.417969 33.355469 31.203125 33.621094 31.015625 C 33.886719 30.828125 34.167969 30.667969 34.464844 30.539062 C 34.765625 30.410156 35.074219 30.3125 35.390625 30.246094 C 35.710938 30.179688 36.03125 30.144531 36.359375 30.144531 C 36.683594 30.144531 37.003906 30.179688 37.324219 30.246094 C 37.644531 30.3125 37.953125 30.410156 38.25 30.539062 C 38.546875 30.667969 38.828125 30.828125 39.09375 31.015625 C 39.359375 31.203125 39.605469 31.417969 39.828125 31.65625 C 40.046875 31.894531 40.242188 32.152344 40.410156 32.433594 C 40.578125 32.710938 40.71875 33.003906 40.824219 33.3125 C 40.933594 33.617188 41.007812 33.933594 41.050781 34.253906 C 41.09375 34.578125 41.101562 34.902344 41.078125 35.226562 C 41.054688 35.550781 41 35.871094 40.910156 36.183594 C 40.820312 36.496094 40.699219 36.796875 40.546875 37.082031 C 40.394531 37.371094 40.214844 37.640625 40.007812 37.890625 C 39.800781 38.144531 39.570312 38.371094 39.316406 38.574219 Z M 39.316406 38.574219 " fill-opacity="1" fill-rule="nonzero"/></g></svg>