<svg xmlns="http://www.w3.org/2000/svg" xmlns:xlink="http://www.w3.org/1999/xlink" width="64" zoomAndPan="magnify" viewBox="0 0 48 48" height="64" preserveAspectRatio="xMidYMid meet" version="1.0"><defs><clipPath id="e03d2e23ec"><path d="M 0.488281 0 L 47.507812 0 L 47.507812 47.019531 L 0.488281 47.019531 Z M 0.488281 0 " clip-rule="nonzero"/></clipPath><clipPath id="a30f59ce75"><path d="M 34 4.703125 L 41 4.703125 L 41 8 L 34 8 Z M 34 4.703125 " clip-rule="nonzero"/></clipPath><clipPath id="d469859e41"><path d="M 4.34375 22 L 23 22 L 23 38 L 4.34375 38 Z M 4.34375 22 " clip-rule="nonzero"/></clipPath></defs><g clip-path="url(#e03d2e23ec)"><path fill="#ffffff" d="M 0.488281 0 L 47.511719 0 L 47.511719 47.019531 L 0.488281 47.019531 Z M 0.488281 0 " fill-opacity="1" fill-rule="nonzero"/><path fill="#ffffff" d="M 0.488281 0 L 47.511719 0 L 47.511719 47.019531 L 0.488281 47.019531 Z M 0.488281 0 " fill-opacity="1" fill-rule="nonzero"/></g><g clip-path="url(#a30f59ce75)"><path fill="#370909" d="M 40.160156 7.113281 C 39.34375 5.675781 38.300781 4.703125 37.160156 4.703125 C 36.015625 4.703125 34.972656 5.675781 34.15625 7.113281 C 36.15625 7.492188 38.160156 7.492188 40.160156 7.113281 Z M 40.160156 7.113281 " fill-opacity="1" fill-rule="nonzero"/></g><path fill="#370909" d="M 43.523438 15.515625 L 41.851562 13.894531 C 41.851562 13.863281 41.851562 13.835938 41.851562 13.808594 C 41.832031 11.902344 41.460938 10.070312 40.738281 8.3125 C 39.558594 8.566406 38.367188 8.695312 37.160156 8.695312 C 35.949219 8.695312 34.757812 8.566406 33.578125 8.3125 C 32.855469 10.070312 32.484375 11.902344 32.464844 13.808594 C 32.464844 13.910156 32.472656 14.007812 32.472656 14.109375 L 31.023438 15.515625 L 31.023438 20.066406 L 33.421875 18.207031 C 33.644531 18.664062 33.910156 19.097656 34.222656 19.5 L 40.160156 19.5 C 40.460938 19.09375 40.71875 18.660156 40.929688 18.203125 L 43.523438 20.066406 Z M 37.160156 13.664062 C 36.902344 13.664062 36.660156 13.617188 36.421875 13.519531 C 36.1875 13.421875 35.980469 13.28125 35.800781 13.101562 C 35.621094 12.921875 35.480469 12.714844 35.382812 12.480469 C 35.285156 12.246094 35.238281 12 35.238281 11.746094 C 35.238281 11.488281 35.285156 11.246094 35.382812 11.007812 C 35.480469 10.773438 35.621094 10.566406 35.800781 10.386719 C 35.980469 10.207031 36.1875 10.066406 36.421875 9.96875 C 36.660156 9.871094 36.902344 9.824219 37.160156 9.824219 C 37.414062 9.824219 37.65625 9.871094 37.894531 9.96875 C 38.128906 10.066406 38.335938 10.207031 38.515625 10.386719 C 38.695312 10.566406 38.835938 10.773438 38.933594 11.007812 C 39.03125 11.246094 39.078125 11.488281 39.078125 11.746094 C 39.078125 12 39.03125 12.246094 38.933594 12.480469 C 38.835938 12.714844 38.695312 12.921875 38.515625 13.101562 C 38.335938 13.28125 38.128906 13.421875 37.894531 13.519531 C 37.65625 13.617188 37.414062 13.664062 37.160156 13.664062 Z M 37.160156 13.664062 " fill-opacity="1" fill-rule="nonzero"/><path fill="#370909" d="M 37.796875 22.628906 L 36.519531 22.628906 L 36.519531 27.75 C 36.519531 28.046875 36.488281 28.335938 36.429688 28.625 C 36.375 28.914062 36.289062 29.195312 36.175781 29.464844 C 36.0625 29.738281 35.925781 29.996094 35.761719 30.238281 C 35.597656 30.484375 35.410156 30.710938 35.203125 30.917969 C 34.996094 31.125 34.769531 31.3125 34.523438 31.476562 C 34.28125 31.640625 34.023438 31.777344 33.75 31.890625 C 33.480469 32.003906 33.199219 32.089844 32.910156 32.144531 C 32.621094 32.203125 32.332031 32.234375 32.035156 32.234375 L 30.753906 32.234375 L 30.753906 33.511719 L 32.035156 33.511719 C 32.414062 33.511719 32.789062 33.476562 33.160156 33.402344 C 33.53125 33.328125 33.890625 33.21875 34.242188 33.074219 C 34.589844 32.929688 34.921875 32.75 35.234375 32.539062 C 35.550781 32.328125 35.839844 32.089844 36.109375 31.824219 C 36.375 31.554688 36.617188 31.265625 36.824219 30.949219 C 37.035156 30.636719 37.214844 30.304688 37.359375 29.957031 C 37.503906 29.605469 37.613281 29.246094 37.6875 28.875 C 37.761719 28.503906 37.796875 28.128906 37.796875 27.75 Z M 37.796875 22.628906 " fill-opacity="1" fill-rule="nonzero"/><path fill="#370909" d="M 15.285156 28.390625 C 14.828125 28.398438 14.378906 28.460938 13.941406 28.582031 L 13.941406 29.199219 C 13.941406 29.484375 13.816406 29.683594 13.558594 29.804688 C 13.339844 29.902344 13.128906 30.019531 12.929688 30.15625 C 12.6875 30.308594 12.441406 30.316406 12.195312 30.171875 L 11.640625 29.863281 C 10.949219 30.519531 10.476562 31.308594 10.230469 32.230469 L 11.1875 32.765625 C 11.089844 33.265625 11.089844 33.761719 11.1875 34.261719 L 10.230469 34.796875 C 10.476562 35.71875 10.945312 36.507812 11.640625 37.164062 L 12.195312 36.851562 C 12.441406 36.710938 12.6875 36.714844 12.929688 36.871094 C 13.128906 37.003906 13.339844 37.121094 13.558594 37.222656 C 13.816406 37.339844 13.941406 37.542969 13.941406 37.828125 L 13.941406 38.445312 C 14.882812 38.703125 15.824219 38.703125 16.765625 38.445312 L 16.765625 37.828125 C 16.761719 37.542969 16.890625 37.339844 17.144531 37.222656 C 17.367188 37.121094 17.574219 37.003906 17.777344 36.871094 C 18.015625 36.714844 18.261719 36.710938 18.507812 36.851562 L 19.0625 37.164062 C 19.753906 36.507812 20.226562 35.71875 20.472656 34.796875 L 19.515625 34.261719 C 19.613281 33.761719 19.613281 33.265625 19.515625 32.765625 L 20.472656 32.230469 C 20.226562 31.308594 19.757812 30.519531 19.066406 29.863281 L 18.507812 30.171875 C 18.261719 30.316406 18.015625 30.308594 17.777344 30.15625 C 17.574219 30.019531 17.367188 29.902344 17.144531 29.804688 C 16.890625 29.683594 16.761719 29.484375 16.765625 29.199219 L 16.765625 28.578125 C 16.28125 28.449219 15.785156 28.386719 15.285156 28.390625 Z M 17.273438 33.511719 C 17.273438 33.769531 17.222656 34.011719 17.125 34.25 C 17.027344 34.484375 16.890625 34.691406 16.710938 34.871094 C 16.53125 35.050781 16.324219 35.191406 16.085938 35.289062 C 15.851562 35.386719 15.605469 35.433594 15.351562 35.433594 C 15.097656 35.433594 14.851562 35.386719 14.617188 35.289062 C 14.382812 35.191406 14.175781 35.050781 13.992188 34.871094 C 13.8125 34.691406 13.675781 34.484375 13.578125 34.25 C 13.480469 34.011719 13.429688 33.769531 13.429688 33.511719 C 13.429688 33.257812 13.480469 33.011719 13.578125 32.777344 C 13.675781 32.542969 13.8125 32.335938 13.992188 32.15625 C 14.175781 31.976562 14.382812 31.835938 14.617188 31.738281 C 14.851562 31.640625 15.097656 31.59375 15.351562 31.59375 C 15.605469 31.59375 15.851562 31.640625 16.085938 31.738281 C 16.324219 31.835938 16.53125 31.976562 16.710938 32.15625 C 16.890625 32.335938 17.027344 32.542969 17.125 32.777344 C 17.222656 33.011719 17.273438 33.257812 17.273438 33.511719 Z M 17.273438 33.511719 " fill-opacity="1" fill-rule="nonzero"/><path fill="#370909" d="M 25.15625 28.769531 L 24 29.328125 C 24.238281 29.820312 24.433594 30.324219 24.585938 30.847656 C 24.738281 31.371094 24.84375 31.90625 24.902344 32.445312 C 24.964844 32.988281 24.980469 33.53125 24.949219 34.074219 C 24.917969 34.617188 24.839844 35.15625 24.714844 35.6875 C 24.59375 36.21875 24.425781 36.734375 24.214844 37.238281 C 24.003906 37.738281 23.75 38.21875 23.457031 38.679688 C 23.164062 39.140625 22.835938 39.570312 22.46875 39.972656 C 22.101562 40.375 21.703125 40.746094 21.273438 41.082031 C 20.847656 41.417969 20.390625 41.714844 19.910156 41.972656 C 19.429688 42.230469 18.933594 42.445312 18.417969 42.617188 C 17.898438 42.792969 17.371094 42.921875 16.832031 43.003906 C 16.296875 43.085938 15.753906 43.125 15.207031 43.117188 C 14.664062 43.105469 14.125 43.050781 13.589844 42.949219 C 13.054688 42.851562 12.53125 42.703125 12.019531 42.515625 C 11.507812 42.324219 11.015625 42.09375 10.546875 41.820312 C 10.074219 41.546875 9.628906 41.234375 9.210938 40.886719 L 10.53125 39.828125 L 6.6875 38.839844 L 6.816406 42.804688 L 8.199219 41.699219 C 8.667969 42.109375 9.167969 42.472656 9.699219 42.796875 C 10.230469 43.121094 10.785156 43.398438 11.363281 43.625 C 11.941406 43.851562 12.535156 44.03125 13.144531 44.15625 C 13.753906 44.28125 14.371094 44.355469 14.992188 44.375 C 15.613281 44.398438 16.234375 44.363281 16.851562 44.28125 C 17.46875 44.195312 18.070312 44.054688 18.664062 43.867188 C 19.257812 43.675781 19.828125 43.4375 20.382812 43.152344 C 20.933594 42.863281 21.457031 42.53125 21.953125 42.15625 C 22.445312 41.777344 22.90625 41.359375 23.328125 40.90625 C 23.753906 40.449219 24.132812 39.960938 24.472656 39.4375 C 24.8125 38.917969 25.105469 38.371094 25.351562 37.796875 C 25.597656 37.226562 25.792969 36.636719 25.9375 36.035156 C 26.082031 35.429688 26.175781 34.816406 26.214844 34.195312 C 26.253906 33.574219 26.238281 32.953125 26.171875 32.335938 C 26.105469 31.714844 25.988281 31.105469 25.816406 30.507812 C 25.644531 29.910156 25.425781 29.332031 25.15625 28.769531 Z M 25.15625 28.769531 " fill-opacity="1" fill-rule="nonzero"/><g clip-path="url(#d469859e41)"><path fill="#370909" d="M 6.390625 36.949219 C 5.960938 35.84375 5.746094 34.699219 5.75 33.511719 C 5.75 32.664062 5.859375 31.828125 6.082031 31.007812 C 6.300781 30.1875 6.628906 29.410156 7.054688 28.675781 C 7.484375 27.941406 8 27.277344 8.605469 26.679688 C 9.210938 26.082031 9.882812 25.574219 10.621094 25.15625 C 11.359375 24.738281 12.140625 24.421875 12.964844 24.210938 C 13.789062 24 14.625 23.898438 15.476562 23.910156 C 16.324219 23.921875 17.15625 24.042969 17.976562 24.273438 C 18.792969 24.507812 19.566406 24.84375 20.292969 25.28125 L 19.027344 26.296875 L 22.75 27.253906 L 22.625 23.414062 L 21.347656 24.4375 C 20.527344 23.894531 19.652344 23.46875 18.714844 23.164062 C 17.78125 22.859375 16.824219 22.683594 15.839844 22.640625 C 14.859375 22.59375 13.886719 22.683594 12.929688 22.902344 C 11.972656 23.117188 11.058594 23.460938 10.191406 23.925781 C 9.328125 24.390625 8.539062 24.964844 7.828125 25.644531 C 7.117188 26.324219 6.511719 27.085938 6.007812 27.929688 C 5.503906 28.773438 5.121094 29.667969 4.859375 30.617188 C 4.597656 31.566406 4.46875 32.53125 4.46875 33.511719 C 4.464844 34.859375 4.707031 36.160156 5.195312 37.414062 Z M 6.390625 36.949219 " fill-opacity="1" fill-rule="nonzero"/></g><path fill="#370909" d="M 39.078125 21.347656 L 40.359375 21.347656 L 40.359375 26.46875 L 39.078125 26.46875 Z M 39.078125 21.347656 " fill-opacity="1" fill-rule="nonzero"/><path fill="#370909" d="M 28.195312 32.234375 L 29.476562 32.234375 L 29.476562 33.511719 L 28.195312 33.511719 Z M 28.195312 32.234375 " fill-opacity="1" fill-rule="nonzero"/><path fill="#370909" d="M 33.957031 21.347656 L 35.238281 21.347656 L 35.238281 26.46875 L 33.957031 26.46875 Z M 33.957031 21.347656 " fill-opacity="1" fill-rule="nonzero"/></svg>