<svg xmlns="http://www.w3.org/2000/svg" xmlns:xlink="http://www.w3.org/1999/xlink" width="64" zoomAndPan="magnify" viewBox="0 0 48 48" height="64" preserveAspectRatio="xMidYMid meet" version="1.0"><defs><clipPath id="fa4c93317a"><path d="M 0.488281 0 L 47.507812 0 L 47.507812 47.019531 L 0.488281 47.019531 Z M 0.488281 0 " clip-rule="nonzero"/></clipPath><clipPath id="d733b55930"><path d="M 10 9.179688 L 38 9.179688 L 38 42.242188 L 10 42.242188 Z M 10 9.179688 " clip-rule="nonzero"/></clipPath><clipPath id="a70091ab48"><path d="M 1.722656 26 L 7 26 L 7 28 L 1.722656 28 Z M 1.722656 26 " clip-rule="nonzero"/></clipPath><clipPath id="e0dd9a208f"><path d="M 41 26 L 46.539062 26 L 46.539062 28 L 41 28 Z M 41 26 " clip-rule="nonzero"/></clipPath></defs><g clip-path="url(#fa4c93317a)"><path fill="#ffffff" d="M 0.488281 0 L 47.511719 0 L 47.511719 47.019531 L 0.488281 47.019531 Z M 0.488281 0 " fill-opacity="1" fill-rule="nonzero"/><path fill="#ffffff" d="M 0.488281 0 L 47.511719 0 L 47.511719 47.019531 L 0.488281 47.019531 Z M 0.488281 0 " fill-opacity="1" fill-rule="nonzero"/></g><g clip-path="url(#d733b55930)"><path fill="#370909" d="M 30.917969 9.414062 C 30.777344 9.269531 30.601562 9.191406 30.402344 9.179688 L 13.636719 9.179688 C 13.417969 9.179688 13.230469 9.257812 13.074219 9.414062 C 12.917969 9.570312 12.839844 9.757812 12.839844 9.976562 L 12.839844 12.050781 L 11.035156 12.050781 C 10.824219 12.050781 10.640625 12.125 10.484375 12.269531 C 10.332031 12.417969 10.25 12.597656 10.238281 12.808594 L 10.238281 41.503906 C 10.238281 41.726562 10.316406 41.914062 10.472656 42.070312 C 10.628906 42.226562 10.816406 42.304688 11.035156 42.304688 L 34.304688 42.304688 C 34.523438 42.304688 34.714844 42.226562 34.871094 42.070312 C 35.023438 41.914062 35.101562 41.726562 35.101562 41.503906 L 35.101562 39.429688 L 36.90625 39.429688 C 37.128906 39.433594 37.316406 39.355469 37.472656 39.199219 C 37.628906 39.046875 37.707031 38.859375 37.707031 38.636719 L 37.707031 16.511719 C 37.707031 16.289062 37.628906 16.105469 37.472656 15.949219 Z M 28.328125 12.257812 C 28.257812 12.191406 28.179688 12.140625 28.09375 12.101562 C 28.070312 12.089844 28.042969 12.082031 28.015625 12.070312 C 27.949219 12.050781 27.878906 12.039062 27.808594 12.035156 L 14.4375 12.035156 L 14.4375 10.777344 L 30.042969 10.777344 L 36.105469 16.84375 L 36.105469 37.867188 L 35.101562 37.867188 L 35.101562 19.355469 C 35.105469 19.339844 35.105469 19.320312 35.101562 19.304688 C 35.097656 19.234375 35.085938 19.167969 35.0625 19.101562 C 35.0625 19.078125 35.0625 19.050781 35.0625 19.023438 C 35.023438 18.9375 34.972656 18.859375 34.90625 18.792969 Z M 27.773438 20.15625 L 33.511719 20.15625 L 33.511719 40.707031 L 11.835938 40.707031 L 11.835938 13.617188 L 26.972656 13.617188 L 26.972656 19.355469 C 26.972656 19.578125 27.050781 19.765625 27.207031 19.921875 C 27.363281 20.078125 27.550781 20.15625 27.773438 20.15625 Z M 28.570312 14.746094 L 32.382812 18.558594 L 28.570312 18.558594 Z M 28.570312 14.746094 " fill-opacity="1" fill-rule="nonzero"/></g><path fill="#370909" d="M 7.632812 30.4375 C 7.492188 30.320312 7.328125 30.261719 7.140625 30.265625 C 6.882812 30.261719 6.671875 30.363281 6.515625 30.570312 L 4.722656 32.867188 C 4.582031 33.039062 4.527344 33.234375 4.554688 33.453125 C 4.582031 33.671875 4.683594 33.847656 4.855469 33.984375 C 5 34.097656 5.164062 34.15625 5.347656 34.152344 C 5.605469 34.152344 5.816406 34.050781 5.976562 33.847656 L 7.769531 31.554688 C 7.90625 31.382812 7.960938 31.1875 7.9375 30.96875 C 7.910156 30.75 7.808594 30.570312 7.632812 30.4375 Z M 7.632812 30.4375 " fill-opacity="1" fill-rule="nonzero"/><path fill="#370909" d="M 40.417969 23.886719 C 40.570312 24.007812 40.742188 24.0625 40.9375 24.058594 C 41.195312 24.0625 41.40625 23.960938 41.5625 23.753906 L 43.355469 21.460938 C 43.5625 21.199219 43.59375 20.921875 43.449219 20.621094 C 43.300781 20.320312 43.0625 20.171875 42.730469 20.175781 C 42.472656 20.175781 42.261719 20.277344 42.101562 20.476562 L 40.308594 22.769531 C 40.167969 22.9375 40.109375 23.132812 40.132812 23.351562 C 40.152344 23.570312 40.25 23.746094 40.417969 23.886719 Z M 40.417969 23.886719 " fill-opacity="1" fill-rule="nonzero"/><path fill="#370909" d="M 20.597656 22.246094 L 25 22.246094 C 25.21875 22.246094 25.40625 22.167969 25.5625 22.011719 C 25.71875 21.855469 25.796875 21.667969 25.796875 21.445312 C 25.796875 21.226562 25.71875 21.039062 25.5625 20.882812 C 25.40625 20.726562 25.21875 20.648438 25 20.648438 L 20.597656 20.648438 C 20.375 20.648438 20.1875 20.726562 20.03125 20.882812 C 19.875 21.039062 19.796875 21.226562 19.796875 21.445312 C 19.796875 21.667969 19.875 21.855469 20.03125 22.011719 C 20.1875 22.167969 20.375 22.246094 20.597656 22.246094 Z M 20.597656 22.246094 " fill-opacity="1" fill-rule="nonzero"/><g clip-path="url(#a70091ab48)"><path fill="#370909" d="M 6.550781 27.164062 C 6.550781 26.945312 6.472656 26.757812 6.316406 26.601562 C 6.160156 26.445312 5.972656 26.367188 5.753906 26.367188 L 2.683594 26.367188 C 2.460938 26.367188 2.273438 26.445312 2.117188 26.601562 C 1.960938 26.753906 1.882812 26.945312 1.882812 27.164062 C 1.882812 27.386719 1.960938 27.574219 2.117188 27.730469 C 2.273438 27.886719 2.460938 27.964844 2.683594 27.964844 L 5.757812 27.964844 C 5.976562 27.960938 6.164062 27.882812 6.320312 27.726562 C 6.472656 27.570312 6.550781 27.382812 6.550781 27.164062 Z M 6.550781 27.164062 " fill-opacity="1" fill-rule="nonzero"/></g><path fill="#370909" d="M 20.597656 19.546875 L 25 19.546875 C 25.21875 19.546875 25.40625 19.46875 25.5625 19.316406 C 25.71875 19.160156 25.796875 18.96875 25.796875 18.75 C 25.796875 18.53125 25.71875 18.339844 25.5625 18.183594 C 25.40625 18.03125 25.21875 17.953125 25 17.953125 L 20.597656 17.953125 C 20.375 17.953125 20.1875 18.03125 20.03125 18.183594 C 19.875 18.339844 19.796875 18.53125 19.796875 18.75 C 19.796875 18.96875 19.875 19.160156 20.03125 19.316406 C 20.1875 19.46875 20.375 19.546875 20.597656 19.546875 Z M 20.597656 19.546875 " fill-opacity="1" fill-rule="nonzero"/><path fill="#370909" d="M 19.804688 26.382812 C 19.804688 26.601562 19.878906 26.789062 20.035156 26.945312 C 20.191406 27.101562 20.378906 27.179688 20.597656 27.179688 L 29.929688 27.179688 C 30.148438 27.179688 30.335938 27.101562 30.492188 26.945312 C 30.648438 26.789062 30.726562 26.601562 30.726562 26.382812 C 30.726562 26.160156 30.648438 25.972656 30.492188 25.816406 C 30.335938 25.660156 30.148438 25.582031 29.929688 25.582031 L 20.597656 25.582031 C 20.378906 25.585938 20.191406 25.664062 20.035156 25.820312 C 19.878906 25.976562 19.804688 26.164062 19.804688 26.382812 Z M 19.804688 26.382812 " fill-opacity="1" fill-rule="nonzero"/><path fill="#370909" d="M 29.949219 28.304688 L 20.617188 28.304688 C 20.398438 28.304688 20.207031 28.382812 20.050781 28.539062 C 19.898438 28.695312 19.820312 28.882812 19.820312 29.105469 C 19.820312 29.324219 19.898438 29.511719 20.050781 29.667969 C 20.207031 29.824219 20.398438 29.902344 20.617188 29.902344 L 29.949219 29.902344 C 30.171875 29.902344 30.359375 29.824219 30.515625 29.667969 C 30.671875 29.511719 30.746094 29.324219 30.746094 29.105469 C 30.746094 28.882812 30.671875 28.695312 30.515625 28.539062 C 30.359375 28.382812 30.171875 28.304688 29.949219 28.304688 Z M 29.949219 28.304688 " fill-opacity="1" fill-rule="nonzero"/><path fill="#370909" d="M 5.976562 20.480469 C 5.816406 20.277344 5.609375 20.171875 5.347656 20.175781 C 5.015625 20.171875 4.777344 20.320312 4.628906 20.621094 C 4.484375 20.921875 4.515625 21.199219 4.722656 21.460938 L 6.515625 23.753906 C 6.671875 23.960938 6.882812 24.0625 7.140625 24.058594 C 7.476562 24.058594 7.714844 23.910156 7.859375 23.609375 C 8.003906 23.308594 7.976562 23.03125 7.769531 22.769531 Z M 5.976562 20.480469 " fill-opacity="1" fill-rule="nonzero"/><path fill="#370909" d="M 41.539062 30.578125 C 41.378906 30.371094 41.167969 30.269531 40.910156 30.269531 C 40.714844 30.261719 40.542969 30.320312 40.390625 30.441406 C 40.21875 30.578125 40.121094 30.753906 40.09375 30.972656 C 40.066406 31.1875 40.121094 31.382812 40.257812 31.554688 L 42.050781 33.847656 C 42.210938 34.050781 42.417969 34.152344 42.679688 34.152344 C 42.871094 34.164062 43.046875 34.105469 43.195312 33.984375 C 43.371094 33.847656 43.472656 33.667969 43.496094 33.449219 C 43.523438 33.230469 43.46875 33.035156 43.332031 32.863281 Z M 41.539062 30.578125 " fill-opacity="1" fill-rule="nonzero"/><path fill="#370909" d="M 29.949219 33.242188 L 20.617188 33.242188 C 20.398438 33.242188 20.210938 33.320312 20.054688 33.476562 C 19.898438 33.632812 19.820312 33.820312 19.820312 34.039062 C 19.820312 34.257812 19.898438 34.449219 20.054688 34.605469 C 20.210938 34.757812 20.398438 34.835938 20.617188 34.839844 L 29.949219 34.839844 C 30.171875 34.839844 30.359375 34.761719 30.515625 34.605469 C 30.671875 34.449219 30.746094 34.261719 30.746094 34.039062 C 30.746094 33.820312 30.671875 33.632812 30.515625 33.476562 C 30.359375 33.320312 30.171875 33.242188 29.949219 33.242188 Z M 29.949219 33.242188 " fill-opacity="1" fill-rule="nonzero"/><g clip-path="url(#e0dd9a208f)"><path fill="#370909" d="M 45.367188 26.367188 L 42.292969 26.367188 C 42.074219 26.367188 41.886719 26.445312 41.730469 26.601562 C 41.574219 26.757812 41.496094 26.945312 41.496094 27.164062 C 41.496094 27.386719 41.574219 27.574219 41.730469 27.730469 C 41.886719 27.886719 42.074219 27.964844 42.292969 27.964844 L 45.367188 27.964844 C 45.589844 27.964844 45.777344 27.886719 45.933594 27.730469 C 46.089844 27.574219 46.167969 27.386719 46.167969 27.164062 C 46.167969 26.945312 46.089844 26.757812 45.933594 26.601562 C 45.777344 26.445312 45.589844 26.367188 45.367188 26.367188 Z M 45.367188 26.367188 " fill-opacity="1" fill-rule="nonzero"/></g><path fill="#370909" d="M 17.785156 24.703125 C 17.671875 24.644531 17.546875 24.617188 17.417969 24.613281 C 17.097656 24.613281 16.859375 24.757812 16.714844 25.042969 L 15.296875 27.761719 L 14.617188 26.925781 C 14.457031 26.730469 14.25 26.636719 13.996094 26.636719 C 13.800781 26.632812 13.628906 26.691406 13.476562 26.816406 C 13.308594 26.957031 13.210938 27.136719 13.191406 27.355469 C 13.167969 27.570312 13.226562 27.765625 13.363281 27.9375 L 14.847656 29.707031 C 15.007812 29.898438 15.210938 30 15.464844 30 L 15.546875 30 C 15.832031 29.972656 16.039062 29.828125 16.175781 29.574219 L 18.128906 25.769531 C 18.226562 25.574219 18.242188 25.375 18.175781 25.167969 C 18.109375 24.957031 17.980469 24.804688 17.785156 24.703125 Z M 17.785156 24.703125 " fill-opacity="1" fill-rule="nonzero"/><path fill="#370909" d="M 17.785156 32.933594 C 17.671875 32.875 17.546875 32.84375 17.417969 32.84375 C 17.097656 32.84375 16.863281 32.988281 16.714844 33.273438 L 15.296875 35.988281 L 14.617188 35.160156 C 14.476562 34.988281 14.292969 34.894531 14.070312 34.875 C 13.847656 34.851562 13.652344 34.914062 13.480469 35.058594 C 13.308594 35.203125 13.214844 35.382812 13.195312 35.605469 C 13.175781 35.828125 13.234375 36.023438 13.378906 36.195312 L 14.847656 37.9375 C 15.007812 38.132812 15.210938 38.226562 15.464844 38.230469 L 15.546875 38.230469 C 15.832031 38.199219 16.042969 38.058594 16.175781 37.804688 L 18.148438 34.011719 C 18.25 33.816406 18.265625 33.609375 18.195312 33.398438 C 18.121094 33.1875 17.988281 33.03125 17.785156 32.933594 Z M 17.785156 32.933594 " fill-opacity="1" fill-rule="nonzero"/><path fill="#370909" d="M 29.949219 35.964844 L 20.617188 35.964844 C 20.398438 35.964844 20.210938 36.042969 20.054688 36.199219 C 19.898438 36.351562 19.820312 36.542969 19.820312 36.761719 C 19.820312 36.980469 19.898438 37.167969 20.054688 37.324219 C 20.210938 37.480469 20.398438 37.558594 20.617188 37.558594 L 29.949219 37.558594 C 30.171875 37.558594 30.359375 37.480469 30.515625 37.324219 C 30.671875 37.171875 30.746094 36.980469 30.746094 36.761719 C 30.746094 36.542969 30.671875 36.351562 30.515625 36.195312 C 30.359375 36.039062 30.171875 35.964844 29.949219 35.964844 Z M 29.949219 35.964844 " fill-opacity="1" fill-rule="nonzero"/><path fill="#370909" d="M 17.785156 16.472656 C 17.675781 16.417969 17.5625 16.386719 17.4375 16.386719 C 17.367188 16.375 17.296875 16.375 17.226562 16.386719 C 17.085938 16.425781 16.964844 16.496094 16.863281 16.601562 C 16.808594 16.65625 16.765625 16.71875 16.734375 16.785156 L 15.296875 19.546875 L 14.617188 18.71875 C 14.480469 18.546875 14.300781 18.449219 14.078125 18.429688 C 13.859375 18.40625 13.664062 18.464844 13.492188 18.605469 C 13.324219 18.746094 13.226562 18.925781 13.203125 19.144531 C 13.179688 19.363281 13.238281 19.558594 13.378906 19.730469 L 14.847656 21.476562 C 15.007812 21.671875 15.210938 21.765625 15.464844 21.765625 L 15.546875 21.765625 C 15.832031 21.738281 16.042969 21.597656 16.175781 21.34375 L 18.148438 17.550781 C 18.25 17.351562 18.265625 17.148438 18.195312 16.9375 C 18.121094 16.726562 17.988281 16.570312 17.785156 16.472656 Z M 17.785156 16.472656 " fill-opacity="1" fill-rule="nonzero"/></svg>