<svg xmlns="http://www.w3.org/2000/svg" xmlns:xlink="http://www.w3.org/1999/xlink" width="64" zoomAndPan="magnify" viewBox="0 0 48 48" height="64" preserveAspectRatio="xMidYMid meet" version="1.0"><defs><clipPath id="505ff7b9a8"><path d="M 0.488281 0 L 47.507812 0 L 47.507812 47.019531 L 0.488281 47.019531 Z M 0.488281 0 " clip-rule="nonzero"/></clipPath><clipPath id="c68713a951"><path d="M 5.410156 4.949219 L 42.878906 4.949219 L 42.878906 42.421875 L 5.410156 42.421875 Z M 5.410156 4.949219 " clip-rule="nonzero"/></clipPath></defs><g clip-path="url(#505ff7b9a8)"><path fill="#ffffff" d="M 0.488281 0 L 47.511719 0 L 47.511719 47.019531 L 0.488281 47.019531 Z M 0.488281 0 " fill-opacity="1" fill-rule="nonzero"/><path fill="#ffffff" d="M 0.488281 0 L 47.511719 0 L 47.511719 47.019531 L 0.488281 47.019531 Z M 0.488281 0 " fill-opacity="1" fill-rule="nonzero"/></g><g clip-path="url(#c68713a951)"><path fill="#370909" d="M 26.8125 42.257812 C 26.6875 42.292969 26.5625 42.308594 26.4375 42.304688 C 25.507812 42.265625 24.859375 41.09375 24.984375 39.683594 C 25.152344 38.066406 25.332031 36.445312 25.519531 34.824219 C 25.660156 33.53125 26.210938 32.449219 27.175781 31.578125 L 27.472656 31.320312 C 28.28125 30.601562 29.09375 29.84375 29.910156 29.039062 C 30.898438 28.074219 31.953125 27.105469 33.082031 26.140625 C 33.726562 25.585938 34.703125 25.472656 35.242188 25.875 C 35.769531 26.277344 35.632812 27.054688 35.011719 27.617188 C 33.832031 28.667969 32.730469 29.71875 31.703125 30.773438 C 32.0625 30.570312 32.425781 30.363281 32.796875 30.160156 C 34.929688 28.960938 36.875 26.980469 37.707031 24.867188 L 38.460938 22.929688 C 38.765625 22.125 39.875 21.472656 40.945312 21.476562 C 42.015625 21.480469 42.585938 22.121094 42.222656 22.925781 C 41.757812 23.964844 41.296875 25.007812 40.832031 26.046875 C 39.628906 28.746094 37.328125 31.382812 34.902344 33.449219 C 34.402344 33.871094 33.917969 34.292969 33.453125 34.714844 C 32.050781 35.976562 30.957031 37.457031 30.167969 39.167969 C 29.445312 40.6875 28.3125 41.847656 27.226562 42.144531 Z M 21.183594 42.257812 L 20.769531 42.148438 C 19.6875 41.851562 18.554688 40.6875 17.832031 39.167969 C 17.039062 37.460938 15.945312 35.976562 14.546875 34.71875 C 14.082031 34.292969 13.597656 33.871094 13.097656 33.449219 C 10.667969 31.390625 8.367188 28.75 7.164062 26.058594 C 6.703125 25.015625 6.238281 23.976562 5.773438 22.933594 C 5.417969 22.113281 5.984375 21.480469 7.0625 21.480469 C 8.140625 21.476562 9.242188 22.125 9.550781 22.929688 L 10.300781 24.867188 C 11.132812 26.984375 13.085938 28.960938 15.214844 30.160156 C 15.582031 30.367188 15.945312 30.570312 16.304688 30.777344 C 15.277344 29.722656 14.175781 28.671875 13 27.621094 C 12.367188 27.058594 12.230469 26.277344 12.753906 25.878906 C 13.289062 25.472656 14.269531 25.589844 14.917969 26.144531 C 16.042969 27.109375 17.101562 28.074219 18.085938 29.042969 C 18.902344 29.835938 19.710938 30.59375 20.515625 31.320312 L 20.8125 31.585938 C 21.777344 32.457031 22.332031 33.539062 22.472656 34.835938 C 22.660156 36.453125 22.835938 38.074219 23.003906 39.691406 C 23.132812 41.101562 22.476562 42.273438 21.550781 42.3125 C 21.425781 42.3125 21.304688 42.292969 21.183594 42.257812 Z M 20.570312 14.875 L 27.171875 14.875 C 28.792969 14.875 30.230469 15.570312 30.945312 16.585938 L 23.996094 19.5625 L 17.035156 16.574219 C 17.660156 15.566406 18.964844 14.875 20.570312 14.875 Z M 24.011719 14.023438 C 23.714844 14.023438 23.421875 13.992188 23.128906 13.933594 C 22.835938 13.875 22.554688 13.789062 22.28125 13.671875 C 22.003906 13.558594 21.746094 13.417969 21.496094 13.25 C 21.25 13.085938 21.023438 12.898438 20.8125 12.6875 C 20.601562 12.476562 20.414062 12.246094 20.25 11.996094 C 20.085938 11.75 19.945312 11.488281 19.832031 11.210938 C 19.71875 10.9375 19.636719 10.652344 19.578125 10.363281 C 19.519531 10.070312 19.492188 9.773438 19.492188 9.476562 C 19.492188 9.179688 19.523438 8.882812 19.582031 8.59375 C 19.640625 8.300781 19.726562 8.015625 19.84375 7.742188 C 19.957031 7.46875 20.097656 7.207031 20.261719 6.960938 C 20.429688 6.710938 20.617188 6.484375 20.828125 6.273438 C 21.039062 6.0625 21.269531 5.875 21.515625 5.710938 C 21.761719 5.546875 22.023438 5.40625 22.300781 5.292969 C 22.574219 5.179688 22.859375 5.09375 23.152344 5.035156 C 23.441406 4.980469 23.738281 4.949219 24.035156 4.949219 C 24.332031 4.949219 24.628906 4.980469 24.917969 5.039062 C 25.210938 5.097656 25.496094 5.183594 25.769531 5.296875 C 26.042969 5.410156 26.304688 5.550781 26.554688 5.71875 C 26.800781 5.882812 27.03125 6.070312 27.238281 6.28125 C 27.449219 6.492188 27.636719 6.722656 27.804688 6.96875 C 27.96875 7.214844 28.109375 7.476562 28.222656 7.753906 C 28.335938 8.027344 28.421875 8.3125 28.480469 8.601562 C 28.539062 8.894531 28.566406 9.191406 28.566406 9.488281 C 28.566406 9.785156 28.535156 10.082031 28.476562 10.375 C 28.417969 10.667969 28.332031 10.949219 28.21875 11.226562 C 28.101562 11.5 27.960938 11.761719 27.796875 12.011719 C 27.628906 12.257812 27.441406 12.488281 27.230469 12.699219 C 27.019531 12.910156 26.789062 13.097656 26.539062 13.261719 C 26.292969 13.429688 26.027344 13.566406 25.753906 13.679688 C 25.476562 13.796875 25.191406 13.878906 24.898438 13.9375 C 24.609375 13.996094 24.3125 14.023438 24.011719 14.023438 Z M 23.996094 28.714844 L 16.21875 24.730469 C 16.160156 24.695312 16.121094 24.644531 16.105469 24.578125 L 14.671875 16.945312 C 14.660156 16.894531 14.667969 16.847656 14.683594 16.800781 C 14.746094 16.65625 14.847656 16.617188 14.992188 16.679688 L 23.996094 20.539062 L 33 16.679688 C 33.144531 16.617188 33.246094 16.65625 33.308594 16.800781 C 33.328125 16.847656 33.332031 16.894531 33.320312 16.945312 L 31.882812 24.578125 C 31.867188 24.644531 31.828125 24.695312 31.765625 24.730469 Z M 23.996094 28.714844 " fill-opacity="1" fill-rule="nonzero"/></g></svg>