<svg xmlns="http://www.w3.org/2000/svg" width="21" height="21" viewBox="0 0 21 21" fill="none">
  <path d="M8 10.0895L10.5 12.5895L18.8333 4.25618M13.8333 3.42285H7C5.59987 3.42285 4.8998 3.42285 4.36502 3.69534C3.89462 3.93502 3.51217 4.31747 3.27248 4.78788C3 5.32265 3 6.02272 3 7.42285V14.4229C3 15.823 3 16.523 3.27248 17.0578C3.51217 17.5282 3.89462 17.9107 4.36502 18.1504C4.8998 18.4229 5.59987 18.4229 7 18.4229H14C15.4001 18.4229 16.1002 18.4229 16.635 18.1504C17.1054 17.9107 17.4878 17.5282 17.7275 17.0578C18 16.523 18 15.823 18 14.4229V10.9229" stroke="white" stroke-width="2" stroke-linecap="round" stroke-linejoin="round"/>
</svg>