<svg xmlns="http://www.w3.org/2000/svg" xmlns:xlink="http://www.w3.org/1999/xlink" width="64" zoomAndPan="magnify" viewBox="0 0 48 48" height="64" preserveAspectRatio="xMidYMid meet" version="1.0"><defs><clipPath id="9d9a8ae8bb"><path d="M 0.488281 0 L 47.507812 0 L 47.507812 47.019531 L 0.488281 47.019531 Z M 0.488281 0 " clip-rule="nonzero"/></clipPath><clipPath id="40b23fe148"><path d="M 6.585938 7 L 42.585938 7 L 42.585938 39.9375 L 6.585938 39.9375 Z M 6.585938 7 " clip-rule="nonzero"/></clipPath></defs><g clip-path="url(#9d9a8ae8bb)"><path fill="#ffffff" d="M 0.488281 0 L 47.511719 0 L 47.511719 47.019531 L 0.488281 47.019531 Z M 0.488281 0 " fill-opacity="1" fill-rule="nonzero"/><path fill="#ffffff" d="M 0.488281 0 L 47.511719 0 L 47.511719 47.019531 L 0.488281 47.019531 Z M 0.488281 0 " fill-opacity="1" fill-rule="nonzero"/></g><g clip-path="url(#40b23fe148)"><path fill="#370909" d="M 35.09375 7.140625 L 40.621094 7.140625 L 28.546875 21.03125 L 42.800781 39.867188 L 31.601562 39.867188 L 22.875 28.449219 L 12.839844 39.867188 L 7.3125 39.867188 L 20.257812 25.03125 L 6.585938 7.140625 L 18.074219 7.140625 L 26.003906 17.613281 Z M 33.128906 36.523438 L 36.183594 36.523438 L 16.402344 10.269531 L 13.058594 10.269531 Z M 33.128906 36.523438 " fill-opacity="1" fill-rule="nonzero"/></g></svg>