<svg xmlns="http://www.w3.org/2000/svg" xmlns:xlink="http://www.w3.org/1999/xlink" width="64" zoomAndPan="magnify" viewBox="0 0 48 48" height="64" preserveAspectRatio="xMidYMid meet" version="1.0"><defs><clipPath id="163670972c"><path d="M 0.488281 0 L 47.507812 0 L 47.507812 47.019531 L 0.488281 47.019531 Z M 0.488281 0 " clip-rule="nonzero"/></clipPath><clipPath id="41a3c9c04c"><path d="M 7.085938 7.742188 L 42 7.742188 L 42 42 L 7.085938 42 Z M 7.085938 7.742188 " clip-rule="nonzero"/></clipPath><clipPath id="92fc3780cd"><path d="M 42 37 L 47.492188 37 L 47.492188 42.273438 L 42 42.273438 Z M 42 37 " clip-rule="nonzero"/></clipPath></defs><g clip-path="url(#163670972c)"><path fill="#ffffff" d="M 0.488281 0 L 47.511719 0 L 47.511719 47.019531 L 0.488281 47.019531 Z M 0.488281 0 " fill-opacity="1" fill-rule="nonzero"/><path fill="#ffffff" d="M 0.488281 0 L 47.511719 0 L 47.511719 47.019531 L 0.488281 47.019531 Z M 0.488281 0 " fill-opacity="1" fill-rule="nonzero"/></g><path fill="#370909" d="M 45.519531 40.03125 C 45.703125 40.035156 45.859375 39.96875 45.984375 39.835938 C 46.113281 39.703125 46.167969 39.546875 46.160156 39.363281 C 46.160156 38.886719 45.871094 38.660156 45.285156 38.660156 L 44.335938 38.660156 L 44.335938 41.144531 L 44.691406 41.144531 L 44.691406 40.0625 L 45.132812 40.0625 L 45.140625 40.074219 L 45.820312 41.144531 L 46.203125 41.144531 L 45.472656 40.039062 Z M 45.109375 39.78125 L 44.695312 39.78125 L 44.695312 38.941406 L 45.21875 38.941406 C 45.488281 38.941406 45.796875 38.988281 45.796875 39.339844 C 45.796875 39.75 45.484375 39.78125 45.105469 39.78125 " fill-opacity="1" fill-rule="nonzero"/><g clip-path="url(#41a3c9c04c)"><path fill="#370909" d="M 36.203125 36.917969 L 31.140625 36.917969 L 31.140625 28.984375 C 31.140625 27.09375 31.105469 24.660156 28.507812 24.660156 C 25.871094 24.660156 25.464844 26.722656 25.464844 28.847656 L 25.464844 36.917969 L 20.402344 36.917969 L 20.402344 20.609375 L 25.261719 20.609375 L 25.261719 22.835938 L 25.332031 22.835938 C 25.574219 22.421875 25.867188 22.042969 26.214844 21.707031 C 26.558594 21.371094 26.941406 21.089844 27.367188 20.855469 C 27.789062 20.625 28.234375 20.453125 28.703125 20.339844 C 29.171875 20.230469 29.644531 20.183594 30.128906 20.203125 C 35.261719 20.203125 36.207031 23.578125 36.207031 27.96875 Z M 14.6875 18.378906 C 14.296875 18.378906 13.921875 18.304688 13.5625 18.15625 C 13.203125 18.003906 12.886719 17.792969 12.609375 17.519531 C 12.332031 17.242188 12.121094 16.925781 11.972656 16.566406 C 11.824219 16.203125 11.75 15.828125 11.75 15.441406 C 11.75 15.050781 11.824219 14.675781 11.972656 14.316406 C 12.121094 13.957031 12.332031 13.636719 12.609375 13.363281 C 12.882812 13.085938 13.203125 12.875 13.5625 12.726562 C 13.921875 12.574219 14.296875 12.5 14.6875 12.5 C 15.078125 12.5 15.453125 12.574219 15.8125 12.722656 C 16.171875 12.875 16.488281 13.085938 16.765625 13.359375 C 17.039062 13.636719 17.253906 13.953125 17.402344 14.316406 C 17.550781 14.675781 17.625 15.050781 17.625 15.4375 C 17.625 15.828125 17.550781 16.203125 17.402344 16.5625 C 17.253906 16.925781 17.042969 17.242188 16.765625 17.515625 C 16.488281 17.792969 16.171875 18.003906 15.8125 18.15625 C 15.453125 18.304688 15.078125 18.378906 14.6875 18.378906 M 17.21875 36.917969 L 12.148438 36.917969 L 12.148438 20.609375 L 17.21875 20.609375 Z M 38.730469 7.796875 L 9.605469 7.796875 C 9.273438 7.792969 8.957031 7.855469 8.648438 7.976562 C 8.34375 8.101562 8.070312 8.277344 7.835938 8.507812 C 7.597656 8.738281 7.414062 9.007812 7.285156 9.308594 C 7.15625 9.613281 7.085938 9.929688 7.082031 10.261719 L 7.082031 39.507812 C 7.085938 39.835938 7.15625 40.152344 7.285156 40.457031 C 7.414062 40.761719 7.597656 41.03125 7.835938 41.261719 C 8.070312 41.492188 8.34375 41.667969 8.648438 41.792969 C 8.957031 41.914062 9.273438 41.976562 9.605469 41.972656 L 38.730469 41.972656 C 39.0625 41.976562 39.378906 41.917969 39.6875 41.792969 C 39.996094 41.671875 40.269531 41.496094 40.503906 41.261719 C 40.742188 41.03125 40.925781 40.765625 41.058594 40.460938 C 41.1875 40.15625 41.257812 39.835938 41.261719 39.507812 L 41.261719 10.257812 C 41.257812 9.929688 41.1875 9.609375 41.058594 9.304688 C 40.925781 9.003906 40.742188 8.734375 40.503906 8.503906 C 40.269531 8.273438 39.996094 8.097656 39.6875 7.972656 C 39.378906 7.851562 39.058594 7.792969 38.730469 7.796875 " fill-opacity="1" fill-rule="nonzero"/></g><g clip-path="url(#92fc3780cd)"><path fill="#370909" d="M 45.152344 37.554688 C 44.945312 37.554688 44.746094 37.582031 44.550781 37.636719 C 44.355469 37.691406 44.167969 37.769531 43.992188 37.875 C 43.816406 37.976562 43.65625 38.101562 43.511719 38.246094 C 43.371094 38.394531 43.25 38.554688 43.148438 38.730469 C 43.046875 38.910156 42.96875 39.097656 42.917969 39.292969 C 42.867188 39.492188 42.839844 39.691406 42.84375 39.894531 C 42.84375 40.097656 42.871094 40.300781 42.925781 40.496094 C 42.976562 40.691406 43.054688 40.878906 43.160156 41.054688 C 43.261719 41.230469 43.382812 41.390625 43.527344 41.535156 C 43.671875 41.679688 43.835938 41.800781 44.011719 41.902344 C 44.1875 42.003906 44.375 42.082031 44.570312 42.136719 C 44.769531 42.1875 44.96875 42.214844 45.171875 42.214844 C 45.375 42.214844 45.578125 42.1875 45.773438 42.136719 C 45.972656 42.082031 46.160156 42.003906 46.335938 41.902344 C 46.511719 41.800781 46.671875 41.679688 46.816406 41.535156 C 46.960938 41.390625 47.085938 41.230469 47.1875 41.054688 C 47.289062 40.878906 47.367188 40.691406 47.421875 40.496094 C 47.476562 40.300781 47.503906 40.097656 47.503906 39.894531 C 47.503906 39.691406 47.480469 39.492188 47.425781 39.292969 C 47.375 39.097656 47.300781 38.910156 47.199219 38.730469 C 47.097656 38.554688 46.976562 38.394531 46.832031 38.246094 C 46.691406 38.101562 46.53125 37.976562 46.355469 37.875 C 46.179688 37.769531 45.992188 37.691406 45.796875 37.636719 C 45.597656 37.582031 45.398438 37.554688 45.195312 37.554688 L 45.152344 37.554688 M 45.152344 41.949219 C 44.878906 41.953125 44.617188 41.90625 44.367188 41.804688 C 44.113281 41.707031 43.890625 41.5625 43.695312 41.371094 C 43.5 41.183594 43.351562 40.964844 43.242188 40.71875 C 43.132812 40.46875 43.078125 40.210938 43.074219 39.9375 C 43.070312 39.667969 43.117188 39.40625 43.214844 39.152344 C 43.316406 38.902344 43.460938 38.679688 43.648438 38.484375 C 43.835938 38.289062 44.054688 38.136719 44.304688 38.03125 C 44.550781 37.921875 44.8125 37.867188 45.082031 37.859375 C 45.355469 37.855469 45.613281 37.902344 45.867188 38.003906 C 46.117188 38.101562 46.34375 38.246094 46.539062 38.433594 C 46.730469 38.625 46.882812 38.84375 46.992188 39.089844 C 47.097656 39.339844 47.15625 39.597656 47.160156 39.871094 C 47.160156 39.882812 47.160156 39.894531 47.160156 39.90625 C 47.164062 40.167969 47.121094 40.425781 47.023438 40.671875 C 46.929688 40.917969 46.789062 41.140625 46.605469 41.332031 C 46.421875 41.523438 46.207031 41.671875 45.964844 41.777344 C 45.722656 41.882812 45.46875 41.941406 45.203125 41.945312 L 45.152344 41.945312 " fill-opacity="1" fill-rule="nonzero"/></g></svg>