<svg xmlns="http://www.w3.org/2000/svg" xmlns:xlink="http://www.w3.org/1999/xlink" width="64" zoomAndPan="magnify" viewBox="0 0 48 48" height="64" preserveAspectRatio="xMidYMid meet" version="1.0"><defs><clipPath id="b283ba40b2"><path d="M 0.488281 0 L 47.507812 0 L 47.507812 47.019531 L 0.488281 47.019531 Z M 0.488281 0 " clip-rule="nonzero"/></clipPath></defs><g clip-path="url(#b283ba40b2)"><path fill="#ffffff" d="M 0.488281 0 L 47.511719 0 L 47.511719 47.019531 L 0.488281 47.019531 Z M 0.488281 0 " fill-opacity="1" fill-rule="nonzero"/><path fill="#ffffff" d="M 0.488281 0 L 47.511719 0 L 47.511719 47.019531 L 0.488281 47.019531 Z M 0.488281 0 " fill-opacity="1" fill-rule="nonzero"/></g><path fill="#370909" d="M 16.523438 19.660156 L 18.070312 19.660156 L 20.703125 24.417969 L 23.332031 19.660156 L 24.847656 19.660156 L 24.847656 27.480469 L 23.582031 27.480469 L 23.582031 21.488281 L 21.277344 25.636719 L 20.09375 25.636719 L 17.785156 21.488281 L 17.785156 27.480469 L 16.523438 27.480469 Z M 16.523438 19.660156 " fill-opacity="1" fill-rule="nonzero"/><path fill="#370909" d="M 28.917969 27.621094 C 28.332031 27.621094 27.820312 27.492188 27.375 27.230469 C 26.933594 26.972656 26.585938 26.613281 26.339844 26.15625 C 26.09375 25.699219 25.96875 25.171875 25.96875 24.582031 C 25.96875 23.980469 26.089844 23.453125 26.332031 22.988281 C 26.574219 22.527344 26.910156 22.167969 27.339844 21.90625 C 27.769531 21.644531 28.265625 21.515625 28.824219 21.515625 C 29.378906 21.515625 29.855469 21.644531 30.253906 21.910156 C 30.65625 22.171875 30.964844 22.539062 31.179688 23.011719 C 31.394531 23.484375 31.503906 24.039062 31.503906 24.675781 L 31.503906 25.023438 L 27.21875 25.023438 C 27.296875 25.5 27.492188 25.875 27.796875 26.148438 C 28.105469 26.421875 28.492188 26.558594 28.960938 26.558594 C 29.339844 26.558594 29.664062 26.503906 29.933594 26.390625 C 30.207031 26.277344 30.460938 26.109375 30.699219 25.882812 L 31.371094 26.703125 C 30.703125 27.3125 29.886719 27.621094 28.917969 27.621094 Z M 29.839844 22.980469 C 29.574219 22.710938 29.226562 22.578125 28.800781 22.578125 C 28.382812 22.578125 28.035156 22.714844 27.753906 22.988281 C 27.472656 23.265625 27.292969 23.636719 27.21875 24.101562 L 30.292969 24.101562 C 30.253906 23.625 30.101562 23.25 29.839844 22.980469 Z M 29.839844 22.980469 " fill-opacity="1" fill-rule="nonzero"/><path fill="#370909" d="M 33.035156 22.6875 L 31.871094 22.6875 L 31.871094 21.65625 L 33.035156 21.65625 L 33.035156 19.945312 L 34.25 19.945312 L 34.25 21.65625 L 36.015625 21.65625 L 36.015625 22.6875 L 34.25 22.6875 L 34.25 25.308594 C 34.25 25.742188 34.324219 26.054688 34.476562 26.238281 C 34.625 26.425781 34.878906 26.519531 35.238281 26.519531 C 35.398438 26.519531 35.535156 26.511719 35.648438 26.5 C 35.757812 26.488281 35.882812 26.46875 36.015625 26.445312 L 36.015625 27.46875 C 35.863281 27.511719 35.707031 27.546875 35.550781 27.570312 C 35.371094 27.597656 35.1875 27.609375 35.003906 27.609375 C 33.691406 27.609375 33.035156 26.890625 33.035156 25.453125 Z M 33.035156 22.6875 " fill-opacity="1" fill-rule="nonzero"/><path fill="#370909" d="M 42.359375 27.480469 L 41.167969 27.480469 L 41.167969 26.664062 C 40.953125 26.96875 40.683594 27.207031 40.355469 27.371094 C 40.027344 27.535156 39.65625 27.621094 39.238281 27.621094 C 38.726562 27.621094 38.269531 27.488281 37.875 27.226562 C 37.476562 26.964844 37.164062 26.601562 36.9375 26.140625 C 36.710938 25.683594 36.597656 25.15625 36.597656 24.566406 C 36.597656 23.96875 36.710938 23.441406 36.945312 22.984375 C 37.175781 22.527344 37.492188 22.167969 37.902344 21.90625 C 38.308594 21.644531 38.777344 21.515625 39.304688 21.515625 C 39.703125 21.515625 40.0625 21.59375 40.378906 21.746094 C 40.695312 21.898438 40.957031 22.117188 41.164062 22.402344 L 41.164062 21.65625 L 42.359375 21.65625 Z M 41.144531 23.691406 C 41.011719 23.363281 40.808594 23.101562 40.527344 22.910156 C 40.246094 22.714844 39.921875 22.621094 39.550781 22.621094 C 39.03125 22.621094 38.617188 22.796875 38.304688 23.144531 C 37.996094 23.496094 37.84375 23.96875 37.84375 24.566406 C 37.84375 25.164062 37.992188 25.640625 38.289062 25.988281 C 38.585938 26.339844 38.992188 26.515625 39.5 26.515625 C 39.878906 26.515625 40.210938 26.417969 40.507812 26.222656 C 40.800781 26.03125 41.011719 25.769531 41.144531 25.441406 Z M 41.144531 23.691406 " fill-opacity="1" fill-rule="nonzero"/><path fill="#370909" d="M 10.425781 19.394531 C 9.410156 19.394531 8.617188 20.160156 7.898438 21.132812 C 6.910156 19.875 6.085938 19.394531 5.097656 19.394531 C 3.085938 19.394531 1.542969 22.015625 1.542969 24.792969 C 1.542969 26.527344 2.382812 27.621094 3.789062 27.621094 C 4.800781 27.621094 5.527344 27.144531 6.824219 24.882812 C 6.824219 24.882812 7.363281 23.929688 7.734375 23.273438 C 7.863281 23.484375 8 23.710938 8.144531 23.953125 L 8.75 24.972656 C 9.933594 26.953125 10.59375 27.621094 11.785156 27.621094 C 13.15625 27.621094 13.917969 26.511719 13.917969 24.742188 C 13.917969 21.835938 12.34375 19.394531 10.425781 19.394531 Z M 5.835938 24.269531 C 4.785156 25.914062 4.421875 26.285156 3.839844 26.285156 C 3.238281 26.285156 2.878906 25.753906 2.878906 24.8125 C 2.878906 22.800781 3.882812 20.742188 5.082031 20.742188 C 5.730469 20.742188 6.269531 21.117188 7.101562 22.304688 C 6.3125 23.511719 5.835938 24.269531 5.835938 24.269531 Z M 9.796875 24.0625 L 9.070312 22.851562 C 8.875 22.53125 8.6875 22.238281 8.503906 21.96875 C 9.160156 20.960938 9.699219 20.457031 10.339844 20.457031 C 11.671875 20.457031 12.738281 22.421875 12.738281 24.832031 C 12.738281 25.75 12.4375 26.285156 11.816406 26.285156 C 11.21875 26.285156 10.933594 25.890625 9.796875 24.0625 Z M 9.796875 24.0625 " fill-opacity="1" fill-rule="nonzero"/></svg>