<svg xmlns="http://www.w3.org/2000/svg" xmlns:xlink="http://www.w3.org/1999/xlink" width="64" zoomAndPan="magnify" viewBox="0 0 48 48" height="64" preserveAspectRatio="xMidYMid meet" version="1.0"><defs><clipPath id="646044d514"><path d="M 0.488281 0 L 47.507812 0 L 47.507812 47.019531 L 0.488281 47.019531 Z M 0.488281 0 " clip-rule="nonzero"/></clipPath><clipPath id="92188da4ed"><path d="M 3.792969 8.5625 L 46.402344 8.5625 L 46.402344 38.683594 L 3.792969 38.683594 Z M 3.792969 8.5625 " clip-rule="nonzero"/></clipPath></defs><g clip-path="url(#646044d514)"><path fill="#ffffff" d="M 0.488281 0 L 47.511719 0 L 47.511719 47.019531 L 0.488281 47.019531 Z M 0.488281 0 " fill-opacity="1" fill-rule="nonzero"/><path fill="#ffffff" d="M 0.488281 0 L 47.511719 0 L 47.511719 47.019531 L 0.488281 47.019531 Z M 0.488281 0 " fill-opacity="1" fill-rule="nonzero"/></g><g clip-path="url(#92188da4ed)"><path fill="#370909" d="M 45.296875 13.238281 C 44.8125 11.402344 43.375 9.957031 41.550781 9.46875 C 38.246094 8.574219 24.988281 8.574219 24.988281 8.574219 C 24.988281 8.574219 11.730469 8.574219 8.425781 9.46875 C 6.601562 9.957031 5.164062 11.402344 4.675781 13.238281 C 3.792969 16.566406 3.792969 23.507812 3.792969 23.507812 C 3.792969 23.507812 3.792969 30.453125 4.675781 33.78125 C 5.164062 35.617188 6.601562 37.0625 8.425781 37.550781 C 11.730469 38.445312 24.988281 38.445312 24.988281 38.445312 C 24.988281 38.445312 38.246094 38.445312 41.550781 37.550781 C 43.375 37.0625 44.8125 35.617188 45.296875 33.78125 C 46.183594 30.453125 46.183594 23.507812 46.183594 23.507812 C 46.183594 23.507812 46.183594 16.566406 45.296875 13.238281 " fill-opacity="1" fill-rule="nonzero"/></g><path fill="#ffffff" d="M 20.652344 29.8125 L 31.730469 23.511719 L 20.652344 17.207031 Z M 20.652344 29.8125 " fill-opacity="1" fill-rule="nonzero"/></svg>