<svg xmlns="http://www.w3.org/2000/svg" xmlns:xlink="http://www.w3.org/1999/xlink" width="64" zoomAndPan="magnify" viewBox="0 0 48 48" height="64" preserveAspectRatio="xMidYMid meet" version="1.0"><defs><clipPath id="e40e3b46af"><path d="M 0.488281 0 L 47.507812 0 L 47.507812 47.019531 L 0.488281 47.019531 Z M 0.488281 0 " clip-rule="nonzero"/></clipPath><clipPath id="061a892b9a"><path d="M 3.613281 3.121094 L 44.753906 3.121094 L 44.753906 44 L 3.613281 44 Z M 3.613281 3.121094 " clip-rule="nonzero"/></clipPath></defs><g clip-path="url(#e40e3b46af)"><path fill="#ffffff" d="M 0.488281 0 L 47.511719 0 L 47.511719 47.019531 L 0.488281 47.019531 Z M 0.488281 0 " fill-opacity="1" fill-rule="nonzero"/><path fill="#ffffff" d="M 0.488281 0 L 47.511719 0 L 47.511719 47.019531 L 0.488281 47.019531 Z M 0.488281 0 " fill-opacity="1" fill-rule="nonzero"/></g><g clip-path="url(#061a892b9a)"><path fill="#370909" d="M 15.554688 3.265625 C 13.386719 3.367188 11.90625 3.714844 10.609375 4.222656 C 9.269531 4.746094 8.132812 5.445312 7.003906 6.582031 C 5.875 7.714844 5.175781 8.851562 4.660156 10.195312 C 4.15625 11.492188 3.816406 12.972656 3.722656 15.144531 C 3.625 17.316406 3.605469 18.011719 3.613281 23.550781 C 3.625 29.085938 3.648438 29.78125 3.753906 31.953125 C 3.859375 34.125 4.203125 35.605469 4.710938 36.898438 C 5.234375 38.242188 5.9375 39.375 7.070312 40.507812 C 8.207031 41.636719 9.339844 42.332031 10.6875 42.851562 C 11.984375 43.351562 13.464844 43.695312 15.636719 43.789062 C 17.804688 43.882812 18.503906 43.90625 24.039062 43.894531 C 29.574219 43.886719 30.273438 43.859375 32.445312 43.757812 C 34.621094 43.652344 36.09375 43.308594 37.390625 42.800781 C 38.730469 42.277344 39.867188 41.578125 40.996094 40.441406 C 42.125 39.304688 42.820312 38.167969 43.339844 36.824219 C 43.84375 35.527344 44.183594 34.046875 44.277344 31.878906 C 44.375 29.703125 44.394531 29.007812 44.386719 23.472656 C 44.375 17.933594 44.347656 17.242188 44.246094 15.066406 C 44.144531 12.894531 43.796875 11.417969 43.289062 10.121094 C 42.765625 8.78125 42.066406 7.644531 40.929688 6.515625 C 39.796875 5.382812 38.660156 4.6875 37.316406 4.171875 C 36.019531 3.667969 34.535156 3.324219 32.367188 3.230469 C 30.195312 3.136719 29.496094 3.113281 23.960938 3.125 C 18.425781 3.136719 17.730469 3.160156 15.554688 3.265625 M 15.792969 40.121094 C 13.804688 40.035156 12.726562 39.703125 12.007812 39.429688 C 11.054688 39.0625 10.375 38.617188 9.660156 37.90625 C 8.941406 37.199219 8.503906 36.515625 8.132812 35.566406 C 7.851562 34.847656 7.515625 33.769531 7.421875 31.78125 C 7.320312 29.632812 7.300781 28.988281 7.289062 23.542969 C 7.277344 18.101562 7.296875 17.457031 7.390625 15.308594 C 7.476562 13.320312 7.808594 12.242188 8.085938 11.523438 C 8.453125 10.570312 8.894531 9.890625 9.605469 9.175781 C 10.316406 8.457031 10.996094 8.015625 11.945312 7.644531 C 12.664062 7.363281 13.742188 7.03125 15.730469 6.9375 C 17.878906 6.835938 18.523438 6.8125 23.96875 6.800781 C 29.410156 6.789062 30.054688 6.8125 32.207031 6.90625 C 34.191406 6.992188 35.273438 7.320312 35.992188 7.597656 C 36.945312 7.964844 37.621094 8.40625 38.339844 9.121094 C 39.054688 9.832031 39.496094 10.507812 39.867188 11.460938 C 40.148438 12.179688 40.484375 13.257812 40.578125 15.246094 C 40.679688 17.394531 40.703125 18.039062 40.710938 23.480469 C 40.722656 28.921875 40.703125 29.570312 40.609375 31.71875 C 40.523438 33.707031 40.191406 34.785156 39.914062 35.503906 C 39.546875 36.457031 39.105469 37.136719 38.394531 37.851562 C 37.683594 38.566406 37.003906 39.007812 36.050781 39.382812 C 35.335938 39.660156 34.253906 39.996094 32.269531 40.089844 C 30.121094 40.191406 29.476562 40.210938 24.03125 40.222656 C 18.585938 40.234375 17.945312 40.214844 15.792969 40.121094 M 32.414062 12.613281 C 32.414062 12.9375 32.476562 13.25 32.601562 13.550781 C 32.726562 13.847656 32.90625 14.113281 33.132812 14.34375 C 33.363281 14.570312 33.628906 14.746094 33.929688 14.871094 C 34.230469 14.996094 34.542969 15.058594 34.867188 15.054688 C 35.191406 15.054688 35.503906 14.992188 35.800781 14.867188 C 36.101562 14.742188 36.367188 14.566406 36.59375 14.335938 C 36.824219 14.105469 37 13.839844 37.125 13.542969 C 37.246094 13.242188 37.308594 12.929688 37.308594 12.605469 C 37.308594 12.28125 37.246094 11.96875 37.121094 11.667969 C 36.996094 11.371094 36.816406 11.105469 36.589844 10.875 C 36.359375 10.648438 36.09375 10.472656 35.792969 10.347656 C 35.492188 10.222656 35.179688 10.164062 34.855469 10.164062 C 34.53125 10.164062 34.21875 10.226562 33.921875 10.351562 C 33.621094 10.476562 33.355469 10.652344 33.128906 10.882812 C 32.898438 11.113281 32.722656 11.378906 32.597656 11.675781 C 32.476562 11.976562 32.414062 12.289062 32.414062 12.613281 M 13.53125 23.53125 C 13.542969 29.3125 18.238281 33.988281 24.019531 33.976562 C 29.800781 33.96875 34.480469 29.273438 34.46875 23.488281 C 34.457031 17.707031 29.761719 13.03125 23.980469 13.042969 C 18.199219 13.054688 13.519531 17.75 13.53125 23.53125 M 17.203125 23.523438 C 17.203125 23.078125 17.246094 22.636719 17.332031 22.195312 C 17.417969 21.757812 17.546875 21.335938 17.714844 20.921875 C 17.886719 20.507812 18.09375 20.117188 18.34375 19.746094 C 18.589844 19.375 18.871094 19.03125 19.183594 18.714844 C 19.5 18.398438 19.84375 18.113281 20.214844 17.867188 C 20.582031 17.617188 20.976562 17.40625 21.386719 17.234375 C 21.796875 17.066406 22.222656 16.933594 22.660156 16.847656 C 23.097656 16.757812 23.539062 16.714844 23.988281 16.714844 C 24.433594 16.710938 24.875 16.753906 25.3125 16.839844 C 25.75 16.929688 26.175781 17.054688 26.589844 17.226562 C 27 17.394531 27.394531 17.605469 27.765625 17.851562 C 28.136719 18.097656 28.480469 18.378906 28.796875 18.695312 C 29.113281 19.007812 29.394531 19.351562 29.644531 19.722656 C 29.890625 20.09375 30.101562 20.484375 30.273438 20.898438 C 30.445312 21.308594 30.574219 21.734375 30.664062 22.171875 C 30.75 22.609375 30.796875 23.050781 30.796875 23.496094 C 30.796875 23.941406 30.753906 24.382812 30.667969 24.824219 C 30.582031 25.261719 30.453125 25.683594 30.285156 26.097656 C 30.113281 26.511719 29.90625 26.902344 29.65625 27.273438 C 29.410156 27.644531 29.128906 27.988281 28.816406 28.304688 C 28.5 28.621094 28.15625 28.90625 27.785156 29.152344 C 27.417969 29.402344 27.023438 29.613281 26.613281 29.785156 C 26.203125 29.953125 25.777344 30.085938 25.339844 30.171875 C 24.902344 30.261719 24.460938 30.304688 24.011719 30.304688 C 23.566406 30.308594 23.125 30.265625 22.6875 30.179688 C 22.25 30.09375 21.824219 29.964844 21.410156 29.792969 C 21 29.625 20.605469 29.414062 20.234375 29.167969 C 19.863281 28.921875 19.519531 28.640625 19.203125 28.324219 C 18.886719 28.011719 18.605469 27.667969 18.355469 27.296875 C 18.109375 26.925781 17.898438 26.535156 17.726562 26.125 C 17.554688 25.710938 17.425781 25.285156 17.335938 24.847656 C 17.25 24.410156 17.203125 23.96875 17.203125 23.523438 " fill-opacity="1" fill-rule="nonzero"/></g></svg>