<svg xmlns="http://www.w3.org/2000/svg" xmlns:xlink="http://www.w3.org/1999/xlink" width="839" zoomAndPan="magnify" viewBox="0 0 629.25 198.749996" height="265" preserveAspectRatio="xMidYMid meet" version="1.0"><defs><clipPath id="4654ef24f3"><path d="M 0.0195312 0 L 628.480469 0 L 628.480469 198.5 L 0.0195312 198.5 Z M 0.0195312 0 " clip-rule="nonzero"/></clipPath><clipPath id="f5998dd82d"><path d="M 135.039062 76.183594 L 154.898438 76.183594 L 154.898438 122.625 L 135.039062 122.625 Z M 135.039062 76.183594 " clip-rule="nonzero"/></clipPath><clipPath id="41cbcd3383"><path d="M 154.796875 87.597656 L 135.15625 76.359375 L 135.15625 122.539062 L 143.011719 117.972656 L 143.011719 104.980469 L 148.949219 108.40625 L 148.863281 99.535156 L 143.011719 96.113281 L 143.011719 90.933594 L 154.796875 97.867188 Z M 154.796875 87.597656 " clip-rule="nonzero"/></clipPath><linearGradient x1="235.919974" gradientTransform="matrix(0.389421, 0, 0, 0.391615, 43.282662, -228.723413)" y1="837.89001" x2="286.35997" gradientUnits="userSpaceOnUse" y2="837.89001" id="457278ec5f"><stop stop-opacity="1" stop-color="rgb(100%, 54.292297%, 0%)" offset="0"/><stop stop-opacity="1" stop-color="rgb(100%, 54.434204%, 0%)" offset="0.03125"/><stop stop-opacity="1" stop-color="rgb(100%, 54.719543%, 0%)" offset="0.0625"/><stop stop-opacity="1" stop-color="rgb(100%, 55.004883%, 0%)" offset="0.09375"/><stop stop-opacity="1" stop-color="rgb(100%, 55.290222%, 0%)" offset="0.125"/><stop stop-opacity="1" stop-color="rgb(100%, 55.575562%, 0%)" offset="0.15625"/><stop stop-opacity="1" stop-color="rgb(100%, 55.860901%, 0%)" offset="0.1875"/><stop stop-opacity="1" stop-color="rgb(100%, 56.14624%, 0%)" offset="0.21875"/><stop stop-opacity="1" stop-color="rgb(100%, 56.43158%, 0%)" offset="0.25"/><stop stop-opacity="1" stop-color="rgb(100%, 56.716919%, 0%)" offset="0.28125"/><stop stop-opacity="1" stop-color="rgb(100%, 57.002258%, 0%)" offset="0.3125"/><stop stop-opacity="1" stop-color="rgb(100%, 57.287598%, 0%)" offset="0.34375"/><stop stop-opacity="1" stop-color="rgb(100%, 57.572937%, 0%)" offset="0.375"/><stop stop-opacity="1" stop-color="rgb(100%, 57.858276%, 0%)" offset="0.40625"/><stop stop-opacity="1" stop-color="rgb(100%, 58.143616%, 0%)" offset="0.4375"/><stop stop-opacity="1" stop-color="rgb(100%, 58.428955%, 0%)" offset="0.46875"/><stop stop-opacity="1" stop-color="rgb(100%, 58.714294%, 0%)" offset="0.5"/><stop stop-opacity="1" stop-color="rgb(100%, 58.999634%, 0%)" offset="0.53125"/><stop stop-opacity="1" stop-color="rgb(100%, 59.284973%, 0%)" offset="0.5625"/><stop stop-opacity="1" stop-color="rgb(100%, 59.570312%, 0%)" offset="0.59375"/><stop stop-opacity="1" stop-color="rgb(100%, 59.855652%, 0%)" offset="0.625"/><stop stop-opacity="1" stop-color="rgb(100%, 60.140991%, 0%)" offset="0.65625"/><stop stop-opacity="1" stop-color="rgb(100%, 60.426331%, 0%)" offset="0.6875"/><stop stop-opacity="1" stop-color="rgb(100%, 60.71167%, 0%)" offset="0.71875"/><stop stop-opacity="1" stop-color="rgb(100%, 60.997009%, 0%)" offset="0.75"/><stop stop-opacity="1" stop-color="rgb(100%, 61.282349%, 0%)" offset="0.78125"/><stop stop-opacity="1" stop-color="rgb(100%, 61.567688%, 0%)" offset="0.8125"/><stop stop-opacity="1" stop-color="rgb(100%, 61.853027%, 0%)" offset="0.84375"/><stop stop-opacity="1" stop-color="rgb(100%, 62.138367%, 0%)" offset="0.875"/><stop stop-opacity="1" stop-color="rgb(100%, 62.423706%, 0%)" offset="0.90625"/><stop stop-opacity="1" stop-color="rgb(100%, 62.709045%, 0%)" offset="0.9375"/><stop stop-opacity="1" stop-color="rgb(100%, 62.994385%, 0%)" offset="0.96875"/><stop stop-opacity="1" stop-color="rgb(100%, 63.279724%, 0%)" offset="1"/></linearGradient><clipPath id="4669bb4c63"><path d="M 113.621094 76.183594 L 133.480469 76.183594 L 133.480469 122.625 L 113.621094 122.625 Z M 113.621094 76.183594 " clip-rule="nonzero"/></clipPath><clipPath id="c6c8869d30"><path d="M 113.769531 87.597656 L 133.410156 76.359375 L 133.410156 122.539062 L 125.550781 117.972656 L 125.550781 90.933594 L 113.769531 97.867188 Z M 113.769531 87.597656 " clip-rule="nonzero"/></clipPath><linearGradient x1="180.999986" gradientTransform="matrix(0.389421, 0, 0, 0.391615, 43.282662, -228.723413)" y1="837.89001" x2="231.439982" gradientUnits="userSpaceOnUse" y2="837.89001" id="d11aadbfb4"><stop stop-opacity="1" stop-color="rgb(100%, 44.473267%, 0%)" offset="0"/><stop stop-opacity="1" stop-color="rgb(100%, 44.615173%, 0%)" offset="0.03125"/><stop stop-opacity="1" stop-color="rgb(100%, 44.900513%, 0%)" offset="0.0625"/><stop stop-opacity="1" stop-color="rgb(100%, 45.185852%, 0%)" offset="0.09375"/><stop stop-opacity="1" stop-color="rgb(100%, 45.471191%, 0%)" offset="0.125"/><stop stop-opacity="1" stop-color="rgb(100%, 45.756531%, 0%)" offset="0.15625"/><stop stop-opacity="1" stop-color="rgb(100%, 46.04187%, 0%)" offset="0.1875"/><stop stop-opacity="1" stop-color="rgb(100%, 46.327209%, 0%)" offset="0.21875"/><stop stop-opacity="1" stop-color="rgb(100%, 46.612549%, 0%)" offset="0.25"/><stop stop-opacity="1" stop-color="rgb(100%, 46.897888%, 0%)" offset="0.28125"/><stop stop-opacity="1" stop-color="rgb(100%, 47.183228%, 0%)" offset="0.3125"/><stop stop-opacity="1" stop-color="rgb(100%, 47.468567%, 0%)" offset="0.34375"/><stop stop-opacity="1" stop-color="rgb(100%, 47.753906%, 0%)" offset="0.375"/><stop stop-opacity="1" stop-color="rgb(100%, 48.039246%, 0%)" offset="0.40625"/><stop stop-opacity="1" stop-color="rgb(100%, 48.324585%, 0%)" offset="0.4375"/><stop stop-opacity="1" stop-color="rgb(100%, 48.609924%, 0%)" offset="0.46875"/><stop stop-opacity="1" stop-color="rgb(100%, 48.895264%, 0%)" offset="0.5"/><stop stop-opacity="1" stop-color="rgb(100%, 49.180603%, 0%)" offset="0.53125"/><stop stop-opacity="1" stop-color="rgb(100%, 49.465942%, 0%)" offset="0.5625"/><stop stop-opacity="1" stop-color="rgb(100%, 49.751282%, 0%)" offset="0.59375"/><stop stop-opacity="1" stop-color="rgb(100%, 50.036621%, 0%)" offset="0.625"/><stop stop-opacity="1" stop-color="rgb(100%, 50.32196%, 0%)" offset="0.65625"/><stop stop-opacity="1" stop-color="rgb(100%, 50.6073%, 0%)" offset="0.6875"/><stop stop-opacity="1" stop-color="rgb(100%, 50.892639%, 0%)" offset="0.71875"/><stop stop-opacity="1" stop-color="rgb(100%, 51.177979%, 0%)" offset="0.75"/><stop stop-opacity="1" stop-color="rgb(100%, 51.463318%, 0%)" offset="0.78125"/><stop stop-opacity="1" stop-color="rgb(100%, 51.748657%, 0%)" offset="0.8125"/><stop stop-opacity="1" stop-color="rgb(100%, 52.033997%, 0%)" offset="0.84375"/><stop stop-opacity="1" stop-color="rgb(100%, 52.319336%, 0%)" offset="0.875"/><stop stop-opacity="1" stop-color="rgb(100%, 52.604675%, 0%)" offset="0.90625"/><stop stop-opacity="1" stop-color="rgb(100%, 52.890015%, 0%)" offset="0.9375"/><stop stop-opacity="1" stop-color="rgb(100%, 53.175354%, 0%)" offset="0.96875"/><stop stop-opacity="1" stop-color="rgb(100%, 53.460693%, 0%)" offset="1"/></linearGradient><clipPath id="a752463339"><path d="M 186 86 L 362.789062 86 L 362.789062 116 L 186 116 Z M 186 86 " clip-rule="nonzero"/></clipPath></defs><g clip-path="url(#4654ef24f3)"><path fill="#ffffff" d="M 0.0195312 0 L 628.480469 0 L 628.480469 198.5 L 0.0195312 198.5 Z M 0.0195312 0 " fill-opacity="1" fill-rule="nonzero"/><path fill="#ffffff" d="M 0.0195312 0 L 628.480469 0 L 628.480469 198.5 L 0.0195312 198.5 Z M 0.0195312 0 " fill-opacity="1" fill-rule="nonzero"/></g><g clip-path="url(#f5998dd82d)"><g clip-path="url(#41cbcd3383)"><path fill="url(#457278ec5f)" d="M 135.15625 76.359375 L 135.15625 122.539062 L 154.796875 122.539062 L 154.796875 76.359375 Z M 135.15625 76.359375 " fill-rule="nonzero"/></g></g><g clip-path="url(#4669bb4c63)"><g clip-path="url(#c6c8869d30)"><path fill="url(#d11aadbfb4)" d="M 113.769531 76.359375 L 113.769531 122.539062 L 133.410156 122.539062 L 133.410156 76.359375 Z M 113.769531 76.359375 " fill-rule="nonzero"/></g></g><path fill="#425066" d="M 190.328125 90.667969 L 181.597656 90.667969 L 181.597656 114.988281 L 176.710938 114.988281 L 176.710938 90.667969 L 167.980469 90.667969 L 167.980469 86.71875 L 190.328125 86.71875 Z M 190.328125 90.667969 " fill-opacity="1" fill-rule="nonzero"/><g clip-path="url(#a752463339)"><path fill="#425066" d="M 196.175781 115.339844 C 193.210938 115.339844 190.765625 114.375 188.929688 112.53125 C 187.097656 110.683594 186.136719 108.140625 186.136719 104.980469 L 186.136719 104.363281 C 186.105469 102.394531 186.515625 100.523438 187.367188 98.75 C 188.148438 97.144531 189.285156 95.855469 190.773438 94.882812 C 192.261719 93.925781 193.894531 93.457031 195.664062 93.480469 C 198.539062 93.480469 200.726562 94.359375 202.28125 96.203125 C 203.839844 98.046875 204.644531 100.589844 204.644531 103.925781 L 204.644531 105.855469 L 190.933594 105.855469 C 191.015625 107.445312 191.597656 108.824219 192.679688 109.984375 C 193.179688 110.507812 193.765625 110.898438 194.4375 111.160156 C 195.109375 111.417969 195.804688 111.523438 196.523438 111.476562 C 197.5625 111.507812 198.546875 111.289062 199.476562 110.824219 C 200.40625 110.359375 201.175781 109.699219 201.777344 108.847656 L 204.308594 111.304688 C 203.84375 111.945312 203.3125 112.523438 202.707031 113.035156 C 202.105469 113.546875 201.449219 113.976562 200.742188 114.328125 C 200.035156 114.679688 199.296875 114.941406 198.527344 115.113281 C 197.757812 115.285156 196.976562 115.363281 196.1875 115.34375 Z M 195.65625 97.328125 C 195.058594 97.289062 194.484375 97.386719 193.933594 97.617188 C 193.378906 97.847656 192.90625 98.191406 192.511719 98.644531 C 191.605469 99.738281 191.109375 100.996094 191.023438 102.417969 L 200.015625 102.417969 L 200.015625 102.070312 C 199.929688 100.503906 199.496094 99.257812 198.796875 98.464844 C 197.894531 97.691406 196.84375 97.316406 195.65625 97.34375 Z M 212.589844 93.90625 L 212.761719 96.359375 C 213.507812 95.4375 214.414062 94.726562 215.492188 94.234375 C 216.566406 93.738281 217.695312 93.511719 218.875 93.550781 C 223.238281 93.550781 225.421875 96.097656 225.496094 101.101562 L 225.496094 114.972656 L 220.785156 114.972656 L 220.785156 101.378906 C 220.785156 100.066406 220.523438 99.097656 219.914062 98.394531 C 219.300781 97.78125 218.425781 97.429688 217.117188 97.429688 C 216.675781 97.410156 216.238281 97.457031 215.8125 97.5625 C 215.382812 97.671875 214.980469 97.839844 214.597656 98.066406 C 214.21875 98.292969 213.878906 98.566406 213.578125 98.894531 C 213.277344 99.21875 213.027344 99.582031 212.832031 99.976562 L 212.832031 114.898438 L 208.136719 114.898438 L 208.136719 93.828125 Z M 240.71875 109.28125 C 240.726562 108.890625 240.640625 108.523438 240.453125 108.175781 C 240.265625 107.832031 240.003906 107.558594 239.671875 107.351562 C 238.609375 106.757812 237.472656 106.378906 236.269531 106.207031 C 234.871094 105.941406 233.53125 105.503906 232.25 104.894531 C 229.894531 103.75 228.746094 102.085938 228.746094 99.976562 C 228.753906 99.082031 228.957031 98.234375 229.355469 97.429688 C 229.753906 96.628906 230.308594 95.957031 231.015625 95.414062 C 232.5 94.183594 234.519531 93.566406 236.773438 93.566406 C 239.304688 93.566406 241.3125 94.183594 242.796875 95.414062 C 243.542969 95.984375 244.113281 96.695312 244.511719 97.546875 C 244.914062 98.398438 245.097656 99.292969 245.066406 100.234375 L 240.347656 100.234375 C 240.355469 99.304688 240.007812 98.546875 239.300781 97.949219 C 238.519531 97.285156 237.617188 96.992188 236.59375 97.074219 C 235.679688 97.046875 234.835938 97.277344 234.0625 97.773438 C 233.757812 97.996094 233.519531 98.277344 233.347656 98.621094 C 233.179688 98.960938 233.097656 99.324219 233.105469 99.703125 C 233.101562 100.039062 233.179688 100.351562 233.332031 100.648438 C 233.488281 100.945312 233.703125 101.1875 233.976562 101.371094 C 234.589844 101.8125 235.8125 102.15625 237.644531 102.601562 C 239.167969 102.886719 240.625 103.386719 242.007812 104.09375 C 242.980469 104.546875 243.765625 105.222656 244.363281 106.113281 C 244.542969 106.414062 244.691406 106.730469 244.8125 107.058594 C 244.933594 107.386719 245.019531 107.722656 245.078125 108.070312 C 245.136719 108.414062 245.160156 108.761719 245.152344 109.113281 C 245.144531 109.460938 245.105469 109.808594 245.035156 110.152344 C 244.964844 110.492188 244.863281 110.828125 244.726562 111.148438 C 244.59375 111.472656 244.433594 111.78125 244.242188 112.074219 C 244.050781 112.367188 243.835938 112.640625 243.59375 112.890625 C 243.351562 113.144531 243.089844 113.371094 242.804688 113.574219 C 241.25 114.71875 239.226562 115.332031 236.695312 115.332031 C 235.105469 115.371094 233.589844 115.054688 232.152344 114.375 C 230.863281 113.824219 229.816406 112.976562 229.007812 111.828125 C 228.28125 110.769531 227.902344 109.59375 227.875 108.304688 L 232.414062 108.304688 C 232.410156 108.800781 232.519531 109.269531 232.734375 109.71875 C 232.949219 110.164062 233.25 110.542969 233.636719 110.847656 C 234.550781 111.5 235.570312 111.792969 236.691406 111.726562 C 237.695312 111.78125 238.625 111.550781 239.484375 111.027344 C 239.855469 110.898438 240.152344 110.671875 240.378906 110.347656 C 240.601562 110.023438 240.714844 109.664062 240.707031 109.269531 Z M 247.789062 104.277344 C 247.746094 102.335938 248.152344 100.492188 249.015625 98.75 C 249.773438 97.148438 250.90625 95.890625 252.417969 94.972656 C 253.980469 94.050781 255.667969 93.613281 257.480469 93.652344 C 260.273438 93.652344 262.632812 94.535156 264.375 96.375 C 266.121094 98.214844 267.082031 100.589844 267.257812 103.664062 L 267.257812 104.804688 C 267.289062 106.746094 266.878906 108.589844 266.03125 110.335938 C 265.296875 111.957031 264.160156 113.21875 262.628906 114.113281 C 261.03125 115.046875 259.308594 115.484375 257.464844 115.425781 C 254.496094 115.425781 252.140625 114.460938 250.390625 112.445312 C 248.648438 110.511719 247.773438 107.878906 247.667969 104.539062 Z M 252.402344 104.71875 C 252.402344 106.910156 252.835938 108.578125 253.710938 109.808594 C 253.898438 110.050781 254.105469 110.273438 254.335938 110.476562 C 254.566406 110.679688 254.816406 110.859375 255.082031 111.011719 C 255.347656 111.164062 255.625 111.292969 255.914062 111.390625 C 256.203125 111.488281 256.5 111.558594 256.804688 111.601562 C 257.105469 111.640625 257.410156 111.652344 257.71875 111.632812 C 258.023438 111.613281 258.324219 111.5625 258.621094 111.484375 C 258.917969 111.40625 259.203125 111.300781 259.476562 111.167969 C 259.753906 111.03125 260.011719 110.871094 260.257812 110.683594 C 260.59375 110.4375 260.882812 110.144531 261.132812 109.808594 C 262.003906 108.578125 262.441406 106.738281 262.441406 104.363281 C 262.441406 102.257812 262.003906 100.589844 261.042969 99.273438 C 260.859375 99.03125 260.65625 98.808594 260.429688 98.605469 C 260.203125 98.40625 259.960938 98.226562 259.699219 98.070312 C 259.441406 97.917969 259.167969 97.789062 258.882812 97.6875 C 258.597656 97.585938 258.308594 97.511719 258.007812 97.46875 C 257.707031 97.421875 257.410156 97.410156 257.105469 97.421875 C 256.804688 97.4375 256.507812 97.480469 256.214844 97.550781 C 255.917969 97.625 255.636719 97.722656 255.359375 97.851562 C 255.085938 97.980469 254.828125 98.132812 254.582031 98.308594 C 254.242188 98.578125 253.921875 98.871094 253.625 99.1875 C 252.917969 100.417969 252.402344 102.257812 252.402344 104.71875 Z M 281.296875 98.308594 C 280.660156 98.207031 280.019531 98.148438 279.375 98.132812 C 277.191406 98.132812 275.796875 98.917969 275.011719 100.589844 L 275.011719 114.988281 L 270.292969 114.988281 L 270.292969 93.921875 L 274.746094 93.921875 L 274.832031 96.289062 C 275.96875 94.445312 277.539062 93.566406 279.546875 93.566406 C 280.113281 93.570312 280.667969 93.65625 281.207031 93.828125 L 281.292969 98.308594 Z M 300.933594 102.972656 L 289.585938 102.972656 L 289.585938 115 L 284.695312 115 L 284.695312 86.71875 L 302.609375 86.71875 L 302.609375 90.667969 L 289.601562 90.667969 L 289.601562 99.097656 L 300.949219 99.097656 Z M 310.28125 115 L 305.5625 115 L 305.5625 86.632812 L 310.277344 86.632812 Z M 313.683594 104.289062 C 313.640625 102.347656 314.050781 100.503906 314.90625 98.761719 C 315.667969 97.160156 316.804688 95.902344 318.3125 94.984375 C 319.875 94.0625 321.5625 93.625 323.375 93.664062 C 326.167969 93.664062 328.527344 94.546875 330.269531 96.386719 C 332.015625 98.226562 332.976562 100.601562 333.152344 103.675781 L 333.152344 104.816406 C 333.171875 106.742188 332.792969 108.585938 332.019531 110.347656 C 331.28125 111.96875 330.144531 113.226562 328.613281 114.125 C 327.019531 115.054688 325.304688 115.492188 323.464844 115.4375 C 320.492188 115.4375 318.136719 114.472656 316.390625 112.457031 C 314.644531 110.523438 313.683594 107.890625 313.683594 104.550781 Z M 318.398438 104.730469 C 318.398438 106.921875 318.835938 108.589844 319.710938 109.820312 C 320.132812 110.433594 320.679688 110.90625 321.347656 111.234375 C 322.015625 111.5625 322.722656 111.707031 323.464844 111.664062 C 324.195312 111.710938 324.886719 111.570312 325.542969 111.242188 C 326.199219 110.910156 326.726562 110.4375 327.128906 109.820312 C 328 108.589844 328.4375 106.75 328.4375 104.375 C 328.4375 102.269531 328 100.601562 327.042969 99.285156 C 326.859375 99.042969 326.65625 98.820312 326.429688 98.617188 C 326.203125 98.417969 325.960938 98.238281 325.699219 98.082031 C 325.441406 97.929688 325.167969 97.800781 324.882812 97.699219 C 324.597656 97.597656 324.304688 97.523438 324.007812 97.480469 C 323.707031 97.433594 323.40625 97.421875 323.105469 97.433594 C 322.804688 97.449219 322.503906 97.492188 322.210938 97.5625 C 321.917969 97.636719 321.632812 97.734375 321.359375 97.863281 C 321.085938 97.992188 320.828125 98.144531 320.582031 98.320312 C 320.242188 98.589844 319.917969 98.882812 319.621094 99.199219 C 318.832031 100.417969 318.394531 102.257812 318.394531 104.71875 Z M 354.363281 108.503906 L 357.679688 94.015625 L 362.21875 94.015625 L 356.542969 115.082031 L 352.703125 115.082031 L 348.25 100.59375 L 343.796875 115.082031 L 339.960938 115.082031 L 334.179688 94.007812 L 338.804688 94.007812 L 342.210938 108.40625 L 346.492188 94.007812 L 350.074219 94.007812 L 354.355469 108.496094 Z M 354.363281 108.503906 " fill-opacity="1" fill-rule="nonzero"/></g></svg>